# Independent procedural camera geometry; meters; Z up
o display_glass
v 0.0115810000 0.0000000000 0.0535620000
v 0.0115810000 0.0130000000 0.0535620000
v 0.0115810000 0.0129374014 0.0548362228
v 0.0115810000 0.0127502086 0.0560981742
v 0.0115810000 0.0124402244 0.0573357008
v 0.0115810000 0.0120104339 0.0585368846
v 0.0115810000 0.0114649764 0.0596901576
v 0.0115810000 0.0108091050 0.0607844130
v 0.0115810000 0.0100491359 0.0618091127
v 0.0115810000 0.0091923882 0.0627543882
v 0.0115810000 0.0082471127 0.0636111359
v 0.0115810000 0.0072224130 0.0643711050
v 0.0115810000 0.0061281576 0.0650269764
v 0.0115810000 0.0049748846 0.0655724339
v 0.0115810000 0.0037737008 0.0660022244
v 0.0115810000 0.0025361742 0.0663122086
v 0.0115810000 0.0012742228 0.0664994014
v 0.0115810000 0.0000000000 0.0665620000
v 0.0115810000 -0.0012742228 0.0664994014
v 0.0115810000 -0.0025361742 0.0663122086
v 0.0115810000 -0.0037737008 0.0660022244
v 0.0115810000 -0.0049748846 0.0655724339
v 0.0115810000 -0.0061281576 0.0650269764
v 0.0115810000 -0.0072224130 0.0643711050
v 0.0115810000 -0.0082471127 0.0636111359
v 0.0115810000 -0.0091923882 0.0627543882
v 0.0115810000 -0.0100491359 0.0618091127
v 0.0115810000 -0.0108091050 0.0607844130
v 0.0115810000 -0.0114649764 0.0596901576
v 0.0115810000 -0.0120104339 0.0585368846
v 0.0115810000 -0.0124402244 0.0573357008
v 0.0115810000 -0.0127502086 0.0560981742
v 0.0115810000 -0.0129374014 0.0548362228
v 0.0115810000 -0.0130000000 0.0535620000
v 0.0115810000 -0.0129374014 0.0522877772
v 0.0115810000 -0.0127502086 0.0510258258
v 0.0115810000 -0.0124402244 0.0497882992
v 0.0115810000 -0.0120104339 0.0485871154
v 0.0115810000 -0.0114649764 0.0474338424
v 0.0115810000 -0.0108091050 0.0463395870
v 0.0115810000 -0.0100491359 0.0453148873
v 0.0115810000 -0.0091923882 0.0443696118
v 0.0115810000 -0.0082471127 0.0435128641
v 0.0115810000 -0.0072224130 0.0427528950
v 0.0115810000 -0.0061281576 0.0420970236
v 0.0115810000 -0.0049748846 0.0415515661
v 0.0115810000 -0.0037737008 0.0411217756
v 0.0115810000 -0.0025361742 0.0408117914
v 0.0115810000 -0.0012742228 0.0406245986
v 0.0115810000 -0.0000000000 0.0405620000
v 0.0115810000 0.0012742228 0.0406245986
v 0.0115810000 0.0025361742 0.0408117914
v 0.0115810000 0.0037737008 0.0411217756
v 0.0115810000 0.0049748846 0.0415515661
v 0.0115810000 0.0061281576 0.0420970236
v 0.0115810000 0.0072224130 0.0427528950
v 0.0115810000 0.0082471127 0.0435128641
v 0.0115810000 0.0091923882 0.0443696118
v 0.0115810000 0.0100491359 0.0453148873
v 0.0115810000 0.0108091050 0.0463395870
v 0.0115810000 0.0114649764 0.0474338424
v 0.0115810000 0.0120104339 0.0485871154
v 0.0115810000 0.0124402244 0.0497882992
v 0.0115810000 0.0127502086 0.0510258258
v 0.0115810000 0.0129374014 0.0522877772
v 0.0115810000 0.0130000000 0.0535620000
v 0.0115810000 0.0129374014 0.0548362228
v 0.0115810000 0.0127502086 0.0560981742
v 0.0115810000 0.0124402244 0.0573357008
v 0.0115810000 0.0120104339 0.0585368846
v 0.0115810000 0.0114649764 0.0596901576
v 0.0115810000 0.0108091050 0.0607844130
v 0.0115810000 0.0100491359 0.0618091127
v 0.0115810000 0.0091923882 0.0627543882
v 0.0115810000 0.0082471127 0.0636111359
v 0.0115810000 0.0072224130 0.0643711050
v 0.0115810000 0.0061281576 0.0650269764
v 0.0115810000 0.0049748846 0.0655724339
v 0.0115810000 0.0037737008 0.0660022244
v 0.0115810000 0.0025361742 0.0663122086
v 0.0115810000 0.0012742228 0.0664994014
v 0.0115810000 0.0000000000 0.0665620000
v 0.0115810000 -0.0012742228 0.0664994014
v 0.0115810000 -0.0025361742 0.0663122086
v 0.0115810000 -0.0037737008 0.0660022244
v 0.0115810000 -0.0049748846 0.0655724339
v 0.0115810000 -0.0061281576 0.0650269764
v 0.0115810000 -0.0072224130 0.0643711050
v 0.0115810000 -0.0082471127 0.0636111359
v 0.0115810000 -0.0091923882 0.0627543882
v 0.0115810000 -0.0100491359 0.0618091127
v 0.0115810000 -0.0108091050 0.0607844130
v 0.0115810000 -0.0114649764 0.0596901576
v 0.0115810000 -0.0120104339 0.0585368846
v 0.0115810000 -0.0124402244 0.0573357008
v 0.0115810000 -0.0127502086 0.0560981742
v 0.0115810000 -0.0129374014 0.0548362228
v 0.0115810000 -0.0130000000 0.0535620000
v 0.0115810000 -0.0129374014 0.0522877772
v 0.0115810000 -0.0127502086 0.0510258258
v 0.0115810000 -0.0124402244 0.0497882992
v 0.0115810000 -0.0120104339 0.0485871154
v 0.0115810000 -0.0114649764 0.0474338424
v 0.0115810000 -0.0108091050 0.0463395870
v 0.0115810000 -0.0100491359 0.0453148873
v 0.0115810000 -0.0091923882 0.0443696118
v 0.0115810000 -0.0082471127 0.0435128641
v 0.0115810000 -0.0072224130 0.0427528950
v 0.0115810000 -0.0061281576 0.0420970236
v 0.0115810000 -0.0049748846 0.0415515661
v 0.0115810000 -0.0037737008 0.0411217756
v 0.0115810000 -0.0025361742 0.0408117914
v 0.0115810000 -0.0012742228 0.0406245986
v 0.0115810000 -0.0000000000 0.0405620000
v 0.0115810000 0.0012742228 0.0406245986
v 0.0115810000 0.0025361742 0.0408117914
v 0.0115810000 0.0037737008 0.0411217756
v 0.0115810000 0.0049748846 0.0415515661
v 0.0115810000 0.0061281576 0.0420970236
v 0.0115810000 0.0072224130 0.0427528950
v 0.0115810000 0.0082471127 0.0435128641
v 0.0115810000 0.0091923882 0.0443696118
v 0.0115810000 0.0100491359 0.0453148873
v 0.0115810000 0.0108091050 0.0463395870
v 0.0115810000 0.0114649764 0.0474338424
v 0.0115810000 0.0120104339 0.0485871154
v 0.0115810000 0.0124402244 0.0497882992
v 0.0115810000 0.0127502086 0.0510258258
v 0.0115810000 0.0129374014 0.0522877772
v 0.0116110000 0.0130000000 0.0535620000
v 0.0116110000 0.0129374014 0.0548362228
v 0.0116110000 0.0127502086 0.0560981742
v 0.0116110000 0.0124402244 0.0573357008
v 0.0116110000 0.0120104339 0.0585368846
v 0.0116110000 0.0114649764 0.0596901576
v 0.0116110000 0.0108091050 0.0607844130
v 0.0116110000 0.0100491359 0.0618091127
v 0.0116110000 0.0091923882 0.0627543882
v 0.0116110000 0.0082471127 0.0636111359
v 0.0116110000 0.0072224130 0.0643711050
v 0.0116110000 0.0061281576 0.0650269764
v 0.0116110000 0.0049748846 0.0655724339
v 0.0116110000 0.0037737008 0.0660022244
v 0.0116110000 0.0025361742 0.0663122086
v 0.0116110000 0.0012742228 0.0664994014
v 0.0116110000 0.0000000000 0.0665620000
v 0.0116110000 -0.0012742228 0.0664994014
v 0.0116110000 -0.0025361742 0.0663122086
v 0.0116110000 -0.0037737008 0.0660022244
v 0.0116110000 -0.0049748846 0.0655724339
v 0.0116110000 -0.0061281576 0.0650269764
v 0.0116110000 -0.0072224130 0.0643711050
v 0.0116110000 -0.0082471127 0.0636111359
v 0.0116110000 -0.0091923882 0.0627543882
v 0.0116110000 -0.0100491359 0.0618091127
v 0.0116110000 -0.0108091050 0.0607844130
v 0.0116110000 -0.0114649764 0.0596901576
v 0.0116110000 -0.0120104339 0.0585368846
v 0.0116110000 -0.0124402244 0.0573357008
v 0.0116110000 -0.0127502086 0.0560981742
v 0.0116110000 -0.0129374014 0.0548362228
v 0.0116110000 -0.0130000000 0.0535620000
v 0.0116110000 -0.0129374014 0.0522877772
v 0.0116110000 -0.0127502086 0.0510258258
v 0.0116110000 -0.0124402244 0.0497882992
v 0.0116110000 -0.0120104339 0.0485871154
v 0.0116110000 -0.0114649764 0.0474338424
v 0.0116110000 -0.0108091050 0.0463395870
v 0.0116110000 -0.0100491359 0.0453148873
v 0.0116110000 -0.0091923882 0.0443696118
v 0.0116110000 -0.0082471127 0.0435128641
v 0.0116110000 -0.0072224130 0.0427528950
v 0.0116110000 -0.0061281576 0.0420970236
v 0.0116110000 -0.0049748846 0.0415515661
v 0.0116110000 -0.0037737008 0.0411217756
v 0.0116110000 -0.0025361742 0.0408117914
v 0.0116110000 -0.0012742228 0.0406245986
v 0.0116110000 -0.0000000000 0.0405620000
v 0.0116110000 0.0012742228 0.0406245986
v 0.0116110000 0.0025361742 0.0408117914
v 0.0116110000 0.0037737008 0.0411217756
v 0.0116110000 0.0049748846 0.0415515661
v 0.0116110000 0.0061281576 0.0420970236
v 0.0116110000 0.0072224130 0.0427528950
v 0.0116110000 0.0082471127 0.0435128641
v 0.0116110000 0.0091923882 0.0443696118
v 0.0116110000 0.0100491359 0.0453148873
v 0.0116110000 0.0108091050 0.0463395870
v 0.0116110000 0.0114649764 0.0474338424
v 0.0116110000 0.0120104339 0.0485871154
v 0.0116110000 0.0124402244 0.0497882992
v 0.0116110000 0.0127502086 0.0510258258
v 0.0116110000 0.0129374014 0.0522877772
v 0.0116110000 0.0130000000 0.0535620000
v 0.0116110000 0.0129374014 0.0548362228
v 0.0116110000 0.0127502086 0.0560981742
v 0.0116110000 0.0124402244 0.0573357008
v 0.0116110000 0.0120104339 0.0585368846
v 0.0116110000 0.0114649764 0.0596901576
v 0.0116110000 0.0108091050 0.0607844130
v 0.0116110000 0.0100491359 0.0618091127
v 0.0116110000 0.0091923882 0.0627543882
v 0.0116110000 0.0082471127 0.0636111359
v 0.0116110000 0.0072224130 0.0643711050
v 0.0116110000 0.0061281576 0.0650269764
v 0.0116110000 0.0049748846 0.0655724339
v 0.0116110000 0.0037737008 0.0660022244
v 0.0116110000 0.0025361742 0.0663122086
v 0.0116110000 0.0012742228 0.0664994014
v 0.0116110000 0.0000000000 0.0665620000
v 0.0116110000 -0.0012742228 0.0664994014
v 0.0116110000 -0.0025361742 0.0663122086
v 0.0116110000 -0.0037737008 0.0660022244
v 0.0116110000 -0.0049748846 0.0655724339
v 0.0116110000 -0.0061281576 0.0650269764
v 0.0116110000 -0.0072224130 0.0643711050
v 0.0116110000 -0.0082471127 0.0636111359
v 0.0116110000 -0.0091923882 0.0627543882
v 0.0116110000 -0.0100491359 0.0618091127
v 0.0116110000 -0.0108091050 0.0607844130
v 0.0116110000 -0.0114649764 0.0596901576
v 0.0116110000 -0.0120104339 0.0585368846
v 0.0116110000 -0.0124402244 0.0573357008
v 0.0116110000 -0.0127502086 0.0560981742
v 0.0116110000 -0.0129374014 0.0548362228
v 0.0116110000 -0.0130000000 0.0535620000
v 0.0116110000 -0.0129374014 0.0522877772
v 0.0116110000 -0.0127502086 0.0510258258
v 0.0116110000 -0.0124402244 0.0497882992
v 0.0116110000 -0.0120104339 0.0485871154
v 0.0116110000 -0.0114649764 0.0474338424
v 0.0116110000 -0.0108091050 0.0463395870
v 0.0116110000 -0.0100491359 0.0453148873
v 0.0116110000 -0.0091923882 0.0443696118
v 0.0116110000 -0.0082471127 0.0435128641
v 0.0116110000 -0.0072224130 0.0427528950
v 0.0116110000 -0.0061281576 0.0420970236
v 0.0116110000 -0.0049748846 0.0415515661
v 0.0116110000 -0.0037737008 0.0411217756
v 0.0116110000 -0.0025361742 0.0408117914
v 0.0116110000 -0.0012742228 0.0406245986
v 0.0116110000 -0.0000000000 0.0405620000
v 0.0116110000 0.0012742228 0.0406245986
v 0.0116110000 0.0025361742 0.0408117914
v 0.0116110000 0.0037737008 0.0411217756
v 0.0116110000 0.0049748846 0.0415515661
v 0.0116110000 0.0061281576 0.0420970236
v 0.0116110000 0.0072224130 0.0427528950
v 0.0116110000 0.0082471127 0.0435128641
v 0.0116110000 0.0091923882 0.0443696118
v 0.0116110000 0.0100491359 0.0453148873
v 0.0116110000 0.0108091050 0.0463395870
v 0.0116110000 0.0114649764 0.0474338424
v 0.0116110000 0.0120104339 0.0485871154
v 0.0116110000 0.0124402244 0.0497882992
v 0.0116110000 0.0127502086 0.0510258258
v 0.0116110000 0.0129374014 0.0522877772
v 0.0116110000 0.0000000000 0.0535620000
vn -1.00000000 0.00000000 0.00000000
vn -1.00000000 0.00000000 0.00000000
vn -1.00000000 0.00000000 0.00000000
vn -1.00000000 0.00000000 0.00000000
vn -1.00000000 0.00000000 0.00000000
vn -1.00000000 0.00000000 0.00000000
vn -1.00000000 0.00000000 0.00000000
vn -1.00000000 0.00000000 0.00000000
vn -1.00000000 0.00000000 0.00000000
vn -1.00000000 0.00000000 0.00000000
vn -1.00000000 0.00000000 0.00000000
vn -1.00000000 0.00000000 0.00000000
vn -1.00000000 0.00000000 0.00000000
vn -1.00000000 0.00000000 0.00000000
vn -1.00000000 0.00000000 0.00000000
vn -1.00000000 0.00000000 0.00000000
vn -1.00000000 0.00000000 0.00000000
vn -1.00000000 0.00000000 0.00000000
vn -1.00000000 0.00000000 0.00000000
vn -1.00000000 0.00000000 0.00000000
vn -1.00000000 0.00000000 0.00000000
vn -1.00000000 0.00000000 0.00000000
vn -1.00000000 0.00000000 0.00000000
vn -1.00000000 0.00000000 0.00000000
vn -1.00000000 0.00000000 0.00000000
vn -1.00000000 0.00000000 0.00000000
vn -1.00000000 0.00000000 0.00000000
vn -1.00000000 0.00000000 0.00000000
vn -1.00000000 0.00000000 0.00000000
vn -1.00000000 0.00000000 0.00000000
vn -1.00000000 0.00000000 0.00000000
vn -1.00000000 0.00000000 0.00000000
vn -1.00000000 0.00000000 0.00000000
vn -1.00000000 0.00000000 0.00000000
vn -1.00000000 0.00000000 0.00000000
vn -1.00000000 0.00000000 0.00000000
vn -1.00000000 0.00000000 0.00000000
vn -1.00000000 0.00000000 0.00000000
vn -1.00000000 0.00000000 0.00000000
vn -1.00000000 0.00000000 0.00000000
vn -1.00000000 0.00000000 0.00000000
vn -1.00000000 0.00000000 0.00000000
vn -1.00000000 0.00000000 0.00000000
vn -1.00000000 0.00000000 0.00000000
vn -1.00000000 0.00000000 0.00000000
vn -1.00000000 0.00000000 0.00000000
vn -1.00000000 0.00000000 0.00000000
vn -1.00000000 0.00000000 0.00000000
vn -1.00000000 0.00000000 0.00000000
vn -1.00000000 0.00000000 0.00000000
vn -1.00000000 0.00000000 0.00000000
vn -1.00000000 0.00000000 0.00000000
vn -1.00000000 0.00000000 0.00000000
vn -1.00000000 0.00000000 0.00000000
vn -1.00000000 0.00000000 0.00000000
vn -1.00000000 0.00000000 0.00000000
vn -1.00000000 0.00000000 0.00000000
vn -1.00000000 0.00000000 0.00000000
vn -1.00000000 0.00000000 0.00000000
vn -1.00000000 0.00000000 0.00000000
vn -1.00000000 0.00000000 0.00000000
vn -1.00000000 0.00000000 0.00000000
vn -1.00000000 0.00000000 0.00000000
vn -1.00000000 0.00000000 0.00000000
vn -1.00000000 0.00000000 0.00000000
vn 0.00000000 1.00000000 0.00000000
vn 0.00000000 0.99518473 0.09801714
vn 0.00000000 0.98078528 0.19509032
vn 0.00000000 0.95694034 0.29028468
vn 0.00000000 0.92387953 0.38268343
vn 0.00000000 0.88192126 0.47139674
vn 0.00000000 0.83146961 0.55557023
vn 0.00000000 0.77301045 0.63439328
vn 0.00000000 0.70710678 0.70710678
vn 0.00000000 0.63439328 0.77301045
vn 0.00000000 0.55557023 0.83146961
vn 0.00000000 0.47139674 0.88192126
vn 0.00000000 0.38268343 0.92387953
vn 0.00000000 0.29028468 0.95694034
vn 0.00000000 0.19509032 0.98078528
vn 0.00000000 0.09801714 0.99518473
vn 0.00000000 0.00000000 1.00000000
vn 0.00000000 -0.09801714 0.99518473
vn 0.00000000 -0.19509032 0.98078528
vn 0.00000000 -0.29028468 0.95694034
vn 0.00000000 -0.38268343 0.92387953
vn 0.00000000 -0.47139674 0.88192126
vn 0.00000000 -0.55557023 0.83146961
vn 0.00000000 -0.63439328 0.77301045
vn 0.00000000 -0.70710678 0.70710678
vn 0.00000000 -0.77301045 0.63439328
vn 0.00000000 -0.83146961 0.55557023
vn 0.00000000 -0.88192126 0.47139674
vn 0.00000000 -0.92387953 0.38268343
vn 0.00000000 -0.95694034 0.29028468
vn 0.00000000 -0.98078528 0.19509032
vn 0.00000000 -0.99518473 0.09801714
vn 0.00000000 -1.00000000 0.00000000
vn 0.00000000 -0.99518473 -0.09801714
vn 0.00000000 -0.98078528 -0.19509032
vn 0.00000000 -0.95694034 -0.29028468
vn 0.00000000 -0.92387953 -0.38268343
vn 0.00000000 -0.88192126 -0.47139674
vn 0.00000000 -0.83146961 -0.55557023
vn 0.00000000 -0.77301045 -0.63439328
vn 0.00000000 -0.70710678 -0.70710678
vn 0.00000000 -0.63439328 -0.77301045
vn 0.00000000 -0.55557023 -0.83146961
vn 0.00000000 -0.47139674 -0.88192126
vn 0.00000000 -0.38268343 -0.92387953
vn 0.00000000 -0.29028468 -0.95694034
vn 0.00000000 -0.19509032 -0.98078528
vn 0.00000000 -0.09801714 -0.99518473
vn 0.00000000 -0.00000000 -1.00000000
vn 0.00000000 0.09801714 -0.99518473
vn 0.00000000 0.19509032 -0.98078528
vn 0.00000000 0.29028468 -0.95694034
vn 0.00000000 0.38268343 -0.92387953
vn 0.00000000 0.47139674 -0.88192126
vn 0.00000000 0.55557023 -0.83146961
vn 0.00000000 0.63439328 -0.77301045
vn 0.00000000 0.70710678 -0.70710678
vn 0.00000000 0.77301045 -0.63439328
vn 0.00000000 0.83146961 -0.55557023
vn 0.00000000 0.88192126 -0.47139674
vn 0.00000000 0.92387953 -0.38268343
vn 0.00000000 0.95694034 -0.29028468
vn 0.00000000 0.98078528 -0.19509032
vn 0.00000000 0.99518473 -0.09801714
vn 0.00000000 1.00000000 0.00000000
vn 0.00000000 0.99518473 0.09801714
vn 0.00000000 0.98078528 0.19509032
vn 0.00000000 0.95694034 0.29028468
vn 0.00000000 0.92387953 0.38268343
vn 0.00000000 0.88192126 0.47139674
vn 0.00000000 0.83146961 0.55557023
vn 0.00000000 0.77301045 0.63439328
vn 0.00000000 0.70710678 0.70710678
vn 0.00000000 0.63439328 0.77301045
vn 0.00000000 0.55557023 0.83146961
vn 0.00000000 0.47139674 0.88192126
vn 0.00000000 0.38268343 0.92387953
vn 0.00000000 0.29028468 0.95694034
vn 0.00000000 0.19509032 0.98078528
vn 0.00000000 0.09801714 0.99518473
vn 0.00000000 0.00000000 1.00000000
vn 0.00000000 -0.09801714 0.99518473
vn 0.00000000 -0.19509032 0.98078528
vn 0.00000000 -0.29028468 0.95694034
vn 0.00000000 -0.38268343 0.92387953
vn 0.00000000 -0.47139674 0.88192126
vn 0.00000000 -0.55557023 0.83146961
vn 0.00000000 -0.63439328 0.77301045
vn 0.00000000 -0.70710678 0.70710678
vn 0.00000000 -0.77301045 0.63439328
vn 0.00000000 -0.83146961 0.55557023
vn 0.00000000 -0.88192126 0.47139674
vn 0.00000000 -0.92387953 0.38268343
vn 0.00000000 -0.95694034 0.29028468
vn 0.00000000 -0.98078528 0.19509032
vn 0.00000000 -0.99518473 0.09801714
vn 0.00000000 -1.00000000 0.00000000
vn 0.00000000 -0.99518473 -0.09801714
vn 0.00000000 -0.98078528 -0.19509032
vn 0.00000000 -0.95694034 -0.29028468
vn 0.00000000 -0.92387953 -0.38268343
vn 0.00000000 -0.88192126 -0.47139674
vn 0.00000000 -0.83146961 -0.55557023
vn 0.00000000 -0.77301045 -0.63439328
vn 0.00000000 -0.70710678 -0.70710678
vn 0.00000000 -0.63439328 -0.77301045
vn 0.00000000 -0.55557023 -0.83146961
vn 0.00000000 -0.47139674 -0.88192126
vn 0.00000000 -0.38268343 -0.92387953
vn 0.00000000 -0.29028468 -0.95694034
vn 0.00000000 -0.19509032 -0.98078528
vn 0.00000000 -0.09801714 -0.99518473
vn 0.00000000 -0.00000000 -1.00000000
vn 0.00000000 0.09801714 -0.99518473
vn 0.00000000 0.19509032 -0.98078528
vn 0.00000000 0.29028468 -0.95694034
vn 0.00000000 0.38268343 -0.92387953
vn 0.00000000 0.47139674 -0.88192126
vn 0.00000000 0.55557023 -0.83146961
vn 0.00000000 0.63439328 -0.77301045
vn 0.00000000 0.70710678 -0.70710678
vn 0.00000000 0.77301045 -0.63439328
vn 0.00000000 0.83146961 -0.55557023
vn 0.00000000 0.88192126 -0.47139674
vn 0.00000000 0.92387953 -0.38268343
vn 0.00000000 0.95694034 -0.29028468
vn 0.00000000 0.98078528 -0.19509032
vn 0.00000000 0.99518473 -0.09801714
vn 1.00000000 0.00000000 0.00000000
vn 1.00000000 0.00000000 0.00000000
vn 1.00000000 0.00000000 0.00000000
vn 1.00000000 0.00000000 0.00000000
vn 1.00000000 0.00000000 0.00000000
vn 1.00000000 0.00000000 0.00000000
vn 1.00000000 0.00000000 0.00000000
vn 1.00000000 0.00000000 0.00000000
vn 1.00000000 0.00000000 0.00000000
vn 1.00000000 0.00000000 0.00000000
vn 1.00000000 0.00000000 0.00000000
vn 1.00000000 0.00000000 0.00000000
vn 1.00000000 0.00000000 0.00000000
vn 1.00000000 0.00000000 0.00000000
vn 1.00000000 0.00000000 0.00000000
vn 1.00000000 0.00000000 0.00000000
vn 1.00000000 0.00000000 0.00000000
vn 1.00000000 0.00000000 0.00000000
vn 1.00000000 0.00000000 0.00000000
vn 1.00000000 0.00000000 0.00000000
vn 1.00000000 0.00000000 0.00000000
vn 1.00000000 0.00000000 0.00000000
vn 1.00000000 0.00000000 0.00000000
vn 1.00000000 0.00000000 0.00000000
vn 1.00000000 0.00000000 0.00000000
vn 1.00000000 0.00000000 0.00000000
vn 1.00000000 0.00000000 0.00000000
vn 1.00000000 0.00000000 0.00000000
vn 1.00000000 0.00000000 0.00000000
vn 1.00000000 0.00000000 0.00000000
vn 1.00000000 0.00000000 0.00000000
vn 1.00000000 0.00000000 0.00000000
vn 1.00000000 0.00000000 0.00000000
vn 1.00000000 0.00000000 0.00000000
vn 1.00000000 0.00000000 0.00000000
vn 1.00000000 0.00000000 0.00000000
vn 1.00000000 0.00000000 0.00000000
vn 1.00000000 0.00000000 0.00000000
vn 1.00000000 0.00000000 0.00000000
vn 1.00000000 0.00000000 0.00000000
vn 1.00000000 0.00000000 0.00000000
vn 1.00000000 0.00000000 0.00000000
vn 1.00000000 0.00000000 0.00000000
vn 1.00000000 0.00000000 0.00000000
vn 1.00000000 0.00000000 0.00000000
vn 1.00000000 0.00000000 0.00000000
vn 1.00000000 0.00000000 0.00000000
vn 1.00000000 0.00000000 0.00000000
vn 1.00000000 0.00000000 0.00000000
vn 1.00000000 0.00000000 0.00000000
vn 1.00000000 0.00000000 0.00000000
vn 1.00000000 0.00000000 0.00000000
vn 1.00000000 0.00000000 0.00000000
vn 1.00000000 0.00000000 0.00000000
vn 1.00000000 0.00000000 0.00000000
vn 1.00000000 0.00000000 0.00000000
vn 1.00000000 0.00000000 0.00000000
vn 1.00000000 0.00000000 0.00000000
vn 1.00000000 0.00000000 0.00000000
vn 1.00000000 0.00000000 0.00000000
vn 1.00000000 0.00000000 0.00000000
vn 1.00000000 0.00000000 0.00000000
vn 1.00000000 0.00000000 0.00000000
vn 1.00000000 0.00000000 0.00000000
vn 1.00000000 0.00000000 0.00000000
f 3//3 2//2 1//1
f 37//37 36//36 1//1
f 38//38 37//37 1//1
f 39//39 38//38 1//1
f 40//40 39//39 1//1
f 41//41 40//40 1//1
f 42//42 41//41 1//1
f 43//43 42//42 1//1
f 44//44 43//43 1//1
f 45//45 44//44 1//1
f 46//46 45//45 1//1
f 47//47 46//46 1//1
f 48//48 47//47 1//1
f 49//49 48//48 1//1
f 50//50 49//49 1//1
f 51//51 50//50 1//1
f 52//52 51//51 1//1
f 53//53 52//52 1//1
f 54//54 53//53 1//1
f 55//55 54//54 1//1
f 56//56 55//55 1//1
f 57//57 56//56 1//1
f 58//58 57//57 1//1
f 59//59 58//58 1//1
f 60//60 59//59 1//1
f 61//61 60//60 1//1
f 62//62 61//61 1//1
f 63//63 62//62 1//1
f 64//64 63//63 1//1
f 65//65 64//64 1//1
f 36//36 35//35 1//1
f 35//35 34//34 1//1
f 2//2 65//65 1//1
f 33//33 32//32 1//1
f 34//34 33//33 1//1
f 4//4 3//3 1//1
f 5//5 4//4 1//1
f 6//6 5//5 1//1
f 7//7 6//6 1//1
f 8//8 7//7 1//1
f 9//9 8//8 1//1
f 10//10 9//9 1//1
f 12//12 11//11 1//1
f 13//13 12//12 1//1
f 14//14 13//13 1//1
f 15//15 14//14 1//1
f 16//16 15//15 1//1
f 17//17 16//16 1//1
f 11//11 10//10 1//1
f 19//19 18//18 1//1
f 18//18 17//17 1//1
f 31//31 30//30 1//1
f 30//30 29//29 1//1
f 29//29 28//28 1//1
f 28//28 27//27 1//1
f 26//26 25//25 1//1
f 27//27 26//26 1//1
f 32//32 31//31 1//1
f 24//24 23//23 1//1
f 23//23 22//22 1//1
f 22//22 21//21 1//1
f 21//21 20//20 1//1
f 20//20 19//19 1//1
f 25//25 24//24 1//1
f 174//174 173//173 109//109
f 108//108 172//172 107//107
f 173//173 172//172 108//108
f 109//109 173//173 108//108
f 110//110 174//174 109//109
f 178//178 177//177 113//113
f 111//111 175//175 110//110
f 176//176 175//175 111//111
f 112//112 176//176 111//111
f 177//177 176//176 112//112
f 113//113 177//177 112//112
f 172//172 171//171 107//107
f 175//175 174//174 110//110
f 107//107 171//171 106//106
f 164//164 163//163 99//99
f 106//106 170//170 105//105
f 170//170 169//169 105//105
f 105//105 169//169 104//104
f 169//169 168//168 104//104
f 104//104 168//168 103//103
f 168//168 167//167 103//103
f 103//103 167//167 102//102
f 167//167 166//166 102//102
f 102//102 166//166 101//101
f 166//166 165//165 101//101
f 101//101 165//165 100//100
f 165//165 164//164 100//100
f 100//100 164//164 99//99
f 114//114 178//178 113//113
f 171//171 170//170 106//106
f 179//179 178//178 114//114
f 122//122 186//186 121//121
f 180//180 179//179 115//115
f 99//99 163//163 98//98
f 66//66 130//130 129//129
f 130//130 193//193 129//129
f 129//129 193//193 128//128
f 193//193 192//192 128//128
f 128//128 192//192 127//127
f 192//192 191//191 127//127
f 127//127 191//191 126//126
f 191//191 190//190 126//126
f 126//126 190//190 125//125
f 190//190 189//189 125//125
f 125//125 189//189 124//124
f 189//189 188//188 124//124
f 124//124 188//188 123//123
f 188//188 187//187 123//123
f 123//123 187//187 122//122
f 187//187 186//186 122//122
f 186//186 185//185 121//121
f 121//121 185//185 120//120
f 185//185 184//184 120//120
f 120//120 184//184 119//119
f 184//184 183//183 119//119
f 119//119 183//183 118//118
f 183//183 182//182 118//118
f 118//118 182//182 117//117
f 182//182 181//181 117//117
f 117//117 181//181 116//116
f 181//181 180//180 116//116
f 116//116 180//180 115//115
f 115//115 179//179 114//114
f 163//163 162//162 98//98
f 98//98 162//162 97//97
f 162//162 161//161 97//97
f 145//145 144//144 80//80
f 80//80 144//144 79//79
f 144//144 143//143 79//79
f 79//79 143//143 78//78
f 143//143 142//142 78//78
f 78//78 142//142 77//77
f 142//142 141//141 77//77
f 77//77 141//141 76//76
f 141//141 140//140 76//76
f 76//76 140//140 75//75
f 140//140 139//139 75//75
f 75//75 139//139 74//74
f 74//74 138//138 73//73
f 81//81 145//145 80//80
f 138//138 137//137 73//73
f 137//137 136//136 72//72
f 72//72 136//136 71//71
f 136//136 135//135 71//71
f 71//71 135//135 70//70
f 135//135 134//134 70//70
f 70//70 134//134 69//69
f 134//134 133//133 69//69
f 69//69 133//133 68//68
f 133//133 132//132 68//68
f 68//68 132//132 67//67
f 132//132 131//131 67//67
f 67//67 131//131 66//66
f 131//131 130//130 66//66
f 73//73 137//137 72//72
f 146//146 145//145 81//81
f 139//139 138//138 74//74
f 147//147 146//146 82//82
f 82//82 146//146 81//81
f 161//161 160//160 96//96
f 96//96 160//160 95//95
f 160//160 159//159 95//95
f 95//95 159//159 94//94
f 159//159 158//158 94//94
f 94//94 158//158 93//93
f 158//158 157//157 93//93
f 93//93 157//157 92//92
f 157//157 156//156 92//92
f 92//92 156//156 91//91
f 156//156 155//155 91//91
f 91//91 155//155 90//90
f 155//155 154//154 90//90
f 90//90 154//154 89//89
f 97//97 161//161 96//96
f 85//85 149//149 84//84
f 89//89 153//153 88//88
f 153//153 152//152 88//88
f 88//88 152//152 87//87
f 152//152 151//151 87//87
f 87//87 151//151 86//86
f 151//151 150//150 86//86
f 86//86 150//150 85//85
f 150//150 149//149 85//85
f 154//154 153//153 89//89
f 149//149 148//148 84//84
f 84//84 148//148 83//83
f 148//148 147//147 83//83
f 83//83 147//147 82//82
f 236//236 258//258 235//235
f 237//237 258//258 236//236
f 227//227 258//258 226//226
f 239//239 258//258 238//238
f 238//238 258//258 237//237
f 235//235 258//258 234//234
f 228//228 258//258 227//227
f 233//233 258//258 232//232
f 232//232 258//258 231//231
f 231//231 258//258 230//230
f 230//230 258//258 229//229
f 229//229 258//258 228//228
f 240//240 258//258 239//239
f 234//234 258//258 233//233
f 241//241 258//258 240//240
f 248//248 258//258 247//247
f 243//243 258//258 242//242
f 244//244 258//258 243//243
f 245//245 258//258 244//244
f 246//246 258//258 245//245
f 247//247 258//258 246//246
f 249//249 258//258 248//248
f 250//250 258//258 249//249
f 251//251 258//258 250//250
f 252//252 258//258 251//251
f 253//253 258//258 252//252
f 254//254 258//258 253//253
f 255//255 258//258 254//254
f 256//256 258//258 255//255
f 242//242 258//258 241//241
f 226//226 258//258 225//225
f 195//195 258//258 194//194
f 224//224 258//258 223//223
f 257//257 258//258 256//256
f 196//196 258//258 195//195
f 197//197 258//258 196//196
f 198//198 258//258 197//197
f 199//199 258//258 198//198
f 200//200 258//258 199//199
f 201//201 258//258 200//200
f 202//202 258//258 201//201
f 203//203 258//258 202//202
f 204//204 258//258 203//203
f 205//205 258//258 204//204
f 206//206 258//258 205//205
f 207//207 258//258 206//206
f 208//208 258//258 207//207
f 209//209 258//258 208//208
f 210//210 258//258 209//209
f 211//211 258//258 210//210
f 212//212 258//258 211//211
f 213//213 258//258 212//212
f 214//214 258//258 213//213
f 215//215 258//258 214//214
f 216//216 258//258 215//215
f 217//217 258//258 216//216
f 218//218 258//258 217//217
f 219//219 258//258 218//218
f 220//220 258//258 219//219
f 221//221 258//258 220//220
f 222//222 258//258 221//221
f 223//223 258//258 222//222
f 225//225 258//258 224//224
f 194//194 258//258 257//257
