# Independent procedural camera geometry; meters; Z up
o circular_display
v 0.0115920000 0.0130000000 0.0429400000
v 0.0115920000 0.0128887832 0.0446368405
v 0.0115920000 0.0125570357 0.0463046476
v 0.0115920000 0.0120104339 0.0479148846
v 0.0115920000 0.0112583302 0.0494400000
v 0.0115920000 0.0103135934 0.0508538986
v 0.0115920000 0.0091923882 0.0521323882
v 0.0115920000 0.0079138986 0.0532535934
v 0.0115920000 0.0065000000 0.0541983302
v 0.0115920000 0.0049748846 0.0549504339
v 0.0115920000 0.0033646476 0.0554970357
v 0.0115920000 0.0016968405 0.0558287832
v 0.0115920000 0.0000000000 0.0559400000
v 0.0115920000 -0.0016968405 0.0558287832
v 0.0115920000 -0.0033646476 0.0554970357
v 0.0115920000 -0.0049748846 0.0549504339
v 0.0115920000 -0.0065000000 0.0541983302
v 0.0115920000 -0.0079138986 0.0532535934
v 0.0115920000 -0.0091923882 0.0521323882
v 0.0115920000 -0.0103135934 0.0508538986
v 0.0115920000 -0.0112583302 0.0494400000
v 0.0115920000 -0.0120104339 0.0479148846
v 0.0115920000 -0.0125570357 0.0463046476
v 0.0115920000 -0.0128887832 0.0446368405
v 0.0115920000 -0.0130000000 0.0429400000
v 0.0115920000 -0.0128887832 0.0412431595
v 0.0115920000 -0.0125570357 0.0395753524
v 0.0115920000 -0.0120104339 0.0379651154
v 0.0115920000 -0.0112583302 0.0364400000
v 0.0115920000 -0.0103135934 0.0350261014
v 0.0115920000 -0.0091923882 0.0337476118
v 0.0115920000 -0.0079138986 0.0326264066
v 0.0115920000 -0.0065000000 0.0316816698
v 0.0115920000 -0.0049748846 0.0309295661
v 0.0115920000 -0.0033646476 0.0303829643
v 0.0115920000 -0.0016968405 0.0300512168
v 0.0115920000 -0.0000000000 0.0299400000
v 0.0115920000 0.0016968405 0.0300512168
v 0.0115920000 0.0033646476 0.0303829643
v 0.0115920000 0.0049748846 0.0309295661
v 0.0115920000 0.0065000000 0.0316816698
v 0.0115920000 0.0079138986 0.0326264066
v 0.0115920000 0.0091923882 0.0337476118
v 0.0115920000 0.0103135934 0.0350261014
v 0.0115920000 0.0112583302 0.0364400000
v 0.0115920000 0.0120104339 0.0379651154
v 0.0115920000 0.0125570357 0.0395753524
v 0.0115920000 0.0128887832 0.0412431595
v 0.0116220000 0.0130000000 0.0429400000
v 0.0116220000 0.0128887832 0.0446368405
v 0.0116220000 0.0125570357 0.0463046476
v 0.0116220000 0.0120104339 0.0479148846
v 0.0116220000 0.0112583302 0.0494400000
v 0.0116220000 0.0103135934 0.0508538986
v 0.0116220000 0.0091923882 0.0521323882
v 0.0116220000 0.0079138986 0.0532535934
v 0.0116220000 0.0065000000 0.0541983302
v 0.0116220000 0.0049748846 0.0549504339
v 0.0116220000 0.0033646476 0.0554970357
v 0.0116220000 0.0016968405 0.0558287832
v 0.0116220000 0.0000000000 0.0559400000
v 0.0116220000 -0.0016968405 0.0558287832
v 0.0116220000 -0.0033646476 0.0554970357
v 0.0116220000 -0.0049748846 0.0549504339
v 0.0116220000 -0.0065000000 0.0541983302
v 0.0116220000 -0.0079138986 0.0532535934
v 0.0116220000 -0.0091923882 0.0521323882
v 0.0116220000 -0.0103135934 0.0508538986
v 0.0116220000 -0.0112583302 0.0494400000
v 0.0116220000 -0.0120104339 0.0479148846
v 0.0116220000 -0.0125570357 0.0463046476
v 0.0116220000 -0.0128887832 0.0446368405
v 0.0116220000 -0.0130000000 0.0429400000
v 0.0116220000 -0.0128887832 0.0412431595
v 0.0116220000 -0.0125570357 0.0395753524
v 0.0116220000 -0.0120104339 0.0379651154
v 0.0116220000 -0.0112583302 0.0364400000
v 0.0116220000 -0.0103135934 0.0350261014
v 0.0116220000 -0.0091923882 0.0337476118
v 0.0116220000 -0.0079138986 0.0326264066
v 0.0116220000 -0.0065000000 0.0316816698
v 0.0116220000 -0.0049748846 0.0309295661
v 0.0116220000 -0.0033646476 0.0303829643
v 0.0116220000 -0.0016968405 0.0300512168
v 0.0116220000 -0.0000000000 0.0299400000
v 0.0116220000 0.0016968405 0.0300512168
v 0.0116220000 0.0033646476 0.0303829643
v 0.0116220000 0.0049748846 0.0309295661
v 0.0116220000 0.0065000000 0.0316816698
v 0.0116220000 0.0079138986 0.0326264066
v 0.0116220000 0.0091923882 0.0337476118
v 0.0116220000 0.0103135934 0.0350261014
v 0.0116220000 0.0112583302 0.0364400000
v 0.0116220000 0.0120104339 0.0379651154
v 0.0116220000 0.0125570357 0.0395753524
v 0.0116220000 0.0128887832 0.0412431595
v 0.0115920000 -0.0000000000 0.0429400000
v 0.0116220000 -0.0000000000 0.0429400000
vn -0.69267805 0.72124692 -0.00000000
vn -0.69267805 0.71507656 0.09414161
vn -0.69267805 0.69667103 0.18667244
vn -0.69267805 0.66634527 0.27600925
vn -0.69267805 0.62461816 0.36062346
vn -0.69267805 0.57220366 0.43906731
vn -0.69267805 0.50999859 0.50999859
vn -0.69267805 0.43906731 0.57220366
vn -0.69267805 0.36062346 0.62461816
vn -0.69267805 0.27600925 0.66634527
vn -0.69267805 0.18667244 0.69667103
vn -0.69267805 0.09414161 0.71507656
vn -0.69267805 -0.00000000 0.72124692
vn -0.69267805 -0.09414161 0.71507656
vn -0.69267805 -0.18667244 0.69667103
vn -0.69267805 -0.27600925 0.66634527
vn -0.69267805 -0.36062346 0.62461816
vn -0.69267805 -0.43906731 0.57220366
vn -0.69267805 -0.50999859 0.50999859
vn -0.69267805 -0.57220366 0.43906731
vn -0.69267805 -0.62461816 0.36062346
vn -0.69267805 -0.66634527 0.27600925
vn -0.69267805 -0.69667103 0.18667244
vn -0.69267805 -0.71507656 0.09414161
vn -0.69267805 -0.72124692 0.00000000
vn -0.69267805 -0.71507656 -0.09414161
vn -0.69267805 -0.69667103 -0.18667244
vn -0.69267805 -0.66634527 -0.27600925
vn -0.69267805 -0.62461816 -0.36062346
vn -0.69267805 -0.57220366 -0.43906731
vn -0.69267805 -0.50999859 -0.50999859
vn -0.69267805 -0.43906731 -0.57220366
vn -0.69267805 -0.36062346 -0.62461816
vn -0.69267805 -0.27600925 -0.66634527
vn -0.69267805 -0.18667244 -0.69667103
vn -0.69267805 -0.09414161 -0.71507656
vn -0.69267805 -0.00000000 -0.72124692
vn -0.69267805 0.09414161 -0.71507656
vn -0.69267805 0.18667244 -0.69667103
vn -0.69267805 0.27600925 -0.66634527
vn -0.69267805 0.36062346 -0.62461816
vn -0.69267805 0.43906731 -0.57220366
vn -0.69267805 0.50999859 -0.50999859
vn -0.69267805 0.57220366 -0.43906731
vn -0.69267805 0.62461816 -0.36062346
vn -0.69267805 0.66634527 -0.27600925
vn -0.69267805 0.69667103 -0.18667244
vn -0.69267805 0.71507656 -0.09414161
vn 0.69267805 0.72124692 -0.00000000
vn 0.69267805 0.71507656 0.09414161
vn 0.69267805 0.69667103 0.18667244
vn 0.69267805 0.66634527 0.27600925
vn 0.69267805 0.62461816 0.36062346
vn 0.69267805 0.57220366 0.43906731
vn 0.69267805 0.50999859 0.50999859
vn 0.69267805 0.43906731 0.57220366
vn 0.69267805 0.36062346 0.62461816
vn 0.69267805 0.27600925 0.66634527
vn 0.69267805 0.18667244 0.69667103
vn 0.69267805 0.09414161 0.71507656
vn 0.69267805 -0.00000000 0.72124692
vn 0.69267805 -0.09414161 0.71507656
vn 0.69267805 -0.18667244 0.69667103
vn 0.69267805 -0.27600925 0.66634527
vn 0.69267805 -0.36062346 0.62461816
vn 0.69267805 -0.43906731 0.57220366
vn 0.69267805 -0.50999859 0.50999859
vn 0.69267805 -0.57220366 0.43906731
vn 0.69267805 -0.62461816 0.36062346
vn 0.69267805 -0.66634527 0.27600925
vn 0.69267805 -0.69667103 0.18667244
vn 0.69267805 -0.71507656 0.09414161
vn 0.69267805 -0.72124692 0.00000000
vn 0.69267805 -0.71507656 -0.09414161
vn 0.69267805 -0.69667103 -0.18667244
vn 0.69267805 -0.66634527 -0.27600925
vn 0.69267805 -0.62461816 -0.36062346
vn 0.69267805 -0.57220366 -0.43906731
vn 0.69267805 -0.50999859 -0.50999859
vn 0.69267805 -0.43906731 -0.57220366
vn 0.69267805 -0.36062346 -0.62461816
vn 0.69267805 -0.27600925 -0.66634527
vn 0.69267805 -0.18667244 -0.69667103
vn 0.69267805 -0.09414161 -0.71507656
vn 0.69267805 -0.00000000 -0.72124692
vn 0.69267805 0.09414161 -0.71507656
vn 0.69267805 0.18667244 -0.69667103
vn 0.69267805 0.27600925 -0.66634527
vn 0.69267805 0.36062346 -0.62461816
vn 0.69267805 0.43906731 -0.57220366
vn 0.69267805 0.50999859 -0.50999859
vn 0.69267805 0.57220366 -0.43906731
vn 0.69267805 0.62461816 -0.36062346
vn 0.69267805 0.66634527 -0.27600925
vn 0.69267805 0.69667103 -0.18667244
vn 0.69267805 0.71507656 -0.09414161
vn -1.00000000 -0.00000000 -0.00000000
vn 1.00000000 -0.00000000 -0.00000000
f 50//50 49//49 1//1
f 2//2 50//50 1//1
f 51//51 50//50 2//2
f 3//3 51//51 2//2
f 52//52 51//51 3//3
f 4//4 52//52 3//3
f 53//53 52//52 4//4
f 5//5 53//53 4//4
f 54//54 53//53 5//5
f 6//6 54//54 5//5
f 55//55 54//54 6//6
f 7//7 55//55 6//6
f 56//56 55//55 7//7
f 8//8 56//56 7//7
f 57//57 56//56 8//8
f 9//9 57//57 8//8
f 58//58 57//57 9//9
f 10//10 58//58 9//9
f 59//59 58//58 10//10
f 11//11 59//59 10//10
f 60//60 59//59 11//11
f 12//12 60//60 11//11
f 61//61 60//60 12//12
f 13//13 61//61 12//12
f 62//62 61//61 13//13
f 14//14 62//62 13//13
f 63//63 62//62 14//14
f 15//15 63//63 14//14
f 64//64 63//63 15//15
f 16//16 64//64 15//15
f 65//65 64//64 16//16
f 17//17 65//65 16//16
f 66//66 65//65 17//17
f 18//18 66//66 17//17
f 67//67 66//66 18//18
f 19//19 67//67 18//18
f 68//68 67//67 19//19
f 20//20 68//68 19//19
f 69//69 68//68 20//20
f 21//21 69//69 20//20
f 70//70 69//69 21//21
f 22//22 70//70 21//21
f 71//71 70//70 22//22
f 23//23 71//71 22//22
f 72//72 71//71 23//23
f 24//24 72//72 23//23
f 73//73 72//72 24//24
f 25//25 73//73 24//24
f 74//74 73//73 25//25
f 26//26 74//74 25//25
f 75//75 74//74 26//26
f 27//27 75//75 26//26
f 76//76 75//75 27//27
f 28//28 76//76 27//27
f 77//77 76//76 28//28
f 29//29 77//77 28//28
f 78//78 77//77 29//29
f 30//30 78//78 29//29
f 79//79 78//78 30//30
f 31//31 79//79 30//30
f 80//80 79//79 31//31
f 32//32 80//80 31//31
f 81//81 80//80 32//32
f 33//33 81//81 32//32
f 82//82 81//81 33//33
f 34//34 82//82 33//33
f 83//83 82//82 34//34
f 35//35 83//83 34//34
f 84//84 83//83 35//35
f 36//36 84//84 35//35
f 85//85 84//84 36//36
f 37//37 85//85 36//36
f 86//86 85//85 37//37
f 38//38 86//86 37//37
f 87//87 86//86 38//38
f 39//39 87//87 38//38
f 88//88 87//87 39//39
f 40//40 88//88 39//39
f 89//89 88//88 40//40
f 41//41 89//89 40//40
f 90//90 89//89 41//41
f 42//42 90//90 41//41
f 91//91 90//90 42//42
f 43//43 91//91 42//42
f 92//92 91//91 43//43
f 44//44 92//92 43//43
f 93//93 92//92 44//44
f 45//45 93//93 44//44
f 94//94 93//93 45//45
f 46//46 94//94 45//45
f 95//95 94//94 46//46
f 47//47 95//95 46//46
f 96//96 95//95 47//47
f 48//48 96//96 47//47
f 49//49 96//96 48//48
f 1//1 49//49 48//48
f 2//2 1//1 97//97
f 3//3 2//2 97//97
f 4//4 3//3 97//97
f 5//5 4//4 97//97
f 6//6 5//5 97//97
f 7//7 6//6 97//97
f 8//8 7//7 97//97
f 9//9 8//8 97//97
f 10//10 9//9 97//97
f 11//11 10//10 97//97
f 12//12 11//11 97//97
f 13//13 12//12 97//97
f 14//14 13//13 97//97
f 15//15 14//14 97//97
f 16//16 15//15 97//97
f 17//17 16//16 97//97
f 18//18 17//17 97//97
f 19//19 18//18 97//97
f 20//20 19//19 97//97
f 21//21 20//20 97//97
f 22//22 21//21 97//97
f 23//23 22//22 97//97
f 24//24 23//23 97//97
f 25//25 24//24 97//97
f 26//26 25//25 97//97
f 27//27 26//26 97//97
f 28//28 27//27 97//97
f 29//29 28//28 97//97
f 30//30 29//29 97//97
f 31//31 30//30 97//97
f 32//32 31//31 97//97
f 33//33 32//32 97//97
f 34//34 33//33 97//97
f 35//35 34//34 97//97
f 36//36 35//35 97//97
f 37//37 36//36 97//97
f 38//38 37//37 97//97
f 39//39 38//38 97//97
f 40//40 39//39 97//97
f 41//41 40//40 97//97
f 42//42 41//41 97//97
f 43//43 42//42 97//97
f 44//44 43//43 97//97
f 45//45 44//44 97//97
f 46//46 45//45 97//97
f 47//47 46//46 97//97
f 48//48 47//47 97//97
f 1//1 48//48 97//97
f 98//98 49//49 50//50
f 98//98 50//50 51//51
f 98//98 51//51 52//52
f 98//98 52//52 53//53
f 98//98 53//53 54//54
f 98//98 54//54 55//55
f 98//98 55//55 56//56
f 98//98 56//56 57//57
f 98//98 57//57 58//58
f 98//98 58//58 59//59
f 98//98 59//59 60//60
f 98//98 60//60 61//61
f 98//98 61//61 62//62
f 98//98 62//62 63//63
f 98//98 63//63 64//64
f 98//98 64//64 65//65
f 98//98 65//65 66//66
f 98//98 66//66 67//67
f 98//98 67//67 68//68
f 98//98 68//68 69//69
f 98//98 69//69 70//70
f 98//98 70//70 71//71
f 98//98 71//71 72//72
f 98//98 72//72 73//73
f 98//98 73//73 74//74
f 98//98 74//74 75//75
f 98//98 75//75 76//76
f 98//98 76//76 77//77
f 98//98 77//77 78//78
f 98//98 78//78 79//79
f 98//98 79//79 80//80
f 98//98 80//80 81//81
f 98//98 81//81 82//82
f 98//98 82//82 83//83
f 98//98 83//83 84//84
f 98//98 84//84 85//85
f 98//98 85//85 86//86
f 98//98 86//86 87//87
f 98//98 87//87 88//88
f 98//98 88//88 89//89
f 98//98 89//89 90//90
f 98//98 90//90 91//91
f 98//98 91//91 92//92
f 98//98 92//92 93//93
f 98//98 93//93 94//94
f 98//98 94//94 95//95
f 98//98 95//95 96//96
f 98//98 96//96 49//49
