# Independent procedural camera geometry; meters; Z up
o rear_display
v -0.0162200000 -0.0269685000 0.0396985000
v -0.0162200000 -0.0269439052 0.0399482156
v -0.0162200000 -0.0268710658 0.0401883348
v -0.0162200000 -0.0267527811 0.0404096299
v -0.0162200000 -0.0265935967 0.0406035967
v -0.0162200000 -0.0263996299 0.0407627811
v -0.0162200000 -0.0261783348 0.0408810658
v -0.0162200000 -0.0259382156 0.0409539052
v -0.0162200000 0.0256885000 0.0409785000
v -0.0162200000 0.0259382156 0.0409539052
v -0.0162200000 0.0261783348 0.0408810658
v -0.0162200000 0.0263996299 0.0407627811
v -0.0162200000 0.0265935967 0.0406035967
v -0.0162200000 0.0267527811 0.0404096299
v -0.0162200000 0.0268710658 0.0401883348
v -0.0162200000 0.0269439052 0.0399482156
v -0.0162200000 0.0269685000 0.0133295000
v -0.0162200000 0.0269439052 0.0130797844
v -0.0162200000 0.0268710658 0.0128396652
v -0.0162200000 0.0267527811 0.0126183701
v -0.0162200000 0.0265935967 0.0124244033
v -0.0162200000 0.0263996299 0.0122652189
v -0.0162200000 0.0261783348 0.0121469342
v -0.0162200000 0.0259382156 0.0120740948
v -0.0162200000 -0.0256885000 0.0120495000
v -0.0162200000 -0.0259382156 0.0120740948
v -0.0162200000 -0.0261783348 0.0121469342
v -0.0162200000 -0.0263996299 0.0122652189
v -0.0162200000 -0.0265935967 0.0124244033
v -0.0162200000 -0.0267527811 0.0126183701
v -0.0162200000 -0.0268710658 0.0128396652
v -0.0162200000 -0.0269439052 0.0130797844
v -0.0162400000 -0.0269885000 0.0396985000
v -0.0162400000 -0.0269635209 0.0399521174
v -0.0162400000 -0.0268895434 0.0401959885
v -0.0162400000 -0.0267694105 0.0404207413
v -0.0162400000 -0.0266077388 0.0406177388
v -0.0162400000 -0.0264107413 0.0407794105
v -0.0162400000 -0.0261859885 0.0408995434
v -0.0162400000 -0.0259421174 0.0409735209
v -0.0162400000 0.0256885000 0.0409985000
v -0.0162400000 0.0259421174 0.0409735209
v -0.0162400000 0.0261859885 0.0408995434
v -0.0162400000 0.0264107413 0.0407794105
v -0.0162400000 0.0266077388 0.0406177388
v -0.0162400000 0.0267694105 0.0404207413
v -0.0162400000 0.0268895434 0.0401959885
v -0.0162400000 0.0269635209 0.0399521174
v -0.0162400000 0.0269885000 0.0133295000
v -0.0162400000 0.0269635209 0.0130758826
v -0.0162400000 0.0268895434 0.0128320115
v -0.0162400000 0.0267694105 0.0126072587
v -0.0162400000 0.0266077388 0.0124102612
v -0.0162400000 0.0264107413 0.0122485895
v -0.0162400000 0.0261859885 0.0121284566
v -0.0162400000 0.0259421174 0.0120544791
v -0.0162400000 -0.0256885000 0.0120295000
v -0.0162400000 -0.0259421174 0.0120544791
v -0.0162400000 -0.0261859885 0.0121284566
v -0.0162400000 -0.0264107413 0.0122485895
v -0.0162400000 -0.0266077388 0.0124102612
v -0.0162400000 -0.0267694105 0.0126072587
v -0.0162400000 -0.0268895434 0.0128320115
v -0.0162400000 -0.0269635209 0.0130758826
v -0.0162800000 -0.0269885000 0.0396985000
v -0.0162800000 -0.0269635209 0.0399521174
v -0.0162800000 -0.0268895434 0.0401959885
v -0.0162800000 -0.0267694105 0.0404207413
v -0.0162800000 -0.0266077388 0.0406177388
v -0.0162800000 -0.0264107413 0.0407794105
v -0.0162800000 -0.0261859885 0.0408995434
v -0.0162800000 -0.0259421174 0.0409735209
v -0.0162800000 0.0256885000 0.0409985000
v -0.0162800000 0.0259421174 0.0409735209
v -0.0162800000 0.0261859885 0.0408995434
v -0.0162800000 0.0264107413 0.0407794105
v -0.0162800000 0.0266077388 0.0406177388
v -0.0162800000 0.0267694105 0.0404207413
v -0.0162800000 0.0268895434 0.0401959885
v -0.0162800000 0.0269635209 0.0399521174
v -0.0162800000 0.0269885000 0.0133295000
v -0.0162800000 0.0269635209 0.0130758826
v -0.0162800000 0.0268895434 0.0128320115
v -0.0162800000 0.0267694105 0.0126072587
v -0.0162800000 0.0266077388 0.0124102612
v -0.0162800000 0.0264107413 0.0122485895
v -0.0162800000 0.0261859885 0.0121284566
v -0.0162800000 0.0259421174 0.0120544791
v -0.0162800000 -0.0256885000 0.0120295000
v -0.0162800000 -0.0259421174 0.0120544791
v -0.0162800000 -0.0261859885 0.0121284566
v -0.0162800000 -0.0264107413 0.0122485895
v -0.0162800000 -0.0266077388 0.0124102612
v -0.0162800000 -0.0267694105 0.0126072587
v -0.0162800000 -0.0268895434 0.0128320115
v -0.0162800000 -0.0269635209 0.0130758826
v -0.0163000000 -0.0269685000 0.0396985000
v -0.0163000000 -0.0269439052 0.0399482156
v -0.0163000000 -0.0268710658 0.0401883348
v -0.0163000000 -0.0267527811 0.0404096299
v -0.0163000000 -0.0265935967 0.0406035967
v -0.0163000000 -0.0263996299 0.0407627811
v -0.0163000000 -0.0261783348 0.0408810658
v -0.0163000000 -0.0259382156 0.0409539052
v -0.0163000000 0.0256885000 0.0409785000
v -0.0163000000 0.0259382156 0.0409539052
v -0.0163000000 0.0261783348 0.0408810658
v -0.0163000000 0.0263996299 0.0407627811
v -0.0163000000 0.0265935967 0.0406035967
v -0.0163000000 0.0267527811 0.0404096299
v -0.0163000000 0.0268710658 0.0401883348
v -0.0163000000 0.0269439052 0.0399482156
v -0.0163000000 0.0269685000 0.0133295000
v -0.0163000000 0.0269439052 0.0130797844
v -0.0163000000 0.0268710658 0.0128396652
v -0.0163000000 0.0267527811 0.0126183701
v -0.0163000000 0.0265935967 0.0124244033
v -0.0163000000 0.0263996299 0.0122652189
v -0.0163000000 0.0261783348 0.0121469342
v -0.0163000000 0.0259382156 0.0120740948
v -0.0163000000 -0.0256885000 0.0120495000
v -0.0163000000 -0.0259382156 0.0120740948
v -0.0163000000 -0.0261783348 0.0121469342
v -0.0163000000 -0.0263996299 0.0122652189
v -0.0163000000 -0.0265935967 0.0124244033
v -0.0163000000 -0.0267527811 0.0126183701
v -0.0163000000 -0.0268710658 0.0128396652
v -0.0163000000 -0.0269439052 0.0130797844
vn 0.91946015 -0.39269680 0.01955123
vn 0.91532176 -0.39498512 0.07856742
vn 0.91532176 -0.37206784 0.15411555
vn 0.91532176 -0.33485221 0.22374110
vn 0.91532176 -0.28476840 0.28476840
vn 0.91532176 -0.22374110 0.33485221
vn 0.91532176 -0.15411555 0.37206784
vn 0.91084954 -0.05920362 0.40847038
vn 0.91947857 0.01963692 0.39264939
vn 0.91532176 0.07856742 0.39498512
vn 0.91532176 0.15411555 0.37206784
vn 0.91532176 0.22374110 0.33485221
vn 0.91532176 0.28476840 0.28476840
vn 0.91532176 0.33485221 0.22374110
vn 0.91532176 0.37206784 0.15411555
vn 0.91087118 0.40840830 0.05929881
vn 0.91946015 0.39269680 -0.01955123
vn 0.91532176 0.39498512 -0.07856742
vn 0.91532176 0.37206784 -0.15411555
vn 0.91532176 0.33485221 -0.22374110
vn 0.91532176 0.28476840 -0.28476840
vn 0.91532176 0.22374110 -0.33485221
vn 0.91532176 0.15411555 -0.37206784
vn 0.91084954 0.05920362 -0.40847038
vn 0.91947857 -0.01963692 -0.39264939
vn 0.91532176 -0.07856742 -0.39498512
vn 0.91532176 -0.15411555 -0.37206784
vn 0.91532176 -0.22374110 -0.33485221
vn 0.91532176 -0.28476840 -0.28476840
vn 0.91532176 -0.33485221 -0.22374110
vn 0.91532176 -0.37206784 -0.15411555
vn 0.91087118 -0.40840830 -0.05929881
vn 0.37822351 -0.92463955 0.04459459
vn 0.37448906 -0.90941484 0.18089386
vn 0.37448906 -0.85665005 0.35483607
vn 0.37448906 -0.77096468 0.51514213
vn 0.37448906 -0.65565156 0.65565156
vn 0.37448906 -0.51514213 0.77096468
vn 0.37448906 -0.35483607 0.85665005
vn 0.37038143 -0.13759441 0.91863234
vn 0.37824075 0.04480295 0.92462243
vn 0.37448906 0.18089386 0.90941484
vn 0.37448906 0.35483607 0.85665005
vn 0.37448906 0.51514213 0.77096468
vn 0.37448906 0.65565156 0.65565156
vn 0.37448906 0.77096468 0.51514213
vn 0.37448906 0.85665005 0.35483607
vn 0.37040123 0.91859421 0.13779552
vn 0.37822351 0.92463955 -0.04459459
vn 0.37448906 0.90941484 -0.18089386
vn 0.37448906 0.85665005 -0.35483607
vn 0.37448906 0.77096468 -0.51514213
vn 0.37448906 0.65565156 -0.65565156
vn 0.37448906 0.51514213 -0.77096468
vn 0.37448906 0.35483607 -0.85665005
vn 0.37038143 0.13759441 -0.91863234
vn 0.37824075 -0.04480295 -0.92462243
vn 0.37448906 -0.18089386 -0.90941484
vn 0.37448906 -0.35483607 -0.85665005
vn 0.37448906 -0.51514213 -0.77096468
vn 0.37448906 -0.65565156 -0.65565156
vn 0.37448906 -0.77096468 -0.51514213
vn 0.37448906 -0.85665005 -0.35483607
vn 0.37040123 -0.91859421 -0.13779552
vn -0.37822351 -0.92463955 0.04459459
vn -0.37448906 -0.90941484 0.18089386
vn -0.37448906 -0.85665005 0.35483607
vn -0.37448906 -0.77096468 0.51514213
vn -0.37448906 -0.65565156 0.65565156
vn -0.37448906 -0.51514213 0.77096468
vn -0.37448906 -0.35483607 0.85665005
vn -0.37038143 -0.13759441 0.91863234
vn -0.37824075 0.04480295 0.92462243
vn -0.37448906 0.18089386 0.90941484
vn -0.37448906 0.35483607 0.85665005
vn -0.37448906 0.51514213 0.77096468
vn -0.37448906 0.65565156 0.65565156
vn -0.37448906 0.77096468 0.51514213
vn -0.37448906 0.85665005 0.35483607
vn -0.37040123 0.91859421 0.13779552
vn -0.37822351 0.92463955 -0.04459459
vn -0.37448906 0.90941484 -0.18089386
vn -0.37448906 0.85665005 -0.35483607
vn -0.37448906 0.77096468 -0.51514213
vn -0.37448906 0.65565156 -0.65565156
vn -0.37448906 0.51514213 -0.77096468
vn -0.37448906 0.35483607 -0.85665005
vn -0.37038143 0.13759441 -0.91863234
vn -0.37824075 -0.04480295 -0.92462243
vn -0.37448906 -0.18089386 -0.90941484
vn -0.37448906 -0.35483607 -0.85665005
vn -0.37448906 -0.51514213 -0.77096468
vn -0.37448906 -0.65565156 -0.65565156
vn -0.37448906 -0.77096468 -0.51514213
vn -0.37448906 -0.85665005 -0.35483607
vn -0.37040123 -0.91859421 -0.13779552
vn -0.91946015 -0.39269680 0.01955123
vn -0.91532176 -0.39498512 0.07856742
vn -0.91532176 -0.37206784 0.15411555
vn -0.91532176 -0.33485221 0.22374110
vn -0.91532176 -0.28476840 0.28476840
vn -0.91532176 -0.22374110 0.33485221
vn -0.91532176 -0.15411555 0.37206784
vn -0.91084954 -0.05920362 0.40847038
vn -0.91947857 0.01963692 0.39264939
vn -0.91532176 0.07856742 0.39498512
vn -0.91532176 0.15411555 0.37206784
vn -0.91532176 0.22374110 0.33485221
vn -0.91532176 0.28476840 0.28476840
vn -0.91532176 0.33485221 0.22374110
vn -0.91532176 0.37206784 0.15411555
vn -0.91087118 0.40840830 0.05929881
vn -0.91946015 0.39269680 -0.01955123
vn -0.91532176 0.39498512 -0.07856742
vn -0.91532176 0.37206784 -0.15411555
vn -0.91532176 0.33485221 -0.22374110
vn -0.91532176 0.28476840 -0.28476840
vn -0.91532176 0.22374110 -0.33485221
vn -0.91532176 0.15411555 -0.37206784
vn -0.91084954 0.05920362 -0.40847038
vn -0.91947857 -0.01963692 -0.39264939
vn -0.91532176 -0.07856742 -0.39498512
vn -0.91532176 -0.15411555 -0.37206784
vn -0.91532176 -0.22374110 -0.33485221
vn -0.91532176 -0.28476840 -0.28476840
vn -0.91532176 -0.33485221 -0.22374110
vn -0.91532176 -0.37206784 -0.15411555
vn -0.91087118 -0.40840830 -0.05929881
f 128//128 65//65 97//97
f 1//1 33//33 32//32
f 32//32 33//33 64//64
f 57//57 24//24 25//25
f 16//16 17//17 49//49
f 56//56 24//24 57//57
f 81//81 113//113 112//112
f 8//8 41//41 40//40
f 89//89 121//121 120//120
f 120//120 88//88 89//89
f 41//41 8//8 9//9
f 65//65 128//128 96//96
f 72//72 73//73 104//104
f 104//104 73//73 105//105
f 48//48 16//16 49//49
f 80//80 81//81 112//112
f 43//43 42//42 11//11
f 11//11 42//42 10//10
f 33//33 34//34 66//66
f 66//66 65//65 33//33
f 89//89 56//56 57//57
f 88//88 56//56 89//89
f 60//60 27//27 28//28
f 59//59 27//27 60//60
f 29//29 60//60 28//28
f 61//61 60//60 29//29
f 29//29 30//30 62//62
f 62//62 61//61 29//29
f 10//10 42//42 9//9
f 9//9 42//42 41//41
f 82//82 81//81 49//49
f 49//49 50//50 82//82
f 90//90 123//123 122//122
f 91//91 123//123 90//90
f 90//90 122//122 121//121
f 121//121 89//89 90//90
f 124//124 123//123 92//92
f 92//92 123//123 91//91
f 59//59 60//60 92//92
f 92//92 91//91 59//59
f 92//92 60//60 61//61
f 61//61 93//93 92//92
f 124//124 92//92 125//125
f 125//125 92//92 93//93
f 128//128 127//127 96//96
f 96//96 127//127 95//95
f 33//33 65//65 96//96
f 64//64 33//33 96//96
f 94//94 127//127 126//126
f 95//95 127//127 94//94
f 94//94 61//61 62//62
f 94//94 93//93 61//61
f 126//126 125//125 94//94
f 94//94 125//125 93//93
f 95//95 94//94 63//63
f 63//63 94//94 62//62
f 62//62 30//30 63//63
f 30//30 31//31 63//63
f 63//63 96//96 95//95
f 64//64 96//96 63//63
f 63//63 31//31 32//32
f 63//63 32//32 64//64
f 71//71 39//39 72//72
f 72//72 39//39 40//40
f 40//40 41//41 72//72
f 41//41 73//73 72//72
f 41//41 42//42 74//74
f 74//74 73//73 41//41
f 75//75 42//42 43//43
f 75//75 74//74 42//42
f 44//44 75//75 43//43
f 76//76 75//75 44//44
f 108//108 75//75 76//76
f 107//107 75//75 108//108
f 40//40 39//39 7//7
f 7//7 8//8 40//40
f 36//36 35//35 3//3
f 3//3 4//4 36//36
f 24//24 56//56 23//23
f 56//56 55//55 23//23
f 22//22 23//23 54//54
f 54//54 23//23 55//55
f 54//54 21//21 22//22
f 53//53 21//21 54//54
f 87//87 56//56 88//88
f 87//87 55//55 56//56
f 18//18 50//50 49//49
f 49//49 17//17 18//18
f 20//20 21//21 52//52
f 52//52 21//21 53//53
f 67//67 66//66 34//34
f 34//34 35//35 67//67
f 65//65 66//66 98//98
f 97//97 65//65 98//98
f 66//66 67//67 98//98
f 98//98 67//67 99//99
f 58//58 27//27 59//59
f 26//26 27//27 58//58
f 91//91 90//90 58//58
f 59//59 91//91 58//58
f 25//25 26//26 58//58
f 57//57 25//25 58//58
f 58//58 89//89 57//57
f 58//58 90//90 89//89
f 74//74 75//75 106//106
f 106//106 75//75 107//107
f 73//73 74//74 106//106
f 106//106 105//105 73//73
f 49//49 81//81 80//80
f 80//80 48//48 49//49
f 6//6 7//7 39//39
f 6//6 39//39 38//38
f 2//2 34//34 33//33
f 2//2 33//33 1//1
f 2//2 3//3 35//35
f 2//2 35//35 34//34
f 119//119 87//87 88//88
f 119//119 88//88 120//120
f 86//86 119//119 118//118
f 87//87 119//119 86//86
f 86//86 54//54 55//55
f 55//55 87//87 86//86
f 86//86 118//118 117//117
f 117//117 85//85 86//86
f 53//53 54//54 86//86
f 86//86 85//85 53//53
f 117//117 116//116 84//84
f 84//84 85//85 117//117
f 84//84 52//52 53//53
f 53//53 85//85 84//84
f 81//81 82//82 114//114
f 113//113 81//81 114//114
f 83//83 114//114 82//82
f 115//115 114//114 83//83
f 116//116 115//115 83//83
f 83//83 84//84 116//116
f 71//71 72//72 103//103
f 103//103 72//72 104//104
f 70//70 39//39 71//71
f 38//38 39//39 70//70
f 70//70 103//103 102//102
f 71//71 103//103 70//70
f 76//76 44//44 77//77
f 44//44 45//45 77//77
f 77//77 108//108 76//76
f 77//77 109//109 108//108
f 45//45 46//46 77//77
f 77//77 46//46 78//78
f 110//110 109//109 77//77
f 78//78 110//110 77//77
f 48//48 80//80 79//79
f 47//47 48//48 79//79
f 112//112 111//111 79//79
f 79//79 80//80 112//112
f 78//78 46//46 79//79
f 79//79 46//46 47//47
f 79//79 111//111 110//110
f 79//79 110//110 78//78
f 36//36 4//4 5//5
f 5//5 37//37 36//36
f 5//5 6//6 38//38
f 38//38 37//37 5//5
f 51//51 18//18 19//19
f 50//50 18//18 51//51
f 51//51 82//82 50//50
f 51//51 83//83 82//82
f 51//51 19//19 20//20
f 20//20 52//52 51//51
f 52//52 84//84 51//51
f 84//84 83//83 51//51
f 38//38 70//70 69//69
f 69//69 37//37 38//38
f 36//36 37//37 68//68
f 37//37 69//69 68//68
f 68//68 35//35 36//36
f 68//68 67//67 35//35
f 99//99 67//67 68//68
f 68//68 100//100 99//99
f 101//101 128//128 97//97
f 101//101 123//123 124//124
f 120//120 121//121 101//101
f 101//101 119//119 120//120
f 113//113 114//114 101//101
f 112//112 113//113 101//101
f 107//107 108//108 101//101
f 121//121 122//122 101//101
f 124//124 125//125 101//101
f 101//101 109//109 110//110
f 101//101 127//127 128//128
f 117//117 118//118 101//101
f 101//101 116//116 117//117
f 101//101 111//111 112//112
f 97//97 98//98 101//101
f 122//122 123//123 101//101
f 101//101 125//125 126//126
f 126//126 127//127 101//101
f 104//104 105//105 101//101
f 110//110 111//111 101//101
f 101//101 106//106 107//107
f 101//101 115//115 116//116
f 101//101 98//98 99//99
f 101//101 103//103 104//104
f 105//105 106//106 101//101
f 108//108 109//109 101//101
f 118//118 119//119 101//101
f 101//101 114//114 115//115
f 102//102 103//103 101//101
f 99//99 100//100 101//101
f 101//101 70//70 102//102
f 101//101 69//69 70//70
f 101//101 68//68 69//69
f 100//100 68//68 101//101
f 15//15 48//48 47//47
f 16//16 48//48 15//15
f 47//47 46//46 15//15
f 46//46 14//14 15//15
f 13//13 46//46 45//45
f 13//13 14//14 46//46
f 1//1 32//32 12//12
f 12//12 25//25 24//24
f 17//17 16//16 12//12
f 12//12 2//2 1//1
f 12//12 11//11 10//10
f 28//28 27//27 12//12
f 10//10 9//9 12//12
f 12//12 21//21 20//20
f 12//12 26//26 25//25
f 12//12 29//29 28//28
f 32//32 31//31 12//12
f 12//12 5//5 4//4
f 8//8 7//7 12//12
f 12//12 27//27 26//26
f 30//30 29//29 12//12
f 12//12 31//31 30//30
f 12//12 9//9 8//8
f 24//24 23//23 12//12
f 22//22 21//21 12//12
f 20//20 19//19 12//12
f 12//12 18//18 17//17
f 4//4 3//3 12//12
f 12//12 23//23 22//22
f 19//19 18//18 12//12
f 7//7 6//6 12//12
f 3//3 2//2 12//12
f 6//6 5//5 12//12
f 16//16 15//15 12//12
f 12//12 15//15 14//14
f 14//14 13//13 12//12
f 43//43 11//11 12//12
f 12//12 44//44 43//43
f 12//12 45//45 44//44
f 12//12 13//13 45//45
