# Independent procedural camera geometry; meters; Z up
o pod_diagonal_traction_rib_0
v -0.0027200000 -0.0186000000 0.0256000000
v -0.0021790191 -0.0182308789 0.0252554869
v -0.0021790191 -0.0070308789 0.0372554869
v -0.0027200000 -0.0074000000 0.0376000000
v -0.0024516677 -0.0180958380 0.0251294488
v -0.0024516677 -0.0068958380 0.0371294488
v -0.0027774628 -0.0180606526 0.0250966091
v -0.0027774628 -0.0068606526 0.0370966091
v -0.0030918766 -0.0181322916 0.0251634721
v -0.0030918766 -0.0069322916 0.0371634721
v -0.0033326358 -0.0182965659 0.0253167949
v -0.0033326358 -0.0070965659 0.0373167949
v -0.0034520549 -0.0185209391 0.0255262099
v -0.0034520549 -0.0073209391 0.0375262099
v -0.0034264816 -0.0187609713 0.0257502399
v -0.0034264816 -0.0075609713 0.0377502399
v -0.0032609809 -0.0189691211 0.0259445131
v -0.0032609809 -0.0077691211 0.0379445131
v -0.0029883323 -0.0191041620 0.0260705512
v -0.0029883323 -0.0079041620 0.0380705512
v -0.0026625372 -0.0191393474 0.0261033909
v -0.0026625372 -0.0079393474 0.0381033909
v -0.0023481234 -0.0190677084 0.0260365279
v -0.0023481234 -0.0078677084 0.0380365279
v -0.0021073642 -0.0189034341 0.0258832051
v -0.0021073642 -0.0077034341 0.0378832051
v -0.0019879451 -0.0186790609 0.0256737901
v -0.0019879451 -0.0074790609 0.0376737901
v -0.0020135184 -0.0184390287 0.0254497601
v -0.0020135184 -0.0072390287 0.0374497601
vn -0.00000000 -0.68231825 -0.73105527
vn 0.54903469 -0.07590692 -0.83234551
vn 0.54903469 0.82513970 0.13306159
vn -0.00000000 0.68231825 0.73105527
vn 0.27232709 0.06114435 -0.96026003
vn 0.27232709 0.96219097 0.00514707
vn -0.05831824 0.09685356 -0.99358863
vn -0.05831824 0.99790019 -0.02818154
vn -0.37741292 0.02414808 -0.92573018
vn -0.37741292 0.92519470 0.03967692
vn -0.62175634 -0.14257190 -0.77012487
vn -0.62175634 0.75847472 0.19528223
vn -0.74295329 -0.37028543 -0.55759224
vn -0.74295329 0.53076119 0.40781486
vn -0.71699924 -0.61389106 -0.33022698
vn -0.71699924 0.28715556 0.63518011
vn -0.54903469 -0.82513970 -0.13306159
vn -0.54903469 0.07590692 0.83234551
vn -0.27232709 -0.96219097 -0.00514707
vn -0.27232709 -0.06114435 0.96026003
vn 0.05831824 -0.99790019 0.02818154
vn 0.05831824 -0.09685356 0.99358863
vn 0.37741292 -0.92519470 -0.03967692
vn 0.37741292 -0.02414808 0.92573018
vn 0.62175634 -0.75847472 -0.19528223
vn 0.62175634 0.14257190 0.77012487
vn 0.74295329 -0.53076119 -0.40781486
vn 0.74295329 0.37028543 0.55759224
vn 0.71699924 -0.28715556 -0.63518011
vn 0.71699924 0.61389106 0.33022698
f 2//2 1//1 5//5
f 2//2 5//5 3//3
f 3//3 5//5 6//6
f 3//3 6//6 4//4
f 5//5 1//1 7//7
f 5//5 7//7 6//6
f 6//6 7//7 8//8
f 6//6 8//8 4//4
f 7//7 1//1 9//9
f 7//7 9//9 8//8
f 8//8 9//9 10//10
f 8//8 10//10 4//4
f 9//9 1//1 11//11
f 9//9 11//11 10//10
f 10//10 11//11 12//12
f 10//10 12//12 4//4
f 11//11 1//1 13//13
f 11//11 13//13 12//12
f 12//12 13//13 14//14
f 12//12 14//14 4//4
f 13//13 1//1 15//15
f 13//13 15//15 14//14
f 14//14 15//15 16//16
f 14//14 16//16 4//4
f 15//15 1//1 17//17
f 15//15 17//17 16//16
f 16//16 17//17 18//18
f 16//16 18//18 4//4
f 17//17 1//1 19//19
f 17//17 19//19 18//18
f 18//18 19//19 20//20
f 18//18 20//20 4//4
f 19//19 1//1 21//21
f 19//19 21//21 20//20
f 20//20 21//21 22//22
f 20//20 22//22 4//4
f 21//21 1//1 23//23
f 21//21 23//23 22//22
f 22//22 23//23 24//24
f 22//22 24//24 4//4
f 23//23 1//1 25//25
f 23//23 25//25 24//24
f 24//24 25//25 26//26
f 24//24 26//26 4//4
f 25//25 1//1 27//27
f 25//25 27//27 26//26
f 26//26 27//27 28//28
f 26//26 28//28 4//4
f 27//27 1//1 29//29
f 27//27 29//29 28//28
f 28//28 29//29 30//30
f 28//28 30//30 4//4
f 29//29 1//1 2//2
f 29//29 2//2 30//30
f 30//30 2//2 3//3
f 30//30 3//3 4//4
o pod_diagonal_traction_rib_1
v -0.0027200000 -0.0131000000 0.0256000000
v -0.0021790191 -0.0127308789 0.0252554869
v -0.0021790191 -0.0015308789 0.0372554869
v -0.0027200000 -0.0019000000 0.0376000000
v -0.0024516677 -0.0125958380 0.0251294488
v -0.0024516677 -0.0013958380 0.0371294488
v -0.0027774628 -0.0125606526 0.0250966091
v -0.0027774628 -0.0013606526 0.0370966091
v -0.0030918766 -0.0126322916 0.0251634721
v -0.0030918766 -0.0014322916 0.0371634721
v -0.0033326358 -0.0127965659 0.0253167949
v -0.0033326358 -0.0015965659 0.0373167949
v -0.0034520549 -0.0130209391 0.0255262099
v -0.0034520549 -0.0018209391 0.0375262099
v -0.0034264816 -0.0132609713 0.0257502399
v -0.0034264816 -0.0020609713 0.0377502399
v -0.0032609809 -0.0134691211 0.0259445131
v -0.0032609809 -0.0022691211 0.0379445131
v -0.0029883323 -0.0136041620 0.0260705512
v -0.0029883323 -0.0024041620 0.0380705512
v -0.0026625372 -0.0136393474 0.0261033909
v -0.0026625372 -0.0024393474 0.0381033909
v -0.0023481234 -0.0135677084 0.0260365279
v -0.0023481234 -0.0023677084 0.0380365279
v -0.0021073642 -0.0134034341 0.0258832051
v -0.0021073642 -0.0022034341 0.0378832051
v -0.0019879451 -0.0131790609 0.0256737901
v -0.0019879451 -0.0019790609 0.0376737901
v -0.0020135184 -0.0129390287 0.0254497601
v -0.0020135184 -0.0017390287 0.0374497601
vn -0.00000000 -0.68231825 -0.73105527
vn 0.54903469 -0.07590692 -0.83234551
vn 0.54903469 0.82513970 0.13306159
vn 0.00000000 0.68231825 0.73105527
vn 0.27232709 0.06114435 -0.96026003
vn 0.27232709 0.96219097 0.00514707
vn -0.05831824 0.09685356 -0.99358863
vn -0.05831824 0.99790019 -0.02818154
vn -0.37741292 0.02414808 -0.92573018
vn -0.37741292 0.92519470 0.03967692
vn -0.62175634 -0.14257190 -0.77012487
vn -0.62175634 0.75847472 0.19528223
vn -0.74295329 -0.37028543 -0.55759224
vn -0.74295329 0.53076119 0.40781486
vn -0.71699924 -0.61389106 -0.33022698
vn -0.71699924 0.28715556 0.63518011
vn -0.54903469 -0.82513970 -0.13306159
vn -0.54903469 0.07590692 0.83234551
vn -0.27232709 -0.96219097 -0.00514707
vn -0.27232709 -0.06114435 0.96026003
vn 0.05831824 -0.99790019 0.02818154
vn 0.05831824 -0.09685356 0.99358863
vn 0.37741292 -0.92519470 -0.03967692
vn 0.37741292 -0.02414808 0.92573018
vn 0.62175634 -0.75847472 -0.19528223
vn 0.62175634 0.14257190 0.77012487
vn 0.74295329 -0.53076119 -0.40781486
vn 0.74295329 0.37028543 0.55759224
vn 0.71699924 -0.28715556 -0.63518011
vn 0.71699924 0.61389106 0.33022698
f 32//32 31//31 35//35
f 32//32 35//35 33//33
f 33//33 35//35 36//36
f 33//33 36//36 34//34
f 35//35 31//31 37//37
f 35//35 37//37 36//36
f 36//36 37//37 38//38
f 36//36 38//38 34//34
f 37//37 31//31 39//39
f 37//37 39//39 38//38
f 38//38 39//39 40//40
f 38//38 40//40 34//34
f 39//39 31//31 41//41
f 39//39 41//41 40//40
f 40//40 41//41 42//42
f 40//40 42//42 34//34
f 41//41 31//31 43//43
f 41//41 43//43 42//42
f 42//42 43//43 44//44
f 42//42 44//44 34//34
f 43//43 31//31 45//45
f 43//43 45//45 44//44
f 44//44 45//45 46//46
f 44//44 46//46 34//34
f 45//45 31//31 47//47
f 45//45 47//47 46//46
f 46//46 47//47 48//48
f 46//46 48//48 34//34
f 47//47 31//31 49//49
f 47//47 49//49 48//48
f 48//48 49//49 50//50
f 48//48 50//50 34//34
f 49//49 31//31 51//51
f 49//49 51//51 50//50
f 50//50 51//51 52//52
f 50//50 52//52 34//34
f 51//51 31//31 53//53
f 51//51 53//53 52//52
f 52//52 53//53 54//54
f 52//52 54//54 34//34
f 53//53 31//31 55//55
f 53//53 55//55 54//54
f 54//54 55//55 56//56
f 54//54 56//56 34//34
f 55//55 31//31 57//57
f 55//55 57//57 56//56
f 56//56 57//57 58//58
f 56//56 58//58 34//34
f 57//57 31//31 59//59
f 57//57 59//59 58//58
f 58//58 59//59 60//60
f 58//58 60//60 34//34
f 59//59 31//31 32//32
f 59//59 32//32 60//60
f 60//60 32//32 33//33
f 60//60 33//33 34//34
o pod_diagonal_traction_rib_2
v -0.0027200000 -0.0076000000 0.0256000000
v -0.0021790191 -0.0072308789 0.0252554869
v -0.0021790191 0.0039691211 0.0372554869
v -0.0027200000 0.0036000000 0.0376000000
v -0.0024516677 -0.0070958380 0.0251294488
v -0.0024516677 0.0041041620 0.0371294488
v -0.0027774628 -0.0070606526 0.0250966091
v -0.0027774628 0.0041393474 0.0370966091
v -0.0030918766 -0.0071322916 0.0251634721
v -0.0030918766 0.0040677084 0.0371634721
v -0.0033326358 -0.0072965659 0.0253167949
v -0.0033326358 0.0039034341 0.0373167949
v -0.0034520549 -0.0075209391 0.0255262099
v -0.0034520549 0.0036790609 0.0375262099
v -0.0034264816 -0.0077609713 0.0257502399
v -0.0034264816 0.0034390287 0.0377502399
v -0.0032609809 -0.0079691211 0.0259445131
v -0.0032609809 0.0032308789 0.0379445131
v -0.0029883323 -0.0081041620 0.0260705512
v -0.0029883323 0.0030958380 0.0380705512
v -0.0026625372 -0.0081393474 0.0261033909
v -0.0026625372 0.0030606526 0.0381033909
v -0.0023481234 -0.0080677084 0.0260365279
v -0.0023481234 0.0031322916 0.0380365279
v -0.0021073642 -0.0079034341 0.0258832051
v -0.0021073642 0.0032965659 0.0378832051
v -0.0019879451 -0.0076790609 0.0256737901
v -0.0019879451 0.0035209391 0.0376737901
v -0.0020135184 -0.0074390287 0.0254497601
v -0.0020135184 0.0037609713 0.0374497601
vn -0.00000000 -0.68231825 -0.73105527
vn 0.54903469 -0.07590692 -0.83234551
vn 0.54903469 0.82513970 0.13306159
vn 0.00000000 0.68231825 0.73105527
vn 0.27232709 0.06114435 -0.96026003
vn 0.27232709 0.96219097 0.00514707
vn -0.05831824 0.09685356 -0.99358863
vn -0.05831824 0.99790019 -0.02818154
vn -0.37741292 0.02414808 -0.92573018
vn -0.37741292 0.92519470 0.03967692
vn -0.62175634 -0.14257190 -0.77012487
vn -0.62175634 0.75847472 0.19528223
vn -0.74295329 -0.37028543 -0.55759224
vn -0.74295329 0.53076119 0.40781486
vn -0.71699924 -0.61389106 -0.33022698
vn -0.71699924 0.28715556 0.63518011
vn -0.54903469 -0.82513970 -0.13306159
vn -0.54903469 0.07590692 0.83234551
vn -0.27232709 -0.96219097 -0.00514707
vn -0.27232709 -0.06114435 0.96026003
vn 0.05831824 -0.99790019 0.02818154
vn 0.05831824 -0.09685356 0.99358863
vn 0.37741292 -0.92519470 -0.03967692
vn 0.37741292 -0.02414808 0.92573018
vn 0.62175634 -0.75847472 -0.19528223
vn 0.62175634 0.14257190 0.77012487
vn 0.74295329 -0.53076119 -0.40781486
vn 0.74295329 0.37028543 0.55759224
vn 0.71699924 -0.28715556 -0.63518011
vn 0.71699924 0.61389106 0.33022698
f 62//62 61//61 65//65
f 62//62 65//65 63//63
f 63//63 65//65 66//66
f 63//63 66//66 64//64
f 65//65 61//61 67//67
f 65//65 67//67 66//66
f 66//66 67//67 68//68
f 66//66 68//68 64//64
f 67//67 61//61 69//69
f 67//67 69//69 68//68
f 68//68 69//69 70//70
f 68//68 70//70 64//64
f 69//69 61//61 71//71
f 69//69 71//71 70//70
f 70//70 71//71 72//72
f 70//70 72//72 64//64
f 71//71 61//61 73//73
f 71//71 73//73 72//72
f 72//72 73//73 74//74
f 72//72 74//74 64//64
f 73//73 61//61 75//75
f 73//73 75//75 74//74
f 74//74 75//75 76//76
f 74//74 76//76 64//64
f 75//75 61//61 77//77
f 75//75 77//77 76//76
f 76//76 77//77 78//78
f 76//76 78//78 64//64
f 77//77 61//61 79//79
f 77//77 79//79 78//78
f 78//78 79//79 80//80
f 78//78 80//80 64//64
f 79//79 61//61 81//81
f 79//79 81//81 80//80
f 80//80 81//81 82//82
f 80//80 82//82 64//64
f 81//81 61//61 83//83
f 81//81 83//83 82//82
f 82//82 83//83 84//84
f 82//82 84//84 64//64
f 83//83 61//61 85//85
f 83//83 85//85 84//84
f 84//84 85//85 86//86
f 84//84 86//86 64//64
f 85//85 61//61 87//87
f 85//85 87//87 86//86
f 86//86 87//87 88//88
f 86//86 88//88 64//64
f 87//87 61//61 89//89
f 87//87 89//89 88//88
f 88//88 89//89 90//90
f 88//88 90//90 64//64
f 89//89 61//61 62//62
f 89//89 62//62 90//90
f 90//90 62//62 63//63
f 90//90 63//63 64//64
o pod_diagonal_traction_rib_3
v -0.0027200000 -0.0021000000 0.0256000000
v -0.0021790191 -0.0017308789 0.0252554869
v -0.0021790191 0.0094691211 0.0372554869
v -0.0027200000 0.0091000000 0.0376000000
v -0.0024516677 -0.0015958380 0.0251294488
v -0.0024516677 0.0096041620 0.0371294488
v -0.0027774628 -0.0015606526 0.0250966091
v -0.0027774628 0.0096393474 0.0370966091
v -0.0030918766 -0.0016322916 0.0251634721
v -0.0030918766 0.0095677084 0.0371634721
v -0.0033326358 -0.0017965659 0.0253167949
v -0.0033326358 0.0094034341 0.0373167949
v -0.0034520549 -0.0020209391 0.0255262099
v -0.0034520549 0.0091790609 0.0375262099
v -0.0034264816 -0.0022609713 0.0257502399
v -0.0034264816 0.0089390287 0.0377502399
v -0.0032609809 -0.0024691211 0.0259445131
v -0.0032609809 0.0087308789 0.0379445131
v -0.0029883323 -0.0026041620 0.0260705512
v -0.0029883323 0.0085958380 0.0380705512
v -0.0026625372 -0.0026393474 0.0261033909
v -0.0026625372 0.0085606526 0.0381033909
v -0.0023481234 -0.0025677084 0.0260365279
v -0.0023481234 0.0086322916 0.0380365279
v -0.0021073642 -0.0024034341 0.0258832051
v -0.0021073642 0.0087965659 0.0378832051
v -0.0019879451 -0.0021790609 0.0256737901
v -0.0019879451 0.0090209391 0.0376737901
v -0.0020135184 -0.0019390287 0.0254497601
v -0.0020135184 0.0092609713 0.0374497601
vn -0.00000000 -0.68231825 -0.73105527
vn 0.54903469 -0.07590692 -0.83234551
vn 0.54903469 0.82513970 0.13306159
vn 0.00000000 0.68231825 0.73105527
vn 0.27232709 0.06114435 -0.96026003
vn 0.27232709 0.96219097 0.00514707
vn -0.05831824 0.09685356 -0.99358863
vn -0.05831824 0.99790019 -0.02818154
vn -0.37741292 0.02414808 -0.92573018
vn -0.37741292 0.92519470 0.03967692
vn -0.62175634 -0.14257190 -0.77012487
vn -0.62175634 0.75847472 0.19528223
vn -0.74295329 -0.37028543 -0.55759224
vn -0.74295329 0.53076119 0.40781486
vn -0.71699924 -0.61389106 -0.33022698
vn -0.71699924 0.28715556 0.63518011
vn -0.54903469 -0.82513970 -0.13306159
vn -0.54903469 0.07590692 0.83234551
vn -0.27232709 -0.96219097 -0.00514707
vn -0.27232709 -0.06114435 0.96026003
vn 0.05831824 -0.99790019 0.02818154
vn 0.05831824 -0.09685356 0.99358863
vn 0.37741292 -0.92519470 -0.03967692
vn 0.37741292 -0.02414808 0.92573018
vn 0.62175634 -0.75847472 -0.19528223
vn 0.62175634 0.14257190 0.77012487
vn 0.74295329 -0.53076119 -0.40781486
vn 0.74295329 0.37028543 0.55759224
vn 0.71699924 -0.28715556 -0.63518011
vn 0.71699924 0.61389106 0.33022698
f 92//92 91//91 95//95
f 92//92 95//95 93//93
f 93//93 95//95 96//96
f 93//93 96//96 94//94
f 95//95 91//91 97//97
f 95//95 97//97 96//96
f 96//96 97//97 98//98
f 96//96 98//98 94//94
f 97//97 91//91 99//99
f 97//97 99//99 98//98
f 98//98 99//99 100//100
f 98//98 100//100 94//94
f 99//99 91//91 101//101
f 99//99 101//101 100//100
f 100//100 101//101 102//102
f 100//100 102//102 94//94
f 101//101 91//91 103//103
f 101//101 103//103 102//102
f 102//102 103//103 104//104
f 102//102 104//104 94//94
f 103//103 91//91 105//105
f 103//103 105//105 104//104
f 104//104 105//105 106//106
f 104//104 106//106 94//94
f 105//105 91//91 107//107
f 105//105 107//107 106//106
f 106//106 107//107 108//108
f 106//106 108//108 94//94
f 107//107 91//91 109//109
f 107//107 109//109 108//108
f 108//108 109//109 110//110
f 108//108 110//110 94//94
f 109//109 91//91 111//111
f 109//109 111//111 110//110
f 110//110 111//111 112//112
f 110//110 112//112 94//94
f 111//111 91//91 113//113
f 111//111 113//113 112//112
f 112//112 113//113 114//114
f 112//112 114//114 94//94
f 113//113 91//91 115//115
f 113//113 115//115 114//114
f 114//114 115//115 116//116
f 114//114 116//116 94//94
f 115//115 91//91 117//117
f 115//115 117//117 116//116
f 116//116 117//117 118//118
f 116//116 118//118 94//94
f 117//117 91//91 119//119
f 117//117 119//119 118//118
f 118//118 119//119 120//120
f 118//118 120//120 94//94
f 119//119 91//91 92//92
f 119//119 92//92 120//120
f 120//120 92//92 93//93
f 120//120 93//93 94//94
