# Independent procedural camera geometry; meters; Z up
o ambient_light_sensor_window
v 0.0071325000 -0.0131000000 0.0248000000
v 0.0071325000 -0.0120850000 0.0248000000
v 0.0071325000 -0.0120888624 0.0248884631
v 0.0071325000 -0.0121004201 0.0249762529
v 0.0071325000 -0.0121195853 0.0250627013
v 0.0071325000 -0.0121462120 0.0251471504
v 0.0071325000 -0.0121800976 0.0252289575
v 0.0071325000 -0.0122209842 0.0253075000
v 0.0071325000 -0.0122685607 0.0253821801
v 0.0071325000 -0.0123224649 0.0254524294
v 0.0071325000 -0.0123822866 0.0255177134
v 0.0071325000 -0.0124475706 0.0255775351
v 0.0071325000 -0.0125178199 0.0256314393
v 0.0071325000 -0.0125925000 0.0256790158
v 0.0071325000 -0.0126710425 0.0257199024
v 0.0071325000 -0.0127528496 0.0257537880
v 0.0071325000 -0.0128372987 0.0257804147
v 0.0071325000 -0.0129237471 0.0257995799
v 0.0071325000 -0.0130115369 0.0258111376
v 0.0071325000 -0.0131000000 0.0258150000
v 0.0071325000 -0.0131884631 0.0258111376
v 0.0071325000 -0.0132762529 0.0257995799
v 0.0071325000 -0.0133627013 0.0257804147
v 0.0071325000 -0.0134471504 0.0257537880
v 0.0071325000 -0.0135289575 0.0257199024
v 0.0071325000 -0.0136075000 0.0256790158
v 0.0071325000 -0.0136821801 0.0256314393
v 0.0071325000 -0.0137524294 0.0255775351
v 0.0071325000 -0.0138177134 0.0255177134
v 0.0071325000 -0.0138775351 0.0254524294
v 0.0071325000 -0.0139314393 0.0253821801
v 0.0071325000 -0.0139790158 0.0253075000
v 0.0071325000 -0.0140199024 0.0252289575
v 0.0071325000 -0.0140537880 0.0251471504
v 0.0071325000 -0.0140804147 0.0250627013
v 0.0071325000 -0.0140995799 0.0249762529
v 0.0071325000 -0.0141111376 0.0248884631
v 0.0071325000 -0.0141150000 0.0248000000
v 0.0071325000 -0.0141111376 0.0247115369
v 0.0071325000 -0.0140995799 0.0246237471
v 0.0071325000 -0.0140804147 0.0245372987
v 0.0071325000 -0.0140537880 0.0244528496
v 0.0071325000 -0.0140199024 0.0243710425
v 0.0071325000 -0.0139790158 0.0242925000
v 0.0071325000 -0.0139314393 0.0242178199
v 0.0071325000 -0.0138775351 0.0241475706
v 0.0071325000 -0.0138177134 0.0240822866
v 0.0071325000 -0.0137524294 0.0240224649
v 0.0071325000 -0.0136821801 0.0239685607
v 0.0071325000 -0.0136075000 0.0239209842
v 0.0071325000 -0.0135289575 0.0238800976
v 0.0071325000 -0.0134471504 0.0238462120
v 0.0071325000 -0.0133627013 0.0238195853
v 0.0071325000 -0.0132762529 0.0238004201
v 0.0071325000 -0.0131884631 0.0237888624
v 0.0071325000 -0.0131000000 0.0237850000
v 0.0071325000 -0.0130115369 0.0237888624
v 0.0071325000 -0.0129237471 0.0238004201
v 0.0071325000 -0.0128372987 0.0238195853
v 0.0071325000 -0.0127528496 0.0238462120
v 0.0071325000 -0.0126710425 0.0238800976
v 0.0071325000 -0.0125925000 0.0239209842
v 0.0071325000 -0.0125178199 0.0239685607
v 0.0071325000 -0.0124475706 0.0240224649
v 0.0071325000 -0.0123822866 0.0240822866
v 0.0071325000 -0.0123224649 0.0241475706
v 0.0071325000 -0.0122685607 0.0242178199
v 0.0071325000 -0.0122209842 0.0242925000
v 0.0071325000 -0.0121800976 0.0243710425
v 0.0071325000 -0.0121462120 0.0244528496
v 0.0071325000 -0.0121195853 0.0245372987
v 0.0071325000 -0.0121004201 0.0246237471
v 0.0071325000 -0.0120888624 0.0247115369
v 0.0071325000 -0.0120850000 0.0248000000
v 0.0071325000 -0.0120888624 0.0248884631
v 0.0071325000 -0.0121004201 0.0249762529
v 0.0071325000 -0.0121195853 0.0250627013
v 0.0071325000 -0.0121462120 0.0251471504
v 0.0071325000 -0.0121800976 0.0252289575
v 0.0071325000 -0.0122209842 0.0253075000
v 0.0071325000 -0.0122685607 0.0253821801
v 0.0071325000 -0.0123224649 0.0254524294
v 0.0071325000 -0.0123822866 0.0255177134
v 0.0071325000 -0.0124475706 0.0255775351
v 0.0071325000 -0.0125178199 0.0256314393
v 0.0071325000 -0.0125925000 0.0256790158
v 0.0071325000 -0.0126710425 0.0257199024
v 0.0071325000 -0.0127528496 0.0257537880
v 0.0071325000 -0.0128372987 0.0257804147
v 0.0071325000 -0.0129237471 0.0257995799
v 0.0071325000 -0.0130115369 0.0258111376
v 0.0071325000 -0.0131000000 0.0258150000
v 0.0071325000 -0.0131884631 0.0258111376
v 0.0071325000 -0.0132762529 0.0257995799
v 0.0071325000 -0.0133627013 0.0257804147
v 0.0071325000 -0.0134471504 0.0257537880
v 0.0071325000 -0.0135289575 0.0257199024
v 0.0071325000 -0.0136075000 0.0256790158
v 0.0071325000 -0.0136821801 0.0256314393
v 0.0071325000 -0.0137524294 0.0255775351
v 0.0071325000 -0.0138177134 0.0255177134
v 0.0071325000 -0.0138775351 0.0254524294
v 0.0071325000 -0.0139314393 0.0253821801
v 0.0071325000 -0.0139790158 0.0253075000
v 0.0071325000 -0.0140199024 0.0252289575
v 0.0071325000 -0.0140537880 0.0251471504
v 0.0071325000 -0.0140804147 0.0250627013
v 0.0071325000 -0.0140995799 0.0249762529
v 0.0071325000 -0.0141111376 0.0248884631
v 0.0071325000 -0.0141150000 0.0248000000
v 0.0071325000 -0.0141111376 0.0247115369
v 0.0071325000 -0.0140995799 0.0246237471
v 0.0071325000 -0.0140804147 0.0245372987
v 0.0071325000 -0.0140537880 0.0244528496
v 0.0071325000 -0.0140199024 0.0243710425
v 0.0071325000 -0.0139790158 0.0242925000
v 0.0071325000 -0.0139314393 0.0242178199
v 0.0071325000 -0.0138775351 0.0241475706
v 0.0071325000 -0.0138177134 0.0240822866
v 0.0071325000 -0.0137524294 0.0240224649
v 0.0071325000 -0.0136821801 0.0239685607
v 0.0071325000 -0.0136075000 0.0239209842
v 0.0071325000 -0.0135289575 0.0238800976
v 0.0071325000 -0.0134471504 0.0238462120
v 0.0071325000 -0.0133627013 0.0238195853
v 0.0071325000 -0.0132762529 0.0238004201
v 0.0071325000 -0.0131884631 0.0237888624
v 0.0071325000 -0.0131000000 0.0237850000
v 0.0071325000 -0.0130115369 0.0237888624
v 0.0071325000 -0.0129237471 0.0238004201
v 0.0071325000 -0.0128372987 0.0238195853
v 0.0071325000 -0.0127528496 0.0238462120
v 0.0071325000 -0.0126710425 0.0238800976
v 0.0071325000 -0.0125925000 0.0239209842
v 0.0071325000 -0.0125178199 0.0239685607
v 0.0071325000 -0.0124475706 0.0240224649
v 0.0071325000 -0.0123822866 0.0240822866
v 0.0071325000 -0.0123224649 0.0241475706
v 0.0071325000 -0.0122685607 0.0242178199
v 0.0071325000 -0.0122209842 0.0242925000
v 0.0071325000 -0.0121800976 0.0243710425
v 0.0071325000 -0.0121462120 0.0244528496
v 0.0071325000 -0.0121195853 0.0245372987
v 0.0071325000 -0.0121004201 0.0246237471
v 0.0071325000 -0.0120888624 0.0247115369
v 0.0072055000 -0.0120850000 0.0248000000
v 0.0072055000 -0.0120888624 0.0248884631
v 0.0072055000 -0.0121004201 0.0249762529
v 0.0072055000 -0.0121195853 0.0250627013
v 0.0072055000 -0.0121462120 0.0251471504
v 0.0072055000 -0.0121800976 0.0252289575
v 0.0072055000 -0.0122209842 0.0253075000
v 0.0072055000 -0.0122685607 0.0253821801
v 0.0072055000 -0.0123224649 0.0254524294
v 0.0072055000 -0.0123822866 0.0255177134
v 0.0072055000 -0.0124475706 0.0255775351
v 0.0072055000 -0.0125178199 0.0256314393
v 0.0072055000 -0.0125925000 0.0256790158
v 0.0072055000 -0.0126710425 0.0257199024
v 0.0072055000 -0.0127528496 0.0257537880
v 0.0072055000 -0.0128372987 0.0257804147
v 0.0072055000 -0.0129237471 0.0257995799
v 0.0072055000 -0.0130115369 0.0258111376
v 0.0072055000 -0.0131000000 0.0258150000
v 0.0072055000 -0.0131884631 0.0258111376
v 0.0072055000 -0.0132762529 0.0257995799
v 0.0072055000 -0.0133627013 0.0257804147
v 0.0072055000 -0.0134471504 0.0257537880
v 0.0072055000 -0.0135289575 0.0257199024
v 0.0072055000 -0.0136075000 0.0256790158
v 0.0072055000 -0.0136821801 0.0256314393
v 0.0072055000 -0.0137524294 0.0255775351
v 0.0072055000 -0.0138177134 0.0255177134
v 0.0072055000 -0.0138775351 0.0254524294
v 0.0072055000 -0.0139314393 0.0253821801
v 0.0072055000 -0.0139790158 0.0253075000
v 0.0072055000 -0.0140199024 0.0252289575
v 0.0072055000 -0.0140537880 0.0251471504
v 0.0072055000 -0.0140804147 0.0250627013
v 0.0072055000 -0.0140995799 0.0249762529
v 0.0072055000 -0.0141111376 0.0248884631
v 0.0072055000 -0.0141150000 0.0248000000
v 0.0072055000 -0.0141111376 0.0247115369
v 0.0072055000 -0.0140995799 0.0246237471
v 0.0072055000 -0.0140804147 0.0245372987
v 0.0072055000 -0.0140537880 0.0244528496
v 0.0072055000 -0.0140199024 0.0243710425
v 0.0072055000 -0.0139790158 0.0242925000
v 0.0072055000 -0.0139314393 0.0242178199
v 0.0072055000 -0.0138775351 0.0241475706
v 0.0072055000 -0.0138177134 0.0240822866
v 0.0072055000 -0.0137524294 0.0240224649
v 0.0072055000 -0.0136821801 0.0239685607
v 0.0072055000 -0.0136075000 0.0239209842
v 0.0072055000 -0.0135289575 0.0238800976
v 0.0072055000 -0.0134471504 0.0238462120
v 0.0072055000 -0.0133627013 0.0238195853
v 0.0072055000 -0.0132762529 0.0238004201
v 0.0072055000 -0.0131884631 0.0237888624
v 0.0072055000 -0.0131000000 0.0237850000
v 0.0072055000 -0.0130115369 0.0237888624
v 0.0072055000 -0.0129237471 0.0238004201
v 0.0072055000 -0.0128372987 0.0238195853
v 0.0072055000 -0.0127528496 0.0238462120
v 0.0072055000 -0.0126710425 0.0238800976
v 0.0072055000 -0.0125925000 0.0239209842
v 0.0072055000 -0.0125178199 0.0239685607
v 0.0072055000 -0.0124475706 0.0240224649
v 0.0072055000 -0.0123822866 0.0240822866
v 0.0072055000 -0.0123224649 0.0241475706
v 0.0072055000 -0.0122685607 0.0242178199
v 0.0072055000 -0.0122209842 0.0242925000
v 0.0072055000 -0.0121800976 0.0243710425
v 0.0072055000 -0.0121462120 0.0244528496
v 0.0072055000 -0.0121195853 0.0245372987
v 0.0072055000 -0.0121004201 0.0246237471
v 0.0072055000 -0.0120888624 0.0247115369
v 0.0072055000 -0.0120850000 0.0248000000
v 0.0072055000 -0.0120888624 0.0248884631
v 0.0072055000 -0.0121004201 0.0249762529
v 0.0072055000 -0.0121195853 0.0250627013
v 0.0072055000 -0.0121462120 0.0251471504
v 0.0072055000 -0.0121800976 0.0252289575
v 0.0072055000 -0.0122209842 0.0253075000
v 0.0072055000 -0.0122685607 0.0253821801
v 0.0072055000 -0.0123224649 0.0254524294
v 0.0072055000 -0.0123822866 0.0255177134
v 0.0072055000 -0.0124475706 0.0255775351
v 0.0072055000 -0.0125178199 0.0256314393
v 0.0072055000 -0.0125925000 0.0256790158
v 0.0072055000 -0.0126710425 0.0257199024
v 0.0072055000 -0.0127528496 0.0257537880
v 0.0072055000 -0.0128372987 0.0257804147
v 0.0072055000 -0.0129237471 0.0257995799
v 0.0072055000 -0.0130115369 0.0258111376
v 0.0072055000 -0.0131000000 0.0258150000
v 0.0072055000 -0.0131884631 0.0258111376
v 0.0072055000 -0.0132762529 0.0257995799
v 0.0072055000 -0.0133627013 0.0257804147
v 0.0072055000 -0.0134471504 0.0257537880
v 0.0072055000 -0.0135289575 0.0257199024
v 0.0072055000 -0.0136075000 0.0256790158
v 0.0072055000 -0.0136821801 0.0256314393
v 0.0072055000 -0.0137524294 0.0255775351
v 0.0072055000 -0.0138177134 0.0255177134
v 0.0072055000 -0.0138775351 0.0254524294
v 0.0072055000 -0.0139314393 0.0253821801
v 0.0072055000 -0.0139790158 0.0253075000
v 0.0072055000 -0.0140199024 0.0252289575
v 0.0072055000 -0.0140537880 0.0251471504
v 0.0072055000 -0.0140804147 0.0250627013
v 0.0072055000 -0.0140995799 0.0249762529
v 0.0072055000 -0.0141111376 0.0248884631
v 0.0072055000 -0.0141150000 0.0248000000
v 0.0072055000 -0.0141111376 0.0247115369
v 0.0072055000 -0.0140995799 0.0246237471
v 0.0072055000 -0.0140804147 0.0245372987
v 0.0072055000 -0.0140537880 0.0244528496
v 0.0072055000 -0.0140199024 0.0243710425
v 0.0072055000 -0.0139790158 0.0242925000
v 0.0072055000 -0.0139314393 0.0242178199
v 0.0072055000 -0.0138775351 0.0241475706
v 0.0072055000 -0.0138177134 0.0240822866
v 0.0072055000 -0.0137524294 0.0240224649
v 0.0072055000 -0.0136821801 0.0239685607
v 0.0072055000 -0.0136075000 0.0239209842
v 0.0072055000 -0.0135289575 0.0238800976
v 0.0072055000 -0.0134471504 0.0238462120
v 0.0072055000 -0.0133627013 0.0238195853
v 0.0072055000 -0.0132762529 0.0238004201
v 0.0072055000 -0.0131884631 0.0237888624
v 0.0072055000 -0.0131000000 0.0237850000
v 0.0072055000 -0.0130115369 0.0237888624
v 0.0072055000 -0.0129237471 0.0238004201
v 0.0072055000 -0.0128372987 0.0238195853
v 0.0072055000 -0.0127528496 0.0238462120
v 0.0072055000 -0.0126710425 0.0238800976
v 0.0072055000 -0.0125925000 0.0239209842
v 0.0072055000 -0.0125178199 0.0239685607
v 0.0072055000 -0.0124475706 0.0240224649
v 0.0072055000 -0.0123822866 0.0240822866
v 0.0072055000 -0.0123224649 0.0241475706
v 0.0072055000 -0.0122685607 0.0242178199
v 0.0072055000 -0.0122209842 0.0242925000
v 0.0072055000 -0.0121800976 0.0243710425
v 0.0072055000 -0.0121462120 0.0244528496
v 0.0072055000 -0.0121195853 0.0245372987
v 0.0072055000 -0.0121004201 0.0246237471
v 0.0072055000 -0.0120888624 0.0247115369
v 0.0072055000 -0.0131000000 0.0248000000
vn -1.00000000 0.00000000 0.00000000
vn -1.00000000 0.00000000 0.00000000
vn -1.00000000 0.00000000 0.00000000
vn -1.00000000 0.00000000 0.00000000
vn -1.00000000 0.00000000 0.00000000
vn -1.00000000 0.00000000 0.00000000
vn -1.00000000 0.00000000 0.00000000
vn -1.00000000 0.00000000 0.00000000
vn -1.00000000 0.00000000 0.00000000
vn -1.00000000 0.00000000 0.00000000
vn -1.00000000 0.00000000 0.00000000
vn -1.00000000 0.00000000 0.00000000
vn -1.00000000 0.00000000 0.00000000
vn -1.00000000 0.00000000 0.00000000
vn -1.00000000 0.00000000 0.00000000
vn -1.00000000 0.00000000 0.00000000
vn -1.00000000 0.00000000 0.00000000
vn -1.00000000 0.00000000 0.00000000
vn -1.00000000 0.00000000 0.00000000
vn -1.00000000 0.00000000 0.00000000
vn -1.00000000 0.00000000 0.00000000
vn -1.00000000 0.00000000 0.00000000
vn -1.00000000 0.00000000 0.00000000
vn -1.00000000 0.00000000 0.00000000
vn -1.00000000 0.00000000 0.00000000
vn -1.00000000 0.00000000 0.00000000
vn -1.00000000 0.00000000 0.00000000
vn -1.00000000 0.00000000 0.00000000
vn -1.00000000 0.00000000 0.00000000
vn -1.00000000 0.00000000 0.00000000
vn -1.00000000 0.00000000 0.00000000
vn -1.00000000 0.00000000 0.00000000
vn -1.00000000 0.00000000 0.00000000
vn -1.00000000 0.00000000 0.00000000
vn -1.00000000 0.00000000 0.00000000
vn -1.00000000 0.00000000 0.00000000
vn -1.00000000 0.00000000 0.00000000
vn -1.00000000 0.00000000 0.00000000
vn -1.00000000 0.00000000 0.00000000
vn -1.00000000 0.00000000 0.00000000
vn -1.00000000 0.00000000 0.00000000
vn -1.00000000 0.00000000 0.00000000
vn -1.00000000 0.00000000 0.00000000
vn -1.00000000 0.00000000 0.00000000
vn -1.00000000 0.00000000 0.00000000
vn -1.00000000 0.00000000 0.00000000
vn -1.00000000 0.00000000 0.00000000
vn -1.00000000 0.00000000 0.00000000
vn -1.00000000 0.00000000 0.00000000
vn -1.00000000 0.00000000 0.00000000
vn -1.00000000 0.00000000 0.00000000
vn -1.00000000 0.00000000 0.00000000
vn -1.00000000 0.00000000 0.00000000
vn -1.00000000 0.00000000 0.00000000
vn -1.00000000 0.00000000 0.00000000
vn -1.00000000 0.00000000 0.00000000
vn -1.00000000 0.00000000 0.00000000
vn -1.00000000 0.00000000 0.00000000
vn -1.00000000 0.00000000 0.00000000
vn -1.00000000 0.00000000 0.00000000
vn -1.00000000 0.00000000 0.00000000
vn -1.00000000 0.00000000 0.00000000
vn -1.00000000 0.00000000 0.00000000
vn -1.00000000 0.00000000 0.00000000
vn -1.00000000 0.00000000 0.00000000
vn -1.00000000 0.00000000 0.00000000
vn -1.00000000 0.00000000 0.00000000
vn -1.00000000 0.00000000 0.00000000
vn -1.00000000 0.00000000 0.00000000
vn -1.00000000 0.00000000 0.00000000
vn -1.00000000 0.00000000 0.00000000
vn -1.00000000 0.00000000 0.00000000
vn -1.00000000 0.00000000 0.00000000
vn 0.00000000 1.00000000 0.00000000
vn 0.00000000 0.99619470 0.08715574
vn 0.00000000 0.98480775 0.17364818
vn 0.00000000 0.96592583 0.25881905
vn 0.00000000 0.93969262 0.34202014
vn 0.00000000 0.90630779 0.42261826
vn 0.00000000 0.86602540 0.50000000
vn 0.00000000 0.81915204 0.57357644
vn 0.00000000 0.76604444 0.64278761
vn 0.00000000 0.70710678 0.70710678
vn 0.00000000 0.64278761 0.76604444
vn 0.00000000 0.57357644 0.81915204
vn 0.00000000 0.50000000 0.86602540
vn 0.00000000 0.42261826 0.90630779
vn 0.00000000 0.34202014 0.93969262
vn 0.00000000 0.25881905 0.96592583
vn 0.00000000 0.17364818 0.98480775
vn 0.00000000 0.08715574 0.99619470
vn 0.00000000 -0.00000000 1.00000000
vn 0.00000000 -0.08715574 0.99619470
vn 0.00000000 -0.17364818 0.98480775
vn 0.00000000 -0.25881905 0.96592583
vn 0.00000000 -0.34202014 0.93969262
vn 0.00000000 -0.42261826 0.90630779
vn 0.00000000 -0.50000000 0.86602540
vn 0.00000000 -0.57357644 0.81915204
vn 0.00000000 -0.64278761 0.76604444
vn 0.00000000 -0.70710678 0.70710678
vn 0.00000000 -0.76604444 0.64278761
vn 0.00000000 -0.81915204 0.57357644
vn 0.00000000 -0.86602540 0.50000000
vn 0.00000000 -0.90630779 0.42261826
vn 0.00000000 -0.93969262 0.34202014
vn 0.00000000 -0.96592583 0.25881905
vn 0.00000000 -0.98480775 0.17364818
vn 0.00000000 -0.99619470 0.08715574
vn 0.00000000 -1.00000000 -0.00000000
vn 0.00000000 -0.99619470 -0.08715574
vn 0.00000000 -0.98480775 -0.17364818
vn 0.00000000 -0.96592583 -0.25881905
vn 0.00000000 -0.93969262 -0.34202014
vn 0.00000000 -0.90630779 -0.42261826
vn 0.00000000 -0.86602540 -0.50000000
vn 0.00000000 -0.81915204 -0.57357644
vn 0.00000000 -0.76604444 -0.64278761
vn 0.00000000 -0.70710678 -0.70710678
vn 0.00000000 -0.64278761 -0.76604444
vn 0.00000000 -0.57357644 -0.81915204
vn 0.00000000 -0.50000000 -0.86602540
vn 0.00000000 -0.42261826 -0.90630779
vn 0.00000000 -0.34202014 -0.93969262
vn 0.00000000 -0.25881905 -0.96592583
vn 0.00000000 -0.17364818 -0.98480775
vn 0.00000000 -0.08715574 -0.99619470
vn 0.00000000 -0.00000000 -1.00000000
vn 0.00000000 0.08715574 -0.99619470
vn 0.00000000 0.17364818 -0.98480775
vn 0.00000000 0.25881905 -0.96592583
vn 0.00000000 0.34202014 -0.93969262
vn 0.00000000 0.42261826 -0.90630779
vn 0.00000000 0.50000000 -0.86602540
vn 0.00000000 0.57357644 -0.81915204
vn 0.00000000 0.64278761 -0.76604444
vn 0.00000000 0.70710678 -0.70710678
vn 0.00000000 0.76604444 -0.64278761
vn 0.00000000 0.81915204 -0.57357644
vn 0.00000000 0.86602540 -0.50000000
vn 0.00000000 0.90630779 -0.42261826
vn 0.00000000 0.93969262 -0.34202014
vn 0.00000000 0.96592583 -0.25881905
vn 0.00000000 0.98480775 -0.17364818
vn 0.00000000 0.99619470 -0.08715574
vn 0.00000000 1.00000000 0.00000000
vn 0.00000000 0.99619470 0.08715574
vn 0.00000000 0.98480775 0.17364818
vn 0.00000000 0.96592583 0.25881905
vn 0.00000000 0.93969262 0.34202014
vn 0.00000000 0.90630779 0.42261826
vn 0.00000000 0.86602540 0.50000000
vn 0.00000000 0.81915204 0.57357644
vn 0.00000000 0.76604444 0.64278761
vn 0.00000000 0.70710678 0.70710678
vn 0.00000000 0.64278761 0.76604444
vn 0.00000000 0.57357644 0.81915204
vn 0.00000000 0.50000000 0.86602540
vn 0.00000000 0.42261826 0.90630779
vn 0.00000000 0.34202014 0.93969262
vn 0.00000000 0.25881905 0.96592583
vn 0.00000000 0.17364818 0.98480775
vn 0.00000000 0.08715574 0.99619470
vn 0.00000000 -0.00000000 1.00000000
vn 0.00000000 -0.08715574 0.99619470
vn 0.00000000 -0.17364818 0.98480775
vn 0.00000000 -0.25881905 0.96592583
vn 0.00000000 -0.34202014 0.93969262
vn 0.00000000 -0.42261826 0.90630779
vn 0.00000000 -0.50000000 0.86602540
vn 0.00000000 -0.57357644 0.81915204
vn 0.00000000 -0.64278761 0.76604444
vn 0.00000000 -0.70710678 0.70710678
vn 0.00000000 -0.76604444 0.64278761
vn 0.00000000 -0.81915204 0.57357644
vn 0.00000000 -0.86602540 0.50000000
vn 0.00000000 -0.90630779 0.42261826
vn 0.00000000 -0.93969262 0.34202014
vn 0.00000000 -0.96592583 0.25881905
vn 0.00000000 -0.98480775 0.17364818
vn 0.00000000 -0.99619470 0.08715574
vn 0.00000000 -1.00000000 -0.00000000
vn 0.00000000 -0.99619470 -0.08715574
vn 0.00000000 -0.98480775 -0.17364818
vn 0.00000000 -0.96592583 -0.25881905
vn 0.00000000 -0.93969262 -0.34202014
vn 0.00000000 -0.90630779 -0.42261826
vn 0.00000000 -0.86602540 -0.50000000
vn 0.00000000 -0.81915204 -0.57357644
vn 0.00000000 -0.76604444 -0.64278761
vn 0.00000000 -0.70710678 -0.70710678
vn 0.00000000 -0.64278761 -0.76604444
vn 0.00000000 -0.57357644 -0.81915204
vn 0.00000000 -0.50000000 -0.86602540
vn 0.00000000 -0.42261826 -0.90630779
vn 0.00000000 -0.34202014 -0.93969262
vn 0.00000000 -0.25881905 -0.96592583
vn 0.00000000 -0.17364818 -0.98480775
vn 0.00000000 -0.08715574 -0.99619470
vn 0.00000000 -0.00000000 -1.00000000
vn 0.00000000 0.08715574 -0.99619470
vn 0.00000000 0.17364818 -0.98480775
vn 0.00000000 0.25881905 -0.96592583
vn 0.00000000 0.34202014 -0.93969262
vn 0.00000000 0.42261826 -0.90630779
vn 0.00000000 0.50000000 -0.86602540
vn 0.00000000 0.57357644 -0.81915204
vn 0.00000000 0.64278761 -0.76604444
vn 0.00000000 0.70710678 -0.70710678
vn 0.00000000 0.76604444 -0.64278761
vn 0.00000000 0.81915204 -0.57357644
vn 0.00000000 0.86602540 -0.50000000
vn 0.00000000 0.90630779 -0.42261826
vn 0.00000000 0.93969262 -0.34202014
vn 0.00000000 0.96592583 -0.25881905
vn 0.00000000 0.98480775 -0.17364818
vn 0.00000000 0.99619470 -0.08715574
vn 1.00000000 0.00000000 0.00000000
vn 1.00000000 0.00000000 0.00000000
vn 1.00000000 0.00000000 0.00000000
vn 1.00000000 0.00000000 0.00000000
vn 1.00000000 0.00000000 0.00000000
vn 1.00000000 0.00000000 0.00000000
vn 1.00000000 0.00000000 0.00000000
vn 1.00000000 0.00000000 0.00000000
vn 1.00000000 0.00000000 0.00000000
vn 1.00000000 0.00000000 0.00000000
vn 1.00000000 0.00000000 0.00000000
vn 1.00000000 0.00000000 0.00000000
vn 1.00000000 0.00000000 0.00000000
vn 1.00000000 0.00000000 0.00000000
vn 1.00000000 0.00000000 0.00000000
vn 1.00000000 0.00000000 0.00000000
vn 1.00000000 0.00000000 0.00000000
vn 1.00000000 0.00000000 0.00000000
vn 1.00000000 0.00000000 0.00000000
vn 1.00000000 0.00000000 0.00000000
vn 1.00000000 0.00000000 0.00000000
vn 1.00000000 0.00000000 0.00000000
vn 1.00000000 0.00000000 0.00000000
vn 1.00000000 0.00000000 0.00000000
vn 1.00000000 0.00000000 0.00000000
vn 1.00000000 0.00000000 0.00000000
vn 1.00000000 0.00000000 0.00000000
vn 1.00000000 0.00000000 0.00000000
vn 1.00000000 0.00000000 0.00000000
vn 1.00000000 0.00000000 0.00000000
vn 1.00000000 0.00000000 0.00000000
vn 1.00000000 0.00000000 0.00000000
vn 1.00000000 0.00000000 0.00000000
vn 1.00000000 0.00000000 0.00000000
vn 1.00000000 0.00000000 0.00000000
vn 1.00000000 0.00000000 0.00000000
vn 1.00000000 0.00000000 0.00000000
vn 1.00000000 0.00000000 0.00000000
vn 1.00000000 0.00000000 0.00000000
vn 1.00000000 0.00000000 0.00000000
vn 1.00000000 0.00000000 0.00000000
vn 1.00000000 0.00000000 0.00000000
vn 1.00000000 0.00000000 0.00000000
vn 1.00000000 0.00000000 0.00000000
vn 1.00000000 0.00000000 0.00000000
vn 1.00000000 0.00000000 0.00000000
vn 1.00000000 0.00000000 0.00000000
vn 1.00000000 0.00000000 0.00000000
vn 1.00000000 0.00000000 0.00000000
vn 1.00000000 0.00000000 0.00000000
vn 1.00000000 0.00000000 0.00000000
vn 1.00000000 0.00000000 0.00000000
vn 1.00000000 0.00000000 0.00000000
vn 1.00000000 0.00000000 0.00000000
vn 1.00000000 0.00000000 0.00000000
vn 1.00000000 0.00000000 0.00000000
vn 1.00000000 0.00000000 0.00000000
vn 1.00000000 0.00000000 0.00000000
vn 1.00000000 0.00000000 0.00000000
vn 1.00000000 0.00000000 0.00000000
vn 1.00000000 0.00000000 0.00000000
vn 1.00000000 0.00000000 0.00000000
vn 1.00000000 0.00000000 0.00000000
vn 1.00000000 0.00000000 0.00000000
vn 1.00000000 0.00000000 0.00000000
vn 1.00000000 0.00000000 0.00000000
vn 1.00000000 0.00000000 0.00000000
vn 1.00000000 0.00000000 0.00000000
vn 1.00000000 0.00000000 0.00000000
vn 1.00000000 0.00000000 0.00000000
vn 1.00000000 0.00000000 0.00000000
vn 1.00000000 0.00000000 0.00000000
vn 1.00000000 0.00000000 0.00000000
f 3//3 2//2 1//1
f 54//54 53//53 1//1
f 53//53 52//52 1//1
f 52//52 51//51 1//1
f 51//51 50//50 1//1
f 50//50 49//49 1//1
f 49//49 48//48 1//1
f 55//55 54//54 1//1
f 48//48 47//47 1//1
f 46//46 45//45 1//1
f 45//45 44//44 1//1
f 44//44 43//43 1//1
f 43//43 42//42 1//1
f 42//42 41//41 1//1
f 41//41 40//40 1//1
f 47//47 46//46 1//1
f 56//56 55//55 1//1
f 57//57 56//56 1//1
f 58//58 57//57 1//1
f 73//73 72//72 1//1
f 72//72 71//71 1//1
f 71//71 70//70 1//1
f 70//70 69//69 1//1
f 69//69 68//68 1//1
f 68//68 67//67 1//1
f 67//67 66//66 1//1
f 66//66 65//65 1//1
f 65//65 64//64 1//1
f 64//64 63//63 1//1
f 63//63 62//62 1//1
f 62//62 61//61 1//1
f 61//61 60//60 1//1
f 60//60 59//59 1//1
f 59//59 58//58 1//1
f 40//40 39//39 1//1
f 39//39 38//38 1//1
f 2//2 73//73 1//1
f 37//37 36//36 1//1
f 17//17 16//16 1//1
f 16//16 15//15 1//1
f 15//15 14//14 1//1
f 14//14 13//13 1//1
f 13//13 12//12 1//1
f 11//11 10//10 1//1
f 18//18 17//17 1//1
f 10//10 9//9 1//1
f 8//8 7//7 1//1
f 7//7 6//6 1//1
f 6//6 5//5 1//1
f 5//5 4//4 1//1
f 4//4 3//3 1//1
f 38//38 37//37 1//1
f 9//9 8//8 1//1
f 19//19 18//18 1//1
f 12//12 11//11 1//1
f 21//21 20//20 1//1
f 20//20 19//19 1//1
f 35//35 34//34 1//1
f 34//34 33//33 1//1
f 33//33 32//32 1//1
f 32//32 31//31 1//1
f 30//30 29//29 1//1
f 29//29 28//28 1//1
f 31//31 30//30 1//1
f 36//36 35//35 1//1
f 27//27 26//26 1//1
f 26//26 25//25 1//1
f 25//25 24//24 1//1
f 24//24 23//23 1//1
f 23//23 22//22 1//1
f 22//22 21//21 1//1
f 28//28 27//27 1//1
f 123//123 195//195 122//122
f 121//121 193//193 120//120
f 194//194 193//193 121//121
f 122//122 194//194 121//121
f 195//195 194//194 122//122
f 196//196 195//195 123//123
f 200//200 199//199 127//127
f 197//197 196//196 124//124
f 125//125 197//197 124//124
f 198//198 197//197 125//125
f 126//126 198//198 125//125
f 199//199 198//198 126//126
f 127//127 199//199 126//126
f 193//193 192//192 120//120
f 124//124 196//196 123//123
f 120//120 192//192 119//119
f 184//184 183//183 111//111
f 119//119 191//191 118//118
f 128//128 200//200 127//127
f 112//112 184//184 111//111
f 185//185 184//184 112//112
f 113//113 185//185 112//112
f 186//186 185//185 113//113
f 114//114 186//186 113//113
f 187//187 186//186 114//114
f 115//115 187//187 114//114
f 188//188 187//187 115//115
f 116//116 188//188 115//115
f 189//189 188//188 116//116
f 117//117 189//189 116//116
f 190//190 189//189 117//117
f 118//118 190//190 117//117
f 191//191 190//190 118//118
f 192//192 191//191 119//119
f 201//201 200//200 128//128
f 137//137 209//209 136//136
f 202//202 201//201 129//129
f 140//140 212//212 139//139
f 213//213 212//212 140//140
f 141//141 213//213 140//140
f 214//214 213//213 141//141
f 142//142 214//214 141//141
f 215//215 214//214 142//142
f 212//212 211//211 139//139
f 143//143 215//215 142//142
f 144//144 216//216 143//143
f 217//217 216//216 144//144
f 145//145 217//217 144//144
f 146//146 217//217 145//145
f 74//74 146//146 145//145
f 111//111 183//183 110//110
f 216//216 215//215 143//143
f 139//139 211//211 138//138
f 211//211 210//210 138//138
f 138//138 210//210 137//137
f 130//130 202//202 129//129
f 203//203 202//202 130//130
f 131//131 203//203 130//130
f 204//204 203//203 131//131
f 132//132 204//204 131//131
f 205//205 204//204 132//132
f 133//133 205//205 132//132
f 206//206 205//205 133//133
f 134//134 206//206 133//133
f 207//207 206//206 134//134
f 135//135 207//207 134//134
f 208//208 207//207 135//135
f 136//136 208//208 135//135
f 209//209 208//208 136//136
f 210//210 209//209 137//137
f 129//129 201//201 128//128
f 183//183 182//182 110//110
f 110//110 182//182 109//109
f 182//182 181//181 109//109
f 84//84 156//156 83//83
f 157//157 156//156 84//84
f 85//85 157//157 84//84
f 158//158 157//157 85//85
f 86//86 158//158 85//85
f 159//159 158//158 86//86
f 83//83 155//155 82//82
f 87//87 159//159 86//86
f 88//88 160//160 87//87
f 161//161 160//160 88//88
f 89//89 161//161 88//88
f 162//162 161//161 89//89
f 90//90 162//162 89//89
f 163//163 162//162 90//90
f 160//160 159//159 87//87
f 91//91 163//163 90//90
f 155//155 154//154 82//82
f 154//154 153//153 81//81
f 147//147 146//146 74//74
f 75//75 147//147 74//74
f 148//148 147//147 75//75
f 76//76 148//148 75//75
f 149//149 148//148 76//76
f 77//77 149//149 76//76
f 82//82 154//154 81//81
f 150//150 149//149 77//77
f 151//151 150//150 78//78
f 79//79 151//151 78//78
f 152//152 151//151 79//79
f 80//80 152//152 79//79
f 153//153 152//152 80//80
f 81//81 153//153 80//80
f 78//78 150//150 77//77
f 164//164 163//163 91//91
f 156//156 155//155 83//83
f 165//165 164//164 92//92
f 102//102 174//174 101//101
f 175//175 174//174 102//102
f 103//103 175//175 102//102
f 176//176 175//175 103//103
f 104//104 176//176 103//103
f 177//177 176//176 104//104
f 105//105 177//177 104//104
f 178//178 177//177 105//105
f 106//106 178//178 105//105
f 179//179 178//178 106//106
f 107//107 179//179 106//106
f 180//180 179//179 107//107
f 108//108 180//180 107//107
f 181//181 180//180 108//108
f 92//92 164//164 91//91
f 174//174 173//173 101//101
f 101//101 173//173 100//100
f 109//109 181//181 108//108
f 95//95 167//167 94//94
f 93//93 165//165 92//92
f 166//166 165//165 93//93
f 94//94 166//166 93//93
f 167//167 166//166 94//94
f 173//173 172//172 100//100
f 168//168 167//167 95//95
f 96//96 168//168 95//95
f 169//169 168//168 96//96
f 97//97 169//169 96//96
f 170//170 169//169 97//97
f 98//98 170//170 97//97
f 171//171 170//170 98//98
f 99//99 171//171 98//98
f 172//172 171//171 99//99
f 100//100 172//172 99//99
f 265//265 290//290 264//264
f 266//266 290//290 265//265
f 255//255 290//290 254//254
f 268//268 290//290 267//267
f 269//269 290//290 268//268
f 267//267 290//290 266//266
f 264//264 290//290 263//263
f 256//256 290//290 255//255
f 262//262 290//290 261//261
f 261//261 290//290 260//260
f 260//260 290//290 259//259
f 259//259 290//290 258//258
f 258//258 290//290 257//257
f 257//257 290//290 256//256
f 270//270 290//290 269//269
f 263//263 290//290 262//262
f 271//271 290//290 270//270
f 279//279 290//290 278//278
f 273//273 290//290 272//272
f 288//288 290//290 287//287
f 287//287 290//290 286//286
f 286//286 290//290 285//285
f 285//285 290//290 284//284
f 284//284 290//290 283//283
f 283//283 290//290 282//282
f 272//272 290//290 271//271
f 282//282 290//290 281//281
f 280//280 290//290 279//279
f 278//278 290//290 277//277
f 277//277 290//290 276//276
f 276//276 290//290 275//275
f 275//275 290//290 274//274
f 274//274 290//290 273//273
f 281//281 290//290 280//280
f 254//254 290//290 253//253
f 219//219 290//290 218//218
f 252//252 290//290 251//251
f 232//232 290//290 231//231
f 231//231 290//290 230//230
f 230//230 290//290 229//229
f 229//229 290//290 228//228
f 228//228 290//290 227//227
f 227//227 290//290 226//226
f 233//233 290//290 232//232
f 226//226 290//290 225//225
f 224//224 290//290 223//223
f 223//223 290//290 222//222
f 222//222 290//290 221//221
f 221//221 290//290 220//220
f 220//220 290//290 219//219
f 289//289 290//290 288//288
f 225//225 290//290 224//224
f 234//234 290//290 233//233
f 235//235 290//290 234//234
f 236//236 290//290 235//235
f 251//251 290//290 250//250
f 250//250 290//290 249//249
f 249//249 290//290 248//248
f 248//248 290//290 247//247
f 247//247 290//290 246//246
f 246//246 290//290 245//245
f 245//245 290//290 244//244
f 244//244 290//290 243//243
f 243//243 290//290 242//242
f 242//242 290//290 241//241
f 241//241 290//290 240//240
f 240//240 290//290 239//239
f 239//239 290//290 238//238
f 238//238 290//290 237//237
f 237//237 290//290 236//236
f 253//253 290//290 252//252
f 218//218 290//290 289//289
