# Independent procedural camera geometry; meters; Z up
o lens_inner_optic
v 0.0103600000 0.0080000000 0.0320000000
v 0.0103600000 0.0151190000 0.0320000000
v 0.0103600000 0.0151104249 0.0323493128
v 0.0103600000 0.0150847201 0.0326977840
v 0.0103600000 0.0150419476 0.0330445742
v 0.0103600000 0.0149822104 0.0333888480
v 0.0103600000 0.0149056525 0.0337297759
v 0.0103600000 0.0148124583 0.0340665366
v 0.0103600000 0.0147028522 0.0343983189
v 0.0103600000 0.0145770984 0.0347243234
v 0.0103600000 0.0144354998 0.0350437647
v 0.0103600000 0.0142783975 0.0353558734
v 0.0103600000 0.0141061700 0.0356598974
v 0.0103600000 0.0139192322 0.0359551045
v 0.0103600000 0.0137180344 0.0362407833
v 0.0103600000 0.0135030614 0.0365162458
v 0.0103600000 0.0132748311 0.0367808282
v 0.0103600000 0.0130338932 0.0370338932
v 0.0103600000 0.0127808282 0.0372748311
v 0.0103600000 0.0125162458 0.0375030614
v 0.0103600000 0.0122407833 0.0377180344
v 0.0103600000 0.0119551045 0.0379192322
v 0.0103600000 0.0116598974 0.0381061700
v 0.0103600000 0.0113558734 0.0382783975
v 0.0103600000 0.0110437647 0.0384354998
v 0.0103600000 0.0107243234 0.0385770984
v 0.0103600000 0.0103983189 0.0387028522
v 0.0103600000 0.0100665366 0.0388124583
v 0.0103600000 0.0097297759 0.0389056525
v 0.0103600000 0.0093888480 0.0389822104
v 0.0103600000 0.0090445742 0.0390419476
v 0.0103600000 0.0086977840 0.0390847201
v 0.0103600000 0.0083493128 0.0391104249
v 0.0103600000 0.0080000000 0.0391190000
v 0.0103600000 0.0076506872 0.0391104249
v 0.0103600000 0.0073022160 0.0390847201
v 0.0103600000 0.0069554258 0.0390419476
v 0.0103600000 0.0066111520 0.0389822104
v 0.0103600000 0.0062702241 0.0389056525
v 0.0103600000 0.0059334634 0.0388124583
v 0.0103600000 0.0056016811 0.0387028522
v 0.0103600000 0.0052756766 0.0385770984
v 0.0103600000 0.0049562353 0.0384354998
v 0.0103600000 0.0046441266 0.0382783975
v 0.0103600000 0.0043401026 0.0381061700
v 0.0103600000 0.0040448955 0.0379192322
v 0.0103600000 0.0037592167 0.0377180344
v 0.0103600000 0.0034837542 0.0375030614
v 0.0103600000 0.0032191718 0.0372748311
v 0.0103600000 0.0029661068 0.0370338932
v 0.0103600000 0.0027251689 0.0367808282
v 0.0103600000 0.0024969386 0.0365162458
v 0.0103600000 0.0022819656 0.0362407833
v 0.0103600000 0.0020807678 0.0359551045
v 0.0103600000 0.0018938300 0.0356598974
v 0.0103600000 0.0017216025 0.0353558734
v 0.0103600000 0.0015645002 0.0350437647
v 0.0103600000 0.0014229016 0.0347243234
v 0.0103600000 0.0012971478 0.0343983189
v 0.0103600000 0.0011875417 0.0340665366
v 0.0103600000 0.0010943475 0.0337297759
v 0.0103600000 0.0010177896 0.0333888480
v 0.0103600000 0.0009580524 0.0330445742
v 0.0103600000 0.0009152799 0.0326977840
v 0.0103600000 0.0008895751 0.0323493128
v 0.0103600000 0.0008810000 0.0320000000
v 0.0103600000 0.0008895751 0.0316506872
v 0.0103600000 0.0009152799 0.0313022160
v 0.0103600000 0.0009580524 0.0309554258
v 0.0103600000 0.0010177896 0.0306111520
v 0.0103600000 0.0010943475 0.0302702241
v 0.0103600000 0.0011875417 0.0299334634
v 0.0103600000 0.0012971478 0.0296016811
v 0.0103600000 0.0014229016 0.0292756766
v 0.0103600000 0.0015645002 0.0289562353
v 0.0103600000 0.0017216025 0.0286441266
v 0.0103600000 0.0018938300 0.0283401026
v 0.0103600000 0.0020807678 0.0280448955
v 0.0103600000 0.0022819656 0.0277592167
v 0.0103600000 0.0024969386 0.0274837542
v 0.0103600000 0.0027251689 0.0272191718
v 0.0103600000 0.0029661068 0.0269661068
v 0.0103600000 0.0032191718 0.0267251689
v 0.0103600000 0.0034837542 0.0264969386
v 0.0103600000 0.0037592167 0.0262819656
v 0.0103600000 0.0040448955 0.0260807678
v 0.0103600000 0.0043401026 0.0258938300
v 0.0103600000 0.0046441266 0.0257216025
v 0.0103600000 0.0049562353 0.0255645002
v 0.0103600000 0.0052756766 0.0254229016
v 0.0103600000 0.0056016811 0.0252971478
v 0.0103600000 0.0059334634 0.0251875417
v 0.0103600000 0.0062702241 0.0250943475
v 0.0103600000 0.0066111520 0.0250177896
v 0.0103600000 0.0069554258 0.0249580524
v 0.0103600000 0.0073022160 0.0249152799
v 0.0103600000 0.0076506872 0.0248895751
v 0.0103600000 0.0080000000 0.0248810000
v 0.0103600000 0.0083493128 0.0248895751
v 0.0103600000 0.0086977840 0.0249152799
v 0.0103600000 0.0090445742 0.0249580524
v 0.0103600000 0.0093888480 0.0250177896
v 0.0103600000 0.0097297759 0.0250943475
v 0.0103600000 0.0100665366 0.0251875417
v 0.0103600000 0.0103983189 0.0252971478
v 0.0103600000 0.0107243234 0.0254229016
v 0.0103600000 0.0110437647 0.0255645002
v 0.0103600000 0.0113558734 0.0257216025
v 0.0103600000 0.0116598974 0.0258938300
v 0.0103600000 0.0119551045 0.0260807678
v 0.0103600000 0.0122407833 0.0262819656
v 0.0103600000 0.0125162458 0.0264969386
v 0.0103600000 0.0127808282 0.0267251689
v 0.0103600000 0.0130338932 0.0269661068
v 0.0103600000 0.0132748311 0.0272191718
v 0.0103600000 0.0135030614 0.0274837542
v 0.0103600000 0.0137180344 0.0277592167
v 0.0103600000 0.0139192322 0.0280448955
v 0.0103600000 0.0141061700 0.0283401026
v 0.0103600000 0.0142783975 0.0286441266
v 0.0103600000 0.0144354998 0.0289562353
v 0.0103600000 0.0145770984 0.0292756766
v 0.0103600000 0.0147028522 0.0296016811
v 0.0103600000 0.0148124583 0.0299334634
v 0.0103600000 0.0149056525 0.0302702241
v 0.0103600000 0.0149822104 0.0306111520
v 0.0103600000 0.0150419476 0.0309554258
v 0.0103600000 0.0150847201 0.0313022160
v 0.0103600000 0.0151104249 0.0316506872
v 0.0103600000 0.0151190000 0.0320000000
v 0.0103600000 0.0151104249 0.0323493128
v 0.0103600000 0.0150847201 0.0326977840
v 0.0103600000 0.0150419476 0.0330445742
v 0.0103600000 0.0149822104 0.0333888480
v 0.0103600000 0.0149056525 0.0337297759
v 0.0103600000 0.0148124583 0.0340665366
v 0.0103600000 0.0147028522 0.0343983189
v 0.0103600000 0.0145770984 0.0347243234
v 0.0103600000 0.0144354998 0.0350437647
v 0.0103600000 0.0142783975 0.0353558734
v 0.0103600000 0.0141061700 0.0356598974
v 0.0103600000 0.0139192322 0.0359551045
v 0.0103600000 0.0137180344 0.0362407833
v 0.0103600000 0.0135030614 0.0365162458
v 0.0103600000 0.0132748311 0.0367808282
v 0.0103600000 0.0130338932 0.0370338932
v 0.0103600000 0.0127808282 0.0372748311
v 0.0103600000 0.0125162458 0.0375030614
v 0.0103600000 0.0122407833 0.0377180344
v 0.0103600000 0.0119551045 0.0379192322
v 0.0103600000 0.0116598974 0.0381061700
v 0.0103600000 0.0113558734 0.0382783975
v 0.0103600000 0.0110437647 0.0384354998
v 0.0103600000 0.0107243234 0.0385770984
v 0.0103600000 0.0103983189 0.0387028522
v 0.0103600000 0.0100665366 0.0388124583
v 0.0103600000 0.0097297759 0.0389056525
v 0.0103600000 0.0093888480 0.0389822104
v 0.0103600000 0.0090445742 0.0390419476
v 0.0103600000 0.0086977840 0.0390847201
v 0.0103600000 0.0083493128 0.0391104249
v 0.0103600000 0.0080000000 0.0391190000
v 0.0103600000 0.0076506872 0.0391104249
v 0.0103600000 0.0073022160 0.0390847201
v 0.0103600000 0.0069554258 0.0390419476
v 0.0103600000 0.0066111520 0.0389822104
v 0.0103600000 0.0062702241 0.0389056525
v 0.0103600000 0.0059334634 0.0388124583
v 0.0103600000 0.0056016811 0.0387028522
v 0.0103600000 0.0052756766 0.0385770984
v 0.0103600000 0.0049562353 0.0384354998
v 0.0103600000 0.0046441266 0.0382783975
v 0.0103600000 0.0043401026 0.0381061700
v 0.0103600000 0.0040448955 0.0379192322
v 0.0103600000 0.0037592167 0.0377180344
v 0.0103600000 0.0034837542 0.0375030614
v 0.0103600000 0.0032191718 0.0372748311
v 0.0103600000 0.0029661068 0.0370338932
v 0.0103600000 0.0027251689 0.0367808282
v 0.0103600000 0.0024969386 0.0365162458
v 0.0103600000 0.0022819656 0.0362407833
v 0.0103600000 0.0020807678 0.0359551045
v 0.0103600000 0.0018938300 0.0356598974
v 0.0103600000 0.0017216025 0.0353558734
v 0.0103600000 0.0015645002 0.0350437647
v 0.0103600000 0.0014229016 0.0347243234
v 0.0103600000 0.0012971478 0.0343983189
v 0.0103600000 0.0011875417 0.0340665366
v 0.0103600000 0.0010943475 0.0337297759
v 0.0103600000 0.0010177896 0.0333888480
v 0.0103600000 0.0009580524 0.0330445742
v 0.0103600000 0.0009152799 0.0326977840
v 0.0103600000 0.0008895751 0.0323493128
v 0.0103600000 0.0008810000 0.0320000000
v 0.0103600000 0.0008895751 0.0316506872
v 0.0103600000 0.0009152799 0.0313022160
v 0.0103600000 0.0009580524 0.0309554258
v 0.0103600000 0.0010177896 0.0306111520
v 0.0103600000 0.0010943475 0.0302702241
v 0.0103600000 0.0011875417 0.0299334634
v 0.0103600000 0.0012971478 0.0296016811
v 0.0103600000 0.0014229016 0.0292756766
v 0.0103600000 0.0015645002 0.0289562353
v 0.0103600000 0.0017216025 0.0286441266
v 0.0103600000 0.0018938300 0.0283401026
v 0.0103600000 0.0020807678 0.0280448955
v 0.0103600000 0.0022819656 0.0277592167
v 0.0103600000 0.0024969386 0.0274837542
v 0.0103600000 0.0027251689 0.0272191718
v 0.0103600000 0.0029661068 0.0269661068
v 0.0103600000 0.0032191718 0.0267251689
v 0.0103600000 0.0034837542 0.0264969386
v 0.0103600000 0.0037592167 0.0262819656
v 0.0103600000 0.0040448955 0.0260807678
v 0.0103600000 0.0043401026 0.0258938300
v 0.0103600000 0.0046441266 0.0257216025
v 0.0103600000 0.0049562353 0.0255645002
v 0.0103600000 0.0052756766 0.0254229016
v 0.0103600000 0.0056016811 0.0252971478
v 0.0103600000 0.0059334634 0.0251875417
v 0.0103600000 0.0062702241 0.0250943475
v 0.0103600000 0.0066111520 0.0250177896
v 0.0103600000 0.0069554258 0.0249580524
v 0.0103600000 0.0073022160 0.0249152799
v 0.0103600000 0.0076506872 0.0248895751
v 0.0103600000 0.0080000000 0.0248810000
v 0.0103600000 0.0083493128 0.0248895751
v 0.0103600000 0.0086977840 0.0249152799
v 0.0103600000 0.0090445742 0.0249580524
v 0.0103600000 0.0093888480 0.0250177896
v 0.0103600000 0.0097297759 0.0250943475
v 0.0103600000 0.0100665366 0.0251875417
v 0.0103600000 0.0103983189 0.0252971478
v 0.0103600000 0.0107243234 0.0254229016
v 0.0103600000 0.0110437647 0.0255645002
v 0.0103600000 0.0113558734 0.0257216025
v 0.0103600000 0.0116598974 0.0258938300
v 0.0103600000 0.0119551045 0.0260807678
v 0.0103600000 0.0122407833 0.0262819656
v 0.0103600000 0.0125162458 0.0264969386
v 0.0103600000 0.0127808282 0.0267251689
v 0.0103600000 0.0130338932 0.0269661068
v 0.0103600000 0.0132748311 0.0272191718
v 0.0103600000 0.0135030614 0.0274837542
v 0.0103600000 0.0137180344 0.0277592167
v 0.0103600000 0.0139192322 0.0280448955
v 0.0103600000 0.0141061700 0.0283401026
v 0.0103600000 0.0142783975 0.0286441266
v 0.0103600000 0.0144354998 0.0289562353
v 0.0103600000 0.0145770984 0.0292756766
v 0.0103600000 0.0147028522 0.0296016811
v 0.0103600000 0.0148124583 0.0299334634
v 0.0103600000 0.0149056525 0.0302702241
v 0.0103600000 0.0149822104 0.0306111520
v 0.0103600000 0.0150419476 0.0309554258
v 0.0103600000 0.0150847201 0.0313022160
v 0.0103600000 0.0151104249 0.0316506872
v 0.0105700000 0.0151190000 0.0320000000
v 0.0105700000 0.0151104249 0.0323493128
v 0.0105700000 0.0150847201 0.0326977840
v 0.0105700000 0.0150419476 0.0330445742
v 0.0105700000 0.0149822104 0.0333888480
v 0.0105700000 0.0149056525 0.0337297759
v 0.0105700000 0.0148124583 0.0340665366
v 0.0105700000 0.0147028522 0.0343983189
v 0.0105700000 0.0145770984 0.0347243234
v 0.0105700000 0.0144354998 0.0350437647
v 0.0105700000 0.0142783975 0.0353558734
v 0.0105700000 0.0141061700 0.0356598974
v 0.0105700000 0.0139192322 0.0359551045
v 0.0105700000 0.0137180344 0.0362407833
v 0.0105700000 0.0135030614 0.0365162458
v 0.0105700000 0.0132748311 0.0367808282
v 0.0105700000 0.0130338932 0.0370338932
v 0.0105700000 0.0127808282 0.0372748311
v 0.0105700000 0.0125162458 0.0375030614
v 0.0105700000 0.0122407833 0.0377180344
v 0.0105700000 0.0119551045 0.0379192322
v 0.0105700000 0.0116598974 0.0381061700
v 0.0105700000 0.0113558734 0.0382783975
v 0.0105700000 0.0110437647 0.0384354998
v 0.0105700000 0.0107243234 0.0385770984
v 0.0105700000 0.0103983189 0.0387028522
v 0.0105700000 0.0100665366 0.0388124583
v 0.0105700000 0.0097297759 0.0389056525
v 0.0105700000 0.0093888480 0.0389822104
v 0.0105700000 0.0090445742 0.0390419476
v 0.0105700000 0.0086977840 0.0390847201
v 0.0105700000 0.0083493128 0.0391104249
v 0.0105700000 0.0080000000 0.0391190000
v 0.0105700000 0.0076506872 0.0391104249
v 0.0105700000 0.0073022160 0.0390847201
v 0.0105700000 0.0069554258 0.0390419476
v 0.0105700000 0.0066111520 0.0389822104
v 0.0105700000 0.0062702241 0.0389056525
v 0.0105700000 0.0059334634 0.0388124583
v 0.0105700000 0.0056016811 0.0387028522
v 0.0105700000 0.0052756766 0.0385770984
v 0.0105700000 0.0049562353 0.0384354998
v 0.0105700000 0.0046441266 0.0382783975
v 0.0105700000 0.0043401026 0.0381061700
v 0.0105700000 0.0040448955 0.0379192322
v 0.0105700000 0.0037592167 0.0377180344
v 0.0105700000 0.0034837542 0.0375030614
v 0.0105700000 0.0032191718 0.0372748311
v 0.0105700000 0.0029661068 0.0370338932
v 0.0105700000 0.0027251689 0.0367808282
v 0.0105700000 0.0024969386 0.0365162458
v 0.0105700000 0.0022819656 0.0362407833
v 0.0105700000 0.0020807678 0.0359551045
v 0.0105700000 0.0018938300 0.0356598974
v 0.0105700000 0.0017216025 0.0353558734
v 0.0105700000 0.0015645002 0.0350437647
v 0.0105700000 0.0014229016 0.0347243234
v 0.0105700000 0.0012971478 0.0343983189
v 0.0105700000 0.0011875417 0.0340665366
v 0.0105700000 0.0010943475 0.0337297759
v 0.0105700000 0.0010177896 0.0333888480
v 0.0105700000 0.0009580524 0.0330445742
v 0.0105700000 0.0009152799 0.0326977840
v 0.0105700000 0.0008895751 0.0323493128
v 0.0105700000 0.0008810000 0.0320000000
v 0.0105700000 0.0008895751 0.0316506872
v 0.0105700000 0.0009152799 0.0313022160
v 0.0105700000 0.0009580524 0.0309554258
v 0.0105700000 0.0010177896 0.0306111520
v 0.0105700000 0.0010943475 0.0302702241
v 0.0105700000 0.0011875417 0.0299334634
v 0.0105700000 0.0012971478 0.0296016811
v 0.0105700000 0.0014229016 0.0292756766
v 0.0105700000 0.0015645002 0.0289562353
v 0.0105700000 0.0017216025 0.0286441266
v 0.0105700000 0.0018938300 0.0283401026
v 0.0105700000 0.0020807678 0.0280448955
v 0.0105700000 0.0022819656 0.0277592167
v 0.0105700000 0.0024969386 0.0274837542
v 0.0105700000 0.0027251689 0.0272191718
v 0.0105700000 0.0029661068 0.0269661068
v 0.0105700000 0.0032191718 0.0267251689
v 0.0105700000 0.0034837542 0.0264969386
v 0.0105700000 0.0037592167 0.0262819656
v 0.0105700000 0.0040448955 0.0260807678
v 0.0105700000 0.0043401026 0.0258938300
v 0.0105700000 0.0046441266 0.0257216025
v 0.0105700000 0.0049562353 0.0255645002
v 0.0105700000 0.0052756766 0.0254229016
v 0.0105700000 0.0056016811 0.0252971478
v 0.0105700000 0.0059334634 0.0251875417
v 0.0105700000 0.0062702241 0.0250943475
v 0.0105700000 0.0066111520 0.0250177896
v 0.0105700000 0.0069554258 0.0249580524
v 0.0105700000 0.0073022160 0.0249152799
v 0.0105700000 0.0076506872 0.0248895751
v 0.0105700000 0.0080000000 0.0248810000
v 0.0105700000 0.0083493128 0.0248895751
v 0.0105700000 0.0086977840 0.0249152799
v 0.0105700000 0.0090445742 0.0249580524
v 0.0105700000 0.0093888480 0.0250177896
v 0.0105700000 0.0097297759 0.0250943475
v 0.0105700000 0.0100665366 0.0251875417
v 0.0105700000 0.0103983189 0.0252971478
v 0.0105700000 0.0107243234 0.0254229016
v 0.0105700000 0.0110437647 0.0255645002
v 0.0105700000 0.0113558734 0.0257216025
v 0.0105700000 0.0116598974 0.0258938300
v 0.0105700000 0.0119551045 0.0260807678
v 0.0105700000 0.0122407833 0.0262819656
v 0.0105700000 0.0125162458 0.0264969386
v 0.0105700000 0.0127808282 0.0267251689
v 0.0105700000 0.0130338932 0.0269661068
v 0.0105700000 0.0132748311 0.0272191718
v 0.0105700000 0.0135030614 0.0274837542
v 0.0105700000 0.0137180344 0.0277592167
v 0.0105700000 0.0139192322 0.0280448955
v 0.0105700000 0.0141061700 0.0283401026
v 0.0105700000 0.0142783975 0.0286441266
v 0.0105700000 0.0144354998 0.0289562353
v 0.0105700000 0.0145770984 0.0292756766
v 0.0105700000 0.0147028522 0.0296016811
v 0.0105700000 0.0148124583 0.0299334634
v 0.0105700000 0.0149056525 0.0302702241
v 0.0105700000 0.0149822104 0.0306111520
v 0.0105700000 0.0150419476 0.0309554258
v 0.0105700000 0.0150847201 0.0313022160
v 0.0105700000 0.0151104249 0.0316506872
v 0.0105700000 0.0151190000 0.0320000000
v 0.0105700000 0.0151104249 0.0323493128
v 0.0105700000 0.0150847201 0.0326977840
v 0.0105700000 0.0150419476 0.0330445742
v 0.0105700000 0.0149822104 0.0333888480
v 0.0105700000 0.0149056525 0.0337297759
v 0.0105700000 0.0148124583 0.0340665366
v 0.0105700000 0.0147028522 0.0343983189
v 0.0105700000 0.0145770984 0.0347243234
v 0.0105700000 0.0144354998 0.0350437647
v 0.0105700000 0.0142783975 0.0353558734
v 0.0105700000 0.0141061700 0.0356598974
v 0.0105700000 0.0139192322 0.0359551045
v 0.0105700000 0.0137180344 0.0362407833
v 0.0105700000 0.0135030614 0.0365162458
v 0.0105700000 0.0132748311 0.0367808282
v 0.0105700000 0.0130338932 0.0370338932
v 0.0105700000 0.0127808282 0.0372748311
v 0.0105700000 0.0125162458 0.0375030614
v 0.0105700000 0.0122407833 0.0377180344
v 0.0105700000 0.0119551045 0.0379192322
v 0.0105700000 0.0116598974 0.0381061700
v 0.0105700000 0.0113558734 0.0382783975
v 0.0105700000 0.0110437647 0.0384354998
v 0.0105700000 0.0107243234 0.0385770984
v 0.0105700000 0.0103983189 0.0387028522
v 0.0105700000 0.0100665366 0.0388124583
v 0.0105700000 0.0097297759 0.0389056525
v 0.0105700000 0.0093888480 0.0389822104
v 0.0105700000 0.0090445742 0.0390419476
v 0.0105700000 0.0086977840 0.0390847201
v 0.0105700000 0.0083493128 0.0391104249
v 0.0105700000 0.0080000000 0.0391190000
v 0.0105700000 0.0076506872 0.0391104249
v 0.0105700000 0.0073022160 0.0390847201
v 0.0105700000 0.0069554258 0.0390419476
v 0.0105700000 0.0066111520 0.0389822104
v 0.0105700000 0.0062702241 0.0389056525
v 0.0105700000 0.0059334634 0.0388124583
v 0.0105700000 0.0056016811 0.0387028522
v 0.0105700000 0.0052756766 0.0385770984
v 0.0105700000 0.0049562353 0.0384354998
v 0.0105700000 0.0046441266 0.0382783975
v 0.0105700000 0.0043401026 0.0381061700
v 0.0105700000 0.0040448955 0.0379192322
v 0.0105700000 0.0037592167 0.0377180344
v 0.0105700000 0.0034837542 0.0375030614
v 0.0105700000 0.0032191718 0.0372748311
v 0.0105700000 0.0029661068 0.0370338932
v 0.0105700000 0.0027251689 0.0367808282
v 0.0105700000 0.0024969386 0.0365162458
v 0.0105700000 0.0022819656 0.0362407833
v 0.0105700000 0.0020807678 0.0359551045
v 0.0105700000 0.0018938300 0.0356598974
v 0.0105700000 0.0017216025 0.0353558734
v 0.0105700000 0.0015645002 0.0350437647
v 0.0105700000 0.0014229016 0.0347243234
v 0.0105700000 0.0012971478 0.0343983189
v 0.0105700000 0.0011875417 0.0340665366
v 0.0105700000 0.0010943475 0.0337297759
v 0.0105700000 0.0010177896 0.0333888480
v 0.0105700000 0.0009580524 0.0330445742
v 0.0105700000 0.0009152799 0.0326977840
v 0.0105700000 0.0008895751 0.0323493128
v 0.0105700000 0.0008810000 0.0320000000
v 0.0105700000 0.0008895751 0.0316506872
v 0.0105700000 0.0009152799 0.0313022160
v 0.0105700000 0.0009580524 0.0309554258
v 0.0105700000 0.0010177896 0.0306111520
v 0.0105700000 0.0010943475 0.0302702241
v 0.0105700000 0.0011875417 0.0299334634
v 0.0105700000 0.0012971478 0.0296016811
v 0.0105700000 0.0014229016 0.0292756766
v 0.0105700000 0.0015645002 0.0289562353
v 0.0105700000 0.0017216025 0.0286441266
v 0.0105700000 0.0018938300 0.0283401026
v 0.0105700000 0.0020807678 0.0280448955
v 0.0105700000 0.0022819656 0.0277592167
v 0.0105700000 0.0024969386 0.0274837542
v 0.0105700000 0.0027251689 0.0272191718
v 0.0105700000 0.0029661068 0.0269661068
v 0.0105700000 0.0032191718 0.0267251689
v 0.0105700000 0.0034837542 0.0264969386
v 0.0105700000 0.0037592167 0.0262819656
v 0.0105700000 0.0040448955 0.0260807678
v 0.0105700000 0.0043401026 0.0258938300
v 0.0105700000 0.0046441266 0.0257216025
v 0.0105700000 0.0049562353 0.0255645002
v 0.0105700000 0.0052756766 0.0254229016
v 0.0105700000 0.0056016811 0.0252971478
v 0.0105700000 0.0059334634 0.0251875417
v 0.0105700000 0.0062702241 0.0250943475
v 0.0105700000 0.0066111520 0.0250177896
v 0.0105700000 0.0069554258 0.0249580524
v 0.0105700000 0.0073022160 0.0249152799
v 0.0105700000 0.0076506872 0.0248895751
v 0.0105700000 0.0080000000 0.0248810000
v 0.0105700000 0.0083493128 0.0248895751
v 0.0105700000 0.0086977840 0.0249152799
v 0.0105700000 0.0090445742 0.0249580524
v 0.0105700000 0.0093888480 0.0250177896
v 0.0105700000 0.0097297759 0.0250943475
v 0.0105700000 0.0100665366 0.0251875417
v 0.0105700000 0.0103983189 0.0252971478
v 0.0105700000 0.0107243234 0.0254229016
v 0.0105700000 0.0110437647 0.0255645002
v 0.0105700000 0.0113558734 0.0257216025
v 0.0105700000 0.0116598974 0.0258938300
v 0.0105700000 0.0119551045 0.0260807678
v 0.0105700000 0.0122407833 0.0262819656
v 0.0105700000 0.0125162458 0.0264969386
v 0.0105700000 0.0127808282 0.0267251689
v 0.0105700000 0.0130338932 0.0269661068
v 0.0105700000 0.0132748311 0.0272191718
v 0.0105700000 0.0135030614 0.0274837542
v 0.0105700000 0.0137180344 0.0277592167
v 0.0105700000 0.0139192322 0.0280448955
v 0.0105700000 0.0141061700 0.0283401026
v 0.0105700000 0.0142783975 0.0286441266
v 0.0105700000 0.0144354998 0.0289562353
v 0.0105700000 0.0145770984 0.0292756766
v 0.0105700000 0.0147028522 0.0296016811
v 0.0105700000 0.0148124583 0.0299334634
v 0.0105700000 0.0149056525 0.0302702241
v 0.0105700000 0.0149822104 0.0306111520
v 0.0105700000 0.0150419476 0.0309554258
v 0.0105700000 0.0150847201 0.0313022160
v 0.0105700000 0.0151104249 0.0316506872
v 0.0104600000 0.0129140000 0.0320000000
v 0.0104600000 0.0129080809 0.0322411186
v 0.0104600000 0.0128903377 0.0324816562
v 0.0104600000 0.0128608134 0.0327210336
v 0.0104600000 0.0128195789 0.0329586738
v 0.0104600000 0.0127667336 0.0331940046
v 0.0104600000 0.0127024048 0.0334264589
v 0.0104600000 0.0126267475 0.0336554767
v 0.0104600000 0.0125399440 0.0338805064
v 0.0104600000 0.0124422034 0.0341010057
v 0.0104600000 0.0123337611 0.0343164436
v 0.0104600000 0.0122148784 0.0345263009
v 0.0104600000 0.0120858417 0.0347300721
v 0.0104600000 0.0119469618 0.0349272664
v 0.0104600000 0.0117985734 0.0351174086
v 0.0104600000 0.0116410338 0.0353000407
v 0.0104600000 0.0114747227 0.0354747227
v 0.0104600000 0.0113000407 0.0356410338
v 0.0104600000 0.0111174086 0.0357985734
v 0.0104600000 0.0109272664 0.0359469618
v 0.0104600000 0.0107300721 0.0360858417
v 0.0104600000 0.0105263009 0.0362148784
v 0.0104600000 0.0103164436 0.0363337611
v 0.0104600000 0.0101010057 0.0364422034
v 0.0104600000 0.0098805064 0.0365399440
v 0.0104600000 0.0096554767 0.0366267475
v 0.0104600000 0.0094264589 0.0367024048
v 0.0104600000 0.0091940046 0.0367667336
v 0.0104600000 0.0089586738 0.0368195789
v 0.0104600000 0.0087210336 0.0368608134
v 0.0104600000 0.0084816562 0.0368903377
v 0.0104600000 0.0082411186 0.0369080809
v 0.0104600000 0.0080000000 0.0369140000
v 0.0104600000 0.0077588814 0.0369080809
v 0.0104600000 0.0075183438 0.0368903377
v 0.0104600000 0.0072789664 0.0368608134
v 0.0104600000 0.0070413262 0.0368195789
v 0.0104600000 0.0068059954 0.0367667336
v 0.0104600000 0.0065735411 0.0367024048
v 0.0104600000 0.0063445233 0.0366267475
v 0.0104600000 0.0061194936 0.0365399440
v 0.0104600000 0.0058989943 0.0364422034
v 0.0104600000 0.0056835564 0.0363337611
v 0.0104600000 0.0054736991 0.0362148784
v 0.0104600000 0.0052699279 0.0360858417
v 0.0104600000 0.0050727336 0.0359469618
v 0.0104600000 0.0048825914 0.0357985734
v 0.0104600000 0.0046999593 0.0356410338
v 0.0104600000 0.0045252773 0.0354747227
v 0.0104600000 0.0043589662 0.0353000407
v 0.0104600000 0.0042014266 0.0351174086
v 0.0104600000 0.0040530382 0.0349272664
v 0.0104600000 0.0039141583 0.0347300721
v 0.0104600000 0.0037851216 0.0345263009
v 0.0104600000 0.0036662389 0.0343164436
v 0.0104600000 0.0035577966 0.0341010057
v 0.0104600000 0.0034600560 0.0338805064
v 0.0104600000 0.0033732525 0.0336554767
v 0.0104600000 0.0032975952 0.0334264589
v 0.0104600000 0.0032332664 0.0331940046
v 0.0104600000 0.0031804211 0.0329586738
v 0.0104600000 0.0031391866 0.0327210336
v 0.0104600000 0.0031096623 0.0324816562
v 0.0104600000 0.0030919191 0.0322411186
v 0.0104600000 0.0030860000 0.0320000000
v 0.0104600000 0.0030919191 0.0317588814
v 0.0104600000 0.0031096623 0.0315183438
v 0.0104600000 0.0031391866 0.0312789664
v 0.0104600000 0.0031804211 0.0310413262
v 0.0104600000 0.0032332664 0.0308059954
v 0.0104600000 0.0032975952 0.0305735411
v 0.0104600000 0.0033732525 0.0303445233
v 0.0104600000 0.0034600560 0.0301194936
v 0.0104600000 0.0035577966 0.0298989943
v 0.0104600000 0.0036662389 0.0296835564
v 0.0104600000 0.0037851216 0.0294736991
v 0.0104600000 0.0039141583 0.0292699279
v 0.0104600000 0.0040530382 0.0290727336
v 0.0104600000 0.0042014266 0.0288825914
v 0.0104600000 0.0043589662 0.0286999593
v 0.0104600000 0.0045252773 0.0285252773
v 0.0104600000 0.0046999593 0.0283589662
v 0.0104600000 0.0048825914 0.0282014266
v 0.0104600000 0.0050727336 0.0280530382
v 0.0104600000 0.0052699279 0.0279141583
v 0.0104600000 0.0054736991 0.0277851216
v 0.0104600000 0.0056835564 0.0276662389
v 0.0104600000 0.0058989943 0.0275577966
v 0.0104600000 0.0061194936 0.0274600560
v 0.0104600000 0.0063445233 0.0273732525
v 0.0104600000 0.0065735411 0.0272975952
v 0.0104600000 0.0068059954 0.0272332664
v 0.0104600000 0.0070413262 0.0271804211
v 0.0104600000 0.0072789664 0.0271391866
v 0.0104600000 0.0075183438 0.0271096623
v 0.0104600000 0.0077588814 0.0270919191
v 0.0104600000 0.0080000000 0.0270860000
v 0.0104600000 0.0082411186 0.0270919191
v 0.0104600000 0.0084816562 0.0271096623
v 0.0104600000 0.0087210336 0.0271391866
v 0.0104600000 0.0089586738 0.0271804211
v 0.0104600000 0.0091940046 0.0272332664
v 0.0104600000 0.0094264589 0.0272975952
v 0.0104600000 0.0096554767 0.0273732525
v 0.0104600000 0.0098805064 0.0274600560
v 0.0104600000 0.0101010057 0.0275577966
v 0.0104600000 0.0103164436 0.0276662389
v 0.0104600000 0.0105263009 0.0277851216
v 0.0104600000 0.0107300721 0.0279141583
v 0.0104600000 0.0109272664 0.0280530382
v 0.0104600000 0.0111174086 0.0282014266
v 0.0104600000 0.0113000407 0.0283589662
v 0.0104600000 0.0114747227 0.0285252773
v 0.0104600000 0.0116410338 0.0286999593
v 0.0104600000 0.0117985734 0.0288825914
v 0.0104600000 0.0119469618 0.0290727336
v 0.0104600000 0.0120858417 0.0292699279
v 0.0104600000 0.0122148784 0.0294736991
v 0.0104600000 0.0123337611 0.0296835564
v 0.0104600000 0.0124422034 0.0298989943
v 0.0104600000 0.0125399440 0.0301194936
v 0.0104600000 0.0126267475 0.0303445233
v 0.0104600000 0.0127024048 0.0305735411
v 0.0104600000 0.0127667336 0.0308059954
v 0.0104600000 0.0128195789 0.0310413262
v 0.0104600000 0.0128608134 0.0312789664
v 0.0104600000 0.0128903377 0.0315183438
v 0.0104600000 0.0129080809 0.0317588814
v 0.0104300000 0.0110240000 0.0320000000
v 0.0104300000 0.0110203575 0.0321483806
v 0.0104300000 0.0110094386 0.0322964038
v 0.0104300000 0.0109912698 0.0324437130
v 0.0104300000 0.0109658947 0.0325899531
v 0.0104300000 0.0109333745 0.0327347721
v 0.0104300000 0.0108937876 0.0328778209
v 0.0104300000 0.0108472293 0.0330187549
v 0.0104300000 0.0107938117 0.0331572347
v 0.0104300000 0.0107336636 0.0332929266
v 0.0104300000 0.0106669299 0.0334255037
v 0.0104300000 0.0105937713 0.0335546467
v 0.0104300000 0.0105143641 0.0336800444
v 0.0104300000 0.0104288996 0.0338013947
v 0.0104300000 0.0103375836 0.0339184053
v 0.0104300000 0.0102406362 0.0340307943
v 0.0104300000 0.0101382909 0.0341382909
v 0.0104300000 0.0100307943 0.0342406362
v 0.0104300000 0.0099184053 0.0343375836
v 0.0104300000 0.0098013947 0.0344288996
v 0.0104300000 0.0096800444 0.0345143641
v 0.0104300000 0.0095546467 0.0345937713
v 0.0104300000 0.0094255037 0.0346669299
v 0.0104300000 0.0092929266 0.0347336636
v 0.0104300000 0.0091572347 0.0347938117
v 0.0104300000 0.0090187549 0.0348472293
v 0.0104300000 0.0088778209 0.0348937876
v 0.0104300000 0.0087347721 0.0349333745
v 0.0104300000 0.0085899531 0.0349658947
v 0.0104300000 0.0084437130 0.0349912698
v 0.0104300000 0.0082964038 0.0350094386
v 0.0104300000 0.0081483806 0.0350203575
v 0.0104300000 0.0080000000 0.0350240000
v 0.0104300000 0.0078516194 0.0350203575
v 0.0104300000 0.0077035962 0.0350094386
v 0.0104300000 0.0075562870 0.0349912698
v 0.0104300000 0.0074100469 0.0349658947
v 0.0104300000 0.0072652279 0.0349333745
v 0.0104300000 0.0071221791 0.0348937876
v 0.0104300000 0.0069812451 0.0348472293
v 0.0104300000 0.0068427653 0.0347938117
v 0.0104300000 0.0067070734 0.0347336636
v 0.0104300000 0.0065744963 0.0346669299
v 0.0104300000 0.0064453533 0.0345937713
v 0.0104300000 0.0063199556 0.0345143641
v 0.0104300000 0.0061986053 0.0344288996
v 0.0104300000 0.0060815947 0.0343375836
v 0.0104300000 0.0059692057 0.0342406362
v 0.0104300000 0.0058617091 0.0341382909
v 0.0104300000 0.0057593638 0.0340307943
v 0.0104300000 0.0056624164 0.0339184053
v 0.0104300000 0.0055711004 0.0338013947
v 0.0104300000 0.0054856359 0.0336800444
v 0.0104300000 0.0054062287 0.0335546467
v 0.0104300000 0.0053330701 0.0334255037
v 0.0104300000 0.0052663364 0.0332929266
v 0.0104300000 0.0052061883 0.0331572347
v 0.0104300000 0.0051527707 0.0330187549
v 0.0104300000 0.0051062124 0.0328778209
v 0.0104300000 0.0050666255 0.0327347721
v 0.0104300000 0.0050341053 0.0325899531
v 0.0104300000 0.0050087302 0.0324437130
v 0.0104300000 0.0049905614 0.0322964038
v 0.0104300000 0.0049796425 0.0321483806
v 0.0104300000 0.0049760000 0.0320000000
v 0.0104300000 0.0049796425 0.0318516194
v 0.0104300000 0.0049905614 0.0317035962
v 0.0104300000 0.0050087302 0.0315562870
v 0.0104300000 0.0050341053 0.0314100469
v 0.0104300000 0.0050666255 0.0312652279
v 0.0104300000 0.0051062124 0.0311221791
v 0.0104300000 0.0051527707 0.0309812451
v 0.0104300000 0.0052061883 0.0308427653
v 0.0104300000 0.0052663364 0.0307070734
v 0.0104300000 0.0053330701 0.0305744963
v 0.0104300000 0.0054062287 0.0304453533
v 0.0104300000 0.0054856359 0.0303199556
v 0.0104300000 0.0055711004 0.0301986053
v 0.0104300000 0.0056624164 0.0300815947
v 0.0104300000 0.0057593638 0.0299692057
v 0.0104300000 0.0058617091 0.0298617091
v 0.0104300000 0.0059692057 0.0297593638
v 0.0104300000 0.0060815947 0.0296624164
v 0.0104300000 0.0061986053 0.0295711004
v 0.0104300000 0.0063199556 0.0294856359
v 0.0104300000 0.0064453533 0.0294062287
v 0.0104300000 0.0065744963 0.0293330701
v 0.0104300000 0.0067070734 0.0292663364
v 0.0104300000 0.0068427653 0.0292061883
v 0.0104300000 0.0069812451 0.0291527707
v 0.0104300000 0.0071221791 0.0291062124
v 0.0104300000 0.0072652279 0.0290666255
v 0.0104300000 0.0074100469 0.0290341053
v 0.0104300000 0.0075562870 0.0290087302
v 0.0104300000 0.0077035962 0.0289905614
v 0.0104300000 0.0078516194 0.0289796425
v 0.0104300000 0.0080000000 0.0289760000
v 0.0104300000 0.0081483806 0.0289796425
v 0.0104300000 0.0082964038 0.0289905614
v 0.0104300000 0.0084437130 0.0290087302
v 0.0104300000 0.0085899531 0.0290341053
v 0.0104300000 0.0087347721 0.0290666255
v 0.0104300000 0.0088778209 0.0291062124
v 0.0104300000 0.0090187549 0.0291527707
v 0.0104300000 0.0091572347 0.0292061883
v 0.0104300000 0.0092929266 0.0292663364
v 0.0104300000 0.0094255037 0.0293330701
v 0.0104300000 0.0095546467 0.0294062287
v 0.0104300000 0.0096800444 0.0294856359
v 0.0104300000 0.0098013947 0.0295711004
v 0.0104300000 0.0099184053 0.0296624164
v 0.0104300000 0.0100307943 0.0297593638
v 0.0104300000 0.0101382909 0.0298617091
v 0.0104300000 0.0102406362 0.0299692057
v 0.0104300000 0.0103375836 0.0300815947
v 0.0104300000 0.0104288996 0.0301986053
v 0.0104300000 0.0105143641 0.0303199556
v 0.0104300000 0.0105937713 0.0304453533
v 0.0104300000 0.0106669299 0.0305744963
v 0.0104300000 0.0107336636 0.0307070734
v 0.0104300000 0.0107938117 0.0308427653
v 0.0104300000 0.0108472293 0.0309812451
v 0.0104300000 0.0108937876 0.0311221791
v 0.0104300000 0.0109333745 0.0312652279
v 0.0104300000 0.0109658947 0.0314100469
v 0.0104300000 0.0109912698 0.0315562870
v 0.0104300000 0.0110094386 0.0317035962
v 0.0104300000 0.0110203575 0.0318516194
v 0.0104300000 0.0080000000 0.0320000000
vn -1.00000000 0.00000000 0.00000000
vn -1.00000000 0.00000000 0.00000000
vn -1.00000000 0.00000000 0.00000000
vn -1.00000000 0.00000000 0.00000000
vn -1.00000000 0.00000000 0.00000000
vn -1.00000000 0.00000000 0.00000000
vn -1.00000000 0.00000000 0.00000000
vn -1.00000000 0.00000000 0.00000000
vn -1.00000000 0.00000000 0.00000000
vn -1.00000000 0.00000000 0.00000000
vn -1.00000000 0.00000000 0.00000000
vn -1.00000000 0.00000000 0.00000000
vn -1.00000000 0.00000000 0.00000000
vn -1.00000000 0.00000000 0.00000000
vn -1.00000000 0.00000000 0.00000000
vn -1.00000000 0.00000000 0.00000000
vn -1.00000000 0.00000000 0.00000000
vn -1.00000000 0.00000000 0.00000000
vn -1.00000000 0.00000000 0.00000000
vn -1.00000000 0.00000000 0.00000000
vn -1.00000000 0.00000000 0.00000000
vn -1.00000000 0.00000000 0.00000000
vn -1.00000000 0.00000000 0.00000000
vn -1.00000000 0.00000000 0.00000000
vn -1.00000000 0.00000000 0.00000000
vn -1.00000000 0.00000000 0.00000000
vn -1.00000000 0.00000000 0.00000000
vn -1.00000000 0.00000000 0.00000000
vn -1.00000000 0.00000000 0.00000000
vn -1.00000000 0.00000000 0.00000000
vn -1.00000000 0.00000000 0.00000000
vn -1.00000000 0.00000000 0.00000000
vn -1.00000000 0.00000000 0.00000000
vn -1.00000000 0.00000000 0.00000000
vn -1.00000000 0.00000000 0.00000000
vn -1.00000000 0.00000000 0.00000000
vn -1.00000000 0.00000000 0.00000000
vn -1.00000000 0.00000000 0.00000000
vn -1.00000000 0.00000000 0.00000000
vn -1.00000000 0.00000000 0.00000000
vn -1.00000000 0.00000000 0.00000000
vn -1.00000000 0.00000000 0.00000000
vn -1.00000000 0.00000000 0.00000000
vn -1.00000000 0.00000000 0.00000000
vn -1.00000000 0.00000000 0.00000000
vn -1.00000000 0.00000000 0.00000000
vn -1.00000000 0.00000000 0.00000000
vn -1.00000000 0.00000000 0.00000000
vn -1.00000000 0.00000000 0.00000000
vn -1.00000000 0.00000000 0.00000000
vn -1.00000000 0.00000000 0.00000000
vn -1.00000000 0.00000000 0.00000000
vn -1.00000000 0.00000000 0.00000000
vn -1.00000000 0.00000000 0.00000000
vn -1.00000000 0.00000000 0.00000000
vn -1.00000000 0.00000000 0.00000000
vn -1.00000000 0.00000000 0.00000000
vn -1.00000000 0.00000000 0.00000000
vn -1.00000000 0.00000000 0.00000000
vn -1.00000000 0.00000000 0.00000000
vn -1.00000000 0.00000000 0.00000000
vn -1.00000000 0.00000000 0.00000000
vn -1.00000000 0.00000000 0.00000000
vn -1.00000000 0.00000000 0.00000000
vn -1.00000000 0.00000000 0.00000000
vn -1.00000000 0.00000000 0.00000000
vn -1.00000000 0.00000000 0.00000000
vn -1.00000000 0.00000000 0.00000000
vn -1.00000000 0.00000000 0.00000000
vn -1.00000000 0.00000000 0.00000000
vn -1.00000000 0.00000000 0.00000000
vn -1.00000000 0.00000000 0.00000000
vn -1.00000000 0.00000000 0.00000000
vn -1.00000000 0.00000000 0.00000000
vn -1.00000000 0.00000000 0.00000000
vn -1.00000000 0.00000000 0.00000000
vn -1.00000000 0.00000000 0.00000000
vn -1.00000000 0.00000000 0.00000000
vn -1.00000000 0.00000000 0.00000000
vn -1.00000000 0.00000000 0.00000000
vn -1.00000000 0.00000000 0.00000000
vn -1.00000000 0.00000000 0.00000000
vn -1.00000000 0.00000000 0.00000000
vn -1.00000000 0.00000000 0.00000000
vn -1.00000000 0.00000000 0.00000000
vn -1.00000000 0.00000000 0.00000000
vn -1.00000000 0.00000000 0.00000000
vn -1.00000000 0.00000000 0.00000000
vn -1.00000000 0.00000000 0.00000000
vn -1.00000000 0.00000000 0.00000000
vn -1.00000000 0.00000000 0.00000000
vn -1.00000000 0.00000000 0.00000000
vn -1.00000000 0.00000000 0.00000000
vn -1.00000000 0.00000000 0.00000000
vn -1.00000000 0.00000000 0.00000000
vn -1.00000000 0.00000000 0.00000000
vn -1.00000000 0.00000000 0.00000000
vn -1.00000000 0.00000000 0.00000000
vn -1.00000000 0.00000000 0.00000000
vn -1.00000000 0.00000000 0.00000000
vn -1.00000000 0.00000000 0.00000000
vn -1.00000000 0.00000000 0.00000000
vn -1.00000000 0.00000000 0.00000000
vn -1.00000000 0.00000000 0.00000000
vn -1.00000000 0.00000000 0.00000000
vn -1.00000000 0.00000000 0.00000000
vn -1.00000000 0.00000000 0.00000000
vn -1.00000000 0.00000000 0.00000000
vn -1.00000000 0.00000000 0.00000000
vn -1.00000000 0.00000000 0.00000000
vn -1.00000000 0.00000000 0.00000000
vn -1.00000000 0.00000000 0.00000000
vn -1.00000000 0.00000000 0.00000000
vn -1.00000000 0.00000000 0.00000000
vn -1.00000000 0.00000000 0.00000000
vn -1.00000000 0.00000000 0.00000000
vn -1.00000000 0.00000000 0.00000000
vn -1.00000000 0.00000000 0.00000000
vn -1.00000000 0.00000000 0.00000000
vn -1.00000000 0.00000000 0.00000000
vn -1.00000000 0.00000000 0.00000000
vn -1.00000000 0.00000000 0.00000000
vn -1.00000000 0.00000000 0.00000000
vn -1.00000000 0.00000000 0.00000000
vn -1.00000000 0.00000000 0.00000000
vn -1.00000000 0.00000000 0.00000000
vn -1.00000000 0.00000000 0.00000000
vn -1.00000000 0.00000000 0.00000000
vn -1.00000000 0.00000000 0.00000000
vn 0.00000000 1.00000000 0.00000000
vn 0.00000000 0.99879546 0.04906767
vn 0.00000000 0.99518473 0.09801714
vn 0.00000000 0.98917651 0.14673047
vn 0.00000000 0.98078528 0.19509032
vn 0.00000000 0.97003125 0.24298018
vn 0.00000000 0.95694034 0.29028468
vn 0.00000000 0.94154407 0.33688985
vn 0.00000000 0.92387953 0.38268343
vn 0.00000000 0.90398929 0.42755509
vn 0.00000000 0.88192126 0.47139674
vn 0.00000000 0.85772861 0.51410274
vn 0.00000000 0.83146961 0.55557023
vn 0.00000000 0.80320753 0.59569930
vn 0.00000000 0.77301045 0.63439328
vn 0.00000000 0.74095113 0.67155895
vn 0.00000000 0.70710678 0.70710678
vn 0.00000000 0.67155895 0.74095113
vn 0.00000000 0.63439328 0.77301045
vn 0.00000000 0.59569930 0.80320753
vn 0.00000000 0.55557023 0.83146961
vn 0.00000000 0.51410274 0.85772861
vn 0.00000000 0.47139674 0.88192126
vn 0.00000000 0.42755509 0.90398929
vn 0.00000000 0.38268343 0.92387953
vn 0.00000000 0.33688985 0.94154407
vn 0.00000000 0.29028468 0.95694034
vn 0.00000000 0.24298018 0.97003125
vn 0.00000000 0.19509032 0.98078528
vn 0.00000000 0.14673047 0.98917651
vn 0.00000000 0.09801714 0.99518473
vn 0.00000000 0.04906767 0.99879546
vn 0.00000000 0.00000000 1.00000000
vn 0.00000000 -0.04906767 0.99879546
vn 0.00000000 -0.09801714 0.99518473
vn 0.00000000 -0.14673047 0.98917651
vn 0.00000000 -0.19509032 0.98078528
vn 0.00000000 -0.24298018 0.97003125
vn 0.00000000 -0.29028468 0.95694034
vn 0.00000000 -0.33688985 0.94154407
vn 0.00000000 -0.38268343 0.92387953
vn 0.00000000 -0.42755509 0.90398929
vn 0.00000000 -0.47139674 0.88192126
vn 0.00000000 -0.51410274 0.85772861
vn 0.00000000 -0.55557023 0.83146961
vn 0.00000000 -0.59569930 0.80320753
vn 0.00000000 -0.63439328 0.77301045
vn 0.00000000 -0.67155895 0.74095113
vn 0.00000000 -0.70710678 0.70710678
vn 0.00000000 -0.74095113 0.67155895
vn 0.00000000 -0.77301045 0.63439328
vn 0.00000000 -0.80320753 0.59569930
vn 0.00000000 -0.83146961 0.55557023
vn 0.00000000 -0.85772861 0.51410274
vn 0.00000000 -0.88192126 0.47139674
vn 0.00000000 -0.90398929 0.42755509
vn 0.00000000 -0.92387953 0.38268343
vn 0.00000000 -0.94154407 0.33688985
vn 0.00000000 -0.95694034 0.29028468
vn 0.00000000 -0.97003125 0.24298018
vn 0.00000000 -0.98078528 0.19509032
vn 0.00000000 -0.98917651 0.14673047
vn 0.00000000 -0.99518473 0.09801714
vn 0.00000000 -0.99879546 0.04906767
vn 0.00000000 -1.00000000 0.00000000
vn 0.00000000 -0.99879546 -0.04906767
vn 0.00000000 -0.99518473 -0.09801714
vn 0.00000000 -0.98917651 -0.14673047
vn 0.00000000 -0.98078528 -0.19509032
vn 0.00000000 -0.97003125 -0.24298018
vn 0.00000000 -0.95694034 -0.29028468
vn 0.00000000 -0.94154407 -0.33688985
vn 0.00000000 -0.92387953 -0.38268343
vn 0.00000000 -0.90398929 -0.42755509
vn 0.00000000 -0.88192126 -0.47139674
vn 0.00000000 -0.85772861 -0.51410274
vn 0.00000000 -0.83146961 -0.55557023
vn 0.00000000 -0.80320753 -0.59569930
vn 0.00000000 -0.77301045 -0.63439328
vn 0.00000000 -0.74095113 -0.67155895
vn 0.00000000 -0.70710678 -0.70710678
vn 0.00000000 -0.67155895 -0.74095113
vn 0.00000000 -0.63439328 -0.77301045
vn 0.00000000 -0.59569930 -0.80320753
vn 0.00000000 -0.55557023 -0.83146961
vn 0.00000000 -0.51410274 -0.85772861
vn 0.00000000 -0.47139674 -0.88192126
vn 0.00000000 -0.42755509 -0.90398929
vn 0.00000000 -0.38268343 -0.92387953
vn 0.00000000 -0.33688985 -0.94154407
vn 0.00000000 -0.29028468 -0.95694034
vn 0.00000000 -0.24298018 -0.97003125
vn 0.00000000 -0.19509032 -0.98078528
vn 0.00000000 -0.14673047 -0.98917651
vn 0.00000000 -0.09801714 -0.99518473
vn 0.00000000 -0.04906767 -0.99879546
vn 0.00000000 -0.00000000 -1.00000000
vn 0.00000000 0.04906767 -0.99879546
vn 0.00000000 0.09801714 -0.99518473
vn 0.00000000 0.14673047 -0.98917651
vn 0.00000000 0.19509032 -0.98078528
vn 0.00000000 0.24298018 -0.97003125
vn 0.00000000 0.29028468 -0.95694034
vn 0.00000000 0.33688985 -0.94154407
vn 0.00000000 0.38268343 -0.92387953
vn 0.00000000 0.42755509 -0.90398929
vn 0.00000000 0.47139674 -0.88192126
vn 0.00000000 0.51410274 -0.85772861
vn 0.00000000 0.55557023 -0.83146961
vn 0.00000000 0.59569930 -0.80320753
vn 0.00000000 0.63439328 -0.77301045
vn 0.00000000 0.67155895 -0.74095113
vn 0.00000000 0.70710678 -0.70710678
vn 0.00000000 0.74095113 -0.67155895
vn 0.00000000 0.77301045 -0.63439328
vn 0.00000000 0.80320753 -0.59569930
vn 0.00000000 0.83146961 -0.55557023
vn 0.00000000 0.85772861 -0.51410274
vn 0.00000000 0.88192126 -0.47139674
vn 0.00000000 0.90398929 -0.42755509
vn 0.00000000 0.92387953 -0.38268343
vn 0.00000000 0.94154407 -0.33688985
vn 0.00000000 0.95694034 -0.29028468
vn 0.00000000 0.97003125 -0.24298018
vn 0.00000000 0.98078528 -0.19509032
vn 0.00000000 0.98917651 -0.14673047
vn 0.00000000 0.99518473 -0.09801714
vn 0.00000000 0.99879546 -0.04906767
vn 0.00000000 1.00000000 0.00000000
vn 0.00000000 0.99879546 0.04906767
vn 0.00000000 0.99518473 0.09801714
vn 0.00000000 0.98917651 0.14673047
vn 0.00000000 0.98078528 0.19509032
vn 0.00000000 0.97003125 0.24298018
vn 0.00000000 0.95694034 0.29028468
vn 0.00000000 0.94154407 0.33688985
vn 0.00000000 0.92387953 0.38268343
vn 0.00000000 0.90398929 0.42755509
vn 0.00000000 0.88192126 0.47139674
vn 0.00000000 0.85772861 0.51410274
vn 0.00000000 0.83146961 0.55557023
vn 0.00000000 0.80320753 0.59569930
vn 0.00000000 0.77301045 0.63439328
vn 0.00000000 0.74095113 0.67155895
vn 0.00000000 0.70710678 0.70710678
vn 0.00000000 0.67155895 0.74095113
vn 0.00000000 0.63439328 0.77301045
vn 0.00000000 0.59569930 0.80320753
vn 0.00000000 0.55557023 0.83146961
vn 0.00000000 0.51410274 0.85772861
vn 0.00000000 0.47139674 0.88192126
vn 0.00000000 0.42755509 0.90398929
vn 0.00000000 0.38268343 0.92387953
vn 0.00000000 0.33688985 0.94154407
vn 0.00000000 0.29028468 0.95694034
vn 0.00000000 0.24298018 0.97003125
vn 0.00000000 0.19509032 0.98078528
vn 0.00000000 0.14673047 0.98917651
vn 0.00000000 0.09801714 0.99518473
vn 0.00000000 0.04906767 0.99879546
vn 0.00000000 -0.00000000 1.00000000
vn 0.00000000 -0.04906767 0.99879546
vn 0.00000000 -0.09801714 0.99518473
vn 0.00000000 -0.14673047 0.98917651
vn 0.00000000 -0.19509032 0.98078528
vn 0.00000000 -0.24298018 0.97003125
vn 0.00000000 -0.29028468 0.95694034
vn 0.00000000 -0.33688985 0.94154407
vn 0.00000000 -0.38268343 0.92387953
vn 0.00000000 -0.42755509 0.90398929
vn 0.00000000 -0.47139674 0.88192126
vn 0.00000000 -0.51410274 0.85772861
vn 0.00000000 -0.55557023 0.83146961
vn 0.00000000 -0.59569930 0.80320753
vn 0.00000000 -0.63439328 0.77301045
vn 0.00000000 -0.67155895 0.74095113
vn 0.00000000 -0.70710678 0.70710678
vn 0.00000000 -0.74095113 0.67155895
vn 0.00000000 -0.77301045 0.63439328
vn 0.00000000 -0.80320753 0.59569930
vn 0.00000000 -0.83146961 0.55557023
vn 0.00000000 -0.85772861 0.51410274
vn 0.00000000 -0.88192126 0.47139674
vn 0.00000000 -0.90398929 0.42755509
vn 0.00000000 -0.92387953 0.38268343
vn 0.00000000 -0.94154407 0.33688985
vn 0.00000000 -0.95694034 0.29028468
vn 0.00000000 -0.97003125 0.24298018
vn 0.00000000 -0.98078528 0.19509032
vn 0.00000000 -0.98917651 0.14673047
vn 0.00000000 -0.99518473 0.09801714
vn 0.00000000 -0.99879546 0.04906767
vn 0.00000000 -1.00000000 -0.00000000
vn 0.00000000 -0.99879546 -0.04906767
vn 0.00000000 -0.99518473 -0.09801714
vn 0.00000000 -0.98917651 -0.14673047
vn 0.00000000 -0.98078528 -0.19509032
vn 0.00000000 -0.97003125 -0.24298018
vn 0.00000000 -0.95694034 -0.29028468
vn 0.00000000 -0.94154407 -0.33688985
vn 0.00000000 -0.92387953 -0.38268343
vn 0.00000000 -0.90398929 -0.42755509
vn 0.00000000 -0.88192126 -0.47139674
vn 0.00000000 -0.85772861 -0.51410274
vn 0.00000000 -0.83146961 -0.55557023
vn 0.00000000 -0.80320753 -0.59569930
vn 0.00000000 -0.77301045 -0.63439328
vn 0.00000000 -0.74095113 -0.67155895
vn 0.00000000 -0.70710678 -0.70710678
vn 0.00000000 -0.67155895 -0.74095113
vn 0.00000000 -0.63439328 -0.77301045
vn 0.00000000 -0.59569930 -0.80320753
vn 0.00000000 -0.55557023 -0.83146961
vn 0.00000000 -0.51410274 -0.85772861
vn 0.00000000 -0.47139674 -0.88192126
vn 0.00000000 -0.42755509 -0.90398929
vn 0.00000000 -0.38268343 -0.92387953
vn 0.00000000 -0.33688985 -0.94154407
vn 0.00000000 -0.29028468 -0.95694034
vn 0.00000000 -0.24298018 -0.97003125
vn 0.00000000 -0.19509032 -0.98078528
vn 0.00000000 -0.14673047 -0.98917651
vn 0.00000000 -0.09801714 -0.99518473
vn 0.00000000 -0.04906767 -0.99879546
vn 0.00000000 -0.00000000 -1.00000000
vn 0.00000000 0.04906767 -0.99879546
vn 0.00000000 0.09801714 -0.99518473
vn 0.00000000 0.14673047 -0.98917651
vn 0.00000000 0.19509032 -0.98078528
vn 0.00000000 0.24298018 -0.97003125
vn 0.00000000 0.29028468 -0.95694034
vn 0.00000000 0.33688985 -0.94154407
vn 0.00000000 0.38268343 -0.92387953
vn 0.00000000 0.42755509 -0.90398929
vn 0.00000000 0.47139674 -0.88192126
vn 0.00000000 0.51410274 -0.85772861
vn 0.00000000 0.55557023 -0.83146961
vn 0.00000000 0.59569930 -0.80320753
vn 0.00000000 0.63439328 -0.77301045
vn 0.00000000 0.67155895 -0.74095113
vn 0.00000000 0.70710678 -0.70710678
vn 0.00000000 0.74095113 -0.67155895
vn 0.00000000 0.77301045 -0.63439328
vn 0.00000000 0.80320753 -0.59569930
vn 0.00000000 0.83146961 -0.55557023
vn 0.00000000 0.85772861 -0.51410274
vn 0.00000000 0.88192126 -0.47139674
vn 0.00000000 0.90398929 -0.42755509
vn 0.00000000 0.92387953 -0.38268343
vn 0.00000000 0.94154407 -0.33688985
vn 0.00000000 0.95694034 -0.29028468
vn 0.00000000 0.97003125 -0.24298018
vn 0.00000000 0.98078528 -0.19509032
vn 0.00000000 0.98917651 -0.14673047
vn 0.00000000 0.99518473 -0.09801714
vn 0.00000000 0.99879546 -0.04906767
vn 0.99875798 -0.04982466 -0.00000000
vn 0.99875798 -0.04976465 -0.00244478
vn 0.99875798 -0.04958474 -0.00488367
vn 0.99875798 -0.04928538 -0.00731080
vn 0.99875798 -0.04886729 -0.00972031
vn 0.99875798 -0.04833148 -0.01210641
vn 0.99875798 -0.04767923 -0.01446334
vn 0.99875798 -0.04691211 -0.01678542
vn 0.99875798 -0.04603198 -0.01906707
vn 0.99875798 -0.04504096 -0.02130279
vn 0.99875798 -0.04394143 -0.02348718
vn 0.99875798 -0.04273604 -0.02561500
vn 0.99875798 -0.04142769 -0.02768110
vn 0.99875798 -0.04001954 -0.02968052
vn 0.99875798 -0.03851498 -0.03160843
vn 0.99875798 -0.03691764 -0.03346020
vn 0.99875798 -0.03523136 -0.03523136
vn 0.99875798 -0.03346020 -0.03691764
vn 0.99875798 -0.03160843 -0.03851498
vn 0.99875798 -0.02968052 -0.04001954
vn 0.99875798 -0.02768110 -0.04142769
vn 0.99875798 -0.02561500 -0.04273604
vn 0.99875798 -0.02348718 -0.04394143
vn 0.99875798 -0.02130279 -0.04504096
vn 0.99875798 -0.01906707 -0.04603198
vn 0.99875798 -0.01678542 -0.04691211
vn 0.99875798 -0.01446334 -0.04767923
vn 0.99875798 -0.01210641 -0.04833148
vn 0.99875798 -0.00972031 -0.04886729
vn 0.99875798 -0.00731080 -0.04928538
vn 0.99875798 -0.00488367 -0.04958474
vn 0.99875798 -0.00244478 -0.04976465
vn 0.99875798 0.00000000 -0.04982466
vn 0.99875798 0.00244478 -0.04976465
vn 0.99875798 0.00488367 -0.04958474
vn 0.99875798 0.00731080 -0.04928538
vn 0.99875798 0.00972031 -0.04886729
vn 0.99875798 0.01210641 -0.04833148
vn 0.99875798 0.01446334 -0.04767923
vn 0.99875798 0.01678542 -0.04691211
vn 0.99875798 0.01906707 -0.04603198
vn 0.99875798 0.02130279 -0.04504096
vn 0.99875798 0.02348718 -0.04394143
vn 0.99875798 0.02561500 -0.04273604
vn 0.99875798 0.02768110 -0.04142769
vn 0.99875798 0.02968052 -0.04001954
vn 0.99875798 0.03160843 -0.03851498
vn 0.99875798 0.03346020 -0.03691764
vn 0.99875798 0.03523136 -0.03523136
vn 0.99875798 0.03691764 -0.03346020
vn 0.99875798 0.03851498 -0.03160843
vn 0.99875798 0.04001954 -0.02968052
vn 0.99875798 0.04142769 -0.02768110
vn 0.99875798 0.04273604 -0.02561500
vn 0.99875798 0.04394143 -0.02348718
vn 0.99875798 0.04504096 -0.02130279
vn 0.99875798 0.04603198 -0.01906707
vn 0.99875798 0.04691211 -0.01678542
vn 0.99875798 0.04767923 -0.01446334
vn 0.99875798 0.04833148 -0.01210641
vn 0.99875798 0.04886729 -0.00972031
vn 0.99875798 0.04928538 -0.00731080
vn 0.99875798 0.04958474 -0.00488367
vn 0.99875798 0.04976465 -0.00244478
vn 0.99875798 0.04982466 -0.00000000
vn 0.99875798 0.04976465 0.00244478
vn 0.99875798 0.04958474 0.00488367
vn 0.99875798 0.04928538 0.00731080
vn 0.99875798 0.04886729 0.00972031
vn 0.99875798 0.04833148 0.01210641
vn 0.99875798 0.04767923 0.01446334
vn 0.99875798 0.04691211 0.01678542
vn 0.99875798 0.04603198 0.01906707
vn 0.99875798 0.04504096 0.02130279
vn 0.99875798 0.04394143 0.02348718
vn 0.99875798 0.04273604 0.02561500
vn 0.99875798 0.04142769 0.02768110
vn 0.99875798 0.04001954 0.02968052
vn 0.99875798 0.03851498 0.03160843
vn 0.99875798 0.03691764 0.03346020
vn 0.99875798 0.03523136 0.03523136
vn 0.99875798 0.03346020 0.03691764
vn 0.99875798 0.03160843 0.03851498
vn 0.99875798 0.02968052 0.04001954
vn 0.99875798 0.02768110 0.04142769
vn 0.99875798 0.02561500 0.04273604
vn 0.99875798 0.02348718 0.04394143
vn 0.99875798 0.02130279 0.04504096
vn 0.99875798 0.01906707 0.04603198
vn 0.99875798 0.01678542 0.04691211
vn 0.99875798 0.01446334 0.04767923
vn 0.99875798 0.01210641 0.04833148
vn 0.99875798 0.00972031 0.04886729
vn 0.99875798 0.00731080 0.04928538
vn 0.99875798 0.00488367 0.04958474
vn 0.99875798 0.00244478 0.04976465
vn 0.99875798 0.00000000 0.04982466
vn 0.99875798 -0.00244478 0.04976465
vn 0.99875798 -0.00488367 0.04958474
vn 0.99875798 -0.00731080 0.04928538
vn 0.99875798 -0.00972031 0.04886729
vn 0.99875798 -0.01210641 0.04833148
vn 0.99875798 -0.01446334 0.04767923
vn 0.99875798 -0.01678542 0.04691211
vn 0.99875798 -0.01906707 0.04603198
vn 0.99875798 -0.02130279 0.04504096
vn 0.99875798 -0.02348718 0.04394143
vn 0.99875798 -0.02561500 0.04273604
vn 0.99875798 -0.02768110 0.04142769
vn 0.99875798 -0.02968052 0.04001954
vn 0.99875798 -0.03160843 0.03851498
vn 0.99875798 -0.03346020 0.03691764
vn 0.99875798 -0.03523136 0.03523136
vn 0.99875798 -0.03691764 0.03346020
vn 0.99875798 -0.03851498 0.03160843
vn 0.99875798 -0.04001954 0.02968052
vn 0.99875798 -0.04142769 0.02768110
vn 0.99875798 -0.04273604 0.02561500
vn 0.99875798 -0.04394143 0.02348718
vn 0.99875798 -0.04504096 0.02130279
vn 0.99875798 -0.04603198 0.01906707
vn 0.99875798 -0.04691211 0.01678542
vn 0.99875798 -0.04767923 0.01446334
vn 0.99875798 -0.04833148 0.01210641
vn 0.99875798 -0.04886729 0.00972031
vn 0.99875798 -0.04928538 0.00731080
vn 0.99875798 -0.04958474 0.00488367
vn 0.99875798 -0.04976465 0.00244478
vn 0.99945146 -0.03311769 -0.00000000
vn 0.99945146 -0.03307780 -0.00162501
vn 0.99945146 -0.03295822 -0.00324610
vn 0.99945146 -0.03275924 -0.00485937
vn 0.99945146 -0.03248135 -0.00646094
vn 0.99945146 -0.03212520 -0.00804694
vn 0.99945146 -0.03169166 -0.00961356
vn 0.99945146 -0.03118177 -0.01115701
vn 0.99945146 -0.03059676 -0.01267359
vn 0.99945146 -0.02993804 -0.01415964
vn 0.99945146 -0.02920720 -0.01561157
vn 0.99945146 -0.02840599 -0.01702590
vn 0.99945146 -0.02753636 -0.01839920
vn 0.99945146 -0.02660038 -0.01972819
vn 0.99945146 -0.02560032 -0.02100964
vn 0.99945146 -0.02453859 -0.02224048
vn 0.99945146 -0.02341775 -0.02341775
vn 0.99945146 -0.02224048 -0.02453859
vn 0.99945146 -0.02100964 -0.02560032
vn 0.99945146 -0.01972819 -0.02660038
vn 0.99945146 -0.01839920 -0.02753636
vn 0.99945146 -0.01702590 -0.02840599
vn 0.99945146 -0.01561157 -0.02920720
vn 0.99945146 -0.01415964 -0.02993804
vn 0.99945146 -0.01267359 -0.03059676
vn 0.99945146 -0.01115701 -0.03118177
vn 0.99945146 -0.00961356 -0.03169166
vn 0.99945146 -0.00804694 -0.03212520
vn 0.99945146 -0.00646094 -0.03248135
vn 0.99945146 -0.00485937 -0.03275924
vn 0.99945146 -0.00324610 -0.03295822
vn 0.99945146 -0.00162501 -0.03307780
vn 0.99945146 -0.00000000 -0.03311769
vn 0.99945146 0.00162501 -0.03307780
vn 0.99945146 0.00324610 -0.03295822
vn 0.99945146 0.00485937 -0.03275924
vn 0.99945146 0.00646094 -0.03248135
vn 0.99945146 0.00804694 -0.03212520
vn 0.99945146 0.00961356 -0.03169166
vn 0.99945146 0.01115701 -0.03118177
vn 0.99945146 0.01267359 -0.03059676
vn 0.99945146 0.01415964 -0.02993804
vn 0.99945146 0.01561157 -0.02920720
vn 0.99945146 0.01702590 -0.02840599
vn 0.99945146 0.01839920 -0.02753636
vn 0.99945146 0.01972819 -0.02660038
vn 0.99945146 0.02100964 -0.02560032
vn 0.99945146 0.02224048 -0.02453859
vn 0.99945146 0.02341775 -0.02341775
vn 0.99945146 0.02453859 -0.02224048
vn 0.99945146 0.02560032 -0.02100964
vn 0.99945146 0.02660038 -0.01972819
vn 0.99945146 0.02753636 -0.01839920
vn 0.99945146 0.02840599 -0.01702590
vn 0.99945146 0.02920720 -0.01561157
vn 0.99945146 0.02993804 -0.01415964
vn 0.99945146 0.03059676 -0.01267359
vn 0.99945146 0.03118177 -0.01115701
vn 0.99945146 0.03169166 -0.00961356
vn 0.99945146 0.03212520 -0.00804694
vn 0.99945146 0.03248135 -0.00646094
vn 0.99945146 0.03275924 -0.00485937
vn 0.99945146 0.03295822 -0.00324610
vn 0.99945146 0.03307780 -0.00162501
vn 0.99945146 0.03311769 -0.00000000
vn 0.99945146 0.03307780 0.00162501
vn 0.99945146 0.03295822 0.00324610
vn 0.99945146 0.03275924 0.00485937
vn 0.99945146 0.03248135 0.00646094
vn 0.99945146 0.03212520 0.00804694
vn 0.99945146 0.03169166 0.00961356
vn 0.99945146 0.03118177 0.01115701
vn 0.99945146 0.03059676 0.01267359
vn 0.99945146 0.02993804 0.01415964
vn 0.99945146 0.02920720 0.01561157
vn 0.99945146 0.02840599 0.01702590
vn 0.99945146 0.02753636 0.01839920
vn 0.99945146 0.02660038 0.01972819
vn 0.99945146 0.02560032 0.02100964
vn 0.99945146 0.02453859 0.02224048
vn 0.99945146 0.02341775 0.02341775
vn 0.99945146 0.02224048 0.02453859
vn 0.99945146 0.02100964 0.02560032
vn 0.99945146 0.01972819 0.02660038
vn 0.99945146 0.01839920 0.02753636
vn 0.99945146 0.01702590 0.02840599
vn 0.99945146 0.01561157 0.02920720
vn 0.99945146 0.01415964 0.02993804
vn 0.99945146 0.01267359 0.03059676
vn 0.99945146 0.01115701 0.03118177
vn 0.99945146 0.00961356 0.03169166
vn 0.99945146 0.00804694 0.03212520
vn 0.99945146 0.00646094 0.03248135
vn 0.99945146 0.00485937 0.03275924
vn 0.99945146 0.00324610 0.03295822
vn 0.99945146 0.00162501 0.03307780
vn 0.99945146 0.00000000 0.03311769
vn 0.99945146 -0.00162501 0.03307780
vn 0.99945146 -0.00324610 0.03295822
vn 0.99945146 -0.00485937 0.03275924
vn 0.99945146 -0.00646094 0.03248135
vn 0.99945146 -0.00804694 0.03212520
vn 0.99945146 -0.00961356 0.03169166
vn 0.99945146 -0.01115701 0.03118177
vn 0.99945146 -0.01267359 0.03059676
vn 0.99945146 -0.01415964 0.02993804
vn 0.99945146 -0.01561157 0.02920720
vn 0.99945146 -0.01702590 0.02840599
vn 0.99945146 -0.01839920 0.02753636
vn 0.99945146 -0.01972819 0.02660038
vn 0.99945146 -0.02100964 0.02560032
vn 0.99945146 -0.02224048 0.02453859
vn 0.99945146 -0.02341775 0.02341775
vn 0.99945146 -0.02453859 0.02224048
vn 0.99945146 -0.02560032 0.02100964
vn 0.99945146 -0.02660038 0.01972819
vn 0.99945146 -0.02753636 0.01839920
vn 0.99945146 -0.02840599 0.01702590
vn 0.99945146 -0.02920720 0.01561157
vn 0.99945146 -0.02993804 0.01415964
vn 0.99945146 -0.03059676 0.01267359
vn 0.99945146 -0.03118177 0.01115701
vn 0.99945146 -0.03169166 0.00961356
vn 0.99945146 -0.03212520 0.00804694
vn 0.99945146 -0.03248135 0.00646094
vn 0.99945146 -0.03275924 0.00485937
vn 0.99945146 -0.03295822 0.00324610
vn 0.99945146 -0.03307780 0.00162501
vn 0.99996752 -0.00805975 0.00000000
vn 0.99996752 -0.00805004 -0.00039547
vn 0.99996752 -0.00802094 -0.00078999
vn 0.99996752 -0.00797251 -0.00118261
vn 0.99996752 -0.00790488 -0.00157238
vn 0.99996752 -0.00781821 -0.00195836
vn 0.99996752 -0.00771270 -0.00233962
vn 0.99996752 -0.00758861 -0.00271525
vn 0.99996752 -0.00744623 -0.00308433
vn 0.99996752 -0.00728592 -0.00344599
vn 0.99996752 -0.00710806 -0.00379934
vn 0.99996752 -0.00691308 -0.00414354
vn 0.99996752 -0.00670143 -0.00447776
vn 0.99996752 -0.00647365 -0.00480119
vn 0.99996752 -0.00623027 -0.00511305
vn 0.99996752 -0.00597188 -0.00541259
vn 0.99996752 -0.00569910 -0.00569910
vn 0.99996752 -0.00541259 -0.00597188
vn 0.99996752 -0.00511305 -0.00623027
vn 0.99996752 -0.00480119 -0.00647365
vn 0.99996752 -0.00447776 -0.00670143
vn 0.99996752 -0.00414354 -0.00691308
vn 0.99996752 -0.00379934 -0.00710806
vn 0.99996752 -0.00344599 -0.00728592
vn 0.99996752 -0.00308433 -0.00744623
vn 0.99996752 -0.00271525 -0.00758861
vn 0.99996752 -0.00233962 -0.00771270
vn 0.99996752 -0.00195836 -0.00781821
vn 0.99996752 -0.00157238 -0.00790488
vn 0.99996752 -0.00118261 -0.00797251
vn 0.99996752 -0.00078999 -0.00802094
vn 0.99996752 -0.00039547 -0.00805004
vn 0.99996752 -0.00000000 -0.00805975
vn 0.99996752 0.00039547 -0.00805004
vn 0.99996752 0.00078999 -0.00802094
vn 0.99996752 0.00118261 -0.00797251
vn 0.99996752 0.00157238 -0.00790488
vn 0.99996752 0.00195836 -0.00781821
vn 0.99996752 0.00233962 -0.00771270
vn 0.99996752 0.00271525 -0.00758861
vn 0.99996752 0.00308433 -0.00744623
vn 0.99996752 0.00344599 -0.00728592
vn 0.99996752 0.00379934 -0.00710806
vn 0.99996752 0.00414354 -0.00691308
vn 0.99996752 0.00447776 -0.00670143
vn 0.99996752 0.00480119 -0.00647365
vn 0.99996752 0.00511305 -0.00623027
vn 0.99996752 0.00541259 -0.00597188
vn 0.99996752 0.00569910 -0.00569910
vn 0.99996752 0.00597188 -0.00541259
vn 0.99996752 0.00623027 -0.00511305
vn 0.99996752 0.00647365 -0.00480119
vn 0.99996752 0.00670143 -0.00447776
vn 0.99996752 0.00691308 -0.00414354
vn 0.99996752 0.00710806 -0.00379934
vn 0.99996752 0.00728592 -0.00344599
vn 0.99996752 0.00744623 -0.00308433
vn 0.99996752 0.00758861 -0.00271525
vn 0.99996752 0.00771270 -0.00233962
vn 0.99996752 0.00781821 -0.00195836
vn 0.99996752 0.00790488 -0.00157238
vn 0.99996752 0.00797251 -0.00118261
vn 0.99996752 0.00802094 -0.00078999
vn 0.99996752 0.00805004 -0.00039547
vn 0.99996752 0.00805975 -0.00000000
vn 0.99996752 0.00805004 0.00039547
vn 0.99996752 0.00802094 0.00078999
vn 0.99996752 0.00797251 0.00118261
vn 0.99996752 0.00790488 0.00157238
vn 0.99996752 0.00781821 0.00195836
vn 0.99996752 0.00771270 0.00233962
vn 0.99996752 0.00758861 0.00271525
vn 0.99996752 0.00744623 0.00308433
vn 0.99996752 0.00728592 0.00344599
vn 0.99996752 0.00710806 0.00379934
vn 0.99996752 0.00691308 0.00414354
vn 0.99996752 0.00670143 0.00447776
vn 0.99996752 0.00647365 0.00480119
vn 0.99996752 0.00623027 0.00511305
vn 0.99996752 0.00597188 0.00541259
vn 0.99996752 0.00569910 0.00569910
vn 0.99996752 0.00541259 0.00597188
vn 0.99996752 0.00511305 0.00623027
vn 0.99996752 0.00480119 0.00647365
vn 0.99996752 0.00447776 0.00670143
vn 0.99996752 0.00414354 0.00691308
vn 0.99996752 0.00379934 0.00710806
vn 0.99996752 0.00344599 0.00728592
vn 0.99996752 0.00308433 0.00744623
vn 0.99996752 0.00271525 0.00758861
vn 0.99996752 0.00233962 0.00771270
vn 0.99996752 0.00195836 0.00781821
vn 0.99996752 0.00157238 0.00790488
vn 0.99996752 0.00118261 0.00797251
vn 0.99996752 0.00078999 0.00802094
vn 0.99996752 0.00039547 0.00805004
vn 0.99996752 0.00000000 0.00805975
vn 0.99996752 -0.00039547 0.00805004
vn 0.99996752 -0.00078999 0.00802094
vn 0.99996752 -0.00118261 0.00797251
vn 0.99996752 -0.00157238 0.00790488
vn 0.99996752 -0.00195836 0.00781821
vn 0.99996752 -0.00233962 0.00771270
vn 0.99996752 -0.00271525 0.00758861
vn 0.99996752 -0.00308433 0.00744623
vn 0.99996752 -0.00344599 0.00728592
vn 0.99996752 -0.00379934 0.00710806
vn 0.99996752 -0.00414354 0.00691308
vn 0.99996752 -0.00447776 0.00670143
vn 0.99996752 -0.00480119 0.00647365
vn 0.99996752 -0.00511305 0.00623027
vn 0.99996752 -0.00541259 0.00597188
vn 0.99996752 -0.00569910 0.00569910
vn 0.99996752 -0.00597188 0.00541259
vn 0.99996752 -0.00623027 0.00511305
vn 0.99996752 -0.00647365 0.00480119
vn 0.99996752 -0.00670143 0.00447776
vn 0.99996752 -0.00691308 0.00414354
vn 0.99996752 -0.00710806 0.00379934
vn 0.99996752 -0.00728592 0.00344599
vn 0.99996752 -0.00744623 0.00308433
vn 0.99996752 -0.00758861 0.00271525
vn 0.99996752 -0.00771270 0.00233962
vn 0.99996752 -0.00781821 0.00195836
vn 0.99996752 -0.00790488 0.00157238
vn 0.99996752 -0.00797251 0.00118261
vn 0.99996752 -0.00802094 0.00078999
vn 0.99996752 -0.00805004 0.00039547
vn 1.00000000 0.00000000 0.00000000
f 3//3 2//2 1//1
f 96//96 95//95 1//1
f 95//95 94//94 1//1
f 94//94 93//93 1//1
f 93//93 92//92 1//1
f 92//92 91//91 1//1
f 91//91 90//90 1//1
f 90//90 89//89 1//1
f 89//89 88//88 1//1
f 88//88 87//87 1//1
f 87//87 86//86 1//1
f 86//86 85//85 1//1
f 85//85 84//84 1//1
f 84//84 83//83 1//1
f 97//97 96//96 1//1
f 83//83 82//82 1//1
f 81//81 80//80 1//1
f 80//80 79//79 1//1
f 79//79 78//78 1//1
f 78//78 77//77 1//1
f 77//77 76//76 1//1
f 76//76 75//75 1//1
f 75//75 74//74 1//1
f 74//74 73//73 1//1
f 73//73 72//72 1//1
f 72//72 71//71 1//1
f 71//71 70//70 1//1
f 70//70 69//69 1//1
f 69//69 68//68 1//1
f 82//82 81//81 1//1
f 98//98 97//97 1//1
f 99//99 98//98 1//1
f 100//100 99//99 1//1
f 129//129 128//128 1//1
f 128//128 127//127 1//1
f 127//127 126//126 1//1
f 126//126 125//125 1//1
f 125//125 124//124 1//1
f 124//124 123//123 1//1
f 123//123 122//122 1//1
f 122//122 121//121 1//1
f 121//121 120//120 1//1
f 120//120 119//119 1//1
f 119//119 118//118 1//1
f 118//118 117//117 1//1
f 117//117 116//116 1//1
f 116//116 115//115 1//1
f 115//115 114//114 1//1
f 114//114 113//113 1//1
f 113//113 112//112 1//1
f 112//112 111//111 1//1
f 111//111 110//110 1//1
f 110//110 109//109 1//1
f 109//109 108//108 1//1
f 108//108 107//107 1//1
f 107//107 106//106 1//1
f 106//106 105//105 1//1
f 105//105 104//104 1//1
f 104//104 103//103 1//1
f 103//103 102//102 1//1
f 102//102 101//101 1//1
f 101//101 100//100 1//1
f 68//68 67//67 1//1
f 67//67 66//66 1//1
f 2//2 129//129 1//1
f 65//65 64//64 1//1
f 31//31 30//30 1//1
f 30//30 29//29 1//1
f 29//29 28//28 1//1
f 28//28 27//27 1//1
f 27//27 26//26 1//1
f 26//26 25//25 1//1
f 25//25 24//24 1//1
f 24//24 23//23 1//1
f 23//23 22//22 1//1
f 22//22 21//21 1//1
f 21//21 20//20 1//1
f 66//66 65//65 1//1
f 19//19 18//18 1//1
f 32//32 31//31 1//1
f 18//18 17//17 1//1
f 16//16 15//15 1//1
f 15//15 14//14 1//1
f 14//14 13//13 1//1
f 13//13 12//12 1//1
f 12//12 11//11 1//1
f 11//11 10//10 1//1
f 10//10 9//9 1//1
f 9//9 8//8 1//1
f 8//8 7//7 1//1
f 7//7 6//6 1//1
f 6//6 5//5 1//1
f 5//5 4//4 1//1
f 4//4 3//3 1//1
f 17//17 16//16 1//1
f 33//33 32//32 1//1
f 20//20 19//19 1//1
f 35//35 34//34 1//1
f 34//34 33//33 1//1
f 63//63 62//62 1//1
f 62//62 61//61 1//1
f 61//61 60//60 1//1
f 60//60 59//59 1//1
f 59//59 58//58 1//1
f 58//58 57//57 1//1
f 57//57 56//56 1//1
f 56//56 55//55 1//1
f 55//55 54//54 1//1
f 54//54 53//53 1//1
f 53//53 52//52 1//1
f 52//52 51//51 1//1
f 51//51 50//50 1//1
f 64//64 63//63 1//1
f 49//49 48//48 1//1
f 50//50 49//49 1//1
f 37//37 36//36 1//1
f 38//38 37//37 1//1
f 39//39 38//38 1//1
f 40//40 39//39 1//1
f 41//41 40//40 1//1
f 36//36 35//35 1//1
f 43//43 42//42 1//1
f 44//44 43//43 1//1
f 45//45 44//44 1//1
f 46//46 45//45 1//1
f 47//47 46//46 1//1
f 42//42 41//41 1//1
f 48//48 47//47 1//1
f 345//345 344//344 216//216
f 216//216 344//344 215//215
f 344//344 343//343 215//215
f 215//215 343//343 214//214
f 343//343 342//342 214//214
f 213//213 341//341 212//212
f 342//342 341//341 213//213
f 341//341 340//340 212//212
f 212//212 340//340 211//211
f 340//340 339//339 211//211
f 217//217 345//345 216//216
f 214//214 342//342 213//213
f 346//346 345//345 217//217
f 350//350 349//349 221//221
f 347//347 346//346 218//218
f 219//219 347//347 218//218
f 348//348 347//347 219//219
f 220//220 348//348 219//219
f 349//349 348//348 220//220
f 221//221 349//349 220//220
f 222//222 350//350 221//221
f 351//351 350//350 222//222
f 223//223 351//351 222//222
f 352//352 351//351 223//223
f 224//224 352//352 223//223
f 353//353 352//352 224//224
f 225//225 353//353 224//224
f 218//218 346//346 217//217
f 211//211 339//339 210//210
f 324//324 323//323 195//195
f 210//210 338//338 209//209
f 354//354 353//353 225//225
f 196//196 324//324 195//195
f 325//325 324//324 196//196
f 197//197 325//325 196//196
f 326//326 325//325 197//197
f 198//198 326//326 197//197
f 327//327 326//326 198//198
f 199//199 327//327 198//198
f 328//328 327//327 199//199
f 200//200 328//328 199//199
f 329//329 328//328 200//200
f 201//201 329//329 200//200
f 330//330 329//329 201//201
f 202//202 330//330 201//201
f 331//331 330//330 202//202
f 203//203 331//331 202//202
f 332//332 331//331 203//203
f 204//204 332//332 203//203
f 333//333 332//332 204//204
f 205//205 333//333 204//204
f 334//334 333//333 205//205
f 206//206 334//334 205//205
f 335//335 334//334 206//206
f 207//207 335//335 206//206
f 336//336 335//335 207//207
f 208//208 336//336 207//207
f 337//337 336//336 208//208
f 209//209 337//337 208//208
f 338//338 337//337 209//209
f 339//339 338//338 210//210
f 226//226 354//354 225//225
f 371//371 370//370 242//242
f 227//227 355//355 226//226
f 245//245 373//373 244//244
f 374//374 373//373 245//245
f 246//246 374//374 245//245
f 375//375 374//374 246//246
f 247//247 375//375 246//246
f 376//376 375//375 247//247
f 248//248 376//376 247//247
f 377//377 376//376 248//248
f 249//249 377//377 248//248
f 378//378 377//377 249//249
f 250//250 378//378 249//249
f 379//379 378//378 250//250
f 251//251 379//379 250//250
f 373//373 372//372 244//244
f 380//380 379//379 251//251
f 381//381 380//380 252//252
f 253//253 381//381 252//252
f 382//382 381//381 253//253
f 254//254 382//382 253//253
f 383//383 382//382 254//254
f 255//255 383//383 254//254
f 384//384 383//383 255//255
f 256//256 384//384 255//255
f 385//385 384//384 256//256
f 257//257 385//385 256//256
f 258//258 385//385 257//257
f 130//130 258//258 257//257
f 195//195 323//323 194//194
f 252//252 380//380 251//251
f 244//244 372//372 243//243
f 372//372 371//371 243//243
f 243//243 371//371 242//242
f 356//356 355//355 227//227
f 228//228 356//356 227//227
f 357//357 356//356 228//228
f 229//229 357//357 228//228
f 358//358 357//357 229//229
f 230//230 358//358 229//229
f 359//359 358//358 230//230
f 231//231 359//359 230//230
f 360//360 359//359 231//231
f 232//232 360//360 231//231
f 361//361 360//360 232//232
f 233//233 361//361 232//232
f 362//362 361//361 233//233
f 234//234 362//362 233//233
f 363//363 362//362 234//234
f 235//235 363//363 234//234
f 364//364 363//363 235//235
f 236//236 364//364 235//235
f 365//365 364//364 236//236
f 237//237 365//365 236//236
f 366//366 365//365 237//237
f 238//238 366//366 237//237
f 367//367 366//366 238//238
f 239//239 367//367 238//238
f 368//368 367//367 239//239
f 240//240 368//368 239//239
f 369//369 368//368 240//240
f 241//241 369//369 240//240
f 370//370 369//369 241//241
f 355//355 354//354 226//226
f 323//323 322//322 194//194
f 242//242 370//370 241//241
f 322//322 321//321 193//193
f 147//147 275//275 146//146
f 276//276 275//275 147//147
f 148//148 276//276 147//147
f 277//277 276//276 148//148
f 149//149 277//277 148//148
f 278//278 277//277 149//149
f 150//150 278//278 149//149
f 279//279 278//278 150//150
f 151//151 279//279 150//150
f 280//280 279//279 151//151
f 152//152 280//280 151//151
f 281//281 280//280 152//152
f 153//153 281//281 152//152
f 275//275 274//274 146//146
f 282//282 281//281 153//153
f 283//283 282//282 154//154
f 155//155 283//283 154//154
f 284//284 283//283 155//155
f 156//156 284//284 155//155
f 285//285 284//284 156//156
f 157//157 285//285 156//156
f 286//286 285//285 157//157
f 158//158 286//286 157//157
f 287//287 286//286 158//158
f 159//159 287//287 158//158
f 288//288 287//287 159//159
f 160//160 288//288 159//159
f 289//289 288//288 160//160
f 154//154 282//282 153//153
f 146//146 274//274 145//145
f 274//274 273//273 145//145
f 145//145 273//273 144//144
f 194//194 322//322 193//193
f 259//259 258//258 130//130
f 131//131 259//259 130//130
f 260//260 259//259 131//131
f 132//132 260//260 131//131
f 261//261 260//260 132//132
f 133//133 261//261 132//132
f 262//262 261//261 133//133
f 134//134 262//262 133//133
f 263//263 262//262 134//134
f 135//135 263//263 134//134
f 264//264 263//263 135//135
f 136//136 264//264 135//135
f 265//265 264//264 136//136
f 137//137 265//265 136//136
f 266//266 265//265 137//137
f 138//138 266//266 137//137
f 267//267 266//266 138//138
f 139//139 267//267 138//138
f 268//268 267//267 139//139
f 140//140 268//268 139//139
f 269//269 268//268 140//140
f 141//141 269//269 140//140
f 270//270 269//269 141//141
f 142//142 270//270 141//141
f 271//271 270//270 142//142
f 272//272 271//271 143//143
f 144//144 272//272 143//143
f 273//273 272//272 144//144
f 161//161 289//289 160//160
f 290//290 289//289 161//161
f 143//143 271//271 142//142
f 291//291 290//290 162//162
f 179//179 307//307 178//178
f 308//308 307//307 179//179
f 180//180 308//308 179//179
f 309//309 308//308 180//180
f 181//181 309//309 180//180
f 310//310 309//309 181//181
f 182//182 310//310 181//181
f 311//311 310//310 182//182
f 183//183 311//311 182//182
f 312//312 311//311 183//183
f 184//184 312//312 183//183
f 313//313 312//312 184//184
f 185//185 313//313 184//184
f 314//314 313//313 185//185
f 315//315 314//314 186//186
f 187//187 315//315 186//186
f 316//316 315//315 187//187
f 188//188 316//316 187//187
f 317//317 316//316 188//188
f 189//189 317//317 188//188
f 318//318 317//317 189//189
f 190//190 318//318 189//189
f 319//319 318//318 190//190
f 191//191 319//319 190//190
f 320//320 319//319 191//191
f 192//192 320//320 191//191
f 321//321 320//320 192//192
f 162//162 290//290 161//161
f 193//193 321//321 192//192
f 307//307 306//306 178//178
f 178//178 306//306 177//177
f 186//186 314//314 185//185
f 167//167 295//295 166//166
f 306//306 305//305 177//177
f 164//164 292//292 163//163
f 293//293 292//292 164//164
f 165//165 293//293 164//164
f 294//294 293//293 165//165
f 166//166 294//294 165//165
f 295//295 294//294 166//166
f 296//296 295//295 167//167
f 168//168 296//296 167//167
f 297//297 296//296 168//168
f 169//169 297//297 168//168
f 170//170 298//298 169//169
f 163//163 291//291 162//162
f 299//299 298//298 170//170
f 298//298 297//297 169//169
f 300//300 299//299 171//171
f 177//177 305//305 176//176
f 305//305 304//304 176//176
f 176//176 304//304 175//175
f 171//171 299//299 170//170
f 175//175 303//303 174//174
f 303//303 302//302 174//174
f 304//304 303//303 175//175
f 174//174 302//302 173//173
f 302//302 301//301 173//173
f 173//173 301//301 172//172
f 301//301 300//300 172//172
f 172//172 300//300 171//171
f 292//292 291//291 163//163
f 726//726 725//725 597//597
f 729//729 728//728 600//600
f 727//727 726//726 598//598
f 599//599 727//727 598//598
f 728//728 727//727 599//599
f 600//600 728//728 599//599
f 598//598 726//726 597//597
f 716//716 715//715 587//587
f 730//730 729//729 601//601
f 602//602 730//730 601//601
f 731//731 730//730 602//602
f 603//603 731//731 602//602
f 732//732 731//731 603//603
f 597//597 725//725 596//596
f 604//604 732//732 603//603
f 733//733 732//732 604//604
f 601//601 729//729 600//600
f 725//725 724//724 596//596
f 590//590 718//718 589//589
f 724//724 723//723 595//595
f 588//588 716//716 587//587
f 605//605 733//733 604//604
f 717//717 716//716 588//588
f 589//589 717//717 588//588
f 718//718 717//717 589//589
f 719//719 718//718 590//590
f 591//591 719//719 590//590
f 720//720 719//719 591//591
f 592//592 720//720 591//591
f 721//721 720//720 592//592
f 593//593 721//721 592//592
f 722//722 721//721 593//593
f 594//594 722//722 593//593
f 723//723 722//722 594//594
f 595//595 723//723 594//594
f 596//596 724//724 595//595
f 734//734 733//733 605//605
f 621//621 749//749 620//620
f 735//735 734//734 606//606
f 617//617 745//745 616//616
f 746//746 745//745 617//617
f 618//618 746//746 617//617
f 747//747 746//746 618//618
f 619//619 747//747 618//618
f 748//748 747//747 619//619
f 620//620 748//748 619//619
f 745//745 744//744 616//616
f 749//749 748//748 620//620
f 622//622 750//750 621//621
f 751//751 750//750 622//622
f 623//623 751//751 622//622
f 752//752 751//751 623//623
f 624//624 752//752 623//623
f 587//587 715//715 586//586
f 753//753 752//752 624//624
f 750//750 749//749 621//621
f 606//606 734//734 605//605
f 616//616 744//744 615//615
f 615//615 743//743 614//614
f 607//607 735//735 606//606
f 736//736 735//735 607//607
f 608//608 736//736 607//607
f 737//737 736//736 608//608
f 609//609 737//737 608//608
f 738//738 737//737 609//609
f 610//610 738//738 609//609
f 744//744 743//743 615//615
f 739//739 738//738 610//610
f 740//740 739//739 611//611
f 612//612 740//740 611//611
f 741//741 740//740 612//612
f 613//613 741//741 612//612
f 742//742 741//741 613//613
f 614//614 742//742 613//613
f 743//743 742//742 614//614
f 611//611 739//739 610//610
f 715//715 714//714 586//586
f 683//683 682//682 554//554
f 714//714 713//713 585//585
f 557//557 685//685 556//556
f 686//686 685//685 557//557
f 558//558 686//686 557//557
f 687//687 686//686 558//558
f 559//559 687//687 558//558
f 688//688 687//687 559//559
f 560//560 688//688 559//559
f 685//685 684//684 556//556
f 689//689 688//688 560//560
f 690//690 689//689 561//561
f 562//562 690//690 561//561
f 691//691 690//690 562//562
f 563//563 691//691 562//562
f 692//692 691//691 563//563
f 564//564 692//692 563//563
f 693//693 692//692 564//564
f 561//561 689//689 560//560
f 565//565 693//693 564//564
f 556//556 684//684 555//555
f 555//555 683//683 554//554
f 547//547 675//675 546//546
f 676//676 675//675 547//547
f 548//548 676//676 547//547
f 677//677 676//676 548//548
f 549//549 677//677 548//548
f 678//678 677//677 549//549
f 550//550 678//678 549//549
f 684//684 683//683 555//555
f 679//679 678//678 550//550
f 680//680 679//679 551//551
f 552//552 680//680 551//551
f 681//681 680//680 552//552
f 553//553 681//681 552//552
f 682//682 681//681 553//553
f 554//554 682//682 553//553
f 625//625 753//753 624//624
f 551//551 679//679 550//550
f 694//694 693//693 565//565
f 566//566 694//694 565//565
f 695//695 694//694 566//566
f 706//706 705//705 577//577
f 578//578 706//706 577//577
f 707//707 706//706 578//578
f 579//579 707//707 578//578
f 708//708 707//707 579//579
f 580//580 708//708 579//579
f 709//709 708//708 580//580
f 577//577 705//705 576//576
f 581//581 709//709 580//580
f 582//582 710//710 581//581
f 711//711 710//710 582//582
f 583//583 711//711 582//582
f 712//712 711//711 583//583
f 584//584 712//712 583//583
f 713//713 712//712 584//584
f 585//585 713//713 584//584
f 710//710 709//709 581//581
f 705//705 704//704 576//576
f 576//576 704//704 575//575
f 704//704 703//703 575//575
f 567//567 695//695 566//566
f 696//696 695//695 567//567
f 568//568 696//696 567//567
f 697//697 696//696 568//568
f 569//569 697//697 568//568
f 698//698 697//697 569//569
f 570//570 698//698 569//569
f 699//699 698//698 570//570
f 571//571 699//699 570//570
f 700//700 699//699 571//571
f 572//572 700//700 571//571
f 701//701 700//700 572//572
f 573//573 701//701 572//572
f 702//702 701//701 573//573
f 574//574 702//702 573//573
f 703//703 702//702 574//574
f 575//575 703//703 574//574
f 586//586 714//714 585//585
f 754//754 753//753 625//625
f 673//673 770//770 672//672
f 755//755 754//754 626//626
f 714//714 770//770 713//713
f 715//715 770//770 714//714
f 716//716 770//770 715//715
f 717//717 770//770 716//716
f 718//718 770//770 717//717
f 719//719 770//770 718//718
f 720//720 770//770 719//719
f 713//713 770//770 712//712
f 721//721 770//770 720//720
f 723//723 770//770 722//722
f 724//724 770//770 723//723
f 725//725 770//770 724//724
f 726//726 770//770 725//725
f 727//727 770//770 726//726
f 728//728 770//770 727//727
f 729//729 770//770 728//728
f 722//722 770//770 721//721
f 730//730 770//770 729//729
f 712//712 770//770 711//711
f 710//710 770//770 709//709
f 694//694 770//770 693//693
f 695//695 770//770 694//694
f 696//696 770//770 695//695
f 697//697 770//770 696//696
f 698//698 770//770 697//697
f 699//699 770//770 698//698
f 700//700 770//770 699//699
f 711//711 770//770 710//710
f 701//701 770//770 700//700
f 703//703 770//770 702//702
f 704//704 770//770 703//703
f 705//705 770//770 704//704
f 706//706 770//770 705//705
f 707//707 770//770 706//706
f 708//708 770//770 707//707
f 709//709 770//770 708//708
f 702//702 770//770 701//701
f 693//693 770//770 692//692
f 731//731 770//770 730//730
f 733//733 770//770 732//732
f 754//754 770//770 753//753
f 755//755 770//770 754//754
f 756//756 770//770 755//755
f 757//757 770//770 756//756
f 758//758 770//770 757//757
f 759//759 770//770 758//758
f 760//760 770//770 759//759
f 753//753 770//770 752//752
f 761//761 770//770 760//760
f 763//763 770//770 762//762
f 764//764 770//770 763//763
f 765//765 770//770 764//764
f 766//766 770//770 765//765
f 767//767 770//770 766//766
f 768//768 770//770 767//767
f 675//675 674//674 546//546
f 762//762 770//770 761//761
f 732//732 770//770 731//731
f 752//752 770//770 751//751
f 750//750 770//770 749//749
f 734//734 770//770 733//733
f 735//735 770//770 734//734
f 736//736 770//770 735//735
f 737//737 770//770 736//736
f 738//738 770//770 737//737
f 739//739 770//770 738//738
f 740//740 770//770 739//739
f 751//751 770//770 750//750
f 741//741 770//770 740//740
f 743//743 770//770 742//742
f 744//744 770//770 743//743
f 745//745 770//770 744//744
f 746//746 770//770 745//745
f 747//747 770//770 746//746
f 748//748 770//770 747//747
f 749//749 770//770 748//748
f 742//742 770//770 741//741
f 692//692 770//770 691//691
f 691//691 770//770 690//690
f 690//690 770//770 689//689
f 637//637 765//765 636//636
f 766//766 765//765 637//637
f 638//638 766//766 637//637
f 767//767 766//766 638//638
f 639//639 767//767 638//638
f 768//768 767//767 639//639
f 640//640 768//768 639//639
f 765//765 764//764 636//636
f 769//769 768//768 640//640
f 642//642 769//769 641//641
f 514//514 642//642 641//641
f 643//643 770//770 642//642
f 644//644 770//770 643//643
f 645//645 770//770 644//644
f 646//646 770//770 645//645
f 647//647 770//770 646//646
f 641//641 769//769 640//640
f 648//648 770//770 647//647
f 636//636 764//764 635//635
f 635//635 763//763 634//634
f 627//627 755//755 626//626
f 756//756 755//755 627//627
f 628//628 756//756 627//627
f 757//757 756//756 628//628
f 629//629 757//757 628//628
f 758//758 757//757 629//629
f 630//630 758//758 629//629
f 764//764 763//763 635//635
f 759//759 758//758 630//630
f 760//760 759//759 631//631
f 632//632 760//760 631//631
f 761//761 760//760 632//632
f 633//633 761//761 632//632
f 762//762 761//761 633//633
f 634//634 762//762 633//633
f 763//763 762//762 634//634
f 631//631 759//759 630//630
f 649//649 770//770 648//648
f 650//650 770//770 649//649
f 651//651 770//770 650//650
f 674//674 770//770 673//673
f 675//675 770//770 674//674
f 676//676 770//770 675//675
f 677//677 770//770 676//676
f 678//678 770//770 677//677
f 679//679 770//770 678//678
f 680//680 770//770 679//679
f 672//672 770//770 671//671
f 681//681 770//770 680//680
f 683//683 770//770 682//682
f 684//684 770//770 683//683
f 685//685 770//770 684//684
f 686//686 770//770 685//685
f 687//687 770//770 686//686
f 688//688 770//770 687//687
f 689//689 770//770 688//688
f 682//682 770//770 681//681
f 671//671 770//770 670//670
f 670//670 770//770 669//669
f 669//669 770//770 668//668
f 652//652 770//770 651//651
f 653//653 770//770 652//652
f 654//654 770//770 653//653
f 655//655 770//770 654//654
f 656//656 770//770 655//655
f 657//657 770//770 656//656
f 658//658 770//770 657//657
f 659//659 770//770 658//658
f 660//660 770//770 659//659
f 661//661 770//770 660//660
f 662//662 770//770 661//661
f 663//663 770//770 662//662
f 664//664 770//770 663//663
f 665//665 770//770 664//664
f 666//666 770//770 665//665
f 667//667 770//770 666//666
f 668//668 770//770 667//667
f 626//626 754//754 625//625
f 546//546 674//674 545//545
f 450//450 578//578 449//449
f 545//545 673//673 544//544
f 565//565 564//564 436//436
f 437//437 565//565 436//436
f 566//566 565//565 437//437
f 438//438 566//566 437//437
f 567//567 566//566 438//438
f 439//439 567//567 438//438
f 568//568 567//567 439//439
f 436//436 564//564 435//435
f 440//440 568//568 439//439
f 441//441 569//569 440//440
f 570//570 569//569 441//441
f 442//442 570//570 441//441
f 571//571 570//570 442//442
f 443//443 571//571 442//442
f 572//572 571//571 443//443
f 444//444 572//572 443//443
f 569//569 568//568 440//440
f 573//573 572//572 444//444
f 564//564 563//563 435//435
f 563//563 562//562 434//434
f 555//555 554//554 426//426
f 427//427 555//555 426//426
f 556//556 555//555 427//427
f 428//428 556//556 427//427
f 557//557 556//556 428//428
f 429//429 557//557 428//428
f 558//558 557//557 429//429
f 435//435 563//563 434//434
f 430//430 558//558 429//429
f 431//431 559//559 430//430
f 560//560 559//559 431//431
f 432//432 560//560 431//431
f 561//561 560//560 432//432
f 433//433 561//561 432//432
f 562//562 561//561 433//433
f 434//434 562//562 433//433
f 559//559 558//558 430//430
f 426//426 554//554 425//425
f 445//445 573//573 444//444
f 446//446 574//574 445//445
f 585//585 584//584 456//456
f 457//457 585//585 456//456
f 586//586 585//585 457//457
f 458//458 586//586 457//457
f 587//587 586//586 458//458
f 459//459 587//587 458//458
f 588//588 587//587 459//459
f 456//456 584//584 455//455
f 460//460 588//588 459//459
f 461//461 589//589 460//460
f 590//590 589//589 461//461
f 462//462 590//590 461//461
f 591//591 590//590 462//462
f 463//463 591//591 462//462
f 592//592 591//591 463//463
f 464//464 592//592 463//463
f 589//589 588//588 460//460
f 574//574 573//573 445//445
f 584//584 583//583 455//455
f 583//583 582//582 454//454
f 575//575 574//574 446//446
f 447//447 575//575 446//446
f 576//576 575//575 447//447
f 448//448 576//576 447//447
f 577//577 576//576 448//448
f 449//449 577//577 448//448
f 578//578 577//577 449//449
f 455//455 583//583 454//454
f 769//769 770//770 768//768
f 451//451 579//579 450//450
f 580//580 579//579 451//451
f 452//452 580//580 451//451
f 581//581 580//580 452//452
f 453//453 581//581 452//452
f 582//582 581//581 453//453
f 454//454 582//582 453//453
f 579//579 578//578 450//450
f 593//593 592//592 464//464
f 554//554 553//553 425//425
f 553//553 552//552 424//424
f 525//525 524//524 396//396
f 397//397 525//525 396//396
f 526//526 525//525 397//397
f 398//398 526//526 397//397
f 527//527 526//526 398//398
f 399//399 527//527 398//398
f 528//528 527//527 399//399
f 396//396 524//524 395//395
f 400//400 528//528 399//399
f 401//401 529//529 400//400
f 530//530 529//529 401//401
f 402//402 530//530 401//401
f 531//531 530//530 402//402
f 403//403 531//531 402//402
f 532//532 531//531 403//403
f 404//404 532//532 403//403
f 529//529 528//528 400//400
f 533//533 532//532 404//404
f 524//524 523//523 395//395
f 523//523 522//522 394//394
f 515//515 514//514 386//386
f 387//387 515//515 386//386
f 516//516 515//515 387//387
f 388//388 516//516 387//387
f 517//517 516//516 388//388
f 389//389 517//517 388//388
f 518//518 517//517 389//389
f 395//395 523//523 394//394
f 390//390 518//518 389//389
f 391//391 519//519 390//390
f 520//520 519//519 391//391
f 392//392 520//520 391//391
f 521//521 520//520 392//392
f 393//393 521//521 392//392
f 522//522 521//521 393//393
f 394//394 522//522 393//393
f 519//519 518//518 390//390
f 425//425 553//553 424//424
f 405//405 533//533 404//404
f 406//406 534//534 405//405
f 545//545 544//544 416//416
f 417//417 545//545 416//416
f 546//546 545//545 417//417
f 418//418 546//546 417//417
f 547//547 546//546 418//418
f 419//419 547//547 418//418
f 548//548 547//547 419//419
f 416//416 544//544 415//415
f 420//420 548//548 419//419
f 421//421 549//549 420//420
f 550//550 549//549 421//421
f 422//422 550//550 421//421
f 551//551 550//550 422//422
f 423//423 551//551 422//422
f 552//552 551//551 423//423
f 424//424 552//552 423//423
f 549//549 548//548 420//420
f 534//534 533//533 405//405
f 544//544 543//543 415//415
f 543//543 542//542 414//414
f 535//535 534//534 406//406
f 407//407 535//535 406//406
f 536//536 535//535 407//407
f 408//408 536//536 407//407
f 537//537 536//536 408//408
f 409//409 537//537 408//408
f 538//538 537//537 409//409
f 415//415 543//543 414//414
f 410//410 538//538 409//409
f 411//411 539//539 410//410
f 540//540 539//539 411//411
f 412//412 540//540 411//411
f 541//541 540//540 412//412
f 413//413 541//541 412//412
f 542//542 541//541 413//413
f 414//414 542//542 413//413
f 539//539 538//538 410//410
f 465//465 593//593 464//464
f 594//594 593//593 465//465
f 466//466 594//594 465//465
f 517//517 645//645 516//516
f 646//646 645//645 517//517
f 518//518 646//646 517//517
f 647//647 646//646 518//518
f 519//519 647//647 518//518
f 648//648 647//647 519//519
f 520//520 648//648 519//519
f 645//645 644//644 516//516
f 649//649 648//648 520//520
f 650//650 649//649 521//521
f 522//522 650//650 521//521
f 651//651 650//650 522//522
f 523//523 651//651 522//522
f 652//652 651//651 523//523
f 524//524 652//652 523//523
f 653//653 652//652 524//524
f 521//521 649//649 520//520
f 525//525 653//653 524//524
f 516//516 644//644 515//515
f 515//515 643//643 514//514
f 507//507 635//635 506//506
f 636//636 635//635 507//507
f 508//508 636//636 507//507
f 637//637 636//636 508//508
f 509//509 637//637 508//508
f 638//638 637//637 509//509
f 510//510 638//638 509//509
f 644//644 643//643 515//515
f 639//639 638//638 510//510
f 640//640 639//639 511//511
f 512//512 640//640 511//511
f 641//641 640//640 512//512
f 513//513 641//641 512//512
f 514//514 641//641 513//513
f 386//386 514//514 513//513
f 643//643 642//642 514//514
f 511//511 639//639 510//510
f 635//635 634//634 506//506
f 654//654 653//653 525//525
f 655//655 654//654 526//526
f 537//537 665//665 536//536
f 666//666 665//665 537//537
f 538//538 666//666 537//537
f 667//667 666//666 538//538
f 539//539 667//667 538//538
f 668//668 667//667 539//539
f 540//540 668//668 539//539
f 665//665 664//664 536//536
f 669//669 668//668 540//540
f 670//670 669//669 541//541
f 542//542 670//670 541//541
f 671//671 670//670 542//542
f 543//543 671//671 542//542
f 672//672 671//671 543//543
f 544//544 672//672 543//543
f 673//673 672//672 544//544
f 541//541 669//669 540//540
f 526//526 654//654 525//525
f 536//536 664//664 535//535
f 535//535 663//663 534//534
f 527//527 655//655 526//526
f 656//656 655//655 527//527
f 528//528 656//656 527//527
f 657//657 656//656 528//528
f 529//529 657//657 528//528
f 658//658 657//657 529//529
f 530//530 658//658 529//529
f 664//664 663//663 535//535
f 659//659 658//658 530//530
f 660//660 659//659 531//531
f 532//532 660//660 531//531
f 661//661 660//660 532//532
f 533//533 661//661 532//532
f 662//662 661//661 533//533
f 534//534 662//662 533//533
f 663//663 662//662 534//534
f 531//531 659//659 530//530
f 506//506 634//634 505//505
f 634//634 633//633 505//505
f 505//505 633//633 504//504
f 605//605 604//604 476//476
f 477//477 605//605 476//476
f 606//606 605//605 477//477
f 478//478 606//606 477//477
f 607//607 606//606 478//478
f 479//479 607//607 478//478
f 608//608 607//607 479//479
f 476//476 604//604 475//475
f 480//480 608//608 479//479
f 481//481 609//609 480//480
f 610//610 609//609 481//481
f 482//482 610//610 481//481
f 611//611 610//610 482//482
f 483//483 611//611 482//482
f 612//612 611//611 483//483
f 484//484 612//612 483//483
f 609//609 608//608 480//480
f 613//613 612//612 484//484
f 604//604 603//603 475//475
f 603//603 602//602 474//474
f 595//595 594//594 466//466
f 467//467 595//595 466//466
f 596//596 595//595 467//467
f 468//468 596//596 467//467
f 597//597 596//596 468//468
f 469//469 597//597 468//468
f 598//598 597//597 469//469
f 475//475 603//603 474//474
f 470//470 598//598 469//469
f 471//471 599//599 470//470
f 600//600 599//599 471//471
f 472//472 600//600 471//471
f 601//601 600//600 472//472
f 473//473 601//601 472//472
f 602//602 601//601 473//473
f 474//474 602//602 473//473
f 599//599 598//598 470//470
f 485//485 613//613 484//484
f 614//614 613//613 485//485
f 486//486 614//614 485//485
f 497//497 625//625 496//496
f 626//626 625//625 497//497
f 498//498 626//626 497//497
f 627//627 626//626 498//498
f 499//499 627//627 498//498
f 628//628 627//627 499//499
f 500//500 628//628 499//499
f 625//625 624//624 496//496
f 629//629 628//628 500//500
f 630//630 629//629 501//501
f 502//502 630//630 501//501
f 631//631 630//630 502//502
f 503//503 631//631 502//502
f 632//632 631//631 503//503
f 504//504 632//632 503//503
f 633//633 632//632 504//504
f 501//501 629//629 500//500
f 496//496 624//624 495//495
f 624//624 623//623 495//495
f 495//495 623//623 494//494
f 615//615 614//614 486//486
f 487//487 615//615 486//486
f 616//616 615//615 487//487
f 488//488 616//616 487//487
f 617//617 616//616 488//488
f 489//489 617//617 488//488
f 618//618 617//617 489//489
f 490//490 618//618 489//489
f 619//619 618//618 490//490
f 491//491 619//619 490//490
f 620//620 619//619 491//491
f 492//492 620//620 491//491
f 621//621 620//620 492//492
f 493//493 621//621 492//492
f 622//622 621//621 493//493
f 494//494 622//622 493//493
f 623//623 622//622 494//494
f 674//674 673//673 545//545
f 642//642 770//770 769//769
