# Independent procedural camera geometry; meters; Z up
o ambient_light_sensor_bezel
v 0.0071180000 -0.0120700000 0.0248000000
v 0.0071180000 -0.0120722053 0.0248673652
v 0.0071180000 -0.0120788118 0.0249344420
v 0.0071180000 -0.0120897912 0.0250009430
v 0.0071180000 -0.0121050964 0.0250665836
v 0.0071180000 -0.0121246620 0.0251310826
v 0.0071180000 -0.0121484041 0.0251941639
v 0.0071180000 -0.0121762211 0.0252555574
v 0.0071180000 -0.0122079938 0.0253150000
v 0.0071180000 -0.0122435863 0.0253722373
v 0.0071180000 -0.0122828461 0.0254270243
v 0.0071180000 -0.0123256050 0.0254791262
v 0.0071180000 -0.0123716800 0.0255283200
v 0.0071180000 -0.0124208738 0.0255743950
v 0.0071180000 -0.0124729757 0.0256171539
v 0.0071180000 -0.0125277627 0.0256564137
v 0.0071180000 -0.0125850000 0.0256920062
v 0.0071180000 -0.0126444426 0.0257237789
v 0.0071180000 -0.0127058361 0.0257515959
v 0.0071180000 -0.0127689174 0.0257753380
v 0.0071180000 -0.0128334164 0.0257949036
v 0.0071180000 -0.0128990570 0.0258102088
v 0.0071180000 -0.0129655580 0.0258211882
v 0.0071180000 -0.0130326348 0.0258277947
v 0.0071180000 -0.0131000000 0.0258300000
v 0.0071180000 -0.0131673652 0.0258277947
v 0.0071180000 -0.0132344420 0.0258211882
v 0.0071180000 -0.0133009430 0.0258102088
v 0.0071180000 -0.0133665836 0.0257949036
v 0.0071180000 -0.0134310826 0.0257753380
v 0.0071180000 -0.0134941639 0.0257515959
v 0.0071180000 -0.0135555574 0.0257237789
v 0.0071180000 -0.0136150000 0.0256920062
v 0.0071180000 -0.0136722373 0.0256564137
v 0.0071180000 -0.0137270243 0.0256171539
v 0.0071180000 -0.0137791262 0.0255743950
v 0.0071180000 -0.0138283200 0.0255283200
v 0.0071180000 -0.0138743950 0.0254791262
v 0.0071180000 -0.0139171539 0.0254270243
v 0.0071180000 -0.0139564137 0.0253722373
v 0.0071180000 -0.0139920062 0.0253150000
v 0.0071180000 -0.0140237789 0.0252555574
v 0.0071180000 -0.0140515959 0.0251941639
v 0.0071180000 -0.0140753380 0.0251310826
v 0.0071180000 -0.0140949036 0.0250665836
v 0.0071180000 -0.0141102088 0.0250009430
v 0.0071180000 -0.0141211882 0.0249344420
v 0.0071180000 -0.0141277947 0.0248673652
v 0.0071180000 -0.0141300000 0.0248000000
v 0.0071180000 -0.0141277947 0.0247326348
v 0.0071180000 -0.0141211882 0.0246655580
v 0.0071180000 -0.0141102088 0.0245990570
v 0.0071180000 -0.0140949036 0.0245334164
v 0.0071180000 -0.0140753380 0.0244689174
v 0.0071180000 -0.0140515959 0.0244058361
v 0.0071180000 -0.0140237789 0.0243444426
v 0.0071180000 -0.0139920062 0.0242850000
v 0.0071180000 -0.0139564137 0.0242277627
v 0.0071180000 -0.0139171539 0.0241729757
v 0.0071180000 -0.0138743950 0.0241208738
v 0.0071180000 -0.0138283200 0.0240716800
v 0.0071180000 -0.0137791262 0.0240256050
v 0.0071180000 -0.0137270243 0.0239828461
v 0.0071180000 -0.0136722373 0.0239435863
v 0.0071180000 -0.0136150000 0.0239079938
v 0.0071180000 -0.0135555574 0.0238762211
v 0.0071180000 -0.0134941639 0.0238484041
v 0.0071180000 -0.0134310826 0.0238246620
v 0.0071180000 -0.0133665836 0.0238050964
v 0.0071180000 -0.0133009430 0.0237897912
v 0.0071180000 -0.0132344420 0.0237788118
v 0.0071180000 -0.0131673652 0.0237722053
v 0.0071180000 -0.0131000000 0.0237700000
v 0.0071180000 -0.0130326348 0.0237722053
v 0.0071180000 -0.0129655580 0.0237788118
v 0.0071180000 -0.0128990570 0.0237897912
v 0.0071180000 -0.0128334164 0.0238050964
v 0.0071180000 -0.0127689174 0.0238246620
v 0.0071180000 -0.0127058361 0.0238484041
v 0.0071180000 -0.0126444426 0.0238762211
v 0.0071180000 -0.0125850000 0.0239079938
v 0.0071180000 -0.0125277627 0.0239435863
v 0.0071180000 -0.0124729757 0.0239828461
v 0.0071180000 -0.0124208738 0.0240256050
v 0.0071180000 -0.0123716800 0.0240716800
v 0.0071180000 -0.0123256050 0.0241208738
v 0.0071180000 -0.0122828461 0.0241729757
v 0.0071180000 -0.0122435863 0.0242277627
v 0.0071180000 -0.0122079938 0.0242850000
v 0.0071180000 -0.0121762211 0.0243444426
v 0.0071180000 -0.0121484041 0.0244058361
v 0.0071180000 -0.0121246620 0.0244689174
v 0.0071180000 -0.0121050964 0.0245334164
v 0.0071180000 -0.0120897912 0.0245990570
v 0.0071180000 -0.0120788118 0.0246655580
v 0.0071180000 -0.0120722053 0.0247326348
v 0.0071180000 -0.0118300000 0.0248000000
v 0.0071180000 -0.0118327192 0.0248830620
v 0.0071180000 -0.0118408650 0.0249657683
v 0.0071180000 -0.0118544027 0.0250477647
v 0.0071180000 -0.0118732742 0.0251287002
v 0.0071180000 -0.0118973987 0.0252082281
v 0.0071180000 -0.0119266730 0.0252860080
v 0.0071180000 -0.0119609716 0.0253617066
v 0.0071180000 -0.0120001477 0.0254350000
v 0.0071180000 -0.0120440336 0.0255055742
v 0.0071180000 -0.0120924413 0.0255731270
v 0.0071180000 -0.0121451634 0.0256373692
v 0.0071180000 -0.0122019744 0.0256980256
v 0.0071180000 -0.0122626308 0.0257548366
v 0.0071180000 -0.0123268730 0.0258075587
v 0.0071180000 -0.0123944258 0.0258559664
v 0.0071180000 -0.0124650000 0.0258998523
v 0.0071180000 -0.0125382934 0.0259390284
v 0.0071180000 -0.0126139920 0.0259733270
v 0.0071180000 -0.0126917719 0.0260026013
v 0.0071180000 -0.0127712998 0.0260267258
v 0.0071180000 -0.0128522353 0.0260455973
v 0.0071180000 -0.0129342317 0.0260591350
v 0.0071180000 -0.0130169380 0.0260672808
v 0.0071180000 -0.0131000000 0.0260700000
v 0.0071180000 -0.0131830620 0.0260672808
v 0.0071180000 -0.0132657683 0.0260591350
v 0.0071180000 -0.0133477647 0.0260455973
v 0.0071180000 -0.0134287002 0.0260267258
v 0.0071180000 -0.0135082281 0.0260026013
v 0.0071180000 -0.0135860080 0.0259733270
v 0.0071180000 -0.0136617066 0.0259390284
v 0.0071180000 -0.0137350000 0.0258998523
v 0.0071180000 -0.0138055742 0.0258559664
v 0.0071180000 -0.0138731270 0.0258075587
v 0.0071180000 -0.0139373692 0.0257548366
v 0.0071180000 -0.0139980256 0.0256980256
v 0.0071180000 -0.0140548366 0.0256373692
v 0.0071180000 -0.0141075587 0.0255731270
v 0.0071180000 -0.0141559664 0.0255055742
v 0.0071180000 -0.0141998523 0.0254350000
v 0.0071180000 -0.0142390284 0.0253617066
v 0.0071180000 -0.0142733270 0.0252860080
v 0.0071180000 -0.0143026013 0.0252082281
v 0.0071180000 -0.0143267258 0.0251287002
v 0.0071180000 -0.0143455973 0.0250477647
v 0.0071180000 -0.0143591350 0.0249657683
v 0.0071180000 -0.0143672808 0.0248830620
v 0.0071180000 -0.0143700000 0.0248000000
v 0.0071180000 -0.0143672808 0.0247169380
v 0.0071180000 -0.0143591350 0.0246342317
v 0.0071180000 -0.0143455973 0.0245522353
v 0.0071180000 -0.0143267258 0.0244712998
v 0.0071180000 -0.0143026013 0.0243917719
v 0.0071180000 -0.0142733270 0.0243139920
v 0.0071180000 -0.0142390284 0.0242382934
v 0.0071180000 -0.0141998523 0.0241650000
v 0.0071180000 -0.0141559664 0.0240944258
v 0.0071180000 -0.0141075587 0.0240268730
v 0.0071180000 -0.0140548366 0.0239626308
v 0.0071180000 -0.0139980256 0.0239019744
v 0.0071180000 -0.0139373692 0.0238451634
v 0.0071180000 -0.0138731270 0.0237924413
v 0.0071180000 -0.0138055742 0.0237440336
v 0.0071180000 -0.0137350000 0.0237001477
v 0.0071180000 -0.0136617066 0.0236609716
v 0.0071180000 -0.0135860080 0.0236266730
v 0.0071180000 -0.0135082281 0.0235973987
v 0.0071180000 -0.0134287002 0.0235732742
v 0.0071180000 -0.0133477647 0.0235544027
v 0.0071180000 -0.0132657683 0.0235408650
v 0.0071180000 -0.0131830620 0.0235327192
v 0.0071180000 -0.0131000000 0.0235300000
v 0.0071180000 -0.0130169380 0.0235327192
v 0.0071180000 -0.0129342317 0.0235408650
v 0.0071180000 -0.0128522353 0.0235544027
v 0.0071180000 -0.0127712998 0.0235732742
v 0.0071180000 -0.0126917719 0.0235973987
v 0.0071180000 -0.0126139920 0.0236266730
v 0.0071180000 -0.0125382934 0.0236609716
v 0.0071180000 -0.0124650000 0.0237001477
v 0.0071180000 -0.0123944258 0.0237440336
v 0.0071180000 -0.0123268730 0.0237924413
v 0.0071180000 -0.0122626308 0.0238451634
v 0.0071180000 -0.0122019744 0.0239019744
v 0.0071180000 -0.0121451634 0.0239626308
v 0.0071180000 -0.0120924413 0.0240268730
v 0.0071180000 -0.0120440336 0.0240944258
v 0.0071180000 -0.0120001477 0.0241650000
v 0.0071180000 -0.0119609716 0.0242382934
v 0.0071180000 -0.0119266730 0.0243139920
v 0.0071180000 -0.0118973987 0.0243917719
v 0.0071180000 -0.0118732742 0.0244712998
v 0.0071180000 -0.0118544027 0.0245522353
v 0.0071180000 -0.0118408650 0.0246342317
v 0.0071180000 -0.0118327192 0.0247169380
v 0.0071180000 -0.0118300000 0.0248000000
v 0.0071180000 -0.0118327192 0.0248830620
v 0.0071180000 -0.0118408650 0.0249657683
v 0.0071180000 -0.0118544027 0.0250477647
v 0.0071180000 -0.0118732742 0.0251287002
v 0.0071180000 -0.0118973987 0.0252082281
v 0.0071180000 -0.0119266730 0.0252860080
v 0.0071180000 -0.0119609716 0.0253617066
v 0.0071180000 -0.0120001477 0.0254350000
v 0.0071180000 -0.0120440336 0.0255055742
v 0.0071180000 -0.0120924413 0.0255731270
v 0.0071180000 -0.0121451634 0.0256373692
v 0.0071180000 -0.0122019744 0.0256980256
v 0.0071180000 -0.0122626308 0.0257548366
v 0.0071180000 -0.0123268730 0.0258075587
v 0.0071180000 -0.0123944258 0.0258559664
v 0.0071180000 -0.0124650000 0.0258998523
v 0.0071180000 -0.0125382934 0.0259390284
v 0.0071180000 -0.0126139920 0.0259733270
v 0.0071180000 -0.0126917719 0.0260026013
v 0.0071180000 -0.0127712998 0.0260267258
v 0.0071180000 -0.0128522353 0.0260455973
v 0.0071180000 -0.0129342317 0.0260591350
v 0.0071180000 -0.0130169380 0.0260672808
v 0.0071180000 -0.0131000000 0.0260700000
v 0.0071180000 -0.0131830620 0.0260672808
v 0.0071180000 -0.0132657683 0.0260591350
v 0.0071180000 -0.0133477647 0.0260455973
v 0.0071180000 -0.0134287002 0.0260267258
v 0.0071180000 -0.0135082281 0.0260026013
v 0.0071180000 -0.0135860080 0.0259733270
v 0.0071180000 -0.0136617066 0.0259390284
v 0.0071180000 -0.0137350000 0.0258998523
v 0.0071180000 -0.0138055742 0.0258559664
v 0.0071180000 -0.0138731270 0.0258075587
v 0.0071180000 -0.0139373692 0.0257548366
v 0.0071180000 -0.0139980256 0.0256980256
v 0.0071180000 -0.0140548366 0.0256373692
v 0.0071180000 -0.0141075587 0.0255731270
v 0.0071180000 -0.0141559664 0.0255055742
v 0.0071180000 -0.0141998523 0.0254350000
v 0.0071180000 -0.0142390284 0.0253617066
v 0.0071180000 -0.0142733270 0.0252860080
v 0.0071180000 -0.0143026013 0.0252082281
v 0.0071180000 -0.0143267258 0.0251287002
v 0.0071180000 -0.0143455973 0.0250477647
v 0.0071180000 -0.0143591350 0.0249657683
v 0.0071180000 -0.0143672808 0.0248830620
v 0.0071180000 -0.0143700000 0.0248000000
v 0.0071180000 -0.0143672808 0.0247169380
v 0.0071180000 -0.0143591350 0.0246342317
v 0.0071180000 -0.0143455973 0.0245522353
v 0.0071180000 -0.0143267258 0.0244712998
v 0.0071180000 -0.0143026013 0.0243917719
v 0.0071180000 -0.0142733270 0.0243139920
v 0.0071180000 -0.0142390284 0.0242382934
v 0.0071180000 -0.0141998523 0.0241650000
v 0.0071180000 -0.0141559664 0.0240944258
v 0.0071180000 -0.0141075587 0.0240268730
v 0.0071180000 -0.0140548366 0.0239626308
v 0.0071180000 -0.0139980256 0.0239019744
v 0.0071180000 -0.0139373692 0.0238451634
v 0.0071180000 -0.0138731270 0.0237924413
v 0.0071180000 -0.0138055742 0.0237440336
v 0.0071180000 -0.0137350000 0.0237001477
v 0.0071180000 -0.0136617066 0.0236609716
v 0.0071180000 -0.0135860080 0.0236266730
v 0.0071180000 -0.0135082281 0.0235973987
v 0.0071180000 -0.0134287002 0.0235732742
v 0.0071180000 -0.0133477647 0.0235544027
v 0.0071180000 -0.0132657683 0.0235408650
v 0.0071180000 -0.0131830620 0.0235327192
v 0.0071180000 -0.0131000000 0.0235300000
v 0.0071180000 -0.0130169380 0.0235327192
v 0.0071180000 -0.0129342317 0.0235408650
v 0.0071180000 -0.0128522353 0.0235544027
v 0.0071180000 -0.0127712998 0.0235732742
v 0.0071180000 -0.0126917719 0.0235973987
v 0.0071180000 -0.0126139920 0.0236266730
v 0.0071180000 -0.0125382934 0.0236609716
v 0.0071180000 -0.0124650000 0.0237001477
v 0.0071180000 -0.0123944258 0.0237440336
v 0.0071180000 -0.0123268730 0.0237924413
v 0.0071180000 -0.0122626308 0.0238451634
v 0.0071180000 -0.0122019744 0.0239019744
v 0.0071180000 -0.0121451634 0.0239626308
v 0.0071180000 -0.0120924413 0.0240268730
v 0.0071180000 -0.0120440336 0.0240944258
v 0.0071180000 -0.0120001477 0.0241650000
v 0.0071180000 -0.0119609716 0.0242382934
v 0.0071180000 -0.0119266730 0.0243139920
v 0.0071180000 -0.0118973987 0.0243917719
v 0.0071180000 -0.0118732742 0.0244712998
v 0.0071180000 -0.0118544027 0.0245522353
v 0.0071180000 -0.0118408650 0.0246342317
v 0.0071180000 -0.0118327192 0.0247169380
v 0.0071880000 -0.0118300000 0.0248000000
v 0.0071880000 -0.0118327192 0.0248830620
v 0.0071880000 -0.0118408650 0.0249657683
v 0.0071880000 -0.0118544027 0.0250477647
v 0.0071880000 -0.0118732742 0.0251287002
v 0.0071880000 -0.0118973987 0.0252082281
v 0.0071880000 -0.0119266730 0.0252860080
v 0.0071880000 -0.0119609716 0.0253617066
v 0.0071880000 -0.0120001477 0.0254350000
v 0.0071880000 -0.0120440336 0.0255055742
v 0.0071880000 -0.0120924413 0.0255731270
v 0.0071880000 -0.0121451634 0.0256373692
v 0.0071880000 -0.0122019744 0.0256980256
v 0.0071880000 -0.0122626308 0.0257548366
v 0.0071880000 -0.0123268730 0.0258075587
v 0.0071880000 -0.0123944258 0.0258559664
v 0.0071880000 -0.0124650000 0.0258998523
v 0.0071880000 -0.0125382934 0.0259390284
v 0.0071880000 -0.0126139920 0.0259733270
v 0.0071880000 -0.0126917719 0.0260026013
v 0.0071880000 -0.0127712998 0.0260267258
v 0.0071880000 -0.0128522353 0.0260455973
v 0.0071880000 -0.0129342317 0.0260591350
v 0.0071880000 -0.0130169380 0.0260672808
v 0.0071880000 -0.0131000000 0.0260700000
v 0.0071880000 -0.0131830620 0.0260672808
v 0.0071880000 -0.0132657683 0.0260591350
v 0.0071880000 -0.0133477647 0.0260455973
v 0.0071880000 -0.0134287002 0.0260267258
v 0.0071880000 -0.0135082281 0.0260026013
v 0.0071880000 -0.0135860080 0.0259733270
v 0.0071880000 -0.0136617066 0.0259390284
v 0.0071880000 -0.0137350000 0.0258998523
v 0.0071880000 -0.0138055742 0.0258559664
v 0.0071880000 -0.0138731270 0.0258075587
v 0.0071880000 -0.0139373692 0.0257548366
v 0.0071880000 -0.0139980256 0.0256980256
v 0.0071880000 -0.0140548366 0.0256373692
v 0.0071880000 -0.0141075587 0.0255731270
v 0.0071880000 -0.0141559664 0.0255055742
v 0.0071880000 -0.0141998523 0.0254350000
v 0.0071880000 -0.0142390284 0.0253617066
v 0.0071880000 -0.0142733270 0.0252860080
v 0.0071880000 -0.0143026013 0.0252082281
v 0.0071880000 -0.0143267258 0.0251287002
v 0.0071880000 -0.0143455973 0.0250477647
v 0.0071880000 -0.0143591350 0.0249657683
v 0.0071880000 -0.0143672808 0.0248830620
v 0.0071880000 -0.0143700000 0.0248000000
v 0.0071880000 -0.0143672808 0.0247169380
v 0.0071880000 -0.0143591350 0.0246342317
v 0.0071880000 -0.0143455973 0.0245522353
v 0.0071880000 -0.0143267258 0.0244712998
v 0.0071880000 -0.0143026013 0.0243917719
v 0.0071880000 -0.0142733270 0.0243139920
v 0.0071880000 -0.0142390284 0.0242382934
v 0.0071880000 -0.0141998523 0.0241650000
v 0.0071880000 -0.0141559664 0.0240944258
v 0.0071880000 -0.0141075587 0.0240268730
v 0.0071880000 -0.0140548366 0.0239626308
v 0.0071880000 -0.0139980256 0.0239019744
v 0.0071880000 -0.0139373692 0.0238451634
v 0.0071880000 -0.0138731270 0.0237924413
v 0.0071880000 -0.0138055742 0.0237440336
v 0.0071880000 -0.0137350000 0.0237001477
v 0.0071880000 -0.0136617066 0.0236609716
v 0.0071880000 -0.0135860080 0.0236266730
v 0.0071880000 -0.0135082281 0.0235973987
v 0.0071880000 -0.0134287002 0.0235732742
v 0.0071880000 -0.0133477647 0.0235544027
v 0.0071880000 -0.0132657683 0.0235408650
v 0.0071880000 -0.0131830620 0.0235327192
v 0.0071880000 -0.0131000000 0.0235300000
v 0.0071880000 -0.0130169380 0.0235327192
v 0.0071880000 -0.0129342317 0.0235408650
v 0.0071880000 -0.0128522353 0.0235544027
v 0.0071880000 -0.0127712998 0.0235732742
v 0.0071880000 -0.0126917719 0.0235973987
v 0.0071880000 -0.0126139920 0.0236266730
v 0.0071880000 -0.0125382934 0.0236609716
v 0.0071880000 -0.0124650000 0.0237001477
v 0.0071880000 -0.0123944258 0.0237440336
v 0.0071880000 -0.0123268730 0.0237924413
v 0.0071880000 -0.0122626308 0.0238451634
v 0.0071880000 -0.0122019744 0.0239019744
v 0.0071880000 -0.0121451634 0.0239626308
v 0.0071880000 -0.0120924413 0.0240268730
v 0.0071880000 -0.0120440336 0.0240944258
v 0.0071880000 -0.0120001477 0.0241650000
v 0.0071880000 -0.0119609716 0.0242382934
v 0.0071880000 -0.0119266730 0.0243139920
v 0.0071880000 -0.0118973987 0.0243917719
v 0.0071880000 -0.0118732742 0.0244712998
v 0.0071880000 -0.0118544027 0.0245522353
v 0.0071880000 -0.0118408650 0.0246342317
v 0.0071880000 -0.0118327192 0.0247169380
v 0.0071880000 -0.0118300000 0.0248000000
v 0.0071880000 -0.0118327192 0.0248830620
v 0.0071880000 -0.0118408650 0.0249657683
v 0.0071880000 -0.0118544027 0.0250477647
v 0.0071880000 -0.0118732742 0.0251287002
v 0.0071880000 -0.0118973987 0.0252082281
v 0.0071880000 -0.0119266730 0.0252860080
v 0.0071880000 -0.0119609716 0.0253617066
v 0.0071880000 -0.0120001477 0.0254350000
v 0.0071880000 -0.0120440336 0.0255055742
v 0.0071880000 -0.0120924413 0.0255731270
v 0.0071880000 -0.0121451634 0.0256373692
v 0.0071880000 -0.0122019744 0.0256980256
v 0.0071880000 -0.0122626308 0.0257548366
v 0.0071880000 -0.0123268730 0.0258075587
v 0.0071880000 -0.0123944258 0.0258559664
v 0.0071880000 -0.0124650000 0.0258998523
v 0.0071880000 -0.0125382934 0.0259390284
v 0.0071880000 -0.0126139920 0.0259733270
v 0.0071880000 -0.0126917719 0.0260026013
v 0.0071880000 -0.0127712998 0.0260267258
v 0.0071880000 -0.0128522353 0.0260455973
v 0.0071880000 -0.0129342317 0.0260591350
v 0.0071880000 -0.0130169380 0.0260672808
v 0.0071880000 -0.0131000000 0.0260700000
v 0.0071880000 -0.0131830620 0.0260672808
v 0.0071880000 -0.0132657683 0.0260591350
v 0.0071880000 -0.0133477647 0.0260455973
v 0.0071880000 -0.0134287002 0.0260267258
v 0.0071880000 -0.0135082281 0.0260026013
v 0.0071880000 -0.0135860080 0.0259733270
v 0.0071880000 -0.0136617066 0.0259390284
v 0.0071880000 -0.0137350000 0.0258998523
v 0.0071880000 -0.0138055742 0.0258559664
v 0.0071880000 -0.0138731270 0.0258075587
v 0.0071880000 -0.0139373692 0.0257548366
v 0.0071880000 -0.0139980256 0.0256980256
v 0.0071880000 -0.0140548366 0.0256373692
v 0.0071880000 -0.0141075587 0.0255731270
v 0.0071880000 -0.0141559664 0.0255055742
v 0.0071880000 -0.0141998523 0.0254350000
v 0.0071880000 -0.0142390284 0.0253617066
v 0.0071880000 -0.0142733270 0.0252860080
v 0.0071880000 -0.0143026013 0.0252082281
v 0.0071880000 -0.0143267258 0.0251287002
v 0.0071880000 -0.0143455973 0.0250477647
v 0.0071880000 -0.0143591350 0.0249657683
v 0.0071880000 -0.0143672808 0.0248830620
v 0.0071880000 -0.0143700000 0.0248000000
v 0.0071880000 -0.0143672808 0.0247169380
v 0.0071880000 -0.0143591350 0.0246342317
v 0.0071880000 -0.0143455973 0.0245522353
v 0.0071880000 -0.0143267258 0.0244712998
v 0.0071880000 -0.0143026013 0.0243917719
v 0.0071880000 -0.0142733270 0.0243139920
v 0.0071880000 -0.0142390284 0.0242382934
v 0.0071880000 -0.0141998523 0.0241650000
v 0.0071880000 -0.0141559664 0.0240944258
v 0.0071880000 -0.0141075587 0.0240268730
v 0.0071880000 -0.0140548366 0.0239626308
v 0.0071880000 -0.0139980256 0.0239019744
v 0.0071880000 -0.0139373692 0.0238451634
v 0.0071880000 -0.0138731270 0.0237924413
v 0.0071880000 -0.0138055742 0.0237440336
v 0.0071880000 -0.0137350000 0.0237001477
v 0.0071880000 -0.0136617066 0.0236609716
v 0.0071880000 -0.0135860080 0.0236266730
v 0.0071880000 -0.0135082281 0.0235973987
v 0.0071880000 -0.0134287002 0.0235732742
v 0.0071880000 -0.0133477647 0.0235544027
v 0.0071880000 -0.0132657683 0.0235408650
v 0.0071880000 -0.0131830620 0.0235327192
v 0.0071880000 -0.0131000000 0.0235300000
v 0.0071880000 -0.0130169380 0.0235327192
v 0.0071880000 -0.0129342317 0.0235408650
v 0.0071880000 -0.0128522353 0.0235544027
v 0.0071880000 -0.0127712998 0.0235732742
v 0.0071880000 -0.0126917719 0.0235973987
v 0.0071880000 -0.0126139920 0.0236266730
v 0.0071880000 -0.0125382934 0.0236609716
v 0.0071880000 -0.0124650000 0.0237001477
v 0.0071880000 -0.0123944258 0.0237440336
v 0.0071880000 -0.0123268730 0.0237924413
v 0.0071880000 -0.0122626308 0.0238451634
v 0.0071880000 -0.0122019744 0.0239019744
v 0.0071880000 -0.0121451634 0.0239626308
v 0.0071880000 -0.0120924413 0.0240268730
v 0.0071880000 -0.0120440336 0.0240944258
v 0.0071880000 -0.0120001477 0.0241650000
v 0.0071880000 -0.0119609716 0.0242382934
v 0.0071880000 -0.0119266730 0.0243139920
v 0.0071880000 -0.0118973987 0.0243917719
v 0.0071880000 -0.0118732742 0.0244712998
v 0.0071880000 -0.0118544027 0.0245522353
v 0.0071880000 -0.0118408650 0.0246342317
v 0.0071880000 -0.0118327192 0.0247169380
v 0.0071880000 -0.0120700000 0.0248000000
v 0.0071880000 -0.0120722053 0.0248673652
v 0.0071880000 -0.0120788118 0.0249344420
v 0.0071880000 -0.0120897912 0.0250009430
v 0.0071880000 -0.0121050964 0.0250665836
v 0.0071880000 -0.0121246620 0.0251310826
v 0.0071880000 -0.0121484041 0.0251941639
v 0.0071880000 -0.0121762211 0.0252555574
v 0.0071880000 -0.0122079938 0.0253150000
v 0.0071880000 -0.0122435863 0.0253722373
v 0.0071880000 -0.0122828461 0.0254270243
v 0.0071880000 -0.0123256050 0.0254791262
v 0.0071880000 -0.0123716800 0.0255283200
v 0.0071880000 -0.0124208738 0.0255743950
v 0.0071880000 -0.0124729757 0.0256171539
v 0.0071880000 -0.0125277627 0.0256564137
v 0.0071880000 -0.0125850000 0.0256920062
v 0.0071880000 -0.0126444426 0.0257237789
v 0.0071880000 -0.0127058361 0.0257515959
v 0.0071880000 -0.0127689174 0.0257753380
v 0.0071880000 -0.0128334164 0.0257949036
v 0.0071880000 -0.0128990570 0.0258102088
v 0.0071880000 -0.0129655580 0.0258211882
v 0.0071880000 -0.0130326348 0.0258277947
v 0.0071880000 -0.0131000000 0.0258300000
v 0.0071880000 -0.0131673652 0.0258277947
v 0.0071880000 -0.0132344420 0.0258211882
v 0.0071880000 -0.0133009430 0.0258102088
v 0.0071880000 -0.0133665836 0.0257949036
v 0.0071880000 -0.0134310826 0.0257753380
v 0.0071880000 -0.0134941639 0.0257515959
v 0.0071880000 -0.0135555574 0.0257237789
v 0.0071880000 -0.0136150000 0.0256920062
v 0.0071880000 -0.0136722373 0.0256564137
v 0.0071880000 -0.0137270243 0.0256171539
v 0.0071880000 -0.0137791262 0.0255743950
v 0.0071880000 -0.0138283200 0.0255283200
v 0.0071880000 -0.0138743950 0.0254791262
v 0.0071880000 -0.0139171539 0.0254270243
v 0.0071880000 -0.0139564137 0.0253722373
v 0.0071880000 -0.0139920062 0.0253150000
v 0.0071880000 -0.0140237789 0.0252555574
v 0.0071880000 -0.0140515959 0.0251941639
v 0.0071880000 -0.0140753380 0.0251310826
v 0.0071880000 -0.0140949036 0.0250665836
v 0.0071880000 -0.0141102088 0.0250009430
v 0.0071880000 -0.0141211882 0.0249344420
v 0.0071880000 -0.0141277947 0.0248673652
v 0.0071880000 -0.0141300000 0.0248000000
v 0.0071880000 -0.0141277947 0.0247326348
v 0.0071880000 -0.0141211882 0.0246655580
v 0.0071880000 -0.0141102088 0.0245990570
v 0.0071880000 -0.0140949036 0.0245334164
v 0.0071880000 -0.0140753380 0.0244689174
v 0.0071880000 -0.0140515959 0.0244058361
v 0.0071880000 -0.0140237789 0.0243444426
v 0.0071880000 -0.0139920062 0.0242850000
v 0.0071880000 -0.0139564137 0.0242277627
v 0.0071880000 -0.0139171539 0.0241729757
v 0.0071880000 -0.0138743950 0.0241208738
v 0.0071880000 -0.0138283200 0.0240716800
v 0.0071880000 -0.0137791262 0.0240256050
v 0.0071880000 -0.0137270243 0.0239828461
v 0.0071880000 -0.0136722373 0.0239435863
v 0.0071880000 -0.0136150000 0.0239079938
v 0.0071880000 -0.0135555574 0.0238762211
v 0.0071880000 -0.0134941639 0.0238484041
v 0.0071880000 -0.0134310826 0.0238246620
v 0.0071880000 -0.0133665836 0.0238050964
v 0.0071880000 -0.0133009430 0.0237897912
v 0.0071880000 -0.0132344420 0.0237788118
v 0.0071880000 -0.0131673652 0.0237722053
v 0.0071880000 -0.0131000000 0.0237700000
v 0.0071880000 -0.0130326348 0.0237722053
v 0.0071880000 -0.0129655580 0.0237788118
v 0.0071880000 -0.0128990570 0.0237897912
v 0.0071880000 -0.0128334164 0.0238050964
v 0.0071880000 -0.0127689174 0.0238246620
v 0.0071880000 -0.0127058361 0.0238484041
v 0.0071880000 -0.0126444426 0.0238762211
v 0.0071880000 -0.0125850000 0.0239079938
v 0.0071880000 -0.0125277627 0.0239435863
v 0.0071880000 -0.0124729757 0.0239828461
v 0.0071880000 -0.0124208738 0.0240256050
v 0.0071880000 -0.0123716800 0.0240716800
v 0.0071880000 -0.0123256050 0.0241208738
v 0.0071880000 -0.0122828461 0.0241729757
v 0.0071880000 -0.0122435863 0.0242277627
v 0.0071880000 -0.0122079938 0.0242850000
v 0.0071880000 -0.0121762211 0.0243444426
v 0.0071880000 -0.0121484041 0.0244058361
v 0.0071880000 -0.0121246620 0.0244689174
v 0.0071880000 -0.0121050964 0.0245334164
v 0.0071880000 -0.0120897912 0.0245990570
v 0.0071880000 -0.0120788118 0.0246655580
v 0.0071880000 -0.0120722053 0.0247326348
v 0.0071180000 -0.0120700000 0.0248000000
v 0.0071180000 -0.0120722053 0.0248673652
v 0.0071180000 -0.0120788118 0.0249344420
v 0.0071180000 -0.0120897912 0.0250009430
v 0.0071180000 -0.0121050964 0.0250665836
v 0.0071180000 -0.0121246620 0.0251310826
v 0.0071180000 -0.0121484041 0.0251941639
v 0.0071180000 -0.0121762211 0.0252555574
v 0.0071180000 -0.0122079938 0.0253150000
v 0.0071180000 -0.0122435863 0.0253722373
v 0.0071180000 -0.0122828461 0.0254270243
v 0.0071180000 -0.0123256050 0.0254791262
v 0.0071180000 -0.0123716800 0.0255283200
v 0.0071180000 -0.0124208738 0.0255743950
v 0.0071180000 -0.0124729757 0.0256171539
v 0.0071180000 -0.0125277627 0.0256564137
v 0.0071180000 -0.0125850000 0.0256920062
v 0.0071180000 -0.0126444426 0.0257237789
v 0.0071180000 -0.0127058361 0.0257515959
v 0.0071180000 -0.0127689174 0.0257753380
v 0.0071180000 -0.0128334164 0.0257949036
v 0.0071180000 -0.0128990570 0.0258102088
v 0.0071180000 -0.0129655580 0.0258211882
v 0.0071180000 -0.0130326348 0.0258277947
v 0.0071180000 -0.0131000000 0.0258300000
v 0.0071180000 -0.0131673652 0.0258277947
v 0.0071180000 -0.0132344420 0.0258211882
v 0.0071180000 -0.0133009430 0.0258102088
v 0.0071180000 -0.0133665836 0.0257949036
v 0.0071180000 -0.0134310826 0.0257753380
v 0.0071180000 -0.0134941639 0.0257515959
v 0.0071180000 -0.0135555574 0.0257237789
v 0.0071180000 -0.0136150000 0.0256920062
v 0.0071180000 -0.0136722373 0.0256564137
v 0.0071180000 -0.0137270243 0.0256171539
v 0.0071180000 -0.0137791262 0.0255743950
v 0.0071180000 -0.0138283200 0.0255283200
v 0.0071180000 -0.0138743950 0.0254791262
v 0.0071180000 -0.0139171539 0.0254270243
v 0.0071180000 -0.0139564137 0.0253722373
v 0.0071180000 -0.0139920062 0.0253150000
v 0.0071180000 -0.0140237789 0.0252555574
v 0.0071180000 -0.0140515959 0.0251941639
v 0.0071180000 -0.0140753380 0.0251310826
v 0.0071180000 -0.0140949036 0.0250665836
v 0.0071180000 -0.0141102088 0.0250009430
v 0.0071180000 -0.0141211882 0.0249344420
v 0.0071180000 -0.0141277947 0.0248673652
v 0.0071180000 -0.0141300000 0.0248000000
v 0.0071180000 -0.0141277947 0.0247326348
v 0.0071180000 -0.0141211882 0.0246655580
v 0.0071180000 -0.0141102088 0.0245990570
v 0.0071180000 -0.0140949036 0.0245334164
v 0.0071180000 -0.0140753380 0.0244689174
v 0.0071180000 -0.0140515959 0.0244058361
v 0.0071180000 -0.0140237789 0.0243444426
v 0.0071180000 -0.0139920062 0.0242850000
v 0.0071180000 -0.0139564137 0.0242277627
v 0.0071180000 -0.0139171539 0.0241729757
v 0.0071180000 -0.0138743950 0.0241208738
v 0.0071180000 -0.0138283200 0.0240716800
v 0.0071180000 -0.0137791262 0.0240256050
v 0.0071180000 -0.0137270243 0.0239828461
v 0.0071180000 -0.0136722373 0.0239435863
v 0.0071180000 -0.0136150000 0.0239079938
v 0.0071180000 -0.0135555574 0.0238762211
v 0.0071180000 -0.0134941639 0.0238484041
v 0.0071180000 -0.0134310826 0.0238246620
v 0.0071180000 -0.0133665836 0.0238050964
v 0.0071180000 -0.0133009430 0.0237897912
v 0.0071180000 -0.0132344420 0.0237788118
v 0.0071180000 -0.0131673652 0.0237722053
v 0.0071180000 -0.0131000000 0.0237700000
v 0.0071180000 -0.0130326348 0.0237722053
v 0.0071180000 -0.0129655580 0.0237788118
v 0.0071180000 -0.0128990570 0.0237897912
v 0.0071180000 -0.0128334164 0.0238050964
v 0.0071180000 -0.0127689174 0.0238246620
v 0.0071180000 -0.0127058361 0.0238484041
v 0.0071180000 -0.0126444426 0.0238762211
v 0.0071180000 -0.0125850000 0.0239079938
v 0.0071180000 -0.0125277627 0.0239435863
v 0.0071180000 -0.0124729757 0.0239828461
v 0.0071180000 -0.0124208738 0.0240256050
v 0.0071180000 -0.0123716800 0.0240716800
v 0.0071180000 -0.0123256050 0.0241208738
v 0.0071180000 -0.0122828461 0.0241729757
v 0.0071180000 -0.0122435863 0.0242277627
v 0.0071180000 -0.0122079938 0.0242850000
v 0.0071180000 -0.0121762211 0.0243444426
v 0.0071180000 -0.0121484041 0.0244058361
v 0.0071180000 -0.0121246620 0.0244689174
v 0.0071180000 -0.0121050964 0.0245334164
v 0.0071180000 -0.0120897912 0.0245990570
v 0.0071180000 -0.0120788118 0.0246655580
v 0.0071180000 -0.0120722053 0.0247326348
v 0.0071880000 -0.0120700000 0.0248000000
v 0.0071880000 -0.0120722053 0.0248673652
v 0.0071880000 -0.0120788118 0.0249344420
v 0.0071880000 -0.0120897912 0.0250009430
v 0.0071880000 -0.0121050964 0.0250665836
v 0.0071880000 -0.0121246620 0.0251310826
v 0.0071880000 -0.0121484041 0.0251941639
v 0.0071880000 -0.0121762211 0.0252555574
v 0.0071880000 -0.0122079938 0.0253150000
v 0.0071880000 -0.0122435863 0.0253722373
v 0.0071880000 -0.0122828461 0.0254270243
v 0.0071880000 -0.0123256050 0.0254791262
v 0.0071880000 -0.0123716800 0.0255283200
v 0.0071880000 -0.0124208738 0.0255743950
v 0.0071880000 -0.0124729757 0.0256171539
v 0.0071880000 -0.0125277627 0.0256564137
v 0.0071880000 -0.0125850000 0.0256920062
v 0.0071880000 -0.0126444426 0.0257237789
v 0.0071880000 -0.0127058361 0.0257515959
v 0.0071880000 -0.0127689174 0.0257753380
v 0.0071880000 -0.0128334164 0.0257949036
v 0.0071880000 -0.0128990570 0.0258102088
v 0.0071880000 -0.0129655580 0.0258211882
v 0.0071880000 -0.0130326348 0.0258277947
v 0.0071880000 -0.0131000000 0.0258300000
v 0.0071880000 -0.0131673652 0.0258277947
v 0.0071880000 -0.0132344420 0.0258211882
v 0.0071880000 -0.0133009430 0.0258102088
v 0.0071880000 -0.0133665836 0.0257949036
v 0.0071880000 -0.0134310826 0.0257753380
v 0.0071880000 -0.0134941639 0.0257515959
v 0.0071880000 -0.0135555574 0.0257237789
v 0.0071880000 -0.0136150000 0.0256920062
v 0.0071880000 -0.0136722373 0.0256564137
v 0.0071880000 -0.0137270243 0.0256171539
v 0.0071880000 -0.0137791262 0.0255743950
v 0.0071880000 -0.0138283200 0.0255283200
v 0.0071880000 -0.0138743950 0.0254791262
v 0.0071880000 -0.0139171539 0.0254270243
v 0.0071880000 -0.0139564137 0.0253722373
v 0.0071880000 -0.0139920062 0.0253150000
v 0.0071880000 -0.0140237789 0.0252555574
v 0.0071880000 -0.0140515959 0.0251941639
v 0.0071880000 -0.0140753380 0.0251310826
v 0.0071880000 -0.0140949036 0.0250665836
v 0.0071880000 -0.0141102088 0.0250009430
v 0.0071880000 -0.0141211882 0.0249344420
v 0.0071880000 -0.0141277947 0.0248673652
v 0.0071880000 -0.0141300000 0.0248000000
v 0.0071880000 -0.0141277947 0.0247326348
v 0.0071880000 -0.0141211882 0.0246655580
v 0.0071880000 -0.0141102088 0.0245990570
v 0.0071880000 -0.0140949036 0.0245334164
v 0.0071880000 -0.0140753380 0.0244689174
v 0.0071880000 -0.0140515959 0.0244058361
v 0.0071880000 -0.0140237789 0.0243444426
v 0.0071880000 -0.0139920062 0.0242850000
v 0.0071880000 -0.0139564137 0.0242277627
v 0.0071880000 -0.0139171539 0.0241729757
v 0.0071880000 -0.0138743950 0.0241208738
v 0.0071880000 -0.0138283200 0.0240716800
v 0.0071880000 -0.0137791262 0.0240256050
v 0.0071880000 -0.0137270243 0.0239828461
v 0.0071880000 -0.0136722373 0.0239435863
v 0.0071880000 -0.0136150000 0.0239079938
v 0.0071880000 -0.0135555574 0.0238762211
v 0.0071880000 -0.0134941639 0.0238484041
v 0.0071880000 -0.0134310826 0.0238246620
v 0.0071880000 -0.0133665836 0.0238050964
v 0.0071880000 -0.0133009430 0.0237897912
v 0.0071880000 -0.0132344420 0.0237788118
v 0.0071880000 -0.0131673652 0.0237722053
v 0.0071880000 -0.0131000000 0.0237700000
v 0.0071880000 -0.0130326348 0.0237722053
v 0.0071880000 -0.0129655580 0.0237788118
v 0.0071880000 -0.0128990570 0.0237897912
v 0.0071880000 -0.0128334164 0.0238050964
v 0.0071880000 -0.0127689174 0.0238246620
v 0.0071880000 -0.0127058361 0.0238484041
v 0.0071880000 -0.0126444426 0.0238762211
v 0.0071880000 -0.0125850000 0.0239079938
v 0.0071880000 -0.0125277627 0.0239435863
v 0.0071880000 -0.0124729757 0.0239828461
v 0.0071880000 -0.0124208738 0.0240256050
v 0.0071880000 -0.0123716800 0.0240716800
v 0.0071880000 -0.0123256050 0.0241208738
v 0.0071880000 -0.0122828461 0.0241729757
v 0.0071880000 -0.0122435863 0.0242277627
v 0.0071880000 -0.0122079938 0.0242850000
v 0.0071880000 -0.0121762211 0.0243444426
v 0.0071880000 -0.0121484041 0.0244058361
v 0.0071880000 -0.0121246620 0.0244689174
v 0.0071880000 -0.0121050964 0.0245334164
v 0.0071880000 -0.0120897912 0.0245990570
v 0.0071880000 -0.0120788118 0.0246655580
v 0.0071880000 -0.0120722053 0.0247326348
vn -1.00000000 0.00000000 0.00000000
vn -1.00000000 0.00000000 0.00000000
vn -1.00000000 0.00000000 0.00000000
vn -1.00000000 0.00000000 0.00000000
vn -1.00000000 0.00000000 0.00000000
vn -1.00000000 0.00000000 0.00000000
vn -1.00000000 0.00000000 0.00000000
vn -1.00000000 0.00000000 0.00000000
vn -1.00000000 0.00000000 0.00000000
vn -1.00000000 0.00000000 0.00000000
vn -1.00000000 0.00000000 0.00000000
vn -1.00000000 0.00000000 0.00000000
vn -1.00000000 0.00000000 0.00000000
vn -1.00000000 0.00000000 0.00000000
vn -1.00000000 0.00000000 0.00000000
vn -1.00000000 0.00000000 0.00000000
vn -1.00000000 0.00000000 0.00000000
vn -1.00000000 0.00000000 0.00000000
vn -1.00000000 0.00000000 0.00000000
vn -1.00000000 0.00000000 0.00000000
vn -1.00000000 0.00000000 0.00000000
vn -1.00000000 0.00000000 0.00000000
vn -1.00000000 0.00000000 0.00000000
vn -1.00000000 0.00000000 0.00000000
vn -1.00000000 0.00000000 0.00000000
vn -1.00000000 0.00000000 0.00000000
vn -1.00000000 0.00000000 0.00000000
vn -1.00000000 0.00000000 0.00000000
vn -1.00000000 0.00000000 0.00000000
vn -1.00000000 0.00000000 0.00000000
vn -1.00000000 0.00000000 0.00000000
vn -1.00000000 0.00000000 0.00000000
vn -1.00000000 0.00000000 0.00000000
vn -1.00000000 0.00000000 0.00000000
vn -1.00000000 0.00000000 0.00000000
vn -1.00000000 0.00000000 0.00000000
vn -1.00000000 0.00000000 0.00000000
vn -1.00000000 0.00000000 0.00000000
vn -1.00000000 0.00000000 0.00000000
vn -1.00000000 0.00000000 0.00000000
vn -1.00000000 0.00000000 0.00000000
vn -1.00000000 0.00000000 0.00000000
vn -1.00000000 0.00000000 0.00000000
vn -1.00000000 0.00000000 0.00000000
vn -1.00000000 0.00000000 0.00000000
vn -1.00000000 0.00000000 0.00000000
vn -1.00000000 0.00000000 0.00000000
vn -1.00000000 0.00000000 0.00000000
vn -1.00000000 0.00000000 0.00000000
vn -1.00000000 0.00000000 0.00000000
vn -1.00000000 0.00000000 0.00000000
vn -1.00000000 0.00000000 0.00000000
vn -1.00000000 0.00000000 0.00000000
vn -1.00000000 0.00000000 0.00000000
vn -1.00000000 0.00000000 0.00000000
vn -1.00000000 0.00000000 0.00000000
vn -1.00000000 0.00000000 0.00000000
vn -1.00000000 0.00000000 0.00000000
vn -1.00000000 0.00000000 0.00000000
vn -1.00000000 0.00000000 0.00000000
vn -1.00000000 0.00000000 0.00000000
vn -1.00000000 0.00000000 0.00000000
vn -1.00000000 0.00000000 0.00000000
vn -1.00000000 0.00000000 0.00000000
vn -1.00000000 0.00000000 0.00000000
vn -1.00000000 0.00000000 0.00000000
vn -1.00000000 0.00000000 0.00000000
vn -1.00000000 0.00000000 0.00000000
vn -1.00000000 0.00000000 0.00000000
vn -1.00000000 0.00000000 0.00000000
vn -1.00000000 0.00000000 0.00000000
vn -1.00000000 0.00000000 0.00000000
vn -1.00000000 0.00000000 0.00000000
vn -1.00000000 0.00000000 0.00000000
vn -1.00000000 0.00000000 0.00000000
vn -1.00000000 0.00000000 0.00000000
vn -1.00000000 0.00000000 0.00000000
vn -1.00000000 0.00000000 0.00000000
vn -1.00000000 0.00000000 0.00000000
vn -1.00000000 0.00000000 0.00000000
vn -1.00000000 0.00000000 0.00000000
vn -1.00000000 0.00000000 0.00000000
vn -1.00000000 0.00000000 0.00000000
vn -1.00000000 0.00000000 0.00000000
vn -1.00000000 0.00000000 0.00000000
vn -1.00000000 0.00000000 0.00000000
vn -1.00000000 0.00000000 0.00000000
vn -1.00000000 0.00000000 0.00000000
vn -1.00000000 0.00000000 0.00000000
vn -1.00000000 0.00000000 0.00000000
vn -1.00000000 0.00000000 0.00000000
vn -1.00000000 0.00000000 0.00000000
vn -1.00000000 0.00000000 0.00000000
vn -1.00000000 0.00000000 0.00000000
vn -1.00000000 0.00000000 0.00000000
vn -1.00000000 0.00000000 0.00000000
vn -1.00000000 0.00000000 0.00000000
vn -1.00000000 0.00000000 0.00000000
vn -1.00000000 0.00000000 0.00000000
vn -1.00000000 0.00000000 0.00000000
vn -1.00000000 0.00000000 0.00000000
vn -1.00000000 0.00000000 0.00000000
vn -1.00000000 0.00000000 0.00000000
vn -1.00000000 0.00000000 0.00000000
vn -1.00000000 0.00000000 0.00000000
vn -1.00000000 0.00000000 0.00000000
vn -1.00000000 0.00000000 0.00000000
vn -1.00000000 0.00000000 0.00000000
vn -1.00000000 0.00000000 0.00000000
vn -1.00000000 0.00000000 0.00000000
vn -1.00000000 0.00000000 0.00000000
vn -1.00000000 0.00000000 0.00000000
vn -1.00000000 0.00000000 0.00000000
vn -1.00000000 0.00000000 0.00000000
vn -1.00000000 0.00000000 0.00000000
vn -1.00000000 0.00000000 0.00000000
vn -1.00000000 0.00000000 0.00000000
vn -1.00000000 0.00000000 0.00000000
vn -1.00000000 0.00000000 0.00000000
vn -1.00000000 0.00000000 0.00000000
vn -1.00000000 0.00000000 0.00000000
vn -1.00000000 0.00000000 0.00000000
vn -1.00000000 0.00000000 0.00000000
vn -1.00000000 0.00000000 0.00000000
vn -1.00000000 0.00000000 0.00000000
vn -1.00000000 0.00000000 0.00000000
vn -1.00000000 0.00000000 0.00000000
vn -1.00000000 0.00000000 0.00000000
vn -1.00000000 0.00000000 0.00000000
vn -1.00000000 0.00000000 0.00000000
vn -1.00000000 0.00000000 0.00000000
vn -1.00000000 0.00000000 0.00000000
vn -1.00000000 0.00000000 0.00000000
vn -1.00000000 0.00000000 0.00000000
vn -1.00000000 0.00000000 0.00000000
vn -1.00000000 0.00000000 0.00000000
vn -1.00000000 0.00000000 0.00000000
vn -1.00000000 0.00000000 0.00000000
vn -1.00000000 0.00000000 0.00000000
vn -1.00000000 0.00000000 0.00000000
vn -1.00000000 0.00000000 0.00000000
vn -1.00000000 0.00000000 0.00000000
vn -1.00000000 0.00000000 0.00000000
vn -1.00000000 0.00000000 0.00000000
vn -1.00000000 0.00000000 0.00000000
vn -1.00000000 0.00000000 0.00000000
vn -1.00000000 0.00000000 0.00000000
vn -1.00000000 0.00000000 0.00000000
vn -1.00000000 0.00000000 0.00000000
vn -1.00000000 0.00000000 0.00000000
vn -1.00000000 0.00000000 0.00000000
vn -1.00000000 0.00000000 0.00000000
vn -1.00000000 0.00000000 0.00000000
vn -1.00000000 0.00000000 0.00000000
vn -1.00000000 0.00000000 0.00000000
vn -1.00000000 0.00000000 0.00000000
vn -1.00000000 0.00000000 0.00000000
vn -1.00000000 0.00000000 0.00000000
vn -1.00000000 0.00000000 0.00000000
vn -1.00000000 0.00000000 0.00000000
vn -1.00000000 0.00000000 0.00000000
vn -1.00000000 0.00000000 0.00000000
vn -1.00000000 0.00000000 0.00000000
vn -1.00000000 0.00000000 0.00000000
vn -1.00000000 0.00000000 0.00000000
vn -1.00000000 0.00000000 0.00000000
vn -1.00000000 0.00000000 0.00000000
vn -1.00000000 0.00000000 0.00000000
vn -1.00000000 0.00000000 0.00000000
vn -1.00000000 0.00000000 0.00000000
vn -1.00000000 0.00000000 0.00000000
vn -1.00000000 0.00000000 0.00000000
vn -1.00000000 0.00000000 0.00000000
vn -1.00000000 0.00000000 0.00000000
vn -1.00000000 0.00000000 0.00000000
vn -1.00000000 0.00000000 0.00000000
vn -1.00000000 0.00000000 0.00000000
vn -1.00000000 0.00000000 0.00000000
vn -1.00000000 0.00000000 0.00000000
vn -1.00000000 0.00000000 0.00000000
vn -1.00000000 0.00000000 0.00000000
vn -1.00000000 0.00000000 0.00000000
vn -1.00000000 0.00000000 0.00000000
vn -1.00000000 0.00000000 0.00000000
vn -1.00000000 0.00000000 0.00000000
vn -1.00000000 0.00000000 0.00000000
vn -1.00000000 0.00000000 0.00000000
vn -1.00000000 0.00000000 0.00000000
vn -1.00000000 0.00000000 0.00000000
vn -1.00000000 0.00000000 0.00000000
vn -1.00000000 0.00000000 0.00000000
vn -1.00000000 0.00000000 0.00000000
vn 0.00000000 1.00000000 0.00000000
vn 0.00000000 0.99785892 0.06540313
vn 0.00000000 0.99144486 0.13052619
vn 0.00000000 0.98078528 0.19509032
vn 0.00000000 0.96592583 0.25881905
vn 0.00000000 0.94693013 0.32143947
vn 0.00000000 0.92387953 0.38268343
vn 0.00000000 0.89687274 0.44228869
vn 0.00000000 0.86602540 0.50000000
vn 0.00000000 0.83146961 0.55557023
vn 0.00000000 0.79335334 0.60876143
vn 0.00000000 0.75183981 0.65934582
vn 0.00000000 0.70710678 0.70710678
vn 0.00000000 0.65934582 0.75183981
vn 0.00000000 0.60876143 0.79335334
vn 0.00000000 0.55557023 0.83146961
vn 0.00000000 0.50000000 0.86602540
vn 0.00000000 0.44228869 0.89687274
vn 0.00000000 0.38268343 0.92387953
vn 0.00000000 0.32143947 0.94693013
vn 0.00000000 0.25881905 0.96592583
vn 0.00000000 0.19509032 0.98078528
vn 0.00000000 0.13052619 0.99144486
vn 0.00000000 0.06540313 0.99785892
vn 0.00000000 -0.00000000 1.00000000
vn 0.00000000 -0.06540313 0.99785892
vn 0.00000000 -0.13052619 0.99144486
vn 0.00000000 -0.19509032 0.98078528
vn 0.00000000 -0.25881905 0.96592583
vn 0.00000000 -0.32143947 0.94693013
vn 0.00000000 -0.38268343 0.92387953
vn 0.00000000 -0.44228869 0.89687274
vn 0.00000000 -0.50000000 0.86602540
vn 0.00000000 -0.55557023 0.83146961
vn 0.00000000 -0.60876143 0.79335334
vn 0.00000000 -0.65934582 0.75183981
vn 0.00000000 -0.70710678 0.70710678
vn 0.00000000 -0.75183981 0.65934582
vn 0.00000000 -0.79335334 0.60876143
vn 0.00000000 -0.83146961 0.55557023
vn 0.00000000 -0.86602540 0.50000000
vn 0.00000000 -0.89687274 0.44228869
vn 0.00000000 -0.92387953 0.38268343
vn 0.00000000 -0.94693013 0.32143947
vn 0.00000000 -0.96592583 0.25881905
vn 0.00000000 -0.98078528 0.19509032
vn 0.00000000 -0.99144486 0.13052619
vn 0.00000000 -0.99785892 0.06540313
vn 0.00000000 -1.00000000 -0.00000000
vn 0.00000000 -0.99785892 -0.06540313
vn 0.00000000 -0.99144486 -0.13052619
vn 0.00000000 -0.98078528 -0.19509032
vn 0.00000000 -0.96592583 -0.25881905
vn 0.00000000 -0.94693013 -0.32143947
vn 0.00000000 -0.92387953 -0.38268343
vn 0.00000000 -0.89687274 -0.44228869
vn 0.00000000 -0.86602540 -0.50000000
vn 0.00000000 -0.83146961 -0.55557023
vn 0.00000000 -0.79335334 -0.60876143
vn 0.00000000 -0.75183981 -0.65934582
vn 0.00000000 -0.70710678 -0.70710678
vn 0.00000000 -0.65934582 -0.75183981
vn 0.00000000 -0.60876143 -0.79335334
vn 0.00000000 -0.55557023 -0.83146961
vn 0.00000000 -0.50000000 -0.86602540
vn 0.00000000 -0.44228869 -0.89687274
vn 0.00000000 -0.38268343 -0.92387953
vn 0.00000000 -0.32143947 -0.94693013
vn 0.00000000 -0.25881905 -0.96592583
vn 0.00000000 -0.19509032 -0.98078528
vn 0.00000000 -0.13052619 -0.99144486
vn 0.00000000 -0.06540313 -0.99785892
vn 0.00000000 0.00000000 -1.00000000
vn 0.00000000 0.06540313 -0.99785892
vn 0.00000000 0.13052619 -0.99144486
vn 0.00000000 0.19509032 -0.98078528
vn 0.00000000 0.25881905 -0.96592583
vn 0.00000000 0.32143947 -0.94693013
vn 0.00000000 0.38268343 -0.92387953
vn 0.00000000 0.44228869 -0.89687274
vn 0.00000000 0.50000000 -0.86602540
vn 0.00000000 0.55557023 -0.83146961
vn 0.00000000 0.60876143 -0.79335334
vn 0.00000000 0.65934582 -0.75183981
vn 0.00000000 0.70710678 -0.70710678
vn 0.00000000 0.75183981 -0.65934582
vn 0.00000000 0.79335334 -0.60876143
vn 0.00000000 0.83146961 -0.55557023
vn 0.00000000 0.86602540 -0.50000000
vn 0.00000000 0.89687274 -0.44228869
vn 0.00000000 0.92387953 -0.38268343
vn 0.00000000 0.94693013 -0.32143947
vn 0.00000000 0.96592583 -0.25881905
vn 0.00000000 0.98078528 -0.19509032
vn 0.00000000 0.99144486 -0.13052619
vn 0.00000000 0.99785892 -0.06540313
vn 0.00000000 1.00000000 0.00000000
vn 0.00000000 0.99785892 0.06540313
vn 0.00000000 0.99144486 0.13052619
vn 0.00000000 0.98078528 0.19509032
vn 0.00000000 0.96592583 0.25881905
vn 0.00000000 0.94693013 0.32143947
vn 0.00000000 0.92387953 0.38268343
vn 0.00000000 0.89687274 0.44228869
vn 0.00000000 0.86602540 0.50000000
vn 0.00000000 0.83146961 0.55557023
vn 0.00000000 0.79335334 0.60876143
vn 0.00000000 0.75183981 0.65934582
vn 0.00000000 0.70710678 0.70710678
vn 0.00000000 0.65934582 0.75183981
vn 0.00000000 0.60876143 0.79335334
vn 0.00000000 0.55557023 0.83146961
vn 0.00000000 0.50000000 0.86602540
vn 0.00000000 0.44228869 0.89687274
vn 0.00000000 0.38268343 0.92387953
vn 0.00000000 0.32143947 0.94693013
vn 0.00000000 0.25881905 0.96592583
vn 0.00000000 0.19509032 0.98078528
vn 0.00000000 0.13052619 0.99144486
vn 0.00000000 0.06540313 0.99785892
vn 0.00000000 -0.00000000 1.00000000
vn 0.00000000 -0.06540313 0.99785892
vn 0.00000000 -0.13052619 0.99144486
vn 0.00000000 -0.19509032 0.98078528
vn 0.00000000 -0.25881905 0.96592583
vn 0.00000000 -0.32143947 0.94693013
vn 0.00000000 -0.38268343 0.92387953
vn 0.00000000 -0.44228869 0.89687274
vn 0.00000000 -0.50000000 0.86602540
vn 0.00000000 -0.55557023 0.83146961
vn 0.00000000 -0.60876143 0.79335334
vn 0.00000000 -0.65934582 0.75183981
vn 0.00000000 -0.70710678 0.70710678
vn 0.00000000 -0.75183981 0.65934582
vn 0.00000000 -0.79335334 0.60876143
vn 0.00000000 -0.83146961 0.55557023
vn 0.00000000 -0.86602540 0.50000000
vn 0.00000000 -0.89687274 0.44228869
vn 0.00000000 -0.92387953 0.38268343
vn 0.00000000 -0.94693013 0.32143947
vn 0.00000000 -0.96592583 0.25881905
vn 0.00000000 -0.98078528 0.19509032
vn 0.00000000 -0.99144486 0.13052619
vn 0.00000000 -0.99785892 0.06540313
vn 0.00000000 -1.00000000 -0.00000000
vn 0.00000000 -0.99785892 -0.06540313
vn 0.00000000 -0.99144486 -0.13052619
vn 0.00000000 -0.98078528 -0.19509032
vn 0.00000000 -0.96592583 -0.25881905
vn 0.00000000 -0.94693013 -0.32143947
vn 0.00000000 -0.92387953 -0.38268343
vn 0.00000000 -0.89687274 -0.44228869
vn 0.00000000 -0.86602540 -0.50000000
vn 0.00000000 -0.83146961 -0.55557023
vn 0.00000000 -0.79335334 -0.60876143
vn 0.00000000 -0.75183981 -0.65934582
vn 0.00000000 -0.70710678 -0.70710678
vn 0.00000000 -0.65934582 -0.75183981
vn 0.00000000 -0.60876143 -0.79335334
vn 0.00000000 -0.55557023 -0.83146961
vn 0.00000000 -0.50000000 -0.86602540
vn 0.00000000 -0.44228869 -0.89687274
vn 0.00000000 -0.38268343 -0.92387953
vn 0.00000000 -0.32143947 -0.94693013
vn 0.00000000 -0.25881905 -0.96592583
vn 0.00000000 -0.19509032 -0.98078528
vn 0.00000000 -0.13052619 -0.99144486
vn 0.00000000 -0.06540313 -0.99785892
vn 0.00000000 0.00000000 -1.00000000
vn 0.00000000 0.06540313 -0.99785892
vn 0.00000000 0.13052619 -0.99144486
vn 0.00000000 0.19509032 -0.98078528
vn 0.00000000 0.25881905 -0.96592583
vn 0.00000000 0.32143947 -0.94693013
vn 0.00000000 0.38268343 -0.92387953
vn 0.00000000 0.44228869 -0.89687274
vn 0.00000000 0.50000000 -0.86602540
vn 0.00000000 0.55557023 -0.83146961
vn 0.00000000 0.60876143 -0.79335334
vn 0.00000000 0.65934582 -0.75183981
vn 0.00000000 0.70710678 -0.70710678
vn 0.00000000 0.75183981 -0.65934582
vn 0.00000000 0.79335334 -0.60876143
vn 0.00000000 0.83146961 -0.55557023
vn 0.00000000 0.86602540 -0.50000000
vn 0.00000000 0.89687274 -0.44228869
vn 0.00000000 0.92387953 -0.38268343
vn 0.00000000 0.94693013 -0.32143947
vn 0.00000000 0.96592583 -0.25881905
vn 0.00000000 0.98078528 -0.19509032
vn 0.00000000 0.99144486 -0.13052619
vn 0.00000000 0.99785892 -0.06540313
vn 1.00000000 0.00000000 0.00000000
vn 1.00000000 0.00000000 0.00000000
vn 1.00000000 0.00000000 0.00000000
vn 1.00000000 0.00000000 0.00000000
vn 1.00000000 0.00000000 0.00000000
vn 1.00000000 0.00000000 0.00000000
vn 1.00000000 0.00000000 0.00000000
vn 1.00000000 0.00000000 0.00000000
vn 1.00000000 0.00000000 0.00000000
vn 1.00000000 0.00000000 0.00000000
vn 1.00000000 0.00000000 0.00000000
vn 1.00000000 0.00000000 0.00000000
vn 1.00000000 0.00000000 0.00000000
vn 1.00000000 0.00000000 0.00000000
vn 1.00000000 0.00000000 0.00000000
vn 1.00000000 0.00000000 0.00000000
vn 1.00000000 0.00000000 0.00000000
vn 1.00000000 0.00000000 0.00000000
vn 1.00000000 0.00000000 0.00000000
vn 1.00000000 0.00000000 0.00000000
vn 1.00000000 0.00000000 0.00000000
vn 1.00000000 0.00000000 0.00000000
vn 1.00000000 0.00000000 0.00000000
vn 1.00000000 0.00000000 0.00000000
vn 1.00000000 0.00000000 0.00000000
vn 1.00000000 0.00000000 0.00000000
vn 1.00000000 0.00000000 0.00000000
vn 1.00000000 0.00000000 0.00000000
vn 1.00000000 0.00000000 0.00000000
vn 1.00000000 0.00000000 0.00000000
vn 1.00000000 0.00000000 0.00000000
vn 1.00000000 0.00000000 0.00000000
vn 1.00000000 0.00000000 0.00000000
vn 1.00000000 0.00000000 0.00000000
vn 1.00000000 0.00000000 0.00000000
vn 1.00000000 0.00000000 0.00000000
vn 1.00000000 0.00000000 0.00000000
vn 1.00000000 0.00000000 0.00000000
vn 1.00000000 0.00000000 0.00000000
vn 1.00000000 0.00000000 0.00000000
vn 1.00000000 0.00000000 0.00000000
vn 1.00000000 0.00000000 0.00000000
vn 1.00000000 0.00000000 0.00000000
vn 1.00000000 0.00000000 0.00000000
vn 1.00000000 0.00000000 0.00000000
vn 1.00000000 0.00000000 0.00000000
vn 1.00000000 0.00000000 0.00000000
vn 1.00000000 0.00000000 0.00000000
vn 1.00000000 0.00000000 0.00000000
vn 1.00000000 0.00000000 0.00000000
vn 1.00000000 0.00000000 0.00000000
vn 1.00000000 0.00000000 0.00000000
vn 1.00000000 0.00000000 0.00000000
vn 1.00000000 0.00000000 0.00000000
vn 1.00000000 0.00000000 0.00000000
vn 1.00000000 0.00000000 0.00000000
vn 1.00000000 0.00000000 0.00000000
vn 1.00000000 0.00000000 0.00000000
vn 1.00000000 0.00000000 0.00000000
vn 1.00000000 0.00000000 0.00000000
vn 1.00000000 0.00000000 0.00000000
vn 1.00000000 0.00000000 0.00000000
vn 1.00000000 0.00000000 0.00000000
vn 1.00000000 0.00000000 0.00000000
vn 1.00000000 0.00000000 0.00000000
vn 1.00000000 0.00000000 0.00000000
vn 1.00000000 0.00000000 0.00000000
vn 1.00000000 0.00000000 0.00000000
vn 1.00000000 0.00000000 0.00000000
vn 1.00000000 0.00000000 0.00000000
vn 1.00000000 0.00000000 0.00000000
vn 1.00000000 0.00000000 0.00000000
vn 1.00000000 0.00000000 0.00000000
vn 1.00000000 0.00000000 0.00000000
vn 1.00000000 0.00000000 0.00000000
vn 1.00000000 0.00000000 0.00000000
vn 1.00000000 0.00000000 0.00000000
vn 1.00000000 0.00000000 0.00000000
vn 1.00000000 0.00000000 0.00000000
vn 1.00000000 0.00000000 0.00000000
vn 1.00000000 0.00000000 0.00000000
vn 1.00000000 0.00000000 0.00000000
vn 1.00000000 0.00000000 0.00000000
vn 1.00000000 0.00000000 0.00000000
vn 1.00000000 0.00000000 0.00000000
vn 1.00000000 0.00000000 0.00000000
vn 1.00000000 0.00000000 0.00000000
vn 1.00000000 0.00000000 0.00000000
vn 1.00000000 0.00000000 0.00000000
vn 1.00000000 0.00000000 0.00000000
vn 1.00000000 0.00000000 0.00000000
vn 1.00000000 0.00000000 0.00000000
vn 1.00000000 0.00000000 0.00000000
vn 1.00000000 0.00000000 0.00000000
vn 1.00000000 0.00000000 0.00000000
vn 1.00000000 0.00000000 0.00000000
vn 1.00000000 0.00000000 0.00000000
vn 1.00000000 0.00000000 0.00000000
vn 1.00000000 0.00000000 0.00000000
vn 1.00000000 0.00000000 0.00000000
vn 1.00000000 0.00000000 0.00000000
vn 1.00000000 0.00000000 0.00000000
vn 1.00000000 0.00000000 0.00000000
vn 1.00000000 0.00000000 0.00000000
vn 1.00000000 0.00000000 0.00000000
vn 1.00000000 0.00000000 0.00000000
vn 1.00000000 0.00000000 0.00000000
vn 1.00000000 0.00000000 0.00000000
vn 1.00000000 0.00000000 0.00000000
vn 1.00000000 0.00000000 0.00000000
vn 1.00000000 0.00000000 0.00000000
vn 1.00000000 0.00000000 0.00000000
vn 1.00000000 0.00000000 0.00000000
vn 1.00000000 0.00000000 0.00000000
vn 1.00000000 0.00000000 0.00000000
vn 1.00000000 0.00000000 0.00000000
vn 1.00000000 0.00000000 0.00000000
vn 1.00000000 0.00000000 0.00000000
vn 1.00000000 0.00000000 0.00000000
vn 1.00000000 0.00000000 0.00000000
vn 1.00000000 0.00000000 0.00000000
vn 1.00000000 0.00000000 0.00000000
vn 1.00000000 0.00000000 0.00000000
vn 1.00000000 0.00000000 0.00000000
vn 1.00000000 0.00000000 0.00000000
vn 1.00000000 0.00000000 0.00000000
vn 1.00000000 0.00000000 0.00000000
vn 1.00000000 0.00000000 0.00000000
vn 1.00000000 0.00000000 0.00000000
vn 1.00000000 0.00000000 0.00000000
vn 1.00000000 0.00000000 0.00000000
vn 1.00000000 0.00000000 0.00000000
vn 1.00000000 0.00000000 0.00000000
vn 1.00000000 0.00000000 0.00000000
vn 1.00000000 0.00000000 0.00000000
vn 1.00000000 0.00000000 0.00000000
vn 1.00000000 0.00000000 0.00000000
vn 1.00000000 0.00000000 0.00000000
vn 1.00000000 0.00000000 0.00000000
vn 1.00000000 0.00000000 0.00000000
vn 1.00000000 0.00000000 0.00000000
vn 1.00000000 0.00000000 0.00000000
vn 1.00000000 0.00000000 0.00000000
vn 1.00000000 0.00000000 0.00000000
vn 1.00000000 0.00000000 0.00000000
vn 1.00000000 0.00000000 0.00000000
vn 1.00000000 0.00000000 0.00000000
vn 1.00000000 0.00000000 0.00000000
vn 1.00000000 0.00000000 0.00000000
vn 1.00000000 0.00000000 0.00000000
vn 1.00000000 0.00000000 0.00000000
vn 1.00000000 0.00000000 0.00000000
vn 1.00000000 0.00000000 0.00000000
vn 1.00000000 0.00000000 0.00000000
vn 1.00000000 0.00000000 0.00000000
vn 1.00000000 0.00000000 0.00000000
vn 1.00000000 0.00000000 0.00000000
vn 1.00000000 0.00000000 0.00000000
vn 1.00000000 0.00000000 0.00000000
vn 1.00000000 0.00000000 0.00000000
vn 1.00000000 0.00000000 0.00000000
vn 1.00000000 0.00000000 0.00000000
vn 1.00000000 0.00000000 0.00000000
vn 1.00000000 0.00000000 0.00000000
vn 1.00000000 0.00000000 0.00000000
vn 1.00000000 0.00000000 0.00000000
vn 1.00000000 0.00000000 0.00000000
vn 1.00000000 0.00000000 0.00000000
vn 1.00000000 0.00000000 0.00000000
vn 1.00000000 0.00000000 0.00000000
vn 1.00000000 0.00000000 0.00000000
vn 1.00000000 0.00000000 0.00000000
vn 1.00000000 0.00000000 0.00000000
vn 1.00000000 0.00000000 0.00000000
vn 1.00000000 0.00000000 0.00000000
vn 1.00000000 0.00000000 0.00000000
vn 1.00000000 0.00000000 0.00000000
vn 1.00000000 0.00000000 0.00000000
vn 1.00000000 0.00000000 0.00000000
vn 1.00000000 0.00000000 0.00000000
vn 1.00000000 0.00000000 0.00000000
vn 1.00000000 0.00000000 0.00000000
vn 1.00000000 0.00000000 0.00000000
vn 1.00000000 0.00000000 0.00000000
vn 1.00000000 0.00000000 0.00000000
vn 1.00000000 0.00000000 0.00000000
vn 1.00000000 0.00000000 0.00000000
vn 1.00000000 0.00000000 0.00000000
vn 1.00000000 0.00000000 0.00000000
vn 1.00000000 0.00000000 0.00000000
vn 1.00000000 0.00000000 0.00000000
vn 1.00000000 0.00000000 0.00000000
vn 0.00000000 -1.00000000 -0.00000000
vn 0.00000000 -0.99785892 -0.06540313
vn 0.00000000 -0.99144486 -0.13052619
vn 0.00000000 -0.98078528 -0.19509032
vn 0.00000000 -0.96592583 -0.25881905
vn 0.00000000 -0.94693013 -0.32143947
vn 0.00000000 -0.92387953 -0.38268343
vn 0.00000000 -0.89687274 -0.44228869
vn 0.00000000 -0.86602540 -0.50000000
vn 0.00000000 -0.83146961 -0.55557023
vn 0.00000000 -0.79335334 -0.60876143
vn 0.00000000 -0.75183981 -0.65934582
vn 0.00000000 -0.70710678 -0.70710678
vn 0.00000000 -0.65934582 -0.75183981
vn 0.00000000 -0.60876143 -0.79335334
vn 0.00000000 -0.55557023 -0.83146961
vn 0.00000000 -0.50000000 -0.86602540
vn 0.00000000 -0.44228869 -0.89687274
vn 0.00000000 -0.38268343 -0.92387953
vn 0.00000000 -0.32143947 -0.94693013
vn 0.00000000 -0.25881905 -0.96592583
vn 0.00000000 -0.19509032 -0.98078528
vn 0.00000000 -0.13052619 -0.99144486
vn 0.00000000 -0.06540313 -0.99785892
vn 0.00000000 0.00000000 -1.00000000
vn 0.00000000 0.06540313 -0.99785892
vn 0.00000000 0.13052619 -0.99144486
vn 0.00000000 0.19509032 -0.98078528
vn 0.00000000 0.25881905 -0.96592583
vn 0.00000000 0.32143947 -0.94693013
vn 0.00000000 0.38268343 -0.92387953
vn 0.00000000 0.44228869 -0.89687274
vn 0.00000000 0.50000000 -0.86602540
vn 0.00000000 0.55557023 -0.83146961
vn 0.00000000 0.60876143 -0.79335334
vn 0.00000000 0.65934582 -0.75183981
vn 0.00000000 0.70710678 -0.70710678
vn 0.00000000 0.75183981 -0.65934582
vn 0.00000000 0.79335334 -0.60876143
vn 0.00000000 0.83146961 -0.55557023
vn 0.00000000 0.86602540 -0.50000000
vn 0.00000000 0.89687274 -0.44228869
vn 0.00000000 0.92387953 -0.38268343
vn 0.00000000 0.94693013 -0.32143947
vn 0.00000000 0.96592583 -0.25881905
vn 0.00000000 0.98078528 -0.19509032
vn 0.00000000 0.99144486 -0.13052619
vn 0.00000000 0.99785892 -0.06540313
vn 0.00000000 1.00000000 0.00000000
vn 0.00000000 0.99785892 0.06540313
vn 0.00000000 0.99144486 0.13052619
vn 0.00000000 0.98078528 0.19509032
vn 0.00000000 0.96592583 0.25881905
vn 0.00000000 0.94693013 0.32143947
vn 0.00000000 0.92387953 0.38268343
vn 0.00000000 0.89687274 0.44228869
vn 0.00000000 0.86602540 0.50000000
vn 0.00000000 0.83146961 0.55557023
vn 0.00000000 0.79335334 0.60876143
vn 0.00000000 0.75183981 0.65934582
vn 0.00000000 0.70710678 0.70710678
vn 0.00000000 0.65934582 0.75183981
vn 0.00000000 0.60876143 0.79335334
vn 0.00000000 0.55557023 0.83146961
vn 0.00000000 0.50000000 0.86602540
vn 0.00000000 0.44228869 0.89687274
vn 0.00000000 0.38268343 0.92387953
vn 0.00000000 0.32143947 0.94693013
vn 0.00000000 0.25881905 0.96592583
vn 0.00000000 0.19509032 0.98078528
vn 0.00000000 0.13052619 0.99144486
vn 0.00000000 0.06540313 0.99785892
vn 0.00000000 0.00000000 1.00000000
vn 0.00000000 -0.06540313 0.99785892
vn 0.00000000 -0.13052619 0.99144486
vn 0.00000000 -0.19509032 0.98078528
vn 0.00000000 -0.25881905 0.96592583
vn 0.00000000 -0.32143947 0.94693013
vn 0.00000000 -0.38268343 0.92387953
vn 0.00000000 -0.44228869 0.89687274
vn 0.00000000 -0.50000000 0.86602540
vn 0.00000000 -0.55557023 0.83146961
vn 0.00000000 -0.60876143 0.79335334
vn 0.00000000 -0.65934582 0.75183981
vn 0.00000000 -0.70710678 0.70710678
vn 0.00000000 -0.75183981 0.65934582
vn 0.00000000 -0.79335334 0.60876143
vn 0.00000000 -0.83146961 0.55557023
vn 0.00000000 -0.86602540 0.50000000
vn 0.00000000 -0.89687274 0.44228869
vn 0.00000000 -0.92387953 0.38268343
vn 0.00000000 -0.94693013 0.32143947
vn 0.00000000 -0.96592583 0.25881905
vn 0.00000000 -0.98078528 0.19509032
vn 0.00000000 -0.99144486 0.13052619
vn 0.00000000 -0.99785892 0.06540313
vn 0.00000000 -1.00000000 -0.00000000
vn 0.00000000 -0.99785892 -0.06540313
vn 0.00000000 -0.99144486 -0.13052619
vn 0.00000000 -0.98078528 -0.19509032
vn 0.00000000 -0.96592583 -0.25881905
vn 0.00000000 -0.94693013 -0.32143947
vn 0.00000000 -0.92387953 -0.38268343
vn 0.00000000 -0.89687274 -0.44228869
vn 0.00000000 -0.86602540 -0.50000000
vn 0.00000000 -0.83146961 -0.55557023
vn 0.00000000 -0.79335334 -0.60876143
vn 0.00000000 -0.75183981 -0.65934582
vn 0.00000000 -0.70710678 -0.70710678
vn 0.00000000 -0.65934582 -0.75183981
vn 0.00000000 -0.60876143 -0.79335334
vn 0.00000000 -0.55557023 -0.83146961
vn 0.00000000 -0.50000000 -0.86602540
vn 0.00000000 -0.44228869 -0.89687274
vn 0.00000000 -0.38268343 -0.92387953
vn 0.00000000 -0.32143947 -0.94693013
vn 0.00000000 -0.25881905 -0.96592583
vn 0.00000000 -0.19509032 -0.98078528
vn 0.00000000 -0.13052619 -0.99144486
vn 0.00000000 -0.06540313 -0.99785892
vn 0.00000000 0.00000000 -1.00000000
vn 0.00000000 0.06540313 -0.99785892
vn 0.00000000 0.13052619 -0.99144486
vn 0.00000000 0.19509032 -0.98078528
vn 0.00000000 0.25881905 -0.96592583
vn 0.00000000 0.32143947 -0.94693013
vn 0.00000000 0.38268343 -0.92387953
vn 0.00000000 0.44228869 -0.89687274
vn 0.00000000 0.50000000 -0.86602540
vn 0.00000000 0.55557023 -0.83146961
vn 0.00000000 0.60876143 -0.79335334
vn 0.00000000 0.65934582 -0.75183981
vn 0.00000000 0.70710678 -0.70710678
vn 0.00000000 0.75183981 -0.65934582
vn 0.00000000 0.79335334 -0.60876143
vn 0.00000000 0.83146961 -0.55557023
vn 0.00000000 0.86602540 -0.50000000
vn 0.00000000 0.89687274 -0.44228869
vn 0.00000000 0.92387953 -0.38268343
vn 0.00000000 0.94693013 -0.32143947
vn 0.00000000 0.96592583 -0.25881905
vn 0.00000000 0.98078528 -0.19509032
vn 0.00000000 0.99144486 -0.13052619
vn 0.00000000 0.99785892 -0.06540313
vn 0.00000000 1.00000000 0.00000000
vn 0.00000000 0.99785892 0.06540313
vn 0.00000000 0.99144486 0.13052619
vn 0.00000000 0.98078528 0.19509032
vn 0.00000000 0.96592583 0.25881905
vn 0.00000000 0.94693013 0.32143947
vn 0.00000000 0.92387953 0.38268343
vn 0.00000000 0.89687274 0.44228869
vn 0.00000000 0.86602540 0.50000000
vn 0.00000000 0.83146961 0.55557023
vn 0.00000000 0.79335334 0.60876143
vn 0.00000000 0.75183981 0.65934582
vn 0.00000000 0.70710678 0.70710678
vn 0.00000000 0.65934582 0.75183981
vn 0.00000000 0.60876143 0.79335334
vn 0.00000000 0.55557023 0.83146961
vn 0.00000000 0.50000000 0.86602540
vn 0.00000000 0.44228869 0.89687274
vn 0.00000000 0.38268343 0.92387953
vn 0.00000000 0.32143947 0.94693013
vn 0.00000000 0.25881905 0.96592583
vn 0.00000000 0.19509032 0.98078528
vn 0.00000000 0.13052619 0.99144486
vn 0.00000000 0.06540313 0.99785892
vn 0.00000000 0.00000000 1.00000000
vn 0.00000000 -0.06540313 0.99785892
vn 0.00000000 -0.13052619 0.99144486
vn 0.00000000 -0.19509032 0.98078528
vn 0.00000000 -0.25881905 0.96592583
vn 0.00000000 -0.32143947 0.94693013
vn 0.00000000 -0.38268343 0.92387953
vn 0.00000000 -0.44228869 0.89687274
vn 0.00000000 -0.50000000 0.86602540
vn 0.00000000 -0.55557023 0.83146961
vn 0.00000000 -0.60876143 0.79335334
vn 0.00000000 -0.65934582 0.75183981
vn 0.00000000 -0.70710678 0.70710678
vn 0.00000000 -0.75183981 0.65934582
vn 0.00000000 -0.79335334 0.60876143
vn 0.00000000 -0.83146961 0.55557023
vn 0.00000000 -0.86602540 0.50000000
vn 0.00000000 -0.89687274 0.44228869
vn 0.00000000 -0.92387953 0.38268343
vn 0.00000000 -0.94693013 0.32143947
vn 0.00000000 -0.96592583 0.25881905
vn 0.00000000 -0.98078528 0.19509032
vn 0.00000000 -0.99144486 0.13052619
vn 0.00000000 -0.99785892 0.06540313
f 98//98 97//97 1//1
f 159//159 158//158 62//62
f 63//63 159//159 62//62
f 160//160 159//159 63//63
f 64//64 160//160 63//63
f 161//161 160//160 64//64
f 65//65 161//161 64//64
f 162//162 161//161 65//65
f 66//66 162//162 65//65
f 163//163 162//162 66//66
f 62//62 158//158 61//61
f 67//67 163//163 66//66
f 68//68 164//164 67//67
f 165//165 164//164 68//68
f 69//69 165//165 68//68
f 166//166 165//165 69//69
f 70//70 166//166 69//69
f 167//167 166//166 70//70
f 71//71 167//167 70//70
f 168//168 167//167 71//71
f 72//72 168//168 71//71
f 164//164 163//163 67//67
f 169//169 168//168 72//72
f 158//158 157//157 61//61
f 157//157 156//156 60//60
f 147//147 146//146 50//50
f 51//51 147//147 50//50
f 148//148 147//147 51//51
f 52//52 148//148 51//51
f 149//149 148//148 52//52
f 53//53 149//149 52//52
f 150//150 149//149 53//53
f 54//54 150//150 53//53
f 151//151 150//150 54//54
f 61//61 157//157 60//60
f 55//55 151//151 54//54
f 56//56 152//152 55//55
f 153//153 152//152 56//56
f 57//57 153//153 56//56
f 154//154 153//153 57//57
f 58//58 154//154 57//57
f 155//155 154//154 58//58
f 59//59 155//155 58//58
f 156//156 155//155 59//59
f 60//60 156//156 59//59
f 152//152 151//151 55//55
f 170//170 169//169 73//73
f 74//74 170//170 73//73
f 171//171 170//170 74//74
f 184//184 183//183 87//87
f 88//88 184//184 87//87
f 185//185 184//184 88//88
f 89//89 185//185 88//88
f 186//186 185//185 89//89
f 90//90 186//186 89//89
f 187//187 186//186 90//90
f 91//91 187//187 90//90
f 188//188 187//187 91//91
f 87//87 183//183 86//86
f 92//92 188//188 91//91
f 93//93 189//189 92//92
f 190//190 189//189 93//93
f 94//94 190//190 93//93
f 191//191 190//190 94//94
f 95//95 191//191 94//94
f 192//192 191//191 95//95
f 96//96 192//192 95//95
f 97//97 192//192 96//96
f 1//1 97//97 96//96
f 189//189 188//188 92//92
f 183//183 182//182 86//86
f 86//86 182//182 85//85
f 182//182 181//181 85//85
f 75//75 171//171 74//74
f 172//172 171//171 75//75
f 76//76 172//172 75//75
f 173//173 172//172 76//76
f 77//77 173//173 76//76
f 174//174 173//173 77//77
f 78//78 174//174 77//77
f 175//175 174//174 78//78
f 79//79 175//175 78//78
f 176//176 175//175 79//79
f 80//80 176//176 79//79
f 177//177 176//176 80//80
f 81//81 177//177 80//80
f 178//178 177//177 81//81
f 82//82 178//178 81//81
f 179//179 178//178 82//82
f 83//83 179//179 82//82
f 180//180 179//179 83//83
f 84//84 180//180 83//83
f 181//181 180//180 84//84
f 85//85 181//181 84//84
f 50//50 146//146 49//49
f 146//146 145//145 49//49
f 73//73 169//169 72//72
f 145//145 144//144 48//48
f 111//111 110//110 14//14
f 15//15 111//111 14//14
f 112//112 111//111 15//15
f 16//16 112//112 15//15
f 113//113 112//112 16//16
f 17//17 113//113 16//16
f 114//114 113//113 17//17
f 18//18 114//114 17//17
f 115//115 114//114 18//18
f 14//14 110//110 13//13
f 19//19 115//115 18//18
f 20//20 116//116 19//19
f 117//117 116//116 20//20
f 21//21 117//117 20//20
f 118//118 117//117 21//21
f 22//22 118//118 21//21
f 119//119 118//118 22//22
f 23//23 119//119 22//22
f 120//120 119//119 23//23
f 24//24 120//120 23//23
f 116//116 115//115 19//19
f 110//110 109//109 13//13
f 13//13 109//109 12//12
f 109//109 108//108 12//12
f 49//49 145//145 48//48
f 99//99 98//98 2//2
f 3//3 99//99 2//2
f 100//100 99//99 3//3
f 4//4 100//100 3//3
f 101//101 100//100 4//4
f 5//5 101//101 4//4
f 102//102 101//101 5//5
f 6//6 102//102 5//5
f 103//103 102//102 6//6
f 7//7 103//103 6//6
f 104//104 103//103 7//7
f 8//8 104//104 7//7
f 105//105 104//104 8//8
f 9//9 105//105 8//8
f 106//106 105//105 9//9
f 10//10 106//106 9//9
f 107//107 106//106 10//10
f 11//11 107//107 10//10
f 108//108 107//107 11//11
f 12//12 108//108 11//11
f 121//121 120//120 24//24
f 25//25 121//121 24//24
f 2//2 98//98 1//1
f 42//42 138//138 41//41
f 38//38 134//134 37//37
f 135//135 134//134 38//38
f 136//136 135//135 39//39
f 40//40 136//136 39//39
f 137//137 136//136 40//40
f 41//41 137//137 40//40
f 138//138 137//137 41//41
f 122//122 121//121 25//25
f 139//139 138//138 42//42
f 134//134 133//133 37//37
f 43//43 139//139 42//42
f 44//44 140//140 43//43
f 141//141 140//140 44//44
f 45//45 141//141 44//44
f 142//142 141//141 45//45
f 46//46 142//142 45//45
f 143//143 142//142 46//46
f 47//47 143//143 46//46
f 144//144 143//143 47//47
f 48//48 144//144 47//47
f 140//140 139//139 43//43
f 37//37 133//133 36//36
f 39//39 135//135 38//38
f 36//36 132//132 35//35
f 26//26 122//122 25//25
f 123//123 122//122 26//26
f 27//27 123//123 26//26
f 124//124 123//123 27//27
f 28//28 124//124 27//27
f 125//125 124//124 28//28
f 133//133 132//132 36//36
f 126//126 125//125 29//29
f 30//30 126//126 29//29
f 127//127 126//126 30//30
f 29//29 125//125 28//28
f 128//128 127//127 31//31
f 31//31 127//127 30//30
f 35//35 131//131 34//34
f 131//131 130//130 34//34
f 34//34 130//130 33//33
f 132//132 131//131 35//35
f 33//33 129//129 32//32
f 129//129 128//128 32//32
f 32//32 128//128 31//31
f 130//130 129//129 33//33
f 355//355 354//354 258//258
f 351//351 350//350 254//254
f 255//255 351//351 254//254
f 352//352 351//351 255//255
f 256//256 352//352 255//255
f 353//353 352//352 256//256
f 257//257 353//353 256//256
f 354//354 353//353 257//257
f 258//258 354//354 257//257
f 259//259 355//355 258//258
f 242//242 338//338 241//241
f 260//260 356//356 259//259
f 357//357 356//356 260//260
f 261//261 357//357 260//260
f 358//358 357//357 261//261
f 262//262 358//358 261//261
f 359//359 358//358 262//262
f 263//263 359//359 262//262
f 360//360 359//359 263//263
f 264//264 360//360 263//263
f 356//356 355//355 259//259
f 254//254 350//350 253//253
f 339//339 338//338 242//242
f 253//253 349//349 252//252
f 361//361 360//360 264//264
f 243//243 339//339 242//242
f 340//340 339//339 243//243
f 244//244 340//340 243//243
f 341//341 340//340 244//244
f 245//245 341//341 244//244
f 342//342 341//341 245//245
f 246//246 342//342 245//245
f 343//343 342//342 246//246
f 247//247 343//343 246//246
f 344//344 343//343 247//247
f 248//248 344//344 247//247
f 345//345 344//344 248//248
f 249//249 345//345 248//248
f 346//346 345//345 249//249
f 250//250 346//346 249//249
f 347//347 346//346 250//250
f 251//251 347//347 250//250
f 348//348 347//347 251//251
f 252//252 348//348 251//251
f 349//349 348//348 252//252
f 350//350 349//349 253//253
f 265//265 361//361 264//264
f 373//373 372//372 276//276
f 266//266 362//362 265//265
f 279//279 375//375 278//278
f 376//376 375//375 279//279
f 280//280 376//376 279//279
f 377//377 376//376 280//280
f 281//281 377//377 280//280
f 378//378 377//377 281//281
f 282//282 378//378 281//281
f 379//379 378//378 282//282
f 283//283 379//379 282//282
f 375//375 374//374 278//278
f 380//380 379//379 283//283
f 381//381 380//380 284//284
f 285//285 381//381 284//284
f 382//382 381//381 285//285
f 286//286 382//382 285//285
f 383//383 382//382 286//286
f 287//287 383//383 286//286
f 384//384 383//383 287//287
f 288//288 384//384 287//287
f 289//289 384//384 288//288
f 284//284 380//380 283//283
f 362//362 361//361 265//265
f 278//278 374//374 277//277
f 277//277 373//373 276//276
f 363//363 362//362 266//266
f 267//267 363//363 266//266
f 364//364 363//363 267//267
f 268//268 364//364 267//267
f 365//365 364//364 268//268
f 269//269 365//365 268//268
f 366//366 365//365 269//269
f 270//270 366//366 269//269
f 367//367 366//366 270//270
f 374//374 373//373 277//277
f 271//271 367//367 270//270
f 272//272 368//368 271//271
f 369//369 368//368 272//272
f 273//273 369//369 272//272
f 370//370 369//369 273//273
f 274//274 370//370 273//273
f 371//371 370//370 274//274
f 275//275 371//371 274//274
f 372//372 371//371 275//275
f 276//276 372//372 275//275
f 368//368 367//367 271//271
f 338//338 337//337 241//241
f 193//193 289//289 288//288
f 337//337 336//336 240//240
f 206//206 302//302 205//205
f 303//303 302//302 206//206
f 207//207 303//303 206//206
f 304//304 303//303 207//207
f 208//208 304//304 207//207
f 305//305 304//304 208//208
f 209//209 305//305 208//208
f 306//306 305//305 209//209
f 210//210 306//306 209//209
f 241//241 337//337 240//240
f 307//307 306//306 210//210
f 308//308 307//307 211//211
f 212//212 308//308 211//211
f 309//309 308//308 212//212
f 213//213 309//309 212//212
f 310//310 309//309 213//213
f 214//214 310//310 213//213
f 311//311 310//310 214//214
f 215//215 311//311 214//214
f 312//312 311//311 215//215
f 211//211 307//307 210//210
f 205//205 301//301 204//204
f 301//301 300//300 204//204
f 204//204 300//300 203//203
f 290//290 289//289 193//193
f 194//194 290//290 193//193
f 291//291 290//290 194//194
f 195//195 291//291 194//194
f 292//292 291//291 195//195
f 196//196 292//292 195//195
f 293//293 292//292 196//196
f 197//197 293//293 196//196
f 294//294 293//293 197//197
f 198//198 294//294 197//197
f 295//295 294//294 198//198
f 199//199 295//295 198//198
f 296//296 295//295 199//199
f 200//200 296//296 199//199
f 297//297 296//296 200//200
f 201//201 297//297 200//200
f 298//298 297//297 201//201
f 202//202 298//298 201//201
f 299//299 298//298 202//202
f 203//203 299//299 202//202
f 300//300 299//299 203//203
f 216//216 312//312 215//215
f 313//313 312//312 216//216
f 302//302 301//301 205//205
f 314//314 313//313 217//217
f 327//327 326//326 230//230
f 231//231 327//327 230//230
f 328//328 327//327 231//231
f 232//232 328//328 231//231
f 329//329 328//328 232//232
f 233//233 329//329 232//232
f 330//330 329//329 233//233
f 234//234 330//330 233//233
f 235//235 331//331 234//234
f 230//230 326//326 229//229
f 332//332 331//331 235//235
f 333//333 332//332 236//236
f 237//237 333//333 236//236
f 334//334 333//333 237//237
f 238//238 334//334 237//237
f 335//335 334//334 238//238
f 239//239 335//335 238//238
f 336//336 335//335 239//239
f 240//240 336//336 239//239
f 217//217 313//313 216//216
f 236//236 332//332 235//235
f 326//326 325//325 229//229
f 331//331 330//330 234//234
f 325//325 324//324 228//228
f 229//229 325//325 228//228
f 315//315 314//314 218//218
f 219//219 315//315 218//218
f 316//316 315//315 219//219
f 220//220 316//316 219//219
f 317//317 316//316 220//220
f 221//221 317//317 220//220
f 318//318 317//317 221//221
f 222//222 318//318 221//221
f 319//319 318//318 222//222
f 223//223 319//319 222//222
f 218//218 314//314 217//217
f 228//228 324//324 227//227
f 224//224 320//320 223//223
f 321//321 320//320 224//224
f 225//225 321//321 224//224
f 322//322 321//321 225//225
f 226//226 322//322 225//225
f 323//323 322//322 226//226
f 227//227 323//323 226//226
f 324//324 323//323 227//227
f 320//320 319//319 223//223
f 450//450 546//546 449//449
f 546//546 545//545 449//449
f 449//449 545//545 448//448
f 543//543 542//542 446//446
f 448//448 544//544 447//447
f 544//544 543//543 447//447
f 447//447 543//543 446//446
f 547//547 546//546 450//450
f 545//545 544//544 448//448
f 451//451 547//547 450//450
f 454//454 550//550 453//453
f 452//452 548//548 451//451
f 549//549 548//548 452//452
f 453//453 549//549 452//452
f 550//550 549//549 453//453
f 551//551 550//550 454//454
f 455//455 551//551 454//454
f 552//552 551//551 455//455
f 456//456 552//552 455//455
f 553//553 552//552 456//456
f 548//548 547//547 451//451
f 446//446 542//542 445//445
f 531//531 530//530 434//434
f 445//445 541//541 444//444
f 435//435 531//531 434//434
f 532//532 531//531 435//435
f 436//436 532//532 435//435
f 533//533 532//532 436//436
f 437//437 533//533 436//436
f 534//534 533//533 437//437
f 438//438 534//534 437//437
f 535//535 534//534 438//438
f 439//439 535//535 438//438
f 542//542 541//541 445//445
f 536//536 535//535 439//439
f 537//537 536//536 440//440
f 441//441 537//537 440//440
f 538//538 537//537 441//441
f 442//442 538//538 441//441
f 539//539 538//538 442//442
f 443//443 539//539 442//442
f 540//540 539//539 443//443
f 444//444 540//540 443//443
f 541//541 540//540 444//444
f 440//440 536//536 439//439
f 554//554 553//553 457//457
f 385//385 481//481 480//480
f 555//555 554//554 458//458
f 568//568 567//567 471//471
f 472//472 568//568 471//471
f 569//569 568//568 472//472
f 473//473 569//569 472//472
f 570//570 569//569 473//473
f 474//474 570//570 473//473
f 571//571 570//570 474//474
f 475//475 571//571 474//474
f 572//572 571//571 475//475
f 471//471 567//567 470//470
f 476//476 572//572 475//475
f 477//477 573//573 476//476
f 574//574 573//573 477//477
f 478//478 574//574 477//477
f 575//575 574//574 478//478
f 479//479 575//575 478//478
f 576//576 575//575 479//479
f 480//480 576//576 479//479
f 481//481 576//576 480//480
f 434//434 530//530 433//433
f 573//573 572//572 476//476
f 567//567 566//566 470//470
f 470//470 566//566 469//469
f 566//566 565//565 469//469
f 459//459 555//555 458//458
f 556//556 555//555 459//459
f 460//460 556//556 459//459
f 557//557 556//556 460//460
f 461//461 557//557 460//460
f 558//558 557//557 461//461
f 462//462 558//558 461//461
f 559//559 558//558 462//462
f 463//463 559//559 462//462
f 560//560 559//559 463//463
f 464//464 560//560 463//463
f 561//561 560//560 464//464
f 465//465 561//561 464//464
f 562//562 561//561 465//465
f 466//466 562//562 465//465
f 563//563 562//562 466//466
f 467//467 563//563 466//466
f 564//564 563//563 467//467
f 468//468 564//564 467//467
f 565//565 564//564 468//468
f 469//469 565//565 468//468
f 458//458 554//554 457//457
f 530//530 529//529 433//433
f 457//457 553//553 456//456
f 529//529 528//528 432//432
f 398//398 494//494 397//397
f 495//495 494//494 398//398
f 399//399 495//495 398//398
f 496//496 495//495 399//399
f 400//400 496//496 399//399
f 497//497 496//496 400//400
f 401//401 497//497 400//400
f 498//498 497//497 401//401
f 402//402 498//498 401//401
f 433//433 529//529 432//432
f 499//499 498//498 402//402
f 500//500 499//499 403//403
f 404//404 500//500 403//403
f 501//501 500//500 404//404
f 405//405 501//501 404//404
f 502//502 501//501 405//405
f 406//406 502//502 405//405
f 503//503 502//502 406//406
f 407//407 503//503 406//406
f 504//504 503//503 407//407
f 403//403 499//499 402//402
f 397//397 493//493 396//396
f 493//493 492//492 396//396
f 396//396 492//492 395//395
f 482//482 481//481 385//385
f 386//386 482//482 385//385
f 483//483 482//482 386//386
f 387//387 483//483 386//386
f 484//484 483//483 387//387
f 388//388 484//484 387//387
f 485//485 484//484 388//388
f 389//389 485//485 388//388
f 486//486 485//485 389//389
f 390//390 486//486 389//389
f 487//487 486//486 390//390
f 391//391 487//487 390//390
f 488//488 487//487 391//391
f 392//392 488//488 391//391
f 489//489 488//488 392//392
f 393//393 489//489 392//392
f 490//490 489//489 393//393
f 394//394 490//490 393//393
f 491//491 490//490 394//394
f 395//395 491//491 394//394
f 492//492 491//491 395//395
f 408//408 504//504 407//407
f 505//505 504//504 408//408
f 494//494 493//493 397//397
f 506//506 505//505 409//409
f 519//519 518//518 422//422
f 423//423 519//519 422//422
f 520//520 519//519 423//423
f 424//424 520//520 423//423
f 521//521 520//520 424//424
f 425//425 521//521 424//424
f 522//522 521//521 425//425
f 426//426 522//522 425//425
f 427//427 523//523 426//426
f 422//422 518//518 421//421
f 524//524 523//523 427//427
f 525//525 524//524 428//428
f 429//429 525//525 428//428
f 526//526 525//525 429//429
f 430//430 526//526 429//429
f 527//527 526//526 430//430
f 431//431 527//527 430//430
f 528//528 527//527 431//431
f 432//432 528//528 431//431
f 409//409 505//505 408//408
f 428//428 524//524 427//427
f 518//518 517//517 421//421
f 523//523 522//522 426//426
f 517//517 516//516 420//420
f 421//421 517//517 420//420
f 507//507 506//506 410//410
f 411//411 507//507 410//410
f 508//508 507//507 411//411
f 412//412 508//508 411//411
f 509//509 508//508 412//412
f 413//413 509//509 412//412
f 510//510 509//509 413//413
f 414//414 510//510 413//413
f 511//511 510//510 414//414
f 415//415 511//511 414//414
f 410//410 506//506 409//409
f 420//420 516//516 419//419
f 416//416 512//512 415//415
f 513//513 512//512 416//416
f 417//417 513//513 416//416
f 514//514 513//513 417//417
f 418//418 514//514 417//417
f 515//515 514//514 418//418
f 419//419 515//515 418//418
f 516//516 515//515 419//419
f 512//512 511//511 415//415
f 642//642 641//641 737//737
f 737//737 641//641 736//736
f 641//641 640//640 736//736
f 734//734 638//638 733//733
f 640//640 639//639 735//735
f 735//735 639//639 734//734
f 639//639 638//638 734//734
f 738//738 642//642 737//737
f 736//736 640//640 735//735
f 643//643 642//642 738//738
f 646//646 645//645 741//741
f 644//644 643//643 739//739
f 740//740 644//644 739//739
f 645//645 644//644 740//740
f 741//741 645//645 740//740
f 742//742 646//646 741//741
f 647//647 646//646 742//742
f 743//743 647//647 742//742
f 648//648 647//647 743//743
f 744//744 648//648 743//743
f 739//739 643//643 738//738
f 638//638 637//637 733//733
f 722//722 626//626 721//721
f 637//637 636//636 732//732
f 627//627 626//626 722//722
f 723//723 627//627 722//722
f 628//628 627//627 723//723
f 724//724 628//628 723//723
f 629//629 628//628 724//724
f 725//725 629//629 724//724
f 630//630 629//629 725//725
f 726//726 630//630 725//725
f 631//631 630//630 726//726
f 733//733 637//637 732//732
f 727//727 631//631 726//726
f 728//728 632//632 727//727
f 633//633 632//632 728//728
f 729//729 633//633 728//728
f 634//634 633//633 729//729
f 730//730 634//634 729//729
f 635//635 634//634 730//730
f 731//731 635//635 730//730
f 636//636 635//635 731//731
f 732//732 636//636 731//731
f 632//632 631//631 727//727
f 649//649 648//648 744//744
f 768//768 672//672 767//767
f 650//650 649//649 745//745
f 663//663 662//662 758//758
f 759//759 663//663 758//758
f 664//664 663//663 759//759
f 760//760 664//664 759//759
f 665//665 664//664 760//760
f 761//761 665//665 760//760
f 666//666 665//665 761//761
f 762//762 666//666 761//761
f 667//667 666//666 762//762
f 758//758 662//662 757//757
f 763//763 667//667 762//762
f 764//764 668//668 763//763
f 669//669 668//668 764//764
f 765//765 669//669 764//764
f 670//670 669//669 765//765
f 766//766 670//670 765//765
f 671//671 670//670 766//766
f 767//767 671//671 766//766
f 672//672 671//671 767//767
f 626//626 625//625 721//721
f 668//668 667//667 763//763
f 662//662 661//661 757//757
f 757//757 661//661 756//756
f 661//661 660//660 756//756
f 746//746 650//650 745//745
f 651//651 650//650 746//746
f 747//747 651//651 746//746
f 652//652 651//651 747//747
f 748//748 652//652 747//747
f 653//653 652//652 748//748
f 749//749 653//653 748//748
f 654//654 653//653 749//749
f 750//750 654//654 749//749
f 655//655 654//654 750//750
f 751//751 655//655 750//750
f 656//656 655//655 751//751
f 752//752 656//656 751//751
f 657//657 656//656 752//752
f 753//753 657//657 752//752
f 658//658 657//657 753//753
f 754//754 658//658 753//753
f 659//659 658//658 754//754
f 755//755 659//659 754//754
f 660//660 659//659 755//755
f 756//756 660//660 755//755
f 745//745 649//649 744//744
f 721//721 625//625 720//720
f 697//697 601//601 696//696
f 720//720 624//624 719//719
f 685//685 589//589 684//684
f 590//590 589//589 685//685
f 686//686 590//590 685//685
f 591//591 590//590 686//686
f 687//687 591//591 686//686
f 592//592 591//591 687//687
f 688//688 592//592 687//687
f 593//593 592//592 688//688
f 689//689 593//593 688//688
f 589//589 588//588 684//684
f 594//594 593//593 689//689
f 595//595 594//594 690//690
f 691//691 595//595 690//690
f 596//596 595//595 691//691
f 692//692 596//596 691//691
f 597//597 596//596 692//692
f 693//693 597//597 692//692
f 598//598 597//597 693//693
f 694//694 598//598 693//693
f 599//599 598//598 694//694
f 690//690 594//594 689//689
f 695//695 599//599 694//694
f 684//684 588//588 683//683
f 683//683 587//587 682//682
f 577//577 672//672 768//768
f 578//578 577//577 673//673
f 674//674 578//578 673//673
f 579//579 578//578 674//674
f 675//675 579//579 674//674
f 580//580 579//579 675//675
f 676//676 580//580 675//675
f 581//581 580//580 676//676
f 677//677 581//581 676//676
f 588//588 587//587 683//683
f 582//582 581//581 677//677
f 583//583 582//582 678//678
f 679//679 583//583 678//678
f 584//584 583//583 679//679
f 680//680 584//584 679//679
f 585//585 584//584 680//680
f 681//681 585//585 680//680
f 586//586 585//585 681//681
f 682//682 586//586 681//681
f 587//587 586//586 682//682
f 678//678 582//582 677//677
f 600//600 599//599 695//695
f 696//696 600//600 695//695
f 601//601 600//600 696//696
f 710//710 614//614 709//709
f 615//615 614//614 710//710
f 711//711 615//615 710//710
f 616//616 615//615 711//711
f 712//712 616//616 711//711
f 617//617 616//616 712//712
f 713//713 617//617 712//712
f 618//618 617//617 713//713
f 714//714 618//618 713//713
f 614//614 613//613 709//709
f 619//619 618//618 714//714
f 620//620 619//619 715//715
f 716//716 620//620 715//715
f 621//621 620//620 716//716
f 717//717 621//621 716//716
f 622//622 621//621 717//717
f 718//718 622//622 717//717
f 623//623 622//622 718//718
f 719//719 623//623 718//718
f 624//624 623//623 719//719
f 715//715 619//619 714//714
f 709//709 613//613 708//708
f 613//613 612//612 708//708
f 708//708 612//612 707//707
f 602//602 601//601 697//697
f 698//698 602//602 697//697
f 603//603 602//602 698//698
f 699//699 603//603 698//698
f 604//604 603//603 699//699
f 700//700 604//604 699//699
f 605//605 604//604 700//700
f 701//701 605//605 700//700
f 606//606 605//605 701//701
f 702//702 606//606 701//701
f 607//607 606//606 702//702
f 703//703 607//607 702//702
f 608//608 607//607 703//703
f 704//704 608//608 703//703
f 609//609 608//608 704//704
f 705//705 609//609 704//704
f 610//610 609//609 705//705
f 706//706 610//610 705//705
f 611//611 610//610 706//706
f 707//707 611//611 706//706
f 612//612 611//611 707//707
f 625//625 624//624 720//720
f 673//673 577//577 768//768
