# Independent procedural camera geometry; meters; Z up
o status_light
v 0.0070500000 0.0019900000 0.0046950000
v 0.0070500000 0.0019863492 0.0047320672
v 0.0070500000 0.0019755371 0.0047677099
v 0.0070500000 0.0019579792 0.0048005583
v 0.0070500000 0.0019343503 0.0048293503
v 0.0070500000 0.0019055583 0.0048529792
v 0.0070500000 0.0018727099 0.0048705371
v 0.0070500000 0.0018370672 0.0048813492
v 0.0070500000 -0.0018000000 0.0048850000
v 0.0070500000 -0.0018370672 0.0048813492
v 0.0070500000 -0.0018727099 0.0048705371
v 0.0070500000 -0.0019055583 0.0048529792
v 0.0070500000 -0.0019343503 0.0048293503
v 0.0070500000 -0.0019579792 0.0048005583
v 0.0070500000 -0.0019755371 0.0047677099
v 0.0070500000 -0.0019863492 0.0047320672
v 0.0070500000 -0.0019900000 0.0044450000
v 0.0070500000 -0.0019863492 0.0044079328
v 0.0070500000 -0.0019755371 0.0043722901
v 0.0070500000 -0.0019579792 0.0043394417
v 0.0070500000 -0.0019343503 0.0043106497
v 0.0070500000 -0.0019055583 0.0042870208
v 0.0070500000 -0.0018727099 0.0042694629
v 0.0070500000 -0.0018370672 0.0042586508
v 0.0070500000 0.0018000000 0.0042550000
v 0.0070500000 0.0018370672 0.0042586508
v 0.0070500000 0.0018727099 0.0042694629
v 0.0070500000 0.0019055583 0.0042870208
v 0.0070500000 0.0019343503 0.0043106497
v 0.0070500000 0.0019579792 0.0043394417
v 0.0070500000 0.0019755371 0.0043722901
v 0.0070500000 0.0019863492 0.0044079328
v 0.0070600000 0.0020000000 0.0046950000
v 0.0070600000 0.0019961571 0.0047340181
v 0.0070600000 0.0019847759 0.0047715367
v 0.0070600000 0.0019662939 0.0048061140
v 0.0070600000 0.0019414214 0.0048364214
v 0.0070600000 0.0019111140 0.0048612939
v 0.0070600000 0.0018765367 0.0048797759
v 0.0070600000 0.0018390181 0.0048911571
v 0.0070600000 -0.0018000000 0.0048950000
v 0.0070600000 -0.0018390181 0.0048911571
v 0.0070600000 -0.0018765367 0.0048797759
v 0.0070600000 -0.0019111140 0.0048612939
v 0.0070600000 -0.0019414214 0.0048364214
v 0.0070600000 -0.0019662939 0.0048061140
v 0.0070600000 -0.0019847759 0.0047715367
v 0.0070600000 -0.0019961571 0.0047340181
v 0.0070600000 -0.0020000000 0.0044450000
v 0.0070600000 -0.0019961571 0.0044059819
v 0.0070600000 -0.0019847759 0.0043684633
v 0.0070600000 -0.0019662939 0.0043338860
v 0.0070600000 -0.0019414214 0.0043035786
v 0.0070600000 -0.0019111140 0.0042787061
v 0.0070600000 -0.0018765367 0.0042602241
v 0.0070600000 -0.0018390181 0.0042488429
v 0.0070600000 0.0018000000 0.0042450000
v 0.0070600000 0.0018390181 0.0042488429
v 0.0070600000 0.0018765367 0.0042602241
v 0.0070600000 0.0019111140 0.0042787061
v 0.0070600000 0.0019414214 0.0043035786
v 0.0070600000 0.0019662939 0.0043338860
v 0.0070600000 0.0019847759 0.0043684633
v 0.0070600000 0.0019961571 0.0044059819
v 0.0070800000 0.0020000000 0.0046950000
v 0.0070800000 0.0019961571 0.0047340181
v 0.0070800000 0.0019847759 0.0047715367
v 0.0070800000 0.0019662939 0.0048061140
v 0.0070800000 0.0019414214 0.0048364214
v 0.0070800000 0.0019111140 0.0048612939
v 0.0070800000 0.0018765367 0.0048797759
v 0.0070800000 0.0018390181 0.0048911571
v 0.0070800000 -0.0018000000 0.0048950000
v 0.0070800000 -0.0018390181 0.0048911571
v 0.0070800000 -0.0018765367 0.0048797759
v 0.0070800000 -0.0019111140 0.0048612939
v 0.0070800000 -0.0019414214 0.0048364214
v 0.0070800000 -0.0019662939 0.0048061140
v 0.0070800000 -0.0019847759 0.0047715367
v 0.0070800000 -0.0019961571 0.0047340181
v 0.0070800000 -0.0020000000 0.0044450000
v 0.0070800000 -0.0019961571 0.0044059819
v 0.0070800000 -0.0019847759 0.0043684633
v 0.0070800000 -0.0019662939 0.0043338860
v 0.0070800000 -0.0019414214 0.0043035786
v 0.0070800000 -0.0019111140 0.0042787061
v 0.0070800000 -0.0018765367 0.0042602241
v 0.0070800000 -0.0018390181 0.0042488429
v 0.0070800000 0.0018000000 0.0042450000
v 0.0070800000 0.0018390181 0.0042488429
v 0.0070800000 0.0018765367 0.0042602241
v 0.0070800000 0.0019111140 0.0042787061
v 0.0070800000 0.0019414214 0.0043035786
v 0.0070800000 0.0019662939 0.0043338860
v 0.0070800000 0.0019847759 0.0043684633
v 0.0070800000 0.0019961571 0.0044059819
v 0.0070900000 0.0019900000 0.0046950000
v 0.0070900000 0.0019863492 0.0047320672
v 0.0070900000 0.0019755371 0.0047677099
v 0.0070900000 0.0019579792 0.0048005583
v 0.0070900000 0.0019343503 0.0048293503
v 0.0070900000 0.0019055583 0.0048529792
v 0.0070900000 0.0018727099 0.0048705371
v 0.0070900000 0.0018370672 0.0048813492
v 0.0070900000 -0.0018000000 0.0048850000
v 0.0070900000 -0.0018370672 0.0048813492
v 0.0070900000 -0.0018727099 0.0048705371
v 0.0070900000 -0.0019055583 0.0048529792
v 0.0070900000 -0.0019343503 0.0048293503
v 0.0070900000 -0.0019579792 0.0048005583
v 0.0070900000 -0.0019755371 0.0047677099
v 0.0070900000 -0.0019863492 0.0047320672
v 0.0070900000 -0.0019900000 0.0044450000
v 0.0070900000 -0.0019863492 0.0044079328
v 0.0070900000 -0.0019755371 0.0043722901
v 0.0070900000 -0.0019579792 0.0043394417
v 0.0070900000 -0.0019343503 0.0043106497
v 0.0070900000 -0.0019055583 0.0042870208
v 0.0070900000 -0.0018727099 0.0042694629
v 0.0070900000 -0.0018370672 0.0042586508
v 0.0070900000 0.0018000000 0.0042550000
v 0.0070900000 0.0018370672 0.0042586508
v 0.0070900000 0.0018727099 0.0042694629
v 0.0070900000 0.0019055583 0.0042870208
v 0.0070900000 0.0019343503 0.0043106497
v 0.0070900000 0.0019579792 0.0043394417
v 0.0070900000 0.0019755371 0.0043722901
v 0.0070900000 0.0019863492 0.0044079328
vn -0.91897287 0.39394197 0.01727962
vn -0.91532176 0.39498512 0.07856742
vn -0.91532176 0.37206784 0.15411555
vn -0.91532176 0.33485221 0.22374110
vn -0.91532176 0.28476840 0.28476840
vn -0.91532176 0.22374110 0.33485221
vn -0.91532176 0.15411555 0.37206784
vn -0.91087679 0.05932345 0.40839221
vn -0.91945687 -0.01953595 0.39270525
vn -0.91532176 -0.07856742 0.39498512
vn -0.91532176 -0.15411555 0.37206784
vn -0.91532176 -0.22374110 0.33485221
vn -0.91532176 -0.28476840 0.28476840
vn -0.91532176 -0.33485221 0.22374110
vn -0.91532176 -0.37206784 0.15411555
vn -0.91145673 -0.40671780 0.06186481
vn -0.91897287 -0.39394197 -0.01727962
vn -0.91532176 -0.39498512 -0.07856742
vn -0.91532176 -0.37206784 -0.15411555
vn -0.91532176 -0.33485221 -0.22374110
vn -0.91532176 -0.28476840 -0.28476840
vn -0.91532176 -0.22374110 -0.33485221
vn -0.91532176 -0.15411555 -0.37206784
vn -0.91087679 -0.05932345 -0.40839221
vn -0.91945687 0.01953595 -0.39270525
vn -0.91532176 0.07856742 -0.39498512
vn -0.91532176 0.15411555 -0.37206784
vn -0.91532176 0.22374110 -0.33485221
vn -0.91532176 0.28476840 -0.28476840
vn -0.91532176 0.33485221 -0.22374110
vn -0.91532176 0.37206784 -0.15411555
vn -0.91145673 0.40671780 -0.06186481
vn -0.37771086 0.92510183 0.03900132
vn -0.37448906 0.90941484 0.18089386
vn -0.37448906 0.85665005 0.35483607
vn -0.37448906 0.77096468 0.51514213
vn -0.37448906 0.65565156 0.65565156
vn -0.37448906 0.51514213 0.77096468
vn -0.37448906 0.35483607 0.85665005
vn -0.37040636 0.13784764 0.91858432
vn -0.37821512 -0.04454749 0.92464525
vn -0.37448906 -0.18089386 0.90941484
vn -0.37448906 -0.35483607 0.85665005
vn -0.37448906 -0.51514213 0.77096468
vn -0.37448906 -0.65565156 0.65565156
vn -0.37448906 -0.77096468 0.51514213
vn -0.37448906 -0.85665005 0.35483607
vn -0.37093731 -0.91754051 0.14326525
vn -0.37771086 -0.92510183 -0.03900132
vn -0.37448906 -0.90941484 -0.18089386
vn -0.37448906 -0.85665005 -0.35483607
vn -0.37448906 -0.77096468 -0.51514213
vn -0.37448906 -0.65565156 -0.65565156
vn -0.37448906 -0.51514213 -0.77096468
vn -0.37448906 -0.35483607 -0.85665005
vn -0.37040636 -0.13784764 -0.91858432
vn -0.37821512 0.04454749 -0.92464525
vn -0.37448906 0.18089386 -0.90941484
vn -0.37448906 0.35483607 -0.85665005
vn -0.37448906 0.51514213 -0.77096468
vn -0.37448906 0.65565156 -0.65565156
vn -0.37448906 0.77096468 -0.51514213
vn -0.37448906 0.85665005 -0.35483607
vn -0.37093731 0.91754051 -0.14326525
vn 0.37771086 0.92510183 0.03900132
vn 0.37448906 0.90941484 0.18089386
vn 0.37448906 0.85665005 0.35483607
vn 0.37448906 0.77096468 0.51514213
vn 0.37448906 0.65565156 0.65565156
vn 0.37448906 0.51514213 0.77096468
vn 0.37448906 0.35483607 0.85665005
vn 0.37040636 0.13784764 0.91858432
vn 0.37821512 -0.04454749 0.92464525
vn 0.37448906 -0.18089386 0.90941484
vn 0.37448906 -0.35483607 0.85665005
vn 0.37448906 -0.51514213 0.77096468
vn 0.37448906 -0.65565156 0.65565156
vn 0.37448906 -0.77096468 0.51514213
vn 0.37448906 -0.85665005 0.35483607
vn 0.37093731 -0.91754051 0.14326525
vn 0.37771086 -0.92510183 -0.03900132
vn 0.37448906 -0.90941484 -0.18089386
vn 0.37448906 -0.85665005 -0.35483607
vn 0.37448906 -0.77096468 -0.51514213
vn 0.37448906 -0.65565156 -0.65565156
vn 0.37448906 -0.51514213 -0.77096468
vn 0.37448906 -0.35483607 -0.85665005
vn 0.37040636 -0.13784764 -0.91858432
vn 0.37821512 0.04454749 -0.92464525
vn 0.37448906 0.18089386 -0.90941484
vn 0.37448906 0.35483607 -0.85665005
vn 0.37448906 0.51514213 -0.77096468
vn 0.37448906 0.65565156 -0.65565156
vn 0.37448906 0.77096468 -0.51514213
vn 0.37448906 0.85665005 -0.35483607
vn 0.37093731 0.91754051 -0.14326525
vn 0.91897287 0.39394197 0.01727962
vn 0.91532176 0.39498512 0.07856742
vn 0.91532176 0.37206784 0.15411555
vn 0.91532176 0.33485221 0.22374110
vn 0.91532176 0.28476840 0.28476840
vn 0.91532176 0.22374110 0.33485221
vn 0.91532176 0.15411555 0.37206784
vn 0.91087679 0.05932345 0.40839221
vn 0.91945687 -0.01953595 0.39270525
vn 0.91532176 -0.07856742 0.39498512
vn 0.91532176 -0.15411555 0.37206784
vn 0.91532176 -0.22374110 0.33485221
vn 0.91532176 -0.28476840 0.28476840
vn 0.91532176 -0.33485221 0.22374110
vn 0.91532176 -0.37206784 0.15411555
vn 0.91145673 -0.40671780 0.06186481
vn 0.91897287 -0.39394197 -0.01727962
vn 0.91532176 -0.39498512 -0.07856742
vn 0.91532176 -0.37206784 -0.15411555
vn 0.91532176 -0.33485221 -0.22374110
vn 0.91532176 -0.28476840 -0.28476840
vn 0.91532176 -0.22374110 -0.33485221
vn 0.91532176 -0.15411555 -0.37206784
vn 0.91087679 -0.05932345 -0.40839221
vn 0.91945687 0.01953595 -0.39270525
vn 0.91532176 0.07856742 -0.39498512
vn 0.91532176 0.15411555 -0.37206784
vn 0.91532176 0.22374110 -0.33485221
vn 0.91532176 0.28476840 -0.28476840
vn 0.91532176 0.33485221 -0.22374110
vn 0.91532176 0.37206784 -0.15411555
vn 0.91145673 0.40671780 -0.06186481
f 56//56 24//24 57//57
f 89//89 121//121 120//120
f 57//57 24//24 25//25
f 41//41 40//40 8//8
f 88//88 89//89 120//120
f 72//72 73//73 104//104
f 1//1 33//33 32//32
f 32//32 33//33 64//64
f 16//16 17//17 49//49
f 97//97 128//128 65//65
f 65//65 128//128 96//96
f 105//105 104//104 73//73
f 48//48 16//16 49//49
f 41//41 8//8 9//9
f 113//113 112//112 81//81
f 81//81 112//112 80//80
f 57//57 89//89 88//88
f 88//88 56//56 57//57
f 73//73 72//72 40//40
f 73//73 40//40 41//41
f 32//32 64//64 63//63
f 63//63 31//31 32//32
f 57//57 25//25 26//26
f 26//26 58//58 57//57
f 65//65 96//96 64//64
f 64//64 33//33 65//65
f 63//63 64//64 95//95
f 64//64 96//96 95//95
f 95//95 128//128 127//127
f 96//96 128//128 95//95
f 105//105 74//74 106//106
f 73//73 74//74 105//105
f 54//54 55//55 87//87
f 86//86 54//54 87//87
f 56//56 88//88 87//87
f 87//87 55//55 56//56
f 56//56 55//55 23//23
f 24//24 56//56 23//23
f 23//23 55//55 54//54
f 54//54 22//22 23//23
f 53//53 52//52 21//21
f 21//21 52//52 20//20
f 21//21 22//22 54//54
f 21//21 54//54 53//53
f 58//58 26//26 27//27
f 27//27 59//59 58//58
f 71//71 104//104 103//103
f 72//72 104//104 71//71
f 40//40 72//72 71//71
f 71//71 39//39 40//40
f 38//38 37//37 6//6
f 6//6 37//37 5//5
f 17//17 18//18 50//50
f 49//49 17//17 50//50
f 85//85 54//54 86//86
f 53//53 54//54 85//85
f 85//85 52//52 53//53
f 84//84 52//52 85//85
f 60//60 27//27 28//28
f 59//59 27//27 60//60
f 28//28 29//29 60//60
f 60//60 29//29 61//61
f 5//5 37//37 4//4
f 4//4 37//37 36//36
f 3//3 4//4 35//35
f 35//35 4//4 36//36
f 63//63 95//95 62//62
f 95//95 94//94 62//62
f 62//62 94//94 93//93
f 93//93 61//61 62//62
f 62//62 31//31 63//63
f 62//62 30//30 31//31
f 62//62 29//29 30//30
f 61//61 29//29 62//62
f 126//126 95//95 127//127
f 126//126 94//94 95//95
f 90//90 89//89 57//57
f 57//57 58//58 90//90
f 40//40 39//39 7//7
f 7//7 8//8 40//40
f 38//38 6//6 7//7
f 7//7 39//39 38//38
f 115//115 114//114 82//82
f 115//115 82//82 83//83
f 51//51 52//52 84//84
f 51//51 84//84 83//83
f 83//83 82//82 51//51
f 82//82 50//50 51//51
f 92//92 60//60 61//61
f 92//92 61//61 93//93
f 68//68 35//35 36//36
f 67//67 35//35 68//68
f 36//36 37//37 68//68
f 37//37 69//69 68//68
f 100//100 99//99 68//68
f 68//68 99//99 67//67
f 68//68 101//101 100//100
f 69//69 101//101 68//68
f 39//39 71//71 70//70
f 38//38 39//39 70//70
f 70//70 37//37 38//38
f 70//70 69//69 37//37
f 103//103 102//102 70//70
f 70//70 71//71 103//103
f 102//102 101//101 70//70
f 70//70 101//101 69//69
f 81//81 114//114 113//113
f 82//82 114//114 81//81
f 49//49 50//50 81//81
f 81//81 50//50 82//82
f 81//81 48//48 49//49
f 81//81 80//80 48//48
f 15//15 48//48 47//47
f 16//16 48//48 15//15
f 42//42 73//73 41//41
f 42//42 74//74 73//73
f 1//1 2//2 34//34
f 34//34 33//33 1//1
f 34//34 2//2 3//3
f 3//3 35//35 34//34
f 125//125 92//92 93//93
f 124//124 92//92 125//125
f 93//93 94//94 125//125
f 94//94 126//126 125//125
f 89//89 90//90 122//122
f 121//121 89//89 122//122
f 75//75 42//42 43//43
f 74//74 42//42 75//75
f 75//75 44//44 76//76
f 43//43 44//44 75//75
f 48//48 80//80 79//79
f 47//47 48//48 79//79
f 79//79 112//112 111//111
f 80//80 112//112 79//79
f 110//110 79//79 111//111
f 78//78 79//79 110//110
f 116//116 115//115 83//83
f 83//83 84//84 116//116
f 20//20 52//52 19//19
f 52//52 51//51 19//19
f 19//19 50//50 18//18
f 19//19 51//51 50//50
f 123//123 122//122 91//91
f 91//91 122//122 90//90
f 124//124 123//123 91//91
f 91//91 92//92 124//124
f 58//58 59//59 91//91
f 91//91 90//90 58//58
f 59//59 60//60 91//91
f 60//60 92//92 91//91
f 10//10 42//42 41//41
f 41//41 9//9 10//10
f 66//66 65//65 33//33
f 33//33 34//34 66//66
f 66//66 35//35 67//67
f 66//66 34//34 35//35
f 66//66 98//98 97//97
f 97//97 65//65 66//66
f 67//67 99//99 66//66
f 99//99 98//98 66//66
f 106//106 74//74 107//107
f 74//74 75//75 107//107
f 107//107 75//75 76//76
f 76//76 108//108 107//107
f 14//14 15//15 46//46
f 46//46 15//15 47//47
f 47//47 79//79 46//46
f 46//46 79//79 78//78
f 13//13 44//44 12//12
f 13//13 45//45 44//44
f 14//14 46//46 13//13
f 13//13 46//46 45//45
f 76//76 44//44 77//77
f 44//44 45//45 77//77
f 77//77 46//46 78//78
f 45//45 46//46 77//77
f 84//84 85//85 117//117
f 117//117 116//116 84//84
f 11//11 18//18 17//17
f 11//11 25//25 24//24
f 11//11 9//9 8//8
f 8//8 7//7 11//11
f 1//1 32//32 11//11
f 11//11 21//21 20//20
f 17//17 16//16 11//11
f 11//11 32//32 31//31
f 31//31 30//30 11//11
f 28//28 27//27 11//11
f 5//5 4//4 11//11
f 16//16 15//15 11//11
f 24//24 23//23 11//11
f 11//11 26//26 25//25
f 11//11 29//29 28//28
f 11//11 2//2 1//1
f 11//11 23//23 22//22
f 22//22 21//21 11//11
f 11//11 27//27 26//26
f 11//11 6//6 5//5
f 30//30 29//29 11//11
f 11//11 4//4 3//3
f 3//3 2//2 11//11
f 11//11 13//13 12//12
f 20//20 19//19 11//11
f 11//11 7//7 6//6
f 11//11 15//15 14//14
f 11//11 19//19 18//18
f 11//11 10//10 9//9
f 14//14 13//13 11//11
f 11//11 44//44 43//43
f 12//12 44//44 11//11
f 43//43 42//42 11//11
f 42//42 10//10 11//11
f 109//109 108//108 76//76
f 76//76 77//77 109//109
f 78//78 110//110 109//109
f 109//109 77//77 78//78
f 118//118 85//85 86//86
f 118//118 117//117 85//85
f 120//120 121//121 119//119
f 119//119 126//126 127//127
f 124//124 125//125 119//119
f 119//119 128//128 97//97
f 115//115 116//116 119//119
f 119//119 102//102 103//103
f 119//119 105//105 106//106
f 103//103 104//104 119//119
f 100//100 101//101 119//119
f 127//127 128//128 119//119
f 119//119 112//112 113//113
f 114//114 115//115 119//119
f 104//104 105//105 119//119
f 119//119 123//123 124//124
f 113//113 114//114 119//119
f 119//119 99//99 100//100
f 97//97 98//98 119//119
f 121//121 122//122 119//119
f 119//119 110//110 111//111
f 119//119 101//101 102//102
f 111//111 112//112 119//119
f 119//119 98//98 99//99
f 119//119 125//125 126//126
f 119//119 122//122 123//123
f 116//116 117//117 119//119
f 106//106 107//107 119//119
f 119//119 107//107 108//108
f 108//108 109//109 119//119
f 119//119 109//109 110//110
f 117//117 118//118 119//119
f 119//119 87//87 88//88
f 119//119 88//88 120//120
f 86//86 87//87 119//119
f 119//119 118//118 86//86
