# Independent procedural camera geometry; meters; Z up
o rear_display
v -0.0161200000 -0.0277000000 0.0387800000
v -0.0161200000 -0.0276754052 0.0390297156
v -0.0161200000 -0.0276025658 0.0392698348
v -0.0161200000 -0.0274842811 0.0394911299
v -0.0161200000 -0.0273250967 0.0396850967
v -0.0161200000 -0.0271311299 0.0398442811
v -0.0161200000 -0.0269098348 0.0399625658
v -0.0161200000 -0.0266697156 0.0400354052
v -0.0161200000 0.0264200000 0.0400600000
v -0.0161200000 0.0266697156 0.0400354052
v -0.0161200000 0.0269098348 0.0399625658
v -0.0161200000 0.0271311299 0.0398442811
v -0.0161200000 0.0273250967 0.0396850967
v -0.0161200000 0.0274842811 0.0394911299
v -0.0161200000 0.0276025658 0.0392698348
v -0.0161200000 0.0276754052 0.0390297156
v -0.0161200000 0.0277000000 0.0130600000
v -0.0161200000 0.0276754052 0.0128102844
v -0.0161200000 0.0276025658 0.0125701652
v -0.0161200000 0.0274842811 0.0123488701
v -0.0161200000 0.0273250967 0.0121549033
v -0.0161200000 0.0271311299 0.0119957189
v -0.0161200000 0.0269098348 0.0118774342
v -0.0161200000 0.0266697156 0.0118045948
v -0.0161200000 -0.0264200000 0.0117800000
v -0.0161200000 -0.0266697156 0.0118045948
v -0.0161200000 -0.0269098348 0.0118774342
v -0.0161200000 -0.0271311299 0.0119957189
v -0.0161200000 -0.0273250967 0.0121549033
v -0.0161200000 -0.0274842811 0.0123488701
v -0.0161200000 -0.0276025658 0.0125701652
v -0.0161200000 -0.0276754052 0.0128102844
v -0.0161400000 -0.0277200000 0.0387800000
v -0.0161400000 -0.0276950209 0.0390336174
v -0.0161400000 -0.0276210434 0.0392774885
v -0.0161400000 -0.0275009105 0.0395022413
v -0.0161400000 -0.0273392388 0.0396992388
v -0.0161400000 -0.0271422413 0.0398609105
v -0.0161400000 -0.0269174885 0.0399810434
v -0.0161400000 -0.0266736174 0.0400550209
v -0.0161400000 0.0264200000 0.0400800000
v -0.0161400000 0.0266736174 0.0400550209
v -0.0161400000 0.0269174885 0.0399810434
v -0.0161400000 0.0271422413 0.0398609105
v -0.0161400000 0.0273392388 0.0396992388
v -0.0161400000 0.0275009105 0.0395022413
v -0.0161400000 0.0276210434 0.0392774885
v -0.0161400000 0.0276950209 0.0390336174
v -0.0161400000 0.0277200000 0.0130600000
v -0.0161400000 0.0276950209 0.0128063826
v -0.0161400000 0.0276210434 0.0125625115
v -0.0161400000 0.0275009105 0.0123377587
v -0.0161400000 0.0273392388 0.0121407612
v -0.0161400000 0.0271422413 0.0119790895
v -0.0161400000 0.0269174885 0.0118589566
v -0.0161400000 0.0266736174 0.0117849791
v -0.0161400000 -0.0264200000 0.0117600000
v -0.0161400000 -0.0266736174 0.0117849791
v -0.0161400000 -0.0269174885 0.0118589566
v -0.0161400000 -0.0271422413 0.0119790895
v -0.0161400000 -0.0273392388 0.0121407612
v -0.0161400000 -0.0275009105 0.0123377587
v -0.0161400000 -0.0276210434 0.0125625115
v -0.0161400000 -0.0276950209 0.0128063826
v -0.0161800000 -0.0277200000 0.0387800000
v -0.0161800000 -0.0276950209 0.0390336174
v -0.0161800000 -0.0276210434 0.0392774885
v -0.0161800000 -0.0275009105 0.0395022413
v -0.0161800000 -0.0273392388 0.0396992388
v -0.0161800000 -0.0271422413 0.0398609105
v -0.0161800000 -0.0269174885 0.0399810434
v -0.0161800000 -0.0266736174 0.0400550209
v -0.0161800000 0.0264200000 0.0400800000
v -0.0161800000 0.0266736174 0.0400550209
v -0.0161800000 0.0269174885 0.0399810434
v -0.0161800000 0.0271422413 0.0398609105
v -0.0161800000 0.0273392388 0.0396992388
v -0.0161800000 0.0275009105 0.0395022413
v -0.0161800000 0.0276210434 0.0392774885
v -0.0161800000 0.0276950209 0.0390336174
v -0.0161800000 0.0277200000 0.0130600000
v -0.0161800000 0.0276950209 0.0128063826
v -0.0161800000 0.0276210434 0.0125625115
v -0.0161800000 0.0275009105 0.0123377587
v -0.0161800000 0.0273392388 0.0121407612
v -0.0161800000 0.0271422413 0.0119790895
v -0.0161800000 0.0269174885 0.0118589566
v -0.0161800000 0.0266736174 0.0117849791
v -0.0161800000 -0.0264200000 0.0117600000
v -0.0161800000 -0.0266736174 0.0117849791
v -0.0161800000 -0.0269174885 0.0118589566
v -0.0161800000 -0.0271422413 0.0119790895
v -0.0161800000 -0.0273392388 0.0121407612
v -0.0161800000 -0.0275009105 0.0123377587
v -0.0161800000 -0.0276210434 0.0125625115
v -0.0161800000 -0.0276950209 0.0128063826
v -0.0162000000 -0.0277000000 0.0387800000
v -0.0162000000 -0.0276754052 0.0390297156
v -0.0162000000 -0.0276025658 0.0392698348
v -0.0162000000 -0.0274842811 0.0394911299
v -0.0162000000 -0.0273250967 0.0396850967
v -0.0162000000 -0.0271311299 0.0398442811
v -0.0162000000 -0.0269098348 0.0399625658
v -0.0162000000 -0.0266697156 0.0400354052
v -0.0162000000 0.0264200000 0.0400600000
v -0.0162000000 0.0266697156 0.0400354052
v -0.0162000000 0.0269098348 0.0399625658
v -0.0162000000 0.0271311299 0.0398442811
v -0.0162000000 0.0273250967 0.0396850967
v -0.0162000000 0.0274842811 0.0394911299
v -0.0162000000 0.0276025658 0.0392698348
v -0.0162000000 0.0276754052 0.0390297156
v -0.0162000000 0.0277000000 0.0130600000
v -0.0162000000 0.0276754052 0.0128102844
v -0.0162000000 0.0276025658 0.0125701652
v -0.0162000000 0.0274842811 0.0123488701
v -0.0162000000 0.0273250967 0.0121549033
v -0.0162000000 0.0271311299 0.0119957189
v -0.0162000000 0.0269098348 0.0118774342
v -0.0162000000 0.0266697156 0.0118045948
v -0.0162000000 -0.0264200000 0.0117800000
v -0.0162000000 -0.0266697156 0.0118045948
v -0.0162000000 -0.0269098348 0.0118774342
v -0.0162000000 -0.0271311299 0.0119957189
v -0.0162000000 -0.0273250967 0.0121549033
v -0.0162000000 -0.0274842811 0.0123488701
v -0.0162000000 -0.0276025658 0.0125701652
v -0.0162000000 -0.0276754052 0.0128102844
vn 0.91945920 -0.39269924 0.01954681
vn 0.91532176 -0.39498512 0.07856742
vn 0.91532176 -0.37206784 0.15411555
vn 0.91532176 -0.33485221 0.22374110
vn 0.91532176 -0.28476840 0.28476840
vn 0.91532176 -0.22374110 0.33485221
vn 0.91532176 -0.15411555 0.37206784
vn 0.91084890 -0.05920083 0.40847220
vn 0.91947911 0.01963943 0.39264800
vn 0.91532176 0.07856742 0.39498512
vn 0.91532176 0.15411555 0.37206784
vn 0.91532176 0.22374110 0.33485221
vn 0.91532176 0.28476840 0.28476840
vn 0.91532176 0.33485221 0.22374110
vn 0.91532176 0.37206784 0.15411555
vn 0.91087230 0.40840509 0.05930372
vn 0.91945920 0.39269924 -0.01954681
vn 0.91532176 0.39498512 -0.07856742
vn 0.91532176 0.37206784 -0.15411555
vn 0.91532176 0.33485221 -0.22374110
vn 0.91532176 0.28476840 -0.28476840
vn 0.91532176 0.22374110 -0.33485221
vn 0.91532176 0.15411555 -0.37206784
vn 0.91084890 0.05920083 -0.40847220
vn 0.91947911 -0.01963943 -0.39264800
vn 0.91532176 -0.07856742 -0.39498512
vn 0.91532176 -0.15411555 -0.37206784
vn 0.91532176 -0.22374110 -0.33485221
vn 0.91532176 -0.28476840 -0.28476840
vn 0.91532176 -0.33485221 -0.22374110
vn 0.91532176 -0.37206784 -0.15411555
vn 0.91087230 -0.40840509 -0.05930372
vn 0.37822262 -0.92464043 0.04458384
vn 0.37448906 -0.90941484 0.18089386
vn 0.37448906 -0.85665005 0.35483607
vn 0.37448906 -0.77096468 0.51514213
vn 0.37448906 -0.65565156 0.65565156
vn 0.37448906 -0.51514213 0.77096468
vn 0.37448906 -0.35483607 0.85665005
vn 0.37038085 -0.13758851 0.91863346
vn 0.37824125 0.04480906 0.92462192
vn 0.37448906 0.18089386 0.90941484
vn 0.37448906 0.35483607 0.85665005
vn 0.37448906 0.51514213 0.77096468
vn 0.37448906 0.65565156 0.65565156
vn 0.37448906 0.77096468 0.51514213
vn 0.37448906 0.85665005 0.35483607
vn 0.37040225 0.91859224 0.13780589
vn 0.37822262 0.92464043 -0.04458384
vn 0.37448906 0.90941484 -0.18089386
vn 0.37448906 0.85665005 -0.35483607
vn 0.37448906 0.77096468 -0.51514213
vn 0.37448906 0.65565156 -0.65565156
vn 0.37448906 0.51514213 -0.77096468
vn 0.37448906 0.35483607 -0.85665005
vn 0.37038085 0.13758851 -0.91863346
vn 0.37824125 -0.04480906 -0.92462192
vn 0.37448906 -0.18089386 -0.90941484
vn 0.37448906 -0.35483607 -0.85665005
vn 0.37448906 -0.51514213 -0.77096468
vn 0.37448906 -0.65565156 -0.65565156
vn 0.37448906 -0.77096468 -0.51514213
vn 0.37448906 -0.85665005 -0.35483607
vn 0.37040225 -0.91859224 -0.13780589
vn -0.37822262 -0.92464043 0.04458384
vn -0.37448906 -0.90941484 0.18089386
vn -0.37448906 -0.85665005 0.35483607
vn -0.37448906 -0.77096468 0.51514213
vn -0.37448906 -0.65565156 0.65565156
vn -0.37448906 -0.51514213 0.77096468
vn -0.37448906 -0.35483607 0.85665005
vn -0.37038085 -0.13758851 0.91863346
vn -0.37824125 0.04480906 0.92462192
vn -0.37448906 0.18089386 0.90941484
vn -0.37448906 0.35483607 0.85665005
vn -0.37448906 0.51514213 0.77096468
vn -0.37448906 0.65565156 0.65565156
vn -0.37448906 0.77096468 0.51514213
vn -0.37448906 0.85665005 0.35483607
vn -0.37040225 0.91859224 0.13780589
vn -0.37822262 0.92464043 -0.04458384
vn -0.37448906 0.90941484 -0.18089386
vn -0.37448906 0.85665005 -0.35483607
vn -0.37448906 0.77096468 -0.51514213
vn -0.37448906 0.65565156 -0.65565156
vn -0.37448906 0.51514213 -0.77096468
vn -0.37448906 0.35483607 -0.85665005
vn -0.37038085 0.13758851 -0.91863346
vn -0.37824125 -0.04480906 -0.92462192
vn -0.37448906 -0.18089386 -0.90941484
vn -0.37448906 -0.35483607 -0.85665005
vn -0.37448906 -0.51514213 -0.77096468
vn -0.37448906 -0.65565156 -0.65565156
vn -0.37448906 -0.77096468 -0.51514213
vn -0.37448906 -0.85665005 -0.35483607
vn -0.37040225 -0.91859224 -0.13780589
vn -0.91945920 -0.39269924 0.01954681
vn -0.91532176 -0.39498512 0.07856742
vn -0.91532176 -0.37206784 0.15411555
vn -0.91532176 -0.33485221 0.22374110
vn -0.91532176 -0.28476840 0.28476840
vn -0.91532176 -0.22374110 0.33485221
vn -0.91532176 -0.15411555 0.37206784
vn -0.91084890 -0.05920083 0.40847220
vn -0.91947911 0.01963943 0.39264800
vn -0.91532176 0.07856742 0.39498512
vn -0.91532176 0.15411555 0.37206784
vn -0.91532176 0.22374110 0.33485221
vn -0.91532176 0.28476840 0.28476840
vn -0.91532176 0.33485221 0.22374110
vn -0.91532176 0.37206784 0.15411555
vn -0.91087230 0.40840509 0.05930372
vn -0.91945920 0.39269924 -0.01954681
vn -0.91532176 0.39498512 -0.07856742
vn -0.91532176 0.37206784 -0.15411555
vn -0.91532176 0.33485221 -0.22374110
vn -0.91532176 0.28476840 -0.28476840
vn -0.91532176 0.22374110 -0.33485221
vn -0.91532176 0.15411555 -0.37206784
vn -0.91084890 0.05920083 -0.40847220
vn -0.91947911 -0.01963943 -0.39264800
vn -0.91532176 -0.07856742 -0.39498512
vn -0.91532176 -0.15411555 -0.37206784
vn -0.91532176 -0.22374110 -0.33485221
vn -0.91532176 -0.28476840 -0.28476840
vn -0.91532176 -0.33485221 -0.22374110
vn -0.91532176 -0.37206784 -0.15411555
vn -0.91087230 -0.40840509 -0.05930372
f 128//128 65//65 97//97
f 1//1 33//33 32//32
f 32//32 33//33 64//64
f 57//57 24//24 25//25
f 16//16 17//17 49//49
f 56//56 24//24 57//57
f 65//65 128//128 96//96
f 81//81 113//113 112//112
f 8//8 41//41 40//40
f 89//89 121//121 120//120
f 120//120 88//88 89//89
f 41//41 8//8 9//9
f 72//72 73//73 104//104
f 104//104 73//73 105//105
f 48//48 16//16 49//49
f 80//80 81//81 112//112
f 33//33 65//65 96//96
f 64//64 33//33 96//96
f 43//43 42//42 11//11
f 11//11 42//42 10//10
f 63//63 31//31 32//32
f 63//63 32//32 64//64
f 88//88 56//56 89//89
f 89//89 56//56 57//57
f 28//28 60//60 59//59
f 59//59 27//27 28//28
f 10//10 42//42 9//9
f 9//9 42//42 41//41
f 66//66 65//65 33//33
f 33//33 34//34 66//66
f 59//59 60//60 92//92
f 92//92 91//91 59//59
f 91//91 92//92 123//123
f 123//123 92//92 124//124
f 57//57 25//25 26//26
f 26//26 58//58 57//57
f 26//26 27//27 59//59
f 59//59 58//58 26//26
f 90//90 122//122 121//121
f 121//121 89//89 90//90
f 90//90 89//89 57//57
f 57//57 58//58 90//90
f 90//90 123//123 122//122
f 91//91 123//123 90//90
f 59//59 91//91 90//90
f 90//90 58//58 59//59
f 72//72 71//71 39//39
f 72//72 39//39 40//40
f 40//40 41//41 72//72
f 41//41 73//73 72//72
f 41//41 42//42 74//74
f 74//74 73//73 41//41
f 75//75 42//42 43//43
f 75//75 74//74 42//42
f 44//44 75//75 43//43
f 76//76 75//75 44//44
f 108//108 75//75 76//76
f 107//107 75//75 108//108
f 77//77 109//109 108//108
f 108//108 76//76 77//77
f 50//50 82//82 81//81
f 50//50 81//81 49//49
f 81//81 82//82 114//114
f 113//113 81//81 114//114
f 55//55 56//56 88//88
f 88//88 87//87 55//55
f 117//117 85//85 118//118
f 118//118 85//85 86//86
f 52//52 20//20 21//21
f 52//52 21//21 53//53
f 6//6 38//38 37//37
f 37//37 5//5 6//6
f 31//31 63//63 30//30
f 63//63 62//62 30//30
f 93//93 125//125 124//124
f 124//124 92//92 93//93
f 74//74 75//75 106//106
f 106//106 75//75 107//107
f 73//73 74//74 106//106
f 106//106 105//105 73//73
f 19//19 20//20 51//51
f 20//20 52//52 51//51
f 18//18 50//50 49//49
f 49//49 17//17 18//18
f 19//19 51//51 18//18
f 18//18 51//51 50//50
f 119//119 87//87 88//88
f 119//119 88//88 120//120
f 119//119 118//118 86//86
f 86//86 87//87 119//119
f 67//67 66//66 34//34
f 67//67 34//34 35//35
f 2//2 34//34 33//33
f 2//2 33//33 1//1
f 35//35 34//34 2//2
f 2//2 3//3 35//35
f 4//4 5//5 37//37
f 37//37 36//36 4//4
f 35//35 3//3 4//4
f 4//4 36//36 35//35
f 40//40 39//39 7//7
f 7//7 8//8 40//40
f 38//38 6//6 7//7
f 39//39 38//38 7//7
f 29//29 30//30 61//61
f 61//61 30//30 62//62
f 61//61 28//28 29//29
f 60//60 28//28 61//61
f 61//61 92//92 60//60
f 61//61 93//93 92//92
f 94//94 61//61 62//62
f 93//93 61//61 94//94
f 76//76 44//44 45//45
f 77//77 76//76 45//45
f 16//16 48//48 15//15
f 15//15 48//48 47//47
f 43//43 11//11 12//12
f 12//12 44//44 43//43
f 12//12 45//45 44//44
f 13//13 45//45 12//12
f 110//110 109//109 77//77
f 77//77 78//78 110//110
f 110//110 79//79 111//111
f 78//78 79//79 110//110
f 112//112 111//111 80//80
f 111//111 79//79 80//80
f 47//47 48//48 80//80
f 80//80 79//79 47//47
f 49//49 81//81 80//80
f 80//80 48//48 49//49
f 82//82 50//50 83//83
f 50//50 51//51 83//83
f 56//56 55//55 23//23
f 24//24 56//56 23//23
f 86//86 85//85 54//54
f 54//54 85//85 53//53
f 53//53 21//21 54//54
f 21//21 22//22 54//54
f 54//54 55//55 87//87
f 54//54 87//87 86//86
f 22//22 23//23 54//54
f 54//54 23//23 55//55
f 68//68 67//67 35//35
f 35//35 36//36 68//68
f 68//68 36//36 37//37
f 37//37 69//69 68//68
f 67//67 68//68 99//99
f 99//99 68//68 100//100
f 39//39 71//71 70//70
f 70//70 38//38 39//39
f 37//37 38//38 70//70
f 70//70 69//69 37//37
f 125//125 93//93 126//126
f 93//93 94//94 126//126
f 95//95 62//62 63//63
f 95//95 94//94 62//62
f 127//127 126//126 95//95
f 95//95 126//126 94//94
f 64//64 96//96 95//95
f 95//95 63//63 64//64
f 128//128 127//127 95//95
f 95//95 96//96 128//128
f 46//46 79//79 78//78
f 47//47 79//79 46//46
f 77//77 45//45 46//46
f 46//46 78//78 77//77
f 115//115 114//114 82//82
f 82//82 83//83 115//115
f 65//65 66//66 98//98
f 97//97 65//65 98//98
f 66//66 67//67 98//98
f 67//67 99//99 98//98
f 1//1 32//32 14//14
f 14//14 25//25 24//24
f 17//17 16//16 14//14
f 14//14 18//18 17//17
f 5//5 4//4 14//14
f 8//8 7//7 14//14
f 21//21 20//20 14//14
f 14//14 11//11 10//10
f 32//32 31//31 14//14
f 14//14 26//26 25//25
f 29//29 28//28 14//14
f 14//14 30//30 29//29
f 10//10 9//9 14//14
f 14//14 28//28 27//27
f 14//14 9//9 8//8
f 14//14 20//20 19//19
f 14//14 12//12 11//11
f 27//27 26//26 14//14
f 14//14 2//2 1//1
f 14//14 6//6 5//5
f 31//31 30//30 14//14
f 16//16 15//15 14//14
f 19//19 18//18 14//14
f 14//14 22//22 21//21
f 3//3 2//2 14//14
f 14//14 4//4 3//3
f 14//14 7//7 6//6
f 24//24 23//23 14//14
f 13//13 12//12 14//14
f 14//14 23//23 22//22
f 14//14 45//45 13//13
f 14//14 46//46 45//45
f 14//14 15//15 47//47
f 47//47 46//46 14//14
f 84//84 52//52 53//53
f 53//53 85//85 84//84
f 84//84 51//51 52//52
f 84//84 83//83 51//51
f 71//71 72//72 103//103
f 103//103 72//72 104//104
f 103//103 70//70 71//71
f 103//103 102//102 70//70
f 100//100 68//68 101//101
f 101//101 68//68 69//69
f 69//69 70//70 101//101
f 70//70 102//102 101//101
f 116//116 128//128 97//97
f 116//116 127//127 128//128
f 120//120 121//121 116//116
f 116//116 106//106 107//107
f 113//113 114//114 116//116
f 112//112 113//113 116//116
f 124//124 125//125 116//116
f 121//121 122//122 116//116
f 116//116 111//111 112//112
f 116//116 123//123 124//124
f 107//107 108//108 116//116
f 109//109 110//110 116//116
f 100//100 101//101 116//116
f 122//122 123//123 116//116
f 104//104 105//105 116//116
f 116//116 108//108 109//109
f 116//116 119//119 120//120
f 125//125 126//126 116//116
f 117//117 118//118 116//116
f 97//97 98//98 116//116
f 105//105 106//106 116//116
f 118//118 119//119 116//116
f 116//116 110//110 111//111
f 116//116 99//99 100//100
f 116//116 126//126 127//127
f 114//114 115//115 116//116
f 116//116 98//98 99//99
f 116//116 103//103 104//104
f 102//102 103//103 116//116
f 116//116 101//101 102//102
f 116//116 85//85 117//117
f 116//116 84//84 85//85
f 116//116 115//115 83//83
f 83//83 84//84 116//116
