# Independent procedural camera geometry; meters; Z up
o rear_cooling_channel_-1
v -0.0131000000 -0.0202500000 0.0090000000
v -0.0130415223 -0.0202244688 0.0089876098
v -0.0130415223 -0.0119744688 0.0259876098
v -0.0131000000 -0.0120000000 0.0260000000
v -0.0130787169 -0.0201947459 0.0089731855
v -0.0130787169 -0.0119447459 0.0259731855
v -0.0131283789 -0.0201973902 0.0089744688
v -0.0131283789 -0.0119473902 0.0259744688
v -0.0131614169 -0.0202308525 0.0089907079
v -0.0131614169 -0.0119808525 0.0259907079
v -0.0131584777 -0.0202755312 0.0090123902
v -0.0131584777 -0.0120255312 0.0260123902
v -0.0131212831 -0.0203052541 0.0090268145
v -0.0131212831 -0.0120552541 0.0260268145
v -0.0130716211 -0.0203026098 0.0090255312
v -0.0130716211 -0.0120526098 0.0260255312
v -0.0130385831 -0.0202691475 0.0090092921
v -0.0130385831 -0.0120191475 0.0260092921
v -0.0131000000 -0.0120000000 0.0260000000
v -0.0130359346 -0.0120108247 0.0259981443
v -0.0130359346 -0.0180108247 0.0609981443
v -0.0131000000 -0.0180000000 0.0610000000
v -0.0130469330 -0.0119630045 0.0260063421
v -0.0130469330 -0.0179630045 0.0610063421
v -0.0130890174 -0.0119368557 0.0260108247
v -0.0130890174 -0.0179368557 0.0610108247
v -0.0131375352 -0.0119476960 0.0260089664
v -0.0131375352 -0.0179476960 0.0610089664
v -0.0131640654 -0.0119891753 0.0260018557
v -0.0131640654 -0.0179891753 0.0610018557
v -0.0131530670 -0.0120369955 0.0259936579
v -0.0131530670 -0.0180369955 0.0609936579
v -0.0131109826 -0.0120631443 0.0259891753
v -0.0131109826 -0.0180631443 0.0609891753
v -0.0130624648 -0.0120523040 0.0259910336
v -0.0130624648 -0.0180523040 0.0609910336
vn -0.00000000 -0.43659809 -0.89965666
vn 0.69847736 0.02978249 -0.71501216
vn 0.69847736 0.58012527 0.41902751
vn -0.00000000 0.43659809 0.89965666
vn 0.25421225 0.38480226 -0.88730116
vn 0.25421225 0.93514504 0.24673850
vn -0.33896695 0.35321842 -0.87197371
vn -0.33896695 0.90356120 0.26206596
vn -0.73358391 -0.04646765 -0.67800841
vn -0.73358391 0.50387513 0.45603125
vn -0.69847736 -0.58012527 -0.41902751
vn -0.69847736 -0.02978249 0.71501216
vn -0.25421225 -0.93514504 -0.24673850
vn -0.25421225 -0.38480226 0.88730116
vn 0.33896695 -0.90356120 -0.26206596
vn 0.33896695 -0.35321842 0.87197371
vn 0.73358391 -0.50387513 -0.45603125
vn 0.73358391 0.04646765 0.67800841
vn -0.00000000 0.16896382 -0.98562225
vn 0.76521951 -0.02280286 -0.64336548
vn 0.76521951 -0.23578596 0.59903596
vn 0.00000000 -0.16896382 0.98562225
vn 0.63385051 0.54837882 -0.54544862
vn 0.63385051 0.33539572 0.69695282
vn 0.13118049 0.86070893 -0.49190631
vn 0.13118049 0.64772582 0.75049513
vn -0.44833329 0.73122873 -0.51410292
vn -0.44833329 0.51824562 0.72829852
vn -0.76521951 0.23578596 -0.59903596
vn -0.76521951 0.02280286 0.64336548
vn -0.63385051 -0.33539572 -0.69695282
vn -0.63385051 -0.54837882 0.54544862
vn -0.13118049 -0.64772582 -0.75049513
vn -0.13118049 -0.86070893 0.49190631
vn 0.44833329 -0.51824562 -0.72829852
vn 0.44833329 -0.73122873 0.51410292
f 2//2 1//1 5//5
f 2//2 5//5 3//3
f 3//3 5//5 6//6
f 3//3 6//6 4//4
f 5//5 1//1 7//7
f 5//5 7//7 6//6
f 6//6 7//7 8//8
f 6//6 8//8 4//4
f 7//7 1//1 9//9
f 7//7 9//9 8//8
f 8//8 9//9 10//10
f 8//8 10//10 4//4
f 9//9 1//1 11//11
f 9//9 11//11 10//10
f 10//10 11//11 12//12
f 10//10 12//12 4//4
f 11//11 1//1 13//13
f 11//11 13//13 12//12
f 12//12 13//13 14//14
f 12//12 14//14 4//4
f 13//13 1//1 15//15
f 13//13 15//15 14//14
f 14//14 15//15 16//16
f 14//14 16//16 4//4
f 15//15 1//1 17//17
f 15//15 17//17 16//16
f 16//16 17//17 18//18
f 16//16 18//18 4//4
f 17//17 1//1 2//2
f 17//17 2//2 18//18
f 18//18 2//2 3//3
f 18//18 3//3 4//4
f 20//20 19//19 23//23
f 20//20 23//23 21//21
f 21//21 23//23 24//24
f 21//21 24//24 22//22
f 23//23 19//19 25//25
f 23//23 25//25 24//24
f 24//24 25//25 26//26
f 24//24 26//26 22//22
f 25//25 19//19 27//27
f 25//25 27//27 26//26
f 26//26 27//27 28//28
f 26//26 28//28 22//22
f 27//27 19//19 29//29
f 27//27 29//29 28//28
f 28//28 29//29 30//30
f 28//28 30//30 22//22
f 29//29 19//19 31//31
f 29//29 31//31 30//30
f 30//30 31//31 32//32
f 30//30 32//32 22//22
f 31//31 19//19 33//33
f 31//31 33//33 32//32
f 32//32 33//33 34//34
f 32//32 34//34 22//22
f 33//33 19//19 35//35
f 33//33 35//35 34//34
f 34//34 35//35 36//36
f 34//34 36//36 22//22
f 35//35 19//19 20//20
f 35//35 20//20 36//36
f 36//36 20//20 21//21
f 36//36 21//21 22//22
o rear_cooling_channel_1
v -0.0131000000 0.0202500000 0.0090000000
v -0.0130415223 0.0202244688 0.0089876098
v -0.0130415223 0.0119744688 0.0259876098
v -0.0131000000 0.0120000000 0.0260000000
v -0.0130385831 0.0202691475 0.0090092921
v -0.0130385831 0.0120191475 0.0260092921
v -0.0130716211 0.0203026098 0.0090255312
v -0.0130716211 0.0120526098 0.0260255312
v -0.0131212831 0.0203052541 0.0090268145
v -0.0131212831 0.0120552541 0.0260268145
v -0.0131584777 0.0202755312 0.0090123902
v -0.0131584777 0.0120255312 0.0260123902
v -0.0131614169 0.0202308525 0.0089907079
v -0.0131614169 0.0119808525 0.0259907079
v -0.0131283789 0.0201973902 0.0089744688
v -0.0131283789 0.0119473902 0.0259744688
v -0.0130787169 0.0201947459 0.0089731855
v -0.0130787169 0.0119447459 0.0259731855
v -0.0131000000 0.0120000000 0.0260000000
v -0.0130359346 0.0120108247 0.0259981443
v -0.0130359346 0.0180108247 0.0609981443
v -0.0131000000 0.0180000000 0.0610000000
v -0.0130624648 0.0120523040 0.0259910336
v -0.0130624648 0.0180523040 0.0609910336
v -0.0131109826 0.0120631443 0.0259891753
v -0.0131109826 0.0180631443 0.0609891753
v -0.0131530670 0.0120369955 0.0259936579
v -0.0131530670 0.0180369955 0.0609936579
v -0.0131640654 0.0119891753 0.0260018557
v -0.0131640654 0.0179891753 0.0610018557
v -0.0131375352 0.0119476960 0.0260089664
v -0.0131375352 0.0179476960 0.0610089664
v -0.0130890174 0.0119368557 0.0260108247
v -0.0130890174 0.0179368557 0.0610108247
v -0.0130469330 0.0119630045 0.0260063421
v -0.0130469330 0.0179630045 0.0610063421
vn -0.00000000 0.43659809 -0.89965666
vn 0.69847736 -0.02978249 -0.71501216
vn 0.69847736 -0.58012527 0.41902751
vn -0.00000000 -0.43659809 0.89965666
vn 0.73358391 0.50387513 -0.45603125
vn 0.73358391 -0.04646765 0.67800841
vn 0.33896695 0.90356120 -0.26206596
vn 0.33896695 0.35321842 0.87197371
vn -0.25421225 0.93514504 -0.24673850
vn -0.25421225 0.38480226 0.88730116
vn -0.69847736 0.58012527 -0.41902751
vn -0.69847736 0.02978249 0.71501216
vn -0.73358391 0.04646765 -0.67800841
vn -0.73358391 -0.50387513 0.45603125
vn -0.33896695 -0.35321842 -0.87197371
vn -0.33896695 -0.90356120 0.26206596
vn 0.25421225 -0.38480226 -0.88730116
vn 0.25421225 -0.93514504 0.24673850
vn -0.00000000 -0.16896382 -0.98562225
vn 0.76521951 0.02280286 -0.64336548
vn 0.76521951 0.23578596 0.59903596
vn 0.00000000 0.16896382 0.98562225
vn 0.44833329 0.51824562 -0.72829852
vn 0.44833329 0.73122873 0.51410292
vn -0.13118049 0.64772582 -0.75049513
vn -0.13118049 0.86070893 0.49190631
vn -0.63385051 0.33539572 -0.69695282
vn -0.63385051 0.54837882 0.54544862
vn -0.76521951 -0.23578596 -0.59903596
vn -0.76521951 -0.02280286 0.64336548
vn -0.44833329 -0.73122873 -0.51410292
vn -0.44833329 -0.51824562 0.72829852
vn 0.13118049 -0.86070893 -0.49190631
vn 0.13118049 -0.64772582 0.75049513
vn 0.63385051 -0.54837882 -0.54544862
vn 0.63385051 -0.33539572 0.69695282
f 38//38 37//37 41//41
f 38//38 41//41 39//39
f 39//39 41//41 42//42
f 39//39 42//42 40//40
f 41//41 37//37 43//43
f 41//41 43//43 42//42
f 42//42 43//43 44//44
f 42//42 44//44 40//40
f 43//43 37//37 45//45
f 43//43 45//45 44//44
f 44//44 45//45 46//46
f 44//44 46//46 40//40
f 45//45 37//37 47//47
f 45//45 47//47 46//46
f 46//46 47//47 48//48
f 46//46 48//48 40//40
f 47//47 37//37 49//49
f 47//47 49//49 48//48
f 48//48 49//49 50//50
f 48//48 50//50 40//40
f 49//49 37//37 51//51
f 49//49 51//51 50//50
f 50//50 51//51 52//52
f 50//50 52//52 40//40
f 51//51 37//37 53//53
f 51//51 53//53 52//52
f 52//52 53//53 54//54
f 52//52 54//54 40//40
f 53//53 37//37 38//38
f 53//53 38//38 54//54
f 54//54 38//38 39//39
f 54//54 39//39 40//40
f 56//56 55//55 59//59
f 56//56 59//59 57//57
f 57//57 59//59 60//60
f 57//57 60//60 58//58
f 59//59 55//55 61//61
f 59//59 61//61 60//60
f 60//60 61//61 62//62
f 60//60 62//62 58//58
f 61//61 55//55 63//63
f 61//61 63//63 62//62
f 62//62 63//63 64//64
f 62//62 64//64 58//58
f 63//63 55//55 65//65
f 63//63 65//65 64//64
f 64//64 65//65 66//66
f 64//64 66//66 58//58
f 65//65 55//55 67//67
f 65//65 67//67 66//66
f 66//66 67//67 68//68
f 66//66 68//68 58//58
f 67//67 55//55 69//69
f 67//67 69//69 68//68
f 68//68 69//69 70//70
f 68//68 70//70 58//58
f 69//69 55//55 71//71
f 69//69 71//71 70//70
f 70//70 71//71 72//72
f 70//70 72//72 58//58
f 71//71 55//55 56//56
f 71//71 56//56 72//72
f 72//72 56//56 57//57
f 72//72 57//57 58//58
