# Independent procedural camera geometry; meters; Z up
o side_shutter_red_ring
v 0.0044000000 0.0248335000 0.0420000000
v 0.0043905793 0.0248335000 0.0422877738
v 0.0043623574 0.0248335000 0.0425743152
v 0.0043154552 0.0248335000 0.0428583974
v 0.0042500736 0.0248335000 0.0431388038
v 0.0041664926 0.0248335000 0.0434143336
v 0.0040650699 0.0248335000 0.0436838071
v 0.0039462401 0.0248335000 0.0439460702
v 0.0038105118 0.0248335000 0.0442000000
v 0.0036584663 0.0248335000 0.0444445090
v 0.0034907547 0.0248335000 0.0446785503
v 0.0033080952 0.0248335000 0.0449011216
v 0.0031112698 0.0248335000 0.0451112698
v 0.0029011216 0.0248335000 0.0453080952
v 0.0026785503 0.0248335000 0.0454907547
v 0.0024445090 0.0248335000 0.0456584663
v 0.0022000000 0.0248335000 0.0458105118
v 0.0019460702 0.0248335000 0.0459462401
v 0.0016838071 0.0248335000 0.0460650699
v 0.0014143336 0.0248335000 0.0461664926
v 0.0011388038 0.0248335000 0.0462500736
v 0.0008583974 0.0248335000 0.0463154552
v 0.0005743152 0.0248335000 0.0463623574
v 0.0002877738 0.0248335000 0.0463905793
v 0.0000000000 0.0248335000 0.0464000000
v -0.0002877738 0.0248335000 0.0463905793
v -0.0005743152 0.0248335000 0.0463623574
v -0.0008583974 0.0248335000 0.0463154552
v -0.0011388038 0.0248335000 0.0462500736
v -0.0014143336 0.0248335000 0.0461664926
v -0.0016838071 0.0248335000 0.0460650699
v -0.0019460702 0.0248335000 0.0459462401
v -0.0022000000 0.0248335000 0.0458105118
v -0.0024445090 0.0248335000 0.0456584663
v -0.0026785503 0.0248335000 0.0454907547
v -0.0029011216 0.0248335000 0.0453080952
v -0.0031112698 0.0248335000 0.0451112698
v -0.0033080952 0.0248335000 0.0449011216
v -0.0034907547 0.0248335000 0.0446785503
v -0.0036584663 0.0248335000 0.0444445090
v -0.0038105118 0.0248335000 0.0442000000
v -0.0039462401 0.0248335000 0.0439460702
v -0.0040650699 0.0248335000 0.0436838071
v -0.0041664926 0.0248335000 0.0434143336
v -0.0042500736 0.0248335000 0.0431388038
v -0.0043154552 0.0248335000 0.0428583974
v -0.0043623574 0.0248335000 0.0425743152
v -0.0043905793 0.0248335000 0.0422877738
v -0.0044000000 0.0248335000 0.0420000000
v -0.0043905793 0.0248335000 0.0417122262
v -0.0043623574 0.0248335000 0.0414256848
v -0.0043154552 0.0248335000 0.0411416026
v -0.0042500736 0.0248335000 0.0408611962
v -0.0041664926 0.0248335000 0.0405856664
v -0.0040650699 0.0248335000 0.0403161929
v -0.0039462401 0.0248335000 0.0400539298
v -0.0038105118 0.0248335000 0.0398000000
v -0.0036584663 0.0248335000 0.0395554910
v -0.0034907547 0.0248335000 0.0393214497
v -0.0033080952 0.0248335000 0.0390988784
v -0.0031112698 0.0248335000 0.0388887302
v -0.0029011216 0.0248335000 0.0386919048
v -0.0026785503 0.0248335000 0.0385092453
v -0.0024445090 0.0248335000 0.0383415337
v -0.0022000000 0.0248335000 0.0381894882
v -0.0019460702 0.0248335000 0.0380537599
v -0.0016838071 0.0248335000 0.0379349301
v -0.0014143336 0.0248335000 0.0378335074
v -0.0011388038 0.0248335000 0.0377499264
v -0.0008583974 0.0248335000 0.0376845448
v -0.0005743152 0.0248335000 0.0376376426
v -0.0002877738 0.0248335000 0.0376094207
v -0.0000000000 0.0248335000 0.0376000000
v 0.0002877738 0.0248335000 0.0376094207
v 0.0005743152 0.0248335000 0.0376376426
v 0.0008583974 0.0248335000 0.0376845448
v 0.0011388038 0.0248335000 0.0377499264
v 0.0014143336 0.0248335000 0.0378335074
v 0.0016838071 0.0248335000 0.0379349301
v 0.0019460702 0.0248335000 0.0380537599
v 0.0022000000 0.0248335000 0.0381894882
v 0.0024445090 0.0248335000 0.0383415337
v 0.0026785503 0.0248335000 0.0385092453
v 0.0029011216 0.0248335000 0.0386919048
v 0.0031112698 0.0248335000 0.0388887302
v 0.0033080952 0.0248335000 0.0390988784
v 0.0034907547 0.0248335000 0.0393214497
v 0.0036584663 0.0248335000 0.0395554910
v 0.0038105118 0.0248335000 0.0398000000
v 0.0039462401 0.0248335000 0.0400539298
v 0.0040650699 0.0248335000 0.0403161929
v 0.0041664926 0.0248335000 0.0405856664
v 0.0042500736 0.0248335000 0.0408611962
v 0.0043154552 0.0248335000 0.0411416026
v 0.0043623574 0.0248335000 0.0414256848
v 0.0043905793 0.0248335000 0.0417122262
v 0.0048000000 0.0248335000 0.0420000000
v 0.0047897228 0.0248335000 0.0423139350
v 0.0047589353 0.0248335000 0.0426265257
v 0.0047077693 0.0248335000 0.0429364335
v 0.0046364440 0.0248335000 0.0432423314
v 0.0045452646 0.0248335000 0.0435429094
v 0.0044346218 0.0248335000 0.0438368805
v 0.0043049892 0.0248335000 0.0441229857
v 0.0041569219 0.0248335000 0.0444000000
v 0.0039910541 0.0248335000 0.0446667371
v 0.0038080960 0.0248335000 0.0449220549
v 0.0036088311 0.0248335000 0.0451648599
v 0.0033941125 0.0248335000 0.0453941125
v 0.0031648599 0.0248335000 0.0456088311
v 0.0029220549 0.0248335000 0.0458080960
v 0.0026667371 0.0248335000 0.0459910541
v 0.0024000000 0.0248335000 0.0461569219
v 0.0021229857 0.0248335000 0.0463049892
v 0.0018368805 0.0248335000 0.0464346218
v 0.0015429094 0.0248335000 0.0465452646
v 0.0012423314 0.0248335000 0.0466364440
v 0.0009364335 0.0248335000 0.0467077693
v 0.0006265257 0.0248335000 0.0467589353
v 0.0003139350 0.0248335000 0.0467897228
v 0.0000000000 0.0248335000 0.0468000000
v -0.0003139350 0.0248335000 0.0467897228
v -0.0006265257 0.0248335000 0.0467589353
v -0.0009364335 0.0248335000 0.0467077693
v -0.0012423314 0.0248335000 0.0466364440
v -0.0015429094 0.0248335000 0.0465452646
v -0.0018368805 0.0248335000 0.0464346218
v -0.0021229857 0.0248335000 0.0463049892
v -0.0024000000 0.0248335000 0.0461569219
v -0.0026667371 0.0248335000 0.0459910541
v -0.0029220549 0.0248335000 0.0458080960
v -0.0031648599 0.0248335000 0.0456088311
v -0.0033941125 0.0248335000 0.0453941125
v -0.0036088311 0.0248335000 0.0451648599
v -0.0038080960 0.0248335000 0.0449220549
v -0.0039910541 0.0248335000 0.0446667371
v -0.0041569219 0.0248335000 0.0444000000
v -0.0043049892 0.0248335000 0.0441229857
v -0.0044346218 0.0248335000 0.0438368805
v -0.0045452646 0.0248335000 0.0435429094
v -0.0046364440 0.0248335000 0.0432423314
v -0.0047077693 0.0248335000 0.0429364335
v -0.0047589353 0.0248335000 0.0426265257
v -0.0047897228 0.0248335000 0.0423139350
v -0.0048000000 0.0248335000 0.0420000000
v -0.0047897228 0.0248335000 0.0416860650
v -0.0047589353 0.0248335000 0.0413734743
v -0.0047077693 0.0248335000 0.0410635665
v -0.0046364440 0.0248335000 0.0407576686
v -0.0045452646 0.0248335000 0.0404570906
v -0.0044346218 0.0248335000 0.0401631195
v -0.0043049892 0.0248335000 0.0398770143
v -0.0041569219 0.0248335000 0.0396000000
v -0.0039910541 0.0248335000 0.0393332629
v -0.0038080960 0.0248335000 0.0390779451
v -0.0036088311 0.0248335000 0.0388351401
v -0.0033941125 0.0248335000 0.0386058875
v -0.0031648599 0.0248335000 0.0383911689
v -0.0029220549 0.0248335000 0.0381919040
v -0.0026667371 0.0248335000 0.0380089459
v -0.0024000000 0.0248335000 0.0378430781
v -0.0021229857 0.0248335000 0.0376950108
v -0.0018368805 0.0248335000 0.0375653782
v -0.0015429094 0.0248335000 0.0374547354
v -0.0012423314 0.0248335000 0.0373635560
v -0.0009364335 0.0248335000 0.0372922307
v -0.0006265257 0.0248335000 0.0372410647
v -0.0003139350 0.0248335000 0.0372102772
v -0.0000000000 0.0248335000 0.0372000000
v 0.0003139350 0.0248335000 0.0372102772
v 0.0006265257 0.0248335000 0.0372410647
v 0.0009364335 0.0248335000 0.0372922307
v 0.0012423314 0.0248335000 0.0373635560
v 0.0015429094 0.0248335000 0.0374547354
v 0.0018368805 0.0248335000 0.0375653782
v 0.0021229857 0.0248335000 0.0376950108
v 0.0024000000 0.0248335000 0.0378430781
v 0.0026667371 0.0248335000 0.0380089459
v 0.0029220549 0.0248335000 0.0381919040
v 0.0031648599 0.0248335000 0.0383911689
v 0.0033941125 0.0248335000 0.0386058875
v 0.0036088311 0.0248335000 0.0388351401
v 0.0038080960 0.0248335000 0.0390779451
v 0.0039910541 0.0248335000 0.0393332629
v 0.0041569219 0.0248335000 0.0396000000
v 0.0043049892 0.0248335000 0.0398770143
v 0.0044346218 0.0248335000 0.0401631195
v 0.0045452646 0.0248335000 0.0404570906
v 0.0046364440 0.0248335000 0.0407576686
v 0.0047077693 0.0248335000 0.0410635665
v 0.0047589353 0.0248335000 0.0413734743
v 0.0047897228 0.0248335000 0.0416860650
v 0.0048000000 0.0248335000 0.0420000000
v 0.0047897228 0.0248335000 0.0423139350
v 0.0047589353 0.0248335000 0.0426265257
v 0.0047077693 0.0248335000 0.0429364335
v 0.0046364440 0.0248335000 0.0432423314
v 0.0045452646 0.0248335000 0.0435429094
v 0.0044346218 0.0248335000 0.0438368805
v 0.0043049892 0.0248335000 0.0441229857
v 0.0041569219 0.0248335000 0.0444000000
v 0.0039910541 0.0248335000 0.0446667371
v 0.0038080960 0.0248335000 0.0449220549
v 0.0036088311 0.0248335000 0.0451648599
v 0.0033941125 0.0248335000 0.0453941125
v 0.0031648599 0.0248335000 0.0456088311
v 0.0029220549 0.0248335000 0.0458080960
v 0.0026667371 0.0248335000 0.0459910541
v 0.0024000000 0.0248335000 0.0461569219
v 0.0021229857 0.0248335000 0.0463049892
v 0.0018368805 0.0248335000 0.0464346218
v 0.0015429094 0.0248335000 0.0465452646
v 0.0012423314 0.0248335000 0.0466364440
v 0.0009364335 0.0248335000 0.0467077693
v 0.0006265257 0.0248335000 0.0467589353
v 0.0003139350 0.0248335000 0.0467897228
v 0.0000000000 0.0248335000 0.0468000000
v -0.0003139350 0.0248335000 0.0467897228
v -0.0006265257 0.0248335000 0.0467589353
v -0.0009364335 0.0248335000 0.0467077693
v -0.0012423314 0.0248335000 0.0466364440
v -0.0015429094 0.0248335000 0.0465452646
v -0.0018368805 0.0248335000 0.0464346218
v -0.0021229857 0.0248335000 0.0463049892
v -0.0024000000 0.0248335000 0.0461569219
v -0.0026667371 0.0248335000 0.0459910541
v -0.0029220549 0.0248335000 0.0458080960
v -0.0031648599 0.0248335000 0.0456088311
v -0.0033941125 0.0248335000 0.0453941125
v -0.0036088311 0.0248335000 0.0451648599
v -0.0038080960 0.0248335000 0.0449220549
v -0.0039910541 0.0248335000 0.0446667371
v -0.0041569219 0.0248335000 0.0444000000
v -0.0043049892 0.0248335000 0.0441229857
v -0.0044346218 0.0248335000 0.0438368805
v -0.0045452646 0.0248335000 0.0435429094
v -0.0046364440 0.0248335000 0.0432423314
v -0.0047077693 0.0248335000 0.0429364335
v -0.0047589353 0.0248335000 0.0426265257
v -0.0047897228 0.0248335000 0.0423139350
v -0.0048000000 0.0248335000 0.0420000000
v -0.0047897228 0.0248335000 0.0416860650
v -0.0047589353 0.0248335000 0.0413734743
v -0.0047077693 0.0248335000 0.0410635665
v -0.0046364440 0.0248335000 0.0407576686
v -0.0045452646 0.0248335000 0.0404570906
v -0.0044346218 0.0248335000 0.0401631195
v -0.0043049892 0.0248335000 0.0398770143
v -0.0041569219 0.0248335000 0.0396000000
v -0.0039910541 0.0248335000 0.0393332629
v -0.0038080960 0.0248335000 0.0390779451
v -0.0036088311 0.0248335000 0.0388351401
v -0.0033941125 0.0248335000 0.0386058875
v -0.0031648599 0.0248335000 0.0383911689
v -0.0029220549 0.0248335000 0.0381919040
v -0.0026667371 0.0248335000 0.0380089459
v -0.0024000000 0.0248335000 0.0378430781
v -0.0021229857 0.0248335000 0.0376950108
v -0.0018368805 0.0248335000 0.0375653782
v -0.0015429094 0.0248335000 0.0374547354
v -0.0012423314 0.0248335000 0.0373635560
v -0.0009364335 0.0248335000 0.0372922307
v -0.0006265257 0.0248335000 0.0372410647
v -0.0003139350 0.0248335000 0.0372102772
v -0.0000000000 0.0248335000 0.0372000000
v 0.0003139350 0.0248335000 0.0372102772
v 0.0006265257 0.0248335000 0.0372410647
v 0.0009364335 0.0248335000 0.0372922307
v 0.0012423314 0.0248335000 0.0373635560
v 0.0015429094 0.0248335000 0.0374547354
v 0.0018368805 0.0248335000 0.0375653782
v 0.0021229857 0.0248335000 0.0376950108
v 0.0024000000 0.0248335000 0.0378430781
v 0.0026667371 0.0248335000 0.0380089459
v 0.0029220549 0.0248335000 0.0381919040
v 0.0031648599 0.0248335000 0.0383911689
v 0.0033941125 0.0248335000 0.0386058875
v 0.0036088311 0.0248335000 0.0388351401
v 0.0038080960 0.0248335000 0.0390779451
v 0.0039910541 0.0248335000 0.0393332629
v 0.0041569219 0.0248335000 0.0396000000
v 0.0043049892 0.0248335000 0.0398770143
v 0.0044346218 0.0248335000 0.0401631195
v 0.0045452646 0.0248335000 0.0404570906
v 0.0046364440 0.0248335000 0.0407576686
v 0.0047077693 0.0248335000 0.0410635665
v 0.0047589353 0.0248335000 0.0413734743
v 0.0047897228 0.0248335000 0.0416860650
v 0.0048000000 0.0248785000 0.0420000000
v 0.0047897228 0.0248785000 0.0423139350
v 0.0047589353 0.0248785000 0.0426265257
v 0.0047077693 0.0248785000 0.0429364335
v 0.0046364440 0.0248785000 0.0432423314
v 0.0045452646 0.0248785000 0.0435429094
v 0.0044346218 0.0248785000 0.0438368805
v 0.0043049892 0.0248785000 0.0441229857
v 0.0041569219 0.0248785000 0.0444000000
v 0.0039910541 0.0248785000 0.0446667371
v 0.0038080960 0.0248785000 0.0449220549
v 0.0036088311 0.0248785000 0.0451648599
v 0.0033941125 0.0248785000 0.0453941125
v 0.0031648599 0.0248785000 0.0456088311
v 0.0029220549 0.0248785000 0.0458080960
v 0.0026667371 0.0248785000 0.0459910541
v 0.0024000000 0.0248785000 0.0461569219
v 0.0021229857 0.0248785000 0.0463049892
v 0.0018368805 0.0248785000 0.0464346218
v 0.0015429094 0.0248785000 0.0465452646
v 0.0012423314 0.0248785000 0.0466364440
v 0.0009364335 0.0248785000 0.0467077693
v 0.0006265257 0.0248785000 0.0467589353
v 0.0003139350 0.0248785000 0.0467897228
v 0.0000000000 0.0248785000 0.0468000000
v -0.0003139350 0.0248785000 0.0467897228
v -0.0006265257 0.0248785000 0.0467589353
v -0.0009364335 0.0248785000 0.0467077693
v -0.0012423314 0.0248785000 0.0466364440
v -0.0015429094 0.0248785000 0.0465452646
v -0.0018368805 0.0248785000 0.0464346218
v -0.0021229857 0.0248785000 0.0463049892
v -0.0024000000 0.0248785000 0.0461569219
v -0.0026667371 0.0248785000 0.0459910541
v -0.0029220549 0.0248785000 0.0458080960
v -0.0031648599 0.0248785000 0.0456088311
v -0.0033941125 0.0248785000 0.0453941125
v -0.0036088311 0.0248785000 0.0451648599
v -0.0038080960 0.0248785000 0.0449220549
v -0.0039910541 0.0248785000 0.0446667371
v -0.0041569219 0.0248785000 0.0444000000
v -0.0043049892 0.0248785000 0.0441229857
v -0.0044346218 0.0248785000 0.0438368805
v -0.0045452646 0.0248785000 0.0435429094
v -0.0046364440 0.0248785000 0.0432423314
v -0.0047077693 0.0248785000 0.0429364335
v -0.0047589353 0.0248785000 0.0426265257
v -0.0047897228 0.0248785000 0.0423139350
v -0.0048000000 0.0248785000 0.0420000000
v -0.0047897228 0.0248785000 0.0416860650
v -0.0047589353 0.0248785000 0.0413734743
v -0.0047077693 0.0248785000 0.0410635665
v -0.0046364440 0.0248785000 0.0407576686
v -0.0045452646 0.0248785000 0.0404570906
v -0.0044346218 0.0248785000 0.0401631195
v -0.0043049892 0.0248785000 0.0398770143
v -0.0041569219 0.0248785000 0.0396000000
v -0.0039910541 0.0248785000 0.0393332629
v -0.0038080960 0.0248785000 0.0390779451
v -0.0036088311 0.0248785000 0.0388351401
v -0.0033941125 0.0248785000 0.0386058875
v -0.0031648599 0.0248785000 0.0383911689
v -0.0029220549 0.0248785000 0.0381919040
v -0.0026667371 0.0248785000 0.0380089459
v -0.0024000000 0.0248785000 0.0378430781
v -0.0021229857 0.0248785000 0.0376950108
v -0.0018368805 0.0248785000 0.0375653782
v -0.0015429094 0.0248785000 0.0374547354
v -0.0012423314 0.0248785000 0.0373635560
v -0.0009364335 0.0248785000 0.0372922307
v -0.0006265257 0.0248785000 0.0372410647
v -0.0003139350 0.0248785000 0.0372102772
v -0.0000000000 0.0248785000 0.0372000000
v 0.0003139350 0.0248785000 0.0372102772
v 0.0006265257 0.0248785000 0.0372410647
v 0.0009364335 0.0248785000 0.0372922307
v 0.0012423314 0.0248785000 0.0373635560
v 0.0015429094 0.0248785000 0.0374547354
v 0.0018368805 0.0248785000 0.0375653782
v 0.0021229857 0.0248785000 0.0376950108
v 0.0024000000 0.0248785000 0.0378430781
v 0.0026667371 0.0248785000 0.0380089459
v 0.0029220549 0.0248785000 0.0381919040
v 0.0031648599 0.0248785000 0.0383911689
v 0.0033941125 0.0248785000 0.0386058875
v 0.0036088311 0.0248785000 0.0388351401
v 0.0038080960 0.0248785000 0.0390779451
v 0.0039910541 0.0248785000 0.0393332629
v 0.0041569219 0.0248785000 0.0396000000
v 0.0043049892 0.0248785000 0.0398770143
v 0.0044346218 0.0248785000 0.0401631195
v 0.0045452646 0.0248785000 0.0404570906
v 0.0046364440 0.0248785000 0.0407576686
v 0.0047077693 0.0248785000 0.0410635665
v 0.0047589353 0.0248785000 0.0413734743
v 0.0047897228 0.0248785000 0.0416860650
v 0.0048000000 0.0248785000 0.0420000000
v 0.0047897228 0.0248785000 0.0423139350
v 0.0047589353 0.0248785000 0.0426265257
v 0.0047077693 0.0248785000 0.0429364335
v 0.0046364440 0.0248785000 0.0432423314
v 0.0045452646 0.0248785000 0.0435429094
v 0.0044346218 0.0248785000 0.0438368805
v 0.0043049892 0.0248785000 0.0441229857
v 0.0041569219 0.0248785000 0.0444000000
v 0.0039910541 0.0248785000 0.0446667371
v 0.0038080960 0.0248785000 0.0449220549
v 0.0036088311 0.0248785000 0.0451648599
v 0.0033941125 0.0248785000 0.0453941125
v 0.0031648599 0.0248785000 0.0456088311
v 0.0029220549 0.0248785000 0.0458080960
v 0.0026667371 0.0248785000 0.0459910541
v 0.0024000000 0.0248785000 0.0461569219
v 0.0021229857 0.0248785000 0.0463049892
v 0.0018368805 0.0248785000 0.0464346218
v 0.0015429094 0.0248785000 0.0465452646
v 0.0012423314 0.0248785000 0.0466364440
v 0.0009364335 0.0248785000 0.0467077693
v 0.0006265257 0.0248785000 0.0467589353
v 0.0003139350 0.0248785000 0.0467897228
v 0.0000000000 0.0248785000 0.0468000000
v -0.0003139350 0.0248785000 0.0467897228
v -0.0006265257 0.0248785000 0.0467589353
v -0.0009364335 0.0248785000 0.0467077693
v -0.0012423314 0.0248785000 0.0466364440
v -0.0015429094 0.0248785000 0.0465452646
v -0.0018368805 0.0248785000 0.0464346218
v -0.0021229857 0.0248785000 0.0463049892
v -0.0024000000 0.0248785000 0.0461569219
v -0.0026667371 0.0248785000 0.0459910541
v -0.0029220549 0.0248785000 0.0458080960
v -0.0031648599 0.0248785000 0.0456088311
v -0.0033941125 0.0248785000 0.0453941125
v -0.0036088311 0.0248785000 0.0451648599
v -0.0038080960 0.0248785000 0.0449220549
v -0.0039910541 0.0248785000 0.0446667371
v -0.0041569219 0.0248785000 0.0444000000
v -0.0043049892 0.0248785000 0.0441229857
v -0.0044346218 0.0248785000 0.0438368805
v -0.0045452646 0.0248785000 0.0435429094
v -0.0046364440 0.0248785000 0.0432423314
v -0.0047077693 0.0248785000 0.0429364335
v -0.0047589353 0.0248785000 0.0426265257
v -0.0047897228 0.0248785000 0.0423139350
v -0.0048000000 0.0248785000 0.0420000000
v -0.0047897228 0.0248785000 0.0416860650
v -0.0047589353 0.0248785000 0.0413734743
v -0.0047077693 0.0248785000 0.0410635665
v -0.0046364440 0.0248785000 0.0407576686
v -0.0045452646 0.0248785000 0.0404570906
v -0.0044346218 0.0248785000 0.0401631195
v -0.0043049892 0.0248785000 0.0398770143
v -0.0041569219 0.0248785000 0.0396000000
v -0.0039910541 0.0248785000 0.0393332629
v -0.0038080960 0.0248785000 0.0390779451
v -0.0036088311 0.0248785000 0.0388351401
v -0.0033941125 0.0248785000 0.0386058875
v -0.0031648599 0.0248785000 0.0383911689
v -0.0029220549 0.0248785000 0.0381919040
v -0.0026667371 0.0248785000 0.0380089459
v -0.0024000000 0.0248785000 0.0378430781
v -0.0021229857 0.0248785000 0.0376950108
v -0.0018368805 0.0248785000 0.0375653782
v -0.0015429094 0.0248785000 0.0374547354
v -0.0012423314 0.0248785000 0.0373635560
v -0.0009364335 0.0248785000 0.0372922307
v -0.0006265257 0.0248785000 0.0372410647
v -0.0003139350 0.0248785000 0.0372102772
v -0.0000000000 0.0248785000 0.0372000000
v 0.0003139350 0.0248785000 0.0372102772
v 0.0006265257 0.0248785000 0.0372410647
v 0.0009364335 0.0248785000 0.0372922307
v 0.0012423314 0.0248785000 0.0373635560
v 0.0015429094 0.0248785000 0.0374547354
v 0.0018368805 0.0248785000 0.0375653782
v 0.0021229857 0.0248785000 0.0376950108
v 0.0024000000 0.0248785000 0.0378430781
v 0.0026667371 0.0248785000 0.0380089459
v 0.0029220549 0.0248785000 0.0381919040
v 0.0031648599 0.0248785000 0.0383911689
v 0.0033941125 0.0248785000 0.0386058875
v 0.0036088311 0.0248785000 0.0388351401
v 0.0038080960 0.0248785000 0.0390779451
v 0.0039910541 0.0248785000 0.0393332629
v 0.0041569219 0.0248785000 0.0396000000
v 0.0043049892 0.0248785000 0.0398770143
v 0.0044346218 0.0248785000 0.0401631195
v 0.0045452646 0.0248785000 0.0404570906
v 0.0046364440 0.0248785000 0.0407576686
v 0.0047077693 0.0248785000 0.0410635665
v 0.0047589353 0.0248785000 0.0413734743
v 0.0047897228 0.0248785000 0.0416860650
v 0.0044000000 0.0248785000 0.0420000000
v 0.0043905793 0.0248785000 0.0422877738
v 0.0043623574 0.0248785000 0.0425743152
v 0.0043154552 0.0248785000 0.0428583974
v 0.0042500736 0.0248785000 0.0431388038
v 0.0041664926 0.0248785000 0.0434143336
v 0.0040650699 0.0248785000 0.0436838071
v 0.0039462401 0.0248785000 0.0439460702
v 0.0038105118 0.0248785000 0.0442000000
v 0.0036584663 0.0248785000 0.0444445090
v 0.0034907547 0.0248785000 0.0446785503
v 0.0033080952 0.0248785000 0.0449011216
v 0.0031112698 0.0248785000 0.0451112698
v 0.0029011216 0.0248785000 0.0453080952
v 0.0026785503 0.0248785000 0.0454907547
v 0.0024445090 0.0248785000 0.0456584663
v 0.0022000000 0.0248785000 0.0458105118
v 0.0019460702 0.0248785000 0.0459462401
v 0.0016838071 0.0248785000 0.0460650699
v 0.0014143336 0.0248785000 0.0461664926
v 0.0011388038 0.0248785000 0.0462500736
v 0.0008583974 0.0248785000 0.0463154552
v 0.0005743152 0.0248785000 0.0463623574
v 0.0002877738 0.0248785000 0.0463905793
v 0.0000000000 0.0248785000 0.0464000000
v -0.0002877738 0.0248785000 0.0463905793
v -0.0005743152 0.0248785000 0.0463623574
v -0.0008583974 0.0248785000 0.0463154552
v -0.0011388038 0.0248785000 0.0462500736
v -0.0014143336 0.0248785000 0.0461664926
v -0.0016838071 0.0248785000 0.0460650699
v -0.0019460702 0.0248785000 0.0459462401
v -0.0022000000 0.0248785000 0.0458105118
v -0.0024445090 0.0248785000 0.0456584663
v -0.0026785503 0.0248785000 0.0454907547
v -0.0029011216 0.0248785000 0.0453080952
v -0.0031112698 0.0248785000 0.0451112698
v -0.0033080952 0.0248785000 0.0449011216
v -0.0034907547 0.0248785000 0.0446785503
v -0.0036584663 0.0248785000 0.0444445090
v -0.0038105118 0.0248785000 0.0442000000
v -0.0039462401 0.0248785000 0.0439460702
v -0.0040650699 0.0248785000 0.0436838071
v -0.0041664926 0.0248785000 0.0434143336
v -0.0042500736 0.0248785000 0.0431388038
v -0.0043154552 0.0248785000 0.0428583974
v -0.0043623574 0.0248785000 0.0425743152
v -0.0043905793 0.0248785000 0.0422877738
v -0.0044000000 0.0248785000 0.0420000000
v -0.0043905793 0.0248785000 0.0417122262
v -0.0043623574 0.0248785000 0.0414256848
v -0.0043154552 0.0248785000 0.0411416026
v -0.0042500736 0.0248785000 0.0408611962
v -0.0041664926 0.0248785000 0.0405856664
v -0.0040650699 0.0248785000 0.0403161929
v -0.0039462401 0.0248785000 0.0400539298
v -0.0038105118 0.0248785000 0.0398000000
v -0.0036584663 0.0248785000 0.0395554910
v -0.0034907547 0.0248785000 0.0393214497
v -0.0033080952 0.0248785000 0.0390988784
v -0.0031112698 0.0248785000 0.0388887302
v -0.0029011216 0.0248785000 0.0386919048
v -0.0026785503 0.0248785000 0.0385092453
v -0.0024445090 0.0248785000 0.0383415337
v -0.0022000000 0.0248785000 0.0381894882
v -0.0019460702 0.0248785000 0.0380537599
v -0.0016838071 0.0248785000 0.0379349301
v -0.0014143336 0.0248785000 0.0378335074
v -0.0011388038 0.0248785000 0.0377499264
v -0.0008583974 0.0248785000 0.0376845448
v -0.0005743152 0.0248785000 0.0376376426
v -0.0002877738 0.0248785000 0.0376094207
v -0.0000000000 0.0248785000 0.0376000000
v 0.0002877738 0.0248785000 0.0376094207
v 0.0005743152 0.0248785000 0.0376376426
v 0.0008583974 0.0248785000 0.0376845448
v 0.0011388038 0.0248785000 0.0377499264
v 0.0014143336 0.0248785000 0.0378335074
v 0.0016838071 0.0248785000 0.0379349301
v 0.0019460702 0.0248785000 0.0380537599
v 0.0022000000 0.0248785000 0.0381894882
v 0.0024445090 0.0248785000 0.0383415337
v 0.0026785503 0.0248785000 0.0385092453
v 0.0029011216 0.0248785000 0.0386919048
v 0.0031112698 0.0248785000 0.0388887302
v 0.0033080952 0.0248785000 0.0390988784
v 0.0034907547 0.0248785000 0.0393214497
v 0.0036584663 0.0248785000 0.0395554910
v 0.0038105118 0.0248785000 0.0398000000
v 0.0039462401 0.0248785000 0.0400539298
v 0.0040650699 0.0248785000 0.0403161929
v 0.0041664926 0.0248785000 0.0405856664
v 0.0042500736 0.0248785000 0.0408611962
v 0.0043154552 0.0248785000 0.0411416026
v 0.0043623574 0.0248785000 0.0414256848
v 0.0043905793 0.0248785000 0.0417122262
v 0.0044000000 0.0248335000 0.0420000000
v 0.0043905793 0.0248335000 0.0422877738
v 0.0043623574 0.0248335000 0.0425743152
v 0.0043154552 0.0248335000 0.0428583974
v 0.0042500736 0.0248335000 0.0431388038
v 0.0041664926 0.0248335000 0.0434143336
v 0.0040650699 0.0248335000 0.0436838071
v 0.0039462401 0.0248335000 0.0439460702
v 0.0038105118 0.0248335000 0.0442000000
v 0.0036584663 0.0248335000 0.0444445090
v 0.0034907547 0.0248335000 0.0446785503
v 0.0033080952 0.0248335000 0.0449011216
v 0.0031112698 0.0248335000 0.0451112698
v 0.0029011216 0.0248335000 0.0453080952
v 0.0026785503 0.0248335000 0.0454907547
v 0.0024445090 0.0248335000 0.0456584663
v 0.0022000000 0.0248335000 0.0458105118
v 0.0019460702 0.0248335000 0.0459462401
v 0.0016838071 0.0248335000 0.0460650699
v 0.0014143336 0.0248335000 0.0461664926
v 0.0011388038 0.0248335000 0.0462500736
v 0.0008583974 0.0248335000 0.0463154552
v 0.0005743152 0.0248335000 0.0463623574
v 0.0002877738 0.0248335000 0.0463905793
v 0.0000000000 0.0248335000 0.0464000000
v -0.0002877738 0.0248335000 0.0463905793
v -0.0005743152 0.0248335000 0.0463623574
v -0.0008583974 0.0248335000 0.0463154552
v -0.0011388038 0.0248335000 0.0462500736
v -0.0014143336 0.0248335000 0.0461664926
v -0.0016838071 0.0248335000 0.0460650699
v -0.0019460702 0.0248335000 0.0459462401
v -0.0022000000 0.0248335000 0.0458105118
v -0.0024445090 0.0248335000 0.0456584663
v -0.0026785503 0.0248335000 0.0454907547
v -0.0029011216 0.0248335000 0.0453080952
v -0.0031112698 0.0248335000 0.0451112698
v -0.0033080952 0.0248335000 0.0449011216
v -0.0034907547 0.0248335000 0.0446785503
v -0.0036584663 0.0248335000 0.0444445090
v -0.0038105118 0.0248335000 0.0442000000
v -0.0039462401 0.0248335000 0.0439460702
v -0.0040650699 0.0248335000 0.0436838071
v -0.0041664926 0.0248335000 0.0434143336
v -0.0042500736 0.0248335000 0.0431388038
v -0.0043154552 0.0248335000 0.0428583974
v -0.0043623574 0.0248335000 0.0425743152
v -0.0043905793 0.0248335000 0.0422877738
v -0.0044000000 0.0248335000 0.0420000000
v -0.0043905793 0.0248335000 0.0417122262
v -0.0043623574 0.0248335000 0.0414256848
v -0.0043154552 0.0248335000 0.0411416026
v -0.0042500736 0.0248335000 0.0408611962
v -0.0041664926 0.0248335000 0.0405856664
v -0.0040650699 0.0248335000 0.0403161929
v -0.0039462401 0.0248335000 0.0400539298
v -0.0038105118 0.0248335000 0.0398000000
v -0.0036584663 0.0248335000 0.0395554910
v -0.0034907547 0.0248335000 0.0393214497
v -0.0033080952 0.0248335000 0.0390988784
v -0.0031112698 0.0248335000 0.0388887302
v -0.0029011216 0.0248335000 0.0386919048
v -0.0026785503 0.0248335000 0.0385092453
v -0.0024445090 0.0248335000 0.0383415337
v -0.0022000000 0.0248335000 0.0381894882
v -0.0019460702 0.0248335000 0.0380537599
v -0.0016838071 0.0248335000 0.0379349301
v -0.0014143336 0.0248335000 0.0378335074
v -0.0011388038 0.0248335000 0.0377499264
v -0.0008583974 0.0248335000 0.0376845448
v -0.0005743152 0.0248335000 0.0376376426
v -0.0002877738 0.0248335000 0.0376094207
v -0.0000000000 0.0248335000 0.0376000000
v 0.0002877738 0.0248335000 0.0376094207
v 0.0005743152 0.0248335000 0.0376376426
v 0.0008583974 0.0248335000 0.0376845448
v 0.0011388038 0.0248335000 0.0377499264
v 0.0014143336 0.0248335000 0.0378335074
v 0.0016838071 0.0248335000 0.0379349301
v 0.0019460702 0.0248335000 0.0380537599
v 0.0022000000 0.0248335000 0.0381894882
v 0.0024445090 0.0248335000 0.0383415337
v 0.0026785503 0.0248335000 0.0385092453
v 0.0029011216 0.0248335000 0.0386919048
v 0.0031112698 0.0248335000 0.0388887302
v 0.0033080952 0.0248335000 0.0390988784
v 0.0034907547 0.0248335000 0.0393214497
v 0.0036584663 0.0248335000 0.0395554910
v 0.0038105118 0.0248335000 0.0398000000
v 0.0039462401 0.0248335000 0.0400539298
v 0.0040650699 0.0248335000 0.0403161929
v 0.0041664926 0.0248335000 0.0405856664
v 0.0042500736 0.0248335000 0.0408611962
v 0.0043154552 0.0248335000 0.0411416026
v 0.0043623574 0.0248335000 0.0414256848
v 0.0043905793 0.0248335000 0.0417122262
v 0.0044000000 0.0248785000 0.0420000000
v 0.0043905793 0.0248785000 0.0422877738
v 0.0043623574 0.0248785000 0.0425743152
v 0.0043154552 0.0248785000 0.0428583974
v 0.0042500736 0.0248785000 0.0431388038
v 0.0041664926 0.0248785000 0.0434143336
v 0.0040650699 0.0248785000 0.0436838071
v 0.0039462401 0.0248785000 0.0439460702
v 0.0038105118 0.0248785000 0.0442000000
v 0.0036584663 0.0248785000 0.0444445090
v 0.0034907547 0.0248785000 0.0446785503
v 0.0033080952 0.0248785000 0.0449011216
v 0.0031112698 0.0248785000 0.0451112698
v 0.0029011216 0.0248785000 0.0453080952
v 0.0026785503 0.0248785000 0.0454907547
v 0.0024445090 0.0248785000 0.0456584663
v 0.0022000000 0.0248785000 0.0458105118
v 0.0019460702 0.0248785000 0.0459462401
v 0.0016838071 0.0248785000 0.0460650699
v 0.0014143336 0.0248785000 0.0461664926
v 0.0011388038 0.0248785000 0.0462500736
v 0.0008583974 0.0248785000 0.0463154552
v 0.0005743152 0.0248785000 0.0463623574
v 0.0002877738 0.0248785000 0.0463905793
v 0.0000000000 0.0248785000 0.0464000000
v -0.0002877738 0.0248785000 0.0463905793
v -0.0005743152 0.0248785000 0.0463623574
v -0.0008583974 0.0248785000 0.0463154552
v -0.0011388038 0.0248785000 0.0462500736
v -0.0014143336 0.0248785000 0.0461664926
v -0.0016838071 0.0248785000 0.0460650699
v -0.0019460702 0.0248785000 0.0459462401
v -0.0022000000 0.0248785000 0.0458105118
v -0.0024445090 0.0248785000 0.0456584663
v -0.0026785503 0.0248785000 0.0454907547
v -0.0029011216 0.0248785000 0.0453080952
v -0.0031112698 0.0248785000 0.0451112698
v -0.0033080952 0.0248785000 0.0449011216
v -0.0034907547 0.0248785000 0.0446785503
v -0.0036584663 0.0248785000 0.0444445090
v -0.0038105118 0.0248785000 0.0442000000
v -0.0039462401 0.0248785000 0.0439460702
v -0.0040650699 0.0248785000 0.0436838071
v -0.0041664926 0.0248785000 0.0434143336
v -0.0042500736 0.0248785000 0.0431388038
v -0.0043154552 0.0248785000 0.0428583974
v -0.0043623574 0.0248785000 0.0425743152
v -0.0043905793 0.0248785000 0.0422877738
v -0.0044000000 0.0248785000 0.0420000000
v -0.0043905793 0.0248785000 0.0417122262
v -0.0043623574 0.0248785000 0.0414256848
v -0.0043154552 0.0248785000 0.0411416026
v -0.0042500736 0.0248785000 0.0408611962
v -0.0041664926 0.0248785000 0.0405856664
v -0.0040650699 0.0248785000 0.0403161929
v -0.0039462401 0.0248785000 0.0400539298
v -0.0038105118 0.0248785000 0.0398000000
v -0.0036584663 0.0248785000 0.0395554910
v -0.0034907547 0.0248785000 0.0393214497
v -0.0033080952 0.0248785000 0.0390988784
v -0.0031112698 0.0248785000 0.0388887302
v -0.0029011216 0.0248785000 0.0386919048
v -0.0026785503 0.0248785000 0.0385092453
v -0.0024445090 0.0248785000 0.0383415337
v -0.0022000000 0.0248785000 0.0381894882
v -0.0019460702 0.0248785000 0.0380537599
v -0.0016838071 0.0248785000 0.0379349301
v -0.0014143336 0.0248785000 0.0378335074
v -0.0011388038 0.0248785000 0.0377499264
v -0.0008583974 0.0248785000 0.0376845448
v -0.0005743152 0.0248785000 0.0376376426
v -0.0002877738 0.0248785000 0.0376094207
v -0.0000000000 0.0248785000 0.0376000000
v 0.0002877738 0.0248785000 0.0376094207
v 0.0005743152 0.0248785000 0.0376376426
v 0.0008583974 0.0248785000 0.0376845448
v 0.0011388038 0.0248785000 0.0377499264
v 0.0014143336 0.0248785000 0.0378335074
v 0.0016838071 0.0248785000 0.0379349301
v 0.0019460702 0.0248785000 0.0380537599
v 0.0022000000 0.0248785000 0.0381894882
v 0.0024445090 0.0248785000 0.0383415337
v 0.0026785503 0.0248785000 0.0385092453
v 0.0029011216 0.0248785000 0.0386919048
v 0.0031112698 0.0248785000 0.0388887302
v 0.0033080952 0.0248785000 0.0390988784
v 0.0034907547 0.0248785000 0.0393214497
v 0.0036584663 0.0248785000 0.0395554910
v 0.0038105118 0.0248785000 0.0398000000
v 0.0039462401 0.0248785000 0.0400539298
v 0.0040650699 0.0248785000 0.0403161929
v 0.0041664926 0.0248785000 0.0405856664
v 0.0042500736 0.0248785000 0.0408611962
v 0.0043154552 0.0248785000 0.0411416026
v 0.0043623574 0.0248785000 0.0414256848
v 0.0043905793 0.0248785000 0.0417122262
vn 0.00000000 -1.00000000 0.00000000
vn 0.00000000 -1.00000000 0.00000000
vn 0.00000000 -1.00000000 0.00000000
vn 0.00000000 -1.00000000 0.00000000
vn 0.00000000 -1.00000000 0.00000000
vn 0.00000000 -1.00000000 0.00000000
vn 0.00000000 -1.00000000 0.00000000
vn 0.00000000 -1.00000000 0.00000000
vn 0.00000000 -1.00000000 0.00000000
vn 0.00000000 -1.00000000 0.00000000
vn 0.00000000 -1.00000000 0.00000000
vn 0.00000000 -1.00000000 0.00000000
vn 0.00000000 -1.00000000 0.00000000
vn 0.00000000 -1.00000000 0.00000000
vn 0.00000000 -1.00000000 0.00000000
vn 0.00000000 -1.00000000 0.00000000
vn 0.00000000 -1.00000000 0.00000000
vn 0.00000000 -1.00000000 0.00000000
vn 0.00000000 -1.00000000 0.00000000
vn 0.00000000 -1.00000000 0.00000000
vn 0.00000000 -1.00000000 0.00000000
vn 0.00000000 -1.00000000 0.00000000
vn 0.00000000 -1.00000000 0.00000000
vn 0.00000000 -1.00000000 0.00000000
vn 0.00000000 -1.00000000 0.00000000
vn 0.00000000 -1.00000000 0.00000000
vn 0.00000000 -1.00000000 0.00000000
vn 0.00000000 -1.00000000 0.00000000
vn 0.00000000 -1.00000000 0.00000000
vn 0.00000000 -1.00000000 0.00000000
vn 0.00000000 -1.00000000 0.00000000
vn 0.00000000 -1.00000000 0.00000000
vn 0.00000000 -1.00000000 0.00000000
vn 0.00000000 -1.00000000 0.00000000
vn 0.00000000 -1.00000000 0.00000000
vn 0.00000000 -1.00000000 0.00000000
vn 0.00000000 -1.00000000 0.00000000
vn 0.00000000 -1.00000000 0.00000000
vn 0.00000000 -1.00000000 0.00000000
vn 0.00000000 -1.00000000 0.00000000
vn 0.00000000 -1.00000000 0.00000000
vn 0.00000000 -1.00000000 0.00000000
vn 0.00000000 -1.00000000 0.00000000
vn 0.00000000 -1.00000000 0.00000000
vn 0.00000000 -1.00000000 0.00000000
vn 0.00000000 -1.00000000 0.00000000
vn 0.00000000 -1.00000000 0.00000000
vn 0.00000000 -1.00000000 0.00000000
vn 0.00000000 -1.00000000 0.00000000
vn 0.00000000 -1.00000000 0.00000000
vn 0.00000000 -1.00000000 0.00000000
vn 0.00000000 -1.00000000 0.00000000
vn 0.00000000 -1.00000000 0.00000000
vn 0.00000000 -1.00000000 0.00000000
vn 0.00000000 -1.00000000 0.00000000
vn 0.00000000 -1.00000000 0.00000000
vn 0.00000000 -1.00000000 0.00000000
vn 0.00000000 -1.00000000 0.00000000
vn 0.00000000 -1.00000000 0.00000000
vn 0.00000000 -1.00000000 0.00000000
vn 0.00000000 -1.00000000 0.00000000
vn 0.00000000 -1.00000000 0.00000000
vn 0.00000000 -1.00000000 0.00000000
vn 0.00000000 -1.00000000 0.00000000
vn 0.00000000 -1.00000000 0.00000000
vn 0.00000000 -1.00000000 0.00000000
vn 0.00000000 -1.00000000 0.00000000
vn 0.00000000 -1.00000000 0.00000000
vn 0.00000000 -1.00000000 0.00000000
vn 0.00000000 -1.00000000 0.00000000
vn 0.00000000 -1.00000000 0.00000000
vn 0.00000000 -1.00000000 0.00000000
vn 0.00000000 -1.00000000 0.00000000
vn 0.00000000 -1.00000000 0.00000000
vn 0.00000000 -1.00000000 0.00000000
vn 0.00000000 -1.00000000 0.00000000
vn 0.00000000 -1.00000000 0.00000000
vn 0.00000000 -1.00000000 0.00000000
vn 0.00000000 -1.00000000 0.00000000
vn 0.00000000 -1.00000000 0.00000000
vn 0.00000000 -1.00000000 0.00000000
vn 0.00000000 -1.00000000 0.00000000
vn 0.00000000 -1.00000000 0.00000000
vn 0.00000000 -1.00000000 0.00000000
vn 0.00000000 -1.00000000 0.00000000
vn 0.00000000 -1.00000000 0.00000000
vn 0.00000000 -1.00000000 0.00000000
vn 0.00000000 -1.00000000 0.00000000
vn 0.00000000 -1.00000000 0.00000000
vn 0.00000000 -1.00000000 0.00000000
vn 0.00000000 -1.00000000 0.00000000
vn 0.00000000 -1.00000000 0.00000000
vn 0.00000000 -1.00000000 0.00000000
vn 0.00000000 -1.00000000 0.00000000
vn 0.00000000 -1.00000000 0.00000000
vn 0.00000000 -1.00000000 0.00000000
vn 0.00000000 -1.00000000 0.00000000
vn 0.00000000 -1.00000000 0.00000000
vn 0.00000000 -1.00000000 0.00000000
vn 0.00000000 -1.00000000 0.00000000
vn 0.00000000 -1.00000000 0.00000000
vn 0.00000000 -1.00000000 0.00000000
vn 0.00000000 -1.00000000 0.00000000
vn 0.00000000 -1.00000000 0.00000000
vn 0.00000000 -1.00000000 0.00000000
vn 0.00000000 -1.00000000 0.00000000
vn 0.00000000 -1.00000000 0.00000000
vn 0.00000000 -1.00000000 0.00000000
vn 0.00000000 -1.00000000 0.00000000
vn 0.00000000 -1.00000000 0.00000000
vn 0.00000000 -1.00000000 0.00000000
vn 0.00000000 -1.00000000 0.00000000
vn 0.00000000 -1.00000000 0.00000000
vn 0.00000000 -1.00000000 0.00000000
vn 0.00000000 -1.00000000 0.00000000
vn 0.00000000 -1.00000000 0.00000000
vn 0.00000000 -1.00000000 0.00000000
vn 0.00000000 -1.00000000 0.00000000
vn 0.00000000 -1.00000000 0.00000000
vn 0.00000000 -1.00000000 0.00000000
vn 0.00000000 -1.00000000 0.00000000
vn 0.00000000 -1.00000000 0.00000000
vn 0.00000000 -1.00000000 0.00000000
vn 0.00000000 -1.00000000 0.00000000
vn 0.00000000 -1.00000000 0.00000000
vn 0.00000000 -1.00000000 0.00000000
vn 0.00000000 -1.00000000 0.00000000
vn 0.00000000 -1.00000000 0.00000000
vn 0.00000000 -1.00000000 0.00000000
vn 0.00000000 -1.00000000 0.00000000
vn 0.00000000 -1.00000000 0.00000000
vn 0.00000000 -1.00000000 0.00000000
vn 0.00000000 -1.00000000 0.00000000
vn 0.00000000 -1.00000000 0.00000000
vn 0.00000000 -1.00000000 0.00000000
vn 0.00000000 -1.00000000 0.00000000
vn 0.00000000 -1.00000000 0.00000000
vn 0.00000000 -1.00000000 0.00000000
vn 0.00000000 -1.00000000 0.00000000
vn 0.00000000 -1.00000000 0.00000000
vn 0.00000000 -1.00000000 0.00000000
vn 0.00000000 -1.00000000 0.00000000
vn 0.00000000 -1.00000000 0.00000000
vn 0.00000000 -1.00000000 0.00000000
vn 0.00000000 -1.00000000 0.00000000
vn 0.00000000 -1.00000000 0.00000000
vn 0.00000000 -1.00000000 0.00000000
vn 0.00000000 -1.00000000 0.00000000
vn 0.00000000 -1.00000000 0.00000000
vn 0.00000000 -1.00000000 0.00000000
vn 0.00000000 -1.00000000 0.00000000
vn 0.00000000 -1.00000000 0.00000000
vn 0.00000000 -1.00000000 0.00000000
vn 0.00000000 -1.00000000 0.00000000
vn 0.00000000 -1.00000000 0.00000000
vn 0.00000000 -1.00000000 0.00000000
vn 0.00000000 -1.00000000 0.00000000
vn 0.00000000 -1.00000000 0.00000000
vn 0.00000000 -1.00000000 0.00000000
vn 0.00000000 -1.00000000 0.00000000
vn 0.00000000 -1.00000000 0.00000000
vn 0.00000000 -1.00000000 0.00000000
vn 0.00000000 -1.00000000 0.00000000
vn 0.00000000 -1.00000000 0.00000000
vn 0.00000000 -1.00000000 0.00000000
vn 0.00000000 -1.00000000 0.00000000
vn 0.00000000 -1.00000000 0.00000000
vn 0.00000000 -1.00000000 0.00000000
vn 0.00000000 -1.00000000 0.00000000
vn 0.00000000 -1.00000000 0.00000000
vn 0.00000000 -1.00000000 0.00000000
vn 0.00000000 -1.00000000 0.00000000
vn 0.00000000 -1.00000000 0.00000000
vn 0.00000000 -1.00000000 0.00000000
vn 0.00000000 -1.00000000 0.00000000
vn 0.00000000 -1.00000000 0.00000000
vn 0.00000000 -1.00000000 0.00000000
vn 0.00000000 -1.00000000 0.00000000
vn 0.00000000 -1.00000000 0.00000000
vn 0.00000000 -1.00000000 0.00000000
vn 0.00000000 -1.00000000 0.00000000
vn 0.00000000 -1.00000000 0.00000000
vn 0.00000000 -1.00000000 0.00000000
vn 0.00000000 -1.00000000 0.00000000
vn 0.00000000 -1.00000000 0.00000000
vn 0.00000000 -1.00000000 0.00000000
vn 0.00000000 -1.00000000 0.00000000
vn 0.00000000 -1.00000000 0.00000000
vn 0.00000000 -1.00000000 0.00000000
vn 0.00000000 -1.00000000 0.00000000
vn 0.00000000 -1.00000000 0.00000000
vn 0.00000000 -1.00000000 0.00000000
vn 1.00000000 0.00000000 0.00000000
vn 0.99785892 0.00000000 0.06540313
vn 0.99144486 0.00000000 0.13052619
vn 0.98078528 0.00000000 0.19509032
vn 0.96592583 0.00000000 0.25881905
vn 0.94693013 0.00000000 0.32143947
vn 0.92387953 0.00000000 0.38268343
vn 0.89687274 0.00000000 0.44228869
vn 0.86602540 0.00000000 0.50000000
vn 0.83146961 0.00000000 0.55557023
vn 0.79335334 0.00000000 0.60876143
vn 0.75183981 0.00000000 0.65934582
vn 0.70710678 0.00000000 0.70710678
vn 0.65934582 0.00000000 0.75183981
vn 0.60876143 0.00000000 0.79335334
vn 0.55557023 0.00000000 0.83146961
vn 0.50000000 0.00000000 0.86602540
vn 0.44228869 0.00000000 0.89687274
vn 0.38268343 0.00000000 0.92387953
vn 0.32143947 0.00000000 0.94693013
vn 0.25881905 0.00000000 0.96592583
vn 0.19509032 0.00000000 0.98078528
vn 0.13052619 0.00000000 0.99144486
vn 0.06540313 0.00000000 0.99785892
vn -0.00000000 0.00000000 1.00000000
vn -0.06540313 0.00000000 0.99785892
vn -0.13052619 0.00000000 0.99144486
vn -0.19509032 0.00000000 0.98078528
vn -0.25881905 0.00000000 0.96592583
vn -0.32143947 0.00000000 0.94693013
vn -0.38268343 0.00000000 0.92387953
vn -0.44228869 0.00000000 0.89687274
vn -0.50000000 0.00000000 0.86602540
vn -0.55557023 0.00000000 0.83146961
vn -0.60876143 0.00000000 0.79335334
vn -0.65934582 0.00000000 0.75183981
vn -0.70710678 0.00000000 0.70710678
vn -0.75183981 0.00000000 0.65934582
vn -0.79335334 0.00000000 0.60876143
vn -0.83146961 0.00000000 0.55557023
vn -0.86602540 0.00000000 0.50000000
vn -0.89687274 0.00000000 0.44228869
vn -0.92387953 0.00000000 0.38268343
vn -0.94693013 0.00000000 0.32143947
vn -0.96592583 0.00000000 0.25881905
vn -0.98078528 0.00000000 0.19509032
vn -0.99144486 0.00000000 0.13052619
vn -0.99785892 0.00000000 0.06540313
vn -1.00000000 0.00000000 -0.00000000
vn -0.99785892 0.00000000 -0.06540313
vn -0.99144486 0.00000000 -0.13052619
vn -0.98078528 0.00000000 -0.19509032
vn -0.96592583 0.00000000 -0.25881905
vn -0.94693013 0.00000000 -0.32143947
vn -0.92387953 0.00000000 -0.38268343
vn -0.89687274 0.00000000 -0.44228869
vn -0.86602540 0.00000000 -0.50000000
vn -0.83146961 0.00000000 -0.55557023
vn -0.79335334 0.00000000 -0.60876143
vn -0.75183981 0.00000000 -0.65934582
vn -0.70710678 0.00000000 -0.70710678
vn -0.65934582 0.00000000 -0.75183981
vn -0.60876143 0.00000000 -0.79335334
vn -0.55557023 0.00000000 -0.83146961
vn -0.50000000 0.00000000 -0.86602540
vn -0.44228869 0.00000000 -0.89687274
vn -0.38268343 0.00000000 -0.92387953
vn -0.32143947 0.00000000 -0.94693013
vn -0.25881905 0.00000000 -0.96592583
vn -0.19509032 0.00000000 -0.98078528
vn -0.13052619 0.00000000 -0.99144486
vn -0.06540313 0.00000000 -0.99785892
vn 0.00000000 0.00000000 -1.00000000
vn 0.06540313 0.00000000 -0.99785892
vn 0.13052619 0.00000000 -0.99144486
vn 0.19509032 0.00000000 -0.98078528
vn 0.25881905 0.00000000 -0.96592583
vn 0.32143947 0.00000000 -0.94693013
vn 0.38268343 0.00000000 -0.92387953
vn 0.44228869 0.00000000 -0.89687274
vn 0.50000000 0.00000000 -0.86602540
vn 0.55557023 0.00000000 -0.83146961
vn 0.60876143 0.00000000 -0.79335334
vn 0.65934582 0.00000000 -0.75183981
vn 0.70710678 0.00000000 -0.70710678
vn 0.75183981 0.00000000 -0.65934582
vn 0.79335334 0.00000000 -0.60876143
vn 0.83146961 0.00000000 -0.55557023
vn 0.86602540 0.00000000 -0.50000000
vn 0.89687274 0.00000000 -0.44228869
vn 0.92387953 0.00000000 -0.38268343
vn 0.94693013 0.00000000 -0.32143947
vn 0.96592583 0.00000000 -0.25881905
vn 0.98078528 0.00000000 -0.19509032
vn 0.99144486 0.00000000 -0.13052619
vn 0.99785892 0.00000000 -0.06540313
vn 1.00000000 0.00000000 0.00000000
vn 0.99785892 0.00000000 0.06540313
vn 0.99144486 0.00000000 0.13052619
vn 0.98078528 0.00000000 0.19509032
vn 0.96592583 0.00000000 0.25881905
vn 0.94693013 0.00000000 0.32143947
vn 0.92387953 0.00000000 0.38268343
vn 0.89687274 0.00000000 0.44228869
vn 0.86602540 0.00000000 0.50000000
vn 0.83146961 0.00000000 0.55557023
vn 0.79335334 0.00000000 0.60876143
vn 0.75183981 0.00000000 0.65934582
vn 0.70710678 0.00000000 0.70710678
vn 0.65934582 0.00000000 0.75183981
vn 0.60876143 0.00000000 0.79335334
vn 0.55557023 0.00000000 0.83146961
vn 0.50000000 0.00000000 0.86602540
vn 0.44228869 0.00000000 0.89687274
vn 0.38268343 0.00000000 0.92387953
vn 0.32143947 0.00000000 0.94693013
vn 0.25881905 0.00000000 0.96592583
vn 0.19509032 0.00000000 0.98078528
vn 0.13052619 0.00000000 0.99144486
vn 0.06540313 0.00000000 0.99785892
vn -0.00000000 0.00000000 1.00000000
vn -0.06540313 0.00000000 0.99785892
vn -0.13052619 0.00000000 0.99144486
vn -0.19509032 0.00000000 0.98078528
vn -0.25881905 0.00000000 0.96592583
vn -0.32143947 0.00000000 0.94693013
vn -0.38268343 0.00000000 0.92387953
vn -0.44228869 0.00000000 0.89687274
vn -0.50000000 0.00000000 0.86602540
vn -0.55557023 0.00000000 0.83146961
vn -0.60876143 0.00000000 0.79335334
vn -0.65934582 0.00000000 0.75183981
vn -0.70710678 0.00000000 0.70710678
vn -0.75183981 0.00000000 0.65934582
vn -0.79335334 0.00000000 0.60876143
vn -0.83146961 0.00000000 0.55557023
vn -0.86602540 0.00000000 0.50000000
vn -0.89687274 0.00000000 0.44228869
vn -0.92387953 0.00000000 0.38268343
vn -0.94693013 0.00000000 0.32143947
vn -0.96592583 0.00000000 0.25881905
vn -0.98078528 0.00000000 0.19509032
vn -0.99144486 0.00000000 0.13052619
vn -0.99785892 0.00000000 0.06540313
vn -1.00000000 0.00000000 -0.00000000
vn -0.99785892 0.00000000 -0.06540313
vn -0.99144486 0.00000000 -0.13052619
vn -0.98078528 0.00000000 -0.19509032
vn -0.96592583 0.00000000 -0.25881905
vn -0.94693013 0.00000000 -0.32143947
vn -0.92387953 0.00000000 -0.38268343
vn -0.89687274 0.00000000 -0.44228869
vn -0.86602540 0.00000000 -0.50000000
vn -0.83146961 0.00000000 -0.55557023
vn -0.79335334 0.00000000 -0.60876143
vn -0.75183981 0.00000000 -0.65934582
vn -0.70710678 0.00000000 -0.70710678
vn -0.65934582 0.00000000 -0.75183981
vn -0.60876143 0.00000000 -0.79335334
vn -0.55557023 0.00000000 -0.83146961
vn -0.50000000 0.00000000 -0.86602540
vn -0.44228869 0.00000000 -0.89687274
vn -0.38268343 0.00000000 -0.92387953
vn -0.32143947 0.00000000 -0.94693013
vn -0.25881905 0.00000000 -0.96592583
vn -0.19509032 0.00000000 -0.98078528
vn -0.13052619 0.00000000 -0.99144486
vn -0.06540313 0.00000000 -0.99785892
vn 0.00000000 0.00000000 -1.00000000
vn 0.06540313 0.00000000 -0.99785892
vn 0.13052619 0.00000000 -0.99144486
vn 0.19509032 0.00000000 -0.98078528
vn 0.25881905 0.00000000 -0.96592583
vn 0.32143947 0.00000000 -0.94693013
vn 0.38268343 0.00000000 -0.92387953
vn 0.44228869 0.00000000 -0.89687274
vn 0.50000000 0.00000000 -0.86602540
vn 0.55557023 0.00000000 -0.83146961
vn 0.60876143 0.00000000 -0.79335334
vn 0.65934582 0.00000000 -0.75183981
vn 0.70710678 0.00000000 -0.70710678
vn 0.75183981 0.00000000 -0.65934582
vn 0.79335334 0.00000000 -0.60876143
vn 0.83146961 0.00000000 -0.55557023
vn 0.86602540 0.00000000 -0.50000000
vn 0.89687274 0.00000000 -0.44228869
vn 0.92387953 0.00000000 -0.38268343
vn 0.94693013 0.00000000 -0.32143947
vn 0.96592583 0.00000000 -0.25881905
vn 0.98078528 0.00000000 -0.19509032
vn 0.99144486 0.00000000 -0.13052619
vn 0.99785892 0.00000000 -0.06540313
vn 0.00000000 1.00000000 0.00000000
vn 0.00000000 1.00000000 0.00000000
vn 0.00000000 1.00000000 0.00000000
vn 0.00000000 1.00000000 0.00000000
vn 0.00000000 1.00000000 0.00000000
vn 0.00000000 1.00000000 0.00000000
vn 0.00000000 1.00000000 0.00000000
vn 0.00000000 1.00000000 0.00000000
vn 0.00000000 1.00000000 0.00000000
vn 0.00000000 1.00000000 0.00000000
vn 0.00000000 1.00000000 0.00000000
vn 0.00000000 1.00000000 0.00000000
vn 0.00000000 1.00000000 0.00000000
vn 0.00000000 1.00000000 0.00000000
vn 0.00000000 1.00000000 0.00000000
vn 0.00000000 1.00000000 0.00000000
vn 0.00000000 1.00000000 0.00000000
vn 0.00000000 1.00000000 0.00000000
vn 0.00000000 1.00000000 0.00000000
vn 0.00000000 1.00000000 0.00000000
vn 0.00000000 1.00000000 0.00000000
vn 0.00000000 1.00000000 0.00000000
vn 0.00000000 1.00000000 0.00000000
vn 0.00000000 1.00000000 0.00000000
vn 0.00000000 1.00000000 0.00000000
vn 0.00000000 1.00000000 0.00000000
vn 0.00000000 1.00000000 0.00000000
vn 0.00000000 1.00000000 0.00000000
vn 0.00000000 1.00000000 0.00000000
vn 0.00000000 1.00000000 0.00000000
vn 0.00000000 1.00000000 0.00000000
vn 0.00000000 1.00000000 0.00000000
vn 0.00000000 1.00000000 0.00000000
vn 0.00000000 1.00000000 0.00000000
vn 0.00000000 1.00000000 0.00000000
vn 0.00000000 1.00000000 0.00000000
vn 0.00000000 1.00000000 0.00000000
vn 0.00000000 1.00000000 0.00000000
vn 0.00000000 1.00000000 0.00000000
vn 0.00000000 1.00000000 0.00000000
vn 0.00000000 1.00000000 0.00000000
vn 0.00000000 1.00000000 0.00000000
vn 0.00000000 1.00000000 0.00000000
vn 0.00000000 1.00000000 0.00000000
vn 0.00000000 1.00000000 0.00000000
vn 0.00000000 1.00000000 0.00000000
vn 0.00000000 1.00000000 0.00000000
vn 0.00000000 1.00000000 0.00000000
vn 0.00000000 1.00000000 0.00000000
vn 0.00000000 1.00000000 0.00000000
vn 0.00000000 1.00000000 0.00000000
vn 0.00000000 1.00000000 0.00000000
vn 0.00000000 1.00000000 0.00000000
vn 0.00000000 1.00000000 0.00000000
vn 0.00000000 1.00000000 0.00000000
vn 0.00000000 1.00000000 0.00000000
vn 0.00000000 1.00000000 0.00000000
vn 0.00000000 1.00000000 0.00000000
vn 0.00000000 1.00000000 0.00000000
vn 0.00000000 1.00000000 0.00000000
vn 0.00000000 1.00000000 0.00000000
vn 0.00000000 1.00000000 0.00000000
vn 0.00000000 1.00000000 0.00000000
vn 0.00000000 1.00000000 0.00000000
vn 0.00000000 1.00000000 0.00000000
vn 0.00000000 1.00000000 0.00000000
vn 0.00000000 1.00000000 0.00000000
vn 0.00000000 1.00000000 0.00000000
vn 0.00000000 1.00000000 0.00000000
vn 0.00000000 1.00000000 0.00000000
vn 0.00000000 1.00000000 0.00000000
vn 0.00000000 1.00000000 0.00000000
vn 0.00000000 1.00000000 0.00000000
vn 0.00000000 1.00000000 0.00000000
vn 0.00000000 1.00000000 0.00000000
vn 0.00000000 1.00000000 0.00000000
vn 0.00000000 1.00000000 0.00000000
vn 0.00000000 1.00000000 0.00000000
vn 0.00000000 1.00000000 0.00000000
vn 0.00000000 1.00000000 0.00000000
vn 0.00000000 1.00000000 0.00000000
vn 0.00000000 1.00000000 0.00000000
vn 0.00000000 1.00000000 0.00000000
vn 0.00000000 1.00000000 0.00000000
vn 0.00000000 1.00000000 0.00000000
vn 0.00000000 1.00000000 0.00000000
vn 0.00000000 1.00000000 0.00000000
vn 0.00000000 1.00000000 0.00000000
vn 0.00000000 1.00000000 0.00000000
vn 0.00000000 1.00000000 0.00000000
vn 0.00000000 1.00000000 0.00000000
vn 0.00000000 1.00000000 0.00000000
vn 0.00000000 1.00000000 0.00000000
vn 0.00000000 1.00000000 0.00000000
vn 0.00000000 1.00000000 0.00000000
vn 0.00000000 1.00000000 0.00000000
vn 0.00000000 1.00000000 0.00000000
vn 0.00000000 1.00000000 0.00000000
vn 0.00000000 1.00000000 0.00000000
vn 0.00000000 1.00000000 0.00000000
vn 0.00000000 1.00000000 0.00000000
vn 0.00000000 1.00000000 0.00000000
vn 0.00000000 1.00000000 0.00000000
vn 0.00000000 1.00000000 0.00000000
vn 0.00000000 1.00000000 0.00000000
vn 0.00000000 1.00000000 0.00000000
vn 0.00000000 1.00000000 0.00000000
vn 0.00000000 1.00000000 0.00000000
vn 0.00000000 1.00000000 0.00000000
vn 0.00000000 1.00000000 0.00000000
vn 0.00000000 1.00000000 0.00000000
vn 0.00000000 1.00000000 0.00000000
vn 0.00000000 1.00000000 0.00000000
vn 0.00000000 1.00000000 0.00000000
vn 0.00000000 1.00000000 0.00000000
vn 0.00000000 1.00000000 0.00000000
vn 0.00000000 1.00000000 0.00000000
vn 0.00000000 1.00000000 0.00000000
vn 0.00000000 1.00000000 0.00000000
vn 0.00000000 1.00000000 0.00000000
vn 0.00000000 1.00000000 0.00000000
vn 0.00000000 1.00000000 0.00000000
vn 0.00000000 1.00000000 0.00000000
vn 0.00000000 1.00000000 0.00000000
vn 0.00000000 1.00000000 0.00000000
vn 0.00000000 1.00000000 0.00000000
vn 0.00000000 1.00000000 0.00000000
vn 0.00000000 1.00000000 0.00000000
vn 0.00000000 1.00000000 0.00000000
vn 0.00000000 1.00000000 0.00000000
vn 0.00000000 1.00000000 0.00000000
vn 0.00000000 1.00000000 0.00000000
vn 0.00000000 1.00000000 0.00000000
vn 0.00000000 1.00000000 0.00000000
vn 0.00000000 1.00000000 0.00000000
vn 0.00000000 1.00000000 0.00000000
vn 0.00000000 1.00000000 0.00000000
vn 0.00000000 1.00000000 0.00000000
vn 0.00000000 1.00000000 0.00000000
vn 0.00000000 1.00000000 0.00000000
vn 0.00000000 1.00000000 0.00000000
vn 0.00000000 1.00000000 0.00000000
vn 0.00000000 1.00000000 0.00000000
vn 0.00000000 1.00000000 0.00000000
vn 0.00000000 1.00000000 0.00000000
vn 0.00000000 1.00000000 0.00000000
vn 0.00000000 1.00000000 0.00000000
vn 0.00000000 1.00000000 0.00000000
vn 0.00000000 1.00000000 0.00000000
vn 0.00000000 1.00000000 0.00000000
vn 0.00000000 1.00000000 0.00000000
vn 0.00000000 1.00000000 0.00000000
vn 0.00000000 1.00000000 0.00000000
vn 0.00000000 1.00000000 0.00000000
vn 0.00000000 1.00000000 0.00000000
vn 0.00000000 1.00000000 0.00000000
vn 0.00000000 1.00000000 0.00000000
vn 0.00000000 1.00000000 0.00000000
vn 0.00000000 1.00000000 0.00000000
vn 0.00000000 1.00000000 0.00000000
vn 0.00000000 1.00000000 0.00000000
vn 0.00000000 1.00000000 0.00000000
vn 0.00000000 1.00000000 0.00000000
vn 0.00000000 1.00000000 0.00000000
vn 0.00000000 1.00000000 0.00000000
vn 0.00000000 1.00000000 0.00000000
vn 0.00000000 1.00000000 0.00000000
vn 0.00000000 1.00000000 0.00000000
vn 0.00000000 1.00000000 0.00000000
vn 0.00000000 1.00000000 0.00000000
vn 0.00000000 1.00000000 0.00000000
vn 0.00000000 1.00000000 0.00000000
vn 0.00000000 1.00000000 0.00000000
vn 0.00000000 1.00000000 0.00000000
vn 0.00000000 1.00000000 0.00000000
vn 0.00000000 1.00000000 0.00000000
vn 0.00000000 1.00000000 0.00000000
vn 0.00000000 1.00000000 0.00000000
vn 0.00000000 1.00000000 0.00000000
vn 0.00000000 1.00000000 0.00000000
vn 0.00000000 1.00000000 0.00000000
vn 0.00000000 1.00000000 0.00000000
vn 0.00000000 1.00000000 0.00000000
vn 0.00000000 1.00000000 0.00000000
vn 0.00000000 1.00000000 0.00000000
vn 0.00000000 1.00000000 0.00000000
vn 0.00000000 1.00000000 0.00000000
vn 0.00000000 1.00000000 0.00000000
vn 0.00000000 1.00000000 0.00000000
vn 0.00000000 1.00000000 0.00000000
vn 0.00000000 1.00000000 0.00000000
vn 0.00000000 1.00000000 0.00000000
vn -1.00000000 0.00000000 -0.00000000
vn -0.99785892 0.00000000 -0.06540313
vn -0.99144486 0.00000000 -0.13052619
vn -0.98078528 0.00000000 -0.19509032
vn -0.96592583 0.00000000 -0.25881905
vn -0.94693013 0.00000000 -0.32143947
vn -0.92387953 0.00000000 -0.38268343
vn -0.89687274 0.00000000 -0.44228869
vn -0.86602540 0.00000000 -0.50000000
vn -0.83146961 0.00000000 -0.55557023
vn -0.79335334 0.00000000 -0.60876143
vn -0.75183981 0.00000000 -0.65934582
vn -0.70710678 0.00000000 -0.70710678
vn -0.65934582 0.00000000 -0.75183981
vn -0.60876143 0.00000000 -0.79335334
vn -0.55557023 0.00000000 -0.83146961
vn -0.50000000 0.00000000 -0.86602540
vn -0.44228869 0.00000000 -0.89687274
vn -0.38268343 0.00000000 -0.92387953
vn -0.32143947 0.00000000 -0.94693013
vn -0.25881905 0.00000000 -0.96592583
vn -0.19509032 0.00000000 -0.98078528
vn -0.13052619 0.00000000 -0.99144486
vn -0.06540313 0.00000000 -0.99785892
vn 0.00000000 0.00000000 -1.00000000
vn 0.06540313 0.00000000 -0.99785892
vn 0.13052619 0.00000000 -0.99144486
vn 0.19509032 0.00000000 -0.98078528
vn 0.25881905 0.00000000 -0.96592583
vn 0.32143947 0.00000000 -0.94693013
vn 0.38268343 0.00000000 -0.92387953
vn 0.44228869 0.00000000 -0.89687274
vn 0.50000000 0.00000000 -0.86602540
vn 0.55557023 0.00000000 -0.83146961
vn 0.60876143 0.00000000 -0.79335334
vn 0.65934582 0.00000000 -0.75183981
vn 0.70710678 0.00000000 -0.70710678
vn 0.75183981 0.00000000 -0.65934582
vn 0.79335334 0.00000000 -0.60876143
vn 0.83146961 0.00000000 -0.55557023
vn 0.86602540 0.00000000 -0.50000000
vn 0.89687274 0.00000000 -0.44228869
vn 0.92387953 0.00000000 -0.38268343
vn 0.94693013 0.00000000 -0.32143947
vn 0.96592583 0.00000000 -0.25881905
vn 0.98078528 0.00000000 -0.19509032
vn 0.99144486 0.00000000 -0.13052619
vn 0.99785892 0.00000000 -0.06540313
vn 1.00000000 0.00000000 0.00000000
vn 0.99785892 0.00000000 0.06540313
vn 0.99144486 0.00000000 0.13052619
vn 0.98078528 0.00000000 0.19509032
vn 0.96592583 0.00000000 0.25881905
vn 0.94693013 0.00000000 0.32143947
vn 0.92387953 0.00000000 0.38268343
vn 0.89687274 0.00000000 0.44228869
vn 0.86602540 0.00000000 0.50000000
vn 0.83146961 0.00000000 0.55557023
vn 0.79335334 0.00000000 0.60876143
vn 0.75183981 0.00000000 0.65934582
vn 0.70710678 0.00000000 0.70710678
vn 0.65934582 0.00000000 0.75183981
vn 0.60876143 0.00000000 0.79335334
vn 0.55557023 0.00000000 0.83146961
vn 0.50000000 0.00000000 0.86602540
vn 0.44228869 0.00000000 0.89687274
vn 0.38268343 0.00000000 0.92387953
vn 0.32143947 0.00000000 0.94693013
vn 0.25881905 0.00000000 0.96592583
vn 0.19509032 0.00000000 0.98078528
vn 0.13052619 0.00000000 0.99144486
vn 0.06540313 0.00000000 0.99785892
vn 0.00000000 0.00000000 1.00000000
vn -0.06540313 0.00000000 0.99785892
vn -0.13052619 0.00000000 0.99144486
vn -0.19509032 0.00000000 0.98078528
vn -0.25881905 0.00000000 0.96592583
vn -0.32143947 0.00000000 0.94693013
vn -0.38268343 0.00000000 0.92387953
vn -0.44228869 0.00000000 0.89687274
vn -0.50000000 0.00000000 0.86602540
vn -0.55557023 0.00000000 0.83146961
vn -0.60876143 0.00000000 0.79335334
vn -0.65934582 0.00000000 0.75183981
vn -0.70710678 0.00000000 0.70710678
vn -0.75183981 0.00000000 0.65934582
vn -0.79335334 0.00000000 0.60876143
vn -0.83146961 0.00000000 0.55557023
vn -0.86602540 0.00000000 0.50000000
vn -0.89687274 0.00000000 0.44228869
vn -0.92387953 0.00000000 0.38268343
vn -0.94693013 0.00000000 0.32143947
vn -0.96592583 0.00000000 0.25881905
vn -0.98078528 0.00000000 0.19509032
vn -0.99144486 0.00000000 0.13052619
vn -0.99785892 0.00000000 0.06540313
vn -1.00000000 0.00000000 -0.00000000
vn -0.99785892 0.00000000 -0.06540313
vn -0.99144486 0.00000000 -0.13052619
vn -0.98078528 0.00000000 -0.19509032
vn -0.96592583 0.00000000 -0.25881905
vn -0.94693013 0.00000000 -0.32143947
vn -0.92387953 0.00000000 -0.38268343
vn -0.89687274 0.00000000 -0.44228869
vn -0.86602540 0.00000000 -0.50000000
vn -0.83146961 0.00000000 -0.55557023
vn -0.79335334 0.00000000 -0.60876143
vn -0.75183981 0.00000000 -0.65934582
vn -0.70710678 0.00000000 -0.70710678
vn -0.65934582 0.00000000 -0.75183981
vn -0.60876143 0.00000000 -0.79335334
vn -0.55557023 0.00000000 -0.83146961
vn -0.50000000 0.00000000 -0.86602540
vn -0.44228869 0.00000000 -0.89687274
vn -0.38268343 0.00000000 -0.92387953
vn -0.32143947 0.00000000 -0.94693013
vn -0.25881905 0.00000000 -0.96592583
vn -0.19509032 0.00000000 -0.98078528
vn -0.13052619 0.00000000 -0.99144486
vn -0.06540313 0.00000000 -0.99785892
vn 0.00000000 0.00000000 -1.00000000
vn 0.06540313 0.00000000 -0.99785892
vn 0.13052619 0.00000000 -0.99144486
vn 0.19509032 0.00000000 -0.98078528
vn 0.25881905 0.00000000 -0.96592583
vn 0.32143947 0.00000000 -0.94693013
vn 0.38268343 0.00000000 -0.92387953
vn 0.44228869 0.00000000 -0.89687274
vn 0.50000000 0.00000000 -0.86602540
vn 0.55557023 0.00000000 -0.83146961
vn 0.60876143 0.00000000 -0.79335334
vn 0.65934582 0.00000000 -0.75183981
vn 0.70710678 0.00000000 -0.70710678
vn 0.75183981 0.00000000 -0.65934582
vn 0.79335334 0.00000000 -0.60876143
vn 0.83146961 0.00000000 -0.55557023
vn 0.86602540 0.00000000 -0.50000000
vn 0.89687274 0.00000000 -0.44228869
vn 0.92387953 0.00000000 -0.38268343
vn 0.94693013 0.00000000 -0.32143947
vn 0.96592583 0.00000000 -0.25881905
vn 0.98078528 0.00000000 -0.19509032
vn 0.99144486 0.00000000 -0.13052619
vn 0.99785892 0.00000000 -0.06540313
vn 1.00000000 0.00000000 0.00000000
vn 0.99785892 0.00000000 0.06540313
vn 0.99144486 0.00000000 0.13052619
vn 0.98078528 0.00000000 0.19509032
vn 0.96592583 0.00000000 0.25881905
vn 0.94693013 0.00000000 0.32143947
vn 0.92387953 0.00000000 0.38268343
vn 0.89687274 0.00000000 0.44228869
vn 0.86602540 0.00000000 0.50000000
vn 0.83146961 0.00000000 0.55557023
vn 0.79335334 0.00000000 0.60876143
vn 0.75183981 0.00000000 0.65934582
vn 0.70710678 0.00000000 0.70710678
vn 0.65934582 0.00000000 0.75183981
vn 0.60876143 0.00000000 0.79335334
vn 0.55557023 0.00000000 0.83146961
vn 0.50000000 0.00000000 0.86602540
vn 0.44228869 0.00000000 0.89687274
vn 0.38268343 0.00000000 0.92387953
vn 0.32143947 0.00000000 0.94693013
vn 0.25881905 0.00000000 0.96592583
vn 0.19509032 0.00000000 0.98078528
vn 0.13052619 0.00000000 0.99144486
vn 0.06540313 0.00000000 0.99785892
vn 0.00000000 0.00000000 1.00000000
vn -0.06540313 0.00000000 0.99785892
vn -0.13052619 0.00000000 0.99144486
vn -0.19509032 0.00000000 0.98078528
vn -0.25881905 0.00000000 0.96592583
vn -0.32143947 0.00000000 0.94693013
vn -0.38268343 0.00000000 0.92387953
vn -0.44228869 0.00000000 0.89687274
vn -0.50000000 0.00000000 0.86602540
vn -0.55557023 0.00000000 0.83146961
vn -0.60876143 0.00000000 0.79335334
vn -0.65934582 0.00000000 0.75183981
vn -0.70710678 0.00000000 0.70710678
vn -0.75183981 0.00000000 0.65934582
vn -0.79335334 0.00000000 0.60876143
vn -0.83146961 0.00000000 0.55557023
vn -0.86602540 0.00000000 0.50000000
vn -0.89687274 0.00000000 0.44228869
vn -0.92387953 0.00000000 0.38268343
vn -0.94693013 0.00000000 0.32143947
vn -0.96592583 0.00000000 0.25881905
vn -0.98078528 0.00000000 0.19509032
vn -0.99144486 0.00000000 0.13052619
vn -0.99785892 0.00000000 0.06540313
f 1//1 97//97 98//98
f 62//62 158//158 159//159
f 62//62 159//159 63//63
f 63//63 159//159 160//160
f 63//63 160//160 64//64
f 64//64 160//160 161//161
f 64//64 161//161 65//65
f 65//65 161//161 162//162
f 65//65 162//162 66//66
f 66//66 162//162 163//163
f 61//61 158//158 62//62
f 66//66 163//163 67//67
f 67//67 164//164 68//68
f 68//68 164//164 165//165
f 68//68 165//165 69//69
f 69//69 165//165 166//166
f 69//69 166//166 70//70
f 70//70 166//166 167//167
f 70//70 167//167 71//71
f 71//71 167//167 168//168
f 71//71 168//168 72//72
f 67//67 163//163 164//164
f 72//72 168//168 169//169
f 61//61 157//157 158//158
f 60//60 156//156 157//157
f 50//50 146//146 147//147
f 50//50 147//147 51//51
f 51//51 147//147 148//148
f 51//51 148//148 52//52
f 52//52 148//148 149//149
f 52//52 149//149 53//53
f 53//53 149//149 150//150
f 53//53 150//150 54//54
f 54//54 150//150 151//151
f 60//60 157//157 61//61
f 54//54 151//151 55//55
f 55//55 152//152 56//56
f 56//56 152//152 153//153
f 56//56 153//153 57//57
f 57//57 153//153 154//154
f 57//57 154//154 58//58
f 58//58 154//154 155//155
f 58//58 155//155 59//59
f 59//59 155//155 156//156
f 59//59 156//156 60//60
f 55//55 151//151 152//152
f 73//73 169//169 170//170
f 73//73 170//170 74//74
f 74//74 170//170 171//171
f 87//87 183//183 184//184
f 87//87 184//184 88//88
f 88//88 184//184 185//185
f 88//88 185//185 89//89
f 89//89 185//185 186//186
f 89//89 186//186 90//90
f 90//90 186//186 187//187
f 90//90 187//187 91//91
f 91//91 187//187 188//188
f 86//86 183//183 87//87
f 91//91 188//188 92//92
f 92//92 189//189 93//93
f 93//93 189//189 190//190
f 93//93 190//190 94//94
f 94//94 190//190 191//191
f 94//94 191//191 95//95
f 95//95 191//191 192//192
f 95//95 192//192 96//96
f 96//96 192//192 97//97
f 96//96 97//97 1//1
f 92//92 188//188 189//189
f 86//86 182//182 183//183
f 85//85 182//182 86//86
f 85//85 181//181 182//182
f 74//74 171//171 75//75
f 75//75 171//171 172//172
f 75//75 172//172 76//76
f 76//76 172//172 173//173
f 76//76 173//173 77//77
f 77//77 173//173 174//174
f 77//77 174//174 78//78
f 78//78 174//174 175//175
f 78//78 175//175 79//79
f 79//79 175//175 176//176
f 79//79 176//176 80//80
f 80//80 176//176 177//177
f 80//80 177//177 81//81
f 81//81 177//177 178//178
f 81//81 178//178 82//82
f 82//82 178//178 179//179
f 82//82 179//179 83//83
f 83//83 179//179 180//180
f 83//83 180//180 84//84
f 84//84 180//180 181//181
f 84//84 181//181 85//85
f 49//49 146//146 50//50
f 49//49 145//145 146//146
f 72//72 169//169 73//73
f 48//48 144//144 145//145
f 14//14 110//110 111//111
f 14//14 111//111 15//15
f 15//15 111//111 112//112
f 15//15 112//112 16//16
f 16//16 112//112 113//113
f 16//16 113//113 17//17
f 17//17 113//113 114//114
f 17//17 114//114 18//18
f 18//18 114//114 115//115
f 13//13 110//110 14//14
f 18//18 115//115 19//19
f 19//19 116//116 20//20
f 20//20 116//116 117//117
f 20//20 117//117 21//21
f 21//21 117//117 118//118
f 21//21 118//118 22//22
f 22//22 118//118 119//119
f 22//22 119//119 23//23
f 23//23 119//119 120//120
f 23//23 120//120 24//24
f 19//19 115//115 116//116
f 13//13 109//109 110//110
f 12//12 109//109 13//13
f 12//12 108//108 109//109
f 48//48 145//145 49//49
f 2//2 98//98 99//99
f 2//2 99//99 3//3
f 3//3 99//99 100//100
f 3//3 100//100 4//4
f 4//4 100//100 101//101
f 4//4 101//101 5//5
f 5//5 101//101 102//102
f 5//5 102//102 6//6
f 6//6 102//102 103//103
f 6//6 103//103 7//7
f 7//7 103//103 104//104
f 7//7 104//104 8//8
f 8//8 104//104 105//105
f 8//8 105//105 9//9
f 9//9 105//105 106//106
f 9//9 106//106 10//10
f 10//10 106//106 107//107
f 10//10 107//107 11//11
f 11//11 107//107 108//108
f 11//11 108//108 12//12
f 24//24 120//120 121//121
f 24//24 121//121 25//25
f 1//1 98//98 2//2
f 41//41 138//138 42//42
f 37//37 134//134 38//38
f 38//38 134//134 135//135
f 39//39 135//135 136//136
f 39//39 136//136 40//40
f 40//40 136//136 137//137
f 40//40 137//137 41//41
f 41//41 137//137 138//138
f 25//25 121//121 122//122
f 42//42 138//138 139//139
f 37//37 133//133 134//134
f 42//42 139//139 43//43
f 43//43 140//140 44//44
f 44//44 140//140 141//141
f 44//44 141//141 45//45
f 45//45 141//141 142//142
f 45//45 142//142 46//46
f 46//46 142//142 143//143
f 46//46 143//143 47//47
f 47//47 143//143 144//144
f 47//47 144//144 48//48
f 43//43 139//139 140//140
f 36//36 133//133 37//37
f 38//38 135//135 39//39
f 35//35 132//132 36//36
f 25//25 122//122 26//26
f 26//26 122//122 123//123
f 26//26 123//123 27//27
f 27//27 123//123 124//124
f 27//27 124//124 28//28
f 28//28 124//124 125//125
f 36//36 132//132 133//133
f 29//29 125//125 126//126
f 29//29 126//126 30//30
f 30//30 126//126 127//127
f 28//28 125//125 29//29
f 31//31 127//127 128//128
f 30//30 127//127 31//31
f 34//34 131//131 35//35
f 34//34 130//130 131//131
f 33//33 130//130 34//34
f 35//35 131//131 132//132
f 32//32 129//129 33//33
f 32//32 128//128 129//129
f 31//31 128//128 32//32
f 33//33 129//129 130//130
f 258//258 354//354 355//355
f 254//254 350//350 351//351
f 254//254 351//351 255//255
f 255//255 351//351 352//352
f 255//255 352//352 256//256
f 256//256 352//352 353//353
f 256//256 353//353 257//257
f 257//257 353//353 354//354
f 257//257 354//354 258//258
f 258//258 355//355 259//259
f 241//241 338//338 242//242
f 259//259 356//356 260//260
f 260//260 356//356 357//357
f 260//260 357//357 261//261
f 261//261 357//357 358//358
f 261//261 358//358 262//262
f 262//262 358//358 359//359
f 262//262 359//359 263//263
f 263//263 359//359 360//360
f 263//263 360//360 264//264
f 259//259 355//355 356//356
f 253//253 350//350 254//254
f 242//242 338//338 339//339
f 252//252 349//349 253//253
f 264//264 360//360 361//361
f 242//242 339//339 243//243
f 243//243 339//339 340//340
f 243//243 340//340 244//244
f 244//244 340//340 341//341
f 244//244 341//341 245//245
f 245//245 341//341 342//342
f 245//245 342//342 246//246
f 246//246 342//342 343//343
f 246//246 343//343 247//247
f 247//247 343//343 344//344
f 247//247 344//344 248//248
f 248//248 344//344 345//345
f 248//248 345//345 249//249
f 249//249 345//345 346//346
f 249//249 346//346 250//250
f 250//250 346//346 347//347
f 250//250 347//347 251//251
f 251//251 347//347 348//348
f 251//251 348//348 252//252
f 252//252 348//348 349//349
f 253//253 349//349 350//350
f 264//264 361//361 265//265
f 276//276 372//372 373//373
f 265//265 362//362 266//266
f 278//278 375//375 279//279
f 279//279 375//375 376//376
f 279//279 376//376 280//280
f 280//280 376//376 377//377
f 280//280 377//377 281//281
f 281//281 377//377 378//378
f 281//281 378//378 282//282
f 282//282 378//378 379//379
f 282//282 379//379 283//283
f 278//278 374//374 375//375
f 283//283 379//379 380//380
f 284//284 380//380 381//381
f 284//284 381//381 285//285
f 285//285 381//381 382//382
f 285//285 382//382 286//286
f 286//286 382//382 383//383
f 286//286 383//383 287//287
f 287//287 383//383 384//384
f 287//287 384//384 288//288
f 288//288 384//384 289//289
f 283//283 380//380 284//284
f 265//265 361//361 362//362
f 277//277 374//374 278//278
f 276//276 373//373 277//277
f 266//266 362//362 363//363
f 266//266 363//363 267//267
f 267//267 363//363 364//364
f 267//267 364//364 268//268
f 268//268 364//364 365//365
f 268//268 365//365 269//269
f 269//269 365//365 366//366
f 269//269 366//366 270//270
f 270//270 366//366 367//367
f 277//277 373//373 374//374
f 270//270 367//367 271//271
f 271//271 368//368 272//272
f 272//272 368//368 369//369
f 272//272 369//369 273//273
f 273//273 369//369 370//370
f 273//273 370//370 274//274
f 274//274 370//370 371//371
f 274//274 371//371 275//275
f 275//275 371//371 372//372
f 275//275 372//372 276//276
f 271//271 367//367 368//368
f 241//241 337//337 338//338
f 288//288 289//289 193//193
f 240//240 336//336 337//337
f 205//205 302//302 206//206
f 206//206 302//302 303//303
f 206//206 303//303 207//207
f 207//207 303//303 304//304
f 207//207 304//304 208//208
f 208//208 304//304 305//305
f 208//208 305//305 209//209
f 209//209 305//305 306//306
f 209//209 306//306 210//210
f 240//240 337//337 241//241
f 210//210 306//306 307//307
f 211//211 307//307 308//308
f 211//211 308//308 212//212
f 212//212 308//308 309//309
f 212//212 309//309 213//213
f 213//213 309//309 310//310
f 213//213 310//310 214//214
f 214//214 310//310 311//311
f 214//214 311//311 215//215
f 215//215 311//311 312//312
f 210//210 307//307 211//211
f 204//204 301//301 205//205
f 204//204 300//300 301//301
f 203//203 300//300 204//204
f 193//193 289//289 290//290
f 193//193 290//290 194//194
f 194//194 290//290 291//291
f 194//194 291//291 195//195
f 195//195 291//291 292//292
f 195//195 292//292 196//196
f 196//196 292//292 293//293
f 196//196 293//293 197//197
f 197//197 293//293 294//294
f 197//197 294//294 198//198
f 198//198 294//294 295//295
f 198//198 295//295 199//199
f 199//199 295//295 296//296
f 199//199 296//296 200//200
f 200//200 296//296 297//297
f 200//200 297//297 201//201
f 201//201 297//297 298//298
f 201//201 298//298 202//202
f 202//202 298//298 299//299
f 202//202 299//299 203//203
f 203//203 299//299 300//300
f 215//215 312//312 216//216
f 216//216 312//312 313//313
f 205//205 301//301 302//302
f 217//217 313//313 314//314
f 230//230 326//326 327//327
f 230//230 327//327 231//231
f 231//231 327//327 328//328
f 231//231 328//328 232//232
f 232//232 328//328 329//329
f 232//232 329//329 233//233
f 233//233 329//329 330//330
f 233//233 330//330 234//234
f 234//234 331//331 235//235
f 229//229 326//326 230//230
f 235//235 331//331 332//332
f 236//236 332//332 333//333
f 236//236 333//333 237//237
f 237//237 333//333 334//334
f 237//237 334//334 238//238
f 238//238 334//334 335//335
f 238//238 335//335 239//239
f 239//239 335//335 336//336
f 239//239 336//336 240//240
f 216//216 313//313 217//217
f 235//235 332//332 236//236
f 229//229 325//325 326//326
f 234//234 330//330 331//331
f 228//228 324//324 325//325
f 228//228 325//325 229//229
f 218//218 314//314 315//315
f 218//218 315//315 219//219
f 219//219 315//315 316//316
f 219//219 316//316 220//220
f 220//220 316//316 317//317
f 220//220 317//317 221//221
f 221//221 317//317 318//318
f 221//221 318//318 222//222
f 222//222 318//318 319//319
f 222//222 319//319 223//223
f 217//217 314//314 218//218
f 227//227 324//324 228//228
f 223//223 320//320 224//224
f 224//224 320//320 321//321
f 224//224 321//321 225//225
f 225//225 321//321 322//322
f 225//225 322//322 226//226
f 226//226 322//322 323//323
f 226//226 323//323 227//227
f 227//227 323//323 324//324
f 223//223 319//319 320//320
f 449//449 546//546 450//450
f 449//449 545//545 546//546
f 448//448 545//545 449//449
f 446//446 542//542 543//543
f 447//447 544//544 448//448
f 447//447 543//543 544//544
f 446//446 543//543 447//447
f 450//450 546//546 547//547
f 448//448 544//544 545//545
f 450//450 547//547 451//451
f 453//453 550//550 454//454
f 451//451 548//548 452//452
f 452//452 548//548 549//549
f 452//452 549//549 453//453
f 453//453 549//549 550//550
f 454//454 550//550 551//551
f 454//454 551//551 455//455
f 455//455 551//551 552//552
f 455//455 552//552 456//456
f 456//456 552//552 553//553
f 451//451 547//547 548//548
f 445//445 542//542 446//446
f 434//434 530//530 531//531
f 444//444 541//541 445//445
f 434//434 531//531 435//435
f 435//435 531//531 532//532
f 435//435 532//532 436//436
f 436//436 532//532 533//533
f 436//436 533//533 437//437
f 437//437 533//533 534//534
f 437//437 534//534 438//438
f 438//438 534//534 535//535
f 438//438 535//535 439//439
f 445//445 541//541 542//542
f 439//439 535//535 536//536
f 440//440 536//536 537//537
f 440//440 537//537 441//441
f 441//441 537//537 538//538
f 441//441 538//538 442//442
f 442//442 538//538 539//539
f 442//442 539//539 443//443
f 443//443 539//539 540//540
f 443//443 540//540 444//444
f 444//444 540//540 541//541
f 439//439 536//536 440//440
f 457//457 553//553 554//554
f 480//480 481//481 385//385
f 458//458 554//554 555//555
f 471//471 567//567 568//568
f 471//471 568//568 472//472
f 472//472 568//568 569//569
f 472//472 569//569 473//473
f 473//473 569//569 570//570
f 473//473 570//570 474//474
f 474//474 570//570 571//571
f 474//474 571//571 475//475
f 475//475 571//571 572//572
f 470//470 567//567 471//471
f 475//475 572//572 476//476
f 476//476 573//573 477//477
f 477//477 573//573 574//574
f 477//477 574//574 478//478
f 478//478 574//574 575//575
f 478//478 575//575 479//479
f 479//479 575//575 576//576
f 479//479 576//576 480//480
f 480//480 576//576 481//481
f 433//433 530//530 434//434
f 476//476 572//572 573//573
f 470//470 566//566 567//567
f 469//469 566//566 470//470
f 469//469 565//565 566//566
f 458//458 555//555 459//459
f 459//459 555//555 556//556
f 459//459 556//556 460//460
f 460//460 556//556 557//557
f 460//460 557//557 461//461
f 461//461 557//557 558//558
f 461//461 558//558 462//462
f 462//462 558//558 559//559
f 462//462 559//559 463//463
f 463//463 559//559 560//560
f 463//463 560//560 464//464
f 464//464 560//560 561//561
f 464//464 561//561 465//465
f 465//465 561//561 562//562
f 465//465 562//562 466//466
f 466//466 562//562 563//563
f 466//466 563//563 467//467
f 467//467 563//563 564//564
f 467//467 564//564 468//468
f 468//468 564//564 565//565
f 468//468 565//565 469//469
f 457//457 554//554 458//458
f 433//433 529//529 530//530
f 456//456 553//553 457//457
f 432//432 528//528 529//529
f 397//397 494//494 398//398
f 398//398 494//494 495//495
f 398//398 495//495 399//399
f 399//399 495//495 496//496
f 399//399 496//496 400//400
f 400//400 496//496 497//497
f 400//400 497//497 401//401
f 401//401 497//497 498//498
f 401//401 498//498 402//402
f 432//432 529//529 433//433
f 402//402 498//498 499//499
f 403//403 499//499 500//500
f 403//403 500//500 404//404
f 404//404 500//500 501//501
f 404//404 501//501 405//405
f 405//405 501//501 502//502
f 405//405 502//502 406//406
f 406//406 502//502 503//503
f 406//406 503//503 407//407
f 407//407 503//503 504//504
f 402//402 499//499 403//403
f 396//396 493//493 397//397
f 396//396 492//492 493//493
f 395//395 492//492 396//396
f 385//385 481//481 482//482
f 385//385 482//482 386//386
f 386//386 482//482 483//483
f 386//386 483//483 387//387
f 387//387 483//483 484//484
f 387//387 484//484 388//388
f 388//388 484//484 485//485
f 388//388 485//485 389//389
f 389//389 485//485 486//486
f 389//389 486//486 390//390
f 390//390 486//486 487//487
f 390//390 487//487 391//391
f 391//391 487//487 488//488
f 391//391 488//488 392//392
f 392//392 488//488 489//489
f 392//392 489//489 393//393
f 393//393 489//489 490//490
f 393//393 490//490 394//394
f 394//394 490//490 491//491
f 394//394 491//491 395//395
f 395//395 491//491 492//492
f 407//407 504//504 408//408
f 408//408 504//504 505//505
f 397//397 493//493 494//494
f 409//409 505//505 506//506
f 422//422 518//518 519//519
f 422//422 519//519 423//423
f 423//423 519//519 520//520
f 423//423 520//520 424//424
f 424//424 520//520 521//521
f 424//424 521//521 425//425
f 425//425 521//521 522//522
f 425//425 522//522 426//426
f 426//426 523//523 427//427
f 421//421 518//518 422//422
f 427//427 523//523 524//524
f 428//428 524//524 525//525
f 428//428 525//525 429//429
f 429//429 525//525 526//526
f 429//429 526//526 430//430
f 430//430 526//526 527//527
f 430//430 527//527 431//431
f 431//431 527//527 528//528
f 431//431 528//528 432//432
f 408//408 505//505 409//409
f 427//427 524//524 428//428
f 421//421 517//517 518//518
f 426//426 522//522 523//523
f 420//420 516//516 517//517
f 420//420 517//517 421//421
f 410//410 506//506 507//507
f 410//410 507//507 411//411
f 411//411 507//507 508//508
f 411//411 508//508 412//412
f 412//412 508//508 509//509
f 412//412 509//509 413//413
f 413//413 509//509 510//510
f 413//413 510//510 414//414
f 414//414 510//510 511//511
f 414//414 511//511 415//415
f 409//409 506//506 410//410
f 419//419 516//516 420//420
f 415//415 512//512 416//416
f 416//416 512//512 513//513
f 416//416 513//513 417//417
f 417//417 513//513 514//514
f 417//417 514//514 418//418
f 418//418 514//514 515//515
f 418//418 515//515 419//419
f 419//419 515//515 516//516
f 415//415 511//511 512//512
f 737//737 641//641 642//642
f 736//736 641//641 737//737
f 736//736 640//640 641//641
f 733//733 638//638 734//734
f 735//735 639//639 640//640
f 734//734 639//639 735//735
f 734//734 638//638 639//639
f 737//737 642//642 738//738
f 735//735 640//640 736//736
f 738//738 642//642 643//643
f 741//741 645//645 646//646
f 739//739 643//643 644//644
f 739//739 644//644 740//740
f 740//740 644//644 645//645
f 740//740 645//645 741//741
f 741//741 646//646 742//742
f 742//742 646//646 647//647
f 742//742 647//647 743//743
f 743//743 647//647 648//648
f 743//743 648//648 744//744
f 738//738 643//643 739//739
f 733//733 637//637 638//638
f 721//721 626//626 722//722
f 732//732 636//636 637//637
f 722//722 626//626 627//627
f 722//722 627//627 723//723
f 723//723 627//627 628//628
f 723//723 628//628 724//724
f 724//724 628//628 629//629
f 724//724 629//629 725//725
f 725//725 629//629 630//630
f 725//725 630//630 726//726
f 726//726 630//630 631//631
f 732//732 637//637 733//733
f 726//726 631//631 727//727
f 727//727 632//632 728//728
f 728//728 632//632 633//633
f 728//728 633//633 729//729
f 729//729 633//633 634//634
f 729//729 634//634 730//730
f 730//730 634//634 635//635
f 730//730 635//635 731//731
f 731//731 635//635 636//636
f 731//731 636//636 732//732
f 727//727 631//631 632//632
f 744//744 648//648 649//649
f 767//767 672//672 768//768
f 745//745 649//649 650//650
f 758//758 662//662 663//663
f 758//758 663//663 759//759
f 759//759 663//663 664//664
f 759//759 664//664 760//760
f 760//760 664//664 665//665
f 760//760 665//665 761//761
f 761//761 665//665 666//666
f 761//761 666//666 762//762
f 762//762 666//666 667//667
f 757//757 662//662 758//758
f 762//762 667//667 763//763
f 763//763 668//668 764//764
f 764//764 668//668 669//669
f 764//764 669//669 765//765
f 765//765 669//669 670//670
f 765//765 670//670 766//766
f 766//766 670//670 671//671
f 766//766 671//671 767//767
f 767//767 671//671 672//672
f 721//721 625//625 626//626
f 763//763 667//667 668//668
f 757//757 661//661 662//662
f 756//756 661//661 757//757
f 756//756 660//660 661//661
f 745//745 650//650 746//746
f 746//746 650//650 651//651
f 746//746 651//651 747//747
f 747//747 651//651 652//652
f 747//747 652//652 748//748
f 748//748 652//652 653//653
f 748//748 653//653 749//749
f 749//749 653//653 654//654
f 749//749 654//654 750//750
f 750//750 654//654 655//655
f 750//750 655//655 751//751
f 751//751 655//655 656//656
f 751//751 656//656 752//752
f 752//752 656//656 657//657
f 752//752 657//657 753//753
f 753//753 657//657 658//658
f 753//753 658//658 754//754
f 754//754 658//658 659//659
f 754//754 659//659 755//755
f 755//755 659//659 660//660
f 755//755 660//660 756//756
f 744//744 649//649 745//745
f 720//720 625//625 721//721
f 696//696 601//601 697//697
f 719//719 624//624 720//720
f 684//684 589//589 685//685
f 685//685 589//589 590//590
f 685//685 590//590 686//686
f 686//686 590//590 591//591
f 686//686 591//591 687//687
f 687//687 591//591 592//592
f 687//687 592//592 688//688
f 688//688 592//592 593//593
f 688//688 593//593 689//689
f 684//684 588//588 589//589
f 689//689 593//593 594//594
f 690//690 594//594 595//595
f 690//690 595//595 691//691
f 691//691 595//595 596//596
f 691//691 596//596 692//692
f 692//692 596//596 597//597
f 692//692 597//597 693//693
f 693//693 597//597 598//598
f 693//693 598//598 694//694
f 694//694 598//598 599//599
f 689//689 594//594 690//690
f 694//694 599//599 695//695
f 683//683 588//588 684//684
f 682//682 587//587 683//683
f 768//768 672//672 577//577
f 673//673 577//577 578//578
f 673//673 578//578 674//674
f 674//674 578//578 579//579
f 674//674 579//579 675//675
f 675//675 579//579 580//580
f 675//675 580//580 676//676
f 676//676 580//580 581//581
f 676//676 581//581 677//677
f 683//683 587//587 588//588
f 677//677 581//581 582//582
f 678//678 582//582 583//583
f 678//678 583//583 679//679
f 679//679 583//583 584//584
f 679//679 584//584 680//680
f 680//680 584//584 585//585
f 680//680 585//585 681//681
f 681//681 585//585 586//586
f 681//681 586//586 682//682
f 682//682 586//586 587//587
f 677//677 582//582 678//678
f 695//695 599//599 600//600
f 695//695 600//600 696//696
f 696//696 600//600 601//601
f 709//709 614//614 710//710
f 710//710 614//614 615//615
f 710//710 615//615 711//711
f 711//711 615//615 616//616
f 711//711 616//616 712//712
f 712//712 616//616 617//617
f 712//712 617//617 713//713
f 713//713 617//617 618//618
f 713//713 618//618 714//714
f 709//709 613//613 614//614
f 714//714 618//618 619//619
f 715//715 619//619 620//620
f 715//715 620//620 716//716
f 716//716 620//620 621//621
f 716//716 621//621 717//717
f 717//717 621//621 622//622
f 717//717 622//622 718//718
f 718//718 622//622 623//623
f 718//718 623//623 719//719
f 719//719 623//623 624//624
f 714//714 619//619 715//715
f 708//708 613//613 709//709
f 708//708 612//612 613//613
f 707//707 612//612 708//708
f 697//697 601//601 602//602
f 697//697 602//602 698//698
f 698//698 602//602 603//603
f 698//698 603//603 699//699
f 699//699 603//603 604//604
f 699//699 604//604 700//700
f 700//700 604//604 605//605
f 700//700 605//605 701//701
f 701//701 605//605 606//606
f 701//701 606//606 702//702
f 702//702 606//606 607//607
f 702//702 607//607 703//703
f 703//703 607//607 608//608
f 703//703 608//608 704//704
f 704//704 608//608 609//609
f 704//704 609//609 705//705
f 705//705 609//609 610//610
f 705//705 610//610 706//706
f 706//706 610//610 611//611
f 706//706 611//611 707//707
f 707//707 611//611 612//612
f 720//720 624//624 625//625
f 768//768 577//577 673//673
