# Independent procedural camera geometry; meters; Z up
o battery_base
v -0.0166023000 0.0350200000 0.0046080000
v -0.0166023000 0.0349661988 0.0051542529
v -0.0166023000 0.0348068627 0.0056795136
v -0.0166023000 0.0345481149 0.0061635967
v -0.0166023000 0.0341998990 0.0065878990
v -0.0166023000 0.0337755967 0.0069361149
v -0.0166023000 0.0332915136 0.0071948627
v -0.0166023000 0.0327662529 0.0073541988
v -0.0166023000 -0.0322200000 0.0074080000
v -0.0166023000 -0.0327662529 0.0073541988
v -0.0166023000 -0.0332915136 0.0071948627
v -0.0166023000 -0.0337755967 0.0069361149
v -0.0166023000 -0.0341998990 0.0065878990
v -0.0166023000 -0.0345481149 0.0061635967
v -0.0166023000 -0.0348068627 0.0056795136
v -0.0166023000 -0.0349661988 0.0051542529
v -0.0166023000 -0.0350200000 0.0036480000
v -0.0166023000 -0.0349661988 0.0031017471
v -0.0166023000 -0.0348068627 0.0025764864
v -0.0166023000 -0.0345481149 0.0020924033
v -0.0166023000 -0.0341998990 0.0016681010
v -0.0166023000 -0.0337755967 0.0013198851
v -0.0166023000 -0.0332915136 0.0010611373
v -0.0166023000 -0.0327662529 0.0009018012
v -0.0166023000 0.0322200000 0.0008480000
v -0.0166023000 0.0327662529 0.0009018012
v -0.0166023000 0.0332915136 0.0010611373
v -0.0166023000 0.0337755967 0.0013198851
v -0.0166023000 0.0341998990 0.0016681010
v -0.0166023000 0.0345481149 0.0020924033
v -0.0166023000 0.0348068627 0.0025764864
v -0.0166023000 0.0349661988 0.0031017471
v -0.0158023000 0.0358200000 0.0046080000
v -0.0158023000 0.0357508270 0.0053103252
v -0.0158023000 0.0355459663 0.0059856604
v -0.0158023000 0.0352132906 0.0066080528
v -0.0158023000 0.0347655844 0.0071535844
v -0.0158023000 0.0342200528 0.0076012906
v -0.0158023000 0.0335976604 0.0079339663
v -0.0158023000 0.0329223252 0.0081388270
v -0.0158023000 -0.0322200000 0.0082080000
v -0.0158023000 -0.0329223252 0.0081388270
v -0.0158023000 -0.0335976604 0.0079339663
v -0.0158023000 -0.0342200528 0.0076012906
v -0.0158023000 -0.0347655844 0.0071535844
v -0.0158023000 -0.0352132906 0.0066080528
v -0.0158023000 -0.0355459663 0.0059856604
v -0.0158023000 -0.0357508270 0.0053103252
v -0.0158023000 -0.0358200000 0.0036480000
v -0.0158023000 -0.0357508270 0.0029456748
v -0.0158023000 -0.0355459663 0.0022703396
v -0.0158023000 -0.0352132906 0.0016479472
v -0.0158023000 -0.0347655844 0.0011024156
v -0.0158023000 -0.0342200528 0.0006547094
v -0.0158023000 -0.0335976604 0.0003220337
v -0.0158023000 -0.0329223252 0.0001171730
v -0.0158023000 0.0322200000 0.0000480000
v -0.0158023000 0.0329223252 0.0001171730
v -0.0158023000 0.0335976604 0.0003220337
v -0.0158023000 0.0342200528 0.0006547094
v -0.0158023000 0.0347655844 0.0011024156
v -0.0158023000 0.0352132906 0.0016479472
v -0.0158023000 0.0355459663 0.0022703396
v -0.0158023000 0.0357508270 0.0029456748
v 0.0158023000 0.0358200000 0.0046080000
v 0.0158023000 0.0357508270 0.0053103252
v 0.0158023000 0.0355459663 0.0059856604
v 0.0158023000 0.0352132906 0.0066080528
v 0.0158023000 0.0347655844 0.0071535844
v 0.0158023000 0.0342200528 0.0076012906
v 0.0158023000 0.0335976604 0.0079339663
v 0.0158023000 0.0329223252 0.0081388270
v 0.0158023000 -0.0322200000 0.0082080000
v 0.0158023000 -0.0329223252 0.0081388270
v 0.0158023000 -0.0335976604 0.0079339663
v 0.0158023000 -0.0342200528 0.0076012906
v 0.0158023000 -0.0347655844 0.0071535844
v 0.0158023000 -0.0352132906 0.0066080528
v 0.0158023000 -0.0355459663 0.0059856604
v 0.0158023000 -0.0357508270 0.0053103252
v 0.0158023000 -0.0358200000 0.0036480000
v 0.0158023000 -0.0357508270 0.0029456748
v 0.0158023000 -0.0355459663 0.0022703396
v 0.0158023000 -0.0352132906 0.0016479472
v 0.0158023000 -0.0347655844 0.0011024156
v 0.0158023000 -0.0342200528 0.0006547094
v 0.0158023000 -0.0335976604 0.0003220337
v 0.0158023000 -0.0329223252 0.0001171730
v 0.0158023000 0.0322200000 0.0000480000
v 0.0158023000 0.0329223252 0.0001171730
v 0.0158023000 0.0335976604 0.0003220337
v 0.0158023000 0.0342200528 0.0006547094
v 0.0158023000 0.0347655844 0.0011024156
v 0.0158023000 0.0352132906 0.0016479472
v 0.0158023000 0.0355459663 0.0022703396
v 0.0158023000 0.0357508270 0.0029456748
v 0.0166023000 0.0350200000 0.0046080000
v 0.0166023000 0.0349661988 0.0051542529
v 0.0166023000 0.0348068627 0.0056795136
v 0.0166023000 0.0345481149 0.0061635967
v 0.0166023000 0.0341998990 0.0065878990
v 0.0166023000 0.0337755967 0.0069361149
v 0.0166023000 0.0332915136 0.0071948627
v 0.0166023000 0.0327662529 0.0073541988
v 0.0166023000 -0.0322200000 0.0074080000
v 0.0166023000 -0.0327662529 0.0073541988
v 0.0166023000 -0.0332915136 0.0071948627
v 0.0166023000 -0.0337755967 0.0069361149
v 0.0166023000 -0.0341998990 0.0065878990
v 0.0166023000 -0.0345481149 0.0061635967
v 0.0166023000 -0.0348068627 0.0056795136
v 0.0166023000 -0.0349661988 0.0051542529
v 0.0166023000 -0.0350200000 0.0036480000
v 0.0166023000 -0.0349661988 0.0031017471
v 0.0166023000 -0.0348068627 0.0025764864
v 0.0166023000 -0.0345481149 0.0020924033
v 0.0166023000 -0.0341998990 0.0016681010
v 0.0166023000 -0.0337755967 0.0013198851
v 0.0166023000 -0.0332915136 0.0010611373
v 0.0166023000 -0.0327662529 0.0009018012
v 0.0166023000 0.0322200000 0.0008480000
v 0.0166023000 0.0327662529 0.0009018012
v 0.0166023000 0.0332915136 0.0010611373
v 0.0166023000 0.0337755967 0.0013198851
v 0.0166023000 0.0341998990 0.0016681010
v 0.0166023000 0.0345481149 0.0020924033
v 0.0166023000 0.0348068627 0.0025764864
v 0.0166023000 0.0349661988 0.0031017471
vn -0.91801205 0.39634669 0.01277458
vn -0.91532176 0.39498512 0.07856742
vn -0.91532176 0.37206784 0.15411555
vn -0.91532176 0.33485221 0.22374110
vn -0.91532176 0.28476840 0.28476840
vn -0.91532176 0.22374110 0.33485221
vn -0.91532176 0.15411555 0.37206784
vn -0.91087710 0.05932419 0.40839143
vn -0.91946411 -0.01956963 0.39268662
vn -0.91532176 -0.07856742 0.39498512
vn -0.91532176 -0.15411555 0.37206784
vn -0.91532176 -0.22374110 0.33485221
vn -0.91532176 -0.28476840 0.28476840
vn -0.91532176 -0.33485221 0.22374110
vn -0.91532176 -0.37206784 0.15411555
vn -0.91275813 -0.40294148 0.06716220
vn -0.91801205 -0.39634669 -0.01277458
vn -0.91532176 -0.39498512 -0.07856742
vn -0.91532176 -0.37206784 -0.15411555
vn -0.91532176 -0.33485221 -0.22374110
vn -0.91532176 -0.28476840 -0.28476840
vn -0.91532176 -0.22374110 -0.33485221
vn -0.91532176 -0.15411555 -0.37206784
vn -0.91087710 -0.05932419 -0.40839143
vn -0.91946411 0.01956963 -0.39268662
vn -0.91532176 0.07856742 -0.39498512
vn -0.91532176 0.15411555 -0.37206784
vn -0.91532176 0.22374110 -0.33485221
vn -0.91532176 0.28476840 -0.28476840
vn -0.91532176 0.33485221 -0.22374110
vn -0.91532176 0.37206784 -0.15411555
vn -0.91275813 0.40294148 -0.06716220
vn -0.37618585 0.92616448 0.02652455
vn -0.37448906 0.90941484 0.18089386
vn -0.37448906 0.85665005 0.35483607
vn -0.37448906 0.77096468 0.51514213
vn -0.37448906 0.65565156 0.65565156
vn -0.37448906 0.51514213 0.77096468
vn -0.37448906 0.35483607 0.85665005
vn -0.37040662 0.13785022 0.91858383
vn -0.37819522 -0.04457902 0.92465187
vn -0.37448906 -0.18089386 0.90941484
vn -0.37448906 -0.35483607 0.85665005
vn -0.37448906 -0.51514213 0.77096468
vn -0.37448906 -0.65565156 0.65565156
vn -0.37448906 -0.77096468 0.51514213
vn -0.37448906 -0.85665005 0.35483607
vn -0.37214741 -0.91500478 0.15579653
vn -0.37618585 -0.92616448 -0.02652455
vn -0.37448906 -0.90941484 -0.18089386
vn -0.37448906 -0.85665005 -0.35483607
vn -0.37448906 -0.77096468 -0.51514213
vn -0.37448906 -0.65565156 -0.65565156
vn -0.37448906 -0.51514213 -0.77096468
vn -0.37448906 -0.35483607 -0.85665005
vn -0.37040662 -0.13785022 -0.91858383
vn -0.37819522 0.04457902 -0.92465187
vn -0.37448906 0.18089386 -0.90941484
vn -0.37448906 0.35483607 -0.85665005
vn -0.37448906 0.51514213 -0.77096468
vn -0.37448906 0.65565156 -0.65565156
vn -0.37448906 0.77096468 -0.51514213
vn -0.37448906 0.85665005 -0.35483607
vn -0.37214741 0.91500478 -0.15579653
vn 0.37618585 0.92616448 0.02652455
vn 0.37448906 0.90941484 0.18089386
vn 0.37448906 0.85665005 0.35483607
vn 0.37448906 0.77096468 0.51514213
vn 0.37448906 0.65565156 0.65565156
vn 0.37448906 0.51514213 0.77096468
vn 0.37448906 0.35483607 0.85665005
vn 0.37040662 0.13785022 0.91858383
vn 0.37819522 -0.04457902 0.92465187
vn 0.37448906 -0.18089386 0.90941484
vn 0.37448906 -0.35483607 0.85665005
vn 0.37448906 -0.51514213 0.77096468
vn 0.37448906 -0.65565156 0.65565156
vn 0.37448906 -0.77096468 0.51514213
vn 0.37448906 -0.85665005 0.35483607
vn 0.37214741 -0.91500478 0.15579653
vn 0.37618585 -0.92616448 -0.02652455
vn 0.37448906 -0.90941484 -0.18089386
vn 0.37448906 -0.85665005 -0.35483607
vn 0.37448906 -0.77096468 -0.51514213
vn 0.37448906 -0.65565156 -0.65565156
vn 0.37448906 -0.51514213 -0.77096468
vn 0.37448906 -0.35483607 -0.85665005
vn 0.37040662 -0.13785022 -0.91858383
vn 0.37819522 0.04457902 -0.92465187
vn 0.37448906 0.18089386 -0.90941484
vn 0.37448906 0.35483607 -0.85665005
vn 0.37448906 0.51514213 -0.77096468
vn 0.37448906 0.65565156 -0.65565156
vn 0.37448906 0.77096468 -0.51514213
vn 0.37448906 0.85665005 -0.35483607
vn 0.37214741 0.91500478 -0.15579653
vn 0.91801205 0.39634669 0.01277458
vn 0.91532176 0.39498512 0.07856742
vn 0.91532176 0.37206784 0.15411555
vn 0.91532176 0.33485221 0.22374110
vn 0.91532176 0.28476840 0.28476840
vn 0.91532176 0.22374110 0.33485221
vn 0.91532176 0.15411555 0.37206784
vn 0.91087710 0.05932419 0.40839143
vn 0.91946411 -0.01956963 0.39268662
vn 0.91532176 -0.07856742 0.39498512
vn 0.91532176 -0.15411555 0.37206784
vn 0.91532176 -0.22374110 0.33485221
vn 0.91532176 -0.28476840 0.28476840
vn 0.91532176 -0.33485221 0.22374110
vn 0.91532176 -0.37206784 0.15411555
vn 0.91275813 -0.40294148 0.06716220
vn 0.91801205 -0.39634669 -0.01277458
vn 0.91532176 -0.39498512 -0.07856742
vn 0.91532176 -0.37206784 -0.15411555
vn 0.91532176 -0.33485221 -0.22374110
vn 0.91532176 -0.28476840 -0.28476840
vn 0.91532176 -0.22374110 -0.33485221
vn 0.91532176 -0.15411555 -0.37206784
vn 0.91087710 -0.05932419 -0.40839143
vn 0.91946411 0.01956963 -0.39268662
vn 0.91532176 0.07856742 -0.39498512
vn 0.91532176 0.15411555 -0.37206784
vn 0.91532176 0.22374110 -0.33485221
vn 0.91532176 0.28476840 -0.28476840
vn 0.91532176 0.33485221 -0.22374110
vn 0.91532176 0.37206784 -0.15411555
vn 0.91275813 0.40294148 -0.06716220
f 41//41 40//40 8//8
f 56//56 24//24 57//57
f 57//57 24//24 25//25
f 41//41 8//8 9//9
f 88//88 89//89 120//120
f 89//89 121//121 120//120
f 104//104 72//72 73//73
f 1//1 33//33 32//32
f 64//64 32//32 33//33
f 128//128 65//65 97//97
f 49//49 16//16 17//17
f 105//105 104//104 73//73
f 65//65 128//128 96//96
f 48//48 16//16 49//49
f 112//112 80//80 81//81
f 113//113 112//112 81//81
f 56//56 89//89 88//88
f 57//57 89//89 56//56
f 41//41 73//73 72//72
f 72//72 40//40 41//41
f 58//58 89//89 57//57
f 58//58 90//90 89//89
f 30//30 61//61 29//29
f 62//62 61//61 30//30
f 41//41 9//9 10//10
f 10//10 42//42 41//41
f 10//10 11//11 43//43
f 43//43 42//42 10//10
f 21//21 54//54 53//53
f 21//21 22//22 54//54
f 24//24 56//56 23//23
f 56//56 55//55 23//23
f 54//54 22//22 23//23
f 23//23 55//55 54//54
f 33//33 65//65 96//96
f 96//96 64//64 33//33
f 63//63 30//30 31//31
f 62//62 30//30 63//63
f 31//31 32//32 63//63
f 32//32 64//64 63//63
f 89//89 90//90 122//122
f 122//122 121//121 89//89
f 27//27 59//59 26//26
f 59//59 58//58 26//26
f 26//26 58//58 57//57
f 57//57 25//25 26//26
f 87//87 56//56 88//88
f 87//87 55//55 56//56
f 54//54 55//55 87//87
f 87//87 86//86 54//54
f 51//51 52//52 84//84
f 83//83 51//51 84//84
f 40//40 72//72 39//39
f 72//72 71//71 39//39
f 39//39 7//7 8//8
f 39//39 8//8 40//40
f 103//103 71//71 72//72
f 72//72 104//104 103//103
f 5//5 37//37 4//4
f 37//37 36//36 4//4
f 35//35 4//4 36//36
f 3//3 4//4 35//35
f 15//15 46//46 14//14
f 15//15 47//47 46//46
f 48//48 15//15 16//16
f 47//47 15//15 48//48
f 14//14 46//46 13//13
f 46//46 45//45 13//13
f 74//74 73//73 41//41
f 41//41 42//42 74//74
f 62//62 63//63 95//95
f 95//95 94//94 62//62
f 64//64 96//96 95//95
f 95//95 63//63 64//64
f 27//27 28//28 60//60
f 60//60 59//59 27//27
f 29//29 61//61 60//60
f 60//60 28//28 29//29
f 93//93 61//61 62//62
f 62//62 94//94 93//93
f 93//93 60//60 61//61
f 92//92 60//60 93//93
f 123//123 122//122 91//91
f 91//91 122//122 90//90
f 91//91 124//124 123//123
f 91//91 92//92 124//124
f 90//90 58//58 91//91
f 91//91 58//58 59//59
f 59//59 60//60 91//91
f 91//91 60//60 92//92
f 20//20 52//52 51//51
f 20//20 51//51 19//19
f 20//20 21//21 53//53
f 53//53 52//52 20//20
f 50//50 82//82 81//81
f 50//50 81//81 49//49
f 50//50 51//51 83//83
f 83//83 82//82 50//50
f 17//17 18//18 50//50
f 49//49 17//17 50//50
f 50//50 18//18 19//19
f 19//19 51//51 50//50
f 85//85 118//118 117//117
f 86//86 118//118 85//85
f 53//53 54//54 85//85
f 54//54 86//86 85//85
f 85//85 84//84 52//52
f 85//85 52//52 53//53
f 1//1 2//2 34//34
f 34//34 33//33 1//1
f 34//34 2//2 3//3
f 3//3 35//35 34//34
f 38//38 39//39 71//71
f 71//71 70//70 38//38
f 5//5 6//6 38//38
f 38//38 37//37 5//5
f 38//38 6//6 7//7
f 7//7 39//39 38//38
f 71//71 103//103 102//102
f 102//102 70//70 71//71
f 49//49 81//81 80//80
f 80//80 48//48 49//49
f 94//94 95//95 127//127
f 127//127 126//126 94//94
f 127//127 95//95 96//96
f 127//127 96//96 128//128
f 125//125 93//93 94//94
f 94//94 126//126 125//125
f 92//92 93//93 125//125
f 124//124 92//92 125//125
f 116//116 85//85 117//117
f 84//84 85//85 116//116
f 83//83 84//84 116//116
f 116//116 115//115 83//83
f 114//114 82//82 83//83
f 83//83 115//115 114//114
f 119//119 87//87 88//88
f 88//88 120//120 119//119
f 86//86 87//87 119//119
f 119//119 118//118 86//86
f 24//24 23//23 12//12
f 1//1 32//32 12//12
f 12//12 25//25 24//24
f 12//12 15//15 14//14
f 12//12 9//9 8//8
f 12//12 28//28 27//27
f 31//31 30//30 12//12
f 8//8 7//7 12//12
f 19//19 18//18 12//12
f 14//14 13//13 12//12
f 12//12 32//32 31//31
f 27//27 26//26 12//12
f 12//12 2//2 1//1
f 12//12 6//6 5//5
f 5//5 4//4 12//12
f 12//12 10//10 9//9
f 12//12 30//30 29//29
f 3//3 2//2 12//12
f 7//7 6//6 12//12
f 12//12 17//17 16//16
f 11//11 10//10 12//12
f 22//22 21//21 12//12
f 12//12 23//23 22//22
f 29//29 28//28 12//12
f 12//12 26//26 25//25
f 12//12 4//4 3//3
f 12//12 18//18 17//17
f 16//16 15//15 12//12
f 12//12 20//20 19//19
f 21//21 20//20 12//12
f 43//43 11//11 12//12
f 12//12 44//44 43//43
f 12//12 13//13 45//45
f 45//45 44//44 12//12
f 73//73 74//74 106//106
f 106//106 105//105 73//73
f 79//79 111//111 110//110
f 110//110 78//78 79//79
f 46//46 47//47 79//79
f 79//79 78//78 46//46
f 47//47 48//48 79//79
f 48//48 80//80 79//79
f 111//111 79//79 112//112
f 112//112 79//79 80//80
f 69//69 102//102 101//101
f 70//70 102//102 69//69
f 101//101 100//100 69//69
f 100//100 68//68 69//69
f 69//69 38//38 70//70
f 37//37 38//38 69//69
f 69//69 36//36 37//37
f 69//69 68//68 36//36
f 66//66 98//98 97//97
f 97//97 65//65 66//66
f 66//66 65//65 33//33
f 33//33 34//34 66//66
f 81//81 82//82 113//113
f 82//82 114//114 113//113
f 67//67 100//100 99//99
f 67//67 68//68 100//100
f 99//99 98//98 67//67
f 98//98 66//66 67//67
f 67//67 35//35 36//36
f 36//36 68//68 67//67
f 67//67 34//34 35//35
f 67//67 66//66 34//34
f 108//108 120//120 121//121
f 121//121 122//122 108//108
f 108//108 128//128 97//97
f 126//126 127//127 108//108
f 108//108 125//125 126//126
f 105//105 106//106 108//108
f 104//104 105//105 108//108
f 110//110 111//111 108//108
f 108//108 103//103 104//104
f 101//101 102//102 108//108
f 123//123 124//124 108//108
f 108//108 122//122 123//123
f 108//108 114//114 115//115
f 108//108 100//100 101//101
f 97//97 98//98 108//108
f 108//108 98//98 99//99
f 108//108 116//116 117//117
f 117//117 118//118 108//108
f 99//99 100//100 108//108
f 108//108 102//102 103//103
f 108//108 119//119 120//120
f 108//108 127//127 128//128
f 124//124 125//125 108//108
f 115//115 116//116 108//108
f 108//108 109//109 110//110
f 118//118 119//119 108//108
f 108//108 106//106 107//107
f 108//108 113//113 114//114
f 111//111 112//112 108//108
f 112//112 113//113 108//108
f 110//110 109//109 77//77
f 77//77 78//78 110//110
f 109//109 108//108 77//77
f 77//77 108//108 76//76
f 77//77 45//45 46//46
f 46//46 78//78 77//77
f 77//77 44//44 45//45
f 77//77 76//76 44//44
f 75//75 42//42 43//43
f 75//75 74//74 42//42
f 43//43 44//44 75//75
f 44//44 76//76 75//75
f 107//107 106//106 75//75
f 75//75 106//106 74//74
f 75//75 108//108 107//107
f 76//76 108//108 75//75
