# Independent procedural camera geometry; meters; Z up
o core_display
v -0.0167000000 -0.0287800000 0.0375000000
v -0.0167000000 -0.0287630910 0.0376716795
v -0.0167000000 -0.0287130140 0.0378367614
v -0.0167000000 -0.0286316933 0.0379889018
v -0.0167000000 -0.0285222540 0.0381222540
v -0.0167000000 -0.0283889018 0.0382316933
v -0.0167000000 -0.0282367614 0.0383130140
v -0.0167000000 -0.0280716795 0.0383630910
v -0.0167000000 -0.0066600000 0.0383800000
v -0.0167000000 -0.0064883205 0.0383630910
v -0.0167000000 -0.0063232386 0.0383130140
v -0.0167000000 -0.0061710982 0.0382316933
v -0.0167000000 -0.0060377460 0.0381222540
v -0.0167000000 -0.0059283067 0.0379889018
v -0.0167000000 -0.0058469860 0.0378367614
v -0.0167000000 -0.0057969090 0.0376716795
v -0.0167000000 -0.0057800000 0.0162600000
v -0.0167000000 -0.0057969090 0.0160883205
v -0.0167000000 -0.0058469860 0.0159232386
v -0.0167000000 -0.0059283067 0.0157710982
v -0.0167000000 -0.0060377460 0.0156377460
v -0.0167000000 -0.0061710982 0.0155283067
v -0.0167000000 -0.0063232386 0.0154469860
v -0.0167000000 -0.0064883205 0.0153969090
v -0.0167000000 -0.0279000000 0.0153800000
v -0.0167000000 -0.0280716795 0.0153969090
v -0.0167000000 -0.0282367614 0.0154469860
v -0.0167000000 -0.0283889018 0.0155283067
v -0.0167000000 -0.0285222540 0.0156377460
v -0.0167000000 -0.0286316933 0.0157710982
v -0.0167000000 -0.0287130140 0.0159232386
v -0.0167000000 -0.0287630910 0.0160883205
v -0.0167200000 -0.0288000000 0.0375000000
v -0.0167200000 -0.0287827068 0.0376755813
v -0.0167200000 -0.0287314916 0.0378444151
v -0.0167200000 -0.0286483227 0.0380000132
v -0.0167200000 -0.0285363961 0.0381363961
v -0.0167200000 -0.0284000132 0.0382483227
v -0.0167200000 -0.0282444151 0.0383314916
v -0.0167200000 -0.0280755813 0.0383827068
v -0.0167200000 -0.0066600000 0.0384000000
v -0.0167200000 -0.0064844187 0.0383827068
v -0.0167200000 -0.0063155849 0.0383314916
v -0.0167200000 -0.0061599868 0.0382483227
v -0.0167200000 -0.0060236039 0.0381363961
v -0.0167200000 -0.0059116773 0.0380000132
v -0.0167200000 -0.0058285084 0.0378444151
v -0.0167200000 -0.0057772932 0.0376755813
v -0.0167200000 -0.0057600000 0.0162600000
v -0.0167200000 -0.0057772932 0.0160844187
v -0.0167200000 -0.0058285084 0.0159155849
v -0.0167200000 -0.0059116773 0.0157599868
v -0.0167200000 -0.0060236039 0.0156236039
v -0.0167200000 -0.0061599868 0.0155116773
v -0.0167200000 -0.0063155849 0.0154285084
v -0.0167200000 -0.0064844187 0.0153772932
v -0.0167200000 -0.0279000000 0.0153600000
v -0.0167200000 -0.0280755813 0.0153772932
v -0.0167200000 -0.0282444151 0.0154285084
v -0.0167200000 -0.0284000132 0.0155116773
v -0.0167200000 -0.0285363961 0.0156236039
v -0.0167200000 -0.0286483227 0.0157599868
v -0.0167200000 -0.0287314916 0.0159155849
v -0.0167200000 -0.0287827068 0.0160844187
v -0.0167600000 -0.0288000000 0.0375000000
v -0.0167600000 -0.0287827068 0.0376755813
v -0.0167600000 -0.0287314916 0.0378444151
v -0.0167600000 -0.0286483227 0.0380000132
v -0.0167600000 -0.0285363961 0.0381363961
v -0.0167600000 -0.0284000132 0.0382483227
v -0.0167600000 -0.0282444151 0.0383314916
v -0.0167600000 -0.0280755813 0.0383827068
v -0.0167600000 -0.0066600000 0.0384000000
v -0.0167600000 -0.0064844187 0.0383827068
v -0.0167600000 -0.0063155849 0.0383314916
v -0.0167600000 -0.0061599868 0.0382483227
v -0.0167600000 -0.0060236039 0.0381363961
v -0.0167600000 -0.0059116773 0.0380000132
v -0.0167600000 -0.0058285084 0.0378444151
v -0.0167600000 -0.0057772932 0.0376755813
v -0.0167600000 -0.0057600000 0.0162600000
v -0.0167600000 -0.0057772932 0.0160844187
v -0.0167600000 -0.0058285084 0.0159155849
v -0.0167600000 -0.0059116773 0.0157599868
v -0.0167600000 -0.0060236039 0.0156236039
v -0.0167600000 -0.0061599868 0.0155116773
v -0.0167600000 -0.0063155849 0.0154285084
v -0.0167600000 -0.0064844187 0.0153772932
v -0.0167600000 -0.0279000000 0.0153600000
v -0.0167600000 -0.0280755813 0.0153772932
v -0.0167600000 -0.0282444151 0.0154285084
v -0.0167600000 -0.0284000132 0.0155116773
v -0.0167600000 -0.0285363961 0.0156236039
v -0.0167600000 -0.0286483227 0.0157599868
v -0.0167600000 -0.0287314916 0.0159155849
v -0.0167600000 -0.0287827068 0.0160844187
v -0.0167800000 -0.0287800000 0.0375000000
v -0.0167800000 -0.0287630910 0.0376716795
v -0.0167800000 -0.0287130140 0.0378367614
v -0.0167800000 -0.0286316933 0.0379889018
v -0.0167800000 -0.0285222540 0.0381222540
v -0.0167800000 -0.0283889018 0.0382316933
v -0.0167800000 -0.0282367614 0.0383130140
v -0.0167800000 -0.0280716795 0.0383630910
v -0.0167800000 -0.0066600000 0.0383800000
v -0.0167800000 -0.0064883205 0.0383630910
v -0.0167800000 -0.0063232386 0.0383130140
v -0.0167800000 -0.0061710982 0.0382316933
v -0.0167800000 -0.0060377460 0.0381222540
v -0.0167800000 -0.0059283067 0.0379889018
v -0.0167800000 -0.0058469860 0.0378367614
v -0.0167800000 -0.0057969090 0.0376716795
v -0.0167800000 -0.0057800000 0.0162600000
v -0.0167800000 -0.0057969090 0.0160883205
v -0.0167800000 -0.0058469860 0.0159232386
v -0.0167800000 -0.0059283067 0.0157710982
v -0.0167800000 -0.0060377460 0.0156377460
v -0.0167800000 -0.0061710982 0.0155283067
v -0.0167800000 -0.0063232386 0.0154469860
v -0.0167800000 -0.0064883205 0.0153969090
v -0.0167800000 -0.0279000000 0.0153800000
v -0.0167800000 -0.0280716795 0.0153969090
v -0.0167800000 -0.0282367614 0.0154469860
v -0.0167800000 -0.0283889018 0.0155283067
v -0.0167800000 -0.0285222540 0.0156377460
v -0.0167800000 -0.0286316933 0.0157710982
v -0.0167800000 -0.0287130140 0.0159232386
v -0.0167800000 -0.0287630910 0.0160883205
vn 0.91946568 -0.39268258 0.01957694
vn 0.91532176 -0.39498512 0.07856742
vn 0.91532176 -0.37206784 0.15411555
vn 0.91532176 -0.33485221 0.22374110
vn 0.91532176 -0.28476840 0.28476840
vn 0.91532176 -0.22374110 0.33485221
vn 0.91532176 -0.15411555 0.37206784
vn 0.91086496 -0.05927142 0.40842616
vn 0.91946568 0.01957694 0.39268258
vn 0.91532176 0.07856742 0.39498512
vn 0.91532176 0.15411555 0.37206784
vn 0.91532176 0.22374110 0.33485221
vn 0.91532176 0.28476840 0.28476840
vn 0.91532176 0.33485221 0.22374110
vn 0.91532176 0.37206784 0.15411555
vn 0.91086496 0.40842616 0.05927142
vn 0.91946568 0.39268258 -0.01957694
vn 0.91532176 0.39498512 -0.07856742
vn 0.91532176 0.37206784 -0.15411555
vn 0.91532176 0.33485221 -0.22374110
vn 0.91532176 0.28476840 -0.28476840
vn 0.91532176 0.22374110 -0.33485221
vn 0.91532176 0.15411555 -0.37206784
vn 0.91086496 0.05927142 -0.40842616
vn 0.91946568 -0.01957694 -0.39268258
vn 0.91532176 -0.07856742 -0.39498512
vn 0.91532176 -0.15411555 -0.37206784
vn 0.91532176 -0.22374110 -0.33485221
vn 0.91532176 -0.28476840 -0.28476840
vn 0.91532176 -0.33485221 -0.22374110
vn 0.91532176 -0.37206784 -0.15411555
vn 0.91086496 -0.40842616 -0.05927142
vn 0.37822788 -0.92463482 0.04465559
vn 0.37448906 -0.90941484 0.18089386
vn 0.37448906 -0.85665005 0.35483607
vn 0.37448906 -0.77096468 0.51514213
vn 0.37448906 -0.65565156 0.65565156
vn 0.37448906 -0.51514213 0.77096468
vn 0.37448906 -0.35483607 0.85665005
vn 0.37039554 -0.13773765 0.91860518
vn 0.37822788 0.04465559 0.92463482
vn 0.37448906 0.18089386 0.90941484
vn 0.37448906 0.35483607 0.85665005
vn 0.37448906 0.51514213 0.77096468
vn 0.37448906 0.65565156 0.65565156
vn 0.37448906 0.77096468 0.51514213
vn 0.37448906 0.85665005 0.35483607
vn 0.37039554 0.91860518 0.13773765
vn 0.37822788 0.92463482 -0.04465559
vn 0.37448906 0.90941484 -0.18089386
vn 0.37448906 0.85665005 -0.35483607
vn 0.37448906 0.77096468 -0.51514213
vn 0.37448906 0.65565156 -0.65565156
vn 0.37448906 0.51514213 -0.77096468
vn 0.37448906 0.35483607 -0.85665005
vn 0.37039554 0.13773765 -0.91860518
vn 0.37822788 -0.04465559 -0.92463482
vn 0.37448906 -0.18089386 -0.90941484
vn 0.37448906 -0.35483607 -0.85665005
vn 0.37448906 -0.51514213 -0.77096468
vn 0.37448906 -0.65565156 -0.65565156
vn 0.37448906 -0.77096468 -0.51514213
vn 0.37448906 -0.85665005 -0.35483607
vn 0.37039554 -0.91860518 -0.13773765
vn -0.37822788 -0.92463482 0.04465559
vn -0.37448906 -0.90941484 0.18089386
vn -0.37448906 -0.85665005 0.35483607
vn -0.37448906 -0.77096468 0.51514213
vn -0.37448906 -0.65565156 0.65565156
vn -0.37448906 -0.51514213 0.77096468
vn -0.37448906 -0.35483607 0.85665005
vn -0.37039554 -0.13773765 0.91860518
vn -0.37822788 0.04465559 0.92463482
vn -0.37448906 0.18089386 0.90941484
vn -0.37448906 0.35483607 0.85665005
vn -0.37448906 0.51514213 0.77096468
vn -0.37448906 0.65565156 0.65565156
vn -0.37448906 0.77096468 0.51514213
vn -0.37448906 0.85665005 0.35483607
vn -0.37039554 0.91860518 0.13773765
vn -0.37822788 0.92463482 -0.04465559
vn -0.37448906 0.90941484 -0.18089386
vn -0.37448906 0.85665005 -0.35483607
vn -0.37448906 0.77096468 -0.51514213
vn -0.37448906 0.65565156 -0.65565156
vn -0.37448906 0.51514213 -0.77096468
vn -0.37448906 0.35483607 -0.85665005
vn -0.37039554 0.13773765 -0.91860518
vn -0.37822788 -0.04465559 -0.92463482
vn -0.37448906 -0.18089386 -0.90941484
vn -0.37448906 -0.35483607 -0.85665005
vn -0.37448906 -0.51514213 -0.77096468
vn -0.37448906 -0.65565156 -0.65565156
vn -0.37448906 -0.77096468 -0.51514213
vn -0.37448906 -0.85665005 -0.35483607
vn -0.37039554 -0.91860518 -0.13773765
vn -0.91946568 -0.39268258 0.01957694
vn -0.91532176 -0.39498512 0.07856742
vn -0.91532176 -0.37206784 0.15411555
vn -0.91532176 -0.33485221 0.22374110
vn -0.91532176 -0.28476840 0.28476840
vn -0.91532176 -0.22374110 0.33485221
vn -0.91532176 -0.15411555 0.37206784
vn -0.91086496 -0.05927142 0.40842616
vn -0.91946568 0.01957694 0.39268258
vn -0.91532176 0.07856742 0.39498512
vn -0.91532176 0.15411555 0.37206784
vn -0.91532176 0.22374110 0.33485221
vn -0.91532176 0.28476840 0.28476840
vn -0.91532176 0.33485221 0.22374110
vn -0.91532176 0.37206784 0.15411555
vn -0.91086496 0.40842616 0.05927142
vn -0.91946568 0.39268258 -0.01957694
vn -0.91532176 0.39498512 -0.07856742
vn -0.91532176 0.37206784 -0.15411555
vn -0.91532176 0.33485221 -0.22374110
vn -0.91532176 0.28476840 -0.28476840
vn -0.91532176 0.22374110 -0.33485221
vn -0.91532176 0.15411555 -0.37206784
vn -0.91086496 0.05927142 -0.40842616
vn -0.91946568 -0.01957694 -0.39268258
vn -0.91532176 -0.07856742 -0.39498512
vn -0.91532176 -0.15411555 -0.37206784
vn -0.91532176 -0.22374110 -0.33485221
vn -0.91532176 -0.28476840 -0.28476840
vn -0.91532176 -0.33485221 -0.22374110
vn -0.91532176 -0.37206784 -0.15411555
vn -0.91086496 -0.40842616 -0.05927142
f 57//57 24//24 25//25
f 128//128 65//65 97//97
f 49//49 16//16 17//17
f 48//48 16//16 49//49
f 1//1 33//33 32//32
f 32//32 33//33 64//64
f 56//56 24//24 57//57
f 81//81 113//113 112//112
f 105//105 104//104 73//73
f 8//8 9//9 41//41
f 40//40 8//8 41//41
f 72//72 73//73 104//104
f 89//89 121//121 120//120
f 120//120 88//88 89//89
f 80//80 81//81 112//112
f 65//65 128//128 96//96
f 72//72 41//41 73//73
f 40//40 41//41 72//72
f 88//88 56//56 89//89
f 89//89 56//56 57//57
f 125//125 93//93 126//126
f 126//126 93//93 94//94
f 127//127 126//126 95//95
f 95//95 126//126 94//94
f 3//3 36//36 35//35
f 4//4 36//36 3//3
f 7//7 8//8 40//40
f 40//40 39//39 7//7
f 37//37 36//36 5//5
f 5//5 36//36 4//4
f 86//86 85//85 54//54
f 54//54 85//85 53//53
f 49//49 81//81 80//80
f 80//80 48//48 49//49
f 16//16 48//48 15//15
f 48//48 47//47 15//15
f 57//57 25//25 26//26
f 26//26 58//58 57//57
f 119//119 88//88 120//120
f 119//119 87//87 88//88
f 6//6 7//7 38//38
f 38//38 7//7 39//39
f 38//38 5//5 6//6
f 37//37 5//5 38//38
f 37//37 38//38 69//69
f 69//69 38//38 70//70
f 40//40 72//72 71//71
f 71//71 39//39 40//40
f 71//71 38//38 39//39
f 70//70 38//38 71//71
f 95//95 63//63 96//96
f 96//96 63//63 64//64
f 128//128 127//127 96//96
f 127//127 95//95 96//96
f 64//64 33//33 96//96
f 33//33 65//65 96//96
f 2//2 33//33 1//1
f 2//2 34//34 33//33
f 2//2 3//3 35//35
f 35//35 34//34 2//2
f 66//66 65//65 33//33
f 33//33 34//34 66//66
f 66//66 98//98 97//97
f 97//97 65//65 66//66
f 66//66 34//34 35//35
f 35//35 67//67 66//66
f 17//17 18//18 50//50
f 49//49 17//17 50//50
f 50//50 81//81 49//49
f 50//50 82//82 81//81
f 21//21 54//54 53//53
f 22//22 54//54 21//21
f 53//53 85//85 52//52
f 52//52 85//85 84//84
f 20//20 21//21 52//52
f 52//52 21//21 53//53
f 86//86 54//54 55//55
f 55//55 87//87 86//86
f 22//22 23//23 55//55
f 55//55 54//54 22//22
f 55//55 56//56 88//88
f 88//88 87//87 55//55
f 55//55 23//23 24//24
f 24//24 56//56 55//55
f 46//46 78//78 77//77
f 45//45 46//46 77//77
f 77//77 110//110 109//109
f 78//78 110//110 77//77
f 79//79 78//78 46//46
f 79//79 46//46 47//47
f 111//111 110//110 79//79
f 79//79 110//110 78//78
f 48//48 80//80 79//79
f 79//79 47//47 48//48
f 112//112 111//111 79//79
f 79//79 80//80 112//112
f 14//14 46//46 45//45
f 45//45 13//13 14//14
f 14//14 15//15 47//47
f 47//47 46//46 14//14
f 105//105 73//73 106//106
f 73//73 74//74 106//106
f 108//108 77//77 109//109
f 76//76 77//77 108//108
f 75//75 108//108 107//107
f 76//76 108//108 75//75
f 107//107 106//106 75//75
f 75//75 106//106 74//74
f 76//76 75//75 44//44
f 44//44 75//75 43//43
f 11//11 12//12 44//44
f 43//43 11//11 44//44
f 45//45 77//77 44//44
f 44//44 77//77 76//76
f 44//44 12//12 13//13
f 44//44 13//13 45//45
f 73//73 41//41 42//42
f 42//42 74//74 73//73
f 9//9 10//10 42//42
f 42//42 41//41 9//9
f 42//42 75//75 74//74
f 43//43 75//75 42//42
f 42//42 10//10 11//11
f 42//42 11//11 43//43
f 92//92 61//61 93//93
f 60//60 61//61 92//92
f 92//92 93//93 125//125
f 125//125 124//124 92//92
f 90//90 89//89 57//57
f 57//57 58//58 90//90
f 90//90 122//122 121//121
f 121//121 89//89 90//90
f 27//27 28//28 60//60
f 60//60 59//59 27//27
f 58//58 26//26 27//27
f 27//27 59//59 58//58
f 64//64 63//63 31//31
f 31//31 32//32 64//64
f 62//62 95//95 94//94
f 62//62 63//63 95//95
f 30//30 31//31 62//62
f 62//62 31//31 63//63
f 94//94 93//93 62//62
f 93//93 61//61 62//62
f 1//1 32//32 29//29
f 29//29 9//9 8//8
f 28//28 27//27 29//29
f 29//29 25//25 24//24
f 29//29 17//17 16//16
f 29//29 18//18 17//17
f 24//24 23//23 29//29
f 29//29 10//10 9//9
f 29//29 26//26 25//25
f 29//29 20//20 19//19
f 13//13 12//12 29//29
f 8//8 7//7 29//29
f 19//19 18//18 29//29
f 29//29 5//5 4//4
f 16//16 15//15 29//29
f 32//32 31//31 29//29
f 4//4 3//3 29//29
f 29//29 7//7 6//6
f 6//6 5//5 29//29
f 29//29 2//2 1//1
f 29//29 23//23 22//22
f 22//22 21//21 29//29
f 29//29 12//12 11//11
f 11//11 10//10 29//29
f 29//29 14//14 13//13
f 3//3 2//2 29//29
f 29//29 21//21 20//20
f 15//15 14//14 29//29
f 29//29 27//27 26//26
f 29//29 31//31 30//30
f 29//29 61//61 60//60
f 60//60 28//28 29//29
f 30//30 62//62 29//29
f 29//29 62//62 61//61
f 118//118 85//85 86//86
f 117//117 85//85 118//118
f 87//87 119//119 118//118
f 86//86 87//87 118//118
f 35//35 36//36 68//68
f 68//68 67//67 35//35
f 68//68 36//36 37//37
f 37//37 69//69 68//68
f 103//103 71//71 72//72
f 103//103 72//72 104//104
f 70//70 71//71 103//103
f 102//102 70//70 103//103
f 84//84 85//85 116//116
f 116//116 85//85 117//117
f 81//81 82//82 114//114
f 113//113 81//81 114//114
f 51//51 18//18 19//19
f 51//51 50//50 18//18
f 19//19 20//20 51//51
f 20//20 52//52 51//51
f 123//123 122//122 91//91
f 122//122 90//90 91//91
f 91//91 90//90 58//58
f 58//58 59//59 91//91
f 91//91 124//124 123//123
f 91//91 92//92 124//124
f 60//60 92//92 91//91
f 91//91 59//59 60//60
f 99//99 66//66 67//67
f 98//98 66//66 99//99
f 83//83 116//116 115//115
f 84//84 116//116 83//83
f 83//83 52//52 84//84
f 83//83 51//51 52//52
f 115//115 114//114 83//83
f 83//83 114//114 82//82
f 82//82 50//50 83//83
f 50//50 51//51 83//83
f 101//101 69//69 70//70
f 101//101 70//70 102//102
f 120//120 121//121 100//100
f 100//100 128//128 97//97
f 97//97 98//98 100//100
f 112//112 113//113 100//100
f 121//121 122//122 100//100
f 109//109 110//110 100//100
f 125//125 126//126 100//100
f 100//100 119//119 120//120
f 100//100 111//111 112//112
f 100//100 104//104 105//105
f 117//117 118//118 100//100
f 100//100 127//127 128//128
f 100//100 116//116 117//117
f 105//105 106//106 100//100
f 100//100 124//124 125//125
f 100//100 126//126 127//127
f 113//113 114//114 100//100
f 123//123 124//124 100//100
f 100//100 122//122 123//123
f 100//100 108//108 109//109
f 100//100 103//103 104//104
f 100//100 110//110 111//111
f 100//100 106//106 107//107
f 107//107 108//108 100//100
f 100//100 118//118 119//119
f 102//102 103//103 100//100
f 115//115 116//116 100//100
f 100//100 114//114 115//115
f 98//98 99//99 100//100
f 100//100 101//101 102//102
f 67//67 68//68 100//100
f 100//100 99//99 67//67
f 100//100 68//68 69//69
f 69//69 101//101 100//100
