# Independent procedural camera geometry; meters; Z up
o core_front_lower_screw_0
v 0.0129480000 -0.0290120000 0.0152000000
v 0.0129480000 -0.0285620000 0.0152000000
v 0.0129480000 -0.0285658498 0.0152587368
v 0.0129480000 -0.0285773334 0.0153164686
v 0.0129480000 -0.0285962542 0.0153722075
v 0.0129480000 -0.0286222886 0.0154250000
v 0.0129480000 -0.0286549910 0.0154739426
v 0.0129480000 -0.0286938019 0.0155181981
v 0.0129480000 -0.0287380574 0.0155570090
v 0.0129480000 -0.0287870000 0.0155897114
v 0.0129480000 -0.0288397925 0.0156157458
v 0.0129480000 -0.0288955314 0.0156346666
v 0.0129480000 -0.0289532632 0.0156461502
v 0.0129480000 -0.0290120000 0.0156500000
v 0.0129480000 -0.0290707368 0.0156461502
v 0.0129480000 -0.0291284686 0.0156346666
v 0.0129480000 -0.0291842075 0.0156157458
v 0.0129480000 -0.0292370000 0.0155897114
v 0.0129480000 -0.0292859426 0.0155570090
v 0.0129480000 -0.0293301981 0.0155181981
v 0.0129480000 -0.0293690090 0.0154739426
v 0.0129480000 -0.0294017114 0.0154250000
v 0.0129480000 -0.0294277458 0.0153722075
v 0.0129480000 -0.0294466666 0.0153164686
v 0.0129480000 -0.0294581502 0.0152587368
v 0.0129480000 -0.0294620000 0.0152000000
v 0.0129480000 -0.0294581502 0.0151412632
v 0.0129480000 -0.0294466666 0.0150835314
v 0.0129480000 -0.0294277458 0.0150277925
v 0.0129480000 -0.0294017114 0.0149750000
v 0.0129480000 -0.0293690090 0.0149260574
v 0.0129480000 -0.0293301981 0.0148818019
v 0.0129480000 -0.0292859426 0.0148429910
v 0.0129480000 -0.0292370000 0.0148102886
v 0.0129480000 -0.0291842075 0.0147842542
v 0.0129480000 -0.0291284686 0.0147653334
v 0.0129480000 -0.0290707368 0.0147538498
v 0.0129480000 -0.0290120000 0.0147500000
v 0.0129480000 -0.0289532632 0.0147538498
v 0.0129480000 -0.0288955314 0.0147653334
v 0.0129480000 -0.0288397925 0.0147842542
v 0.0129480000 -0.0287870000 0.0148102886
v 0.0129480000 -0.0287380574 0.0148429910
v 0.0129480000 -0.0286938019 0.0148818019
v 0.0129480000 -0.0286549910 0.0149260574
v 0.0129480000 -0.0286222886 0.0149750000
v 0.0129480000 -0.0285962542 0.0150277925
v 0.0129480000 -0.0285773334 0.0150835314
v 0.0129480000 -0.0285658498 0.0151412632
v 0.0129480000 -0.0285620000 0.0152000000
v 0.0129480000 -0.0285658498 0.0152587368
v 0.0129480000 -0.0285773334 0.0153164686
v 0.0129480000 -0.0285962542 0.0153722075
v 0.0129480000 -0.0286222886 0.0154250000
v 0.0129480000 -0.0286549910 0.0154739426
v 0.0129480000 -0.0286938019 0.0155181981
v 0.0129480000 -0.0287380574 0.0155570090
v 0.0129480000 -0.0287870000 0.0155897114
v 0.0129480000 -0.0288397925 0.0156157458
v 0.0129480000 -0.0288955314 0.0156346666
v 0.0129480000 -0.0289532632 0.0156461502
v 0.0129480000 -0.0290120000 0.0156500000
v 0.0129480000 -0.0290707368 0.0156461502
v 0.0129480000 -0.0291284686 0.0156346666
v 0.0129480000 -0.0291842075 0.0156157458
v 0.0129480000 -0.0292370000 0.0155897114
v 0.0129480000 -0.0292859426 0.0155570090
v 0.0129480000 -0.0293301981 0.0155181981
v 0.0129480000 -0.0293690090 0.0154739426
v 0.0129480000 -0.0294017114 0.0154250000
v 0.0129480000 -0.0294277458 0.0153722075
v 0.0129480000 -0.0294466666 0.0153164686
v 0.0129480000 -0.0294581502 0.0152587368
v 0.0129480000 -0.0294620000 0.0152000000
v 0.0129480000 -0.0294581502 0.0151412632
v 0.0129480000 -0.0294466666 0.0150835314
v 0.0129480000 -0.0294277458 0.0150277925
v 0.0129480000 -0.0294017114 0.0149750000
v 0.0129480000 -0.0293690090 0.0149260574
v 0.0129480000 -0.0293301981 0.0148818019
v 0.0129480000 -0.0292859426 0.0148429910
v 0.0129480000 -0.0292370000 0.0148102886
v 0.0129480000 -0.0291842075 0.0147842542
v 0.0129480000 -0.0291284686 0.0147653334
v 0.0129480000 -0.0290707368 0.0147538498
v 0.0129480000 -0.0290120000 0.0147500000
v 0.0129480000 -0.0289532632 0.0147538498
v 0.0129480000 -0.0288955314 0.0147653334
v 0.0129480000 -0.0288397925 0.0147842542
v 0.0129480000 -0.0287870000 0.0148102886
v 0.0129480000 -0.0287380574 0.0148429910
v 0.0129480000 -0.0286938019 0.0148818019
v 0.0129480000 -0.0286549910 0.0149260574
v 0.0129480000 -0.0286222886 0.0149750000
v 0.0129480000 -0.0285962542 0.0150277925
v 0.0129480000 -0.0285773334 0.0150835314
v 0.0129480000 -0.0285658498 0.0151412632
v 0.0130280000 -0.0285980000 0.0152000000
v 0.0130280000 -0.0286015418 0.0152540378
v 0.0130280000 -0.0286121067 0.0153071511
v 0.0130280000 -0.0286295139 0.0153584309
v 0.0130280000 -0.0286534655 0.0154070000
v 0.0130280000 -0.0286835517 0.0154520272
v 0.0130280000 -0.0287192578 0.0154927422
v 0.0130280000 -0.0287599728 0.0155284483
v 0.0130280000 -0.0288050000 0.0155585345
v 0.0130280000 -0.0288535691 0.0155824861
v 0.0130280000 -0.0289048489 0.0155998933
v 0.0130280000 -0.0289579622 0.0156104582
v 0.0130280000 -0.0290120000 0.0156140000
v 0.0130280000 -0.0290660378 0.0156104582
v 0.0130280000 -0.0291191511 0.0155998933
v 0.0130280000 -0.0291704309 0.0155824861
v 0.0130280000 -0.0292190000 0.0155585345
v 0.0130280000 -0.0292640272 0.0155284483
v 0.0130280000 -0.0293047422 0.0154927422
v 0.0130280000 -0.0293404483 0.0154520272
v 0.0130280000 -0.0293705345 0.0154070000
v 0.0130280000 -0.0293944861 0.0153584309
v 0.0130280000 -0.0294118933 0.0153071511
v 0.0130280000 -0.0294224582 0.0152540378
v 0.0130280000 -0.0294260000 0.0152000000
v 0.0130280000 -0.0294224582 0.0151459622
v 0.0130280000 -0.0294118933 0.0150928489
v 0.0130280000 -0.0293944861 0.0150415691
v 0.0130280000 -0.0293705345 0.0149930000
v 0.0130280000 -0.0293404483 0.0149479728
v 0.0130280000 -0.0293047422 0.0149072578
v 0.0130280000 -0.0292640272 0.0148715517
v 0.0130280000 -0.0292190000 0.0148414655
v 0.0130280000 -0.0291704309 0.0148175139
v 0.0130280000 -0.0291191511 0.0148001067
v 0.0130280000 -0.0290660378 0.0147895418
v 0.0130280000 -0.0290120000 0.0147860000
v 0.0130280000 -0.0289579622 0.0147895418
v 0.0130280000 -0.0289048489 0.0148001067
v 0.0130280000 -0.0288535691 0.0148175139
v 0.0130280000 -0.0288050000 0.0148414655
v 0.0130280000 -0.0287599728 0.0148715517
v 0.0130280000 -0.0287192578 0.0149072578
v 0.0130280000 -0.0286835517 0.0149479728
v 0.0130280000 -0.0286534655 0.0149930000
v 0.0130280000 -0.0286295139 0.0150415691
v 0.0130280000 -0.0286121067 0.0150928489
v 0.0130280000 -0.0286015418 0.0151459622
v 0.0130280000 -0.0285980000 0.0152000000
v 0.0130280000 -0.0286015418 0.0152540378
v 0.0130280000 -0.0286121067 0.0153071511
v 0.0130280000 -0.0286295139 0.0153584309
v 0.0130280000 -0.0286534655 0.0154070000
v 0.0130280000 -0.0286835517 0.0154520272
v 0.0130280000 -0.0287192578 0.0154927422
v 0.0130280000 -0.0287599728 0.0155284483
v 0.0130280000 -0.0288050000 0.0155585345
v 0.0130280000 -0.0288535691 0.0155824861
v 0.0130280000 -0.0289048489 0.0155998933
v 0.0130280000 -0.0289579622 0.0156104582
v 0.0130280000 -0.0290120000 0.0156140000
v 0.0130280000 -0.0290660378 0.0156104582
v 0.0130280000 -0.0291191511 0.0155998933
v 0.0130280000 -0.0291704309 0.0155824861
v 0.0130280000 -0.0292190000 0.0155585345
v 0.0130280000 -0.0292640272 0.0155284483
v 0.0130280000 -0.0293047422 0.0154927422
v 0.0130280000 -0.0293404483 0.0154520272
v 0.0130280000 -0.0293705345 0.0154070000
v 0.0130280000 -0.0293944861 0.0153584309
v 0.0130280000 -0.0294118933 0.0153071511
v 0.0130280000 -0.0294224582 0.0152540378
v 0.0130280000 -0.0294260000 0.0152000000
v 0.0130280000 -0.0294224582 0.0151459622
v 0.0130280000 -0.0294118933 0.0150928489
v 0.0130280000 -0.0293944861 0.0150415691
v 0.0130280000 -0.0293705345 0.0149930000
v 0.0130280000 -0.0293404483 0.0149479728
v 0.0130280000 -0.0293047422 0.0149072578
v 0.0130280000 -0.0292640272 0.0148715517
v 0.0130280000 -0.0292190000 0.0148414655
v 0.0130280000 -0.0291704309 0.0148175139
v 0.0130280000 -0.0291191511 0.0148001067
v 0.0130280000 -0.0290660378 0.0147895418
v 0.0130280000 -0.0290120000 0.0147860000
v 0.0130280000 -0.0289579622 0.0147895418
v 0.0130280000 -0.0289048489 0.0148001067
v 0.0130280000 -0.0288535691 0.0148175139
v 0.0130280000 -0.0288050000 0.0148414655
v 0.0130280000 -0.0287599728 0.0148715517
v 0.0130280000 -0.0287192578 0.0149072578
v 0.0130280000 -0.0286835517 0.0149479728
v 0.0130280000 -0.0286534655 0.0149930000
v 0.0130280000 -0.0286295139 0.0150415691
v 0.0130280000 -0.0286121067 0.0150928489
v 0.0130280000 -0.0286015418 0.0151459622
v 0.0130280000 -0.0290120000 0.0152000000
vn -1.00000000 0.00000000 0.00000000
vn -1.00000000 0.00000000 0.00000000
vn -1.00000000 0.00000000 0.00000000
vn -1.00000000 0.00000000 0.00000000
vn -1.00000000 0.00000000 0.00000000
vn -1.00000000 0.00000000 0.00000000
vn -1.00000000 0.00000000 0.00000000
vn -1.00000000 0.00000000 0.00000000
vn -1.00000000 0.00000000 0.00000000
vn -1.00000000 0.00000000 0.00000000
vn -1.00000000 0.00000000 0.00000000
vn -1.00000000 0.00000000 0.00000000
vn -1.00000000 0.00000000 0.00000000
vn -1.00000000 0.00000000 0.00000000
vn -1.00000000 0.00000000 0.00000000
vn -1.00000000 0.00000000 0.00000000
vn -1.00000000 0.00000000 0.00000000
vn -1.00000000 0.00000000 0.00000000
vn -1.00000000 0.00000000 0.00000000
vn -1.00000000 0.00000000 0.00000000
vn -1.00000000 0.00000000 0.00000000
vn -1.00000000 0.00000000 0.00000000
vn -1.00000000 0.00000000 0.00000000
vn -1.00000000 0.00000000 0.00000000
vn -1.00000000 0.00000000 0.00000000
vn -1.00000000 0.00000000 0.00000000
vn -1.00000000 0.00000000 0.00000000
vn -1.00000000 0.00000000 0.00000000
vn -1.00000000 0.00000000 0.00000000
vn -1.00000000 0.00000000 0.00000000
vn -1.00000000 0.00000000 0.00000000
vn -1.00000000 0.00000000 0.00000000
vn -1.00000000 0.00000000 0.00000000
vn -1.00000000 0.00000000 0.00000000
vn -1.00000000 0.00000000 0.00000000
vn -1.00000000 0.00000000 0.00000000
vn -1.00000000 0.00000000 0.00000000
vn -1.00000000 0.00000000 0.00000000
vn -1.00000000 0.00000000 0.00000000
vn -1.00000000 0.00000000 0.00000000
vn -1.00000000 0.00000000 0.00000000
vn -1.00000000 0.00000000 0.00000000
vn -1.00000000 0.00000000 0.00000000
vn -1.00000000 0.00000000 0.00000000
vn -1.00000000 0.00000000 0.00000000
vn -1.00000000 0.00000000 0.00000000
vn -1.00000000 0.00000000 0.00000000
vn -1.00000000 0.00000000 0.00000000
vn -1.00000000 0.00000000 0.00000000
vn 0.41036468 0.91192151 -0.00000000
vn 0.41036468 0.90411989 0.11902964
vn 0.41036468 0.88084853 0.23602265
vn 0.41036468 0.84250561 0.34897725
vn 0.41036468 0.78974719 0.45596075
vn 0.41036468 0.72347597 0.55514264
vn 0.41036468 0.64482588 0.64482588
vn 0.41036468 0.55514264 0.72347597
vn 0.41036468 0.45596075 0.78974719
vn 0.41036468 0.34897725 0.84250561
vn 0.41036468 0.23602265 0.88084853
vn 0.41036468 0.11902964 0.90411989
vn 0.41036468 0.00000000 0.91192151
vn 0.41036468 -0.11902964 0.90411989
vn 0.41036468 -0.23602265 0.88084853
vn 0.41036468 -0.34897725 0.84250561
vn 0.41036468 -0.45596075 0.78974719
vn 0.41036468 -0.55514264 0.72347597
vn 0.41036468 -0.64482588 0.64482588
vn 0.41036468 -0.72347597 0.55514264
vn 0.41036468 -0.78974719 0.45596075
vn 0.41036468 -0.84250561 0.34897725
vn 0.41036468 -0.88084853 0.23602265
vn 0.41036468 -0.90411989 0.11902964
vn 0.41036468 -0.91192151 0.00000000
vn 0.41036468 -0.90411989 -0.11902964
vn 0.41036468 -0.88084853 -0.23602265
vn 0.41036468 -0.84250561 -0.34897725
vn 0.41036468 -0.78974719 -0.45596075
vn 0.41036468 -0.72347597 -0.55514264
vn 0.41036468 -0.64482588 -0.64482588
vn 0.41036468 -0.55514264 -0.72347597
vn 0.41036468 -0.45596075 -0.78974719
vn 0.41036468 -0.34897725 -0.84250561
vn 0.41036468 -0.23602265 -0.88084853
vn 0.41036468 -0.11902964 -0.90411989
vn 0.41036468 -0.00000000 -0.91192151
vn 0.41036468 0.11902964 -0.90411989
vn 0.41036468 0.23602265 -0.88084853
vn 0.41036468 0.34897725 -0.84250561
vn 0.41036468 0.45596075 -0.78974719
vn 0.41036468 0.55514264 -0.72347597
vn 0.41036468 0.64482588 -0.64482588
vn 0.41036468 0.72347597 -0.55514264
vn 0.41036468 0.78974719 -0.45596075
vn 0.41036468 0.84250561 -0.34897725
vn 0.41036468 0.88084853 -0.23602265
vn 0.41036468 0.90411989 -0.11902964
vn 0.41036468 0.91192151 -0.00000000
vn 0.41036468 0.90411989 0.11902964
vn 0.41036468 0.88084853 0.23602265
vn 0.41036468 0.84250561 0.34897725
vn 0.41036468 0.78974719 0.45596075
vn 0.41036468 0.72347597 0.55514264
vn 0.41036468 0.64482588 0.64482588
vn 0.41036468 0.55514264 0.72347597
vn 0.41036468 0.45596075 0.78974719
vn 0.41036468 0.34897725 0.84250561
vn 0.41036468 0.23602265 0.88084853
vn 0.41036468 0.11902964 0.90411989
vn 0.41036468 0.00000000 0.91192151
vn 0.41036468 -0.11902964 0.90411989
vn 0.41036468 -0.23602265 0.88084853
vn 0.41036468 -0.34897725 0.84250561
vn 0.41036468 -0.45596075 0.78974719
vn 0.41036468 -0.55514264 0.72347597
vn 0.41036468 -0.64482588 0.64482588
vn 0.41036468 -0.72347597 0.55514264
vn 0.41036468 -0.78974719 0.45596075
vn 0.41036468 -0.84250561 0.34897725
vn 0.41036468 -0.88084853 0.23602265
vn 0.41036468 -0.90411989 0.11902964
vn 0.41036468 -0.91192151 0.00000000
vn 0.41036468 -0.90411989 -0.11902964
vn 0.41036468 -0.88084853 -0.23602265
vn 0.41036468 -0.84250561 -0.34897725
vn 0.41036468 -0.78974719 -0.45596075
vn 0.41036468 -0.72347597 -0.55514264
vn 0.41036468 -0.64482588 -0.64482588
vn 0.41036468 -0.55514264 -0.72347597
vn 0.41036468 -0.45596075 -0.78974719
vn 0.41036468 -0.34897725 -0.84250561
vn 0.41036468 -0.23602265 -0.88084853
vn 0.41036468 -0.11902964 -0.90411989
vn 0.41036468 -0.00000000 -0.91192151
vn 0.41036468 0.11902964 -0.90411989
vn 0.41036468 0.23602265 -0.88084853
vn 0.41036468 0.34897725 -0.84250561
vn 0.41036468 0.45596075 -0.78974719
vn 0.41036468 0.55514264 -0.72347597
vn 0.41036468 0.64482588 -0.64482588
vn 0.41036468 0.72347597 -0.55514264
vn 0.41036468 0.78974719 -0.45596075
vn 0.41036468 0.84250561 -0.34897725
vn 0.41036468 0.88084853 -0.23602265
vn 0.41036468 0.90411989 -0.11902964
vn 1.00000000 0.00000000 0.00000000
vn 1.00000000 0.00000000 0.00000000
vn 1.00000000 0.00000000 0.00000000
vn 1.00000000 0.00000000 0.00000000
vn 1.00000000 0.00000000 0.00000000
vn 1.00000000 0.00000000 0.00000000
vn 1.00000000 0.00000000 0.00000000
vn 1.00000000 0.00000000 0.00000000
vn 1.00000000 0.00000000 0.00000000
vn 1.00000000 0.00000000 0.00000000
vn 1.00000000 0.00000000 0.00000000
vn 1.00000000 0.00000000 0.00000000
vn 1.00000000 0.00000000 0.00000000
vn 1.00000000 0.00000000 0.00000000
vn 1.00000000 0.00000000 0.00000000
vn 1.00000000 0.00000000 0.00000000
vn 1.00000000 0.00000000 0.00000000
vn 1.00000000 0.00000000 0.00000000
vn 1.00000000 0.00000000 0.00000000
vn 1.00000000 0.00000000 0.00000000
vn 1.00000000 0.00000000 0.00000000
vn 1.00000000 0.00000000 0.00000000
vn 1.00000000 0.00000000 0.00000000
vn 1.00000000 0.00000000 0.00000000
vn 1.00000000 0.00000000 0.00000000
vn 1.00000000 0.00000000 0.00000000
vn 1.00000000 0.00000000 0.00000000
vn 1.00000000 0.00000000 0.00000000
vn 1.00000000 0.00000000 0.00000000
vn 1.00000000 0.00000000 0.00000000
vn 1.00000000 0.00000000 0.00000000
vn 1.00000000 0.00000000 0.00000000
vn 1.00000000 0.00000000 0.00000000
vn 1.00000000 0.00000000 0.00000000
vn 1.00000000 0.00000000 0.00000000
vn 1.00000000 0.00000000 0.00000000
vn 1.00000000 0.00000000 0.00000000
vn 1.00000000 0.00000000 0.00000000
vn 1.00000000 0.00000000 0.00000000
vn 1.00000000 0.00000000 0.00000000
vn 1.00000000 0.00000000 0.00000000
vn 1.00000000 0.00000000 0.00000000
vn 1.00000000 0.00000000 0.00000000
vn 1.00000000 0.00000000 0.00000000
vn 1.00000000 0.00000000 0.00000000
vn 1.00000000 0.00000000 0.00000000
vn 1.00000000 0.00000000 0.00000000
vn 1.00000000 0.00000000 0.00000000
vn 1.00000000 0.00000000 0.00000000
f 3//3 2//2 1//1
f 29//29 28//28 1//1
f 30//30 29//29 1//1
f 31//31 30//30 1//1
f 32//32 31//31 1//1
f 33//33 32//32 1//1
f 34//34 33//33 1//1
f 35//35 34//34 1//1
f 36//36 35//35 1//1
f 37//37 36//36 1//1
f 38//38 37//37 1//1
f 39//39 38//38 1//1
f 40//40 39//39 1//1
f 41//41 40//40 1//1
f 42//42 41//41 1//1
f 43//43 42//42 1//1
f 44//44 43//43 1//1
f 45//45 44//44 1//1
f 46//46 45//45 1//1
f 47//47 46//46 1//1
f 48//48 47//47 1//1
f 49//49 48//48 1//1
f 28//28 27//27 1//1
f 27//27 26//26 1//1
f 2//2 49//49 1//1
f 25//25 24//24 1//1
f 26//26 25//25 1//1
f 4//4 3//3 1//1
f 5//5 4//4 1//1
f 6//6 5//5 1//1
f 7//7 6//6 1//1
f 8//8 7//7 1//1
f 10//10 9//9 1//1
f 11//11 10//10 1//1
f 12//12 11//11 1//1
f 13//13 12//12 1//1
f 9//9 8//8 1//1
f 15//15 14//14 1//1
f 16//16 15//15 1//1
f 17//17 16//16 1//1
f 18//18 17//17 1//1
f 24//24 23//23 1//1
f 19//19 18//18 1//1
f 20//20 19//19 1//1
f 21//21 20//20 1//1
f 22//22 21//21 1//1
f 23//23 22//22 1//1
f 14//14 13//13 1//1
f 82//82 130//130 81//81
f 131//131 130//130 82//82
f 83//83 131//131 82//82
f 134//134 133//133 85//85
f 84//84 132//132 83//83
f 133//133 132//132 84//84
f 85//85 133//133 84//84
f 130//130 129//129 81//81
f 132//132 131//131 83//83
f 81//81 129//129 80//80
f 124//124 123//123 75//75
f 80//80 128//128 79//79
f 128//128 127//127 79//79
f 79//79 127//127 78//78
f 127//127 126//126 78//78
f 78//78 126//126 77//77
f 126//126 125//125 77//77
f 77//77 125//125 76//76
f 125//125 124//124 76//76
f 76//76 124//124 75//75
f 86//86 134//134 85//85
f 129//129 128//128 80//80
f 135//135 134//134 86//86
f 92//92 140//140 91//91
f 136//136 135//135 87//87
f 75//75 123//123 74//74
f 50//50 98//98 97//97
f 98//98 145//145 97//97
f 97//97 145//145 96//96
f 145//145 144//144 96//96
f 96//96 144//144 95//95
f 144//144 143//143 95//95
f 95//95 143//143 94//94
f 143//143 142//142 94//94
f 94//94 142//142 93//93
f 142//142 141//141 93//93
f 93//93 141//141 92//92
f 141//141 140//140 92//92
f 140//140 139//139 91//91
f 91//91 139//139 90//90
f 139//139 138//138 90//90
f 90//90 138//138 89//89
f 138//138 137//137 89//89
f 89//89 137//137 88//88
f 137//137 136//136 88//88
f 88//88 136//136 87//87
f 87//87 135//135 86//86
f 123//123 122//122 74//74
f 74//74 122//122 73//73
f 122//122 121//121 73//73
f 109//109 108//108 60//60
f 60//60 108//108 59//59
f 108//108 107//107 59//59
f 59//59 107//107 58//58
f 107//107 106//106 58//58
f 58//58 106//106 57//57
f 106//106 105//105 57//57
f 57//57 105//105 56//56
f 56//56 104//104 55//55
f 61//61 109//109 60//60
f 104//104 103//103 55//55
f 103//103 102//102 54//54
f 54//54 102//102 53//53
f 102//102 101//101 53//53
f 53//53 101//101 52//52
f 101//101 100//100 52//52
f 52//52 100//100 51//51
f 100//100 99//99 51//51
f 51//51 99//99 50//50
f 99//99 98//98 50//50
f 55//55 103//103 54//54
f 110//110 109//109 61//61
f 105//105 104//104 56//56
f 111//111 110//110 62//62
f 62//62 110//110 61//61
f 121//121 120//120 72//72
f 72//72 120//120 71//71
f 120//120 119//119 71//71
f 71//71 119//119 70//70
f 119//119 118//118 70//70
f 70//70 118//118 69//69
f 118//118 117//117 69//69
f 69//69 117//117 68//68
f 117//117 116//116 68//68
f 68//68 116//116 67//67
f 73//73 121//121 72//72
f 67//67 115//115 66//66
f 115//115 114//114 66//66
f 66//66 114//114 65//65
f 114//114 113//113 65//65
f 65//65 113//113 64//64
f 113//113 112//112 64//64
f 64//64 112//112 63//63
f 112//112 111//111 63//63
f 63//63 111//111 62//62
f 116//116 115//115 67//67
f 171//171 194//194 170//170
f 179//179 194//194 178//178
f 178//178 194//194 177//177
f 177//177 194//194 176//176
f 172//172 194//194 171//171
f 175//175 194//194 174//174
f 174//174 194//194 173//173
f 173//173 194//194 172//172
f 180//180 194//194 179//179
f 176//176 194//194 175//175
f 181//181 194//194 180//180
f 186//186 194//194 185//185
f 183//183 194//194 182//182
f 184//184 194//194 183//183
f 185//185 194//194 184//184
f 187//187 194//194 186//186
f 188//188 194//194 187//187
f 189//189 194//194 188//188
f 190//190 194//194 189//189
f 191//191 194//194 190//190
f 192//192 194//194 191//191
f 182//182 194//194 181//181
f 170//170 194//194 169//169
f 147//147 194//194 146//146
f 168//168 194//194 167//167
f 193//193 194//194 192//192
f 148//148 194//194 147//147
f 149//149 194//194 148//148
f 150//150 194//194 149//149
f 151//151 194//194 150//150
f 152//152 194//194 151//151
f 153//153 194//194 152//152
f 154//154 194//194 153//153
f 155//155 194//194 154//154
f 156//156 194//194 155//155
f 157//157 194//194 156//156
f 158//158 194//194 157//157
f 159//159 194//194 158//158
f 160//160 194//194 159//159
f 161//161 194//194 160//160
f 162//162 194//194 161//161
f 163//163 194//194 162//162
f 164//164 194//194 163//163
f 165//165 194//194 164//164
f 166//166 194//194 165//165
f 167//167 194//194 166//166
f 169//169 194//194 168//168
f 146//146 194//194 193//193
o core_front_lower_screw_1
v 0.0129480000 -0.0080480000 0.0152000000
v 0.0129480000 -0.0075980000 0.0152000000
v 0.0129480000 -0.0076018498 0.0152587368
v 0.0129480000 -0.0076133334 0.0153164686
v 0.0129480000 -0.0076322542 0.0153722075
v 0.0129480000 -0.0076582886 0.0154250000
v 0.0129480000 -0.0076909910 0.0154739426
v 0.0129480000 -0.0077298019 0.0155181981
v 0.0129480000 -0.0077740574 0.0155570090
v 0.0129480000 -0.0078230000 0.0155897114
v 0.0129480000 -0.0078757925 0.0156157458
v 0.0129480000 -0.0079315314 0.0156346666
v 0.0129480000 -0.0079892632 0.0156461502
v 0.0129480000 -0.0080480000 0.0156500000
v 0.0129480000 -0.0081067368 0.0156461502
v 0.0129480000 -0.0081644686 0.0156346666
v 0.0129480000 -0.0082202075 0.0156157458
v 0.0129480000 -0.0082730000 0.0155897114
v 0.0129480000 -0.0083219426 0.0155570090
v 0.0129480000 -0.0083661981 0.0155181981
v 0.0129480000 -0.0084050090 0.0154739426
v 0.0129480000 -0.0084377114 0.0154250000
v 0.0129480000 -0.0084637458 0.0153722075
v 0.0129480000 -0.0084826666 0.0153164686
v 0.0129480000 -0.0084941502 0.0152587368
v 0.0129480000 -0.0084980000 0.0152000000
v 0.0129480000 -0.0084941502 0.0151412632
v 0.0129480000 -0.0084826666 0.0150835314
v 0.0129480000 -0.0084637458 0.0150277925
v 0.0129480000 -0.0084377114 0.0149750000
v 0.0129480000 -0.0084050090 0.0149260574
v 0.0129480000 -0.0083661981 0.0148818019
v 0.0129480000 -0.0083219426 0.0148429910
v 0.0129480000 -0.0082730000 0.0148102886
v 0.0129480000 -0.0082202075 0.0147842542
v 0.0129480000 -0.0081644686 0.0147653334
v 0.0129480000 -0.0081067368 0.0147538498
v 0.0129480000 -0.0080480000 0.0147500000
v 0.0129480000 -0.0079892632 0.0147538498
v 0.0129480000 -0.0079315314 0.0147653334
v 0.0129480000 -0.0078757925 0.0147842542
v 0.0129480000 -0.0078230000 0.0148102886
v 0.0129480000 -0.0077740574 0.0148429910
v 0.0129480000 -0.0077298019 0.0148818019
v 0.0129480000 -0.0076909910 0.0149260574
v 0.0129480000 -0.0076582886 0.0149750000
v 0.0129480000 -0.0076322542 0.0150277925
v 0.0129480000 -0.0076133334 0.0150835314
v 0.0129480000 -0.0076018498 0.0151412632
v 0.0129480000 -0.0075980000 0.0152000000
v 0.0129480000 -0.0076018498 0.0152587368
v 0.0129480000 -0.0076133334 0.0153164686
v 0.0129480000 -0.0076322542 0.0153722075
v 0.0129480000 -0.0076582886 0.0154250000
v 0.0129480000 -0.0076909910 0.0154739426
v 0.0129480000 -0.0077298019 0.0155181981
v 0.0129480000 -0.0077740574 0.0155570090
v 0.0129480000 -0.0078230000 0.0155897114
v 0.0129480000 -0.0078757925 0.0156157458
v 0.0129480000 -0.0079315314 0.0156346666
v 0.0129480000 -0.0079892632 0.0156461502
v 0.0129480000 -0.0080480000 0.0156500000
v 0.0129480000 -0.0081067368 0.0156461502
v 0.0129480000 -0.0081644686 0.0156346666
v 0.0129480000 -0.0082202075 0.0156157458
v 0.0129480000 -0.0082730000 0.0155897114
v 0.0129480000 -0.0083219426 0.0155570090
v 0.0129480000 -0.0083661981 0.0155181981
v 0.0129480000 -0.0084050090 0.0154739426
v 0.0129480000 -0.0084377114 0.0154250000
v 0.0129480000 -0.0084637458 0.0153722075
v 0.0129480000 -0.0084826666 0.0153164686
v 0.0129480000 -0.0084941502 0.0152587368
v 0.0129480000 -0.0084980000 0.0152000000
v 0.0129480000 -0.0084941502 0.0151412632
v 0.0129480000 -0.0084826666 0.0150835314
v 0.0129480000 -0.0084637458 0.0150277925
v 0.0129480000 -0.0084377114 0.0149750000
v 0.0129480000 -0.0084050090 0.0149260574
v 0.0129480000 -0.0083661981 0.0148818019
v 0.0129480000 -0.0083219426 0.0148429910
v 0.0129480000 -0.0082730000 0.0148102886
v 0.0129480000 -0.0082202075 0.0147842542
v 0.0129480000 -0.0081644686 0.0147653334
v 0.0129480000 -0.0081067368 0.0147538498
v 0.0129480000 -0.0080480000 0.0147500000
v 0.0129480000 -0.0079892632 0.0147538498
v 0.0129480000 -0.0079315314 0.0147653334
v 0.0129480000 -0.0078757925 0.0147842542
v 0.0129480000 -0.0078230000 0.0148102886
v 0.0129480000 -0.0077740574 0.0148429910
v 0.0129480000 -0.0077298019 0.0148818019
v 0.0129480000 -0.0076909910 0.0149260574
v 0.0129480000 -0.0076582886 0.0149750000
v 0.0129480000 -0.0076322542 0.0150277925
v 0.0129480000 -0.0076133334 0.0150835314
v 0.0129480000 -0.0076018498 0.0151412632
v 0.0130280000 -0.0076340000 0.0152000000
v 0.0130280000 -0.0076375418 0.0152540378
v 0.0130280000 -0.0076481067 0.0153071511
v 0.0130280000 -0.0076655139 0.0153584309
v 0.0130280000 -0.0076894655 0.0154070000
v 0.0130280000 -0.0077195517 0.0154520272
v 0.0130280000 -0.0077552578 0.0154927422
v 0.0130280000 -0.0077959728 0.0155284483
v 0.0130280000 -0.0078410000 0.0155585345
v 0.0130280000 -0.0078895691 0.0155824861
v 0.0130280000 -0.0079408489 0.0155998933
v 0.0130280000 -0.0079939622 0.0156104582
v 0.0130280000 -0.0080480000 0.0156140000
v 0.0130280000 -0.0081020378 0.0156104582
v 0.0130280000 -0.0081551511 0.0155998933
v 0.0130280000 -0.0082064309 0.0155824861
v 0.0130280000 -0.0082550000 0.0155585345
v 0.0130280000 -0.0083000272 0.0155284483
v 0.0130280000 -0.0083407422 0.0154927422
v 0.0130280000 -0.0083764483 0.0154520272
v 0.0130280000 -0.0084065345 0.0154070000
v 0.0130280000 -0.0084304861 0.0153584309
v 0.0130280000 -0.0084478933 0.0153071511
v 0.0130280000 -0.0084584582 0.0152540378
v 0.0130280000 -0.0084620000 0.0152000000
v 0.0130280000 -0.0084584582 0.0151459622
v 0.0130280000 -0.0084478933 0.0150928489
v 0.0130280000 -0.0084304861 0.0150415691
v 0.0130280000 -0.0084065345 0.0149930000
v 0.0130280000 -0.0083764483 0.0149479728
v 0.0130280000 -0.0083407422 0.0149072578
v 0.0130280000 -0.0083000272 0.0148715517
v 0.0130280000 -0.0082550000 0.0148414655
v 0.0130280000 -0.0082064309 0.0148175139
v 0.0130280000 -0.0081551511 0.0148001067
v 0.0130280000 -0.0081020378 0.0147895418
v 0.0130280000 -0.0080480000 0.0147860000
v 0.0130280000 -0.0079939622 0.0147895418
v 0.0130280000 -0.0079408489 0.0148001067
v 0.0130280000 -0.0078895691 0.0148175139
v 0.0130280000 -0.0078410000 0.0148414655
v 0.0130280000 -0.0077959728 0.0148715517
v 0.0130280000 -0.0077552578 0.0149072578
v 0.0130280000 -0.0077195517 0.0149479728
v 0.0130280000 -0.0076894655 0.0149930000
v 0.0130280000 -0.0076655139 0.0150415691
v 0.0130280000 -0.0076481067 0.0150928489
v 0.0130280000 -0.0076375418 0.0151459622
v 0.0130280000 -0.0076340000 0.0152000000
v 0.0130280000 -0.0076375418 0.0152540378
v 0.0130280000 -0.0076481067 0.0153071511
v 0.0130280000 -0.0076655139 0.0153584309
v 0.0130280000 -0.0076894655 0.0154070000
v 0.0130280000 -0.0077195517 0.0154520272
v 0.0130280000 -0.0077552578 0.0154927422
v 0.0130280000 -0.0077959728 0.0155284483
v 0.0130280000 -0.0078410000 0.0155585345
v 0.0130280000 -0.0078895691 0.0155824861
v 0.0130280000 -0.0079408489 0.0155998933
v 0.0130280000 -0.0079939622 0.0156104582
v 0.0130280000 -0.0080480000 0.0156140000
v 0.0130280000 -0.0081020378 0.0156104582
v 0.0130280000 -0.0081551511 0.0155998933
v 0.0130280000 -0.0082064309 0.0155824861
v 0.0130280000 -0.0082550000 0.0155585345
v 0.0130280000 -0.0083000272 0.0155284483
v 0.0130280000 -0.0083407422 0.0154927422
v 0.0130280000 -0.0083764483 0.0154520272
v 0.0130280000 -0.0084065345 0.0154070000
v 0.0130280000 -0.0084304861 0.0153584309
v 0.0130280000 -0.0084478933 0.0153071511
v 0.0130280000 -0.0084584582 0.0152540378
v 0.0130280000 -0.0084620000 0.0152000000
v 0.0130280000 -0.0084584582 0.0151459622
v 0.0130280000 -0.0084478933 0.0150928489
v 0.0130280000 -0.0084304861 0.0150415691
v 0.0130280000 -0.0084065345 0.0149930000
v 0.0130280000 -0.0083764483 0.0149479728
v 0.0130280000 -0.0083407422 0.0149072578
v 0.0130280000 -0.0083000272 0.0148715517
v 0.0130280000 -0.0082550000 0.0148414655
v 0.0130280000 -0.0082064309 0.0148175139
v 0.0130280000 -0.0081551511 0.0148001067
v 0.0130280000 -0.0081020378 0.0147895418
v 0.0130280000 -0.0080480000 0.0147860000
v 0.0130280000 -0.0079939622 0.0147895418
v 0.0130280000 -0.0079408489 0.0148001067
v 0.0130280000 -0.0078895691 0.0148175139
v 0.0130280000 -0.0078410000 0.0148414655
v 0.0130280000 -0.0077959728 0.0148715517
v 0.0130280000 -0.0077552578 0.0149072578
v 0.0130280000 -0.0077195517 0.0149479728
v 0.0130280000 -0.0076894655 0.0149930000
v 0.0130280000 -0.0076655139 0.0150415691
v 0.0130280000 -0.0076481067 0.0150928489
v 0.0130280000 -0.0076375418 0.0151459622
v 0.0130280000 -0.0080480000 0.0152000000
vn -1.00000000 0.00000000 0.00000000
vn -1.00000000 0.00000000 0.00000000
vn -1.00000000 0.00000000 0.00000000
vn -1.00000000 0.00000000 0.00000000
vn -1.00000000 0.00000000 0.00000000
vn -1.00000000 0.00000000 0.00000000
vn -1.00000000 0.00000000 0.00000000
vn -1.00000000 0.00000000 0.00000000
vn -1.00000000 0.00000000 0.00000000
vn -1.00000000 0.00000000 0.00000000
vn -1.00000000 0.00000000 0.00000000
vn -1.00000000 0.00000000 0.00000000
vn -1.00000000 0.00000000 0.00000000
vn -1.00000000 0.00000000 0.00000000
vn -1.00000000 0.00000000 0.00000000
vn -1.00000000 0.00000000 0.00000000
vn -1.00000000 0.00000000 0.00000000
vn -1.00000000 0.00000000 0.00000000
vn -1.00000000 0.00000000 0.00000000
vn -1.00000000 0.00000000 0.00000000
vn -1.00000000 0.00000000 0.00000000
vn -1.00000000 0.00000000 0.00000000
vn -1.00000000 0.00000000 0.00000000
vn -1.00000000 0.00000000 0.00000000
vn -1.00000000 0.00000000 0.00000000
vn -1.00000000 0.00000000 0.00000000
vn -1.00000000 0.00000000 0.00000000
vn -1.00000000 0.00000000 0.00000000
vn -1.00000000 0.00000000 0.00000000
vn -1.00000000 0.00000000 0.00000000
vn -1.00000000 0.00000000 0.00000000
vn -1.00000000 0.00000000 0.00000000
vn -1.00000000 0.00000000 0.00000000
vn -1.00000000 0.00000000 0.00000000
vn -1.00000000 0.00000000 0.00000000
vn -1.00000000 0.00000000 0.00000000
vn -1.00000000 0.00000000 0.00000000
vn -1.00000000 0.00000000 0.00000000
vn -1.00000000 0.00000000 0.00000000
vn -1.00000000 0.00000000 0.00000000
vn -1.00000000 0.00000000 0.00000000
vn -1.00000000 0.00000000 0.00000000
vn -1.00000000 0.00000000 0.00000000
vn -1.00000000 0.00000000 0.00000000
vn -1.00000000 0.00000000 0.00000000
vn -1.00000000 0.00000000 0.00000000
vn -1.00000000 0.00000000 0.00000000
vn -1.00000000 0.00000000 0.00000000
vn -1.00000000 0.00000000 0.00000000
vn 0.41036468 0.91192151 -0.00000000
vn 0.41036468 0.90411989 0.11902964
vn 0.41036468 0.88084853 0.23602265
vn 0.41036468 0.84250561 0.34897725
vn 0.41036468 0.78974719 0.45596075
vn 0.41036468 0.72347597 0.55514264
vn 0.41036468 0.64482588 0.64482588
vn 0.41036468 0.55514264 0.72347597
vn 0.41036468 0.45596075 0.78974719
vn 0.41036468 0.34897725 0.84250561
vn 0.41036468 0.23602265 0.88084853
vn 0.41036468 0.11902964 0.90411989
vn 0.41036468 0.00000000 0.91192151
vn 0.41036468 -0.11902964 0.90411989
vn 0.41036468 -0.23602265 0.88084853
vn 0.41036468 -0.34897725 0.84250561
vn 0.41036468 -0.45596075 0.78974719
vn 0.41036468 -0.55514264 0.72347597
vn 0.41036468 -0.64482588 0.64482588
vn 0.41036468 -0.72347597 0.55514264
vn 0.41036468 -0.78974719 0.45596075
vn 0.41036468 -0.84250561 0.34897725
vn 0.41036468 -0.88084853 0.23602265
vn 0.41036468 -0.90411989 0.11902964
vn 0.41036468 -0.91192151 0.00000000
vn 0.41036468 -0.90411989 -0.11902964
vn 0.41036468 -0.88084853 -0.23602265
vn 0.41036468 -0.84250561 -0.34897725
vn 0.41036468 -0.78974719 -0.45596075
vn 0.41036468 -0.72347597 -0.55514264
vn 0.41036468 -0.64482588 -0.64482588
vn 0.41036468 -0.55514264 -0.72347597
vn 0.41036468 -0.45596075 -0.78974719
vn 0.41036468 -0.34897725 -0.84250561
vn 0.41036468 -0.23602265 -0.88084853
vn 0.41036468 -0.11902964 -0.90411989
vn 0.41036468 -0.00000000 -0.91192151
vn 0.41036468 0.11902964 -0.90411989
vn 0.41036468 0.23602265 -0.88084853
vn 0.41036468 0.34897725 -0.84250561
vn 0.41036468 0.45596075 -0.78974719
vn 0.41036468 0.55514264 -0.72347597
vn 0.41036468 0.64482588 -0.64482588
vn 0.41036468 0.72347597 -0.55514264
vn 0.41036468 0.78974719 -0.45596075
vn 0.41036468 0.84250561 -0.34897725
vn 0.41036468 0.88084853 -0.23602265
vn 0.41036468 0.90411989 -0.11902964
vn 0.41036468 0.91192151 -0.00000000
vn 0.41036468 0.90411989 0.11902964
vn 0.41036468 0.88084853 0.23602265
vn 0.41036468 0.84250561 0.34897725
vn 0.41036468 0.78974719 0.45596075
vn 0.41036468 0.72347597 0.55514264
vn 0.41036468 0.64482588 0.64482588
vn 0.41036468 0.55514264 0.72347597
vn 0.41036468 0.45596075 0.78974719
vn 0.41036468 0.34897725 0.84250561
vn 0.41036468 0.23602265 0.88084853
vn 0.41036468 0.11902964 0.90411989
vn 0.41036468 0.00000000 0.91192151
vn 0.41036468 -0.11902964 0.90411989
vn 0.41036468 -0.23602265 0.88084853
vn 0.41036468 -0.34897725 0.84250561
vn 0.41036468 -0.45596075 0.78974719
vn 0.41036468 -0.55514264 0.72347597
vn 0.41036468 -0.64482588 0.64482588
vn 0.41036468 -0.72347597 0.55514264
vn 0.41036468 -0.78974719 0.45596075
vn 0.41036468 -0.84250561 0.34897725
vn 0.41036468 -0.88084853 0.23602265
vn 0.41036468 -0.90411989 0.11902964
vn 0.41036468 -0.91192151 0.00000000
vn 0.41036468 -0.90411989 -0.11902964
vn 0.41036468 -0.88084853 -0.23602265
vn 0.41036468 -0.84250561 -0.34897725
vn 0.41036468 -0.78974719 -0.45596075
vn 0.41036468 -0.72347597 -0.55514264
vn 0.41036468 -0.64482588 -0.64482588
vn 0.41036468 -0.55514264 -0.72347597
vn 0.41036468 -0.45596075 -0.78974719
vn 0.41036468 -0.34897725 -0.84250561
vn 0.41036468 -0.23602265 -0.88084853
vn 0.41036468 -0.11902964 -0.90411989
vn 0.41036468 -0.00000000 -0.91192151
vn 0.41036468 0.11902964 -0.90411989
vn 0.41036468 0.23602265 -0.88084853
vn 0.41036468 0.34897725 -0.84250561
vn 0.41036468 0.45596075 -0.78974719
vn 0.41036468 0.55514264 -0.72347597
vn 0.41036468 0.64482588 -0.64482588
vn 0.41036468 0.72347597 -0.55514264
vn 0.41036468 0.78974719 -0.45596075
vn 0.41036468 0.84250561 -0.34897725
vn 0.41036468 0.88084853 -0.23602265
vn 0.41036468 0.90411989 -0.11902964
vn 1.00000000 0.00000000 0.00000000
vn 1.00000000 0.00000000 0.00000000
vn 1.00000000 0.00000000 0.00000000
vn 1.00000000 0.00000000 0.00000000
vn 1.00000000 0.00000000 0.00000000
vn 1.00000000 0.00000000 0.00000000
vn 1.00000000 0.00000000 0.00000000
vn 1.00000000 0.00000000 0.00000000
vn 1.00000000 0.00000000 0.00000000
vn 1.00000000 0.00000000 0.00000000
vn 1.00000000 0.00000000 0.00000000
vn 1.00000000 0.00000000 0.00000000
vn 1.00000000 0.00000000 0.00000000
vn 1.00000000 0.00000000 0.00000000
vn 1.00000000 0.00000000 0.00000000
vn 1.00000000 0.00000000 0.00000000
vn 1.00000000 0.00000000 0.00000000
vn 1.00000000 0.00000000 0.00000000
vn 1.00000000 0.00000000 0.00000000
vn 1.00000000 0.00000000 0.00000000
vn 1.00000000 0.00000000 0.00000000
vn 1.00000000 0.00000000 0.00000000
vn 1.00000000 0.00000000 0.00000000
vn 1.00000000 0.00000000 0.00000000
vn 1.00000000 0.00000000 0.00000000
vn 1.00000000 0.00000000 0.00000000
vn 1.00000000 0.00000000 0.00000000
vn 1.00000000 0.00000000 0.00000000
vn 1.00000000 0.00000000 0.00000000
vn 1.00000000 0.00000000 0.00000000
vn 1.00000000 0.00000000 0.00000000
vn 1.00000000 0.00000000 0.00000000
vn 1.00000000 0.00000000 0.00000000
vn 1.00000000 0.00000000 0.00000000
vn 1.00000000 0.00000000 0.00000000
vn 1.00000000 0.00000000 0.00000000
vn 1.00000000 0.00000000 0.00000000
vn 1.00000000 0.00000000 0.00000000
vn 1.00000000 0.00000000 0.00000000
vn 1.00000000 0.00000000 0.00000000
vn 1.00000000 0.00000000 0.00000000
vn 1.00000000 0.00000000 0.00000000
vn 1.00000000 0.00000000 0.00000000
vn 1.00000000 0.00000000 0.00000000
vn 1.00000000 0.00000000 0.00000000
vn 1.00000000 0.00000000 0.00000000
vn 1.00000000 0.00000000 0.00000000
vn 1.00000000 0.00000000 0.00000000
vn 1.00000000 0.00000000 0.00000000
f 197//197 196//196 195//195
f 223//223 222//222 195//195
f 224//224 223//223 195//195
f 225//225 224//224 195//195
f 226//226 225//225 195//195
f 227//227 226//226 195//195
f 228//228 227//227 195//195
f 229//229 228//228 195//195
f 230//230 229//229 195//195
f 231//231 230//230 195//195
f 232//232 231//231 195//195
f 233//233 232//232 195//195
f 234//234 233//233 195//195
f 235//235 234//234 195//195
f 236//236 235//235 195//195
f 237//237 236//236 195//195
f 238//238 237//237 195//195
f 239//239 238//238 195//195
f 240//240 239//239 195//195
f 241//241 240//240 195//195
f 242//242 241//241 195//195
f 243//243 242//242 195//195
f 222//222 221//221 195//195
f 221//221 220//220 195//195
f 196//196 243//243 195//195
f 219//219 218//218 195//195
f 220//220 219//219 195//195
f 198//198 197//197 195//195
f 199//199 198//198 195//195
f 200//200 199//199 195//195
f 201//201 200//200 195//195
f 202//202 201//201 195//195
f 204//204 203//203 195//195
f 205//205 204//204 195//195
f 206//206 205//205 195//195
f 207//207 206//206 195//195
f 203//203 202//202 195//195
f 209//209 208//208 195//195
f 210//210 209//209 195//195
f 211//211 210//210 195//195
f 212//212 211//211 195//195
f 218//218 217//217 195//195
f 213//213 212//212 195//195
f 214//214 213//213 195//195
f 215//215 214//214 195//195
f 216//216 215//215 195//195
f 217//217 216//216 195//195
f 208//208 207//207 195//195
f 276//276 324//324 275//275
f 325//325 324//324 276//276
f 277//277 325//325 276//276
f 328//328 327//327 279//279
f 278//278 326//326 277//277
f 327//327 326//326 278//278
f 279//279 327//327 278//278
f 324//324 323//323 275//275
f 326//326 325//325 277//277
f 275//275 323//323 274//274
f 318//318 317//317 269//269
f 274//274 322//322 273//273
f 322//322 321//321 273//273
f 273//273 321//321 272//272
f 321//321 320//320 272//272
f 272//272 320//320 271//271
f 320//320 319//319 271//271
f 271//271 319//319 270//270
f 319//319 318//318 270//270
f 270//270 318//318 269//269
f 280//280 328//328 279//279
f 323//323 322//322 274//274
f 329//329 328//328 280//280
f 286//286 334//334 285//285
f 330//330 329//329 281//281
f 269//269 317//317 268//268
f 244//244 292//292 291//291
f 292//292 339//339 291//291
f 291//291 339//339 290//290
f 339//339 338//338 290//290
f 290//290 338//338 289//289
f 338//338 337//337 289//289
f 289//289 337//337 288//288
f 337//337 336//336 288//288
f 288//288 336//336 287//287
f 336//336 335//335 287//287
f 287//287 335//335 286//286
f 335//335 334//334 286//286
f 334//334 333//333 285//285
f 285//285 333//333 284//284
f 333//333 332//332 284//284
f 284//284 332//332 283//283
f 332//332 331//331 283//283
f 283//283 331//331 282//282
f 331//331 330//330 282//282
f 282//282 330//330 281//281
f 281//281 329//329 280//280
f 317//317 316//316 268//268
f 268//268 316//316 267//267
f 316//316 315//315 267//267
f 303//303 302//302 254//254
f 254//254 302//302 253//253
f 302//302 301//301 253//253
f 253//253 301//301 252//252
f 301//301 300//300 252//252
f 252//252 300//300 251//251
f 300//300 299//299 251//251
f 251//251 299//299 250//250
f 250//250 298//298 249//249
f 255//255 303//303 254//254
f 298//298 297//297 249//249
f 297//297 296//296 248//248
f 248//248 296//296 247//247
f 296//296 295//295 247//247
f 247//247 295//295 246//246
f 295//295 294//294 246//246
f 246//246 294//294 245//245
f 294//294 293//293 245//245
f 245//245 293//293 244//244
f 293//293 292//292 244//244
f 249//249 297//297 248//248
f 304//304 303//303 255//255
f 299//299 298//298 250//250
f 305//305 304//304 256//256
f 256//256 304//304 255//255
f 315//315 314//314 266//266
f 266//266 314//314 265//265
f 314//314 313//313 265//265
f 265//265 313//313 264//264
f 313//313 312//312 264//264
f 264//264 312//312 263//263
f 312//312 311//311 263//263
f 263//263 311//311 262//262
f 311//311 310//310 262//262
f 262//262 310//310 261//261
f 267//267 315//315 266//266
f 261//261 309//309 260//260
f 309//309 308//308 260//260
f 260//260 308//308 259//259
f 308//308 307//307 259//259
f 259//259 307//307 258//258
f 307//307 306//306 258//258
f 258//258 306//306 257//257
f 306//306 305//305 257//257
f 257//257 305//305 256//256
f 310//310 309//309 261//261
f 365//365 388//388 364//364
f 373//373 388//388 372//372
f 372//372 388//388 371//371
f 371//371 388//388 370//370
f 366//366 388//388 365//365
f 369//369 388//388 368//368
f 368//368 388//388 367//367
f 367//367 388//388 366//366
f 374//374 388//388 373//373
f 370//370 388//388 369//369
f 375//375 388//388 374//374
f 380//380 388//388 379//379
f 377//377 388//388 376//376
f 378//378 388//388 377//377
f 379//379 388//388 378//378
f 381//381 388//388 380//380
f 382//382 388//388 381//381
f 383//383 388//388 382//382
f 384//384 388//388 383//383
f 385//385 388//388 384//384
f 386//386 388//388 385//385
f 376//376 388//388 375//375
f 364//364 388//388 363//363
f 341//341 388//388 340//340
f 362//362 388//388 361//361
f 387//387 388//388 386//386
f 342//342 388//388 341//341
f 343//343 388//388 342//342
f 344//344 388//388 343//343
f 345//345 388//388 344//344
f 346//346 388//388 345//345
f 347//347 388//388 346//346
f 348//348 388//388 347//347
f 349//349 388//388 348//348
f 350//350 388//388 349//349
f 351//351 388//388 350//350
f 352//352 388//388 351//351
f 353//353 388//388 352//352
f 354//354 388//388 353//353
f 355//355 388//388 354//354
f 356//356 388//388 355//355
f 357//357 388//388 356//356
f 358//358 388//388 357//357
f 359//359 388//388 358//358
f 360//360 388//388 359//359
f 361//361 388//388 360//360
f 363//363 388//388 362//362
f 340//340 388//388 387//387
