# Independent procedural camera geometry; meters; Z up
o left_window_ring
v 0.0163700000 0.0437800000 0.0425000000
v 0.0163700000 0.0437254182 0.0433327571
v 0.0163700000 0.0435626068 0.0441512655
v 0.0163700000 0.0432943514 0.0449415203
v 0.0163700000 0.0429252421 0.0456900000
v 0.0163700000 0.0424615943 0.0463838979
v 0.0163700000 0.0419113413 0.0470113413
v 0.0163700000 0.0412838979 0.0475615943
v 0.0163700000 0.0405900000 0.0480252421
v 0.0163700000 0.0398415203 0.0483943514
v 0.0163700000 0.0390512655 0.0486626068
v 0.0163700000 0.0382327571 0.0488254182
v 0.0163700000 0.0374000000 0.0488800000
v 0.0163700000 0.0365672429 0.0488254182
v 0.0163700000 0.0357487345 0.0486626068
v 0.0163700000 0.0349584797 0.0483943514
v 0.0163700000 0.0342100000 0.0480252421
v 0.0163700000 0.0335161021 0.0475615943
v 0.0163700000 0.0328886587 0.0470113413
v 0.0163700000 0.0323384057 0.0463838979
v 0.0163700000 0.0318747579 0.0456900000
v 0.0163700000 0.0315056486 0.0449415203
v 0.0163700000 0.0312373932 0.0441512655
v 0.0163700000 0.0310745818 0.0433327571
v 0.0163700000 0.0310200000 0.0425000000
v 0.0163700000 0.0310745818 0.0416672429
v 0.0163700000 0.0312373932 0.0408487345
v 0.0163700000 0.0315056486 0.0400584797
v 0.0163700000 0.0318747579 0.0393100000
v 0.0163700000 0.0323384057 0.0386161021
v 0.0163700000 0.0328886587 0.0379886587
v 0.0163700000 0.0335161021 0.0374384057
v 0.0163700000 0.0342100000 0.0369747579
v 0.0163700000 0.0349584797 0.0366056486
v 0.0163700000 0.0357487345 0.0363373932
v 0.0163700000 0.0365672429 0.0361745818
v 0.0163700000 0.0374000000 0.0361200000
v 0.0163700000 0.0382327571 0.0361745818
v 0.0163700000 0.0390512655 0.0363373932
v 0.0163700000 0.0398415203 0.0366056486
v 0.0163700000 0.0405900000 0.0369747579
v 0.0163700000 0.0412838979 0.0374384057
v 0.0163700000 0.0419113413 0.0379886587
v 0.0163700000 0.0424615943 0.0386161021
v 0.0163700000 0.0429252421 0.0393100000
v 0.0163700000 0.0432943514 0.0400584797
v 0.0163700000 0.0435626068 0.0408487345
v 0.0163700000 0.0437254182 0.0416672429
v 0.0164600000 0.0437800000 0.0425000000
v 0.0164600000 0.0437254182 0.0433327571
v 0.0164600000 0.0435626068 0.0441512655
v 0.0164600000 0.0432943514 0.0449415203
v 0.0164600000 0.0429252421 0.0456900000
v 0.0164600000 0.0424615943 0.0463838979
v 0.0164600000 0.0419113413 0.0470113413
v 0.0164600000 0.0412838979 0.0475615943
v 0.0164600000 0.0405900000 0.0480252421
v 0.0164600000 0.0398415203 0.0483943514
v 0.0164600000 0.0390512655 0.0486626068
v 0.0164600000 0.0382327571 0.0488254182
v 0.0164600000 0.0374000000 0.0488800000
v 0.0164600000 0.0365672429 0.0488254182
v 0.0164600000 0.0357487345 0.0486626068
v 0.0164600000 0.0349584797 0.0483943514
v 0.0164600000 0.0342100000 0.0480252421
v 0.0164600000 0.0335161021 0.0475615943
v 0.0164600000 0.0328886587 0.0470113413
v 0.0164600000 0.0323384057 0.0463838979
v 0.0164600000 0.0318747579 0.0456900000
v 0.0164600000 0.0315056486 0.0449415203
v 0.0164600000 0.0312373932 0.0441512655
v 0.0164600000 0.0310745818 0.0433327571
v 0.0164600000 0.0310200000 0.0425000000
v 0.0164600000 0.0310745818 0.0416672429
v 0.0164600000 0.0312373932 0.0408487345
v 0.0164600000 0.0315056486 0.0400584797
v 0.0164600000 0.0318747579 0.0393100000
v 0.0164600000 0.0323384057 0.0386161021
v 0.0164600000 0.0328886587 0.0379886587
v 0.0164600000 0.0335161021 0.0374384057
v 0.0164600000 0.0342100000 0.0369747579
v 0.0164600000 0.0349584797 0.0366056486
v 0.0164600000 0.0357487345 0.0363373932
v 0.0164600000 0.0365672429 0.0361745818
v 0.0164600000 0.0374000000 0.0361200000
v 0.0164600000 0.0382327571 0.0361745818
v 0.0164600000 0.0390512655 0.0363373932
v 0.0164600000 0.0398415203 0.0366056486
v 0.0164600000 0.0405900000 0.0369747579
v 0.0164600000 0.0412838979 0.0374384057
v 0.0164600000 0.0419113413 0.0379886587
v 0.0164600000 0.0424615943 0.0386161021
v 0.0164600000 0.0429252421 0.0393100000
v 0.0164600000 0.0432943514 0.0400584797
v 0.0164600000 0.0435626068 0.0408487345
v 0.0164600000 0.0437254182 0.0416672429
v 0.0163700000 0.0374000000 0.0425000000
v 0.0164600000 0.0374000000 0.0425000000
vn -0.69267805 0.72124692 0.00000000
vn -0.69267805 0.71507656 0.09414161
vn -0.69267805 0.69667103 0.18667244
vn -0.69267805 0.66634527 0.27600925
vn -0.69267805 0.62461816 0.36062346
vn -0.69267805 0.57220366 0.43906731
vn -0.69267805 0.50999859 0.50999859
vn -0.69267805 0.43906731 0.57220366
vn -0.69267805 0.36062346 0.62461816
vn -0.69267805 0.27600925 0.66634527
vn -0.69267805 0.18667244 0.69667103
vn -0.69267805 0.09414161 0.71507656
vn -0.69267805 -0.00000000 0.72124692
vn -0.69267805 -0.09414161 0.71507656
vn -0.69267805 -0.18667244 0.69667103
vn -0.69267805 -0.27600925 0.66634527
vn -0.69267805 -0.36062346 0.62461816
vn -0.69267805 -0.43906731 0.57220366
vn -0.69267805 -0.50999859 0.50999859
vn -0.69267805 -0.57220366 0.43906731
vn -0.69267805 -0.62461816 0.36062346
vn -0.69267805 -0.66634527 0.27600925
vn -0.69267805 -0.69667103 0.18667244
vn -0.69267805 -0.71507656 0.09414161
vn -0.69267805 -0.72124692 -0.00000000
vn -0.69267805 -0.71507656 -0.09414161
vn -0.69267805 -0.69667103 -0.18667244
vn -0.69267805 -0.66634527 -0.27600925
vn -0.69267805 -0.62461816 -0.36062346
vn -0.69267805 -0.57220366 -0.43906731
vn -0.69267805 -0.50999859 -0.50999859
vn -0.69267805 -0.43906731 -0.57220366
vn -0.69267805 -0.36062346 -0.62461816
vn -0.69267805 -0.27600925 -0.66634527
vn -0.69267805 -0.18667244 -0.69667103
vn -0.69267805 -0.09414161 -0.71507656
vn -0.69267805 0.00000000 -0.72124692
vn -0.69267805 0.09414161 -0.71507656
vn -0.69267805 0.18667244 -0.69667103
vn -0.69267805 0.27600925 -0.66634527
vn -0.69267805 0.36062346 -0.62461816
vn -0.69267805 0.43906731 -0.57220366
vn -0.69267805 0.50999859 -0.50999859
vn -0.69267805 0.57220366 -0.43906731
vn -0.69267805 0.62461816 -0.36062346
vn -0.69267805 0.66634527 -0.27600925
vn -0.69267805 0.69667103 -0.18667244
vn -0.69267805 0.71507656 -0.09414161
vn 0.69267805 0.72124692 0.00000000
vn 0.69267805 0.71507656 0.09414161
vn 0.69267805 0.69667103 0.18667244
vn 0.69267805 0.66634527 0.27600925
vn 0.69267805 0.62461816 0.36062346
vn 0.69267805 0.57220366 0.43906731
vn 0.69267805 0.50999859 0.50999859
vn 0.69267805 0.43906731 0.57220366
vn 0.69267805 0.36062346 0.62461816
vn 0.69267805 0.27600925 0.66634527
vn 0.69267805 0.18667244 0.69667103
vn 0.69267805 0.09414161 0.71507656
vn 0.69267805 -0.00000000 0.72124692
vn 0.69267805 -0.09414161 0.71507656
vn 0.69267805 -0.18667244 0.69667103
vn 0.69267805 -0.27600925 0.66634527
vn 0.69267805 -0.36062346 0.62461816
vn 0.69267805 -0.43906731 0.57220366
vn 0.69267805 -0.50999859 0.50999859
vn 0.69267805 -0.57220366 0.43906731
vn 0.69267805 -0.62461816 0.36062346
vn 0.69267805 -0.66634527 0.27600925
vn 0.69267805 -0.69667103 0.18667244
vn 0.69267805 -0.71507656 0.09414161
vn 0.69267805 -0.72124692 -0.00000000
vn 0.69267805 -0.71507656 -0.09414161
vn 0.69267805 -0.69667103 -0.18667244
vn 0.69267805 -0.66634527 -0.27600925
vn 0.69267805 -0.62461816 -0.36062346
vn 0.69267805 -0.57220366 -0.43906731
vn 0.69267805 -0.50999859 -0.50999859
vn 0.69267805 -0.43906731 -0.57220366
vn 0.69267805 -0.36062346 -0.62461816
vn 0.69267805 -0.27600925 -0.66634527
vn 0.69267805 -0.18667244 -0.69667103
vn 0.69267805 -0.09414161 -0.71507656
vn 0.69267805 0.00000000 -0.72124692
vn 0.69267805 0.09414161 -0.71507656
vn 0.69267805 0.18667244 -0.69667103
vn 0.69267805 0.27600925 -0.66634527
vn 0.69267805 0.36062346 -0.62461816
vn 0.69267805 0.43906731 -0.57220366
vn 0.69267805 0.50999859 -0.50999859
vn 0.69267805 0.57220366 -0.43906731
vn 0.69267805 0.62461816 -0.36062346
vn 0.69267805 0.66634527 -0.27600925
vn 0.69267805 0.69667103 -0.18667244
vn 0.69267805 0.71507656 -0.09414161
vn -1.00000000 0.00000000 0.00000000
vn 1.00000000 0.00000000 -0.00000000
f 50//50 49//49 1//1
f 2//2 50//50 1//1
f 51//51 50//50 2//2
f 3//3 51//51 2//2
f 52//52 51//51 3//3
f 4//4 52//52 3//3
f 53//53 52//52 4//4
f 5//5 53//53 4//4
f 54//54 53//53 5//5
f 6//6 54//54 5//5
f 55//55 54//54 6//6
f 7//7 55//55 6//6
f 56//56 55//55 7//7
f 8//8 56//56 7//7
f 57//57 56//56 8//8
f 9//9 57//57 8//8
f 58//58 57//57 9//9
f 10//10 58//58 9//9
f 59//59 58//58 10//10
f 11//11 59//59 10//10
f 60//60 59//59 11//11
f 12//12 60//60 11//11
f 61//61 60//60 12//12
f 13//13 61//61 12//12
f 62//62 61//61 13//13
f 14//14 62//62 13//13
f 63//63 62//62 14//14
f 15//15 63//63 14//14
f 64//64 63//63 15//15
f 16//16 64//64 15//15
f 65//65 64//64 16//16
f 17//17 65//65 16//16
f 66//66 65//65 17//17
f 18//18 66//66 17//17
f 67//67 66//66 18//18
f 19//19 67//67 18//18
f 68//68 67//67 19//19
f 20//20 68//68 19//19
f 69//69 68//68 20//20
f 21//21 69//69 20//20
f 70//70 69//69 21//21
f 22//22 70//70 21//21
f 71//71 70//70 22//22
f 23//23 71//71 22//22
f 72//72 71//71 23//23
f 24//24 72//72 23//23
f 73//73 72//72 24//24
f 25//25 73//73 24//24
f 74//74 73//73 25//25
f 26//26 74//74 25//25
f 75//75 74//74 26//26
f 27//27 75//75 26//26
f 76//76 75//75 27//27
f 28//28 76//76 27//27
f 77//77 76//76 28//28
f 29//29 77//77 28//28
f 78//78 77//77 29//29
f 30//30 78//78 29//29
f 79//79 78//78 30//30
f 31//31 79//79 30//30
f 80//80 79//79 31//31
f 32//32 80//80 31//31
f 81//81 80//80 32//32
f 33//33 81//81 32//32
f 82//82 81//81 33//33
f 34//34 82//82 33//33
f 83//83 82//82 34//34
f 35//35 83//83 34//34
f 84//84 83//83 35//35
f 36//36 84//84 35//35
f 85//85 84//84 36//36
f 37//37 85//85 36//36
f 86//86 85//85 37//37
f 38//38 86//86 37//37
f 87//87 86//86 38//38
f 39//39 87//87 38//38
f 88//88 87//87 39//39
f 40//40 88//88 39//39
f 89//89 88//88 40//40
f 41//41 89//89 40//40
f 90//90 89//89 41//41
f 42//42 90//90 41//41
f 91//91 90//90 42//42
f 43//43 91//91 42//42
f 92//92 91//91 43//43
f 44//44 92//92 43//43
f 93//93 92//92 44//44
f 45//45 93//93 44//44
f 94//94 93//93 45//45
f 46//46 94//94 45//45
f 95//95 94//94 46//46
f 47//47 95//95 46//46
f 96//96 95//95 47//47
f 48//48 96//96 47//47
f 49//49 96//96 48//48
f 1//1 49//49 48//48
f 2//2 1//1 97//97
f 3//3 2//2 97//97
f 4//4 3//3 97//97
f 5//5 4//4 97//97
f 6//6 5//5 97//97
f 7//7 6//6 97//97
f 8//8 7//7 97//97
f 9//9 8//8 97//97
f 10//10 9//9 97//97
f 11//11 10//10 97//97
f 12//12 11//11 97//97
f 13//13 12//12 97//97
f 14//14 13//13 97//97
f 15//15 14//14 97//97
f 16//16 15//15 97//97
f 17//17 16//16 97//97
f 18//18 17//17 97//97
f 19//19 18//18 97//97
f 20//20 19//19 97//97
f 21//21 20//20 97//97
f 22//22 21//21 97//97
f 23//23 22//22 97//97
f 24//24 23//23 97//97
f 25//25 24//24 97//97
f 26//26 25//25 97//97
f 27//27 26//26 97//97
f 28//28 27//27 97//97
f 29//29 28//28 97//97
f 30//30 29//29 97//97
f 31//31 30//30 97//97
f 32//32 31//31 97//97
f 33//33 32//32 97//97
f 34//34 33//33 97//97
f 35//35 34//34 97//97
f 36//36 35//35 97//97
f 37//37 36//36 97//97
f 38//38 37//37 97//97
f 39//39 38//38 97//97
f 40//40 39//39 97//97
f 41//41 40//40 97//97
f 42//42 41//41 97//97
f 43//43 42//42 97//97
f 44//44 43//43 97//97
f 45//45 44//44 97//97
f 46//46 45//45 97//97
f 47//47 46//46 97//97
f 48//48 47//47 97//97
f 1//1 48//48 97//97
f 98//98 49//49 50//50
f 98//98 50//50 51//51
f 98//98 51//51 52//52
f 98//98 52//52 53//53
f 98//98 53//53 54//54
f 98//98 54//54 55//55
f 98//98 55//55 56//56
f 98//98 56//56 57//57
f 98//98 57//57 58//58
f 98//98 58//58 59//59
f 98//98 59//59 60//60
f 98//98 60//60 61//61
f 98//98 61//61 62//62
f 98//98 62//62 63//63
f 98//98 63//63 64//64
f 98//98 64//64 65//65
f 98//98 65//65 66//66
f 98//98 66//66 67//67
f 98//98 67//67 68//68
f 98//98 68//68 69//69
f 98//98 69//69 70//70
f 98//98 70//70 71//71
f 98//98 71//71 72//72
f 98//98 72//72 73//73
f 98//98 73//73 74//74
f 98//98 74//74 75//75
f 98//98 75//75 76//76
f 98//98 76//76 77//77
f 98//98 77//77 78//78
f 98//98 78//78 79//79
f 98//98 79//79 80//80
f 98//98 80//80 81//81
f 98//98 81//81 82//82
f 98//98 82//82 83//83
f 98//98 83//83 84//84
f 98//98 84//84 85//85
f 98//98 85//85 86//86
f 98//98 86//86 87//87
f 98//98 87//87 88//88
f 98//98 88//88 89//89
f 98//98 89//89 90//90
f 98//98 90//90 91//91
f 98//98 91//91 92//92
f 98//98 92//92 93//93
f 98//98 93//93 94//94
f 98//98 94//94 95//95
f 98//98 95//95 96//96
f 98//98 96//96 49//49
o right_window_ring
v 0.0163700000 -0.0310200000 0.0425000000
v 0.0163700000 -0.0310745818 0.0433327571
v 0.0163700000 -0.0312373932 0.0441512655
v 0.0163700000 -0.0315056486 0.0449415203
v 0.0163700000 -0.0318747579 0.0456900000
v 0.0163700000 -0.0323384057 0.0463838979
v 0.0163700000 -0.0328886587 0.0470113413
v 0.0163700000 -0.0335161021 0.0475615943
v 0.0163700000 -0.0342100000 0.0480252421
v 0.0163700000 -0.0349584797 0.0483943514
v 0.0163700000 -0.0357487345 0.0486626068
v 0.0163700000 -0.0365672429 0.0488254182
v 0.0163700000 -0.0374000000 0.0488800000
v 0.0163700000 -0.0382327571 0.0488254182
v 0.0163700000 -0.0390512655 0.0486626068
v 0.0163700000 -0.0398415203 0.0483943514
v 0.0163700000 -0.0405900000 0.0480252421
v 0.0163700000 -0.0412838979 0.0475615943
v 0.0163700000 -0.0419113413 0.0470113413
v 0.0163700000 -0.0424615943 0.0463838979
v 0.0163700000 -0.0429252421 0.0456900000
v 0.0163700000 -0.0432943514 0.0449415203
v 0.0163700000 -0.0435626068 0.0441512655
v 0.0163700000 -0.0437254182 0.0433327571
v 0.0163700000 -0.0437800000 0.0425000000
v 0.0163700000 -0.0437254182 0.0416672429
v 0.0163700000 -0.0435626068 0.0408487345
v 0.0163700000 -0.0432943514 0.0400584797
v 0.0163700000 -0.0429252421 0.0393100000
v 0.0163700000 -0.0424615943 0.0386161021
v 0.0163700000 -0.0419113413 0.0379886587
v 0.0163700000 -0.0412838979 0.0374384057
v 0.0163700000 -0.0405900000 0.0369747579
v 0.0163700000 -0.0398415203 0.0366056486
v 0.0163700000 -0.0390512655 0.0363373932
v 0.0163700000 -0.0382327571 0.0361745818
v 0.0163700000 -0.0374000000 0.0361200000
v 0.0163700000 -0.0365672429 0.0361745818
v 0.0163700000 -0.0357487345 0.0363373932
v 0.0163700000 -0.0349584797 0.0366056486
v 0.0163700000 -0.0342100000 0.0369747579
v 0.0163700000 -0.0335161021 0.0374384057
v 0.0163700000 -0.0328886587 0.0379886587
v 0.0163700000 -0.0323384057 0.0386161021
v 0.0163700000 -0.0318747579 0.0393100000
v 0.0163700000 -0.0315056486 0.0400584797
v 0.0163700000 -0.0312373932 0.0408487345
v 0.0163700000 -0.0310745818 0.0416672429
v 0.0164600000 -0.0310200000 0.0425000000
v 0.0164600000 -0.0310745818 0.0433327571
v 0.0164600000 -0.0312373932 0.0441512655
v 0.0164600000 -0.0315056486 0.0449415203
v 0.0164600000 -0.0318747579 0.0456900000
v 0.0164600000 -0.0323384057 0.0463838979
v 0.0164600000 -0.0328886587 0.0470113413
v 0.0164600000 -0.0335161021 0.0475615943
v 0.0164600000 -0.0342100000 0.0480252421
v 0.0164600000 -0.0349584797 0.0483943514
v 0.0164600000 -0.0357487345 0.0486626068
v 0.0164600000 -0.0365672429 0.0488254182
v 0.0164600000 -0.0374000000 0.0488800000
v 0.0164600000 -0.0382327571 0.0488254182
v 0.0164600000 -0.0390512655 0.0486626068
v 0.0164600000 -0.0398415203 0.0483943514
v 0.0164600000 -0.0405900000 0.0480252421
v 0.0164600000 -0.0412838979 0.0475615943
v 0.0164600000 -0.0419113413 0.0470113413
v 0.0164600000 -0.0424615943 0.0463838979
v 0.0164600000 -0.0429252421 0.0456900000
v 0.0164600000 -0.0432943514 0.0449415203
v 0.0164600000 -0.0435626068 0.0441512655
v 0.0164600000 -0.0437254182 0.0433327571
v 0.0164600000 -0.0437800000 0.0425000000
v 0.0164600000 -0.0437254182 0.0416672429
v 0.0164600000 -0.0435626068 0.0408487345
v 0.0164600000 -0.0432943514 0.0400584797
v 0.0164600000 -0.0429252421 0.0393100000
v 0.0164600000 -0.0424615943 0.0386161021
v 0.0164600000 -0.0419113413 0.0379886587
v 0.0164600000 -0.0412838979 0.0374384057
v 0.0164600000 -0.0405900000 0.0369747579
v 0.0164600000 -0.0398415203 0.0366056486
v 0.0164600000 -0.0390512655 0.0363373932
v 0.0164600000 -0.0382327571 0.0361745818
v 0.0164600000 -0.0374000000 0.0361200000
v 0.0164600000 -0.0365672429 0.0361745818
v 0.0164600000 -0.0357487345 0.0363373932
v 0.0164600000 -0.0349584797 0.0366056486
v 0.0164600000 -0.0342100000 0.0369747579
v 0.0164600000 -0.0335161021 0.0374384057
v 0.0164600000 -0.0328886587 0.0379886587
v 0.0164600000 -0.0323384057 0.0386161021
v 0.0164600000 -0.0318747579 0.0393100000
v 0.0164600000 -0.0315056486 0.0400584797
v 0.0164600000 -0.0312373932 0.0408487345
v 0.0164600000 -0.0310745818 0.0416672429
v 0.0163700000 -0.0374000000 0.0425000000
v 0.0164600000 -0.0374000000 0.0425000000
vn -0.69267805 0.72124692 0.00000000
vn -0.69267805 0.71507656 0.09414161
vn -0.69267805 0.69667103 0.18667244
vn -0.69267805 0.66634527 0.27600925
vn -0.69267805 0.62461816 0.36062346
vn -0.69267805 0.57220366 0.43906731
vn -0.69267805 0.50999859 0.50999859
vn -0.69267805 0.43906731 0.57220366
vn -0.69267805 0.36062346 0.62461816
vn -0.69267805 0.27600925 0.66634527
vn -0.69267805 0.18667244 0.69667103
vn -0.69267805 0.09414161 0.71507656
vn -0.69267805 -0.00000000 0.72124692
vn -0.69267805 -0.09414161 0.71507656
vn -0.69267805 -0.18667244 0.69667103
vn -0.69267805 -0.27600925 0.66634527
vn -0.69267805 -0.36062346 0.62461816
vn -0.69267805 -0.43906731 0.57220366
vn -0.69267805 -0.50999859 0.50999859
vn -0.69267805 -0.57220366 0.43906731
vn -0.69267805 -0.62461816 0.36062346
vn -0.69267805 -0.66634527 0.27600925
vn -0.69267805 -0.69667103 0.18667244
vn -0.69267805 -0.71507656 0.09414161
vn -0.69267805 -0.72124692 -0.00000000
vn -0.69267805 -0.71507656 -0.09414161
vn -0.69267805 -0.69667103 -0.18667244
vn -0.69267805 -0.66634527 -0.27600925
vn -0.69267805 -0.62461816 -0.36062346
vn -0.69267805 -0.57220366 -0.43906731
vn -0.69267805 -0.50999859 -0.50999859
vn -0.69267805 -0.43906731 -0.57220366
vn -0.69267805 -0.36062346 -0.62461816
vn -0.69267805 -0.27600925 -0.66634527
vn -0.69267805 -0.18667244 -0.69667103
vn -0.69267805 -0.09414161 -0.71507656
vn -0.69267805 0.00000000 -0.72124692
vn -0.69267805 0.09414161 -0.71507656
vn -0.69267805 0.18667244 -0.69667103
vn -0.69267805 0.27600925 -0.66634527
vn -0.69267805 0.36062346 -0.62461816
vn -0.69267805 0.43906731 -0.57220366
vn -0.69267805 0.50999859 -0.50999859
vn -0.69267805 0.57220366 -0.43906731
vn -0.69267805 0.62461816 -0.36062346
vn -0.69267805 0.66634527 -0.27600925
vn -0.69267805 0.69667103 -0.18667244
vn -0.69267805 0.71507656 -0.09414161
vn 0.69267805 0.72124692 0.00000000
vn 0.69267805 0.71507656 0.09414161
vn 0.69267805 0.69667103 0.18667244
vn 0.69267805 0.66634527 0.27600925
vn 0.69267805 0.62461816 0.36062346
vn 0.69267805 0.57220366 0.43906731
vn 0.69267805 0.50999859 0.50999859
vn 0.69267805 0.43906731 0.57220366
vn 0.69267805 0.36062346 0.62461816
vn 0.69267805 0.27600925 0.66634527
vn 0.69267805 0.18667244 0.69667103
vn 0.69267805 0.09414161 0.71507656
vn 0.69267805 -0.00000000 0.72124692
vn 0.69267805 -0.09414161 0.71507656
vn 0.69267805 -0.18667244 0.69667103
vn 0.69267805 -0.27600925 0.66634527
vn 0.69267805 -0.36062346 0.62461816
vn 0.69267805 -0.43906731 0.57220366
vn 0.69267805 -0.50999859 0.50999859
vn 0.69267805 -0.57220366 0.43906731
vn 0.69267805 -0.62461816 0.36062346
vn 0.69267805 -0.66634527 0.27600925
vn 0.69267805 -0.69667103 0.18667244
vn 0.69267805 -0.71507656 0.09414161
vn 0.69267805 -0.72124692 -0.00000000
vn 0.69267805 -0.71507656 -0.09414161
vn 0.69267805 -0.69667103 -0.18667244
vn 0.69267805 -0.66634527 -0.27600925
vn 0.69267805 -0.62461816 -0.36062346
vn 0.69267805 -0.57220366 -0.43906731
vn 0.69267805 -0.50999859 -0.50999859
vn 0.69267805 -0.43906731 -0.57220366
vn 0.69267805 -0.36062346 -0.62461816
vn 0.69267805 -0.27600925 -0.66634527
vn 0.69267805 -0.18667244 -0.69667103
vn 0.69267805 -0.09414161 -0.71507656
vn 0.69267805 0.00000000 -0.72124692
vn 0.69267805 0.09414161 -0.71507656
vn 0.69267805 0.18667244 -0.69667103
vn 0.69267805 0.27600925 -0.66634527
vn 0.69267805 0.36062346 -0.62461816
vn 0.69267805 0.43906731 -0.57220366
vn 0.69267805 0.50999859 -0.50999859
vn 0.69267805 0.57220366 -0.43906731
vn 0.69267805 0.62461816 -0.36062346
vn 0.69267805 0.66634527 -0.27600925
vn 0.69267805 0.69667103 -0.18667244
vn 0.69267805 0.71507656 -0.09414161
vn -1.00000000 0.00000000 0.00000000
vn 1.00000000 0.00000000 -0.00000000
f 148//148 147//147 99//99
f 100//100 148//148 99//99
f 149//149 148//148 100//100
f 101//101 149//149 100//100
f 150//150 149//149 101//101
f 102//102 150//150 101//101
f 151//151 150//150 102//102
f 103//103 151//151 102//102
f 152//152 151//151 103//103
f 104//104 152//152 103//103
f 153//153 152//152 104//104
f 105//105 153//153 104//104
f 154//154 153//153 105//105
f 106//106 154//154 105//105
f 155//155 154//154 106//106
f 107//107 155//155 106//106
f 156//156 155//155 107//107
f 108//108 156//156 107//107
f 157//157 156//156 108//108
f 109//109 157//157 108//108
f 158//158 157//157 109//109
f 110//110 158//158 109//109
f 159//159 158//158 110//110
f 111//111 159//159 110//110
f 160//160 159//159 111//111
f 112//112 160//160 111//111
f 161//161 160//160 112//112
f 113//113 161//161 112//112
f 162//162 161//161 113//113
f 114//114 162//162 113//113
f 163//163 162//162 114//114
f 115//115 163//163 114//114
f 164//164 163//163 115//115
f 116//116 164//164 115//115
f 165//165 164//164 116//116
f 117//117 165//165 116//116
f 166//166 165//165 117//117
f 118//118 166//166 117//117
f 167//167 166//166 118//118
f 119//119 167//167 118//118
f 168//168 167//167 119//119
f 120//120 168//168 119//119
f 169//169 168//168 120//120
f 121//121 169//169 120//120
f 170//170 169//169 121//121
f 122//122 170//170 121//121
f 171//171 170//170 122//122
f 123//123 171//171 122//122
f 172//172 171//171 123//123
f 124//124 172//172 123//123
f 173//173 172//172 124//124
f 125//125 173//173 124//124
f 174//174 173//173 125//125
f 126//126 174//174 125//125
f 175//175 174//174 126//126
f 127//127 175//175 126//126
f 176//176 175//175 127//127
f 128//128 176//176 127//127
f 177//177 176//176 128//128
f 129//129 177//177 128//128
f 178//178 177//177 129//129
f 130//130 178//178 129//129
f 179//179 178//178 130//130
f 131//131 179//179 130//130
f 180//180 179//179 131//131
f 132//132 180//180 131//131
f 181//181 180//180 132//132
f 133//133 181//181 132//132
f 182//182 181//181 133//133
f 134//134 182//182 133//133
f 183//183 182//182 134//134
f 135//135 183//183 134//134
f 184//184 183//183 135//135
f 136//136 184//184 135//135
f 185//185 184//184 136//136
f 137//137 185//185 136//136
f 186//186 185//185 137//137
f 138//138 186//186 137//137
f 187//187 186//186 138//138
f 139//139 187//187 138//138
f 188//188 187//187 139//139
f 140//140 188//188 139//139
f 189//189 188//188 140//140
f 141//141 189//189 140//140
f 190//190 189//189 141//141
f 142//142 190//190 141//141
f 191//191 190//190 142//142
f 143//143 191//191 142//142
f 192//192 191//191 143//143
f 144//144 192//192 143//143
f 193//193 192//192 144//144
f 145//145 193//193 144//144
f 194//194 193//193 145//145
f 146//146 194//194 145//145
f 147//147 194//194 146//146
f 99//99 147//147 146//146
f 100//100 99//99 195//195
f 101//101 100//100 195//195
f 102//102 101//101 195//195
f 103//103 102//102 195//195
f 104//104 103//103 195//195
f 105//105 104//104 195//195
f 106//106 105//105 195//195
f 107//107 106//106 195//195
f 108//108 107//107 195//195
f 109//109 108//108 195//195
f 110//110 109//109 195//195
f 111//111 110//110 195//195
f 112//112 111//111 195//195
f 113//113 112//112 195//195
f 114//114 113//113 195//195
f 115//115 114//114 195//195
f 116//116 115//115 195//195
f 117//117 116//116 195//195
f 118//118 117//117 195//195
f 119//119 118//118 195//195
f 120//120 119//119 195//195
f 121//121 120//120 195//195
f 122//122 121//121 195//195
f 123//123 122//122 195//195
f 124//124 123//123 195//195
f 125//125 124//124 195//195
f 126//126 125//125 195//195
f 127//127 126//126 195//195
f 128//128 127//127 195//195
f 129//129 128//128 195//195
f 130//130 129//129 195//195
f 131//131 130//130 195//195
f 132//132 131//131 195//195
f 133//133 132//132 195//195
f 134//134 133//133 195//195
f 135//135 134//134 195//195
f 136//136 135//135 195//195
f 137//137 136//136 195//195
f 138//138 137//137 195//195
f 139//139 138//138 195//195
f 140//140 139//139 195//195
f 141//141 140//140 195//195
f 142//142 141//141 195//195
f 143//143 142//142 195//195
f 144//144 143//143 195//195
f 145//145 144//144 195//195
f 146//146 145//145 195//195
f 99//99 146//146 195//195
f 196//196 147//147 148//148
f 196//196 148//148 149//149
f 196//196 149//149 150//150
f 196//196 150//150 151//151
f 196//196 151//151 152//152
f 196//196 152//152 153//153
f 196//196 153//153 154//154
f 196//196 154//154 155//155
f 196//196 155//155 156//156
f 196//196 156//156 157//157
f 196//196 157//157 158//158
f 196//196 158//158 159//159
f 196//196 159//159 160//160
f 196//196 160//160 161//161
f 196//196 161//161 162//162
f 196//196 162//162 163//163
f 196//196 163//163 164//164
f 196//196 164//164 165//165
f 196//196 165//165 166//166
f 196//196 166//166 167//167
f 196//196 167//167 168//168
f 196//196 168//168 169//169
f 196//196 169//169 170//170
f 196//196 170//170 171//171
f 196//196 171//171 172//172
f 196//196 172//172 173//173
f 196//196 173//173 174//174
f 196//196 174//174 175//175
f 196//196 175//175 176//176
f 196//196 176//176 177//177
f 196//196 177//177 178//178
f 196//196 178//178 179//179
f 196//196 179//179 180//180
f 196//196 180//180 181//181
f 196//196 181//181 182//182
f 196//196 182//182 183//183
f 196//196 183//183 184//184
f 196//196 184//184 185//185
f 196//196 185//185 186//186
f 196//196 186//186 187//187
f 196//196 187//187 188//188
f 196//196 188//188 189//189
f 196//196 189//189 190//190
f 196//196 190//190 191//191
f 196//196 191//191 192//192
f 196//196 192//192 193//193
f 196//196 193//193 194//194
f 196//196 194//194 147//147
o rgb_window_ring
v 0.0163700000 0.0063800000 0.0425000000
v 0.0163700000 0.0063254182 0.0433327571
v 0.0163700000 0.0061626068 0.0441512655
v 0.0163700000 0.0058943514 0.0449415203
v 0.0163700000 0.0055252421 0.0456900000
v 0.0163700000 0.0050615943 0.0463838979
v 0.0163700000 0.0045113413 0.0470113413
v 0.0163700000 0.0038838979 0.0475615943
v 0.0163700000 0.0031900000 0.0480252421
v 0.0163700000 0.0024415203 0.0483943514
v 0.0163700000 0.0016512655 0.0486626068
v 0.0163700000 0.0008327571 0.0488254182
v 0.0163700000 0.0000000000 0.0488800000
v 0.0163700000 -0.0008327571 0.0488254182
v 0.0163700000 -0.0016512655 0.0486626068
v 0.0163700000 -0.0024415203 0.0483943514
v 0.0163700000 -0.0031900000 0.0480252421
v 0.0163700000 -0.0038838979 0.0475615943
v 0.0163700000 -0.0045113413 0.0470113413
v 0.0163700000 -0.0050615943 0.0463838979
v 0.0163700000 -0.0055252421 0.0456900000
v 0.0163700000 -0.0058943514 0.0449415203
v 0.0163700000 -0.0061626068 0.0441512655
v 0.0163700000 -0.0063254182 0.0433327571
v 0.0163700000 -0.0063800000 0.0425000000
v 0.0163700000 -0.0063254182 0.0416672429
v 0.0163700000 -0.0061626068 0.0408487345
v 0.0163700000 -0.0058943514 0.0400584797
v 0.0163700000 -0.0055252421 0.0393100000
v 0.0163700000 -0.0050615943 0.0386161021
v 0.0163700000 -0.0045113413 0.0379886587
v 0.0163700000 -0.0038838979 0.0374384057
v 0.0163700000 -0.0031900000 0.0369747579
v 0.0163700000 -0.0024415203 0.0366056486
v 0.0163700000 -0.0016512655 0.0363373932
v 0.0163700000 -0.0008327571 0.0361745818
v 0.0163700000 -0.0000000000 0.0361200000
v 0.0163700000 0.0008327571 0.0361745818
v 0.0163700000 0.0016512655 0.0363373932
v 0.0163700000 0.0024415203 0.0366056486
v 0.0163700000 0.0031900000 0.0369747579
v 0.0163700000 0.0038838979 0.0374384057
v 0.0163700000 0.0045113413 0.0379886587
v 0.0163700000 0.0050615943 0.0386161021
v 0.0163700000 0.0055252421 0.0393100000
v 0.0163700000 0.0058943514 0.0400584797
v 0.0163700000 0.0061626068 0.0408487345
v 0.0163700000 0.0063254182 0.0416672429
v 0.0164600000 0.0063800000 0.0425000000
v 0.0164600000 0.0063254182 0.0433327571
v 0.0164600000 0.0061626068 0.0441512655
v 0.0164600000 0.0058943514 0.0449415203
v 0.0164600000 0.0055252421 0.0456900000
v 0.0164600000 0.0050615943 0.0463838979
v 0.0164600000 0.0045113413 0.0470113413
v 0.0164600000 0.0038838979 0.0475615943
v 0.0164600000 0.0031900000 0.0480252421
v 0.0164600000 0.0024415203 0.0483943514
v 0.0164600000 0.0016512655 0.0486626068
v 0.0164600000 0.0008327571 0.0488254182
v 0.0164600000 0.0000000000 0.0488800000
v 0.0164600000 -0.0008327571 0.0488254182
v 0.0164600000 -0.0016512655 0.0486626068
v 0.0164600000 -0.0024415203 0.0483943514
v 0.0164600000 -0.0031900000 0.0480252421
v 0.0164600000 -0.0038838979 0.0475615943
v 0.0164600000 -0.0045113413 0.0470113413
v 0.0164600000 -0.0050615943 0.0463838979
v 0.0164600000 -0.0055252421 0.0456900000
v 0.0164600000 -0.0058943514 0.0449415203
v 0.0164600000 -0.0061626068 0.0441512655
v 0.0164600000 -0.0063254182 0.0433327571
v 0.0164600000 -0.0063800000 0.0425000000
v 0.0164600000 -0.0063254182 0.0416672429
v 0.0164600000 -0.0061626068 0.0408487345
v 0.0164600000 -0.0058943514 0.0400584797
v 0.0164600000 -0.0055252421 0.0393100000
v 0.0164600000 -0.0050615943 0.0386161021
v 0.0164600000 -0.0045113413 0.0379886587
v 0.0164600000 -0.0038838979 0.0374384057
v 0.0164600000 -0.0031900000 0.0369747579
v 0.0164600000 -0.0024415203 0.0366056486
v 0.0164600000 -0.0016512655 0.0363373932
v 0.0164600000 -0.0008327571 0.0361745818
v 0.0164600000 -0.0000000000 0.0361200000
v 0.0164600000 0.0008327571 0.0361745818
v 0.0164600000 0.0016512655 0.0363373932
v 0.0164600000 0.0024415203 0.0366056486
v 0.0164600000 0.0031900000 0.0369747579
v 0.0164600000 0.0038838979 0.0374384057
v 0.0164600000 0.0045113413 0.0379886587
v 0.0164600000 0.0050615943 0.0386161021
v 0.0164600000 0.0055252421 0.0393100000
v 0.0164600000 0.0058943514 0.0400584797
v 0.0164600000 0.0061626068 0.0408487345
v 0.0164600000 0.0063254182 0.0416672429
v 0.0163700000 -0.0000000000 0.0425000000
v 0.0164600000 -0.0000000000 0.0425000000
vn -0.69267805 0.72124692 -0.00000000
vn -0.69267805 0.71507656 0.09414161
vn -0.69267805 0.69667103 0.18667244
vn -0.69267805 0.66634527 0.27600925
vn -0.69267805 0.62461816 0.36062346
vn -0.69267805 0.57220366 0.43906731
vn -0.69267805 0.50999859 0.50999859
vn -0.69267805 0.43906731 0.57220366
vn -0.69267805 0.36062346 0.62461816
vn -0.69267805 0.27600925 0.66634527
vn -0.69267805 0.18667244 0.69667103
vn -0.69267805 0.09414161 0.71507656
vn -0.69267805 -0.00000000 0.72124692
vn -0.69267805 -0.09414161 0.71507656
vn -0.69267805 -0.18667244 0.69667103
vn -0.69267805 -0.27600925 0.66634527
vn -0.69267805 -0.36062346 0.62461816
vn -0.69267805 -0.43906731 0.57220366
vn -0.69267805 -0.50999859 0.50999859
vn -0.69267805 -0.57220366 0.43906731
vn -0.69267805 -0.62461816 0.36062346
vn -0.69267805 -0.66634527 0.27600925
vn -0.69267805 -0.69667103 0.18667244
vn -0.69267805 -0.71507656 0.09414161
vn -0.69267805 -0.72124692 0.00000000
vn -0.69267805 -0.71507656 -0.09414161
vn -0.69267805 -0.69667103 -0.18667244
vn -0.69267805 -0.66634527 -0.27600925
vn -0.69267805 -0.62461816 -0.36062346
vn -0.69267805 -0.57220366 -0.43906731
vn -0.69267805 -0.50999859 -0.50999859
vn -0.69267805 -0.43906731 -0.57220366
vn -0.69267805 -0.36062346 -0.62461816
vn -0.69267805 -0.27600925 -0.66634527
vn -0.69267805 -0.18667244 -0.69667103
vn -0.69267805 -0.09414161 -0.71507656
vn -0.69267805 0.00000000 -0.72124692
vn -0.69267805 0.09414161 -0.71507656
vn -0.69267805 0.18667244 -0.69667103
vn -0.69267805 0.27600925 -0.66634527
vn -0.69267805 0.36062346 -0.62461816
vn -0.69267805 0.43906731 -0.57220366
vn -0.69267805 0.50999859 -0.50999859
vn -0.69267805 0.57220366 -0.43906731
vn -0.69267805 0.62461816 -0.36062346
vn -0.69267805 0.66634527 -0.27600925
vn -0.69267805 0.69667103 -0.18667244
vn -0.69267805 0.71507656 -0.09414161
vn 0.69267805 0.72124692 -0.00000000
vn 0.69267805 0.71507656 0.09414161
vn 0.69267805 0.69667103 0.18667244
vn 0.69267805 0.66634527 0.27600925
vn 0.69267805 0.62461816 0.36062346
vn 0.69267805 0.57220366 0.43906731
vn 0.69267805 0.50999859 0.50999859
vn 0.69267805 0.43906731 0.57220366
vn 0.69267805 0.36062346 0.62461816
vn 0.69267805 0.27600925 0.66634527
vn 0.69267805 0.18667244 0.69667103
vn 0.69267805 0.09414161 0.71507656
vn 0.69267805 -0.00000000 0.72124692
vn 0.69267805 -0.09414161 0.71507656
vn 0.69267805 -0.18667244 0.69667103
vn 0.69267805 -0.27600925 0.66634527
vn 0.69267805 -0.36062346 0.62461816
vn 0.69267805 -0.43906731 0.57220366
vn 0.69267805 -0.50999859 0.50999859
vn 0.69267805 -0.57220366 0.43906731
vn 0.69267805 -0.62461816 0.36062346
vn 0.69267805 -0.66634527 0.27600925
vn 0.69267805 -0.69667103 0.18667244
vn 0.69267805 -0.71507656 0.09414161
vn 0.69267805 -0.72124692 0.00000000
vn 0.69267805 -0.71507656 -0.09414161
vn 0.69267805 -0.69667103 -0.18667244
vn 0.69267805 -0.66634527 -0.27600925
vn 0.69267805 -0.62461816 -0.36062346
vn 0.69267805 -0.57220366 -0.43906731
vn 0.69267805 -0.50999859 -0.50999859
vn 0.69267805 -0.43906731 -0.57220366
vn 0.69267805 -0.36062346 -0.62461816
vn 0.69267805 -0.27600925 -0.66634527
vn 0.69267805 -0.18667244 -0.69667103
vn 0.69267805 -0.09414161 -0.71507656
vn 0.69267805 0.00000000 -0.72124692
vn 0.69267805 0.09414161 -0.71507656
vn 0.69267805 0.18667244 -0.69667103
vn 0.69267805 0.27600925 -0.66634527
vn 0.69267805 0.36062346 -0.62461816
vn 0.69267805 0.43906731 -0.57220366
vn 0.69267805 0.50999859 -0.50999859
vn 0.69267805 0.57220366 -0.43906731
vn 0.69267805 0.62461816 -0.36062346
vn 0.69267805 0.66634527 -0.27600925
vn 0.69267805 0.69667103 -0.18667244
vn 0.69267805 0.71507656 -0.09414161
vn -1.00000000 0.00000000 0.00000000
vn 1.00000000 -0.00000000 -0.00000000
f 246//246 245//245 197//197
f 198//198 246//246 197//197
f 247//247 246//246 198//198
f 199//199 247//247 198//198
f 248//248 247//247 199//199
f 200//200 248//248 199//199
f 249//249 248//248 200//200
f 201//201 249//249 200//200
f 250//250 249//249 201//201
f 202//202 250//250 201//201
f 251//251 250//250 202//202
f 203//203 251//251 202//202
f 252//252 251//251 203//203
f 204//204 252//252 203//203
f 253//253 252//252 204//204
f 205//205 253//253 204//204
f 254//254 253//253 205//205
f 206//206 254//254 205//205
f 255//255 254//254 206//206
f 207//207 255//255 206//206
f 256//256 255//255 207//207
f 208//208 256//256 207//207
f 257//257 256//256 208//208
f 209//209 257//257 208//208
f 258//258 257//257 209//209
f 210//210 258//258 209//209
f 259//259 258//258 210//210
f 211//211 259//259 210//210
f 260//260 259//259 211//211
f 212//212 260//260 211//211
f 261//261 260//260 212//212
f 213//213 261//261 212//212
f 262//262 261//261 213//213
f 214//214 262//262 213//213
f 263//263 262//262 214//214
f 215//215 263//263 214//214
f 264//264 263//263 215//215
f 216//216 264//264 215//215
f 265//265 264//264 216//216
f 217//217 265//265 216//216
f 266//266 265//265 217//217
f 218//218 266//266 217//217
f 267//267 266//266 218//218
f 219//219 267//267 218//218
f 268//268 267//267 219//219
f 220//220 268//268 219//219
f 269//269 268//268 220//220
f 221//221 269//269 220//220
f 270//270 269//269 221//221
f 222//222 270//270 221//221
f 271//271 270//270 222//222
f 223//223 271//271 222//222
f 272//272 271//271 223//223
f 224//224 272//272 223//223
f 273//273 272//272 224//224
f 225//225 273//273 224//224
f 274//274 273//273 225//225
f 226//226 274//274 225//225
f 275//275 274//274 226//226
f 227//227 275//275 226//226
f 276//276 275//275 227//227
f 228//228 276//276 227//227
f 277//277 276//276 228//228
f 229//229 277//277 228//228
f 278//278 277//277 229//229
f 230//230 278//278 229//229
f 279//279 278//278 230//230
f 231//231 279//279 230//230
f 280//280 279//279 231//231
f 232//232 280//280 231//231
f 281//281 280//280 232//232
f 233//233 281//281 232//232
f 282//282 281//281 233//233
f 234//234 282//282 233//233
f 283//283 282//282 234//234
f 235//235 283//283 234//234
f 284//284 283//283 235//235
f 236//236 284//284 235//235
f 285//285 284//284 236//236
f 237//237 285//285 236//236
f 286//286 285//285 237//237
f 238//238 286//286 237//237
f 287//287 286//286 238//238
f 239//239 287//287 238//238
f 288//288 287//287 239//239
f 240//240 288//288 239//239
f 289//289 288//288 240//240
f 241//241 289//289 240//240
f 290//290 289//289 241//241
f 242//242 290//290 241//241
f 291//291 290//290 242//242
f 243//243 291//291 242//242
f 292//292 291//291 243//243
f 244//244 292//292 243//243
f 245//245 292//292 244//244
f 197//197 245//245 244//244
f 198//198 197//197 293//293
f 199//199 198//198 293//293
f 200//200 199//199 293//293
f 201//201 200//200 293//293
f 202//202 201//201 293//293
f 203//203 202//202 293//293
f 204//204 203//203 293//293
f 205//205 204//204 293//293
f 206//206 205//205 293//293
f 207//207 206//206 293//293
f 208//208 207//207 293//293
f 209//209 208//208 293//293
f 210//210 209//209 293//293
f 211//211 210//210 293//293
f 212//212 211//211 293//293
f 213//213 212//212 293//293
f 214//214 213//213 293//293
f 215//215 214//214 293//293
f 216//216 215//215 293//293
f 217//217 216//216 293//293
f 218//218 217//217 293//293
f 219//219 218//218 293//293
f 220//220 219//219 293//293
f 221//221 220//220 293//293
f 222//222 221//221 293//293
f 223//223 222//222 293//293
f 224//224 223//223 293//293
f 225//225 224//224 293//293
f 226//226 225//225 293//293
f 227//227 226//226 293//293
f 228//228 227//227 293//293
f 229//229 228//228 293//293
f 230//230 229//229 293//293
f 231//231 230//230 293//293
f 232//232 231//231 293//293
f 233//233 232//232 293//293
f 234//234 233//233 293//293
f 235//235 234//234 293//293
f 236//236 235//235 293//293
f 237//237 236//236 293//293
f 238//238 237//237 293//293
f 239//239 238//238 293//293
f 240//240 239//239 293//293
f 241//241 240//240 293//293
f 242//242 241//241 293//293
f 243//243 242//242 293//293
f 244//244 243//243 293//293
f 197//197 244//244 293//293
f 294//294 245//245 246//246
f 294//294 246//246 247//247
f 294//294 247//247 248//248
f 294//294 248//248 249//249
f 294//294 249//249 250//250
f 294//294 250//250 251//251
f 294//294 251//251 252//252
f 294//294 252//252 253//253
f 294//294 253//253 254//254
f 294//294 254//254 255//255
f 294//294 255//255 256//256
f 294//294 256//256 257//257
f 294//294 257//257 258//258
f 294//294 258//258 259//259
f 294//294 259//259 260//260
f 294//294 260//260 261//261
f 294//294 261//261 262//262
f 294//294 262//262 263//263
f 294//294 263//263 264//264
f 294//294 264//264 265//265
f 294//294 265//265 266//266
f 294//294 266//266 267//267
f 294//294 267//267 268//268
f 294//294 268//268 269//269
f 294//294 269//269 270//270
f 294//294 270//270 271//271
f 294//294 271//271 272//272
f 294//294 272//272 273//273
f 294//294 273//273 274//274
f 294//294 274//274 275//275
f 294//294 275//275 276//276
f 294//294 276//276 277//277
f 294//294 277//277 278//278
f 294//294 278//278 279//279
f 294//294 279//279 280//280
f 294//294 280//280 281//281
f 294//294 281//281 282//282
f 294//294 282//282 283//283
f 294//294 283//283 284//284
f 294//294 284//284 285//285
f 294//294 285//285 286//286
f 294//294 286//286 287//287
f 294//294 287//287 288//288
f 294//294 288//288 289//289
f 294//294 289//289 290//290
f 294//294 290//290 291//291
f 294//294 291//291 292//292
f 294//294 292//292 245//245
