# Independent procedural camera geometry; meters; Z up
o mount_insert_recess
v 0.0000000000 0.0000000000 0.0001180000
v -0.0027000000 0.0000000000 0.0001180000
v -0.0026869988 0.0002646463 0.0001180000
v -0.0026481203 0.0005267439 0.0001180000
v -0.0025837389 0.0007837686 0.0001180000
v -0.0024944747 0.0010332453 0.0001180000
v -0.0023811874 0.0012727712 0.0001180000
v -0.0022449680 0.0015000396 0.0001180000
v -0.0020871282 0.0017128619 0.0001180000
v -0.0019091883 0.0019091883 0.0001180000
v -0.0017128619 0.0020871282 0.0001180000
v -0.0015000396 0.0022449680 0.0001180000
v -0.0012727712 0.0023811874 0.0001180000
v -0.0010332453 0.0024944747 0.0001180000
v -0.0007837686 0.0025837389 0.0001180000
v -0.0005267439 0.0026481203 0.0001180000
v -0.0002646463 0.0026869988 0.0001180000
v -0.0000000000 0.0027000000 0.0001180000
v 0.0002646463 0.0026869988 0.0001180000
v 0.0005267439 0.0026481203 0.0001180000
v 0.0007837686 0.0025837389 0.0001180000
v 0.0010332453 0.0024944747 0.0001180000
v 0.0012727712 0.0023811874 0.0001180000
v 0.0015000396 0.0022449680 0.0001180000
v 0.0017128619 0.0020871282 0.0001180000
v 0.0019091883 0.0019091883 0.0001180000
v 0.0020871282 0.0017128619 0.0001180000
v 0.0022449680 0.0015000396 0.0001180000
v 0.0023811874 0.0012727712 0.0001180000
v 0.0024944747 0.0010332453 0.0001180000
v 0.0025837389 0.0007837686 0.0001180000
v 0.0026481203 0.0005267439 0.0001180000
v 0.0026869988 0.0002646463 0.0001180000
v 0.0027000000 0.0000000000 0.0001180000
v 0.0026869988 -0.0002646463 0.0001180000
v 0.0026481203 -0.0005267439 0.0001180000
v 0.0025837389 -0.0007837686 0.0001180000
v 0.0024944747 -0.0010332453 0.0001180000
v 0.0023811874 -0.0012727712 0.0001180000
v 0.0022449680 -0.0015000396 0.0001180000
v 0.0020871282 -0.0017128619 0.0001180000
v 0.0019091883 -0.0019091883 0.0001180000
v 0.0017128619 -0.0020871282 0.0001180000
v 0.0015000396 -0.0022449680 0.0001180000
v 0.0012727712 -0.0023811874 0.0001180000
v 0.0010332453 -0.0024944747 0.0001180000
v 0.0007837686 -0.0025837389 0.0001180000
v 0.0005267439 -0.0026481203 0.0001180000
v 0.0002646463 -0.0026869988 0.0001180000
v 0.0000000000 -0.0027000000 0.0001180000
v -0.0002646463 -0.0026869988 0.0001180000
v -0.0005267439 -0.0026481203 0.0001180000
v -0.0007837686 -0.0025837389 0.0001180000
v -0.0010332453 -0.0024944747 0.0001180000
v -0.0012727712 -0.0023811874 0.0001180000
v -0.0015000396 -0.0022449680 0.0001180000
v -0.0017128619 -0.0020871282 0.0001180000
v -0.0019091883 -0.0019091883 0.0001180000
v -0.0020871282 -0.0017128619 0.0001180000
v -0.0022449680 -0.0015000396 0.0001180000
v -0.0023811874 -0.0012727712 0.0001180000
v -0.0024944747 -0.0010332453 0.0001180000
v -0.0025837389 -0.0007837686 0.0001180000
v -0.0026481203 -0.0005267439 0.0001180000
v -0.0026869988 -0.0002646463 0.0001180000
v -0.0027000000 0.0000000000 0.0001180000
v -0.0026869988 0.0002646463 0.0001180000
v -0.0026481203 0.0005267439 0.0001180000
v -0.0025837389 0.0007837686 0.0001180000
v -0.0024944747 0.0010332453 0.0001180000
v -0.0023811874 0.0012727712 0.0001180000
v -0.0022449680 0.0015000396 0.0001180000
v -0.0020871282 0.0017128619 0.0001180000
v -0.0019091883 0.0019091883 0.0001180000
v -0.0017128619 0.0020871282 0.0001180000
v -0.0015000396 0.0022449680 0.0001180000
v -0.0012727712 0.0023811874 0.0001180000
v -0.0010332453 0.0024944747 0.0001180000
v -0.0007837686 0.0025837389 0.0001180000
v -0.0005267439 0.0026481203 0.0001180000
v -0.0002646463 0.0026869988 0.0001180000
v -0.0000000000 0.0027000000 0.0001180000
v 0.0002646463 0.0026869988 0.0001180000
v 0.0005267439 0.0026481203 0.0001180000
v 0.0007837686 0.0025837389 0.0001180000
v 0.0010332453 0.0024944747 0.0001180000
v 0.0012727712 0.0023811874 0.0001180000
v 0.0015000396 0.0022449680 0.0001180000
v 0.0017128619 0.0020871282 0.0001180000
v 0.0019091883 0.0019091883 0.0001180000
v 0.0020871282 0.0017128619 0.0001180000
v 0.0022449680 0.0015000396 0.0001180000
v 0.0023811874 0.0012727712 0.0001180000
v 0.0024944747 0.0010332453 0.0001180000
v 0.0025837389 0.0007837686 0.0001180000
v 0.0026481203 0.0005267439 0.0001180000
v 0.0026869988 0.0002646463 0.0001180000
v 0.0027000000 0.0000000000 0.0001180000
v 0.0026869988 -0.0002646463 0.0001180000
v 0.0026481203 -0.0005267439 0.0001180000
v 0.0025837389 -0.0007837686 0.0001180000
v 0.0024944747 -0.0010332453 0.0001180000
v 0.0023811874 -0.0012727712 0.0001180000
v 0.0022449680 -0.0015000396 0.0001180000
v 0.0020871282 -0.0017128619 0.0001180000
v 0.0019091883 -0.0019091883 0.0001180000
v 0.0017128619 -0.0020871282 0.0001180000
v 0.0015000396 -0.0022449680 0.0001180000
v 0.0012727712 -0.0023811874 0.0001180000
v 0.0010332453 -0.0024944747 0.0001180000
v 0.0007837686 -0.0025837389 0.0001180000
v 0.0005267439 -0.0026481203 0.0001180000
v 0.0002646463 -0.0026869988 0.0001180000
v 0.0000000000 -0.0027000000 0.0001180000
v -0.0002646463 -0.0026869988 0.0001180000
v -0.0005267439 -0.0026481203 0.0001180000
v -0.0007837686 -0.0025837389 0.0001180000
v -0.0010332453 -0.0024944747 0.0001180000
v -0.0012727712 -0.0023811874 0.0001180000
v -0.0015000396 -0.0022449680 0.0001180000
v -0.0017128619 -0.0020871282 0.0001180000
v -0.0019091883 -0.0019091883 0.0001180000
v -0.0020871282 -0.0017128619 0.0001180000
v -0.0022449680 -0.0015000396 0.0001180000
v -0.0023811874 -0.0012727712 0.0001180000
v -0.0024944747 -0.0010332453 0.0001180000
v -0.0025837389 -0.0007837686 0.0001180000
v -0.0026481203 -0.0005267439 0.0001180000
v -0.0026869988 -0.0002646463 0.0001180000
v -0.0027000000 0.0000000000 0.0001100000
v -0.0026869988 0.0002646463 0.0001100000
v -0.0026481203 0.0005267439 0.0001100000
v -0.0025837389 0.0007837686 0.0001100000
v -0.0024944747 0.0010332453 0.0001100000
v -0.0023811874 0.0012727712 0.0001100000
v -0.0022449680 0.0015000396 0.0001100000
v -0.0020871282 0.0017128619 0.0001100000
v -0.0019091883 0.0019091883 0.0001100000
v -0.0017128619 0.0020871282 0.0001100000
v -0.0015000396 0.0022449680 0.0001100000
v -0.0012727712 0.0023811874 0.0001100000
v -0.0010332453 0.0024944747 0.0001100000
v -0.0007837686 0.0025837389 0.0001100000
v -0.0005267439 0.0026481203 0.0001100000
v -0.0002646463 0.0026869988 0.0001100000
v -0.0000000000 0.0027000000 0.0001100000
v 0.0002646463 0.0026869988 0.0001100000
v 0.0005267439 0.0026481203 0.0001100000
v 0.0007837686 0.0025837389 0.0001100000
v 0.0010332453 0.0024944747 0.0001100000
v 0.0012727712 0.0023811874 0.0001100000
v 0.0015000396 0.0022449680 0.0001100000
v 0.0017128619 0.0020871282 0.0001100000
v 0.0019091883 0.0019091883 0.0001100000
v 0.0020871282 0.0017128619 0.0001100000
v 0.0022449680 0.0015000396 0.0001100000
v 0.0023811874 0.0012727712 0.0001100000
v 0.0024944747 0.0010332453 0.0001100000
v 0.0025837389 0.0007837686 0.0001100000
v 0.0026481203 0.0005267439 0.0001100000
v 0.0026869988 0.0002646463 0.0001100000
v 0.0027000000 0.0000000000 0.0001100000
v 0.0026869988 -0.0002646463 0.0001100000
v 0.0026481203 -0.0005267439 0.0001100000
v 0.0025837389 -0.0007837686 0.0001100000
v 0.0024944747 -0.0010332453 0.0001100000
v 0.0023811874 -0.0012727712 0.0001100000
v 0.0022449680 -0.0015000396 0.0001100000
v 0.0020871282 -0.0017128619 0.0001100000
v 0.0019091883 -0.0019091883 0.0001100000
v 0.0017128619 -0.0020871282 0.0001100000
v 0.0015000396 -0.0022449680 0.0001100000
v 0.0012727712 -0.0023811874 0.0001100000
v 0.0010332453 -0.0024944747 0.0001100000
v 0.0007837686 -0.0025837389 0.0001100000
v 0.0005267439 -0.0026481203 0.0001100000
v 0.0002646463 -0.0026869988 0.0001100000
v 0.0000000000 -0.0027000000 0.0001100000
v -0.0002646463 -0.0026869988 0.0001100000
v -0.0005267439 -0.0026481203 0.0001100000
v -0.0007837686 -0.0025837389 0.0001100000
v -0.0010332453 -0.0024944747 0.0001100000
v -0.0012727712 -0.0023811874 0.0001100000
v -0.0015000396 -0.0022449680 0.0001100000
v -0.0017128619 -0.0020871282 0.0001100000
v -0.0019091883 -0.0019091883 0.0001100000
v -0.0020871282 -0.0017128619 0.0001100000
v -0.0022449680 -0.0015000396 0.0001100000
v -0.0023811874 -0.0012727712 0.0001100000
v -0.0024944747 -0.0010332453 0.0001100000
v -0.0025837389 -0.0007837686 0.0001100000
v -0.0026481203 -0.0005267439 0.0001100000
v -0.0026869988 -0.0002646463 0.0001100000
v -0.0027000000 0.0000000000 0.0001100000
v -0.0026869988 0.0002646463 0.0001100000
v -0.0026481203 0.0005267439 0.0001100000
v -0.0025837389 0.0007837686 0.0001100000
v -0.0024944747 0.0010332453 0.0001100000
v -0.0023811874 0.0012727712 0.0001100000
v -0.0022449680 0.0015000396 0.0001100000
v -0.0020871282 0.0017128619 0.0001100000
v -0.0019091883 0.0019091883 0.0001100000
v -0.0017128619 0.0020871282 0.0001100000
v -0.0015000396 0.0022449680 0.0001100000
v -0.0012727712 0.0023811874 0.0001100000
v -0.0010332453 0.0024944747 0.0001100000
v -0.0007837686 0.0025837389 0.0001100000
v -0.0005267439 0.0026481203 0.0001100000
v -0.0002646463 0.0026869988 0.0001100000
v -0.0000000000 0.0027000000 0.0001100000
v 0.0002646463 0.0026869988 0.0001100000
v 0.0005267439 0.0026481203 0.0001100000
v 0.0007837686 0.0025837389 0.0001100000
v 0.0010332453 0.0024944747 0.0001100000
v 0.0012727712 0.0023811874 0.0001100000
v 0.0015000396 0.0022449680 0.0001100000
v 0.0017128619 0.0020871282 0.0001100000
v 0.0019091883 0.0019091883 0.0001100000
v 0.0020871282 0.0017128619 0.0001100000
v 0.0022449680 0.0015000396 0.0001100000
v 0.0023811874 0.0012727712 0.0001100000
v 0.0024944747 0.0010332453 0.0001100000
v 0.0025837389 0.0007837686 0.0001100000
v 0.0026481203 0.0005267439 0.0001100000
v 0.0026869988 0.0002646463 0.0001100000
v 0.0027000000 0.0000000000 0.0001100000
v 0.0026869988 -0.0002646463 0.0001100000
v 0.0026481203 -0.0005267439 0.0001100000
v 0.0025837389 -0.0007837686 0.0001100000
v 0.0024944747 -0.0010332453 0.0001100000
v 0.0023811874 -0.0012727712 0.0001100000
v 0.0022449680 -0.0015000396 0.0001100000
v 0.0020871282 -0.0017128619 0.0001100000
v 0.0019091883 -0.0019091883 0.0001100000
v 0.0017128619 -0.0020871282 0.0001100000
v 0.0015000396 -0.0022449680 0.0001100000
v 0.0012727712 -0.0023811874 0.0001100000
v 0.0010332453 -0.0024944747 0.0001100000
v 0.0007837686 -0.0025837389 0.0001100000
v 0.0005267439 -0.0026481203 0.0001100000
v 0.0002646463 -0.0026869988 0.0001100000
v 0.0000000000 -0.0027000000 0.0001100000
v -0.0002646463 -0.0026869988 0.0001100000
v -0.0005267439 -0.0026481203 0.0001100000
v -0.0007837686 -0.0025837389 0.0001100000
v -0.0010332453 -0.0024944747 0.0001100000
v -0.0012727712 -0.0023811874 0.0001100000
v -0.0015000396 -0.0022449680 0.0001100000
v -0.0017128619 -0.0020871282 0.0001100000
v -0.0019091883 -0.0019091883 0.0001100000
v -0.0020871282 -0.0017128619 0.0001100000
v -0.0022449680 -0.0015000396 0.0001100000
v -0.0023811874 -0.0012727712 0.0001100000
v -0.0024944747 -0.0010332453 0.0001100000
v -0.0025837389 -0.0007837686 0.0001100000
v -0.0026481203 -0.0005267439 0.0001100000
v -0.0026869988 -0.0002646463 0.0001100000
v 0.0000000000 0.0000000000 0.0001100000
vn 0.00000000 0.00000000 1.00000000
vn 0.00000000 0.00000000 1.00000000
vn 0.00000000 0.00000000 1.00000000
vn 0.00000000 0.00000000 1.00000000
vn 0.00000000 0.00000000 1.00000000
vn 0.00000000 0.00000000 1.00000000
vn 0.00000000 0.00000000 1.00000000
vn 0.00000000 0.00000000 1.00000000
vn 0.00000000 0.00000000 1.00000000
vn 0.00000000 0.00000000 1.00000000
vn 0.00000000 0.00000000 1.00000000
vn 0.00000000 0.00000000 1.00000000
vn 0.00000000 0.00000000 1.00000000
vn 0.00000000 0.00000000 1.00000000
vn 0.00000000 0.00000000 1.00000000
vn 0.00000000 0.00000000 1.00000000
vn 0.00000000 0.00000000 1.00000000
vn 0.00000000 0.00000000 1.00000000
vn 0.00000000 0.00000000 1.00000000
vn 0.00000000 0.00000000 1.00000000
vn 0.00000000 0.00000000 1.00000000
vn 0.00000000 0.00000000 1.00000000
vn 0.00000000 0.00000000 1.00000000
vn 0.00000000 0.00000000 1.00000000
vn 0.00000000 0.00000000 1.00000000
vn 0.00000000 0.00000000 1.00000000
vn 0.00000000 0.00000000 1.00000000
vn 0.00000000 0.00000000 1.00000000
vn 0.00000000 0.00000000 1.00000000
vn 0.00000000 0.00000000 1.00000000
vn 0.00000000 0.00000000 1.00000000
vn 0.00000000 0.00000000 1.00000000
vn 0.00000000 0.00000000 1.00000000
vn 0.00000000 0.00000000 1.00000000
vn 0.00000000 0.00000000 1.00000000
vn 0.00000000 0.00000000 1.00000000
vn 0.00000000 0.00000000 1.00000000
vn 0.00000000 0.00000000 1.00000000
vn 0.00000000 0.00000000 1.00000000
vn 0.00000000 0.00000000 1.00000000
vn 0.00000000 0.00000000 1.00000000
vn 0.00000000 0.00000000 1.00000000
vn 0.00000000 0.00000000 1.00000000
vn 0.00000000 0.00000000 1.00000000
vn 0.00000000 0.00000000 1.00000000
vn 0.00000000 0.00000000 1.00000000
vn 0.00000000 0.00000000 1.00000000
vn 0.00000000 0.00000000 1.00000000
vn 0.00000000 0.00000000 1.00000000
vn 0.00000000 0.00000000 1.00000000
vn 0.00000000 0.00000000 1.00000000
vn 0.00000000 0.00000000 1.00000000
vn 0.00000000 0.00000000 1.00000000
vn 0.00000000 0.00000000 1.00000000
vn 0.00000000 0.00000000 1.00000000
vn 0.00000000 0.00000000 1.00000000
vn 0.00000000 0.00000000 1.00000000
vn 0.00000000 0.00000000 1.00000000
vn 0.00000000 0.00000000 1.00000000
vn 0.00000000 0.00000000 1.00000000
vn 0.00000000 0.00000000 1.00000000
vn 0.00000000 0.00000000 1.00000000
vn 0.00000000 0.00000000 1.00000000
vn 0.00000000 0.00000000 1.00000000
vn 0.00000000 0.00000000 1.00000000
vn -1.00000000 0.00000000 0.00000000
vn -0.99518473 0.09801714 0.00000000
vn -0.98078528 0.19509032 0.00000000
vn -0.95694034 0.29028468 0.00000000
vn -0.92387953 0.38268343 0.00000000
vn -0.88192126 0.47139674 0.00000000
vn -0.83146961 0.55557023 0.00000000
vn -0.77301045 0.63439328 0.00000000
vn -0.70710678 0.70710678 0.00000000
vn -0.63439328 0.77301045 0.00000000
vn -0.55557023 0.83146961 0.00000000
vn -0.47139674 0.88192126 0.00000000
vn -0.38268343 0.92387953 0.00000000
vn -0.29028468 0.95694034 0.00000000
vn -0.19509032 0.98078528 0.00000000
vn -0.09801714 0.99518473 0.00000000
vn -0.00000000 1.00000000 0.00000000
vn 0.09801714 0.99518473 0.00000000
vn 0.19509032 0.98078528 0.00000000
vn 0.29028468 0.95694034 0.00000000
vn 0.38268343 0.92387953 0.00000000
vn 0.47139674 0.88192126 0.00000000
vn 0.55557023 0.83146961 0.00000000
vn 0.63439328 0.77301045 0.00000000
vn 0.70710678 0.70710678 0.00000000
vn 0.77301045 0.63439328 0.00000000
vn 0.83146961 0.55557023 0.00000000
vn 0.88192126 0.47139674 0.00000000
vn 0.92387953 0.38268343 0.00000000
vn 0.95694034 0.29028468 0.00000000
vn 0.98078528 0.19509032 0.00000000
vn 0.99518473 0.09801714 0.00000000
vn 1.00000000 0.00000000 0.00000000
vn 0.99518473 -0.09801714 0.00000000
vn 0.98078528 -0.19509032 0.00000000
vn 0.95694034 -0.29028468 0.00000000
vn 0.92387953 -0.38268343 0.00000000
vn 0.88192126 -0.47139674 0.00000000
vn 0.83146961 -0.55557023 0.00000000
vn 0.77301045 -0.63439328 0.00000000
vn 0.70710678 -0.70710678 0.00000000
vn 0.63439328 -0.77301045 0.00000000
vn 0.55557023 -0.83146961 0.00000000
vn 0.47139674 -0.88192126 0.00000000
vn 0.38268343 -0.92387953 0.00000000
vn 0.29028468 -0.95694034 0.00000000
vn 0.19509032 -0.98078528 0.00000000
vn 0.09801714 -0.99518473 0.00000000
vn -0.00000000 -1.00000000 0.00000000
vn -0.09801714 -0.99518473 0.00000000
vn -0.19509032 -0.98078528 0.00000000
vn -0.29028468 -0.95694034 0.00000000
vn -0.38268343 -0.92387953 0.00000000
vn -0.47139674 -0.88192126 0.00000000
vn -0.55557023 -0.83146961 0.00000000
vn -0.63439328 -0.77301045 0.00000000
vn -0.70710678 -0.70710678 0.00000000
vn -0.77301045 -0.63439328 0.00000000
vn -0.83146961 -0.55557023 0.00000000
vn -0.88192126 -0.47139674 0.00000000
vn -0.92387953 -0.38268343 0.00000000
vn -0.95694034 -0.29028468 0.00000000
vn -0.98078528 -0.19509032 0.00000000
vn -0.99518473 -0.09801714 0.00000000
vn -1.00000000 0.00000000 0.00000000
vn -0.99518473 0.09801714 0.00000000
vn -0.98078528 0.19509032 0.00000000
vn -0.95694034 0.29028468 0.00000000
vn -0.92387953 0.38268343 0.00000000
vn -0.88192126 0.47139674 0.00000000
vn -0.83146961 0.55557023 0.00000000
vn -0.77301045 0.63439328 0.00000000
vn -0.70710678 0.70710678 0.00000000
vn -0.63439328 0.77301045 0.00000000
vn -0.55557023 0.83146961 0.00000000
vn -0.47139674 0.88192126 0.00000000
vn -0.38268343 0.92387953 0.00000000
vn -0.29028468 0.95694034 0.00000000
vn -0.19509032 0.98078528 0.00000000
vn -0.09801714 0.99518473 0.00000000
vn -0.00000000 1.00000000 0.00000000
vn 0.09801714 0.99518473 0.00000000
vn 0.19509032 0.98078528 0.00000000
vn 0.29028468 0.95694034 0.00000000
vn 0.38268343 0.92387953 0.00000000
vn 0.47139674 0.88192126 0.00000000
vn 0.55557023 0.83146961 0.00000000
vn 0.63439328 0.77301045 0.00000000
vn 0.70710678 0.70710678 0.00000000
vn 0.77301045 0.63439328 0.00000000
vn 0.83146961 0.55557023 0.00000000
vn 0.88192126 0.47139674 0.00000000
vn 0.92387953 0.38268343 0.00000000
vn 0.95694034 0.29028468 0.00000000
vn 0.98078528 0.19509032 0.00000000
vn 0.99518473 0.09801714 0.00000000
vn 1.00000000 0.00000000 0.00000000
vn 0.99518473 -0.09801714 0.00000000
vn 0.98078528 -0.19509032 0.00000000
vn 0.95694034 -0.29028468 0.00000000
vn 0.92387953 -0.38268343 0.00000000
vn 0.88192126 -0.47139674 0.00000000
vn 0.83146961 -0.55557023 0.00000000
vn 0.77301045 -0.63439328 0.00000000
vn 0.70710678 -0.70710678 0.00000000
vn 0.63439328 -0.77301045 0.00000000
vn 0.55557023 -0.83146961 0.00000000
vn 0.47139674 -0.88192126 0.00000000
vn 0.38268343 -0.92387953 0.00000000
vn 0.29028468 -0.95694034 0.00000000
vn 0.19509032 -0.98078528 0.00000000
vn 0.09801714 -0.99518473 0.00000000
vn -0.00000000 -1.00000000 0.00000000
vn -0.09801714 -0.99518473 0.00000000
vn -0.19509032 -0.98078528 0.00000000
vn -0.29028468 -0.95694034 0.00000000
vn -0.38268343 -0.92387953 0.00000000
vn -0.47139674 -0.88192126 0.00000000
vn -0.55557023 -0.83146961 0.00000000
vn -0.63439328 -0.77301045 0.00000000
vn -0.70710678 -0.70710678 0.00000000
vn -0.77301045 -0.63439328 0.00000000
vn -0.83146961 -0.55557023 0.00000000
vn -0.88192126 -0.47139674 0.00000000
vn -0.92387953 -0.38268343 0.00000000
vn -0.95694034 -0.29028468 0.00000000
vn -0.98078528 -0.19509032 0.00000000
vn -0.99518473 -0.09801714 0.00000000
vn 0.00000000 0.00000000 -1.00000000
vn 0.00000000 0.00000000 -1.00000000
vn 0.00000000 0.00000000 -1.00000000
vn 0.00000000 0.00000000 -1.00000000
vn 0.00000000 0.00000000 -1.00000000
vn 0.00000000 0.00000000 -1.00000000
vn 0.00000000 0.00000000 -1.00000000
vn 0.00000000 0.00000000 -1.00000000
vn 0.00000000 0.00000000 -1.00000000
vn 0.00000000 0.00000000 -1.00000000
vn 0.00000000 0.00000000 -1.00000000
vn 0.00000000 0.00000000 -1.00000000
vn 0.00000000 0.00000000 -1.00000000
vn 0.00000000 0.00000000 -1.00000000
vn 0.00000000 0.00000000 -1.00000000
vn 0.00000000 0.00000000 -1.00000000
vn 0.00000000 0.00000000 -1.00000000
vn 0.00000000 0.00000000 -1.00000000
vn 0.00000000 0.00000000 -1.00000000
vn 0.00000000 0.00000000 -1.00000000
vn 0.00000000 0.00000000 -1.00000000
vn 0.00000000 0.00000000 -1.00000000
vn 0.00000000 0.00000000 -1.00000000
vn 0.00000000 0.00000000 -1.00000000
vn 0.00000000 0.00000000 -1.00000000
vn 0.00000000 0.00000000 -1.00000000
vn 0.00000000 0.00000000 -1.00000000
vn 0.00000000 0.00000000 -1.00000000
vn 0.00000000 0.00000000 -1.00000000
vn 0.00000000 0.00000000 -1.00000000
vn 0.00000000 0.00000000 -1.00000000
vn 0.00000000 0.00000000 -1.00000000
vn 0.00000000 0.00000000 -1.00000000
vn 0.00000000 0.00000000 -1.00000000
vn 0.00000000 0.00000000 -1.00000000
vn 0.00000000 0.00000000 -1.00000000
vn 0.00000000 0.00000000 -1.00000000
vn 0.00000000 0.00000000 -1.00000000
vn 0.00000000 0.00000000 -1.00000000
vn 0.00000000 0.00000000 -1.00000000
vn 0.00000000 0.00000000 -1.00000000
vn 0.00000000 0.00000000 -1.00000000
vn 0.00000000 0.00000000 -1.00000000
vn 0.00000000 0.00000000 -1.00000000
vn 0.00000000 0.00000000 -1.00000000
vn 0.00000000 0.00000000 -1.00000000
vn 0.00000000 0.00000000 -1.00000000
vn 0.00000000 0.00000000 -1.00000000
vn 0.00000000 0.00000000 -1.00000000
vn 0.00000000 0.00000000 -1.00000000
vn 0.00000000 0.00000000 -1.00000000
vn 0.00000000 0.00000000 -1.00000000
vn 0.00000000 0.00000000 -1.00000000
vn 0.00000000 0.00000000 -1.00000000
vn 0.00000000 0.00000000 -1.00000000
vn 0.00000000 0.00000000 -1.00000000
vn 0.00000000 0.00000000 -1.00000000
vn 0.00000000 0.00000000 -1.00000000
vn 0.00000000 0.00000000 -1.00000000
vn 0.00000000 0.00000000 -1.00000000
vn 0.00000000 0.00000000 -1.00000000
vn 0.00000000 0.00000000 -1.00000000
vn 0.00000000 0.00000000 -1.00000000
vn 0.00000000 0.00000000 -1.00000000
vn 0.00000000 0.00000000 -1.00000000
f 3//3 2//2 1//1
f 37//37 36//36 1//1
f 38//38 37//37 1//1
f 39//39 38//38 1//1
f 40//40 39//39 1//1
f 41//41 40//40 1//1
f 42//42 41//41 1//1
f 43//43 42//42 1//1
f 44//44 43//43 1//1
f 45//45 44//44 1//1
f 46//46 45//45 1//1
f 47//47 46//46 1//1
f 48//48 47//47 1//1
f 49//49 48//48 1//1
f 50//50 49//49 1//1
f 51//51 50//50 1//1
f 52//52 51//51 1//1
f 53//53 52//52 1//1
f 54//54 53//53 1//1
f 55//55 54//54 1//1
f 56//56 55//55 1//1
f 57//57 56//56 1//1
f 58//58 57//57 1//1
f 59//59 58//58 1//1
f 60//60 59//59 1//1
f 61//61 60//60 1//1
f 62//62 61//61 1//1
f 63//63 62//62 1//1
f 64//64 63//63 1//1
f 65//65 64//64 1//1
f 36//36 35//35 1//1
f 35//35 34//34 1//1
f 2//2 65//65 1//1
f 33//33 32//32 1//1
f 34//34 33//33 1//1
f 4//4 3//3 1//1
f 5//5 4//4 1//1
f 6//6 5//5 1//1
f 7//7 6//6 1//1
f 8//8 7//7 1//1
f 9//9 8//8 1//1
f 10//10 9//9 1//1
f 12//12 11//11 1//1
f 13//13 12//12 1//1
f 14//14 13//13 1//1
f 15//15 14//14 1//1
f 16//16 15//15 1//1
f 17//17 16//16 1//1
f 11//11 10//10 1//1
f 19//19 18//18 1//1
f 18//18 17//17 1//1
f 31//31 30//30 1//1
f 30//30 29//29 1//1
f 29//29 28//28 1//1
f 28//28 27//27 1//1
f 26//26 25//25 1//1
f 27//27 26//26 1//1
f 32//32 31//31 1//1
f 24//24 23//23 1//1
f 23//23 22//22 1//1
f 22//22 21//21 1//1
f 21//21 20//20 1//1
f 20//20 19//19 1//1
f 25//25 24//24 1//1
f 174//174 173//173 109//109
f 108//108 172//172 107//107
f 173//173 172//172 108//108
f 109//109 173//173 108//108
f 110//110 174//174 109//109
f 178//178 177//177 113//113
f 111//111 175//175 110//110
f 176//176 175//175 111//111
f 112//112 176//176 111//111
f 177//177 176//176 112//112
f 113//113 177//177 112//112
f 172//172 171//171 107//107
f 175//175 174//174 110//110
f 107//107 171//171 106//106
f 164//164 163//163 99//99
f 106//106 170//170 105//105
f 170//170 169//169 105//105
f 105//105 169//169 104//104
f 169//169 168//168 104//104
f 104//104 168//168 103//103
f 168//168 167//167 103//103
f 103//103 167//167 102//102
f 167//167 166//166 102//102
f 102//102 166//166 101//101
f 166//166 165//165 101//101
f 101//101 165//165 100//100
f 165//165 164//164 100//100
f 100//100 164//164 99//99
f 114//114 178//178 113//113
f 171//171 170//170 106//106
f 179//179 178//178 114//114
f 122//122 186//186 121//121
f 180//180 179//179 115//115
f 99//99 163//163 98//98
f 66//66 130//130 129//129
f 130//130 193//193 129//129
f 129//129 193//193 128//128
f 193//193 192//192 128//128
f 128//128 192//192 127//127
f 192//192 191//191 127//127
f 127//127 191//191 126//126
f 191//191 190//190 126//126
f 126//126 190//190 125//125
f 190//190 189//189 125//125
f 125//125 189//189 124//124
f 189//189 188//188 124//124
f 124//124 188//188 123//123
f 188//188 187//187 123//123
f 123//123 187//187 122//122
f 187//187 186//186 122//122
f 186//186 185//185 121//121
f 121//121 185//185 120//120
f 185//185 184//184 120//120
f 120//120 184//184 119//119
f 184//184 183//183 119//119
f 119//119 183//183 118//118
f 183//183 182//182 118//118
f 118//118 182//182 117//117
f 182//182 181//181 117//117
f 117//117 181//181 116//116
f 181//181 180//180 116//116
f 116//116 180//180 115//115
f 115//115 179//179 114//114
f 163//163 162//162 98//98
f 98//98 162//162 97//97
f 162//162 161//161 97//97
f 145//145 144//144 80//80
f 80//80 144//144 79//79
f 144//144 143//143 79//79
f 79//79 143//143 78//78
f 143//143 142//142 78//78
f 78//78 142//142 77//77
f 142//142 141//141 77//77
f 77//77 141//141 76//76
f 141//141 140//140 76//76
f 76//76 140//140 75//75
f 140//140 139//139 75//75
f 75//75 139//139 74//74
f 74//74 138//138 73//73
f 81//81 145//145 80//80
f 138//138 137//137 73//73
f 137//137 136//136 72//72
f 72//72 136//136 71//71
f 136//136 135//135 71//71
f 71//71 135//135 70//70
f 135//135 134//134 70//70
f 70//70 134//134 69//69
f 134//134 133//133 69//69
f 69//69 133//133 68//68
f 133//133 132//132 68//68
f 68//68 132//132 67//67
f 132//132 131//131 67//67
f 67//67 131//131 66//66
f 131//131 130//130 66//66
f 73//73 137//137 72//72
f 146//146 145//145 81//81
f 139//139 138//138 74//74
f 147//147 146//146 82//82
f 82//82 146//146 81//81
f 161//161 160//160 96//96
f 96//96 160//160 95//95
f 160//160 159//159 95//95
f 95//95 159//159 94//94
f 159//159 158//158 94//94
f 94//94 158//158 93//93
f 158//158 157//157 93//93
f 93//93 157//157 92//92
f 157//157 156//156 92//92
f 92//92 156//156 91//91
f 156//156 155//155 91//91
f 91//91 155//155 90//90
f 155//155 154//154 90//90
f 90//90 154//154 89//89
f 97//97 161//161 96//96
f 85//85 149//149 84//84
f 89//89 153//153 88//88
f 153//153 152//152 88//88
f 88//88 152//152 87//87
f 152//152 151//151 87//87
f 87//87 151//151 86//86
f 151//151 150//150 86//86
f 86//86 150//150 85//85
f 150//150 149//149 85//85
f 154//154 153//153 89//89
f 149//149 148//148 84//84
f 84//84 148//148 83//83
f 148//148 147//147 83//83
f 83//83 147//147 82//82
f 236//236 258//258 235//235
f 237//237 258//258 236//236
f 227//227 258//258 226//226
f 239//239 258//258 238//238
f 238//238 258//258 237//237
f 235//235 258//258 234//234
f 228//228 258//258 227//227
f 233//233 258//258 232//232
f 232//232 258//258 231//231
f 231//231 258//258 230//230
f 230//230 258//258 229//229
f 229//229 258//258 228//228
f 240//240 258//258 239//239
f 234//234 258//258 233//233
f 241//241 258//258 240//240
f 248//248 258//258 247//247
f 243//243 258//258 242//242
f 244//244 258//258 243//243
f 245//245 258//258 244//244
f 246//246 258//258 245//245
f 247//247 258//258 246//246
f 249//249 258//258 248//248
f 250//250 258//258 249//249
f 251//251 258//258 250//250
f 252//252 258//258 251//251
f 253//253 258//258 252//252
f 254//254 258//258 253//253
f 255//255 258//258 254//254
f 256//256 258//258 255//255
f 242//242 258//258 241//241
f 226//226 258//258 225//225
f 195//195 258//258 194//194
f 224//224 258//258 223//223
f 257//257 258//258 256//256
f 196//196 258//258 195//195
f 197//197 258//258 196//196
f 198//198 258//258 197//197
f 199//199 258//258 198//198
f 200//200 258//258 199//199
f 201//201 258//258 200//200
f 202//202 258//258 201//201
f 203//203 258//258 202//202
f 204//204 258//258 203//203
f 205//205 258//258 204//204
f 206//206 258//258 205//205
f 207//207 258//258 206//206
f 208//208 258//258 207//207
f 209//209 258//258 208//208
f 210//210 258//258 209//209
f 211//211 258//258 210//210
f 212//212 258//258 211//211
f 213//213 258//258 212//212
f 214//214 258//258 213//213
f 215//215 258//258 214//214
f 216//216 258//258 215//215
f 217//217 258//258 216//216
f 218//218 258//258 217//217
f 219//219 258//258 218//218
f 220//220 258//258 219//219
f 221//221 258//258 220//220
f 222//222 258//258 221//221
f 223//223 258//258 222//222
f 225//225 258//258 224//224
f 194//194 258//258 257//257
o rear_microphone
v -0.0108780000 0.0000000000 0.0778550000
v -0.0108780000 -0.0006300000 0.0778550000
v -0.0108780000 -0.0006269664 0.0779167508
v -0.0108780000 -0.0006178947 0.0779779069
v -0.0108780000 -0.0006028724 0.0780378793
v -0.0108780000 -0.0005820441 0.0780960906
v -0.0108780000 -0.0005556104 0.0781519799
v -0.0108780000 -0.0005238259 0.0782050092
v -0.0108780000 -0.0004869966 0.0782546678
v -0.0108780000 -0.0004454773 0.0783004773
v -0.0108780000 -0.0003996678 0.0783419966
v -0.0108780000 -0.0003500092 0.0783788259
v -0.0108780000 -0.0002969799 0.0784106104
v -0.0108780000 -0.0002410906 0.0784370441
v -0.0108780000 -0.0001828793 0.0784578724
v -0.0108780000 -0.0001229069 0.0784728947
v -0.0108780000 -0.0000617508 0.0784819664
v -0.0108780000 -0.0000000000 0.0784850000
v -0.0108780000 0.0000617508 0.0784819664
v -0.0108780000 0.0001229069 0.0784728947
v -0.0108780000 0.0001828793 0.0784578724
v -0.0108780000 0.0002410906 0.0784370441
v -0.0108780000 0.0002969799 0.0784106104
v -0.0108780000 0.0003500092 0.0783788259
v -0.0108780000 0.0003996678 0.0783419966
v -0.0108780000 0.0004454773 0.0783004773
v -0.0108780000 0.0004869966 0.0782546678
v -0.0108780000 0.0005238259 0.0782050092
v -0.0108780000 0.0005556104 0.0781519799
v -0.0108780000 0.0005820441 0.0780960906
v -0.0108780000 0.0006028724 0.0780378793
v -0.0108780000 0.0006178947 0.0779779069
v -0.0108780000 0.0006269664 0.0779167508
v -0.0108780000 0.0006300000 0.0778550000
v -0.0108780000 0.0006269664 0.0777932492
v -0.0108780000 0.0006178947 0.0777320931
v -0.0108780000 0.0006028724 0.0776721207
v -0.0108780000 0.0005820441 0.0776139094
v -0.0108780000 0.0005556104 0.0775580201
v -0.0108780000 0.0005238259 0.0775049908
v -0.0108780000 0.0004869966 0.0774553322
v -0.0108780000 0.0004454773 0.0774095227
v -0.0108780000 0.0003996678 0.0773680034
v -0.0108780000 0.0003500092 0.0773311741
v -0.0108780000 0.0002969799 0.0772993896
v -0.0108780000 0.0002410906 0.0772729559
v -0.0108780000 0.0001828793 0.0772521276
v -0.0108780000 0.0001229069 0.0772371053
v -0.0108780000 0.0000617508 0.0772280336
v -0.0108780000 0.0000000000 0.0772250000
v -0.0108780000 -0.0000617508 0.0772280336
v -0.0108780000 -0.0001229069 0.0772371053
v -0.0108780000 -0.0001828793 0.0772521276
v -0.0108780000 -0.0002410906 0.0772729559
v -0.0108780000 -0.0002969799 0.0772993896
v -0.0108780000 -0.0003500092 0.0773311741
v -0.0108780000 -0.0003996678 0.0773680034
v -0.0108780000 -0.0004454773 0.0774095227
v -0.0108780000 -0.0004869966 0.0774553322
v -0.0108780000 -0.0005238259 0.0775049908
v -0.0108780000 -0.0005556104 0.0775580201
v -0.0108780000 -0.0005820441 0.0776139094
v -0.0108780000 -0.0006028724 0.0776721207
v -0.0108780000 -0.0006178947 0.0777320931
v -0.0108780000 -0.0006269664 0.0777932492
v -0.0108780000 -0.0006300000 0.0778550000
v -0.0108780000 -0.0006269664 0.0779167508
v -0.0108780000 -0.0006178947 0.0779779069
v -0.0108780000 -0.0006028724 0.0780378793
v -0.0108780000 -0.0005820441 0.0780960906
v -0.0108780000 -0.0005556104 0.0781519799
v -0.0108780000 -0.0005238259 0.0782050092
v -0.0108780000 -0.0004869966 0.0782546678
v -0.0108780000 -0.0004454773 0.0783004773
v -0.0108780000 -0.0003996678 0.0783419966
v -0.0108780000 -0.0003500092 0.0783788259
v -0.0108780000 -0.0002969799 0.0784106104
v -0.0108780000 -0.0002410906 0.0784370441
v -0.0108780000 -0.0001828793 0.0784578724
v -0.0108780000 -0.0001229069 0.0784728947
v -0.0108780000 -0.0000617508 0.0784819664
v -0.0108780000 -0.0000000000 0.0784850000
v -0.0108780000 0.0000617508 0.0784819664
v -0.0108780000 0.0001229069 0.0784728947
v -0.0108780000 0.0001828793 0.0784578724
v -0.0108780000 0.0002410906 0.0784370441
v -0.0108780000 0.0002969799 0.0784106104
v -0.0108780000 0.0003500092 0.0783788259
v -0.0108780000 0.0003996678 0.0783419966
v -0.0108780000 0.0004454773 0.0783004773
v -0.0108780000 0.0004869966 0.0782546678
v -0.0108780000 0.0005238259 0.0782050092
v -0.0108780000 0.0005556104 0.0781519799
v -0.0108780000 0.0005820441 0.0780960906
v -0.0108780000 0.0006028724 0.0780378793
v -0.0108780000 0.0006178947 0.0779779069
v -0.0108780000 0.0006269664 0.0779167508
v -0.0108780000 0.0006300000 0.0778550000
v -0.0108780000 0.0006269664 0.0777932492
v -0.0108780000 0.0006178947 0.0777320931
v -0.0108780000 0.0006028724 0.0776721207
v -0.0108780000 0.0005820441 0.0776139094
v -0.0108780000 0.0005556104 0.0775580201
v -0.0108780000 0.0005238259 0.0775049908
v -0.0108780000 0.0004869966 0.0774553322
v -0.0108780000 0.0004454773 0.0774095227
v -0.0108780000 0.0003996678 0.0773680034
v -0.0108780000 0.0003500092 0.0773311741
v -0.0108780000 0.0002969799 0.0772993896
v -0.0108780000 0.0002410906 0.0772729559
v -0.0108780000 0.0001828793 0.0772521276
v -0.0108780000 0.0001229069 0.0772371053
v -0.0108780000 0.0000617508 0.0772280336
v -0.0108780000 0.0000000000 0.0772250000
v -0.0108780000 -0.0000617508 0.0772280336
v -0.0108780000 -0.0001229069 0.0772371053
v -0.0108780000 -0.0001828793 0.0772521276
v -0.0108780000 -0.0002410906 0.0772729559
v -0.0108780000 -0.0002969799 0.0772993896
v -0.0108780000 -0.0003500092 0.0773311741
v -0.0108780000 -0.0003996678 0.0773680034
v -0.0108780000 -0.0004454773 0.0774095227
v -0.0108780000 -0.0004869966 0.0774553322
v -0.0108780000 -0.0005238259 0.0775049908
v -0.0108780000 -0.0005556104 0.0775580201
v -0.0108780000 -0.0005820441 0.0776139094
v -0.0108780000 -0.0006028724 0.0776721207
v -0.0108780000 -0.0006178947 0.0777320931
v -0.0108780000 -0.0006269664 0.0777932492
v -0.0109060000 -0.0006300000 0.0778550000
v -0.0109060000 -0.0006269664 0.0779167508
v -0.0109060000 -0.0006178947 0.0779779069
v -0.0109060000 -0.0006028724 0.0780378793
v -0.0109060000 -0.0005820441 0.0780960906
v -0.0109060000 -0.0005556104 0.0781519799
v -0.0109060000 -0.0005238259 0.0782050092
v -0.0109060000 -0.0004869966 0.0782546678
v -0.0109060000 -0.0004454773 0.0783004773
v -0.0109060000 -0.0003996678 0.0783419966
v -0.0109060000 -0.0003500092 0.0783788259
v -0.0109060000 -0.0002969799 0.0784106104
v -0.0109060000 -0.0002410906 0.0784370441
v -0.0109060000 -0.0001828793 0.0784578724
v -0.0109060000 -0.0001229069 0.0784728947
v -0.0109060000 -0.0000617508 0.0784819664
v -0.0109060000 -0.0000000000 0.0784850000
v -0.0109060000 0.0000617508 0.0784819664
v -0.0109060000 0.0001229069 0.0784728947
v -0.0109060000 0.0001828793 0.0784578724
v -0.0109060000 0.0002410906 0.0784370441
v -0.0109060000 0.0002969799 0.0784106104
v -0.0109060000 0.0003500092 0.0783788259
v -0.0109060000 0.0003996678 0.0783419966
v -0.0109060000 0.0004454773 0.0783004773
v -0.0109060000 0.0004869966 0.0782546678
v -0.0109060000 0.0005238259 0.0782050092
v -0.0109060000 0.0005556104 0.0781519799
v -0.0109060000 0.0005820441 0.0780960906
v -0.0109060000 0.0006028724 0.0780378793
v -0.0109060000 0.0006178947 0.0779779069
v -0.0109060000 0.0006269664 0.0779167508
v -0.0109060000 0.0006300000 0.0778550000
v -0.0109060000 0.0006269664 0.0777932492
v -0.0109060000 0.0006178947 0.0777320931
v -0.0109060000 0.0006028724 0.0776721207
v -0.0109060000 0.0005820441 0.0776139094
v -0.0109060000 0.0005556104 0.0775580201
v -0.0109060000 0.0005238259 0.0775049908
v -0.0109060000 0.0004869966 0.0774553322
v -0.0109060000 0.0004454773 0.0774095227
v -0.0109060000 0.0003996678 0.0773680034
v -0.0109060000 0.0003500092 0.0773311741
v -0.0109060000 0.0002969799 0.0772993896
v -0.0109060000 0.0002410906 0.0772729559
v -0.0109060000 0.0001828793 0.0772521276
v -0.0109060000 0.0001229069 0.0772371053
v -0.0109060000 0.0000617508 0.0772280336
v -0.0109060000 0.0000000000 0.0772250000
v -0.0109060000 -0.0000617508 0.0772280336
v -0.0109060000 -0.0001229069 0.0772371053
v -0.0109060000 -0.0001828793 0.0772521276
v -0.0109060000 -0.0002410906 0.0772729559
v -0.0109060000 -0.0002969799 0.0772993896
v -0.0109060000 -0.0003500092 0.0773311741
v -0.0109060000 -0.0003996678 0.0773680034
v -0.0109060000 -0.0004454773 0.0774095227
v -0.0109060000 -0.0004869966 0.0774553322
v -0.0109060000 -0.0005238259 0.0775049908
v -0.0109060000 -0.0005556104 0.0775580201
v -0.0109060000 -0.0005820441 0.0776139094
v -0.0109060000 -0.0006028724 0.0776721207
v -0.0109060000 -0.0006178947 0.0777320931
v -0.0109060000 -0.0006269664 0.0777932492
v -0.0109060000 -0.0006300000 0.0778550000
v -0.0109060000 -0.0006269664 0.0779167508
v -0.0109060000 -0.0006178947 0.0779779069
v -0.0109060000 -0.0006028724 0.0780378793
v -0.0109060000 -0.0005820441 0.0780960906
v -0.0109060000 -0.0005556104 0.0781519799
v -0.0109060000 -0.0005238259 0.0782050092
v -0.0109060000 -0.0004869966 0.0782546678
v -0.0109060000 -0.0004454773 0.0783004773
v -0.0109060000 -0.0003996678 0.0783419966
v -0.0109060000 -0.0003500092 0.0783788259
v -0.0109060000 -0.0002969799 0.0784106104
v -0.0109060000 -0.0002410906 0.0784370441
v -0.0109060000 -0.0001828793 0.0784578724
v -0.0109060000 -0.0001229069 0.0784728947
v -0.0109060000 -0.0000617508 0.0784819664
v -0.0109060000 -0.0000000000 0.0784850000
v -0.0109060000 0.0000617508 0.0784819664
v -0.0109060000 0.0001229069 0.0784728947
v -0.0109060000 0.0001828793 0.0784578724
v -0.0109060000 0.0002410906 0.0784370441
v -0.0109060000 0.0002969799 0.0784106104
v -0.0109060000 0.0003500092 0.0783788259
v -0.0109060000 0.0003996678 0.0783419966
v -0.0109060000 0.0004454773 0.0783004773
v -0.0109060000 0.0004869966 0.0782546678
v -0.0109060000 0.0005238259 0.0782050092
v -0.0109060000 0.0005556104 0.0781519799
v -0.0109060000 0.0005820441 0.0780960906
v -0.0109060000 0.0006028724 0.0780378793
v -0.0109060000 0.0006178947 0.0779779069
v -0.0109060000 0.0006269664 0.0779167508
v -0.0109060000 0.0006300000 0.0778550000
v -0.0109060000 0.0006269664 0.0777932492
v -0.0109060000 0.0006178947 0.0777320931
v -0.0109060000 0.0006028724 0.0776721207
v -0.0109060000 0.0005820441 0.0776139094
v -0.0109060000 0.0005556104 0.0775580201
v -0.0109060000 0.0005238259 0.0775049908
v -0.0109060000 0.0004869966 0.0774553322
v -0.0109060000 0.0004454773 0.0774095227
v -0.0109060000 0.0003996678 0.0773680034
v -0.0109060000 0.0003500092 0.0773311741
v -0.0109060000 0.0002969799 0.0772993896
v -0.0109060000 0.0002410906 0.0772729559
v -0.0109060000 0.0001828793 0.0772521276
v -0.0109060000 0.0001229069 0.0772371053
v -0.0109060000 0.0000617508 0.0772280336
v -0.0109060000 0.0000000000 0.0772250000
v -0.0109060000 -0.0000617508 0.0772280336
v -0.0109060000 -0.0001229069 0.0772371053
v -0.0109060000 -0.0001828793 0.0772521276
v -0.0109060000 -0.0002410906 0.0772729559
v -0.0109060000 -0.0002969799 0.0772993896
v -0.0109060000 -0.0003500092 0.0773311741
v -0.0109060000 -0.0003996678 0.0773680034
v -0.0109060000 -0.0004454773 0.0774095227
v -0.0109060000 -0.0004869966 0.0774553322
v -0.0109060000 -0.0005238259 0.0775049908
v -0.0109060000 -0.0005556104 0.0775580201
v -0.0109060000 -0.0005820441 0.0776139094
v -0.0109060000 -0.0006028724 0.0776721207
v -0.0109060000 -0.0006178947 0.0777320931
v -0.0109060000 -0.0006269664 0.0777932492
v -0.0109060000 0.0000000000 0.0778550000
vn 1.00000000 0.00000000 0.00000000
vn 1.00000000 0.00000000 0.00000000
vn 1.00000000 0.00000000 0.00000000
vn 1.00000000 0.00000000 0.00000000
vn 1.00000000 0.00000000 0.00000000
vn 1.00000000 0.00000000 0.00000000
vn 1.00000000 0.00000000 0.00000000
vn 1.00000000 0.00000000 0.00000000
vn 1.00000000 0.00000000 0.00000000
vn 1.00000000 0.00000000 0.00000000
vn 1.00000000 0.00000000 0.00000000
vn 1.00000000 0.00000000 0.00000000
vn 1.00000000 0.00000000 0.00000000
vn 1.00000000 0.00000000 0.00000000
vn 1.00000000 0.00000000 0.00000000
vn 1.00000000 0.00000000 0.00000000
vn 1.00000000 0.00000000 0.00000000
vn 1.00000000 0.00000000 0.00000000
vn 1.00000000 0.00000000 0.00000000
vn 1.00000000 0.00000000 0.00000000
vn 1.00000000 0.00000000 0.00000000
vn 1.00000000 0.00000000 0.00000000
vn 1.00000000 0.00000000 0.00000000
vn 1.00000000 0.00000000 0.00000000
vn 1.00000000 0.00000000 0.00000000
vn 1.00000000 0.00000000 0.00000000
vn 1.00000000 0.00000000 0.00000000
vn 1.00000000 0.00000000 0.00000000
vn 1.00000000 0.00000000 0.00000000
vn 1.00000000 0.00000000 0.00000000
vn 1.00000000 0.00000000 0.00000000
vn 1.00000000 0.00000000 0.00000000
vn 1.00000000 0.00000000 0.00000000
vn 1.00000000 0.00000000 0.00000000
vn 1.00000000 0.00000000 0.00000000
vn 1.00000000 0.00000000 0.00000000
vn 1.00000000 0.00000000 0.00000000
vn 1.00000000 0.00000000 0.00000000
vn 1.00000000 0.00000000 0.00000000
vn 1.00000000 0.00000000 0.00000000
vn 1.00000000 0.00000000 0.00000000
vn 1.00000000 0.00000000 0.00000000
vn 1.00000000 0.00000000 0.00000000
vn 1.00000000 0.00000000 0.00000000
vn 1.00000000 0.00000000 0.00000000
vn 1.00000000 0.00000000 0.00000000
vn 1.00000000 0.00000000 0.00000000
vn 1.00000000 0.00000000 0.00000000
vn 1.00000000 0.00000000 0.00000000
vn 1.00000000 0.00000000 0.00000000
vn 1.00000000 0.00000000 0.00000000
vn 1.00000000 0.00000000 0.00000000
vn 1.00000000 0.00000000 0.00000000
vn 1.00000000 0.00000000 0.00000000
vn 1.00000000 0.00000000 0.00000000
vn 1.00000000 0.00000000 0.00000000
vn 1.00000000 0.00000000 0.00000000
vn 1.00000000 0.00000000 0.00000000
vn 1.00000000 0.00000000 0.00000000
vn 1.00000000 0.00000000 0.00000000
vn 1.00000000 0.00000000 0.00000000
vn 1.00000000 0.00000000 0.00000000
vn 1.00000000 0.00000000 0.00000000
vn 1.00000000 0.00000000 0.00000000
vn 1.00000000 0.00000000 0.00000000
vn 0.00000000 -1.00000000 -0.00000000
vn 0.00000000 -0.99518473 0.09801714
vn 0.00000000 -0.98078528 0.19509032
vn 0.00000000 -0.95694034 0.29028468
vn 0.00000000 -0.92387953 0.38268343
vn 0.00000000 -0.88192126 0.47139674
vn 0.00000000 -0.83146961 0.55557023
vn 0.00000000 -0.77301045 0.63439328
vn 0.00000000 -0.70710678 0.70710678
vn 0.00000000 -0.63439328 0.77301045
vn 0.00000000 -0.55557023 0.83146961
vn 0.00000000 -0.47139674 0.88192126
vn 0.00000000 -0.38268343 0.92387953
vn 0.00000000 -0.29028468 0.95694034
vn 0.00000000 -0.19509032 0.98078528
vn 0.00000000 -0.09801714 0.99518473
vn 0.00000000 -0.00000000 1.00000000
vn 0.00000000 0.09801714 0.99518473
vn 0.00000000 0.19509032 0.98078528
vn 0.00000000 0.29028468 0.95694034
vn 0.00000000 0.38268343 0.92387953
vn 0.00000000 0.47139674 0.88192126
vn 0.00000000 0.55557023 0.83146961
vn 0.00000000 0.63439328 0.77301045
vn 0.00000000 0.70710678 0.70710678
vn 0.00000000 0.77301045 0.63439328
vn 0.00000000 0.83146961 0.55557023
vn 0.00000000 0.88192126 0.47139674
vn 0.00000000 0.92387953 0.38268343
vn 0.00000000 0.95694034 0.29028468
vn 0.00000000 0.98078528 0.19509032
vn 0.00000000 0.99518473 0.09801714
vn 0.00000000 1.00000000 0.00000000
vn 0.00000000 0.99518473 -0.09801714
vn 0.00000000 0.98078528 -0.19509032
vn 0.00000000 0.95694034 -0.29028468
vn 0.00000000 0.92387953 -0.38268343
vn 0.00000000 0.88192126 -0.47139674
vn 0.00000000 0.83146961 -0.55557023
vn 0.00000000 0.77301045 -0.63439328
vn 0.00000000 0.70710678 -0.70710678
vn 0.00000000 0.63439328 -0.77301045
vn 0.00000000 0.55557023 -0.83146961
vn 0.00000000 0.47139674 -0.88192126
vn 0.00000000 0.38268343 -0.92387953
vn 0.00000000 0.29028468 -0.95694034
vn 0.00000000 0.19509032 -0.98078528
vn 0.00000000 0.09801714 -0.99518473
vn 0.00000000 0.00000000 -1.00000000
vn 0.00000000 -0.09801714 -0.99518473
vn 0.00000000 -0.19509032 -0.98078528
vn 0.00000000 -0.29028468 -0.95694034
vn 0.00000000 -0.38268343 -0.92387953
vn 0.00000000 -0.47139674 -0.88192126
vn 0.00000000 -0.55557023 -0.83146961
vn 0.00000000 -0.63439328 -0.77301045
vn 0.00000000 -0.70710678 -0.70710678
vn 0.00000000 -0.77301045 -0.63439328
vn 0.00000000 -0.83146961 -0.55557023
vn 0.00000000 -0.88192126 -0.47139674
vn 0.00000000 -0.92387953 -0.38268343
vn 0.00000000 -0.95694034 -0.29028468
vn 0.00000000 -0.98078528 -0.19509032
vn 0.00000000 -0.99518473 -0.09801714
vn 0.00000000 -1.00000000 -0.00000000
vn 0.00000000 -0.99518473 0.09801714
vn 0.00000000 -0.98078528 0.19509032
vn 0.00000000 -0.95694034 0.29028468
vn 0.00000000 -0.92387953 0.38268343
vn 0.00000000 -0.88192126 0.47139674
vn 0.00000000 -0.83146961 0.55557023
vn 0.00000000 -0.77301045 0.63439328
vn 0.00000000 -0.70710678 0.70710678
vn 0.00000000 -0.63439328 0.77301045
vn 0.00000000 -0.55557023 0.83146961
vn 0.00000000 -0.47139674 0.88192126
vn 0.00000000 -0.38268343 0.92387953
vn 0.00000000 -0.29028468 0.95694034
vn 0.00000000 -0.19509032 0.98078528
vn 0.00000000 -0.09801714 0.99518473
vn 0.00000000 -0.00000000 1.00000000
vn 0.00000000 0.09801714 0.99518473
vn 0.00000000 0.19509032 0.98078528
vn 0.00000000 0.29028468 0.95694034
vn 0.00000000 0.38268343 0.92387953
vn 0.00000000 0.47139674 0.88192126
vn 0.00000000 0.55557023 0.83146961
vn 0.00000000 0.63439328 0.77301045
vn 0.00000000 0.70710678 0.70710678
vn 0.00000000 0.77301045 0.63439328
vn 0.00000000 0.83146961 0.55557023
vn 0.00000000 0.88192126 0.47139674
vn 0.00000000 0.92387953 0.38268343
vn 0.00000000 0.95694034 0.29028468
vn 0.00000000 0.98078528 0.19509032
vn 0.00000000 0.99518473 0.09801714
vn 0.00000000 1.00000000 0.00000000
vn 0.00000000 0.99518473 -0.09801714
vn 0.00000000 0.98078528 -0.19509032
vn 0.00000000 0.95694034 -0.29028468
vn 0.00000000 0.92387953 -0.38268343
vn 0.00000000 0.88192126 -0.47139674
vn 0.00000000 0.83146961 -0.55557023
vn 0.00000000 0.77301045 -0.63439328
vn 0.00000000 0.70710678 -0.70710678
vn 0.00000000 0.63439328 -0.77301045
vn 0.00000000 0.55557023 -0.83146961
vn 0.00000000 0.47139674 -0.88192126
vn 0.00000000 0.38268343 -0.92387953
vn 0.00000000 0.29028468 -0.95694034
vn 0.00000000 0.19509032 -0.98078528
vn 0.00000000 0.09801714 -0.99518473
vn 0.00000000 0.00000000 -1.00000000
vn 0.00000000 -0.09801714 -0.99518473
vn 0.00000000 -0.19509032 -0.98078528
vn 0.00000000 -0.29028468 -0.95694034
vn 0.00000000 -0.38268343 -0.92387953
vn 0.00000000 -0.47139674 -0.88192126
vn 0.00000000 -0.55557023 -0.83146961
vn 0.00000000 -0.63439328 -0.77301045
vn 0.00000000 -0.70710678 -0.70710678
vn 0.00000000 -0.77301045 -0.63439328
vn 0.00000000 -0.83146961 -0.55557023
vn 0.00000000 -0.88192126 -0.47139674
vn 0.00000000 -0.92387953 -0.38268343
vn 0.00000000 -0.95694034 -0.29028468
vn 0.00000000 -0.98078528 -0.19509032
vn 0.00000000 -0.99518473 -0.09801714
vn -1.00000000 0.00000000 0.00000000
vn -1.00000000 0.00000000 0.00000000
vn -1.00000000 0.00000000 0.00000000
vn -1.00000000 0.00000000 0.00000000
vn -1.00000000 0.00000000 0.00000000
vn -1.00000000 0.00000000 0.00000000
vn -1.00000000 0.00000000 0.00000000
vn -1.00000000 0.00000000 0.00000000
vn -1.00000000 0.00000000 0.00000000
vn -1.00000000 0.00000000 0.00000000
vn -1.00000000 0.00000000 0.00000000
vn -1.00000000 0.00000000 0.00000000
vn -1.00000000 0.00000000 0.00000000
vn -1.00000000 0.00000000 0.00000000
vn -1.00000000 0.00000000 0.00000000
vn -1.00000000 0.00000000 0.00000000
vn -1.00000000 0.00000000 0.00000000
vn -1.00000000 0.00000000 0.00000000
vn -1.00000000 0.00000000 0.00000000
vn -1.00000000 0.00000000 0.00000000
vn -1.00000000 0.00000000 0.00000000
vn -1.00000000 0.00000000 0.00000000
vn -1.00000000 0.00000000 0.00000000
vn -1.00000000 0.00000000 0.00000000
vn -1.00000000 0.00000000 0.00000000
vn -1.00000000 0.00000000 0.00000000
vn -1.00000000 0.00000000 0.00000000
vn -1.00000000 0.00000000 0.00000000
vn -1.00000000 0.00000000 0.00000000
vn -1.00000000 0.00000000 0.00000000
vn -1.00000000 0.00000000 0.00000000
vn -1.00000000 0.00000000 0.00000000
vn -1.00000000 0.00000000 0.00000000
vn -1.00000000 0.00000000 0.00000000
vn -1.00000000 0.00000000 0.00000000
vn -1.00000000 0.00000000 0.00000000
vn -1.00000000 0.00000000 0.00000000
vn -1.00000000 0.00000000 0.00000000
vn -1.00000000 0.00000000 0.00000000
vn -1.00000000 0.00000000 0.00000000
vn -1.00000000 0.00000000 0.00000000
vn -1.00000000 0.00000000 0.00000000
vn -1.00000000 0.00000000 0.00000000
vn -1.00000000 0.00000000 0.00000000
vn -1.00000000 0.00000000 0.00000000
vn -1.00000000 0.00000000 0.00000000
vn -1.00000000 0.00000000 0.00000000
vn -1.00000000 0.00000000 0.00000000
vn -1.00000000 0.00000000 0.00000000
vn -1.00000000 0.00000000 0.00000000
vn -1.00000000 0.00000000 0.00000000
vn -1.00000000 0.00000000 0.00000000
vn -1.00000000 0.00000000 0.00000000
vn -1.00000000 0.00000000 0.00000000
vn -1.00000000 0.00000000 0.00000000
vn -1.00000000 0.00000000 0.00000000
vn -1.00000000 0.00000000 0.00000000
vn -1.00000000 0.00000000 0.00000000
vn -1.00000000 0.00000000 0.00000000
vn -1.00000000 0.00000000 0.00000000
vn -1.00000000 0.00000000 0.00000000
vn -1.00000000 0.00000000 0.00000000
vn -1.00000000 0.00000000 0.00000000
vn -1.00000000 0.00000000 0.00000000
vn -1.00000000 0.00000000 0.00000000
f 261//261 260//260 259//259
f 295//295 294//294 259//259
f 296//296 295//295 259//259
f 297//297 296//296 259//259
f 298//298 297//297 259//259
f 299//299 298//298 259//259
f 300//300 299//299 259//259
f 301//301 300//300 259//259
f 302//302 301//301 259//259
f 303//303 302//302 259//259
f 304//304 303//303 259//259
f 305//305 304//304 259//259
f 306//306 305//305 259//259
f 307//307 306//306 259//259
f 308//308 307//307 259//259
f 309//309 308//308 259//259
f 310//310 309//309 259//259
f 311//311 310//310 259//259
f 312//312 311//311 259//259
f 313//313 312//312 259//259
f 314//314 313//313 259//259
f 315//315 314//314 259//259
f 316//316 315//315 259//259
f 317//317 316//316 259//259
f 318//318 317//317 259//259
f 319//319 318//318 259//259
f 320//320 319//319 259//259
f 321//321 320//320 259//259
f 322//322 321//321 259//259
f 323//323 322//322 259//259
f 294//294 293//293 259//259
f 293//293 292//292 259//259
f 260//260 323//323 259//259
f 291//291 290//290 259//259
f 292//292 291//291 259//259
f 262//262 261//261 259//259
f 263//263 262//262 259//259
f 264//264 263//263 259//259
f 265//265 264//264 259//259
f 266//266 265//265 259//259
f 267//267 266//266 259//259
f 268//268 267//267 259//259
f 270//270 269//269 259//259
f 271//271 270//270 259//259
f 272//272 271//271 259//259
f 273//273 272//272 259//259
f 274//274 273//273 259//259
f 275//275 274//274 259//259
f 269//269 268//268 259//259
f 277//277 276//276 259//259
f 276//276 275//275 259//259
f 289//289 288//288 259//259
f 288//288 287//287 259//259
f 287//287 286//286 259//259
f 286//286 285//285 259//259
f 284//284 283//283 259//259
f 285//285 284//284 259//259
f 290//290 289//289 259//259
f 282//282 281//281 259//259
f 281//281 280//280 259//259
f 280//280 279//279 259//259
f 279//279 278//278 259//259
f 278//278 277//277 259//259
f 283//283 282//282 259//259
f 432//432 431//431 367//367
f 366//366 430//430 365//365
f 431//431 430//430 366//366
f 367//367 431//431 366//366
f 368//368 432//432 367//367
f 436//436 435//435 371//371
f 369//369 433//433 368//368
f 434//434 433//433 369//369
f 370//370 434//434 369//369
f 435//435 434//434 370//370
f 371//371 435//435 370//370
f 430//430 429//429 365//365
f 433//433 432//432 368//368
f 365//365 429//429 364//364
f 422//422 421//421 357//357
f 364//364 428//428 363//363
f 428//428 427//427 363//363
f 363//363 427//427 362//362
f 427//427 426//426 362//362
f 362//362 426//426 361//361
f 426//426 425//425 361//361
f 361//361 425//425 360//360
f 425//425 424//424 360//360
f 360//360 424//424 359//359
f 424//424 423//423 359//359
f 359//359 423//423 358//358
f 423//423 422//422 358//358
f 358//358 422//422 357//357
f 372//372 436//436 371//371
f 429//429 428//428 364//364
f 437//437 436//436 372//372
f 380//380 444//444 379//379
f 438//438 437//437 373//373
f 357//357 421//421 356//356
f 324//324 388//388 387//387
f 388//388 451//451 387//387
f 387//387 451//451 386//386
f 451//451 450//450 386//386
f 386//386 450//450 385//385
f 450//450 449//449 385//385
f 385//385 449//449 384//384
f 449//449 448//448 384//384
f 384//384 448//448 383//383
f 448//448 447//447 383//383
f 383//383 447//447 382//382
f 447//447 446//446 382//382
f 382//382 446//446 381//381
f 446//446 445//445 381//381
f 381//381 445//445 380//380
f 445//445 444//444 380//380
f 444//444 443//443 379//379
f 379//379 443//443 378//378
f 443//443 442//442 378//378
f 378//378 442//442 377//377
f 442//442 441//441 377//377
f 377//377 441//441 376//376
f 441//441 440//440 376//376
f 376//376 440//440 375//375
f 440//440 439//439 375//375
f 375//375 439//439 374//374
f 439//439 438//438 374//374
f 374//374 438//438 373//373
f 373//373 437//437 372//372
f 421//421 420//420 356//356
f 356//356 420//420 355//355
f 420//420 419//419 355//355
f 403//403 402//402 338//338
f 338//338 402//402 337//337
f 402//402 401//401 337//337
f 337//337 401//401 336//336
f 401//401 400//400 336//336
f 336//336 400//400 335//335
f 400//400 399//399 335//335
f 335//335 399//399 334//334
f 399//399 398//398 334//334
f 334//334 398//398 333//333
f 398//398 397//397 333//333
f 333//333 397//397 332//332
f 332//332 396//396 331//331
f 339//339 403//403 338//338
f 396//396 395//395 331//331
f 395//395 394//394 330//330
f 330//330 394//394 329//329
f 394//394 393//393 329//329
f 329//329 393//393 328//328
f 393//393 392//392 328//328
f 328//328 392//392 327//327
f 392//392 391//391 327//327
f 327//327 391//391 326//326
f 391//391 390//390 326//326
f 326//326 390//390 325//325
f 390//390 389//389 325//325
f 325//325 389//389 324//324
f 389//389 388//388 324//324
f 331//331 395//395 330//330
f 404//404 403//403 339//339
f 397//397 396//396 332//332
f 405//405 404//404 340//340
f 340//340 404//404 339//339
f 419//419 418//418 354//354
f 354//354 418//418 353//353
f 418//418 417//417 353//353
f 353//353 417//417 352//352
f 417//417 416//416 352//352
f 352//352 416//416 351//351
f 416//416 415//415 351//351
f 351//351 415//415 350//350
f 415//415 414//414 350//350
f 350//350 414//414 349//349
f 414//414 413//413 349//349
f 349//349 413//413 348//348
f 413//413 412//412 348//348
f 348//348 412//412 347//347
f 355//355 419//419 354//354
f 343//343 407//407 342//342
f 347//347 411//411 346//346
f 411//411 410//410 346//346
f 346//346 410//410 345//345
f 410//410 409//409 345//345
f 345//345 409//409 344//344
f 409//409 408//408 344//344
f 344//344 408//408 343//343
f 408//408 407//407 343//343
f 412//412 411//411 347//347
f 407//407 406//406 342//342
f 342//342 406//406 341//341
f 406//406 405//405 341//341
f 341//341 405//405 340//340
f 494//494 516//516 493//493
f 495//495 516//516 494//494
f 485//485 516//516 484//484
f 497//497 516//516 496//496
f 496//496 516//516 495//495
f 493//493 516//516 492//492
f 486//486 516//516 485//485
f 491//491 516//516 490//490
f 490//490 516//516 489//489
f 489//489 516//516 488//488
f 488//488 516//516 487//487
f 487//487 516//516 486//486
f 498//498 516//516 497//497
f 492//492 516//516 491//491
f 499//499 516//516 498//498
f 506//506 516//516 505//505
f 501//501 516//516 500//500
f 502//502 516//516 501//501
f 503//503 516//516 502//502
f 504//504 516//516 503//503
f 505//505 516//516 504//504
f 507//507 516//516 506//506
f 508//508 516//516 507//507
f 509//509 516//516 508//508
f 510//510 516//516 509//509
f 511//511 516//516 510//510
f 512//512 516//516 511//511
f 513//513 516//516 512//512
f 514//514 516//516 513//513
f 500//500 516//516 499//499
f 484//484 516//516 483//483
f 453//453 516//516 452//452
f 482//482 516//516 481//481
f 515//515 516//516 514//514
f 454//454 516//516 453//453
f 455//455 516//516 454//454
f 456//456 516//516 455//455
f 457//457 516//516 456//456
f 458//458 516//516 457//457
f 459//459 516//516 458//458
f 460//460 516//516 459//459
f 461//461 516//516 460//460
f 462//462 516//516 461//461
f 463//463 516//516 462//462
f 464//464 516//516 463//463
f 465//465 516//516 464//464
f 466//466 516//516 465//465
f 467//467 516//516 466//466
f 468//468 516//516 467//467
f 469//469 516//516 468//468
f 470//470 516//516 469//469
f 471//471 516//516 470//470
f 472//472 516//516 471//471
f 473//473 516//516 472//472
f 474//474 516//516 473//473
f 475//475 516//516 474//474
f 476//476 516//516 475//475
f 477//477 516//516 476//476
f 478//478 516//516 477//477
f 479//479 516//516 478//478
f 480//480 516//516 479//479
f 481//481 516//516 480//480
f 483//483 516//516 482//482
f 452//452 516//516 515//515
