# Independent procedural camera geometry; meters; Z up
o front_lens_bezel
v 0.0109200000 0.0148800000 0.0971200000
v 0.0109200000 0.0147526995 0.0990622297
v 0.0109200000 0.0143729763 0.1009712274
v 0.0109200000 0.0137473274 0.1028143295
v 0.0109200000 0.0128864580 0.1045600000
v 0.0109200000 0.0118050977 0.1061783701
v 0.0109200000 0.0105217489 0.1076417489
v 0.0109200000 0.0090583701 0.1089250977
v 0.0109200000 0.0074400000 0.1100064580
v 0.0109200000 0.0056943295 0.1108673274
v 0.0109200000 0.0038512274 0.1114929763
v 0.0109200000 0.0019422297 0.1118726995
v 0.0109200000 0.0000000000 0.1120000000
v 0.0109200000 -0.0019422297 0.1118726995
v 0.0109200000 -0.0038512274 0.1114929763
v 0.0109200000 -0.0056943295 0.1108673274
v 0.0109200000 -0.0074400000 0.1100064580
v 0.0109200000 -0.0090583701 0.1089250977
v 0.0109200000 -0.0105217489 0.1076417489
v 0.0109200000 -0.0118050977 0.1061783701
v 0.0109200000 -0.0128864580 0.1045600000
v 0.0109200000 -0.0137473274 0.1028143295
v 0.0109200000 -0.0143729763 0.1009712274
v 0.0109200000 -0.0147526995 0.0990622297
v 0.0109200000 -0.0148800000 0.0971200000
v 0.0109200000 -0.0147526995 0.0951777703
v 0.0109200000 -0.0143729763 0.0932687726
v 0.0109200000 -0.0137473274 0.0914256705
v 0.0109200000 -0.0128864580 0.0896800000
v 0.0109200000 -0.0118050977 0.0880616299
v 0.0109200000 -0.0105217489 0.0865982511
v 0.0109200000 -0.0090583701 0.0853149023
v 0.0109200000 -0.0074400000 0.0842335420
v 0.0109200000 -0.0056943295 0.0833726726
v 0.0109200000 -0.0038512274 0.0827470237
v 0.0109200000 -0.0019422297 0.0823673005
v 0.0109200000 -0.0000000000 0.0822400000
v 0.0109200000 0.0019422297 0.0823673005
v 0.0109200000 0.0038512274 0.0827470237
v 0.0109200000 0.0056943295 0.0833726726
v 0.0109200000 0.0074400000 0.0842335420
v 0.0109200000 0.0090583701 0.0853149023
v 0.0109200000 0.0105217489 0.0865982511
v 0.0109200000 0.0118050977 0.0880616299
v 0.0109200000 0.0128864580 0.0896800000
v 0.0109200000 0.0137473274 0.0914256705
v 0.0109200000 0.0143729763 0.0932687726
v 0.0109200000 0.0147526995 0.0951777703
v 0.0116284000 0.0148800000 0.0971200000
v 0.0116284000 0.0147526995 0.0990622297
v 0.0116284000 0.0143729763 0.1009712274
v 0.0116284000 0.0137473274 0.1028143295
v 0.0116284000 0.0128864580 0.1045600000
v 0.0116284000 0.0118050977 0.1061783701
v 0.0116284000 0.0105217489 0.1076417489
v 0.0116284000 0.0090583701 0.1089250977
v 0.0116284000 0.0074400000 0.1100064580
v 0.0116284000 0.0056943295 0.1108673274
v 0.0116284000 0.0038512274 0.1114929763
v 0.0116284000 0.0019422297 0.1118726995
v 0.0116284000 0.0000000000 0.1120000000
v 0.0116284000 -0.0019422297 0.1118726995
v 0.0116284000 -0.0038512274 0.1114929763
v 0.0116284000 -0.0056943295 0.1108673274
v 0.0116284000 -0.0074400000 0.1100064580
v 0.0116284000 -0.0090583701 0.1089250977
v 0.0116284000 -0.0105217489 0.1076417489
v 0.0116284000 -0.0118050977 0.1061783701
v 0.0116284000 -0.0128864580 0.1045600000
v 0.0116284000 -0.0137473274 0.1028143295
v 0.0116284000 -0.0143729763 0.1009712274
v 0.0116284000 -0.0147526995 0.0990622297
v 0.0116284000 -0.0148800000 0.0971200000
v 0.0116284000 -0.0147526995 0.0951777703
v 0.0116284000 -0.0143729763 0.0932687726
v 0.0116284000 -0.0137473274 0.0914256705
v 0.0116284000 -0.0128864580 0.0896800000
v 0.0116284000 -0.0118050977 0.0880616299
v 0.0116284000 -0.0105217489 0.0865982511
v 0.0116284000 -0.0090583701 0.0853149023
v 0.0116284000 -0.0074400000 0.0842335420
v 0.0116284000 -0.0056943295 0.0833726726
v 0.0116284000 -0.0038512274 0.0827470237
v 0.0116284000 -0.0019422297 0.0823673005
v 0.0116284000 -0.0000000000 0.0822400000
v 0.0116284000 0.0019422297 0.0823673005
v 0.0116284000 0.0038512274 0.0827470237
v 0.0116284000 0.0056943295 0.0833726726
v 0.0116284000 0.0074400000 0.0842335420
v 0.0116284000 0.0090583701 0.0853149023
v 0.0116284000 0.0105217489 0.0865982511
v 0.0116284000 0.0118050977 0.0880616299
v 0.0116284000 0.0128864580 0.0896800000
v 0.0116284000 0.0137473274 0.0914256705
v 0.0116284000 0.0143729763 0.0932687726
v 0.0116284000 0.0147526995 0.0951777703
v 0.0119980000 0.0135408000 0.0971200000
v 0.0119980000 0.0134249566 0.0988874291
v 0.0119980000 0.0130794084 0.1006246169
v 0.0119980000 0.0125100680 0.1023018398
v 0.0119980000 0.0117266768 0.1038904000
v 0.0119980000 0.0107426389 0.1053631168
v 0.0119980000 0.0095747915 0.1066947915
v 0.0119980000 0.0082431168 0.1078626389
v 0.0119980000 0.0067704000 0.1088466768
v 0.0119980000 0.0051818398 0.1096300680
v 0.0119980000 0.0035046169 0.1101994084
v 0.0119980000 0.0017674291 0.1105449566
v 0.0119980000 0.0000000000 0.1106608000
v 0.0119980000 -0.0017674291 0.1105449566
v 0.0119980000 -0.0035046169 0.1101994084
v 0.0119980000 -0.0051818398 0.1096300680
v 0.0119980000 -0.0067704000 0.1088466768
v 0.0119980000 -0.0082431168 0.1078626389
v 0.0119980000 -0.0095747915 0.1066947915
v 0.0119980000 -0.0107426389 0.1053631168
v 0.0119980000 -0.0117266768 0.1038904000
v 0.0119980000 -0.0125100680 0.1023018398
v 0.0119980000 -0.0130794084 0.1006246169
v 0.0119980000 -0.0134249566 0.0988874291
v 0.0119980000 -0.0135408000 0.0971200000
v 0.0119980000 -0.0134249566 0.0953525709
v 0.0119980000 -0.0130794084 0.0936153831
v 0.0119980000 -0.0125100680 0.0919381602
v 0.0119980000 -0.0117266768 0.0903496000
v 0.0119980000 -0.0107426389 0.0888768832
v 0.0119980000 -0.0095747915 0.0875452085
v 0.0119980000 -0.0082431168 0.0863773611
v 0.0119980000 -0.0067704000 0.0853933232
v 0.0119980000 -0.0051818398 0.0846099320
v 0.0119980000 -0.0035046169 0.0840405916
v 0.0119980000 -0.0017674291 0.0836950434
v 0.0119980000 -0.0000000000 0.0835792000
v 0.0119980000 0.0017674291 0.0836950434
v 0.0119980000 0.0035046169 0.0840405916
v 0.0119980000 0.0051818398 0.0846099320
v 0.0119980000 0.0067704000 0.0853933232
v 0.0119980000 0.0082431168 0.0863773611
v 0.0119980000 0.0095747915 0.0875452085
v 0.0119980000 0.0107426389 0.0888768832
v 0.0119980000 0.0117266768 0.0903496000
v 0.0119980000 0.0125100680 0.0919381602
v 0.0119980000 0.0130794084 0.0936153831
v 0.0119980000 0.0134249566 0.0953525709
v 0.0109200000 -0.0000000000 0.0971200000
v 0.0119980000 -0.0000000000 0.0971200000
vn -0.69267805 0.72124692 0.00000000
vn -0.69267805 0.71507656 0.09414161
vn -0.69267805 0.69667103 0.18667244
vn -0.69267805 0.66634527 0.27600925
vn -0.69267805 0.62461816 0.36062346
vn -0.69267805 0.57220366 0.43906731
vn -0.69267805 0.50999859 0.50999859
vn -0.69267805 0.43906731 0.57220366
vn -0.69267805 0.36062346 0.62461816
vn -0.69267805 0.27600925 0.66634527
vn -0.69267805 0.18667244 0.69667103
vn -0.69267805 0.09414161 0.71507656
vn -0.69267805 -0.00000000 0.72124692
vn -0.69267805 -0.09414161 0.71507656
vn -0.69267805 -0.18667244 0.69667103
vn -0.69267805 -0.27600925 0.66634527
vn -0.69267805 -0.36062346 0.62461816
vn -0.69267805 -0.43906731 0.57220366
vn -0.69267805 -0.50999859 0.50999859
vn -0.69267805 -0.57220366 0.43906731
vn -0.69267805 -0.62461816 0.36062346
vn -0.69267805 -0.66634527 0.27600925
vn -0.69267805 -0.69667103 0.18667244
vn -0.69267805 -0.71507656 0.09414161
vn -0.69267805 -0.72124692 0.00000000
vn -0.69267805 -0.71507656 -0.09414161
vn -0.69267805 -0.69667103 -0.18667244
vn -0.69267805 -0.66634527 -0.27600925
vn -0.69267805 -0.62461816 -0.36062346
vn -0.69267805 -0.57220366 -0.43906731
vn -0.69267805 -0.50999859 -0.50999859
vn -0.69267805 -0.43906731 -0.57220366
vn -0.69267805 -0.36062346 -0.62461816
vn -0.69267805 -0.27600925 -0.66634527
vn -0.69267805 -0.18667244 -0.69667103
vn -0.69267805 -0.09414161 -0.71507656
vn -0.69267805 0.00000000 -0.72124692
vn -0.69267805 0.09414161 -0.71507656
vn -0.69267805 0.18667244 -0.69667103
vn -0.69267805 0.27600925 -0.66634527
vn -0.69267805 0.36062346 -0.62461816
vn -0.69267805 0.43906731 -0.57220366
vn -0.69267805 0.50999859 -0.50999859
vn -0.69267805 0.57220366 -0.43906731
vn -0.69267805 0.62461816 -0.36062346
vn -0.69267805 0.66634527 -0.27600925
vn -0.69267805 0.69667103 -0.18667244
vn -0.69267805 0.71507656 -0.09414161
vn 0.59391188 0.80453009 0.00000000
vn 0.59391188 0.79764723 0.10501225
vn 0.59391188 0.77711640 0.20822771
vn 0.59391188 0.74328889 0.30788034
vn 0.59391188 0.69674350 0.40226505
vn 0.59391188 0.63827664 0.48976689
vn 0.59391188 0.56888869 0.56888869
vn 0.59391188 0.48976689 0.63827664
vn 0.59391188 0.40226505 0.69674350
vn 0.59391188 0.30788034 0.74328889
vn 0.59391188 0.20822771 0.77711640
vn 0.59391188 0.10501225 0.79764723
vn 0.59391188 -0.00000000 0.80453009
vn 0.59391188 -0.10501225 0.79764723
vn 0.59391188 -0.20822771 0.77711640
vn 0.59391188 -0.30788034 0.74328889
vn 0.59391188 -0.40226505 0.69674350
vn 0.59391188 -0.48976689 0.63827664
vn 0.59391188 -0.56888869 0.56888869
vn 0.59391188 -0.63827664 0.48976689
vn 0.59391188 -0.69674350 0.40226505
vn 0.59391188 -0.74328889 0.30788034
vn 0.59391188 -0.77711640 0.20822771
vn 0.59391188 -0.79764723 0.10501225
vn 0.59391188 -0.80453009 0.00000000
vn 0.59391188 -0.79764723 -0.10501225
vn 0.59391188 -0.77711640 -0.20822771
vn 0.59391188 -0.74328889 -0.30788034
vn 0.59391188 -0.69674350 -0.40226505
vn 0.59391188 -0.63827664 -0.48976689
vn 0.59391188 -0.56888869 -0.56888869
vn 0.59391188 -0.48976689 -0.63827664
vn 0.59391188 -0.40226505 -0.69674350
vn 0.59391188 -0.30788034 -0.74328889
vn 0.59391188 -0.20822771 -0.77711640
vn 0.59391188 -0.10501225 -0.79764723
vn 0.59391188 0.00000000 -0.80453009
vn 0.59391188 0.10501225 -0.79764723
vn 0.59391188 0.20822771 -0.77711640
vn 0.59391188 0.30788034 -0.74328889
vn 0.59391188 0.40226505 -0.69674350
vn 0.59391188 0.48976689 -0.63827664
vn 0.59391188 0.56888869 -0.56888869
vn 0.59391188 0.63827664 -0.48976689
vn 0.59391188 0.69674350 -0.40226505
vn 0.59391188 0.74328889 -0.30788034
vn 0.59391188 0.77711640 -0.20822771
vn 0.59391188 0.79764723 -0.10501225
vn 0.99019123 0.13971874 0.00000000
vn 0.99019123 0.13852343 0.01823696
vn 0.99019123 0.13495794 0.03616187
vn 0.99019123 0.12908328 0.05346805
vn 0.99019123 0.12099998 0.06985937
vn 0.99019123 0.11084633 0.08505538
vn 0.99019123 0.09879607 0.09879607
vn 0.99019123 0.08505538 0.11084633
vn 0.99019123 0.06985937 0.12099998
vn 0.99019123 0.05346805 0.12908328
vn 0.99019123 0.03616187 0.13495794
vn 0.99019123 0.01823696 0.13852343
vn 0.99019123 -0.00000000 0.13971874
vn 0.99019123 -0.01823696 0.13852343
vn 0.99019123 -0.03616187 0.13495794
vn 0.99019123 -0.05346805 0.12908328
vn 0.99019123 -0.06985937 0.12099998
vn 0.99019123 -0.08505538 0.11084633
vn 0.99019123 -0.09879607 0.09879607
vn 0.99019123 -0.11084633 0.08505538
vn 0.99019123 -0.12099998 0.06985937
vn 0.99019123 -0.12908328 0.05346805
vn 0.99019123 -0.13495794 0.03616187
vn 0.99019123 -0.13852343 0.01823696
vn 0.99019123 -0.13971874 0.00000000
vn 0.99019123 -0.13852343 -0.01823696
vn 0.99019123 -0.13495794 -0.03616187
vn 0.99019123 -0.12908328 -0.05346805
vn 0.99019123 -0.12099998 -0.06985937
vn 0.99019123 -0.11084633 -0.08505538
vn 0.99019123 -0.09879607 -0.09879607
vn 0.99019123 -0.08505538 -0.11084633
vn 0.99019123 -0.06985937 -0.12099998
vn 0.99019123 -0.05346805 -0.12908328
vn 0.99019123 -0.03616187 -0.13495794
vn 0.99019123 -0.01823696 -0.13852343
vn 0.99019123 0.00000000 -0.13971874
vn 0.99019123 0.01823696 -0.13852343
vn 0.99019123 0.03616187 -0.13495794
vn 0.99019123 0.05346805 -0.12908328
vn 0.99019123 0.06985937 -0.12099998
vn 0.99019123 0.08505538 -0.11084633
vn 0.99019123 0.09879607 -0.09879607
vn 0.99019123 0.11084633 -0.08505538
vn 0.99019123 0.12099998 -0.06985937
vn 0.99019123 0.12908328 -0.05346805
vn 0.99019123 0.13495794 -0.03616187
vn 0.99019123 0.13852343 -0.01823696
vn -1.00000000 0.00000000 0.00000000
vn 1.00000000 0.00000000 0.00000000
f 50//50 49//49 1//1
f 2//2 50//50 1//1
f 51//51 50//50 2//2
f 3//3 51//51 2//2
f 52//52 51//51 3//3
f 4//4 52//52 3//3
f 53//53 52//52 4//4
f 5//5 53//53 4//4
f 54//54 53//53 5//5
f 6//6 54//54 5//5
f 55//55 54//54 6//6
f 7//7 55//55 6//6
f 56//56 55//55 7//7
f 8//8 56//56 7//7
f 57//57 56//56 8//8
f 9//9 57//57 8//8
f 58//58 57//57 9//9
f 10//10 58//58 9//9
f 59//59 58//58 10//10
f 11//11 59//59 10//10
f 60//60 59//59 11//11
f 12//12 60//60 11//11
f 61//61 60//60 12//12
f 13//13 61//61 12//12
f 62//62 61//61 13//13
f 14//14 62//62 13//13
f 63//63 62//62 14//14
f 15//15 63//63 14//14
f 64//64 63//63 15//15
f 16//16 64//64 15//15
f 65//65 64//64 16//16
f 17//17 65//65 16//16
f 66//66 65//65 17//17
f 18//18 66//66 17//17
f 67//67 66//66 18//18
f 19//19 67//67 18//18
f 68//68 67//67 19//19
f 20//20 68//68 19//19
f 69//69 68//68 20//20
f 21//21 69//69 20//20
f 70//70 69//69 21//21
f 22//22 70//70 21//21
f 71//71 70//70 22//22
f 23//23 71//71 22//22
f 72//72 71//71 23//23
f 24//24 72//72 23//23
f 73//73 72//72 24//24
f 25//25 73//73 24//24
f 74//74 73//73 25//25
f 26//26 74//74 25//25
f 75//75 74//74 26//26
f 27//27 75//75 26//26
f 76//76 75//75 27//27
f 28//28 76//76 27//27
f 77//77 76//76 28//28
f 29//29 77//77 28//28
f 78//78 77//77 29//29
f 30//30 78//78 29//29
f 79//79 78//78 30//30
f 31//31 79//79 30//30
f 80//80 79//79 31//31
f 32//32 80//80 31//31
f 81//81 80//80 32//32
f 33//33 81//81 32//32
f 82//82 81//81 33//33
f 34//34 82//82 33//33
f 83//83 82//82 34//34
f 35//35 83//83 34//34
f 84//84 83//83 35//35
f 36//36 84//84 35//35
f 85//85 84//84 36//36
f 37//37 85//85 36//36
f 86//86 85//85 37//37
f 38//38 86//86 37//37
f 87//87 86//86 38//38
f 39//39 87//87 38//38
f 88//88 87//87 39//39
f 40//40 88//88 39//39
f 89//89 88//88 40//40
f 41//41 89//89 40//40
f 90//90 89//89 41//41
f 42//42 90//90 41//41
f 91//91 90//90 42//42
f 43//43 91//91 42//42
f 92//92 91//91 43//43
f 44//44 92//92 43//43
f 93//93 92//92 44//44
f 45//45 93//93 44//44
f 94//94 93//93 45//45
f 46//46 94//94 45//45
f 95//95 94//94 46//46
f 47//47 95//95 46//46
f 96//96 95//95 47//47
f 48//48 96//96 47//47
f 49//49 96//96 48//48
f 1//1 49//49 48//48
f 98//98 97//97 49//49
f 50//50 98//98 49//49
f 99//99 98//98 50//50
f 51//51 99//99 50//50
f 100//100 99//99 51//51
f 52//52 100//100 51//51
f 101//101 100//100 52//52
f 53//53 101//101 52//52
f 102//102 101//101 53//53
f 54//54 102//102 53//53
f 103//103 102//102 54//54
f 55//55 103//103 54//54
f 104//104 103//103 55//55
f 56//56 104//104 55//55
f 105//105 104//104 56//56
f 57//57 105//105 56//56
f 106//106 105//105 57//57
f 58//58 106//106 57//57
f 107//107 106//106 58//58
f 59//59 107//107 58//58
f 108//108 107//107 59//59
f 60//60 108//108 59//59
f 109//109 108//108 60//60
f 61//61 109//109 60//60
f 110//110 109//109 61//61
f 62//62 110//110 61//61
f 111//111 110//110 62//62
f 63//63 111//111 62//62
f 112//112 111//111 63//63
f 64//64 112//112 63//63
f 113//113 112//112 64//64
f 65//65 113//113 64//64
f 114//114 113//113 65//65
f 66//66 114//114 65//65
f 115//115 114//114 66//66
f 67//67 115//115 66//66
f 116//116 115//115 67//67
f 68//68 116//116 67//67
f 117//117 116//116 68//68
f 69//69 117//117 68//68
f 118//118 117//117 69//69
f 70//70 118//118 69//69
f 119//119 118//118 70//70
f 71//71 119//119 70//70
f 120//120 119//119 71//71
f 72//72 120//120 71//71
f 121//121 120//120 72//72
f 73//73 121//121 72//72
f 122//122 121//121 73//73
f 74//74 122//122 73//73
f 123//123 122//122 74//74
f 75//75 123//123 74//74
f 124//124 123//123 75//75
f 76//76 124//124 75//75
f 125//125 124//124 76//76
f 77//77 125//125 76//76
f 126//126 125//125 77//77
f 78//78 126//126 77//77
f 127//127 126//126 78//78
f 79//79 127//127 78//78
f 128//128 127//127 79//79
f 80//80 128//128 79//79
f 129//129 128//128 80//80
f 81//81 129//129 80//80
f 130//130 129//129 81//81
f 82//82 130//130 81//81
f 131//131 130//130 82//82
f 83//83 131//131 82//82
f 132//132 131//131 83//83
f 84//84 132//132 83//83
f 133//133 132//132 84//84
f 85//85 133//133 84//84
f 134//134 133//133 85//85
f 86//86 134//134 85//85
f 135//135 134//134 86//86
f 87//87 135//135 86//86
f 136//136 135//135 87//87
f 88//88 136//136 87//87
f 137//137 136//136 88//88
f 89//89 137//137 88//88
f 138//138 137//137 89//89
f 90//90 138//138 89//89
f 139//139 138//138 90//90
f 91//91 139//139 90//90
f 140//140 139//139 91//91
f 92//92 140//140 91//91
f 141//141 140//140 92//92
f 93//93 141//141 92//92
f 142//142 141//141 93//93
f 94//94 142//142 93//93
f 143//143 142//142 94//94
f 95//95 143//143 94//94
f 144//144 143//143 95//95
f 96//96 144//144 95//95
f 97//97 144//144 96//96
f 49//49 97//97 96//96
f 2//2 1//1 145//145
f 3//3 2//2 145//145
f 4//4 3//3 145//145
f 5//5 4//4 145//145
f 6//6 5//5 145//145
f 7//7 6//6 145//145
f 8//8 7//7 145//145
f 9//9 8//8 145//145
f 10//10 9//9 145//145
f 11//11 10//10 145//145
f 12//12 11//11 145//145
f 13//13 12//12 145//145
f 14//14 13//13 145//145
f 15//15 14//14 145//145
f 16//16 15//15 145//145
f 17//17 16//16 145//145
f 18//18 17//17 145//145
f 19//19 18//18 145//145
f 20//20 19//19 145//145
f 21//21 20//20 145//145
f 22//22 21//21 145//145
f 23//23 22//22 145//145
f 24//24 23//23 145//145
f 25//25 24//24 145//145
f 26//26 25//25 145//145
f 27//27 26//26 145//145
f 28//28 27//27 145//145
f 29//29 28//28 145//145
f 30//30 29//29 145//145
f 31//31 30//30 145//145
f 32//32 31//31 145//145
f 33//33 32//32 145//145
f 34//34 33//33 145//145
f 35//35 34//34 145//145
f 36//36 35//35 145//145
f 37//37 36//36 145//145
f 38//38 37//37 145//145
f 39//39 38//38 145//145
f 40//40 39//39 145//145
f 41//41 40//40 145//145
f 42//42 41//41 145//145
f 43//43 42//42 145//145
f 44//44 43//43 145//145
f 45//45 44//44 145//145
f 46//46 45//45 145//145
f 47//47 46//46 145//145
f 48//48 47//47 145//145
f 1//1 48//48 145//145
f 146//146 97//97 98//98
f 146//146 98//98 99//99
f 146//146 99//99 100//100
f 146//146 100//100 101//101
f 146//146 101//101 102//102
f 146//146 102//102 103//103
f 146//146 103//103 104//104
f 146//146 104//104 105//105
f 146//146 105//105 106//106
f 146//146 106//106 107//107
f 146//146 107//107 108//108
f 146//146 108//108 109//109
f 146//146 109//109 110//110
f 146//146 110//110 111//111
f 146//146 111//111 112//112
f 146//146 112//112 113//113
f 146//146 113//113 114//114
f 146//146 114//114 115//115
f 146//146 115//115 116//116
f 146//146 116//116 117//117
f 146//146 117//117 118//118
f 146//146 118//118 119//119
f 146//146 119//119 120//120
f 146//146 120//120 121//121
f 146//146 121//121 122//122
f 146//146 122//122 123//123
f 146//146 123//123 124//124
f 146//146 124//124 125//125
f 146//146 125//125 126//126
f 146//146 126//126 127//127
f 146//146 127//127 128//128
f 146//146 128//128 129//129
f 146//146 129//129 130//130
f 146//146 130//130 131//131
f 146//146 131//131 132//132
f 146//146 132//132 133//133
f 146//146 133//133 134//134
f 146//146 134//134 135//135
f 146//146 135//135 136//136
f 146//146 136//136 137//137
f 146//146 137//137 138//138
f 146//146 138//138 139//139
f 146//146 139//139 140//140
f 146//146 140//140 141//141
f 146//146 141//141 142//142
f 146//146 142//142 143//143
f 146//146 143//143 144//144
f 146//146 144//144 97//97
o rear_lens_bezel
v -0.0109200000 0.0148800000 0.0971200000
v -0.0109200000 0.0147526995 0.0990622297
v -0.0109200000 0.0143729763 0.1009712274
v -0.0109200000 0.0137473274 0.1028143295
v -0.0109200000 0.0128864580 0.1045600000
v -0.0109200000 0.0118050977 0.1061783701
v -0.0109200000 0.0105217489 0.1076417489
v -0.0109200000 0.0090583701 0.1089250977
v -0.0109200000 0.0074400000 0.1100064580
v -0.0109200000 0.0056943295 0.1108673274
v -0.0109200000 0.0038512274 0.1114929763
v -0.0109200000 0.0019422297 0.1118726995
v -0.0109200000 0.0000000000 0.1120000000
v -0.0109200000 -0.0019422297 0.1118726995
v -0.0109200000 -0.0038512274 0.1114929763
v -0.0109200000 -0.0056943295 0.1108673274
v -0.0109200000 -0.0074400000 0.1100064580
v -0.0109200000 -0.0090583701 0.1089250977
v -0.0109200000 -0.0105217489 0.1076417489
v -0.0109200000 -0.0118050977 0.1061783701
v -0.0109200000 -0.0128864580 0.1045600000
v -0.0109200000 -0.0137473274 0.1028143295
v -0.0109200000 -0.0143729763 0.1009712274
v -0.0109200000 -0.0147526995 0.0990622297
v -0.0109200000 -0.0148800000 0.0971200000
v -0.0109200000 -0.0147526995 0.0951777703
v -0.0109200000 -0.0143729763 0.0932687726
v -0.0109200000 -0.0137473274 0.0914256705
v -0.0109200000 -0.0128864580 0.0896800000
v -0.0109200000 -0.0118050977 0.0880616299
v -0.0109200000 -0.0105217489 0.0865982511
v -0.0109200000 -0.0090583701 0.0853149023
v -0.0109200000 -0.0074400000 0.0842335420
v -0.0109200000 -0.0056943295 0.0833726726
v -0.0109200000 -0.0038512274 0.0827470237
v -0.0109200000 -0.0019422297 0.0823673005
v -0.0109200000 -0.0000000000 0.0822400000
v -0.0109200000 0.0019422297 0.0823673005
v -0.0109200000 0.0038512274 0.0827470237
v -0.0109200000 0.0056943295 0.0833726726
v -0.0109200000 0.0074400000 0.0842335420
v -0.0109200000 0.0090583701 0.0853149023
v -0.0109200000 0.0105217489 0.0865982511
v -0.0109200000 0.0118050977 0.0880616299
v -0.0109200000 0.0128864580 0.0896800000
v -0.0109200000 0.0137473274 0.0914256705
v -0.0109200000 0.0143729763 0.0932687726
v -0.0109200000 0.0147526995 0.0951777703
v -0.0116284000 0.0148800000 0.0971200000
v -0.0116284000 0.0147526995 0.0990622297
v -0.0116284000 0.0143729763 0.1009712274
v -0.0116284000 0.0137473274 0.1028143295
v -0.0116284000 0.0128864580 0.1045600000
v -0.0116284000 0.0118050977 0.1061783701
v -0.0116284000 0.0105217489 0.1076417489
v -0.0116284000 0.0090583701 0.1089250977
v -0.0116284000 0.0074400000 0.1100064580
v -0.0116284000 0.0056943295 0.1108673274
v -0.0116284000 0.0038512274 0.1114929763
v -0.0116284000 0.0019422297 0.1118726995
v -0.0116284000 0.0000000000 0.1120000000
v -0.0116284000 -0.0019422297 0.1118726995
v -0.0116284000 -0.0038512274 0.1114929763
v -0.0116284000 -0.0056943295 0.1108673274
v -0.0116284000 -0.0074400000 0.1100064580
v -0.0116284000 -0.0090583701 0.1089250977
v -0.0116284000 -0.0105217489 0.1076417489
v -0.0116284000 -0.0118050977 0.1061783701
v -0.0116284000 -0.0128864580 0.1045600000
v -0.0116284000 -0.0137473274 0.1028143295
v -0.0116284000 -0.0143729763 0.1009712274
v -0.0116284000 -0.0147526995 0.0990622297
v -0.0116284000 -0.0148800000 0.0971200000
v -0.0116284000 -0.0147526995 0.0951777703
v -0.0116284000 -0.0143729763 0.0932687726
v -0.0116284000 -0.0137473274 0.0914256705
v -0.0116284000 -0.0128864580 0.0896800000
v -0.0116284000 -0.0118050977 0.0880616299
v -0.0116284000 -0.0105217489 0.0865982511
v -0.0116284000 -0.0090583701 0.0853149023
v -0.0116284000 -0.0074400000 0.0842335420
v -0.0116284000 -0.0056943295 0.0833726726
v -0.0116284000 -0.0038512274 0.0827470237
v -0.0116284000 -0.0019422297 0.0823673005
v -0.0116284000 -0.0000000000 0.0822400000
v -0.0116284000 0.0019422297 0.0823673005
v -0.0116284000 0.0038512274 0.0827470237
v -0.0116284000 0.0056943295 0.0833726726
v -0.0116284000 0.0074400000 0.0842335420
v -0.0116284000 0.0090583701 0.0853149023
v -0.0116284000 0.0105217489 0.0865982511
v -0.0116284000 0.0118050977 0.0880616299
v -0.0116284000 0.0128864580 0.0896800000
v -0.0116284000 0.0137473274 0.0914256705
v -0.0116284000 0.0143729763 0.0932687726
v -0.0116284000 0.0147526995 0.0951777703
v -0.0119980000 0.0135408000 0.0971200000
v -0.0119980000 0.0134249566 0.0988874291
v -0.0119980000 0.0130794084 0.1006246169
v -0.0119980000 0.0125100680 0.1023018398
v -0.0119980000 0.0117266768 0.1038904000
v -0.0119980000 0.0107426389 0.1053631168
v -0.0119980000 0.0095747915 0.1066947915
v -0.0119980000 0.0082431168 0.1078626389
v -0.0119980000 0.0067704000 0.1088466768
v -0.0119980000 0.0051818398 0.1096300680
v -0.0119980000 0.0035046169 0.1101994084
v -0.0119980000 0.0017674291 0.1105449566
v -0.0119980000 0.0000000000 0.1106608000
v -0.0119980000 -0.0017674291 0.1105449566
v -0.0119980000 -0.0035046169 0.1101994084
v -0.0119980000 -0.0051818398 0.1096300680
v -0.0119980000 -0.0067704000 0.1088466768
v -0.0119980000 -0.0082431168 0.1078626389
v -0.0119980000 -0.0095747915 0.1066947915
v -0.0119980000 -0.0107426389 0.1053631168
v -0.0119980000 -0.0117266768 0.1038904000
v -0.0119980000 -0.0125100680 0.1023018398
v -0.0119980000 -0.0130794084 0.1006246169
v -0.0119980000 -0.0134249566 0.0988874291
v -0.0119980000 -0.0135408000 0.0971200000
v -0.0119980000 -0.0134249566 0.0953525709
v -0.0119980000 -0.0130794084 0.0936153831
v -0.0119980000 -0.0125100680 0.0919381602
v -0.0119980000 -0.0117266768 0.0903496000
v -0.0119980000 -0.0107426389 0.0888768832
v -0.0119980000 -0.0095747915 0.0875452085
v -0.0119980000 -0.0082431168 0.0863773611
v -0.0119980000 -0.0067704000 0.0853933232
v -0.0119980000 -0.0051818398 0.0846099320
v -0.0119980000 -0.0035046169 0.0840405916
v -0.0119980000 -0.0017674291 0.0836950434
v -0.0119980000 -0.0000000000 0.0835792000
v -0.0119980000 0.0017674291 0.0836950434
v -0.0119980000 0.0035046169 0.0840405916
v -0.0119980000 0.0051818398 0.0846099320
v -0.0119980000 0.0067704000 0.0853933232
v -0.0119980000 0.0082431168 0.0863773611
v -0.0119980000 0.0095747915 0.0875452085
v -0.0119980000 0.0107426389 0.0888768832
v -0.0119980000 0.0117266768 0.0903496000
v -0.0119980000 0.0125100680 0.0919381602
v -0.0119980000 0.0130794084 0.0936153831
v -0.0119980000 0.0134249566 0.0953525709
v -0.0109200000 -0.0000000000 0.0971200000
v -0.0119980000 -0.0000000000 0.0971200000
vn 0.69267805 0.72124692 0.00000000
vn 0.69267805 0.71507656 0.09414161
vn 0.69267805 0.69667103 0.18667244
vn 0.69267805 0.66634527 0.27600925
vn 0.69267805 0.62461816 0.36062346
vn 0.69267805 0.57220366 0.43906731
vn 0.69267805 0.50999859 0.50999859
vn 0.69267805 0.43906731 0.57220366
vn 0.69267805 0.36062346 0.62461816
vn 0.69267805 0.27600925 0.66634527
vn 0.69267805 0.18667244 0.69667103
vn 0.69267805 0.09414161 0.71507656
vn 0.69267805 -0.00000000 0.72124692
vn 0.69267805 -0.09414161 0.71507656
vn 0.69267805 -0.18667244 0.69667103
vn 0.69267805 -0.27600925 0.66634527
vn 0.69267805 -0.36062346 0.62461816
vn 0.69267805 -0.43906731 0.57220366
vn 0.69267805 -0.50999859 0.50999859
vn 0.69267805 -0.57220366 0.43906731
vn 0.69267805 -0.62461816 0.36062346
vn 0.69267805 -0.66634527 0.27600925
vn 0.69267805 -0.69667103 0.18667244
vn 0.69267805 -0.71507656 0.09414161
vn 0.69267805 -0.72124692 0.00000000
vn 0.69267805 -0.71507656 -0.09414161
vn 0.69267805 -0.69667103 -0.18667244
vn 0.69267805 -0.66634527 -0.27600925
vn 0.69267805 -0.62461816 -0.36062346
vn 0.69267805 -0.57220366 -0.43906731
vn 0.69267805 -0.50999859 -0.50999859
vn 0.69267805 -0.43906731 -0.57220366
vn 0.69267805 -0.36062346 -0.62461816
vn 0.69267805 -0.27600925 -0.66634527
vn 0.69267805 -0.18667244 -0.69667103
vn 0.69267805 -0.09414161 -0.71507656
vn 0.69267805 0.00000000 -0.72124692
vn 0.69267805 0.09414161 -0.71507656
vn 0.69267805 0.18667244 -0.69667103
vn 0.69267805 0.27600925 -0.66634527
vn 0.69267805 0.36062346 -0.62461816
vn 0.69267805 0.43906731 -0.57220366
vn 0.69267805 0.50999859 -0.50999859
vn 0.69267805 0.57220366 -0.43906731
vn 0.69267805 0.62461816 -0.36062346
vn 0.69267805 0.66634527 -0.27600925
vn 0.69267805 0.69667103 -0.18667244
vn 0.69267805 0.71507656 -0.09414161
vn -0.59391188 0.80453009 0.00000000
vn -0.59391188 0.79764723 0.10501225
vn -0.59391188 0.77711640 0.20822771
vn -0.59391188 0.74328889 0.30788034
vn -0.59391188 0.69674350 0.40226505
vn -0.59391188 0.63827664 0.48976689
vn -0.59391188 0.56888869 0.56888869
vn -0.59391188 0.48976689 0.63827664
vn -0.59391188 0.40226505 0.69674350
vn -0.59391188 0.30788034 0.74328889
vn -0.59391188 0.20822771 0.77711640
vn -0.59391188 0.10501225 0.79764723
vn -0.59391188 -0.00000000 0.80453009
vn -0.59391188 -0.10501225 0.79764723
vn -0.59391188 -0.20822771 0.77711640
vn -0.59391188 -0.30788034 0.74328889
vn -0.59391188 -0.40226505 0.69674350
vn -0.59391188 -0.48976689 0.63827664
vn -0.59391188 -0.56888869 0.56888869
vn -0.59391188 -0.63827664 0.48976689
vn -0.59391188 -0.69674350 0.40226505
vn -0.59391188 -0.74328889 0.30788034
vn -0.59391188 -0.77711640 0.20822771
vn -0.59391188 -0.79764723 0.10501225
vn -0.59391188 -0.80453009 0.00000000
vn -0.59391188 -0.79764723 -0.10501225
vn -0.59391188 -0.77711640 -0.20822771
vn -0.59391188 -0.74328889 -0.30788034
vn -0.59391188 -0.69674350 -0.40226505
vn -0.59391188 -0.63827664 -0.48976689
vn -0.59391188 -0.56888869 -0.56888869
vn -0.59391188 -0.48976689 -0.63827664
vn -0.59391188 -0.40226505 -0.69674350
vn -0.59391188 -0.30788034 -0.74328889
vn -0.59391188 -0.20822771 -0.77711640
vn -0.59391188 -0.10501225 -0.79764723
vn -0.59391188 0.00000000 -0.80453009
vn -0.59391188 0.10501225 -0.79764723
vn -0.59391188 0.20822771 -0.77711640
vn -0.59391188 0.30788034 -0.74328889
vn -0.59391188 0.40226505 -0.69674350
vn -0.59391188 0.48976689 -0.63827664
vn -0.59391188 0.56888869 -0.56888869
vn -0.59391188 0.63827664 -0.48976689
vn -0.59391188 0.69674350 -0.40226505
vn -0.59391188 0.74328889 -0.30788034
vn -0.59391188 0.77711640 -0.20822771
vn -0.59391188 0.79764723 -0.10501225
vn -0.99019123 0.13971874 0.00000000
vn -0.99019123 0.13852343 0.01823696
vn -0.99019123 0.13495794 0.03616187
vn -0.99019123 0.12908328 0.05346805
vn -0.99019123 0.12099998 0.06985937
vn -0.99019123 0.11084633 0.08505538
vn -0.99019123 0.09879607 0.09879607
vn -0.99019123 0.08505538 0.11084633
vn -0.99019123 0.06985937 0.12099998
vn -0.99019123 0.05346805 0.12908328
vn -0.99019123 0.03616187 0.13495794
vn -0.99019123 0.01823696 0.13852343
vn -0.99019123 -0.00000000 0.13971874
vn -0.99019123 -0.01823696 0.13852343
vn -0.99019123 -0.03616187 0.13495794
vn -0.99019123 -0.05346805 0.12908328
vn -0.99019123 -0.06985937 0.12099998
vn -0.99019123 -0.08505538 0.11084633
vn -0.99019123 -0.09879607 0.09879607
vn -0.99019123 -0.11084633 0.08505538
vn -0.99019123 -0.12099998 0.06985937
vn -0.99019123 -0.12908328 0.05346805
vn -0.99019123 -0.13495794 0.03616187
vn -0.99019123 -0.13852343 0.01823696
vn -0.99019123 -0.13971874 0.00000000
vn -0.99019123 -0.13852343 -0.01823696
vn -0.99019123 -0.13495794 -0.03616187
vn -0.99019123 -0.12908328 -0.05346805
vn -0.99019123 -0.12099998 -0.06985937
vn -0.99019123 -0.11084633 -0.08505538
vn -0.99019123 -0.09879607 -0.09879607
vn -0.99019123 -0.08505538 -0.11084633
vn -0.99019123 -0.06985937 -0.12099998
vn -0.99019123 -0.05346805 -0.12908328
vn -0.99019123 -0.03616187 -0.13495794
vn -0.99019123 -0.01823696 -0.13852343
vn -0.99019123 0.00000000 -0.13971874
vn -0.99019123 0.01823696 -0.13852343
vn -0.99019123 0.03616187 -0.13495794
vn -0.99019123 0.05346805 -0.12908328
vn -0.99019123 0.06985937 -0.12099998
vn -0.99019123 0.08505538 -0.11084633
vn -0.99019123 0.09879607 -0.09879607
vn -0.99019123 0.11084633 -0.08505538
vn -0.99019123 0.12099998 -0.06985937
vn -0.99019123 0.12908328 -0.05346805
vn -0.99019123 0.13495794 -0.03616187
vn -0.99019123 0.13852343 -0.01823696
vn 1.00000000 0.00000000 0.00000000
vn -1.00000000 0.00000000 0.00000000
f 147//147 195//195 196//196
f 147//147 196//196 148//148
f 148//148 196//196 197//197
f 148//148 197//197 149//149
f 149//149 197//197 198//198
f 149//149 198//198 150//150
f 150//150 198//198 199//199
f 150//150 199//199 151//151
f 151//151 199//199 200//200
f 151//151 200//200 152//152
f 152//152 200//200 201//201
f 152//152 201//201 153//153
f 153//153 201//201 202//202
f 153//153 202//202 154//154
f 154//154 202//202 203//203
f 154//154 203//203 155//155
f 155//155 203//203 204//204
f 155//155 204//204 156//156
f 156//156 204//204 205//205
f 156//156 205//205 157//157
f 157//157 205//205 206//206
f 157//157 206//206 158//158
f 158//158 206//206 207//207
f 158//158 207//207 159//159
f 159//159 207//207 208//208
f 159//159 208//208 160//160
f 160//160 208//208 209//209
f 160//160 209//209 161//161
f 161//161 209//209 210//210
f 161//161 210//210 162//162
f 162//162 210//210 211//211
f 162//162 211//211 163//163
f 163//163 211//211 212//212
f 163//163 212//212 164//164
f 164//164 212//212 213//213
f 164//164 213//213 165//165
f 165//165 213//213 214//214
f 165//165 214//214 166//166
f 166//166 214//214 215//215
f 166//166 215//215 167//167
f 167//167 215//215 216//216
f 167//167 216//216 168//168
f 168//168 216//216 217//217
f 168//168 217//217 169//169
f 169//169 217//217 218//218
f 169//169 218//218 170//170
f 170//170 218//218 219//219
f 170//170 219//219 171//171
f 171//171 219//219 220//220
f 171//171 220//220 172//172
f 172//172 220//220 221//221
f 172//172 221//221 173//173
f 173//173 221//221 222//222
f 173//173 222//222 174//174
f 174//174 222//222 223//223
f 174//174 223//223 175//175
f 175//175 223//223 224//224
f 175//175 224//224 176//176
f 176//176 224//224 225//225
f 176//176 225//225 177//177
f 177//177 225//225 226//226
f 177//177 226//226 178//178
f 178//178 226//226 227//227
f 178//178 227//227 179//179
f 179//179 227//227 228//228
f 179//179 228//228 180//180
f 180//180 228//228 229//229
f 180//180 229//229 181//181
f 181//181 229//229 230//230
f 181//181 230//230 182//182
f 182//182 230//230 231//231
f 182//182 231//231 183//183
f 183//183 231//231 232//232
f 183//183 232//232 184//184
f 184//184 232//232 233//233
f 184//184 233//233 185//185
f 185//185 233//233 234//234
f 185//185 234//234 186//186
f 186//186 234//234 235//235
f 186//186 235//235 187//187
f 187//187 235//235 236//236
f 187//187 236//236 188//188
f 188//188 236//236 237//237
f 188//188 237//237 189//189
f 189//189 237//237 238//238
f 189//189 238//238 190//190
f 190//190 238//238 239//239
f 190//190 239//239 191//191
f 191//191 239//239 240//240
f 191//191 240//240 192//192
f 192//192 240//240 241//241
f 192//192 241//241 193//193
f 193//193 241//241 242//242
f 193//193 242//242 194//194
f 194//194 242//242 195//195
f 194//194 195//195 147//147
f 195//195 243//243 244//244
f 195//195 244//244 196//196
f 196//196 244//244 245//245
f 196//196 245//245 197//197
f 197//197 245//245 246//246
f 197//197 246//246 198//198
f 198//198 246//246 247//247
f 198//198 247//247 199//199
f 199//199 247//247 248//248
f 199//199 248//248 200//200
f 200//200 248//248 249//249
f 200//200 249//249 201//201
f 201//201 249//249 250//250
f 201//201 250//250 202//202
f 202//202 250//250 251//251
f 202//202 251//251 203//203
f 203//203 251//251 252//252
f 203//203 252//252 204//204
f 204//204 252//252 253//253
f 204//204 253//253 205//205
f 205//205 253//253 254//254
f 205//205 254//254 206//206
f 206//206 254//254 255//255
f 206//206 255//255 207//207
f 207//207 255//255 256//256
f 207//207 256//256 208//208
f 208//208 256//256 257//257
f 208//208 257//257 209//209
f 209//209 257//257 258//258
f 209//209 258//258 210//210
f 210//210 258//258 259//259
f 210//210 259//259 211//211
f 211//211 259//259 260//260
f 211//211 260//260 212//212
f 212//212 260//260 261//261
f 212//212 261//261 213//213
f 213//213 261//261 262//262
f 213//213 262//262 214//214
f 214//214 262//262 263//263
f 214//214 263//263 215//215
f 215//215 263//263 264//264
f 215//215 264//264 216//216
f 216//216 264//264 265//265
f 216//216 265//265 217//217
f 217//217 265//265 266//266
f 217//217 266//266 218//218
f 218//218 266//266 267//267
f 218//218 267//267 219//219
f 219//219 267//267 268//268
f 219//219 268//268 220//220
f 220//220 268//268 269//269
f 220//220 269//269 221//221
f 221//221 269//269 270//270
f 221//221 270//270 222//222
f 222//222 270//270 271//271
f 222//222 271//271 223//223
f 223//223 271//271 272//272
f 223//223 272//272 224//224
f 224//224 272//272 273//273
f 224//224 273//273 225//225
f 225//225 273//273 274//274
f 225//225 274//274 226//226
f 226//226 274//274 275//275
f 226//226 275//275 227//227
f 227//227 275//275 276//276
f 227//227 276//276 228//228
f 228//228 276//276 277//277
f 228//228 277//277 229//229
f 229//229 277//277 278//278
f 229//229 278//278 230//230
f 230//230 278//278 279//279
f 230//230 279//279 231//231
f 231//231 279//279 280//280
f 231//231 280//280 232//232
f 232//232 280//280 281//281
f 232//232 281//281 233//233
f 233//233 281//281 282//282
f 233//233 282//282 234//234
f 234//234 282//282 283//283
f 234//234 283//283 235//235
f 235//235 283//283 284//284
f 235//235 284//284 236//236
f 236//236 284//284 285//285
f 236//236 285//285 237//237
f 237//237 285//285 286//286
f 237//237 286//286 238//238
f 238//238 286//286 287//287
f 238//238 287//287 239//239
f 239//239 287//287 288//288
f 239//239 288//288 240//240
f 240//240 288//288 289//289
f 240//240 289//289 241//241
f 241//241 289//289 290//290
f 241//241 290//290 242//242
f 242//242 290//290 243//243
f 242//242 243//243 195//195
f 291//291 147//147 148//148
f 291//291 148//148 149//149
f 291//291 149//149 150//150
f 291//291 150//150 151//151
f 291//291 151//151 152//152
f 291//291 152//152 153//153
f 291//291 153//153 154//154
f 291//291 154//154 155//155
f 291//291 155//155 156//156
f 291//291 156//156 157//157
f 291//291 157//157 158//158
f 291//291 158//158 159//159
f 291//291 159//159 160//160
f 291//291 160//160 161//161
f 291//291 161//161 162//162
f 291//291 162//162 163//163
f 291//291 163//163 164//164
f 291//291 164//164 165//165
f 291//291 165//165 166//166
f 291//291 166//166 167//167
f 291//291 167//167 168//168
f 291//291 168//168 169//169
f 291//291 169//169 170//170
f 291//291 170//170 171//171
f 291//291 171//171 172//172
f 291//291 172//172 173//173
f 291//291 173//173 174//174
f 291//291 174//174 175//175
f 291//291 175//175 176//176
f 291//291 176//176 177//177
f 291//291 177//177 178//178
f 291//291 178//178 179//179
f 291//291 179//179 180//180
f 291//291 180//180 181//181
f 291//291 181//181 182//182
f 291//291 182//182 183//183
f 291//291 183//183 184//184
f 291//291 184//184 185//185
f 291//291 185//185 186//186
f 291//291 186//186 187//187
f 291//291 187//187 188//188
f 291//291 188//188 189//189
f 291//291 189//189 190//190
f 291//291 190//190 191//191
f 291//291 191//191 192//192
f 291//291 192//192 193//193
f 291//291 193//193 194//194
f 291//291 194//194 147//147
f 244//244 243//243 292//292
f 245//245 244//244 292//292
f 246//246 245//245 292//292
f 247//247 246//246 292//292
f 248//248 247//247 292//292
f 249//249 248//248 292//292
f 250//250 249//249 292//292
f 251//251 250//250 292//292
f 252//252 251//251 292//292
f 253//253 252//252 292//292
f 254//254 253//253 292//292
f 255//255 254//254 292//292
f 256//256 255//255 292//292
f 257//257 256//256 292//292
f 258//258 257//257 292//292
f 259//259 258//258 292//292
f 260//260 259//259 292//292
f 261//261 260//260 292//292
f 262//262 261//261 292//292
f 263//263 262//262 292//292
f 264//264 263//263 292//292
f 265//265 264//264 292//292
f 266//266 265//265 292//292
f 267//267 266//266 292//292
f 268//268 267//267 292//292
f 269//269 268//268 292//292
f 270//270 269//269 292//292
f 271//271 270//270 292//292
f 272//272 271//271 292//292
f 273//273 272//272 292//292
f 274//274 273//273 292//292
f 275//275 274//274 292//292
f 276//276 275//275 292//292
f 277//277 276//276 292//292
f 278//278 277//277 292//292
f 279//279 278//278 292//292
f 280//280 279//279 292//292
f 281//281 280//280 292//292
f 282//282 281//281 292//292
f 283//283 282//282 292//292
f 284//284 283//283 292//292
f 285//285 284//284 292//292
f 286//286 285//285 292//292
f 287//287 286//286 292//292
f 288//288 287//287 292//292
f 289//289 288//288 292//292
f 290//290 289//289 292//292
f 243//243 290//290 292//292
