# Independent procedural camera geometry; meters; Z up
o display_active_area
v 0.0108500000 0.0056824000 0.0435590000
v 0.0108500000 0.0056654910 0.0437306795
v 0.0108500000 0.0056154140 0.0438957614
v 0.0108500000 0.0055340933 0.0440479018
v 0.0108500000 0.0054246540 0.0441812540
v 0.0108500000 0.0052913018 0.0442906933
v 0.0108500000 0.0051391614 0.0443720140
v 0.0108500000 0.0049740795 0.0444220910
v 0.0108500000 -0.0048024000 0.0444390000
v 0.0108500000 -0.0049740795 0.0444220910
v 0.0108500000 -0.0051391614 0.0443720140
v 0.0108500000 -0.0052913018 0.0442906933
v 0.0108500000 -0.0054246540 0.0441812540
v 0.0108500000 -0.0055340933 0.0440479018
v 0.0108500000 -0.0056154140 0.0438957614
v 0.0108500000 -0.0056654910 0.0437306795
v 0.0108500000 -0.0056824000 0.0300410000
v 0.0108500000 -0.0056654910 0.0298693205
v 0.0108500000 -0.0056154140 0.0297042386
v 0.0108500000 -0.0055340933 0.0295520982
v 0.0108500000 -0.0054246540 0.0294187460
v 0.0108500000 -0.0052913018 0.0293093067
v 0.0108500000 -0.0051391614 0.0292279860
v 0.0108500000 -0.0049740795 0.0291779090
v 0.0108500000 0.0048024000 0.0291610000
v 0.0108500000 0.0049740795 0.0291779090
v 0.0108500000 0.0051391614 0.0292279860
v 0.0108500000 0.0052913018 0.0293093067
v 0.0108500000 0.0054246540 0.0294187460
v 0.0108500000 0.0055340933 0.0295520982
v 0.0108500000 0.0056154140 0.0297042386
v 0.0108500000 0.0056654910 0.0298693205
v 0.0108700000 0.0057024000 0.0435590000
v 0.0108700000 0.0056851068 0.0437345813
v 0.0108700000 0.0056338916 0.0439034151
v 0.0108700000 0.0055507227 0.0440590132
v 0.0108700000 0.0054387961 0.0441953961
v 0.0108700000 0.0053024132 0.0443073227
v 0.0108700000 0.0051468151 0.0443904916
v 0.0108700000 0.0049779813 0.0444417068
v 0.0108700000 -0.0048024000 0.0444590000
v 0.0108700000 -0.0049779813 0.0444417068
v 0.0108700000 -0.0051468151 0.0443904916
v 0.0108700000 -0.0053024132 0.0443073227
v 0.0108700000 -0.0054387961 0.0441953961
v 0.0108700000 -0.0055507227 0.0440590132
v 0.0108700000 -0.0056338916 0.0439034151
v 0.0108700000 -0.0056851068 0.0437345813
v 0.0108700000 -0.0057024000 0.0300410000
v 0.0108700000 -0.0056851068 0.0298654187
v 0.0108700000 -0.0056338916 0.0296965849
v 0.0108700000 -0.0055507227 0.0295409868
v 0.0108700000 -0.0054387961 0.0294046039
v 0.0108700000 -0.0053024132 0.0292926773
v 0.0108700000 -0.0051468151 0.0292095084
v 0.0108700000 -0.0049779813 0.0291582932
v 0.0108700000 0.0048024000 0.0291410000
v 0.0108700000 0.0049779813 0.0291582932
v 0.0108700000 0.0051468151 0.0292095084
v 0.0108700000 0.0053024132 0.0292926773
v 0.0108700000 0.0054387961 0.0294046039
v 0.0108700000 0.0055507227 0.0295409868
v 0.0108700000 0.0056338916 0.0296965849
v 0.0108700000 0.0056851068 0.0298654187
v 0.0109100000 0.0057024000 0.0435590000
v 0.0109100000 0.0056851068 0.0437345813
v 0.0109100000 0.0056338916 0.0439034151
v 0.0109100000 0.0055507227 0.0440590132
v 0.0109100000 0.0054387961 0.0441953961
v 0.0109100000 0.0053024132 0.0443073227
v 0.0109100000 0.0051468151 0.0443904916
v 0.0109100000 0.0049779813 0.0444417068
v 0.0109100000 -0.0048024000 0.0444590000
v 0.0109100000 -0.0049779813 0.0444417068
v 0.0109100000 -0.0051468151 0.0443904916
v 0.0109100000 -0.0053024132 0.0443073227
v 0.0109100000 -0.0054387961 0.0441953961
v 0.0109100000 -0.0055507227 0.0440590132
v 0.0109100000 -0.0056338916 0.0439034151
v 0.0109100000 -0.0056851068 0.0437345813
v 0.0109100000 -0.0057024000 0.0300410000
v 0.0109100000 -0.0056851068 0.0298654187
v 0.0109100000 -0.0056338916 0.0296965849
v 0.0109100000 -0.0055507227 0.0295409868
v 0.0109100000 -0.0054387961 0.0294046039
v 0.0109100000 -0.0053024132 0.0292926773
v 0.0109100000 -0.0051468151 0.0292095084
v 0.0109100000 -0.0049779813 0.0291582932
v 0.0109100000 0.0048024000 0.0291410000
v 0.0109100000 0.0049779813 0.0291582932
v 0.0109100000 0.0051468151 0.0292095084
v 0.0109100000 0.0053024132 0.0292926773
v 0.0109100000 0.0054387961 0.0294046039
v 0.0109100000 0.0055507227 0.0295409868
v 0.0109100000 0.0056338916 0.0296965849
v 0.0109100000 0.0056851068 0.0298654187
v 0.0109300000 0.0056824000 0.0435590000
v 0.0109300000 0.0056654910 0.0437306795
v 0.0109300000 0.0056154140 0.0438957614
v 0.0109300000 0.0055340933 0.0440479018
v 0.0109300000 0.0054246540 0.0441812540
v 0.0109300000 0.0052913018 0.0442906933
v 0.0109300000 0.0051391614 0.0443720140
v 0.0109300000 0.0049740795 0.0444220910
v 0.0109300000 -0.0048024000 0.0444390000
v 0.0109300000 -0.0049740795 0.0444220910
v 0.0109300000 -0.0051391614 0.0443720140
v 0.0109300000 -0.0052913018 0.0442906933
v 0.0109300000 -0.0054246540 0.0441812540
v 0.0109300000 -0.0055340933 0.0440479018
v 0.0109300000 -0.0056154140 0.0438957614
v 0.0109300000 -0.0056654910 0.0437306795
v 0.0109300000 -0.0056824000 0.0300410000
v 0.0109300000 -0.0056654910 0.0298693205
v 0.0109300000 -0.0056154140 0.0297042386
v 0.0109300000 -0.0055340933 0.0295520982
v 0.0109300000 -0.0054246540 0.0294187460
v 0.0109300000 -0.0052913018 0.0293093067
v 0.0109300000 -0.0051391614 0.0292279860
v 0.0109300000 -0.0049740795 0.0291779090
v 0.0109300000 0.0048024000 0.0291610000
v 0.0109300000 0.0049740795 0.0291779090
v 0.0109300000 0.0051391614 0.0292279860
v 0.0109300000 0.0052913018 0.0293093067
v 0.0109300000 0.0054246540 0.0294187460
v 0.0109300000 0.0055340933 0.0295520982
v 0.0109300000 0.0056154140 0.0297042386
v 0.0109300000 0.0056654910 0.0298693205
vn -0.91944734 0.39272975 0.01949163
vn -0.91532176 0.39498512 0.07856742
vn -0.91532176 0.37206784 0.15411555
vn -0.91532176 0.33485221 0.22374110
vn -0.91532176 0.28476840 0.28476840
vn -0.91532176 0.22374110 0.33485221
vn -0.91532176 0.15411555 0.37206784
vn -0.91091069 0.05947249 0.40829491
vn -0.91942699 -0.01939690 0.39278210
vn -0.91532176 -0.07856742 0.39498512
vn -0.91532176 -0.15411555 0.37206784
vn -0.91532176 -0.22374110 0.33485221
vn -0.91532176 -0.28476840 0.28476840
vn -0.91532176 -0.33485221 0.22374110
vn -0.91532176 -0.37206784 0.15411555
vn -0.91088664 -0.40836395 0.05936676
vn -0.91944734 -0.39272975 -0.01949163
vn -0.91532176 -0.39498512 -0.07856742
vn -0.91532176 -0.37206784 -0.15411555
vn -0.91532176 -0.33485221 -0.22374110
vn -0.91532176 -0.28476840 -0.28476840
vn -0.91532176 -0.22374110 -0.33485221
vn -0.91532176 -0.15411555 -0.37206784
vn -0.91091069 -0.05947249 -0.40829491
vn -0.91942699 0.01939690 -0.39278210
vn -0.91532176 0.07856742 -0.39498512
vn -0.91532176 0.15411555 -0.37206784
vn -0.91532176 0.22374110 -0.33485221
vn -0.91532176 0.28476840 -0.28476840
vn -0.91532176 0.33485221 -0.22374110
vn -0.91532176 0.37206784 -0.15411555
vn -0.91088664 0.40836395 -0.05936676
vn -0.37821028 0.92465205 0.04444740
vn -0.37448906 0.90941484 0.18089386
vn -0.37448906 0.85665005 0.35483607
vn -0.37448906 0.77096468 0.51514213
vn -0.37448906 0.65565156 0.65565156
vn -0.37448906 0.51514213 0.77096468
vn -0.37448906 0.35483607 0.85665005
vn -0.37043737 0.13816278 0.91852447
vn -0.37819075 -0.04421637 0.92467111
vn -0.37448906 -0.18089386 0.90941484
vn -0.37448906 -0.35483607 0.85665005
vn -0.37448906 -0.51514213 0.77096468
vn -0.37448906 -0.65565156 0.65565156
vn -0.37448906 -0.77096468 0.51514213
vn -0.37448906 -0.85665005 0.35483607
vn -0.37041537 -0.91856695 0.13793917
vn -0.37821028 -0.92465205 -0.04444740
vn -0.37448906 -0.90941484 -0.18089386
vn -0.37448906 -0.85665005 -0.35483607
vn -0.37448906 -0.77096468 -0.51514213
vn -0.37448906 -0.65565156 -0.65565156
vn -0.37448906 -0.51514213 -0.77096468
vn -0.37448906 -0.35483607 -0.85665005
vn -0.37043737 -0.13816278 -0.91852447
vn -0.37819075 0.04421637 -0.92467111
vn -0.37448906 0.18089386 -0.90941484
vn -0.37448906 0.35483607 -0.85665005
vn -0.37448906 0.51514213 -0.77096468
vn -0.37448906 0.65565156 -0.65565156
vn -0.37448906 0.77096468 -0.51514213
vn -0.37448906 0.85665005 -0.35483607
vn -0.37041537 0.91856695 -0.13793917
vn 0.37821028 0.92465205 0.04444740
vn 0.37448906 0.90941484 0.18089386
vn 0.37448906 0.85665005 0.35483607
vn 0.37448906 0.77096468 0.51514213
vn 0.37448906 0.65565156 0.65565156
vn 0.37448906 0.51514213 0.77096468
vn 0.37448906 0.35483607 0.85665005
vn 0.37043737 0.13816278 0.91852447
vn 0.37819075 -0.04421637 0.92467111
vn 0.37448906 -0.18089386 0.90941484
vn 0.37448906 -0.35483607 0.85665005
vn 0.37448906 -0.51514213 0.77096468
vn 0.37448906 -0.65565156 0.65565156
vn 0.37448906 -0.77096468 0.51514213
vn 0.37448906 -0.85665005 0.35483607
vn 0.37041537 -0.91856695 0.13793917
vn 0.37821028 -0.92465205 -0.04444740
vn 0.37448906 -0.90941484 -0.18089386
vn 0.37448906 -0.85665005 -0.35483607
vn 0.37448906 -0.77096468 -0.51514213
vn 0.37448906 -0.65565156 -0.65565156
vn 0.37448906 -0.51514213 -0.77096468
vn 0.37448906 -0.35483607 -0.85665005
vn 0.37043737 -0.13816278 -0.91852447
vn 0.37819075 0.04421637 -0.92467111
vn 0.37448906 0.18089386 -0.90941484
vn 0.37448906 0.35483607 -0.85665005
vn 0.37448906 0.51514213 -0.77096468
vn 0.37448906 0.65565156 -0.65565156
vn 0.37448906 0.77096468 -0.51514213
vn 0.37448906 0.85665005 -0.35483607
vn 0.37041537 0.91856695 -0.13793917
vn 0.91944734 0.39272975 0.01949163
vn 0.91532176 0.39498512 0.07856742
vn 0.91532176 0.37206784 0.15411555
vn 0.91532176 0.33485221 0.22374110
vn 0.91532176 0.28476840 0.28476840
vn 0.91532176 0.22374110 0.33485221
vn 0.91532176 0.15411555 0.37206784
vn 0.91091069 0.05947249 0.40829491
vn 0.91942699 -0.01939690 0.39278210
vn 0.91532176 -0.07856742 0.39498512
vn 0.91532176 -0.15411555 0.37206784
vn 0.91532176 -0.22374110 0.33485221
vn 0.91532176 -0.28476840 0.28476840
vn 0.91532176 -0.33485221 0.22374110
vn 0.91532176 -0.37206784 0.15411555
vn 0.91088664 -0.40836395 0.05936676
vn 0.91944734 -0.39272975 -0.01949163
vn 0.91532176 -0.39498512 -0.07856742
vn 0.91532176 -0.37206784 -0.15411555
vn 0.91532176 -0.33485221 -0.22374110
vn 0.91532176 -0.28476840 -0.28476840
vn 0.91532176 -0.22374110 -0.33485221
vn 0.91532176 -0.15411555 -0.37206784
vn 0.91091069 -0.05947249 -0.40829491
vn 0.91942699 0.01939690 -0.39278210
vn 0.91532176 0.07856742 -0.39498512
vn 0.91532176 0.15411555 -0.37206784
vn 0.91532176 0.22374110 -0.33485221
vn 0.91532176 0.28476840 -0.28476840
vn 0.91532176 0.33485221 -0.22374110
vn 0.91532176 0.37206784 -0.15411555
vn 0.91088664 0.40836395 -0.05936676
f 49//49 16//16 17//17
f 57//57 24//24 25//25
f 1//1 33//33 32//32
f 32//32 33//33 64//64
f 48//48 16//16 49//49
f 56//56 24//24 57//57
f 89//89 121//121 120//120
f 120//120 88//88 89//89
f 8//8 41//41 40//40
f 9//9 41//41 8//8
f 73//73 104//104 72//72
f 81//81 113//113 112//112
f 105//105 104//104 73//73
f 80//80 81//81 112//112
f 128//128 65//65 97//97
f 65//65 128//128 96//96
f 88//88 56//56 89//89
f 89//89 56//56 57//57
f 72//72 41//41 73//73
f 40//40 41//41 72//72
f 25//25 26//26 58//58
f 57//57 25//25 58//58
f 55//55 56//56 88//88
f 88//88 87//87 55//55
f 49//49 81//81 80//80
f 80//80 48//48 49//49
f 91//91 92//92 123//123
f 123//123 92//92 124//124
f 58//58 59//59 90//90
f 90//90 59//59 91//91
f 90//90 123//123 122//122
f 91//91 123//123 90//90
f 90//90 89//89 57//57
f 57//57 58//58 90//90
f 90//90 122//122 121//121
f 121//121 89//89 90//90
f 33//33 34//34 66//66
f 66//66 65//65 33//33
f 49//49 17//17 18//18
f 18//18 50//50 49//49
f 51//51 50//50 18//18
f 18//18 19//19 51//51
f 20//20 21//21 53//53
f 53//53 52//52 20//20
f 51//51 19//19 20//20
f 20//20 52//52 51//51
f 46//46 13//13 14//14
f 45//45 13//13 46//46
f 12//12 13//13 44//44
f 44//44 13//13 45//45
f 73//73 41//41 74//74
f 41//41 42//42 74//74
f 31//31 32//32 64//64
f 64//64 63//63 31//31
f 45//45 46//46 77//77
f 77//77 46//46 78//78
f 77//77 44//44 45//45
f 76//76 44//44 77//77
f 33//33 65//65 96//96
f 64//64 33//33 96//96
f 27//27 58//58 26//26
f 27//27 59//59 58//58
f 60//60 27//27 28//28
f 59//59 27//27 60//60
f 60//60 92//92 91//91
f 91//91 59//59 60//60
f 119//119 87//87 88//88
f 119//119 88//88 120//120
f 82//82 81//81 49//49
f 49//49 50//50 82//82
f 86//86 119//119 118//118
f 87//87 119//119 86//86
f 86//86 55//55 87//87
f 86//86 54//54 55//55
f 53//53 21//21 22//22
f 22//22 54//54 53//53
f 65//65 66//66 98//98
f 97//97 65//65 98//98
f 47//47 15//15 16//16
f 16//16 48//48 47//47
f 14//14 15//15 47//47
f 47//47 46//46 14//14
f 10//10 42//42 41//41
f 10//10 41//41 9//9
f 43//43 10//10 11//11
f 42//42 10//10 43//43
f 12//12 44//44 43//43
f 43//43 11//11 12//12
f 2//2 34//34 33//33
f 2//2 33//33 1//1
f 2//2 35//35 34//34
f 3//3 35//35 2//2
f 4//4 35//35 3//3
f 36//36 35//35 4//4
f 76//76 77//77 109//109
f 108//108 76//76 109//109
f 109//109 77//77 78//78
f 78//78 110//110 109//109
f 92//92 60//60 93//93
f 93//93 60//60 61//61
f 95//95 63//63 64//64
f 64//64 96//96 95//95
f 29//29 60//60 28//28
f 61//61 60//60 29//29
f 30//30 31//31 62//62
f 62//62 31//31 63//63
f 62//62 29//29 30//30
f 61//61 29//29 62//62
f 81//81 82//82 114//114
f 113//113 81//81 114//114
f 51//51 52//52 83//83
f 52//52 84//84 83//83
f 83//83 50//50 51//51
f 83//83 82//82 50//50
f 115//115 114//114 83//83
f 83//83 114//114 82//82
f 116//116 83//83 84//84
f 115//115 83//83 116//116
f 54//54 86//86 85//85
f 53//53 54//54 85//85
f 85//85 118//118 117//117
f 85//85 86//86 118//118
f 85//85 52//52 53//53
f 85//85 84//84 52//52
f 117//117 116//116 85//85
f 85//85 116//116 84//84
f 56//56 55//55 23//23
f 24//24 56//56 23//23
f 55//55 54//54 23//23
f 54//54 22//22 23//23
f 104//104 103//103 71//71
f 71//71 72//72 104//104
f 103//103 102//102 71//71
f 71//71 102//102 70//70
f 37//37 4//4 5//5
f 36//36 4//4 37//37
f 79//79 111//111 110//110
f 79//79 110//110 78//78
f 78//78 46//46 79//79
f 46//46 47//47 79//79
f 112//112 111//111 79//79
f 79//79 80//80 112//112
f 48//48 80//80 79//79
f 79//79 47//47 48//48
f 73//73 74//74 106//106
f 106//106 105//105 73//73
f 108//108 107//107 75//75
f 75//75 76//76 108//108
f 75//75 44//44 76//76
f 75//75 43//43 44//44
f 107//107 106//106 75//75
f 75//75 106//106 74//74
f 75//75 74//74 42//42
f 42//42 43//43 75//75
f 124//124 92//92 125//125
f 92//92 93//93 125//125
f 127//127 95//95 96//96
f 127//127 96//96 128//128
f 126//126 125//125 94//94
f 94//94 125//125 93//93
f 94//94 93//93 61//61
f 61//61 62//62 94//94
f 94//94 127//127 126//126
f 95//95 127//127 94//94
f 63//63 95//95 94//94
f 94//94 62//62 63//63
f 100//100 123//123 124//124
f 104//104 105//105 100//100
f 120//120 121//121 100//100
f 121//121 122//122 100//100
f 112//112 113//113 100//100
f 100//100 119//119 120//120
f 100//100 103//103 104//104
f 108//108 109//109 100//100
f 100//100 128//128 97//97
f 105//105 106//106 100//100
f 97//97 98//98 100//100
f 100//100 107//107 108//108
f 100//100 111//111 112//112
f 122//122 123//123 100//100
f 117//117 118//118 100//100
f 113//113 114//114 100//100
f 110//110 111//111 100//100
f 124//124 125//125 100//100
f 118//118 119//119 100//100
f 100//100 116//116 117//117
f 100//100 127//127 128//128
f 101//101 102//102 100//100
f 100//100 109//109 110//110
f 100//100 114//114 115//115
f 115//115 116//116 100//100
f 98//98 99//99 100//100
f 100//100 102//102 103//103
f 100//100 106//106 107//107
f 100//100 125//125 126//126
f 126//126 127//127 100//100
f 67//67 66//66 34//34
f 34//34 35//35 67//67
f 67//67 98//98 66//66
f 67//67 99//99 98//98
f 67//67 35//35 36//36
f 36//36 68//68 67//67
f 67//67 100//100 99//99
f 68//68 100//100 67//67
f 6//6 25//25 24//24
f 1//1 32//32 6//6
f 6//6 29//29 28//28
f 6//6 17//17 16//16
f 28//28 27//27 6//6
f 6//6 13//13 12//12
f 32//32 31//31 6//6
f 5//5 4//4 6//6
f 16//16 15//15 6//6
f 9//9 8//8 6//6
f 6//6 26//26 25//25
f 6//6 10//10 9//9
f 6//6 18//18 17//17
f 21//21 20//20 6//6
f 24//24 23//23 6//6
f 19//19 18//18 6//6
f 6//6 20//20 19//19
f 14//14 13//13 6//6
f 6//6 15//15 14//14
f 12//12 11//11 6//6
f 6//6 2//2 1//1
f 6//6 31//31 30//30
f 6//6 27//27 26//26
f 6//6 22//22 21//21
f 11//11 10//10 6//6
f 3//3 2//2 6//6
f 6//6 4//4 3//3
f 30//30 29//29 6//6
f 6//6 23//23 22//22
f 8//8 7//7 6//6
f 6//6 37//37 5//5
f 38//38 37//37 6//6
f 39//39 71//71 70//70
f 70//70 38//38 39//39
f 39//39 6//6 7//7
f 38//38 6//6 39//39
f 40//40 72//72 39//39
f 72//72 71//71 39//39
f 39//39 7//7 8//8
f 39//39 8//8 40//40
f 69//69 102//102 101//101
f 70//70 102//102 69//69
f 69//69 37//37 38//38
f 69//69 38//38 70//70
f 101//101 100//100 69//69
f 69//69 100//100 68//68
f 36//36 37//37 69//69
f 69//69 68//68 36//36
