# Independent procedural camera geometry; meters; Z up
o front_lens_bezel
v 0.0155760000 0.0279940000 0.0311920000
v 0.0155760000 0.0278891653 0.0327914680
v 0.0155760000 0.0275764551 0.0343635686
v 0.0155760000 0.0270612198 0.0358814028
v 0.0155760000 0.0263522753 0.0373190000
v 0.0155760000 0.0254617518 0.0386517626
v 0.0155760000 0.0244048865 0.0398568865
v 0.0155760000 0.0231997626 0.0409137518
v 0.0155760000 0.0218670000 0.0418042753
v 0.0155760000 0.0204294028 0.0425132198
v 0.0155760000 0.0189115686 0.0430284551
v 0.0155760000 0.0173394680 0.0433411653
v 0.0155760000 0.0157400000 0.0434460000
v 0.0155760000 0.0141405320 0.0433411653
v 0.0155760000 0.0125684314 0.0430284551
v 0.0155760000 0.0110505972 0.0425132198
v 0.0155760000 0.0096130000 0.0418042753
v 0.0155760000 0.0082802374 0.0409137518
v 0.0155760000 0.0070751135 0.0398568865
v 0.0155760000 0.0060182482 0.0386517626
v 0.0155760000 0.0051277247 0.0373190000
v 0.0155760000 0.0044187802 0.0358814028
v 0.0155760000 0.0039035449 0.0343635686
v 0.0155760000 0.0035908347 0.0327914680
v 0.0155760000 0.0034860000 0.0311920000
v 0.0155760000 0.0035908347 0.0295925320
v 0.0155760000 0.0039035449 0.0280204314
v 0.0155760000 0.0044187802 0.0265025972
v 0.0155760000 0.0051277247 0.0250650000
v 0.0155760000 0.0060182482 0.0237322374
v 0.0155760000 0.0070751135 0.0225271135
v 0.0155760000 0.0082802374 0.0214702482
v 0.0155760000 0.0096130000 0.0205797247
v 0.0155760000 0.0110505972 0.0198707802
v 0.0155760000 0.0125684314 0.0193555449
v 0.0155760000 0.0141405320 0.0190428347
v 0.0155760000 0.0157400000 0.0189380000
v 0.0155760000 0.0173394680 0.0190428347
v 0.0155760000 0.0189115686 0.0193555449
v 0.0155760000 0.0204294028 0.0198707802
v 0.0155760000 0.0218670000 0.0205797247
v 0.0155760000 0.0231997626 0.0214702482
v 0.0155760000 0.0244048865 0.0225271135
v 0.0155760000 0.0254617518 0.0237322374
v 0.0155760000 0.0263522753 0.0250650000
v 0.0155760000 0.0270612198 0.0265025972
v 0.0155760000 0.0275764551 0.0280204314
v 0.0155760000 0.0278891653 0.0295925320
v 0.0174215200 0.0279940000 0.0311920000
v 0.0174215200 0.0278891653 0.0327914680
v 0.0174215200 0.0275764551 0.0343635686
v 0.0174215200 0.0270612198 0.0358814028
v 0.0174215200 0.0263522753 0.0373190000
v 0.0174215200 0.0254617518 0.0386517626
v 0.0174215200 0.0244048865 0.0398568865
v 0.0174215200 0.0231997626 0.0409137518
v 0.0174215200 0.0218670000 0.0418042753
v 0.0174215200 0.0204294028 0.0425132198
v 0.0174215200 0.0189115686 0.0430284551
v 0.0174215200 0.0173394680 0.0433411653
v 0.0174215200 0.0157400000 0.0434460000
v 0.0174215200 0.0141405320 0.0433411653
v 0.0174215200 0.0125684314 0.0430284551
v 0.0174215200 0.0110505972 0.0425132198
v 0.0174215200 0.0096130000 0.0418042753
v 0.0174215200 0.0082802374 0.0409137518
v 0.0174215200 0.0070751135 0.0398568865
v 0.0174215200 0.0060182482 0.0386517626
v 0.0174215200 0.0051277247 0.0373190000
v 0.0174215200 0.0044187802 0.0358814028
v 0.0174215200 0.0039035449 0.0343635686
v 0.0174215200 0.0035908347 0.0327914680
v 0.0174215200 0.0034860000 0.0311920000
v 0.0174215200 0.0035908347 0.0295925320
v 0.0174215200 0.0039035449 0.0280204314
v 0.0174215200 0.0044187802 0.0265025972
v 0.0174215200 0.0051277247 0.0250650000
v 0.0174215200 0.0060182482 0.0237322374
v 0.0174215200 0.0070751135 0.0225271135
v 0.0174215200 0.0082802374 0.0214702482
v 0.0174215200 0.0096130000 0.0205797247
v 0.0174215200 0.0110505972 0.0198707802
v 0.0174215200 0.0125684314 0.0193555449
v 0.0174215200 0.0141405320 0.0190428347
v 0.0174215200 0.0157400000 0.0189380000
v 0.0174215200 0.0173394680 0.0190428347
v 0.0174215200 0.0189115686 0.0193555449
v 0.0174215200 0.0204294028 0.0198707802
v 0.0174215200 0.0218670000 0.0205797247
v 0.0174215200 0.0231997626 0.0214702482
v 0.0174215200 0.0244048865 0.0225271135
v 0.0174215200 0.0254617518 0.0237322374
v 0.0174215200 0.0263522753 0.0250650000
v 0.0174215200 0.0270612198 0.0265025972
v 0.0174215200 0.0275764551 0.0280204314
v 0.0174215200 0.0278891653 0.0295925320
v 0.0183844000 0.0268911400 0.0311920000
v 0.0183844000 0.0267957405 0.0326475158
v 0.0183844000 0.0265111741 0.0340781274
v 0.0183844000 0.0260423100 0.0354593565
v 0.0183844000 0.0253971705 0.0367675700
v 0.0183844000 0.0245867942 0.0379803839
v 0.0183844000 0.0236250467 0.0390770467
v 0.0183844000 0.0225283839 0.0400387942
v 0.0183844000 0.0213155700 0.0408491705
v 0.0183844000 0.0200073565 0.0414943100
v 0.0183844000 0.0186261274 0.0419631741
v 0.0183844000 0.0171955158 0.0422477405
v 0.0183844000 0.0157400000 0.0423431400
v 0.0183844000 0.0142844842 0.0422477405
v 0.0183844000 0.0128538726 0.0419631741
v 0.0183844000 0.0114726435 0.0414943100
v 0.0183844000 0.0101644300 0.0408491705
v 0.0183844000 0.0089516161 0.0400387942
v 0.0183844000 0.0078549533 0.0390770467
v 0.0183844000 0.0068932058 0.0379803839
v 0.0183844000 0.0060828295 0.0367675700
v 0.0183844000 0.0054376900 0.0354593565
v 0.0183844000 0.0049688259 0.0340781274
v 0.0183844000 0.0046842595 0.0326475158
v 0.0183844000 0.0045888600 0.0311920000
v 0.0183844000 0.0046842595 0.0297364842
v 0.0183844000 0.0049688259 0.0283058726
v 0.0183844000 0.0054376900 0.0269246435
v 0.0183844000 0.0060828295 0.0256164300
v 0.0183844000 0.0068932058 0.0244036161
v 0.0183844000 0.0078549533 0.0233069533
v 0.0183844000 0.0089516161 0.0223452058
v 0.0183844000 0.0101644300 0.0215348295
v 0.0183844000 0.0114726435 0.0208896900
v 0.0183844000 0.0128538726 0.0204208259
v 0.0183844000 0.0142844842 0.0201362595
v 0.0183844000 0.0157400000 0.0200408600
v 0.0183844000 0.0171955158 0.0201362595
v 0.0183844000 0.0186261274 0.0204208259
v 0.0183844000 0.0200073565 0.0208896900
v 0.0183844000 0.0213155700 0.0215348295
v 0.0183844000 0.0225283839 0.0223452058
v 0.0183844000 0.0236250467 0.0233069533
v 0.0183844000 0.0245867942 0.0244036161
v 0.0183844000 0.0253971705 0.0256164300
v 0.0183844000 0.0260423100 0.0269246435
v 0.0183844000 0.0265111741 0.0283058726
v 0.0183844000 0.0267957405 0.0297364842
v 0.0155760000 0.0157400000 0.0311920000
v 0.0183844000 0.0157400000 0.0311920000
vn -0.69267805 0.72124692 0.00000000
vn -0.69267805 0.71507656 0.09414161
vn -0.69267805 0.69667103 0.18667244
vn -0.69267805 0.66634527 0.27600925
vn -0.69267805 0.62461816 0.36062346
vn -0.69267805 0.57220366 0.43906731
vn -0.69267805 0.50999859 0.50999859
vn -0.69267805 0.43906731 0.57220366
vn -0.69267805 0.36062346 0.62461816
vn -0.69267805 0.27600925 0.66634527
vn -0.69267805 0.18667244 0.69667103
vn -0.69267805 0.09414161 0.71507656
vn -0.69267805 -0.00000000 0.72124692
vn -0.69267805 -0.09414161 0.71507656
vn -0.69267805 -0.18667244 0.69667103
vn -0.69267805 -0.27600925 0.66634527
vn -0.69267805 -0.36062346 0.62461816
vn -0.69267805 -0.43906731 0.57220366
vn -0.69267805 -0.50999859 0.50999859
vn -0.69267805 -0.57220366 0.43906731
vn -0.69267805 -0.62461816 0.36062346
vn -0.69267805 -0.66634527 0.27600925
vn -0.69267805 -0.69667103 0.18667244
vn -0.69267805 -0.71507656 0.09414161
vn -0.69267805 -0.72124692 0.00000000
vn -0.69267805 -0.71507656 -0.09414161
vn -0.69267805 -0.69667103 -0.18667244
vn -0.69267805 -0.66634527 -0.27600925
vn -0.69267805 -0.62461816 -0.36062346
vn -0.69267805 -0.57220366 -0.43906731
vn -0.69267805 -0.50999859 -0.50999859
vn -0.69267805 -0.43906731 -0.57220366
vn -0.69267805 -0.36062346 -0.62461816
vn -0.69267805 -0.27600925 -0.66634527
vn -0.69267805 -0.18667244 -0.69667103
vn -0.69267805 -0.09414161 -0.71507656
vn -0.69267805 -0.00000000 -0.72124692
vn -0.69267805 0.09414161 -0.71507656
vn -0.69267805 0.18667244 -0.69667103
vn -0.69267805 0.27600925 -0.66634527
vn -0.69267805 0.36062346 -0.62461816
vn -0.69267805 0.43906731 -0.57220366
vn -0.69267805 0.50999859 -0.50999859
vn -0.69267805 0.57220366 -0.43906731
vn -0.69267805 0.62461816 -0.36062346
vn -0.69267805 0.66634527 -0.27600925
vn -0.69267805 0.69667103 -0.18667244
vn -0.69267805 0.71507656 -0.09414161
vn 0.40736029 0.91326754 -0.00000000
vn 0.40736029 0.90545441 0.11920533
vn 0.40736029 0.88214870 0.23637103
vn 0.40736029 0.84374918 0.34949236
vn 0.40736029 0.79091289 0.45663377
vn 0.40736029 0.72454385 0.55596205
vn 0.40736029 0.64577767 0.64577767
vn 0.40736029 0.55596205 0.72454385
vn 0.40736029 0.45663377 0.79091289
vn 0.40736029 0.34949236 0.84374918
vn 0.40736029 0.23637103 0.88214870
vn 0.40736029 0.11920533 0.90545441
vn 0.40736029 0.00000000 0.91326754
vn 0.40736029 -0.11920533 0.90545441
vn 0.40736029 -0.23637103 0.88214870
vn 0.40736029 -0.34949236 0.84374918
vn 0.40736029 -0.45663377 0.79091289
vn 0.40736029 -0.55596205 0.72454385
vn 0.40736029 -0.64577767 0.64577767
vn 0.40736029 -0.72454385 0.55596205
vn 0.40736029 -0.79091289 0.45663377
vn 0.40736029 -0.84374918 0.34949236
vn 0.40736029 -0.88214870 0.23637103
vn 0.40736029 -0.90545441 0.11920533
vn 0.40736029 -0.91326754 0.00000000
vn 0.40736029 -0.90545441 -0.11920533
vn 0.40736029 -0.88214870 -0.23637103
vn 0.40736029 -0.84374918 -0.34949236
vn 0.40736029 -0.79091289 -0.45663377
vn 0.40736029 -0.72454385 -0.55596205
vn 0.40736029 -0.64577767 -0.64577767
vn 0.40736029 -0.55596205 -0.72454385
vn 0.40736029 -0.45663377 -0.79091289
vn 0.40736029 -0.34949236 -0.84374918
vn 0.40736029 -0.23637103 -0.88214870
vn 0.40736029 -0.11920533 -0.90545441
vn 0.40736029 -0.00000000 -0.91326754
vn 0.40736029 0.11920533 -0.90545441
vn 0.40736029 0.23637103 -0.88214870
vn 0.40736029 0.34949236 -0.84374918
vn 0.40736029 0.45663377 -0.79091289
vn 0.40736029 0.55596205 -0.72454385
vn 0.40736029 0.64577767 -0.64577767
vn 0.40736029 0.72454385 -0.55596205
vn 0.40736029 0.79091289 -0.45663377
vn 0.40736029 0.84374918 -0.34949236
vn 0.40736029 0.88214870 -0.23637103
vn 0.40736029 0.90545441 -0.11920533
vn 0.93143294 0.36391301 -0.00000000
vn 0.93143294 0.36079969 0.04750018
vn 0.93143294 0.35151298 0.09418762
vn 0.93143294 0.33621178 0.13926348
vn 0.93143294 0.31515791 0.18195651
vn 0.93143294 0.28871160 0.22153621
vn 0.93143294 0.25732536 0.25732536
vn 0.93143294 0.22153621 0.28871160
vn 0.93143294 0.18195651 0.31515791
vn 0.93143294 0.13926348 0.33621178
vn 0.93143294 0.09418762 0.35151298
vn 0.93143294 0.04750018 0.36079969
vn 0.93143294 0.00000000 0.36391301
vn 0.93143294 -0.04750018 0.36079969
vn 0.93143294 -0.09418762 0.35151298
vn 0.93143294 -0.13926348 0.33621178
vn 0.93143294 -0.18195651 0.31515791
vn 0.93143294 -0.22153621 0.28871160
vn 0.93143294 -0.25732536 0.25732536
vn 0.93143294 -0.28871160 0.22153621
vn 0.93143294 -0.31515791 0.18195651
vn 0.93143294 -0.33621178 0.13926348
vn 0.93143294 -0.35151298 0.09418762
vn 0.93143294 -0.36079969 0.04750018
vn 0.93143294 -0.36391301 -0.00000000
vn 0.93143294 -0.36079969 -0.04750018
vn 0.93143294 -0.35151298 -0.09418762
vn 0.93143294 -0.33621178 -0.13926348
vn 0.93143294 -0.31515791 -0.18195651
vn 0.93143294 -0.28871160 -0.22153621
vn 0.93143294 -0.25732536 -0.25732536
vn 0.93143294 -0.22153621 -0.28871160
vn 0.93143294 -0.18195651 -0.31515791
vn 0.93143294 -0.13926348 -0.33621178
vn 0.93143294 -0.09418762 -0.35151298
vn 0.93143294 -0.04750018 -0.36079969
vn 0.93143294 -0.00000000 -0.36391301
vn 0.93143294 0.04750018 -0.36079969
vn 0.93143294 0.09418762 -0.35151298
vn 0.93143294 0.13926348 -0.33621178
vn 0.93143294 0.18195651 -0.31515791
vn 0.93143294 0.22153621 -0.28871160
vn 0.93143294 0.25732536 -0.25732536
vn 0.93143294 0.28871160 -0.22153621
vn 0.93143294 0.31515791 -0.18195651
vn 0.93143294 0.33621178 -0.13926348
vn 0.93143294 0.35151298 -0.09418762
vn 0.93143294 0.36079969 -0.04750018
vn -1.00000000 -0.00000000 -0.00000000
vn 1.00000000 -0.00000000 0.00000000
f 50//50 49//49 1//1
f 2//2 50//50 1//1
f 51//51 50//50 2//2
f 3//3 51//51 2//2
f 52//52 51//51 3//3
f 4//4 52//52 3//3
f 53//53 52//52 4//4
f 5//5 53//53 4//4
f 54//54 53//53 5//5
f 6//6 54//54 5//5
f 55//55 54//54 6//6
f 7//7 55//55 6//6
f 56//56 55//55 7//7
f 8//8 56//56 7//7
f 57//57 56//56 8//8
f 9//9 57//57 8//8
f 58//58 57//57 9//9
f 10//10 58//58 9//9
f 59//59 58//58 10//10
f 11//11 59//59 10//10
f 60//60 59//59 11//11
f 12//12 60//60 11//11
f 61//61 60//60 12//12
f 13//13 61//61 12//12
f 62//62 61//61 13//13
f 14//14 62//62 13//13
f 63//63 62//62 14//14
f 15//15 63//63 14//14
f 64//64 63//63 15//15
f 16//16 64//64 15//15
f 65//65 64//64 16//16
f 17//17 65//65 16//16
f 66//66 65//65 17//17
f 18//18 66//66 17//17
f 67//67 66//66 18//18
f 19//19 67//67 18//18
f 68//68 67//67 19//19
f 20//20 68//68 19//19
f 69//69 68//68 20//20
f 21//21 69//69 20//20
f 70//70 69//69 21//21
f 22//22 70//70 21//21
f 71//71 70//70 22//22
f 23//23 71//71 22//22
f 72//72 71//71 23//23
f 24//24 72//72 23//23
f 73//73 72//72 24//24
f 25//25 73//73 24//24
f 74//74 73//73 25//25
f 26//26 74//74 25//25
f 75//75 74//74 26//26
f 27//27 75//75 26//26
f 76//76 75//75 27//27
f 28//28 76//76 27//27
f 77//77 76//76 28//28
f 29//29 77//77 28//28
f 78//78 77//77 29//29
f 30//30 78//78 29//29
f 79//79 78//78 30//30
f 31//31 79//79 30//30
f 80//80 79//79 31//31
f 32//32 80//80 31//31
f 81//81 80//80 32//32
f 33//33 81//81 32//32
f 82//82 81//81 33//33
f 34//34 82//82 33//33
f 83//83 82//82 34//34
f 35//35 83//83 34//34
f 84//84 83//83 35//35
f 36//36 84//84 35//35
f 85//85 84//84 36//36
f 37//37 85//85 36//36
f 86//86 85//85 37//37
f 38//38 86//86 37//37
f 87//87 86//86 38//38
f 39//39 87//87 38//38
f 88//88 87//87 39//39
f 40//40 88//88 39//39
f 89//89 88//88 40//40
f 41//41 89//89 40//40
f 90//90 89//89 41//41
f 42//42 90//90 41//41
f 91//91 90//90 42//42
f 43//43 91//91 42//42
f 92//92 91//91 43//43
f 44//44 92//92 43//43
f 93//93 92//92 44//44
f 45//45 93//93 44//44
f 94//94 93//93 45//45
f 46//46 94//94 45//45
f 95//95 94//94 46//46
f 47//47 95//95 46//46
f 96//96 95//95 47//47
f 48//48 96//96 47//47
f 49//49 96//96 48//48
f 1//1 49//49 48//48
f 98//98 97//97 49//49
f 50//50 98//98 49//49
f 99//99 98//98 50//50
f 51//51 99//99 50//50
f 100//100 99//99 51//51
f 52//52 100//100 51//51
f 101//101 100//100 52//52
f 53//53 101//101 52//52
f 102//102 101//101 53//53
f 54//54 102//102 53//53
f 103//103 102//102 54//54
f 55//55 103//103 54//54
f 104//104 103//103 55//55
f 56//56 104//104 55//55
f 105//105 104//104 56//56
f 57//57 105//105 56//56
f 106//106 105//105 57//57
f 58//58 106//106 57//57
f 107//107 106//106 58//58
f 59//59 107//107 58//58
f 108//108 107//107 59//59
f 60//60 108//108 59//59
f 109//109 108//108 60//60
f 61//61 109//109 60//60
f 110//110 109//109 61//61
f 62//62 110//110 61//61
f 111//111 110//110 62//62
f 63//63 111//111 62//62
f 112//112 111//111 63//63
f 64//64 112//112 63//63
f 113//113 112//112 64//64
f 65//65 113//113 64//64
f 114//114 113//113 65//65
f 66//66 114//114 65//65
f 115//115 114//114 66//66
f 67//67 115//115 66//66
f 116//116 115//115 67//67
f 68//68 116//116 67//67
f 117//117 116//116 68//68
f 69//69 117//117 68//68
f 118//118 117//117 69//69
f 70//70 118//118 69//69
f 119//119 118//118 70//70
f 71//71 119//119 70//70
f 120//120 119//119 71//71
f 72//72 120//120 71//71
f 121//121 120//120 72//72
f 73//73 121//121 72//72
f 122//122 121//121 73//73
f 74//74 122//122 73//73
f 123//123 122//122 74//74
f 75//75 123//123 74//74
f 124//124 123//123 75//75
f 76//76 124//124 75//75
f 125//125 124//124 76//76
f 77//77 125//125 76//76
f 126//126 125//125 77//77
f 78//78 126//126 77//77
f 127//127 126//126 78//78
f 79//79 127//127 78//78
f 128//128 127//127 79//79
f 80//80 128//128 79//79
f 129//129 128//128 80//80
f 81//81 129//129 80//80
f 130//130 129//129 81//81
f 82//82 130//130 81//81
f 131//131 130//130 82//82
f 83//83 131//131 82//82
f 132//132 131//131 83//83
f 84//84 132//132 83//83
f 133//133 132//132 84//84
f 85//85 133//133 84//84
f 134//134 133//133 85//85
f 86//86 134//134 85//85
f 135//135 134//134 86//86
f 87//87 135//135 86//86
f 136//136 135//135 87//87
f 88//88 136//136 87//87
f 137//137 136//136 88//88
f 89//89 137//137 88//88
f 138//138 137//137 89//89
f 90//90 138//138 89//89
f 139//139 138//138 90//90
f 91//91 139//139 90//90
f 140//140 139//139 91//91
f 92//92 140//140 91//91
f 141//141 140//140 92//92
f 93//93 141//141 92//92
f 142//142 141//141 93//93
f 94//94 142//142 93//93
f 143//143 142//142 94//94
f 95//95 143//143 94//94
f 144//144 143//143 95//95
f 96//96 144//144 95//95
f 97//97 144//144 96//96
f 49//49 97//97 96//96
f 2//2 1//1 145//145
f 3//3 2//2 145//145
f 4//4 3//3 145//145
f 5//5 4//4 145//145
f 6//6 5//5 145//145
f 7//7 6//6 145//145
f 8//8 7//7 145//145
f 9//9 8//8 145//145
f 10//10 9//9 145//145
f 11//11 10//10 145//145
f 12//12 11//11 145//145
f 13//13 12//12 145//145
f 14//14 13//13 145//145
f 15//15 14//14 145//145
f 16//16 15//15 145//145
f 17//17 16//16 145//145
f 18//18 17//17 145//145
f 19//19 18//18 145//145
f 20//20 19//19 145//145
f 21//21 20//20 145//145
f 22//22 21//21 145//145
f 23//23 22//22 145//145
f 24//24 23//23 145//145
f 25//25 24//24 145//145
f 26//26 25//25 145//145
f 27//27 26//26 145//145
f 28//28 27//27 145//145
f 29//29 28//28 145//145
f 30//30 29//29 145//145
f 31//31 30//30 145//145
f 32//32 31//31 145//145
f 33//33 32//32 145//145
f 34//34 33//33 145//145
f 35//35 34//34 145//145
f 36//36 35//35 145//145
f 37//37 36//36 145//145
f 38//38 37//37 145//145
f 39//39 38//38 145//145
f 40//40 39//39 145//145
f 41//41 40//40 145//145
f 42//42 41//41 145//145
f 43//43 42//42 145//145
f 44//44 43//43 145//145
f 45//45 44//44 145//145
f 46//46 45//45 145//145
f 47//47 46//46 145//145
f 48//48 47//47 145//145
f 1//1 48//48 145//145
f 146//146 97//97 98//98
f 146//146 98//98 99//99
f 146//146 99//99 100//100
f 146//146 100//100 101//101
f 146//146 101//101 102//102
f 146//146 102//102 103//103
f 146//146 103//103 104//104
f 146//146 104//104 105//105
f 146//146 105//105 106//106
f 146//146 106//106 107//107
f 146//146 107//107 108//108
f 146//146 108//108 109//109
f 146//146 109//109 110//110
f 146//146 110//110 111//111
f 146//146 111//111 112//112
f 146//146 112//112 113//113
f 146//146 113//113 114//114
f 146//146 114//114 115//115
f 146//146 115//115 116//116
f 146//146 116//116 117//117
f 146//146 117//117 118//118
f 146//146 118//118 119//119
f 146//146 119//119 120//120
f 146//146 120//120 121//121
f 146//146 121//121 122//122
f 146//146 122//122 123//123
f 146//146 123//123 124//124
f 146//146 124//124 125//125
f 146//146 125//125 126//126
f 146//146 126//126 127//127
f 146//146 127//127 128//128
f 146//146 128//128 129//129
f 146//146 129//129 130//130
f 146//146 130//130 131//131
f 146//146 131//131 132//132
f 146//146 132//132 133//133
f 146//146 133//133 134//134
f 146//146 134//134 135//135
f 146//146 135//135 136//136
f 146//146 136//136 137//137
f 146//146 137//137 138//138
f 146//146 138//138 139//139
f 146//146 139//139 140//140
f 146//146 140//140 141//141
f 146//146 141//141 142//142
f 146//146 142//142 143//143
f 146//146 143//143 144//144
f 146//146 144//144 97//97
