# Independent procedural camera geometry; meters; Z up
o battery_base
v -0.0234041200 0.0383532500 0.0053472000
v -0.0234041200 0.0382883523 0.0060061176
v -0.0234041200 0.0380961531 0.0066397133
v -0.0234041200 0.0377840386 0.0072236385
v -0.0234041200 0.0373640032 0.0077354532
v -0.0234041200 0.0368521885 0.0081554886
v -0.0234041200 0.0362682633 0.0084676031
v -0.0234041200 0.0356346676 0.0086598023
v -0.0234041200 -0.0349757500 0.0087247000
v -0.0234041200 -0.0356346676 0.0086598023
v -0.0234041200 -0.0362682633 0.0084676031
v -0.0234041200 -0.0368521885 0.0081554886
v -0.0234041200 -0.0373640032 0.0077354532
v -0.0234041200 -0.0377840386 0.0072236385
v -0.0234041200 -0.0380961531 0.0066397133
v -0.0234041200 -0.0382883523 0.0060061176
v -0.0234041200 -0.0383532500 0.0042332000
v -0.0234041200 -0.0382883523 0.0035742824
v -0.0234041200 -0.0380961531 0.0029406867
v -0.0234041200 -0.0377840386 0.0023567615
v -0.0234041200 -0.0373640032 0.0018449468
v -0.0234041200 -0.0368521885 0.0014249114
v -0.0234041200 -0.0362682633 0.0011127969
v -0.0234041200 -0.0356346676 0.0009205977
v -0.0234041200 0.0349757500 0.0008557000
v -0.0234041200 0.0356346676 0.0009205977
v -0.0234041200 0.0362682633 0.0011127969
v -0.0234041200 0.0368521885 0.0014249114
v -0.0234041200 0.0373640032 0.0018449468
v -0.0234041200 0.0377840386 0.0023567615
v -0.0234041200 0.0380961531 0.0029406867
v -0.0234041200 0.0382883523 0.0035742824
v -0.0226041200 0.0391532500 0.0053472000
v -0.0226041200 0.0390729805 0.0061621898
v -0.0226041200 0.0388352567 0.0069458600
v -0.0226041200 0.0384492143 0.0076680946
v -0.0226041200 0.0379296886 0.0083011386
v -0.0226041200 0.0372966446 0.0088206643
v -0.0226041200 0.0365744100 0.0092067067
v -0.0226041200 0.0357907398 0.0094444305
v -0.0226041200 -0.0349757500 0.0095247000
v -0.0226041200 -0.0357907398 0.0094444305
v -0.0226041200 -0.0365744100 0.0092067067
v -0.0226041200 -0.0372966446 0.0088206643
v -0.0226041200 -0.0379296886 0.0083011386
v -0.0226041200 -0.0384492143 0.0076680946
v -0.0226041200 -0.0388352567 0.0069458600
v -0.0226041200 -0.0390729805 0.0061621898
v -0.0226041200 -0.0391532500 0.0042332000
v -0.0226041200 -0.0390729805 0.0034182102
v -0.0226041200 -0.0388352567 0.0026345400
v -0.0226041200 -0.0384492143 0.0019123054
v -0.0226041200 -0.0379296886 0.0012792614
v -0.0226041200 -0.0372966446 0.0007597357
v -0.0226041200 -0.0365744100 0.0003736933
v -0.0226041200 -0.0357907398 0.0001359695
v -0.0226041200 0.0349757500 0.0000557000
v -0.0226041200 0.0357907398 0.0001359695
v -0.0226041200 0.0365744100 0.0003736933
v -0.0226041200 0.0372966446 0.0007597357
v -0.0226041200 0.0379296886 0.0012792614
v -0.0226041200 0.0384492143 0.0019123054
v -0.0226041200 0.0388352567 0.0026345400
v -0.0226041200 0.0390729805 0.0034182102
v 0.0145801200 0.0391532500 0.0053472000
v 0.0145801200 0.0390729805 0.0061621898
v 0.0145801200 0.0388352567 0.0069458600
v 0.0145801200 0.0384492143 0.0076680946
v 0.0145801200 0.0379296886 0.0083011386
v 0.0145801200 0.0372966446 0.0088206643
v 0.0145801200 0.0365744100 0.0092067067
v 0.0145801200 0.0357907398 0.0094444305
v 0.0145801200 -0.0349757500 0.0095247000
v 0.0145801200 -0.0357907398 0.0094444305
v 0.0145801200 -0.0365744100 0.0092067067
v 0.0145801200 -0.0372966446 0.0088206643
v 0.0145801200 -0.0379296886 0.0083011386
v 0.0145801200 -0.0384492143 0.0076680946
v 0.0145801200 -0.0388352567 0.0069458600
v 0.0145801200 -0.0390729805 0.0061621898
v 0.0145801200 -0.0391532500 0.0042332000
v 0.0145801200 -0.0390729805 0.0034182102
v 0.0145801200 -0.0388352567 0.0026345400
v 0.0145801200 -0.0384492143 0.0019123054
v 0.0145801200 -0.0379296886 0.0012792614
v 0.0145801200 -0.0372966446 0.0007597357
v 0.0145801200 -0.0365744100 0.0003736933
v 0.0145801200 -0.0357907398 0.0001359695
v 0.0145801200 0.0349757500 0.0000557000
v 0.0145801200 0.0357907398 0.0001359695
v 0.0145801200 0.0365744100 0.0003736933
v 0.0145801200 0.0372966446 0.0007597357
v 0.0145801200 0.0379296886 0.0012792614
v 0.0145801200 0.0384492143 0.0019123054
v 0.0145801200 0.0388352567 0.0026345400
v 0.0145801200 0.0390729805 0.0034182102
v 0.0153801200 0.0383532500 0.0053472000
v 0.0153801200 0.0382883523 0.0060061176
v 0.0153801200 0.0380961531 0.0066397133
v 0.0153801200 0.0377840386 0.0072236385
v 0.0153801200 0.0373640032 0.0077354532
v 0.0153801200 0.0368521885 0.0081554886
v 0.0153801200 0.0362682633 0.0084676031
v 0.0153801200 0.0356346676 0.0086598023
v 0.0153801200 -0.0349757500 0.0087247000
v 0.0153801200 -0.0356346676 0.0086598023
v 0.0153801200 -0.0362682633 0.0084676031
v 0.0153801200 -0.0368521885 0.0081554886
v 0.0153801200 -0.0373640032 0.0077354532
v 0.0153801200 -0.0377840386 0.0072236385
v 0.0153801200 -0.0380961531 0.0066397133
v 0.0153801200 -0.0382883523 0.0060061176
v 0.0153801200 -0.0383532500 0.0042332000
v 0.0153801200 -0.0382883523 0.0035742824
v 0.0153801200 -0.0380961531 0.0029406867
v 0.0153801200 -0.0377840386 0.0023567615
v 0.0153801200 -0.0373640032 0.0018449468
v 0.0153801200 -0.0368521885 0.0014249114
v 0.0153801200 -0.0362682633 0.0011127969
v 0.0153801200 -0.0356346676 0.0009205977
v 0.0153801200 0.0349757500 0.0008557000
v 0.0153801200 0.0356346676 0.0009205977
v 0.0153801200 0.0362682633 0.0011127969
v 0.0153801200 0.0368521885 0.0014249114
v 0.0153801200 0.0373640032 0.0018449468
v 0.0153801200 0.0377840386 0.0023567615
v 0.0153801200 0.0380961531 0.0029406867
v 0.0153801200 0.0382883523 0.0035742824
vn -0.91797474 0.39643870 0.01259901
vn -0.91532176 0.39498512 0.07856742
vn -0.91532176 0.37206784 0.15411555
vn -0.91532176 0.33485221 0.22374110
vn -0.91532176 0.28476840 0.28476840
vn -0.91532176 0.22374110 0.33485221
vn -0.91532176 0.15411555 0.37206784
vn -0.91088054 0.05933943 0.40838153
vn -0.91946035 -0.01955216 0.39269628
vn -0.91532176 -0.07856742 0.39498512
vn -0.91532176 -0.15411555 0.37206784
vn -0.91532176 -0.22374110 0.33485221
vn -0.91532176 -0.28476840 0.28476840
vn -0.91532176 -0.33485221 0.22374110
vn -0.91532176 -0.37206784 0.15411555
vn -0.91276561 -0.40290565 0.06727539
vn -0.91797474 -0.39643870 -0.01259901
vn -0.91532176 -0.39498512 -0.07856742
vn -0.91532176 -0.37206784 -0.15411555
vn -0.91532176 -0.33485221 -0.22374110
vn -0.91532176 -0.28476840 -0.28476840
vn -0.91532176 -0.22374110 -0.33485221
vn -0.91532176 -0.15411555 -0.37206784
vn -0.91088054 -0.05933943 -0.40838153
vn -0.91946035 0.01955216 -0.39269628
vn -0.91532176 0.07856742 -0.39498512
vn -0.91532176 0.15411555 -0.37206784
vn -0.91532176 0.22374110 -0.33485221
vn -0.91532176 0.28476840 -0.28476840
vn -0.91532176 0.33485221 -0.22374110
vn -0.91532176 0.37206784 -0.15411555
vn -0.91276561 0.40290565 -0.06727539
vn -0.37624762 0.92614086 0.02647340
vn -0.37448906 0.90941484 0.18089386
vn -0.37448906 0.85665005 0.35483607
vn -0.37448906 0.77096468 0.51514213
vn -0.37448906 0.65565156 0.65565156
vn -0.37448906 0.51514213 0.77096468
vn -0.37448906 0.35483607 0.85665005
vn -0.37040977 0.13788226 0.91857775
vn -0.37819463 -0.04454210 0.92465389
vn -0.37448906 -0.18089386 0.90941484
vn -0.37448906 -0.35483607 0.85665005
vn -0.37448906 -0.51514213 0.77096468
vn -0.37448906 -0.65565156 0.65565156
vn -0.37448906 -0.77096468 0.51514213
vn -0.37448906 -0.85665005 0.35483607
vn -0.37214741 -0.91500478 0.15579653
vn -0.37624762 -0.92614086 -0.02647340
vn -0.37448906 -0.90941484 -0.18089386
vn -0.37448906 -0.85665005 -0.35483607
vn -0.37448906 -0.77096468 -0.51514213
vn -0.37448906 -0.65565156 -0.65565156
vn -0.37448906 -0.51514213 -0.77096468
vn -0.37448906 -0.35483607 -0.85665005
vn -0.37040977 -0.13788226 -0.91857775
vn -0.37819463 0.04454210 -0.92465389
vn -0.37448906 0.18089386 -0.90941484
vn -0.37448906 0.35483607 -0.85665005
vn -0.37448906 0.51514213 -0.77096468
vn -0.37448906 0.65565156 -0.65565156
vn -0.37448906 0.77096468 -0.51514213
vn -0.37448906 0.85665005 -0.35483607
vn -0.37214741 0.91500478 -0.15579653
vn 0.37624762 0.92614086 0.02647340
vn 0.37448906 0.90941484 0.18089386
vn 0.37448906 0.85665005 0.35483607
vn 0.37448906 0.77096468 0.51514213
vn 0.37448906 0.65565156 0.65565156
vn 0.37448906 0.51514213 0.77096468
vn 0.37448906 0.35483607 0.85665005
vn 0.37040977 0.13788226 0.91857775
vn 0.37819463 -0.04454210 0.92465389
vn 0.37448906 -0.18089386 0.90941484
vn 0.37448906 -0.35483607 0.85665005
vn 0.37448906 -0.51514213 0.77096468
vn 0.37448906 -0.65565156 0.65565156
vn 0.37448906 -0.77096468 0.51514213
vn 0.37448906 -0.85665005 0.35483607
vn 0.37214741 -0.91500478 0.15579653
vn 0.37624762 -0.92614086 -0.02647340
vn 0.37448906 -0.90941484 -0.18089386
vn 0.37448906 -0.85665005 -0.35483607
vn 0.37448906 -0.77096468 -0.51514213
vn 0.37448906 -0.65565156 -0.65565156
vn 0.37448906 -0.51514213 -0.77096468
vn 0.37448906 -0.35483607 -0.85665005
vn 0.37040977 -0.13788226 -0.91857775
vn 0.37819463 0.04454210 -0.92465389
vn 0.37448906 0.18089386 -0.90941484
vn 0.37448906 0.35483607 -0.85665005
vn 0.37448906 0.51514213 -0.77096468
vn 0.37448906 0.65565156 -0.65565156
vn 0.37448906 0.77096468 -0.51514213
vn 0.37448906 0.85665005 -0.35483607
vn 0.37214741 0.91500478 -0.15579653
vn 0.91797474 0.39643870 0.01259901
vn 0.91532176 0.39498512 0.07856742
vn 0.91532176 0.37206784 0.15411555
vn 0.91532176 0.33485221 0.22374110
vn 0.91532176 0.28476840 0.28476840
vn 0.91532176 0.22374110 0.33485221
vn 0.91532176 0.15411555 0.37206784
vn 0.91088054 0.05933943 0.40838153
vn 0.91946035 -0.01955216 0.39269628
vn 0.91532176 -0.07856742 0.39498512
vn 0.91532176 -0.15411555 0.37206784
vn 0.91532176 -0.22374110 0.33485221
vn 0.91532176 -0.28476840 0.28476840
vn 0.91532176 -0.33485221 0.22374110
vn 0.91532176 -0.37206784 0.15411555
vn 0.91276561 -0.40290565 0.06727539
vn 0.91797474 -0.39643870 -0.01259901
vn 0.91532176 -0.39498512 -0.07856742
vn 0.91532176 -0.37206784 -0.15411555
vn 0.91532176 -0.33485221 -0.22374110
vn 0.91532176 -0.28476840 -0.28476840
vn 0.91532176 -0.22374110 -0.33485221
vn 0.91532176 -0.15411555 -0.37206784
vn 0.91088054 -0.05933943 -0.40838153
vn 0.91946035 0.01955216 -0.39269628
vn 0.91532176 0.07856742 -0.39498512
vn 0.91532176 0.15411555 -0.37206784
vn 0.91532176 0.22374110 -0.33485221
vn 0.91532176 0.28476840 -0.28476840
vn 0.91532176 0.33485221 -0.22374110
vn 0.91532176 0.37206784 -0.15411555
vn 0.91276561 0.40290565 -0.06727539
f 56//56 24//24 57//57
f 57//57 24//24 25//25
f 88//88 89//89 120//120
f 89//89 121//121 120//120
f 104//104 72//72 73//73
f 1//1 33//33 32//32
f 41//41 40//40 8//8
f 8//8 9//9 41//41
f 64//64 32//32 33//33
f 128//128 65//65 97//97
f 105//105 104//104 73//73
f 65//65 128//128 96//96
f 112//112 80//80 81//81
f 49//49 48//48 16//16
f 16//16 17//17 49//49
f 113//113 112//112 81//81
f 56//56 89//89 88//88
f 57//57 89//89 56//56
f 41//41 73//73 72//72
f 72//72 40//40 41//41
f 33//33 65//65 96//96
f 96//96 64//64 33//33
f 63//63 30//30 31//31
f 62//62 30//30 63//63
f 31//31 32//32 63//63
f 32//32 64//64 63//63
f 29//29 61//61 60//60
f 29//29 60//60 28//28
f 29//29 30//30 62//62
f 62//62 61//61 29//29
f 93//93 61//61 62//62
f 62//62 94//94 93//93
f 94//94 126//126 93//93
f 126//126 125//125 93//93
f 90//90 122//122 121//121
f 90//90 121//121 89//89
f 50//50 82//82 81//81
f 50//50 81//81 49//49
f 50//50 51//51 83//83
f 83//83 82//82 50//50
f 49//49 81//81 48//48
f 81//81 80//80 48//48
f 22//22 54//54 53//53
f 53//53 21//21 22//22
f 20//20 21//21 52//52
f 52//52 21//21 53//53
f 52//52 19//19 20//20
f 52//52 51//51 19//19
f 87//87 56//56 88//88
f 87//87 55//55 56//56
f 120//120 119//119 87//87
f 88//88 120//120 87//87
f 62//62 63//63 95//95
f 95//95 94//94 62//62
f 64//64 96//96 95//95
f 95//95 63//63 64//64
f 122//122 90//90 123//123
f 123//123 90//90 91//91
f 91//91 59//59 92//92
f 92//92 59//59 60//60
f 60//60 61//61 92//92
f 61//61 93//93 92//92
f 124//124 123//123 92//92
f 92//92 123//123 91//91
f 92//92 125//125 124//124
f 92//92 93//93 125//125
f 28//28 60//60 27//27
f 60//60 59//59 27//27
f 58//58 89//89 57//57
f 58//58 90//90 89//89
f 91//91 90//90 58//58
f 58//58 59//59 91//91
f 25//25 26//26 58//58
f 57//57 25//25 58//58
f 26//26 27//27 58//58
f 58//58 27//27 59//59
f 18//18 50//50 49//49
f 49//49 17//17 18//18
f 51//51 50//50 18//18
f 19//19 51//51 18//18
f 44//44 75//75 43//43
f 76//76 75//75 44//44
f 41//41 9//9 10//10
f 10//10 42//42 41//41
f 56//56 55//55 23//23
f 24//24 56//56 23//23
f 54//54 22//22 23//23
f 55//55 54//54 23//23
f 53//53 54//54 86//86
f 86//86 85//85 53//53
f 55//55 87//87 86//86
f 86//86 54//54 55//55
f 86//86 119//119 118//118
f 86//86 87//87 119//119
f 127//127 126//126 94//94
f 94//94 95//95 127//127
f 127//127 95//95 96//96
f 127//127 96//96 128//128
f 67//67 36//36 68//68
f 35//35 36//36 67//67
f 100//100 99//99 67//67
f 67//67 68//68 100//100
f 2//2 33//33 1//1
f 2//2 34//34 33//33
f 7//7 8//8 40//40
f 40//40 39//39 7//7
f 7//7 39//39 38//38
f 38//38 6//6 7//7
f 37//37 36//36 5//5
f 5//5 36//36 4//4
f 5//5 6//6 38//38
f 5//5 38//38 37//37
f 40//40 72//72 71//71
f 71//71 39//39 40//40
f 38//38 39//39 71//71
f 71//71 70//70 38//38
f 104//104 103//103 71//71
f 72//72 104//104 71//71
f 71//71 103//103 102//102
f 102//102 70//70 71//71
f 68//68 36//36 69//69
f 69//69 36//36 37//37
f 37//37 38//38 69//69
f 38//38 70//70 69//69
f 81//81 82//82 113//113
f 82//82 114//114 113//113
f 83//83 51//51 84//84
f 51//51 52//52 84//84
f 84//84 52//52 53//53
f 53//53 85//85 84//84
f 85//85 86//86 117//117
f 117//117 86//86 118//118
f 117//117 84//84 85//85
f 116//116 84//84 117//117
f 115//115 82//82 83//83
f 115//115 114//114 82//82
f 83//83 84//84 115//115
f 115//115 84//84 116//116
f 47//47 78//78 46//46
f 47//47 79//79 78//78
f 47//47 48//48 80//80
f 80//80 79//79 47//47
f 11//11 44//44 43//43
f 12//12 44//44 11//11
f 42//42 10//10 11//11
f 43//43 42//42 11//11
f 66//66 65//65 33//33
f 33//33 34//34 66//66
f 35//35 67//67 66//66
f 66//66 34//34 35//35
f 66//66 98//98 97//97
f 97//97 65//65 66//66
f 66//66 99//99 98//98
f 66//66 67//67 99//99
f 3//3 36//36 35//35
f 4//4 36//36 3//3
f 34//34 2//2 3//3
f 35//35 34//34 3//3
f 100//100 68//68 101//101
f 68//68 69//69 101//101
f 101//101 70//70 102//102
f 101//101 69//69 70//70
f 78//78 79//79 111//111
f 110//110 78//78 111//111
f 111//111 79//79 80//80
f 80//80 112//112 111//111
f 107//107 120//120 121//121
f 121//121 122//122 107//107
f 107//107 128//128 97//97
f 107//107 125//125 126//126
f 107//107 123//123 124//124
f 114//114 115//115 107//107
f 104//104 105//105 107//107
f 97//97 98//98 107//107
f 107//107 119//119 120//120
f 107//107 113//113 114//114
f 124//124 125//125 107//107
f 100//100 101//101 107//107
f 107//107 103//103 104//104
f 105//105 106//106 107//107
f 118//118 119//119 107//107
f 107//107 99//99 100//100
f 122//122 123//123 107//107
f 102//102 103//103 107//107
f 98//98 99//99 107//107
f 126//126 127//127 107//107
f 107//107 117//117 118//118
f 107//107 109//109 110//110
f 107//107 127//127 128//128
f 112//112 113//113 107//107
f 116//116 117//117 107//107
f 107//107 115//115 116//116
f 108//108 109//109 107//107
f 110//110 111//111 107//107
f 107//107 101//101 102//102
f 107//107 111//111 112//112
f 107//107 75//75 76//76
f 76//76 108//108 107//107
f 74//74 106//106 105//105
f 74//74 105//105 73//73
f 74//74 107//107 106//106
f 75//75 107//107 74//74
f 74//74 73//73 41//41
f 41//41 42//42 74//74
f 43//43 75//75 74//74
f 74//74 42//42 43//43
f 15//15 47//47 46//46
f 46//46 14//14 15//15
f 48//48 47//47 15//15
f 15//15 16//16 48//48
f 24//24 23//23 13//13
f 13//13 25//25 24//24
f 1//1 32//32 13//13
f 13//13 18//18 17//17
f 13//13 29//29 28//28
f 28//28 27//27 13//13
f 17//17 16//16 13//13
f 31//31 30//30 13//13
f 13//13 32//32 31//31
f 9//9 8//8 13//13
f 20//20 19//19 13//13
f 13//13 2//2 1//1
f 13//13 21//21 20//20
f 13//13 10//10 9//9
f 30//30 29//29 13//13
f 13//13 26//26 25//25
f 13//13 15//15 14//14
f 13//13 22//22 21//21
f 8//8 7//7 13//13
f 13//13 27//27 26//26
f 19//19 18//18 13//13
f 4//4 3//3 13//13
f 13//13 5//5 4//4
f 13//13 23//23 22//22
f 12//12 11//11 13//13
f 13//13 7//7 6//6
f 6//6 5//5 13//13
f 13//13 11//11 10//10
f 13//13 3//3 2//2
f 16//16 15//15 13//13
f 13//13 14//14 46//46
f 46//46 45//45 13//13
f 13//13 44//44 12//12
f 13//13 45//45 44//44
f 76//76 44//44 77//77
f 44//44 45//45 77//77
f 46//46 78//78 77//77
f 77//77 45//45 46//46
f 77//77 109//109 108//108
f 77//77 108//108 76//76
f 110//110 109//109 77//77
f 77//77 78//78 110//110
