# Independent procedural camera geometry; meters; Z up
o rear_display
v -0.0235200000 -0.0302795000 0.0452095000
v -0.0235200000 -0.0302549052 0.0454592156
v -0.0235200000 -0.0301820658 0.0456993348
v -0.0235200000 -0.0300637811 0.0459206299
v -0.0235200000 -0.0299045967 0.0461145967
v -0.0235200000 -0.0297106299 0.0462737811
v -0.0235200000 -0.0294893348 0.0463920658
v -0.0235200000 -0.0292492156 0.0464649052
v -0.0235200000 0.0289995000 0.0464895000
v -0.0235200000 0.0292492156 0.0464649052
v -0.0235200000 0.0294893348 0.0463920658
v -0.0235200000 0.0297106299 0.0462737811
v -0.0235200000 0.0299045967 0.0461145967
v -0.0235200000 0.0300637811 0.0459206299
v -0.0235200000 0.0301820658 0.0456993348
v -0.0235200000 0.0302549052 0.0454592156
v -0.0235200000 0.0302795000 0.0149465000
v -0.0235200000 0.0302549052 0.0146967844
v -0.0235200000 0.0301820658 0.0144566652
v -0.0235200000 0.0300637811 0.0142353701
v -0.0235200000 0.0299045967 0.0140414033
v -0.0235200000 0.0297106299 0.0138822189
v -0.0235200000 0.0294893348 0.0137639342
v -0.0235200000 0.0292492156 0.0136910948
v -0.0235200000 -0.0289995000 0.0136665000
v -0.0235200000 -0.0292492156 0.0136910948
v -0.0235200000 -0.0294893348 0.0137639342
v -0.0235200000 -0.0297106299 0.0138822189
v -0.0235200000 -0.0299045967 0.0140414033
v -0.0235200000 -0.0300637811 0.0142353701
v -0.0235200000 -0.0301820658 0.0144566652
v -0.0235200000 -0.0302549052 0.0146967844
v -0.0235400000 -0.0302995000 0.0452095000
v -0.0235400000 -0.0302745209 0.0454631174
v -0.0235400000 -0.0302005434 0.0457069885
v -0.0235400000 -0.0300804105 0.0459317413
v -0.0235400000 -0.0299187388 0.0461287388
v -0.0235400000 -0.0297217413 0.0462904105
v -0.0235400000 -0.0294969885 0.0464105434
v -0.0235400000 -0.0292531174 0.0464845209
v -0.0235400000 0.0289995000 0.0465095000
v -0.0235400000 0.0292531174 0.0464845209
v -0.0235400000 0.0294969885 0.0464105434
v -0.0235400000 0.0297217413 0.0462904105
v -0.0235400000 0.0299187388 0.0461287388
v -0.0235400000 0.0300804105 0.0459317413
v -0.0235400000 0.0302005434 0.0457069885
v -0.0235400000 0.0302745209 0.0454631174
v -0.0235400000 0.0302995000 0.0149465000
v -0.0235400000 0.0302745209 0.0146928826
v -0.0235400000 0.0302005434 0.0144490115
v -0.0235400000 0.0300804105 0.0142242587
v -0.0235400000 0.0299187388 0.0140272612
v -0.0235400000 0.0297217413 0.0138655895
v -0.0235400000 0.0294969885 0.0137454566
v -0.0235400000 0.0292531174 0.0136714791
v -0.0235400000 -0.0289995000 0.0136465000
v -0.0235400000 -0.0292531174 0.0136714791
v -0.0235400000 -0.0294969885 0.0137454566
v -0.0235400000 -0.0297217413 0.0138655895
v -0.0235400000 -0.0299187388 0.0140272612
v -0.0235400000 -0.0300804105 0.0142242587
v -0.0235400000 -0.0302005434 0.0144490115
v -0.0235400000 -0.0302745209 0.0146928826
v -0.0235800000 -0.0302995000 0.0452095000
v -0.0235800000 -0.0302745209 0.0454631174
v -0.0235800000 -0.0302005434 0.0457069885
v -0.0235800000 -0.0300804105 0.0459317413
v -0.0235800000 -0.0299187388 0.0461287388
v -0.0235800000 -0.0297217413 0.0462904105
v -0.0235800000 -0.0294969885 0.0464105434
v -0.0235800000 -0.0292531174 0.0464845209
v -0.0235800000 0.0289995000 0.0465095000
v -0.0235800000 0.0292531174 0.0464845209
v -0.0235800000 0.0294969885 0.0464105434
v -0.0235800000 0.0297217413 0.0462904105
v -0.0235800000 0.0299187388 0.0461287388
v -0.0235800000 0.0300804105 0.0459317413
v -0.0235800000 0.0302005434 0.0457069885
v -0.0235800000 0.0302745209 0.0454631174
v -0.0235800000 0.0302995000 0.0149465000
v -0.0235800000 0.0302745209 0.0146928826
v -0.0235800000 0.0302005434 0.0144490115
v -0.0235800000 0.0300804105 0.0142242587
v -0.0235800000 0.0299187388 0.0140272612
v -0.0235800000 0.0297217413 0.0138655895
v -0.0235800000 0.0294969885 0.0137454566
v -0.0235800000 0.0292531174 0.0136714791
v -0.0235800000 -0.0289995000 0.0136465000
v -0.0235800000 -0.0292531174 0.0136714791
v -0.0235800000 -0.0294969885 0.0137454566
v -0.0235800000 -0.0297217413 0.0138655895
v -0.0235800000 -0.0299187388 0.0140272612
v -0.0235800000 -0.0300804105 0.0142242587
v -0.0235800000 -0.0302005434 0.0144490115
v -0.0235800000 -0.0302745209 0.0146928826
v -0.0236000000 -0.0302795000 0.0452095000
v -0.0236000000 -0.0302549052 0.0454592156
v -0.0236000000 -0.0301820658 0.0456993348
v -0.0236000000 -0.0300637811 0.0459206299
v -0.0236000000 -0.0299045967 0.0461145967
v -0.0236000000 -0.0297106299 0.0462737811
v -0.0236000000 -0.0294893348 0.0463920658
v -0.0236000000 -0.0292492156 0.0464649052
v -0.0236000000 0.0289995000 0.0464895000
v -0.0236000000 0.0292492156 0.0464649052
v -0.0236000000 0.0294893348 0.0463920658
v -0.0236000000 0.0297106299 0.0462737811
v -0.0236000000 0.0299045967 0.0461145967
v -0.0236000000 0.0300637811 0.0459206299
v -0.0236000000 0.0301820658 0.0456993348
v -0.0236000000 0.0302549052 0.0454592156
v -0.0236000000 0.0302795000 0.0149465000
v -0.0236000000 0.0302549052 0.0146967844
v -0.0236000000 0.0301820658 0.0144566652
v -0.0236000000 0.0300637811 0.0142353701
v -0.0236000000 0.0299045967 0.0140414033
v -0.0236000000 0.0297106299 0.0138822189
v -0.0236000000 0.0294893348 0.0137639342
v -0.0236000000 0.0292492156 0.0136910948
v -0.0236000000 -0.0289995000 0.0136665000
v -0.0236000000 -0.0292492156 0.0136910948
v -0.0236000000 -0.0294893348 0.0137639342
v -0.0236000000 -0.0297106299 0.0138822189
v -0.0236000000 -0.0299045967 0.0140414033
v -0.0236000000 -0.0300637811 0.0142353701
v -0.0236000000 -0.0301820658 0.0144566652
v -0.0236000000 -0.0302549052 0.0146967844
vn 0.91946501 -0.39268431 0.01957381
vn 0.91532176 -0.39498512 0.07856742
vn 0.91532176 -0.37206784 0.15411555
vn 0.91532176 -0.33485221 0.22374110
vn 0.91532176 -0.28476840 0.28476840
vn 0.91532176 -0.22374110 0.33485221
vn 0.91532176 -0.15411555 0.37206784
vn 0.91084692 -0.05919210 0.40847789
vn 0.91948080 0.01964729 0.39264365
vn 0.91532176 0.07856742 0.39498512
vn 0.91532176 0.15411555 0.37206784
vn 0.91532176 0.22374110 0.33485221
vn 0.91532176 0.28476840 0.28476840
vn 0.91532176 0.33485221 0.22374110
vn 0.91532176 0.37206784 0.15411555
vn 0.91086548 0.40842465 0.05927374
vn 0.91946501 0.39268431 -0.01957381
vn 0.91532176 0.39498512 -0.07856742
vn 0.91532176 0.37206784 -0.15411555
vn 0.91532176 0.33485221 -0.22374110
vn 0.91532176 0.28476840 -0.28476840
vn 0.91532176 0.22374110 -0.33485221
vn 0.91532176 0.15411555 -0.37206784
vn 0.91084692 0.05919210 -0.40847789
vn 0.91948080 -0.01964729 -0.39264365
vn 0.91532176 -0.07856742 -0.39498512
vn 0.91532176 -0.15411555 -0.37206784
vn 0.91532176 -0.22374110 -0.33485221
vn 0.91532176 -0.28476840 -0.28476840
vn 0.91532176 -0.33485221 -0.22374110
vn 0.91532176 -0.37206784 -0.15411555
vn 0.91086548 -0.40842465 -0.05927374
vn 0.37822805 -0.92463504 0.04464948
vn 0.37448906 -0.90941484 0.18089386
vn 0.37448906 -0.85665005 0.35483607
vn 0.37448906 -0.77096468 0.51514213
vn 0.37448906 -0.65565156 0.65565156
vn 0.37448906 -0.51514213 0.77096468
vn 0.37448906 -0.35483607 0.85665005
vn 0.37037904 -0.13757007 0.91863695
vn 0.37824283 0.04482816 0.92462035
vn 0.37448906 0.18089386 0.90941484
vn 0.37448906 0.35483607 0.85665005
vn 0.37448906 0.51514213 0.77096468
vn 0.37448906 0.65565156 0.65565156
vn 0.37448906 0.77096468 0.51514213
vn 0.37448906 0.85665005 0.35483607
vn 0.37039602 0.91860426 0.13774254
vn 0.37822805 0.92463504 -0.04464948
vn 0.37448906 0.90941484 -0.18089386
vn 0.37448906 0.85665005 -0.35483607
vn 0.37448906 0.77096468 -0.51514213
vn 0.37448906 0.65565156 -0.65565156
vn 0.37448906 0.51514213 -0.77096468
vn 0.37448906 0.35483607 -0.85665005
vn 0.37037904 0.13757007 -0.91863695
vn 0.37824283 -0.04482816 -0.92462035
vn 0.37448906 -0.18089386 -0.90941484
vn 0.37448906 -0.35483607 -0.85665005
vn 0.37448906 -0.51514213 -0.77096468
vn 0.37448906 -0.65565156 -0.65565156
vn 0.37448906 -0.77096468 -0.51514213
vn 0.37448906 -0.85665005 -0.35483607
vn 0.37039602 -0.91860426 -0.13774254
vn -0.37822805 -0.92463504 0.04464948
vn -0.37448906 -0.90941484 0.18089386
vn -0.37448906 -0.85665005 0.35483607
vn -0.37448906 -0.77096468 0.51514213
vn -0.37448906 -0.65565156 0.65565156
vn -0.37448906 -0.51514213 0.77096468
vn -0.37448906 -0.35483607 0.85665005
vn -0.37037904 -0.13757007 0.91863695
vn -0.37824283 0.04482816 0.92462035
vn -0.37448906 0.18089386 0.90941484
vn -0.37448906 0.35483607 0.85665005
vn -0.37448906 0.51514213 0.77096468
vn -0.37448906 0.65565156 0.65565156
vn -0.37448906 0.77096468 0.51514213
vn -0.37448906 0.85665005 0.35483607
vn -0.37039602 0.91860426 0.13774254
vn -0.37822805 0.92463504 -0.04464948
vn -0.37448906 0.90941484 -0.18089386
vn -0.37448906 0.85665005 -0.35483607
vn -0.37448906 0.77096468 -0.51514213
vn -0.37448906 0.65565156 -0.65565156
vn -0.37448906 0.51514213 -0.77096468
vn -0.37448906 0.35483607 -0.85665005
vn -0.37037904 0.13757007 -0.91863695
vn -0.37824283 -0.04482816 -0.92462035
vn -0.37448906 -0.18089386 -0.90941484
vn -0.37448906 -0.35483607 -0.85665005
vn -0.37448906 -0.51514213 -0.77096468
vn -0.37448906 -0.65565156 -0.65565156
vn -0.37448906 -0.77096468 -0.51514213
vn -0.37448906 -0.85665005 -0.35483607
vn -0.37039602 -0.91860426 -0.13774254
vn -0.91946501 -0.39268431 0.01957381
vn -0.91532176 -0.39498512 0.07856742
vn -0.91532176 -0.37206784 0.15411555
vn -0.91532176 -0.33485221 0.22374110
vn -0.91532176 -0.28476840 0.28476840
vn -0.91532176 -0.22374110 0.33485221
vn -0.91532176 -0.15411555 0.37206784
vn -0.91084692 -0.05919210 0.40847789
vn -0.91948080 0.01964729 0.39264365
vn -0.91532176 0.07856742 0.39498512
vn -0.91532176 0.15411555 0.37206784
vn -0.91532176 0.22374110 0.33485221
vn -0.91532176 0.28476840 0.28476840
vn -0.91532176 0.33485221 0.22374110
vn -0.91532176 0.37206784 0.15411555
vn -0.91086548 0.40842465 0.05927374
vn -0.91946501 0.39268431 -0.01957381
vn -0.91532176 0.39498512 -0.07856742
vn -0.91532176 0.37206784 -0.15411555
vn -0.91532176 0.33485221 -0.22374110
vn -0.91532176 0.28476840 -0.28476840
vn -0.91532176 0.22374110 -0.33485221
vn -0.91532176 0.15411555 -0.37206784
vn -0.91084692 0.05919210 -0.40847789
vn -0.91948080 -0.01964729 -0.39264365
vn -0.91532176 -0.07856742 -0.39498512
vn -0.91532176 -0.15411555 -0.37206784
vn -0.91532176 -0.22374110 -0.33485221
vn -0.91532176 -0.28476840 -0.28476840
vn -0.91532176 -0.33485221 -0.22374110
vn -0.91532176 -0.37206784 -0.15411555
vn -0.91086548 -0.40842465 -0.05927374
f 128//128 65//65 97//97
f 1//1 33//33 32//32
f 32//32 33//33 64//64
f 57//57 24//24 25//25
f 16//16 17//17 49//49
f 56//56 24//24 57//57
f 81//81 113//113 112//112
f 8//8 41//41 40//40
f 41//41 8//8 9//9
f 89//89 121//121 120//120
f 120//120 88//88 89//89
f 72//72 73//73 104//104
f 104//104 73//73 105//105
f 48//48 16//16 49//49
f 65//65 128//128 96//96
f 80//80 81//81 112//112
f 62//62 61//61 30//30
f 30//30 61//61 29//29
f 43//43 42//42 11//11
f 11//11 42//42 10//10
f 29//29 61//61 28//28
f 28//28 61//61 60//60
f 59//59 27//27 28//28
f 28//28 60//60 59//59
f 10//10 42//42 9//9
f 9//9 42//42 41//41
f 20//20 21//21 52//52
f 52//52 21//21 53//53
f 33//33 34//34 66//66
f 66//66 65//65 33//33
f 89//89 122//122 121//121
f 90//90 122//122 89//89
f 88//88 56//56 89//89
f 89//89 56//56 57//57
f 123//123 122//122 91//91
f 91//91 122//122 90//90
f 59//59 60//60 91//91
f 60//60 92//92 91//91
f 91//91 124//124 123//123
f 92//92 124//124 91//91
f 58//58 91//91 90//90
f 59//59 91//91 58//58
f 58//58 27//27 59//59
f 58//58 26//26 27//27
f 90//90 89//89 58//58
f 58//58 89//89 57//57
f 25//25 26//26 58//58
f 57//57 25//25 58//58
f 93//93 126//126 125//125
f 93//93 94//94 126//126
f 93//93 61//61 62//62
f 62//62 94//94 93//93
f 125//125 124//124 93//93
f 93//93 124//124 92//92
f 60//60 61//61 93//93
f 93//93 92//92 60//60
f 63//63 31//31 32//32
f 63//63 32//32 64//64
f 62//62 30//30 63//63
f 30//30 31//31 63//63
f 95//95 94//94 62//62
f 62//62 63//63 95//95
f 71//71 39//39 72//72
f 72//72 39//39 40//40
f 40//40 41//41 72//72
f 41//41 73//73 72//72
f 41//41 42//42 74//74
f 74//74 73//73 41//41
f 75//75 42//42 43//43
f 75//75 74//74 42//42
f 44//44 75//75 43//43
f 76//76 75//75 44//44
f 108//108 75//75 76//76
f 107//107 75//75 108//108
f 77//77 109//109 108//108
f 108//108 76//76 77//77
f 40//40 39//39 7//7
f 7//7 8//8 40//40
f 2//2 34//34 33//33
f 2//2 33//33 1//1
f 24//24 56//56 23//23
f 56//56 55//55 23//23
f 22//22 23//23 54//54
f 54//54 23//23 55//55
f 54//54 21//21 22//22
f 53//53 21//21 54//54
f 87//87 56//56 88//88
f 87//87 55//55 56//56
f 20//20 52//52 19//19
f 19//19 52//52 51//51
f 17//17 18//18 50//50
f 49//49 17//17 50//50
f 18//18 19//19 50//50
f 50//50 19//19 51//51
f 65//65 66//66 98//98
f 97//97 65//65 98//98
f 126//126 94//94 127//127
f 94//94 95//95 127//127
f 96//96 63//63 64//64
f 96//96 95//95 63//63
f 128//128 127//127 96//96
f 96//96 127//127 95//95
f 33//33 65//65 96//96
f 64//64 33//33 96//96
f 84//84 52//52 53//53
f 53//53 85//85 84//84
f 117//117 116//116 84//84
f 84//84 85//85 117//117
f 51//51 52//52 84//84
f 84//84 83//83 51//51
f 71//71 72//72 103//103
f 103//103 72//72 104//104
f 70//70 39//39 71//71
f 38//38 39//39 70//70
f 70//70 103//103 102//102
f 71//71 103//103 70//70
f 74//74 75//75 106//106
f 106//106 75//75 107//107
f 73//73 74//74 106//106
f 106//106 105//105 73//73
f 80//80 48//48 49//49
f 49//49 81//81 80//80
f 6//6 7//7 39//39
f 6//6 39//39 38//38
f 36//36 35//35 3//3
f 3//3 4//4 36//36
f 34//34 2//2 3//3
f 35//35 34//34 3//3
f 119//119 87//87 88//88
f 119//119 88//88 120//120
f 86//86 119//119 118//118
f 87//87 119//119 86//86
f 86//86 54//54 55//55
f 55//55 87//87 86//86
f 86//86 118//118 117//117
f 117//117 85//85 86//86
f 53//53 54//54 86//86
f 86//86 85//85 53//53
f 115//115 84//84 116//116
f 83//83 84//84 115//115
f 49//49 50//50 82//82
f 82//82 81//81 49//49
f 82//82 114//114 113//113
f 113//113 81//81 82//82
f 82//82 50//50 51//51
f 51//51 83//83 82//82
f 82//82 115//115 114//114
f 83//83 115//115 82//82
f 67//67 66//66 34//34
f 67//67 34//34 35//35
f 67//67 35//35 36//36
f 36//36 68//68 67//67
f 69//69 68//68 36//36
f 36//36 37//37 69//69
f 38//38 70//70 69//69
f 69//69 37//37 38//38
f 76//76 44//44 45//45
f 77//77 76//76 45//45
f 16//16 48//48 15//15
f 15//15 48//48 47//47
f 47//47 46//46 15//15
f 15//15 46//46 14//14
f 48//48 80//80 79//79
f 47//47 48//48 79//79
f 36//36 4//4 5//5
f 5//5 37//37 36//36
f 5//5 6//6 38//38
f 38//38 37//37 5//5
f 99//99 67//67 68//68
f 99//99 68//68 100//100
f 99//99 98//98 66//66
f 66//66 67//67 99//99
f 68//68 69//69 101//101
f 100//100 68//68 101//101
f 101//101 70//70 102//102
f 101//101 69//69 70//70
f 43//43 11//11 12//12
f 12//12 44//44 43//43
f 111//111 128//128 97//97
f 125//125 126//126 111//111
f 120//120 121//121 111//111
f 100//100 101//101 111//111
f 113//113 114//114 111//111
f 112//112 113//113 111//111
f 111//111 106//106 107//107
f 111//111 124//124 125//125
f 97//97 98//98 111//111
f 107//107 108//108 111//111
f 111//111 127//127 128//128
f 121//121 122//122 111//111
f 117//117 118//118 111//111
f 111//111 103//103 104//104
f 111//111 116//116 117//117
f 123//123 124//124 111//111
f 111//111 122//122 123//123
f 111//111 99//99 100//100
f 104//104 105//105 111//111
f 111//111 108//108 109//109
f 109//109 110//110 111//111
f 111//111 119//119 120//120
f 111//111 115//115 116//116
f 126//126 127//127 111//111
f 102//102 103//103 111//111
f 105//105 106//106 111//111
f 118//118 119//119 111//111
f 114//114 115//115 111//111
f 98//98 99//99 111//111
f 111//111 101//101 102//102
f 111//111 79//79 80//80
f 111//111 80//80 112//112
f 78//78 111//111 110//110
f 79//79 111//111 78//78
f 78//78 46//46 47//47
f 47//47 79//79 78//78
f 78//78 109//109 77//77
f 78//78 110//110 109//109
f 77//77 45//45 78//78
f 45//45 46//46 78//78
f 1//1 32//32 13//13
f 13//13 25//25 24//24
f 17//17 16//16 13//13
f 13//13 2//2 1//1
f 13//13 11//11 10//10
f 13//13 30//30 29//29
f 10//10 9//9 13//13
f 13//13 21//21 20//20
f 29//29 28//28 13//13
f 13//13 26//26 25//25
f 32//32 31//31 13//13
f 20//20 19//19 13//13
f 8//8 7//7 13//13
f 13//13 28//28 27//27
f 27//27 26//26 13//13
f 13//13 31//31 30//30
f 13//13 9//9 8//8
f 13//13 18//18 17//17
f 22//22 21//21 13//13
f 24//24 23//23 13//13
f 4//4 3//3 13//13
f 16//16 15//15 13//13
f 13//13 23//23 22//22
f 13//13 19//19 18//18
f 13//13 5//5 4//4
f 7//7 6//6 13//13
f 13//13 3//3 2//2
f 13//13 15//15 14//14
f 6//6 5//5 13//13
f 13//13 12//12 11//11
f 14//14 46//46 13//13
f 13//13 46//46 45//45
f 13//13 45//45 44//44
f 44//44 12//12 13//13
