# Independent procedural camera geometry; meters; Z up
o display_active_area
v 0.0130800000 0.0151600000 0.0615180000
v 0.0130800000 0.0151430910 0.0616896795
v 0.0130800000 0.0150930140 0.0618547614
v 0.0130800000 0.0150116933 0.0620069018
v 0.0130800000 0.0149022540 0.0621402540
v 0.0130800000 0.0147689018 0.0622496933
v 0.0130800000 0.0146167614 0.0623310140
v 0.0130800000 0.0144516795 0.0623810910
v 0.0130800000 -0.0142800000 0.0623980000
v 0.0130800000 -0.0144516795 0.0623810910
v 0.0130800000 -0.0146167614 0.0623310140
v 0.0130800000 -0.0147689018 0.0622496933
v 0.0130800000 -0.0149022540 0.0621402540
v 0.0130800000 -0.0150116933 0.0620069018
v 0.0130800000 -0.0150930140 0.0618547614
v 0.0130800000 -0.0151430910 0.0616896795
v 0.0130800000 -0.0151600000 0.0175860000
v 0.0130800000 -0.0151430910 0.0174143205
v 0.0130800000 -0.0150930140 0.0172492386
v 0.0130800000 -0.0150116933 0.0170970982
v 0.0130800000 -0.0149022540 0.0169637460
v 0.0130800000 -0.0147689018 0.0168543067
v 0.0130800000 -0.0146167614 0.0167729860
v 0.0130800000 -0.0144516795 0.0167229090
v 0.0130800000 0.0142800000 0.0167060000
v 0.0130800000 0.0144516795 0.0167229090
v 0.0130800000 0.0146167614 0.0167729860
v 0.0130800000 0.0147689018 0.0168543067
v 0.0130800000 0.0149022540 0.0169637460
v 0.0130800000 0.0150116933 0.0170970982
v 0.0130800000 0.0150930140 0.0172492386
v 0.0130800000 0.0151430910 0.0174143205
v 0.0131000000 0.0151800000 0.0615180000
v 0.0131000000 0.0151627068 0.0616935813
v 0.0131000000 0.0151114916 0.0618624151
v 0.0131000000 0.0150283227 0.0620180132
v 0.0131000000 0.0149163961 0.0621543961
v 0.0131000000 0.0147800132 0.0622663227
v 0.0131000000 0.0146244151 0.0623494916
v 0.0131000000 0.0144555813 0.0624007068
v 0.0131000000 -0.0142800000 0.0624180000
v 0.0131000000 -0.0144555813 0.0624007068
v 0.0131000000 -0.0146244151 0.0623494916
v 0.0131000000 -0.0147800132 0.0622663227
v 0.0131000000 -0.0149163961 0.0621543961
v 0.0131000000 -0.0150283227 0.0620180132
v 0.0131000000 -0.0151114916 0.0618624151
v 0.0131000000 -0.0151627068 0.0616935813
v 0.0131000000 -0.0151800000 0.0175860000
v 0.0131000000 -0.0151627068 0.0174104187
v 0.0131000000 -0.0151114916 0.0172415849
v 0.0131000000 -0.0150283227 0.0170859868
v 0.0131000000 -0.0149163961 0.0169496039
v 0.0131000000 -0.0147800132 0.0168376773
v 0.0131000000 -0.0146244151 0.0167545084
v 0.0131000000 -0.0144555813 0.0167032932
v 0.0131000000 0.0142800000 0.0166860000
v 0.0131000000 0.0144555813 0.0167032932
v 0.0131000000 0.0146244151 0.0167545084
v 0.0131000000 0.0147800132 0.0168376773
v 0.0131000000 0.0149163961 0.0169496039
v 0.0131000000 0.0150283227 0.0170859868
v 0.0131000000 0.0151114916 0.0172415849
v 0.0131000000 0.0151627068 0.0174104187
v 0.0131400000 0.0151800000 0.0615180000
v 0.0131400000 0.0151627068 0.0616935813
v 0.0131400000 0.0151114916 0.0618624151
v 0.0131400000 0.0150283227 0.0620180132
v 0.0131400000 0.0149163961 0.0621543961
v 0.0131400000 0.0147800132 0.0622663227
v 0.0131400000 0.0146244151 0.0623494916
v 0.0131400000 0.0144555813 0.0624007068
v 0.0131400000 -0.0142800000 0.0624180000
v 0.0131400000 -0.0144555813 0.0624007068
v 0.0131400000 -0.0146244151 0.0623494916
v 0.0131400000 -0.0147800132 0.0622663227
v 0.0131400000 -0.0149163961 0.0621543961
v 0.0131400000 -0.0150283227 0.0620180132
v 0.0131400000 -0.0151114916 0.0618624151
v 0.0131400000 -0.0151627068 0.0616935813
v 0.0131400000 -0.0151800000 0.0175860000
v 0.0131400000 -0.0151627068 0.0174104187
v 0.0131400000 -0.0151114916 0.0172415849
v 0.0131400000 -0.0150283227 0.0170859868
v 0.0131400000 -0.0149163961 0.0169496039
v 0.0131400000 -0.0147800132 0.0168376773
v 0.0131400000 -0.0146244151 0.0167545084
v 0.0131400000 -0.0144555813 0.0167032932
v 0.0131400000 0.0142800000 0.0166860000
v 0.0131400000 0.0144555813 0.0167032932
v 0.0131400000 0.0146244151 0.0167545084
v 0.0131400000 0.0147800132 0.0168376773
v 0.0131400000 0.0149163961 0.0169496039
v 0.0131400000 0.0150283227 0.0170859868
v 0.0131400000 0.0151114916 0.0172415849
v 0.0131400000 0.0151627068 0.0174104187
v 0.0131600000 0.0151600000 0.0615180000
v 0.0131600000 0.0151430910 0.0616896795
v 0.0131600000 0.0150930140 0.0618547614
v 0.0131600000 0.0150116933 0.0620069018
v 0.0131600000 0.0149022540 0.0621402540
v 0.0131600000 0.0147689018 0.0622496933
v 0.0131600000 0.0146167614 0.0623310140
v 0.0131600000 0.0144516795 0.0623810910
v 0.0131600000 -0.0142800000 0.0623980000
v 0.0131600000 -0.0144516795 0.0623810910
v 0.0131600000 -0.0146167614 0.0623310140
v 0.0131600000 -0.0147689018 0.0622496933
v 0.0131600000 -0.0149022540 0.0621402540
v 0.0131600000 -0.0150116933 0.0620069018
v 0.0131600000 -0.0150930140 0.0618547614
v 0.0131600000 -0.0151430910 0.0616896795
v 0.0131600000 -0.0151600000 0.0175860000
v 0.0131600000 -0.0151430910 0.0174143205
v 0.0131600000 -0.0150930140 0.0172492386
v 0.0131600000 -0.0150116933 0.0170970982
v 0.0131600000 -0.0149022540 0.0169637460
v 0.0131600000 -0.0147689018 0.0168543067
v 0.0131600000 -0.0146167614 0.0167729860
v 0.0131600000 -0.0144516795 0.0167229090
v 0.0131600000 0.0142800000 0.0167060000
v 0.0131600000 0.0144516795 0.0167229090
v 0.0131600000 0.0146167614 0.0167729860
v 0.0131600000 0.0147689018 0.0168543067
v 0.0131600000 0.0149022540 0.0169637460
v 0.0131600000 0.0150116933 0.0170970982
v 0.0131600000 0.0150930140 0.0172492386
v 0.0131600000 0.0151430910 0.0174143205
vn -0.91948240 0.39263954 0.01965472
vn -0.91532176 0.39498512 0.07856742
vn -0.91532176 0.37206784 0.15411555
vn -0.91532176 0.33485221 0.22374110
vn -0.91532176 0.28476840 0.28476840
vn -0.91532176 0.22374110 0.33485221
vn -0.91532176 0.15411555 0.37206784
vn -0.91085516 0.05922834 0.40845426
vn -0.91947396 -0.01961546 0.39266127
vn -0.91532176 -0.07856742 0.39498512
vn -0.91532176 -0.15411555 0.37206784
vn -0.91532176 -0.22374110 0.33485221
vn -0.91532176 -0.28476840 0.28476840
vn -0.91532176 -0.33485221 0.22374110
vn -0.91532176 -0.37206784 0.15411555
vn -0.91084517 -0.40848291 0.05918440
vn -0.91948240 -0.39263954 -0.01965472
vn -0.91532176 -0.39498512 -0.07856742
vn -0.91532176 -0.37206784 -0.15411555
vn -0.91532176 -0.33485221 -0.22374110
vn -0.91532176 -0.28476840 -0.28476840
vn -0.91532176 -0.22374110 -0.33485221
vn -0.91532176 -0.15411555 -0.37206784
vn -0.91085516 -0.05922834 -0.40845426
vn -0.91947396 0.01961546 -0.39266127
vn -0.91532176 0.07856742 -0.39498512
vn -0.91532176 0.15411555 -0.37206784
vn -0.91532176 0.22374110 -0.33485221
vn -0.91532176 0.28476840 -0.28476840
vn -0.91532176 0.33485221 -0.22374110
vn -0.91532176 0.37206784 -0.15411555
vn -0.91084517 0.40848291 -0.05918440
vn -0.37824394 0.92461906 0.04484552
vn -0.37448906 0.90941484 0.18089386
vn -0.37448906 0.85665005 0.35483607
vn -0.37448906 0.77096468 0.51514213
vn -0.37448906 0.65565156 0.65565156
vn -0.37448906 0.51514213 0.77096468
vn -0.37448906 0.35483607 0.85665005
vn -0.37038657 0.13764662 0.91862244
vn -0.37823583 -0.04474963 0.92462702
vn -0.37448906 -0.18089386 0.90941484
vn -0.37448906 -0.35483607 0.85665005
vn -0.37448906 -0.51514213 0.77096468
vn -0.37448906 -0.65565156 0.65565156
vn -0.37448906 -0.77096468 0.51514213
vn -0.37448906 -0.85665005 0.35483607
vn -0.37037744 -0.91864003 0.13755381
vn -0.37824394 -0.92461906 -0.04484552
vn -0.37448906 -0.90941484 -0.18089386
vn -0.37448906 -0.85665005 -0.35483607
vn -0.37448906 -0.77096468 -0.51514213
vn -0.37448906 -0.65565156 -0.65565156
vn -0.37448906 -0.51514213 -0.77096468
vn -0.37448906 -0.35483607 -0.85665005
vn -0.37038657 -0.13764662 -0.91862244
vn -0.37823583 0.04474963 -0.92462702
vn -0.37448906 0.18089386 -0.90941484
vn -0.37448906 0.35483607 -0.85665005
vn -0.37448906 0.51514213 -0.77096468
vn -0.37448906 0.65565156 -0.65565156
vn -0.37448906 0.77096468 -0.51514213
vn -0.37448906 0.85665005 -0.35483607
vn -0.37037744 0.91864003 -0.13755381
vn 0.37824394 0.92461906 0.04484552
vn 0.37448906 0.90941484 0.18089386
vn 0.37448906 0.85665005 0.35483607
vn 0.37448906 0.77096468 0.51514213
vn 0.37448906 0.65565156 0.65565156
vn 0.37448906 0.51514213 0.77096468
vn 0.37448906 0.35483607 0.85665005
vn 0.37038657 0.13764662 0.91862244
vn 0.37823583 -0.04474963 0.92462702
vn 0.37448906 -0.18089386 0.90941484
vn 0.37448906 -0.35483607 0.85665005
vn 0.37448906 -0.51514213 0.77096468
vn 0.37448906 -0.65565156 0.65565156
vn 0.37448906 -0.77096468 0.51514213
vn 0.37448906 -0.85665005 0.35483607
vn 0.37037744 -0.91864003 0.13755381
vn 0.37824394 -0.92461906 -0.04484552
vn 0.37448906 -0.90941484 -0.18089386
vn 0.37448906 -0.85665005 -0.35483607
vn 0.37448906 -0.77096468 -0.51514213
vn 0.37448906 -0.65565156 -0.65565156
vn 0.37448906 -0.51514213 -0.77096468
vn 0.37448906 -0.35483607 -0.85665005
vn 0.37038657 -0.13764662 -0.91862244
vn 0.37823583 0.04474963 -0.92462702
vn 0.37448906 0.18089386 -0.90941484
vn 0.37448906 0.35483607 -0.85665005
vn 0.37448906 0.51514213 -0.77096468
vn 0.37448906 0.65565156 -0.65565156
vn 0.37448906 0.77096468 -0.51514213
vn 0.37448906 0.85665005 -0.35483607
vn 0.37037744 0.91864003 -0.13755381
vn 0.91948240 0.39263954 0.01965472
vn 0.91532176 0.39498512 0.07856742
vn 0.91532176 0.37206784 0.15411555
vn 0.91532176 0.33485221 0.22374110
vn 0.91532176 0.28476840 0.28476840
vn 0.91532176 0.22374110 0.33485221
vn 0.91532176 0.15411555 0.37206784
vn 0.91085516 0.05922834 0.40845426
vn 0.91947396 -0.01961546 0.39266127
vn 0.91532176 -0.07856742 0.39498512
vn 0.91532176 -0.15411555 0.37206784
vn 0.91532176 -0.22374110 0.33485221
vn 0.91532176 -0.28476840 0.28476840
vn 0.91532176 -0.33485221 0.22374110
vn 0.91532176 -0.37206784 0.15411555
vn 0.91084517 -0.40848291 0.05918440
vn 0.91948240 -0.39263954 -0.01965472
vn 0.91532176 -0.39498512 -0.07856742
vn 0.91532176 -0.37206784 -0.15411555
vn 0.91532176 -0.33485221 -0.22374110
vn 0.91532176 -0.28476840 -0.28476840
vn 0.91532176 -0.22374110 -0.33485221
vn 0.91532176 -0.15411555 -0.37206784
vn 0.91085516 -0.05922834 -0.40845426
vn 0.91947396 0.01961546 -0.39266127
vn 0.91532176 0.07856742 -0.39498512
vn 0.91532176 0.15411555 -0.37206784
vn 0.91532176 0.22374110 -0.33485221
vn 0.91532176 0.28476840 -0.28476840
vn 0.91532176 0.33485221 -0.22374110
vn 0.91532176 0.37206784 -0.15411555
vn 0.91084517 0.40848291 -0.05918440
f 49//49 16//16 17//17
f 57//57 24//24 25//25
f 1//1 33//33 32//32
f 32//32 33//33 64//64
f 48//48 16//16 49//49
f 128//128 65//65 97//97
f 56//56 24//24 57//57
f 89//89 121//121 120//120
f 120//120 88//88 89//89
f 81//81 113//113 112//112
f 65//65 128//128 96//96
f 80//80 81//81 112//112
f 105//105 104//104 73//73
f 104//104 72//72 73//73
f 40//40 8//8 41//41
f 41//41 8//8 9//9
f 88//88 56//56 89//89
f 89//89 56//56 57//57
f 33//33 65//65 96//96
f 64//64 33//33 96//96
f 55//55 56//56 88//88
f 88//88 87//87 55//55
f 49//49 81//81 80//80
f 80//80 48//48 49//49
f 111//111 80//80 112//112
f 79//79 80//80 111//111
f 13//13 14//14 46//46
f 46//46 45//45 13//13
f 63//63 31//31 32//32
f 63//63 32//32 64//64
f 57//57 25//25 26//26
f 26//26 58//58 57//57
f 26//26 27//27 59//59
f 59//59 58//58 26//26
f 119//119 87//87 88//88
f 119//119 88//88 120//120
f 56//56 55//55 23//23
f 24//24 56//56 23//23
f 7//7 8//8 39//39
f 39//39 8//8 40//40
f 49//49 17//17 18//18
f 18//18 50//50 49//49
f 51//51 50//50 18//18
f 18//18 19//19 51//51
f 20//20 21//21 53//53
f 53//53 52//52 20//20
f 51//51 19//19 20//20
f 20//20 52//52 51//51
f 48//48 80//80 47//47
f 47//47 80//80 79//79
f 47//47 15//15 16//16
f 16//16 48//48 47//47
f 47//47 78//78 46//46
f 79//79 78//78 47//47
f 14//14 15//15 47//47
f 46//46 14//14 47//47
f 77//77 45//45 46//46
f 46//46 78//78 77//77
f 110//110 77//77 78//78
f 109//109 77//77 110//110
f 79//79 111//111 110//110
f 110//110 78//78 79//79
f 108//108 77//77 109//109
f 76//76 77//77 108//108
f 108//108 107//107 75//75
f 75//75 76//76 108//108
f 44//44 11//11 12//12
f 43//43 11//11 44//44
f 44//44 76//76 75//75
f 75//75 43//43 44//44
f 12//12 13//13 44//44
f 44//44 13//13 45//45
f 45//45 77//77 44//44
f 44//44 77//77 76//76
f 27//27 28//28 60//60
f 59//59 27//27 60//60
f 86//86 85//85 54//54
f 54//54 85//85 53//53
f 54//54 55//55 87//87
f 87//87 86//86 54//54
f 118//118 85//85 86//86
f 117//117 85//85 118//118
f 87//87 119//119 118//118
f 118//118 86//86 87//87
f 82//82 81//81 49//49
f 49//49 50//50 82//82
f 84//84 52//52 53//53
f 53//53 85//85 84//84
f 2//2 34//34 33//33
f 2//2 33//33 1//1
f 66//66 65//65 33//33
f 33//33 34//34 66//66
f 31//31 63//63 30//30
f 63//63 62//62 30//30
f 29//29 30//30 61//61
f 61//61 30//30 62//62
f 61//61 28//28 29//29
f 61//61 60//60 28//28
f 90//90 89//89 57//57
f 57//57 58//58 90//90
f 90//90 58//58 59//59
f 59//59 91//91 90//90
f 53//53 21//21 22//22
f 22//22 54//54 53//53
f 22//22 23//23 55//55
f 55//55 54//54 22//22
f 81//81 82//82 114//114
f 113//113 81//81 114//114
f 51//51 52//52 83//83
f 52//52 84//84 83//83
f 83//83 50//50 51//51
f 83//83 82//82 50//50
f 115//115 114//114 83//83
f 83//83 114//114 82//82
f 116//116 85//85 117//117
f 116//116 84//84 85//85
f 116//116 83//83 84//84
f 115//115 83//83 116//116
f 37//37 36//36 5//5
f 5//5 36//36 4//4
f 4//4 36//36 3//3
f 3//3 36//36 35//35
f 34//34 2//2 3//3
f 35//35 34//34 3//3
f 35//35 36//36 67//67
f 67//67 36//36 68//68
f 67//67 66//66 34//34
f 67//67 34//34 35//35
f 10//10 11//11 43//43
f 43//43 42//42 10//10
f 64//64 96//96 95//95
f 95//95 63//63 64//64
f 89//89 90//90 122//122
f 121//121 89//89 122//122
f 122//122 90//90 91//91
f 91//91 123//123 122//122
f 71//71 39//39 40//40
f 40//40 72//72 71//71
f 69//69 36//36 37//37
f 68//68 36//36 69//69
f 6//6 25//25 24//24
f 1//1 32//32 6//6
f 12//12 11//11 6//6
f 6//6 17//17 16//16
f 6//6 26//26 25//25
f 6//6 2//2 1//1
f 6//6 13//13 12//12
f 9//9 8//8 6//6
f 16//16 15//15 6//6
f 21//21 20//20 6//6
f 32//32 31//31 6//6
f 29//29 28//28 6//6
f 24//24 23//23 6//6
f 6//6 18//18 17//17
f 6//6 15//15 14//14
f 14//14 13//13 6//6
f 6//6 28//28 27//27
f 27//27 26//26 6//6
f 6//6 30//30 29//29
f 6//6 8//8 7//7
f 6//6 22//22 21//21
f 19//19 18//18 6//6
f 6//6 20//20 19//19
f 4//4 3//3 6//6
f 6//6 10//10 9//9
f 31//31 30//30 6//6
f 23//23 22//22 6//6
f 6//6 5//5 4//4
f 6//6 3//3 2//2
f 11//11 10//10 6//6
f 7//7 39//39 6//6
f 39//39 38//38 6//6
f 37//37 5//5 6//6
f 6//6 38//38 37//37
f 99//99 67//67 68//68
f 99//99 68//68 100//100
f 74//74 106//106 105//105
f 105//105 73//73 74//74
f 107//107 106//106 74//74
f 75//75 107//107 74//74
f 74//74 43//43 75//75
f 74//74 42//42 43//43
f 41//41 72//72 40//40
f 41//41 73//73 72//72
f 9//9 10//10 41//41
f 41//41 10//10 42//42
f 41//41 74//74 73//73
f 42//42 74//74 41//41
f 127//127 95//95 96//96
f 127//127 96//96 128//128
f 92//92 125//125 124//124
f 93//93 125//125 92//92
f 60//60 61//61 92//92
f 61//61 93//93 92//92
f 124//124 123//123 92//92
f 92//92 123//123 91//91
f 59//59 60//60 92//92
f 92//92 91//91 59//59
f 94//94 61//61 62//62
f 94//94 93//93 61//61
f 126//126 125//125 94//94
f 94//94 125//125 93//93
f 94//94 62//62 63//63
f 63//63 95//95 94//94
f 94//94 127//127 126//126
f 95//95 127//127 94//94
f 103//103 71//71 72//72
f 103//103 72//72 104//104
f 39//39 71//71 70//70
f 70//70 38//38 39//39
f 70//70 103//103 102//102
f 71//71 103//103 70//70
f 70//70 69//69 37//37
f 37//37 38//38 70//70
f 68//68 69//69 101//101
f 100//100 68//68 101//101
f 101//101 70//70 102//102
f 69//69 70//70 101//101
f 98//98 111//111 112//112
f 109//109 110//110 98//98
f 98//98 108//108 109//109
f 120//120 121//121 98//98
f 98//98 104//104 105//105
f 112//112 113//113 98//98
f 121//121 122//122 98//98
f 98//98 128//128 97//97
f 117//117 118//118 98//98
f 98//98 119//119 120//120
f 98//98 116//116 117//117
f 100//100 101//101 98//98
f 105//105 106//106 98//98
f 124//124 125//125 98//98
f 113//113 114//114 98//98
f 98//98 110//110 111//111
f 98//98 106//106 107//107
f 107//107 108//108 98//98
f 98//98 123//123 124//124
f 98//98 118//118 119//119
f 98//98 127//127 128//128
f 98//98 114//114 115//115
f 115//115 116//116 98//98
f 98//98 103//103 104//104
f 98//98 122//122 123//123
f 98//98 99//99 100//100
f 126//126 127//127 98//98
f 98//98 125//125 126//126
f 102//102 103//103 98//98
f 98//98 101//101 102//102
f 65//65 66//66 98//98
f 97//97 65//65 98//98
f 66//66 67//67 98//98
f 67//67 99//99 98//98
