# Independent procedural camera geometry; meters; Z up
o core_speaker_hole_0
v 0.0137780000 -0.0102373000 0.0202000000
v 0.0137780000 -0.0099173000 0.0202000000
v 0.0137780000 -0.0099282037 0.0202828221
v 0.0137780000 -0.0099601719 0.0203600000
v 0.0137780000 -0.0100110258 0.0204262742
v 0.0137780000 -0.0100773000 0.0204771281
v 0.0137780000 -0.0101544779 0.0205090963
v 0.0137780000 -0.0102373000 0.0205200000
v 0.0137780000 -0.0103201221 0.0205090963
v 0.0137780000 -0.0103973000 0.0204771281
v 0.0137780000 -0.0104635742 0.0204262742
v 0.0137780000 -0.0105144281 0.0203600000
v 0.0137780000 -0.0105463963 0.0202828221
v 0.0137780000 -0.0105573000 0.0202000000
v 0.0137780000 -0.0105463963 0.0201171779
v 0.0137780000 -0.0105144281 0.0200400000
v 0.0137780000 -0.0104635742 0.0199737258
v 0.0137780000 -0.0103973000 0.0199228719
v 0.0137780000 -0.0103201221 0.0198909037
v 0.0137780000 -0.0102373000 0.0198800000
v 0.0137780000 -0.0101544779 0.0198909037
v 0.0137780000 -0.0100773000 0.0199228719
v 0.0137780000 -0.0100110258 0.0199737258
v 0.0137780000 -0.0099601719 0.0200400000
v 0.0137780000 -0.0099282037 0.0201171779
v 0.0137780000 -0.0099173000 0.0202000000
v 0.0137780000 -0.0099282037 0.0202828221
v 0.0137780000 -0.0099601719 0.0203600000
v 0.0137780000 -0.0100110258 0.0204262742
v 0.0137780000 -0.0100773000 0.0204771281
v 0.0137780000 -0.0101544779 0.0205090963
v 0.0137780000 -0.0102373000 0.0205200000
v 0.0137780000 -0.0103201221 0.0205090963
v 0.0137780000 -0.0103973000 0.0204771281
v 0.0137780000 -0.0104635742 0.0204262742
v 0.0137780000 -0.0105144281 0.0203600000
v 0.0137780000 -0.0105463963 0.0202828221
v 0.0137780000 -0.0105573000 0.0202000000
v 0.0137780000 -0.0105463963 0.0201171779
v 0.0137780000 -0.0105144281 0.0200400000
v 0.0137780000 -0.0104635742 0.0199737258
v 0.0137780000 -0.0103973000 0.0199228719
v 0.0137780000 -0.0103201221 0.0198909037
v 0.0137780000 -0.0102373000 0.0198800000
v 0.0137780000 -0.0101544779 0.0198909037
v 0.0137780000 -0.0100773000 0.0199228719
v 0.0137780000 -0.0100110258 0.0199737258
v 0.0137780000 -0.0099601719 0.0200400000
v 0.0137780000 -0.0099282037 0.0201171779
v 0.0137940000 -0.0099173000 0.0202000000
v 0.0137940000 -0.0099282037 0.0202828221
v 0.0137940000 -0.0099601719 0.0203600000
v 0.0137940000 -0.0100110258 0.0204262742
v 0.0137940000 -0.0100773000 0.0204771281
v 0.0137940000 -0.0101544779 0.0205090963
v 0.0137940000 -0.0102373000 0.0205200000
v 0.0137940000 -0.0103201221 0.0205090963
v 0.0137940000 -0.0103973000 0.0204771281
v 0.0137940000 -0.0104635742 0.0204262742
v 0.0137940000 -0.0105144281 0.0203600000
v 0.0137940000 -0.0105463963 0.0202828221
v 0.0137940000 -0.0105573000 0.0202000000
v 0.0137940000 -0.0105463963 0.0201171779
v 0.0137940000 -0.0105144281 0.0200400000
v 0.0137940000 -0.0104635742 0.0199737258
v 0.0137940000 -0.0103973000 0.0199228719
v 0.0137940000 -0.0103201221 0.0198909037
v 0.0137940000 -0.0102373000 0.0198800000
v 0.0137940000 -0.0101544779 0.0198909037
v 0.0137940000 -0.0100773000 0.0199228719
v 0.0137940000 -0.0100110258 0.0199737258
v 0.0137940000 -0.0099601719 0.0200400000
v 0.0137940000 -0.0099282037 0.0201171779
v 0.0137940000 -0.0099173000 0.0202000000
v 0.0137940000 -0.0099282037 0.0202828221
v 0.0137940000 -0.0099601719 0.0203600000
v 0.0137940000 -0.0100110258 0.0204262742
v 0.0137940000 -0.0100773000 0.0204771281
v 0.0137940000 -0.0101544779 0.0205090963
v 0.0137940000 -0.0102373000 0.0205200000
v 0.0137940000 -0.0103201221 0.0205090963
v 0.0137940000 -0.0103973000 0.0204771281
v 0.0137940000 -0.0104635742 0.0204262742
v 0.0137940000 -0.0105144281 0.0203600000
v 0.0137940000 -0.0105463963 0.0202828221
v 0.0137940000 -0.0105573000 0.0202000000
v 0.0137940000 -0.0105463963 0.0201171779
v 0.0137940000 -0.0105144281 0.0200400000
v 0.0137940000 -0.0104635742 0.0199737258
v 0.0137940000 -0.0103973000 0.0199228719
v 0.0137940000 -0.0103201221 0.0198909037
v 0.0137940000 -0.0102373000 0.0198800000
v 0.0137940000 -0.0101544779 0.0198909037
v 0.0137940000 -0.0100773000 0.0199228719
v 0.0137940000 -0.0100110258 0.0199737258
v 0.0137940000 -0.0099601719 0.0200400000
v 0.0137940000 -0.0099282037 0.0201171779
v 0.0137940000 -0.0102373000 0.0202000000
vn -1.00000000 0.00000000 0.00000000
vn -1.00000000 0.00000000 0.00000000
vn -1.00000000 0.00000000 0.00000000
vn -1.00000000 0.00000000 0.00000000
vn -1.00000000 0.00000000 0.00000000
vn -1.00000000 0.00000000 0.00000000
vn -1.00000000 0.00000000 0.00000000
vn -1.00000000 0.00000000 0.00000000
vn -1.00000000 0.00000000 0.00000000
vn -1.00000000 0.00000000 0.00000000
vn -1.00000000 0.00000000 0.00000000
vn -1.00000000 0.00000000 0.00000000
vn -1.00000000 0.00000000 0.00000000
vn -1.00000000 0.00000000 0.00000000
vn -1.00000000 0.00000000 0.00000000
vn -1.00000000 0.00000000 0.00000000
vn -1.00000000 0.00000000 0.00000000
vn -1.00000000 0.00000000 0.00000000
vn -1.00000000 0.00000000 0.00000000
vn -1.00000000 0.00000000 0.00000000
vn -1.00000000 0.00000000 0.00000000
vn -1.00000000 0.00000000 0.00000000
vn -1.00000000 0.00000000 0.00000000
vn -1.00000000 0.00000000 0.00000000
vn -1.00000000 0.00000000 0.00000000
vn 0.00000000 1.00000000 -0.00000000
vn 0.00000000 0.96592583 0.25881905
vn 0.00000000 0.86602540 0.50000000
vn 0.00000000 0.70710678 0.70710678
vn 0.00000000 0.50000000 0.86602540
vn 0.00000000 0.25881905 0.96592583
vn 0.00000000 0.00000000 1.00000000
vn 0.00000000 -0.25881905 0.96592583
vn 0.00000000 -0.50000000 0.86602540
vn 0.00000000 -0.70710678 0.70710678
vn 0.00000000 -0.86602540 0.50000000
vn 0.00000000 -0.96592583 0.25881905
vn 0.00000000 -1.00000000 0.00000000
vn 0.00000000 -0.96592583 -0.25881905
vn 0.00000000 -0.86602540 -0.50000000
vn 0.00000000 -0.70710678 -0.70710678
vn 0.00000000 -0.50000000 -0.86602540
vn 0.00000000 -0.25881905 -0.96592583
vn 0.00000000 -0.00000000 -1.00000000
vn 0.00000000 0.25881905 -0.96592583
vn 0.00000000 0.50000000 -0.86602540
vn 0.00000000 0.70710678 -0.70710678
vn 0.00000000 0.86602540 -0.50000000
vn 0.00000000 0.96592583 -0.25881905
vn 0.00000000 1.00000000 -0.00000000
vn 0.00000000 0.96592583 0.25881905
vn 0.00000000 0.86602540 0.50000000
vn 0.00000000 0.70710678 0.70710678
vn 0.00000000 0.50000000 0.86602540
vn 0.00000000 0.25881905 0.96592583
vn 0.00000000 0.00000000 1.00000000
vn 0.00000000 -0.25881905 0.96592583
vn 0.00000000 -0.50000000 0.86602540
vn 0.00000000 -0.70710678 0.70710678
vn 0.00000000 -0.86602540 0.50000000
vn 0.00000000 -0.96592583 0.25881905
vn 0.00000000 -1.00000000 0.00000000
vn 0.00000000 -0.96592583 -0.25881905
vn 0.00000000 -0.86602540 -0.50000000
vn 0.00000000 -0.70710678 -0.70710678
vn 0.00000000 -0.50000000 -0.86602540
vn 0.00000000 -0.25881905 -0.96592583
vn 0.00000000 -0.00000000 -1.00000000
vn 0.00000000 0.25881905 -0.96592583
vn 0.00000000 0.50000000 -0.86602540
vn 0.00000000 0.70710678 -0.70710678
vn 0.00000000 0.86602540 -0.50000000
vn 0.00000000 0.96592583 -0.25881905
vn 1.00000000 0.00000000 0.00000000
vn 1.00000000 0.00000000 0.00000000
vn 1.00000000 0.00000000 0.00000000
vn 1.00000000 0.00000000 0.00000000
vn 1.00000000 0.00000000 0.00000000
vn 1.00000000 0.00000000 0.00000000
vn 1.00000000 0.00000000 0.00000000
vn 1.00000000 0.00000000 0.00000000
vn 1.00000000 0.00000000 0.00000000
vn 1.00000000 0.00000000 0.00000000
vn 1.00000000 0.00000000 0.00000000
vn 1.00000000 0.00000000 0.00000000
vn 1.00000000 0.00000000 0.00000000
vn 1.00000000 0.00000000 0.00000000
vn 1.00000000 0.00000000 0.00000000
vn 1.00000000 0.00000000 0.00000000
vn 1.00000000 0.00000000 0.00000000
vn 1.00000000 0.00000000 0.00000000
vn 1.00000000 0.00000000 0.00000000
vn 1.00000000 0.00000000 0.00000000
vn 1.00000000 0.00000000 0.00000000
vn 1.00000000 0.00000000 0.00000000
vn 1.00000000 0.00000000 0.00000000
vn 1.00000000 0.00000000 0.00000000
vn 1.00000000 0.00000000 0.00000000
f 3//3 2//2 1//1
f 25//25 24//24 1//1
f 24//24 23//23 1//1
f 23//23 22//22 1//1
f 22//22 21//21 1//1
f 21//21 20//20 1//1
f 20//20 19//19 1//1
f 19//19 18//18 1//1
f 18//18 17//17 1//1
f 17//17 16//16 1//1
f 16//16 15//15 1//1
f 15//15 14//14 1//1
f 2//2 25//25 1//1
f 13//13 12//12 1//1
f 12//12 11//11 1//1
f 11//11 10//10 1//1
f 10//10 9//9 1//1
f 9//9 8//8 1//1
f 8//8 7//7 1//1
f 7//7 6//6 1//1
f 6//6 5//5 1//1
f 5//5 4//4 1//1
f 4//4 3//3 1//1
f 14//14 13//13 1//1
f 68//68 67//67 43//43
f 43//43 67//67 42//42
f 67//67 66//66 42//42
f 42//42 66//66 41//41
f 64//64 63//63 39//39
f 41//41 65//65 40//40
f 65//65 64//64 40//40
f 40//40 64//64 39//39
f 44//44 68//68 43//43
f 66//66 65//65 41//41
f 69//69 68//68 44//44
f 47//47 71//71 46//46
f 70//70 69//69 45//45
f 46//46 70//70 45//45
f 71//71 70//70 46//46
f 72//72 71//71 47//47
f 48//48 72//72 47//47
f 73//73 72//72 48//48
f 49//49 73//73 48//48
f 50//50 73//73 49//49
f 26//26 50//50 49//49
f 39//39 63//63 38//38
f 45//45 69//69 44//44
f 63//63 62//62 38//38
f 38//38 62//62 37//37
f 62//62 61//61 37//37
f 51//51 50//50 26//26
f 27//27 51//51 26//26
f 52//52 51//51 27//27
f 28//28 52//52 27//27
f 53//53 52//52 28//28
f 29//29 53//53 28//28
f 30//30 54//54 29//29
f 55//55 54//54 30//30
f 31//31 55//55 30//30
f 56//56 55//55 31//31
f 54//54 53//53 29//29
f 57//57 56//56 32//32
f 32//32 56//56 31//31
f 61//61 60//60 36//36
f 36//36 60//60 35//35
f 60//60 59//59 35//35
f 35//35 59//59 34//34
f 37//37 61//61 36//36
f 34//34 58//58 33//33
f 58//58 57//57 33//33
f 33//33 57//57 32//32
f 59//59 58//58 34//34
f 87//87 98//98 86//86
f 96//96 98//98 95//95
f 95//95 98//98 94//94
f 94//94 98//98 93//93
f 93//93 98//98 92//92
f 92//92 98//98 91//91
f 91//91 98//98 90//90
f 90//90 98//98 89//89
f 89//89 98//98 88//88
f 88//88 98//98 87//87
f 86//86 98//98 85//85
f 75//75 98//98 74//74
f 84//84 98//98 83//83
f 83//83 98//98 82//82
f 82//82 98//98 81//81
f 81//81 98//98 80//80
f 80//80 98//98 79//79
f 79//79 98//98 78//78
f 78//78 98//98 77//77
f 77//77 98//98 76//76
f 76//76 98//98 75//75
f 97//97 98//98 96//96
f 85//85 98//98 84//84
f 74//74 98//98 97//97
o core_speaker_hole_1
v 0.0137780000 -0.0116373000 0.0202000000
v 0.0137780000 -0.0113173000 0.0202000000
v 0.0137780000 -0.0113282037 0.0202828221
v 0.0137780000 -0.0113601719 0.0203600000
v 0.0137780000 -0.0114110258 0.0204262742
v 0.0137780000 -0.0114773000 0.0204771281
v 0.0137780000 -0.0115544779 0.0205090963
v 0.0137780000 -0.0116373000 0.0205200000
v 0.0137780000 -0.0117201221 0.0205090963
v 0.0137780000 -0.0117973000 0.0204771281
v 0.0137780000 -0.0118635742 0.0204262742
v 0.0137780000 -0.0119144281 0.0203600000
v 0.0137780000 -0.0119463963 0.0202828221
v 0.0137780000 -0.0119573000 0.0202000000
v 0.0137780000 -0.0119463963 0.0201171779
v 0.0137780000 -0.0119144281 0.0200400000
v 0.0137780000 -0.0118635742 0.0199737258
v 0.0137780000 -0.0117973000 0.0199228719
v 0.0137780000 -0.0117201221 0.0198909037
v 0.0137780000 -0.0116373000 0.0198800000
v 0.0137780000 -0.0115544779 0.0198909037
v 0.0137780000 -0.0114773000 0.0199228719
v 0.0137780000 -0.0114110258 0.0199737258
v 0.0137780000 -0.0113601719 0.0200400000
v 0.0137780000 -0.0113282037 0.0201171779
v 0.0137780000 -0.0113173000 0.0202000000
v 0.0137780000 -0.0113282037 0.0202828221
v 0.0137780000 -0.0113601719 0.0203600000
v 0.0137780000 -0.0114110258 0.0204262742
v 0.0137780000 -0.0114773000 0.0204771281
v 0.0137780000 -0.0115544779 0.0205090963
v 0.0137780000 -0.0116373000 0.0205200000
v 0.0137780000 -0.0117201221 0.0205090963
v 0.0137780000 -0.0117973000 0.0204771281
v 0.0137780000 -0.0118635742 0.0204262742
v 0.0137780000 -0.0119144281 0.0203600000
v 0.0137780000 -0.0119463963 0.0202828221
v 0.0137780000 -0.0119573000 0.0202000000
v 0.0137780000 -0.0119463963 0.0201171779
v 0.0137780000 -0.0119144281 0.0200400000
v 0.0137780000 -0.0118635742 0.0199737258
v 0.0137780000 -0.0117973000 0.0199228719
v 0.0137780000 -0.0117201221 0.0198909037
v 0.0137780000 -0.0116373000 0.0198800000
v 0.0137780000 -0.0115544779 0.0198909037
v 0.0137780000 -0.0114773000 0.0199228719
v 0.0137780000 -0.0114110258 0.0199737258
v 0.0137780000 -0.0113601719 0.0200400000
v 0.0137780000 -0.0113282037 0.0201171779
v 0.0137940000 -0.0113173000 0.0202000000
v 0.0137940000 -0.0113282037 0.0202828221
v 0.0137940000 -0.0113601719 0.0203600000
v 0.0137940000 -0.0114110258 0.0204262742
v 0.0137940000 -0.0114773000 0.0204771281
v 0.0137940000 -0.0115544779 0.0205090963
v 0.0137940000 -0.0116373000 0.0205200000
v 0.0137940000 -0.0117201221 0.0205090963
v 0.0137940000 -0.0117973000 0.0204771281
v 0.0137940000 -0.0118635742 0.0204262742
v 0.0137940000 -0.0119144281 0.0203600000
v 0.0137940000 -0.0119463963 0.0202828221
v 0.0137940000 -0.0119573000 0.0202000000
v 0.0137940000 -0.0119463963 0.0201171779
v 0.0137940000 -0.0119144281 0.0200400000
v 0.0137940000 -0.0118635742 0.0199737258
v 0.0137940000 -0.0117973000 0.0199228719
v 0.0137940000 -0.0117201221 0.0198909037
v 0.0137940000 -0.0116373000 0.0198800000
v 0.0137940000 -0.0115544779 0.0198909037
v 0.0137940000 -0.0114773000 0.0199228719
v 0.0137940000 -0.0114110258 0.0199737258
v 0.0137940000 -0.0113601719 0.0200400000
v 0.0137940000 -0.0113282037 0.0201171779
v 0.0137940000 -0.0113173000 0.0202000000
v 0.0137940000 -0.0113282037 0.0202828221
v 0.0137940000 -0.0113601719 0.0203600000
v 0.0137940000 -0.0114110258 0.0204262742
v 0.0137940000 -0.0114773000 0.0204771281
v 0.0137940000 -0.0115544779 0.0205090963
v 0.0137940000 -0.0116373000 0.0205200000
v 0.0137940000 -0.0117201221 0.0205090963
v 0.0137940000 -0.0117973000 0.0204771281
v 0.0137940000 -0.0118635742 0.0204262742
v 0.0137940000 -0.0119144281 0.0203600000
v 0.0137940000 -0.0119463963 0.0202828221
v 0.0137940000 -0.0119573000 0.0202000000
v 0.0137940000 -0.0119463963 0.0201171779
v 0.0137940000 -0.0119144281 0.0200400000
v 0.0137940000 -0.0118635742 0.0199737258
v 0.0137940000 -0.0117973000 0.0199228719
v 0.0137940000 -0.0117201221 0.0198909037
v 0.0137940000 -0.0116373000 0.0198800000
v 0.0137940000 -0.0115544779 0.0198909037
v 0.0137940000 -0.0114773000 0.0199228719
v 0.0137940000 -0.0114110258 0.0199737258
v 0.0137940000 -0.0113601719 0.0200400000
v 0.0137940000 -0.0113282037 0.0201171779
v 0.0137940000 -0.0116373000 0.0202000000
vn -1.00000000 0.00000000 0.00000000
vn -1.00000000 0.00000000 0.00000000
vn -1.00000000 0.00000000 0.00000000
vn -1.00000000 0.00000000 0.00000000
vn -1.00000000 0.00000000 0.00000000
vn -1.00000000 0.00000000 0.00000000
vn -1.00000000 0.00000000 0.00000000
vn -1.00000000 0.00000000 0.00000000
vn -1.00000000 0.00000000 0.00000000
vn -1.00000000 0.00000000 0.00000000
vn -1.00000000 0.00000000 0.00000000
vn -1.00000000 0.00000000 0.00000000
vn -1.00000000 0.00000000 0.00000000
vn -1.00000000 0.00000000 0.00000000
vn -1.00000000 0.00000000 0.00000000
vn -1.00000000 0.00000000 0.00000000
vn -1.00000000 0.00000000 0.00000000
vn -1.00000000 0.00000000 0.00000000
vn -1.00000000 0.00000000 0.00000000
vn -1.00000000 0.00000000 0.00000000
vn -1.00000000 0.00000000 0.00000000
vn -1.00000000 0.00000000 0.00000000
vn -1.00000000 0.00000000 0.00000000
vn -1.00000000 0.00000000 0.00000000
vn -1.00000000 0.00000000 0.00000000
vn 0.00000000 1.00000000 -0.00000000
vn 0.00000000 0.96592583 0.25881905
vn 0.00000000 0.86602540 0.50000000
vn 0.00000000 0.70710678 0.70710678
vn 0.00000000 0.50000000 0.86602540
vn 0.00000000 0.25881905 0.96592583
vn 0.00000000 0.00000000 1.00000000
vn 0.00000000 -0.25881905 0.96592583
vn 0.00000000 -0.50000000 0.86602540
vn 0.00000000 -0.70710678 0.70710678
vn 0.00000000 -0.86602540 0.50000000
vn 0.00000000 -0.96592583 0.25881905
vn 0.00000000 -1.00000000 0.00000000
vn 0.00000000 -0.96592583 -0.25881905
vn 0.00000000 -0.86602540 -0.50000000
vn 0.00000000 -0.70710678 -0.70710678
vn 0.00000000 -0.50000000 -0.86602540
vn 0.00000000 -0.25881905 -0.96592583
vn 0.00000000 -0.00000000 -1.00000000
vn 0.00000000 0.25881905 -0.96592583
vn 0.00000000 0.50000000 -0.86602540
vn 0.00000000 0.70710678 -0.70710678
vn 0.00000000 0.86602540 -0.50000000
vn 0.00000000 0.96592583 -0.25881905
vn 0.00000000 1.00000000 -0.00000000
vn 0.00000000 0.96592583 0.25881905
vn 0.00000000 0.86602540 0.50000000
vn 0.00000000 0.70710678 0.70710678
vn 0.00000000 0.50000000 0.86602540
vn 0.00000000 0.25881905 0.96592583
vn 0.00000000 0.00000000 1.00000000
vn 0.00000000 -0.25881905 0.96592583
vn 0.00000000 -0.50000000 0.86602540
vn 0.00000000 -0.70710678 0.70710678
vn 0.00000000 -0.86602540 0.50000000
vn 0.00000000 -0.96592583 0.25881905
vn 0.00000000 -1.00000000 0.00000000
vn 0.00000000 -0.96592583 -0.25881905
vn 0.00000000 -0.86602540 -0.50000000
vn 0.00000000 -0.70710678 -0.70710678
vn 0.00000000 -0.50000000 -0.86602540
vn 0.00000000 -0.25881905 -0.96592583
vn 0.00000000 -0.00000000 -1.00000000
vn 0.00000000 0.25881905 -0.96592583
vn 0.00000000 0.50000000 -0.86602540
vn 0.00000000 0.70710678 -0.70710678
vn 0.00000000 0.86602540 -0.50000000
vn 0.00000000 0.96592583 -0.25881905
vn 1.00000000 0.00000000 0.00000000
vn 1.00000000 0.00000000 0.00000000
vn 1.00000000 0.00000000 0.00000000
vn 1.00000000 0.00000000 0.00000000
vn 1.00000000 0.00000000 0.00000000
vn 1.00000000 0.00000000 0.00000000
vn 1.00000000 0.00000000 0.00000000
vn 1.00000000 0.00000000 0.00000000
vn 1.00000000 0.00000000 0.00000000
vn 1.00000000 0.00000000 0.00000000
vn 1.00000000 0.00000000 0.00000000
vn 1.00000000 0.00000000 0.00000000
vn 1.00000000 0.00000000 0.00000000
vn 1.00000000 0.00000000 0.00000000
vn 1.00000000 0.00000000 0.00000000
vn 1.00000000 0.00000000 0.00000000
vn 1.00000000 0.00000000 0.00000000
vn 1.00000000 0.00000000 0.00000000
vn 1.00000000 0.00000000 0.00000000
vn 1.00000000 0.00000000 0.00000000
vn 1.00000000 0.00000000 0.00000000
vn 1.00000000 0.00000000 0.00000000
vn 1.00000000 0.00000000 0.00000000
vn 1.00000000 0.00000000 0.00000000
vn 1.00000000 0.00000000 0.00000000
f 101//101 100//100 99//99
f 123//123 122//122 99//99
f 122//122 121//121 99//99
f 121//121 120//120 99//99
f 120//120 119//119 99//99
f 119//119 118//118 99//99
f 118//118 117//117 99//99
f 117//117 116//116 99//99
f 116//116 115//115 99//99
f 115//115 114//114 99//99
f 114//114 113//113 99//99
f 113//113 112//112 99//99
f 100//100 123//123 99//99
f 111//111 110//110 99//99
f 110//110 109//109 99//99
f 109//109 108//108 99//99
f 108//108 107//107 99//99
f 107//107 106//106 99//99
f 106//106 105//105 99//99
f 105//105 104//104 99//99
f 104//104 103//103 99//99
f 103//103 102//102 99//99
f 102//102 101//101 99//99
f 112//112 111//111 99//99
f 166//166 165//165 141//141
f 141//141 165//165 140//140
f 165//165 164//164 140//140
f 140//140 164//164 139//139
f 162//162 161//161 137//137
f 139//139 163//163 138//138
f 163//163 162//162 138//138
f 138//138 162//162 137//137
f 142//142 166//166 141//141
f 164//164 163//163 139//139
f 167//167 166//166 142//142
f 145//145 169//169 144//144
f 168//168 167//167 143//143
f 144//144 168//168 143//143
f 169//169 168//168 144//144
f 170//170 169//169 145//145
f 146//146 170//170 145//145
f 171//171 170//170 146//146
f 147//147 171//171 146//146
f 148//148 171//171 147//147
f 124//124 148//148 147//147
f 137//137 161//161 136//136
f 143//143 167//167 142//142
f 161//161 160//160 136//136
f 136//136 160//160 135//135
f 160//160 159//159 135//135
f 149//149 148//148 124//124
f 125//125 149//149 124//124
f 150//150 149//149 125//125
f 126//126 150//150 125//125
f 151//151 150//150 126//126
f 127//127 151//151 126//126
f 128//128 152//152 127//127
f 153//153 152//152 128//128
f 129//129 153//153 128//128
f 154//154 153//153 129//129
f 152//152 151//151 127//127
f 155//155 154//154 130//130
f 130//130 154//154 129//129
f 159//159 158//158 134//134
f 134//134 158//158 133//133
f 158//158 157//157 133//133
f 133//133 157//157 132//132
f 135//135 159//159 134//134
f 132//132 156//156 131//131
f 156//156 155//155 131//131
f 131//131 155//155 130//130
f 157//157 156//156 132//132
f 185//185 196//196 184//184
f 194//194 196//196 193//193
f 193//193 196//196 192//192
f 192//192 196//196 191//191
f 191//191 196//196 190//190
f 190//190 196//196 189//189
f 189//189 196//196 188//188
f 188//188 196//196 187//187
f 187//187 196//196 186//186
f 186//186 196//196 185//185
f 184//184 196//196 183//183
f 173//173 196//196 172//172
f 182//182 196//196 181//181
f 181//181 196//196 180//180
f 180//180 196//196 179//179
f 179//179 196//196 178//178
f 178//178 196//196 177//177
f 177//177 196//196 176//176
f 176//176 196//196 175//175
f 175//175 196//196 174//174
f 174//174 196//196 173//173
f 195//195 196//196 194//194
f 183//183 196//196 182//182
f 172//172 196//196 195//195
o core_speaker_hole_2
v 0.0137780000 -0.0130373000 0.0202000000
v 0.0137780000 -0.0127173000 0.0202000000
v 0.0137780000 -0.0127282037 0.0202828221
v 0.0137780000 -0.0127601719 0.0203600000
v 0.0137780000 -0.0128110258 0.0204262742
v 0.0137780000 -0.0128773000 0.0204771281
v 0.0137780000 -0.0129544779 0.0205090963
v 0.0137780000 -0.0130373000 0.0205200000
v 0.0137780000 -0.0131201221 0.0205090963
v 0.0137780000 -0.0131973000 0.0204771281
v 0.0137780000 -0.0132635742 0.0204262742
v 0.0137780000 -0.0133144281 0.0203600000
v 0.0137780000 -0.0133463963 0.0202828221
v 0.0137780000 -0.0133573000 0.0202000000
v 0.0137780000 -0.0133463963 0.0201171779
v 0.0137780000 -0.0133144281 0.0200400000
v 0.0137780000 -0.0132635742 0.0199737258
v 0.0137780000 -0.0131973000 0.0199228719
v 0.0137780000 -0.0131201221 0.0198909037
v 0.0137780000 -0.0130373000 0.0198800000
v 0.0137780000 -0.0129544779 0.0198909037
v 0.0137780000 -0.0128773000 0.0199228719
v 0.0137780000 -0.0128110258 0.0199737258
v 0.0137780000 -0.0127601719 0.0200400000
v 0.0137780000 -0.0127282037 0.0201171779
v 0.0137780000 -0.0127173000 0.0202000000
v 0.0137780000 -0.0127282037 0.0202828221
v 0.0137780000 -0.0127601719 0.0203600000
v 0.0137780000 -0.0128110258 0.0204262742
v 0.0137780000 -0.0128773000 0.0204771281
v 0.0137780000 -0.0129544779 0.0205090963
v 0.0137780000 -0.0130373000 0.0205200000
v 0.0137780000 -0.0131201221 0.0205090963
v 0.0137780000 -0.0131973000 0.0204771281
v 0.0137780000 -0.0132635742 0.0204262742
v 0.0137780000 -0.0133144281 0.0203600000
v 0.0137780000 -0.0133463963 0.0202828221
v 0.0137780000 -0.0133573000 0.0202000000
v 0.0137780000 -0.0133463963 0.0201171779
v 0.0137780000 -0.0133144281 0.0200400000
v 0.0137780000 -0.0132635742 0.0199737258
v 0.0137780000 -0.0131973000 0.0199228719
v 0.0137780000 -0.0131201221 0.0198909037
v 0.0137780000 -0.0130373000 0.0198800000
v 0.0137780000 -0.0129544779 0.0198909037
v 0.0137780000 -0.0128773000 0.0199228719
v 0.0137780000 -0.0128110258 0.0199737258
v 0.0137780000 -0.0127601719 0.0200400000
v 0.0137780000 -0.0127282037 0.0201171779
v 0.0137940000 -0.0127173000 0.0202000000
v 0.0137940000 -0.0127282037 0.0202828221
v 0.0137940000 -0.0127601719 0.0203600000
v 0.0137940000 -0.0128110258 0.0204262742
v 0.0137940000 -0.0128773000 0.0204771281
v 0.0137940000 -0.0129544779 0.0205090963
v 0.0137940000 -0.0130373000 0.0205200000
v 0.0137940000 -0.0131201221 0.0205090963
v 0.0137940000 -0.0131973000 0.0204771281
v 0.0137940000 -0.0132635742 0.0204262742
v 0.0137940000 -0.0133144281 0.0203600000
v 0.0137940000 -0.0133463963 0.0202828221
v 0.0137940000 -0.0133573000 0.0202000000
v 0.0137940000 -0.0133463963 0.0201171779
v 0.0137940000 -0.0133144281 0.0200400000
v 0.0137940000 -0.0132635742 0.0199737258
v 0.0137940000 -0.0131973000 0.0199228719
v 0.0137940000 -0.0131201221 0.0198909037
v 0.0137940000 -0.0130373000 0.0198800000
v 0.0137940000 -0.0129544779 0.0198909037
v 0.0137940000 -0.0128773000 0.0199228719
v 0.0137940000 -0.0128110258 0.0199737258
v 0.0137940000 -0.0127601719 0.0200400000
v 0.0137940000 -0.0127282037 0.0201171779
v 0.0137940000 -0.0127173000 0.0202000000
v 0.0137940000 -0.0127282037 0.0202828221
v 0.0137940000 -0.0127601719 0.0203600000
v 0.0137940000 -0.0128110258 0.0204262742
v 0.0137940000 -0.0128773000 0.0204771281
v 0.0137940000 -0.0129544779 0.0205090963
v 0.0137940000 -0.0130373000 0.0205200000
v 0.0137940000 -0.0131201221 0.0205090963
v 0.0137940000 -0.0131973000 0.0204771281
v 0.0137940000 -0.0132635742 0.0204262742
v 0.0137940000 -0.0133144281 0.0203600000
v 0.0137940000 -0.0133463963 0.0202828221
v 0.0137940000 -0.0133573000 0.0202000000
v 0.0137940000 -0.0133463963 0.0201171779
v 0.0137940000 -0.0133144281 0.0200400000
v 0.0137940000 -0.0132635742 0.0199737258
v 0.0137940000 -0.0131973000 0.0199228719
v 0.0137940000 -0.0131201221 0.0198909037
v 0.0137940000 -0.0130373000 0.0198800000
v 0.0137940000 -0.0129544779 0.0198909037
v 0.0137940000 -0.0128773000 0.0199228719
v 0.0137940000 -0.0128110258 0.0199737258
v 0.0137940000 -0.0127601719 0.0200400000
v 0.0137940000 -0.0127282037 0.0201171779
v 0.0137940000 -0.0130373000 0.0202000000
vn -1.00000000 0.00000000 0.00000000
vn -1.00000000 0.00000000 0.00000000
vn -1.00000000 0.00000000 0.00000000
vn -1.00000000 0.00000000 0.00000000
vn -1.00000000 0.00000000 0.00000000
vn -1.00000000 0.00000000 0.00000000
vn -1.00000000 0.00000000 0.00000000
vn -1.00000000 0.00000000 0.00000000
vn -1.00000000 0.00000000 0.00000000
vn -1.00000000 0.00000000 0.00000000
vn -1.00000000 0.00000000 0.00000000
vn -1.00000000 0.00000000 0.00000000
vn -1.00000000 0.00000000 0.00000000
vn -1.00000000 0.00000000 0.00000000
vn -1.00000000 0.00000000 0.00000000
vn -1.00000000 0.00000000 0.00000000
vn -1.00000000 0.00000000 0.00000000
vn -1.00000000 0.00000000 0.00000000
vn -1.00000000 0.00000000 0.00000000
vn -1.00000000 0.00000000 0.00000000
vn -1.00000000 0.00000000 0.00000000
vn -1.00000000 0.00000000 0.00000000
vn -1.00000000 0.00000000 0.00000000
vn -1.00000000 0.00000000 0.00000000
vn -1.00000000 0.00000000 0.00000000
vn 0.00000000 1.00000000 -0.00000000
vn 0.00000000 0.96592583 0.25881905
vn 0.00000000 0.86602540 0.50000000
vn 0.00000000 0.70710678 0.70710678
vn 0.00000000 0.50000000 0.86602540
vn 0.00000000 0.25881905 0.96592583
vn 0.00000000 0.00000000 1.00000000
vn 0.00000000 -0.25881905 0.96592583
vn 0.00000000 -0.50000000 0.86602540
vn 0.00000000 -0.70710678 0.70710678
vn 0.00000000 -0.86602540 0.50000000
vn 0.00000000 -0.96592583 0.25881905
vn 0.00000000 -1.00000000 0.00000000
vn 0.00000000 -0.96592583 -0.25881905
vn 0.00000000 -0.86602540 -0.50000000
vn 0.00000000 -0.70710678 -0.70710678
vn 0.00000000 -0.50000000 -0.86602540
vn 0.00000000 -0.25881905 -0.96592583
vn 0.00000000 -0.00000000 -1.00000000
vn 0.00000000 0.25881905 -0.96592583
vn 0.00000000 0.50000000 -0.86602540
vn 0.00000000 0.70710678 -0.70710678
vn 0.00000000 0.86602540 -0.50000000
vn 0.00000000 0.96592583 -0.25881905
vn 0.00000000 1.00000000 -0.00000000
vn 0.00000000 0.96592583 0.25881905
vn 0.00000000 0.86602540 0.50000000
vn 0.00000000 0.70710678 0.70710678
vn 0.00000000 0.50000000 0.86602540
vn 0.00000000 0.25881905 0.96592583
vn 0.00000000 0.00000000 1.00000000
vn 0.00000000 -0.25881905 0.96592583
vn 0.00000000 -0.50000000 0.86602540
vn 0.00000000 -0.70710678 0.70710678
vn 0.00000000 -0.86602540 0.50000000
vn 0.00000000 -0.96592583 0.25881905
vn 0.00000000 -1.00000000 0.00000000
vn 0.00000000 -0.96592583 -0.25881905
vn 0.00000000 -0.86602540 -0.50000000
vn 0.00000000 -0.70710678 -0.70710678
vn 0.00000000 -0.50000000 -0.86602540
vn 0.00000000 -0.25881905 -0.96592583
vn 0.00000000 -0.00000000 -1.00000000
vn 0.00000000 0.25881905 -0.96592583
vn 0.00000000 0.50000000 -0.86602540
vn 0.00000000 0.70710678 -0.70710678
vn 0.00000000 0.86602540 -0.50000000
vn 0.00000000 0.96592583 -0.25881905
vn 1.00000000 0.00000000 0.00000000
vn 1.00000000 0.00000000 0.00000000
vn 1.00000000 0.00000000 0.00000000
vn 1.00000000 0.00000000 0.00000000
vn 1.00000000 0.00000000 0.00000000
vn 1.00000000 0.00000000 0.00000000
vn 1.00000000 0.00000000 0.00000000
vn 1.00000000 0.00000000 0.00000000
vn 1.00000000 0.00000000 0.00000000
vn 1.00000000 0.00000000 0.00000000
vn 1.00000000 0.00000000 0.00000000
vn 1.00000000 0.00000000 0.00000000
vn 1.00000000 0.00000000 0.00000000
vn 1.00000000 0.00000000 0.00000000
vn 1.00000000 0.00000000 0.00000000
vn 1.00000000 0.00000000 0.00000000
vn 1.00000000 0.00000000 0.00000000
vn 1.00000000 0.00000000 0.00000000
vn 1.00000000 0.00000000 0.00000000
vn 1.00000000 0.00000000 0.00000000
vn 1.00000000 0.00000000 0.00000000
vn 1.00000000 0.00000000 0.00000000
vn 1.00000000 0.00000000 0.00000000
vn 1.00000000 0.00000000 0.00000000
vn 1.00000000 0.00000000 0.00000000
f 199//199 198//198 197//197
f 221//221 220//220 197//197
f 220//220 219//219 197//197
f 219//219 218//218 197//197
f 218//218 217//217 197//197
f 217//217 216//216 197//197
f 216//216 215//215 197//197
f 215//215 214//214 197//197
f 214//214 213//213 197//197
f 213//213 212//212 197//197
f 212//212 211//211 197//197
f 211//211 210//210 197//197
f 198//198 221//221 197//197
f 209//209 208//208 197//197
f 208//208 207//207 197//197
f 207//207 206//206 197//197
f 206//206 205//205 197//197
f 205//205 204//204 197//197
f 204//204 203//203 197//197
f 203//203 202//202 197//197
f 202//202 201//201 197//197
f 201//201 200//200 197//197
f 200//200 199//199 197//197
f 210//210 209//209 197//197
f 264//264 263//263 239//239
f 239//239 263//263 238//238
f 263//263 262//262 238//238
f 238//238 262//262 237//237
f 260//260 259//259 235//235
f 237//237 261//261 236//236
f 261//261 260//260 236//236
f 236//236 260//260 235//235
f 240//240 264//264 239//239
f 262//262 261//261 237//237
f 265//265 264//264 240//240
f 243//243 267//267 242//242
f 266//266 265//265 241//241
f 242//242 266//266 241//241
f 267//267 266//266 242//242
f 268//268 267//267 243//243
f 244//244 268//268 243//243
f 269//269 268//268 244//244
f 245//245 269//269 244//244
f 246//246 269//269 245//245
f 222//222 246//246 245//245
f 235//235 259//259 234//234
f 241//241 265//265 240//240
f 259//259 258//258 234//234
f 234//234 258//258 233//233
f 258//258 257//257 233//233
f 247//247 246//246 222//222
f 223//223 247//247 222//222
f 248//248 247//247 223//223
f 224//224 248//248 223//223
f 249//249 248//248 224//224
f 225//225 249//249 224//224
f 226//226 250//250 225//225
f 251//251 250//250 226//226
f 227//227 251//251 226//226
f 252//252 251//251 227//227
f 250//250 249//249 225//225
f 253//253 252//252 228//228
f 228//228 252//252 227//227
f 257//257 256//256 232//232
f 232//232 256//256 231//231
f 256//256 255//255 231//231
f 231//231 255//255 230//230
f 233//233 257//257 232//232
f 230//230 254//254 229//229
f 254//254 253//253 229//229
f 229//229 253//253 228//228
f 255//255 254//254 230//230
f 283//283 294//294 282//282
f 292//292 294//294 291//291
f 291//291 294//294 290//290
f 290//290 294//294 289//289
f 289//289 294//294 288//288
f 288//288 294//294 287//287
f 287//287 294//294 286//286
f 286//286 294//294 285//285
f 285//285 294//294 284//284
f 284//284 294//294 283//283
f 282//282 294//294 281//281
f 271//271 294//294 270//270
f 280//280 294//294 279//279
f 279//279 294//294 278//278
f 278//278 294//294 277//277
f 277//277 294//294 276//276
f 276//276 294//294 275//275
f 275//275 294//294 274//274
f 274//274 294//294 273//273
f 273//273 294//294 272//272
f 272//272 294//294 271//271
f 293//293 294//294 292//292
f 281//281 294//294 280//280
f 270//270 294//294 293//293
o core_speaker_hole_3
v 0.0137780000 -0.0144373000 0.0202000000
v 0.0137780000 -0.0141173000 0.0202000000
v 0.0137780000 -0.0141282037 0.0202828221
v 0.0137780000 -0.0141601719 0.0203600000
v 0.0137780000 -0.0142110258 0.0204262742
v 0.0137780000 -0.0142773000 0.0204771281
v 0.0137780000 -0.0143544779 0.0205090963
v 0.0137780000 -0.0144373000 0.0205200000
v 0.0137780000 -0.0145201221 0.0205090963
v 0.0137780000 -0.0145973000 0.0204771281
v 0.0137780000 -0.0146635742 0.0204262742
v 0.0137780000 -0.0147144281 0.0203600000
v 0.0137780000 -0.0147463963 0.0202828221
v 0.0137780000 -0.0147573000 0.0202000000
v 0.0137780000 -0.0147463963 0.0201171779
v 0.0137780000 -0.0147144281 0.0200400000
v 0.0137780000 -0.0146635742 0.0199737258
v 0.0137780000 -0.0145973000 0.0199228719
v 0.0137780000 -0.0145201221 0.0198909037
v 0.0137780000 -0.0144373000 0.0198800000
v 0.0137780000 -0.0143544779 0.0198909037
v 0.0137780000 -0.0142773000 0.0199228719
v 0.0137780000 -0.0142110258 0.0199737258
v 0.0137780000 -0.0141601719 0.0200400000
v 0.0137780000 -0.0141282037 0.0201171779
v 0.0137780000 -0.0141173000 0.0202000000
v 0.0137780000 -0.0141282037 0.0202828221
v 0.0137780000 -0.0141601719 0.0203600000
v 0.0137780000 -0.0142110258 0.0204262742
v 0.0137780000 -0.0142773000 0.0204771281
v 0.0137780000 -0.0143544779 0.0205090963
v 0.0137780000 -0.0144373000 0.0205200000
v 0.0137780000 -0.0145201221 0.0205090963
v 0.0137780000 -0.0145973000 0.0204771281
v 0.0137780000 -0.0146635742 0.0204262742
v 0.0137780000 -0.0147144281 0.0203600000
v 0.0137780000 -0.0147463963 0.0202828221
v 0.0137780000 -0.0147573000 0.0202000000
v 0.0137780000 -0.0147463963 0.0201171779
v 0.0137780000 -0.0147144281 0.0200400000
v 0.0137780000 -0.0146635742 0.0199737258
v 0.0137780000 -0.0145973000 0.0199228719
v 0.0137780000 -0.0145201221 0.0198909037
v 0.0137780000 -0.0144373000 0.0198800000
v 0.0137780000 -0.0143544779 0.0198909037
v 0.0137780000 -0.0142773000 0.0199228719
v 0.0137780000 -0.0142110258 0.0199737258
v 0.0137780000 -0.0141601719 0.0200400000
v 0.0137780000 -0.0141282037 0.0201171779
v 0.0137940000 -0.0141173000 0.0202000000
v 0.0137940000 -0.0141282037 0.0202828221
v 0.0137940000 -0.0141601719 0.0203600000
v 0.0137940000 -0.0142110258 0.0204262742
v 0.0137940000 -0.0142773000 0.0204771281
v 0.0137940000 -0.0143544779 0.0205090963
v 0.0137940000 -0.0144373000 0.0205200000
v 0.0137940000 -0.0145201221 0.0205090963
v 0.0137940000 -0.0145973000 0.0204771281
v 0.0137940000 -0.0146635742 0.0204262742
v 0.0137940000 -0.0147144281 0.0203600000
v 0.0137940000 -0.0147463963 0.0202828221
v 0.0137940000 -0.0147573000 0.0202000000
v 0.0137940000 -0.0147463963 0.0201171779
v 0.0137940000 -0.0147144281 0.0200400000
v 0.0137940000 -0.0146635742 0.0199737258
v 0.0137940000 -0.0145973000 0.0199228719
v 0.0137940000 -0.0145201221 0.0198909037
v 0.0137940000 -0.0144373000 0.0198800000
v 0.0137940000 -0.0143544779 0.0198909037
v 0.0137940000 -0.0142773000 0.0199228719
v 0.0137940000 -0.0142110258 0.0199737258
v 0.0137940000 -0.0141601719 0.0200400000
v 0.0137940000 -0.0141282037 0.0201171779
v 0.0137940000 -0.0141173000 0.0202000000
v 0.0137940000 -0.0141282037 0.0202828221
v 0.0137940000 -0.0141601719 0.0203600000
v 0.0137940000 -0.0142110258 0.0204262742
v 0.0137940000 -0.0142773000 0.0204771281
v 0.0137940000 -0.0143544779 0.0205090963
v 0.0137940000 -0.0144373000 0.0205200000
v 0.0137940000 -0.0145201221 0.0205090963
v 0.0137940000 -0.0145973000 0.0204771281
v 0.0137940000 -0.0146635742 0.0204262742
v 0.0137940000 -0.0147144281 0.0203600000
v 0.0137940000 -0.0147463963 0.0202828221
v 0.0137940000 -0.0147573000 0.0202000000
v 0.0137940000 -0.0147463963 0.0201171779
v 0.0137940000 -0.0147144281 0.0200400000
v 0.0137940000 -0.0146635742 0.0199737258
v 0.0137940000 -0.0145973000 0.0199228719
v 0.0137940000 -0.0145201221 0.0198909037
v 0.0137940000 -0.0144373000 0.0198800000
v 0.0137940000 -0.0143544779 0.0198909037
v 0.0137940000 -0.0142773000 0.0199228719
v 0.0137940000 -0.0142110258 0.0199737258
v 0.0137940000 -0.0141601719 0.0200400000
v 0.0137940000 -0.0141282037 0.0201171779
v 0.0137940000 -0.0144373000 0.0202000000
vn -1.00000000 0.00000000 0.00000000
vn -1.00000000 0.00000000 0.00000000
vn -1.00000000 0.00000000 0.00000000
vn -1.00000000 0.00000000 0.00000000
vn -1.00000000 0.00000000 0.00000000
vn -1.00000000 0.00000000 0.00000000
vn -1.00000000 0.00000000 0.00000000
vn -1.00000000 0.00000000 0.00000000
vn -1.00000000 0.00000000 0.00000000
vn -1.00000000 0.00000000 0.00000000
vn -1.00000000 0.00000000 0.00000000
vn -1.00000000 0.00000000 0.00000000
vn -1.00000000 0.00000000 0.00000000
vn -1.00000000 0.00000000 0.00000000
vn -1.00000000 0.00000000 0.00000000
vn -1.00000000 0.00000000 0.00000000
vn -1.00000000 0.00000000 0.00000000
vn -1.00000000 0.00000000 0.00000000
vn -1.00000000 0.00000000 0.00000000
vn -1.00000000 0.00000000 0.00000000
vn -1.00000000 0.00000000 0.00000000
vn -1.00000000 0.00000000 0.00000000
vn -1.00000000 0.00000000 0.00000000
vn -1.00000000 0.00000000 0.00000000
vn -1.00000000 0.00000000 0.00000000
vn 0.00000000 1.00000000 -0.00000000
vn 0.00000000 0.96592583 0.25881905
vn 0.00000000 0.86602540 0.50000000
vn 0.00000000 0.70710678 0.70710678
vn 0.00000000 0.50000000 0.86602540
vn 0.00000000 0.25881905 0.96592583
vn 0.00000000 0.00000000 1.00000000
vn 0.00000000 -0.25881905 0.96592583
vn 0.00000000 -0.50000000 0.86602540
vn 0.00000000 -0.70710678 0.70710678
vn 0.00000000 -0.86602540 0.50000000
vn 0.00000000 -0.96592583 0.25881905
vn 0.00000000 -1.00000000 0.00000000
vn 0.00000000 -0.96592583 -0.25881905
vn 0.00000000 -0.86602540 -0.50000000
vn 0.00000000 -0.70710678 -0.70710678
vn 0.00000000 -0.50000000 -0.86602540
vn 0.00000000 -0.25881905 -0.96592583
vn 0.00000000 -0.00000000 -1.00000000
vn 0.00000000 0.25881905 -0.96592583
vn 0.00000000 0.50000000 -0.86602540
vn 0.00000000 0.70710678 -0.70710678
vn 0.00000000 0.86602540 -0.50000000
vn 0.00000000 0.96592583 -0.25881905
vn 0.00000000 1.00000000 -0.00000000
vn 0.00000000 0.96592583 0.25881905
vn 0.00000000 0.86602540 0.50000000
vn 0.00000000 0.70710678 0.70710678
vn 0.00000000 0.50000000 0.86602540
vn 0.00000000 0.25881905 0.96592583
vn 0.00000000 0.00000000 1.00000000
vn 0.00000000 -0.25881905 0.96592583
vn 0.00000000 -0.50000000 0.86602540
vn 0.00000000 -0.70710678 0.70710678
vn 0.00000000 -0.86602540 0.50000000
vn 0.00000000 -0.96592583 0.25881905
vn 0.00000000 -1.00000000 0.00000000
vn 0.00000000 -0.96592583 -0.25881905
vn 0.00000000 -0.86602540 -0.50000000
vn 0.00000000 -0.70710678 -0.70710678
vn 0.00000000 -0.50000000 -0.86602540
vn 0.00000000 -0.25881905 -0.96592583
vn 0.00000000 -0.00000000 -1.00000000
vn 0.00000000 0.25881905 -0.96592583
vn 0.00000000 0.50000000 -0.86602540
vn 0.00000000 0.70710678 -0.70710678
vn 0.00000000 0.86602540 -0.50000000
vn 0.00000000 0.96592583 -0.25881905
vn 1.00000000 0.00000000 0.00000000
vn 1.00000000 0.00000000 0.00000000
vn 1.00000000 0.00000000 0.00000000
vn 1.00000000 0.00000000 0.00000000
vn 1.00000000 0.00000000 0.00000000
vn 1.00000000 0.00000000 0.00000000
vn 1.00000000 0.00000000 0.00000000
vn 1.00000000 0.00000000 0.00000000
vn 1.00000000 0.00000000 0.00000000
vn 1.00000000 0.00000000 0.00000000
vn 1.00000000 0.00000000 0.00000000
vn 1.00000000 0.00000000 0.00000000
vn 1.00000000 0.00000000 0.00000000
vn 1.00000000 0.00000000 0.00000000
vn 1.00000000 0.00000000 0.00000000
vn 1.00000000 0.00000000 0.00000000
vn 1.00000000 0.00000000 0.00000000
vn 1.00000000 0.00000000 0.00000000
vn 1.00000000 0.00000000 0.00000000
vn 1.00000000 0.00000000 0.00000000
vn 1.00000000 0.00000000 0.00000000
vn 1.00000000 0.00000000 0.00000000
vn 1.00000000 0.00000000 0.00000000
vn 1.00000000 0.00000000 0.00000000
vn 1.00000000 0.00000000 0.00000000
f 297//297 296//296 295//295
f 319//319 318//318 295//295
f 318//318 317//317 295//295
f 317//317 316//316 295//295
f 316//316 315//315 295//295
f 315//315 314//314 295//295
f 314//314 313//313 295//295
f 313//313 312//312 295//295
f 312//312 311//311 295//295
f 311//311 310//310 295//295
f 310//310 309//309 295//295
f 309//309 308//308 295//295
f 296//296 319//319 295//295
f 307//307 306//306 295//295
f 306//306 305//305 295//295
f 305//305 304//304 295//295
f 304//304 303//303 295//295
f 303//303 302//302 295//295
f 302//302 301//301 295//295
f 301//301 300//300 295//295
f 300//300 299//299 295//295
f 299//299 298//298 295//295
f 298//298 297//297 295//295
f 308//308 307//307 295//295
f 362//362 361//361 337//337
f 337//337 361//361 336//336
f 361//361 360//360 336//336
f 336//336 360//360 335//335
f 358//358 357//357 333//333
f 335//335 359//359 334//334
f 359//359 358//358 334//334
f 334//334 358//358 333//333
f 338//338 362//362 337//337
f 360//360 359//359 335//335
f 363//363 362//362 338//338
f 341//341 365//365 340//340
f 364//364 363//363 339//339
f 340//340 364//364 339//339
f 365//365 364//364 340//340
f 366//366 365//365 341//341
f 342//342 366//366 341//341
f 367//367 366//366 342//342
f 343//343 367//367 342//342
f 344//344 367//367 343//343
f 320//320 344//344 343//343
f 333//333 357//357 332//332
f 339//339 363//363 338//338
f 357//357 356//356 332//332
f 332//332 356//356 331//331
f 356//356 355//355 331//331
f 345//345 344//344 320//320
f 321//321 345//345 320//320
f 346//346 345//345 321//321
f 322//322 346//346 321//321
f 347//347 346//346 322//322
f 323//323 347//347 322//322
f 324//324 348//348 323//323
f 349//349 348//348 324//324
f 325//325 349//349 324//324
f 350//350 349//349 325//325
f 348//348 347//347 323//323
f 351//351 350//350 326//326
f 326//326 350//350 325//325
f 355//355 354//354 330//330
f 330//330 354//354 329//329
f 354//354 353//353 329//329
f 329//329 353//353 328//328
f 331//331 355//355 330//330
f 328//328 352//352 327//327
f 352//352 351//351 327//327
f 327//327 351//351 326//326
f 353//353 352//352 328//328
f 381//381 392//392 380//380
f 390//390 392//392 389//389
f 389//389 392//392 388//388
f 388//388 392//392 387//387
f 387//387 392//392 386//386
f 386//386 392//392 385//385
f 385//385 392//392 384//384
f 384//384 392//392 383//383
f 383//383 392//392 382//382
f 382//382 392//392 381//381
f 380//380 392//392 379//379
f 369//369 392//392 368//368
f 378//378 392//392 377//377
f 377//377 392//392 376//376
f 376//376 392//392 375//375
f 375//375 392//392 374//374
f 374//374 392//392 373//373
f 373//373 392//392 372//372
f 372//372 392//392 371//371
f 371//371 392//392 370//370
f 370//370 392//392 369//369
f 391//391 392//392 390//390
f 379//379 392//392 378//378
f 368//368 392//392 391//391
