# Independent procedural camera geometry; meters; Z up
o core_display
v -0.0167000000 -0.0280200000 0.0383800000
v -0.0167000000 -0.0280030910 0.0385516795
v -0.0167000000 -0.0279530140 0.0387167614
v -0.0167000000 -0.0278716933 0.0388689018
v -0.0167000000 -0.0277622540 0.0390022540
v -0.0167000000 -0.0276289018 0.0391116933
v -0.0167000000 -0.0274767614 0.0391930140
v -0.0167000000 -0.0273116795 0.0392430910
v -0.0167000000 -0.0065080000 0.0392600000
v -0.0167000000 -0.0063363205 0.0392430910
v -0.0167000000 -0.0061712386 0.0391930140
v -0.0167000000 -0.0060190982 0.0391116933
v -0.0167000000 -0.0058857460 0.0390022540
v -0.0167000000 -0.0057763067 0.0388689018
v -0.0167000000 -0.0056949860 0.0387167614
v -0.0167000000 -0.0056449090 0.0385516795
v -0.0167000000 -0.0056280000 0.0166120000
v -0.0167000000 -0.0056449090 0.0164403205
v -0.0167000000 -0.0056949860 0.0162752386
v -0.0167000000 -0.0057763067 0.0161230982
v -0.0167000000 -0.0058857460 0.0159897460
v -0.0167000000 -0.0060190982 0.0158803067
v -0.0167000000 -0.0061712386 0.0157989860
v -0.0167000000 -0.0063363205 0.0157489090
v -0.0167000000 -0.0271400000 0.0157320000
v -0.0167000000 -0.0273116795 0.0157489090
v -0.0167000000 -0.0274767614 0.0157989860
v -0.0167000000 -0.0276289018 0.0158803067
v -0.0167000000 -0.0277622540 0.0159897460
v -0.0167000000 -0.0278716933 0.0161230982
v -0.0167000000 -0.0279530140 0.0162752386
v -0.0167000000 -0.0280030910 0.0164403205
v -0.0167200000 -0.0280400000 0.0383800000
v -0.0167200000 -0.0280227068 0.0385555813
v -0.0167200000 -0.0279714916 0.0387244151
v -0.0167200000 -0.0278883227 0.0388800132
v -0.0167200000 -0.0277763961 0.0390163961
v -0.0167200000 -0.0276400132 0.0391283227
v -0.0167200000 -0.0274844151 0.0392114916
v -0.0167200000 -0.0273155813 0.0392627068
v -0.0167200000 -0.0065080000 0.0392800000
v -0.0167200000 -0.0063324187 0.0392627068
v -0.0167200000 -0.0061635849 0.0392114916
v -0.0167200000 -0.0060079868 0.0391283227
v -0.0167200000 -0.0058716039 0.0390163961
v -0.0167200000 -0.0057596773 0.0388800132
v -0.0167200000 -0.0056765084 0.0387244151
v -0.0167200000 -0.0056252932 0.0385555813
v -0.0167200000 -0.0056080000 0.0166120000
v -0.0167200000 -0.0056252932 0.0164364187
v -0.0167200000 -0.0056765084 0.0162675849
v -0.0167200000 -0.0057596773 0.0161119868
v -0.0167200000 -0.0058716039 0.0159756039
v -0.0167200000 -0.0060079868 0.0158636773
v -0.0167200000 -0.0061635849 0.0157805084
v -0.0167200000 -0.0063324187 0.0157292932
v -0.0167200000 -0.0271400000 0.0157120000
v -0.0167200000 -0.0273155813 0.0157292932
v -0.0167200000 -0.0274844151 0.0157805084
v -0.0167200000 -0.0276400132 0.0158636773
v -0.0167200000 -0.0277763961 0.0159756039
v -0.0167200000 -0.0278883227 0.0161119868
v -0.0167200000 -0.0279714916 0.0162675849
v -0.0167200000 -0.0280227068 0.0164364187
v -0.0167600000 -0.0280400000 0.0383800000
v -0.0167600000 -0.0280227068 0.0385555813
v -0.0167600000 -0.0279714916 0.0387244151
v -0.0167600000 -0.0278883227 0.0388800132
v -0.0167600000 -0.0277763961 0.0390163961
v -0.0167600000 -0.0276400132 0.0391283227
v -0.0167600000 -0.0274844151 0.0392114916
v -0.0167600000 -0.0273155813 0.0392627068
v -0.0167600000 -0.0065080000 0.0392800000
v -0.0167600000 -0.0063324187 0.0392627068
v -0.0167600000 -0.0061635849 0.0392114916
v -0.0167600000 -0.0060079868 0.0391283227
v -0.0167600000 -0.0058716039 0.0390163961
v -0.0167600000 -0.0057596773 0.0388800132
v -0.0167600000 -0.0056765084 0.0387244151
v -0.0167600000 -0.0056252932 0.0385555813
v -0.0167600000 -0.0056080000 0.0166120000
v -0.0167600000 -0.0056252932 0.0164364187
v -0.0167600000 -0.0056765084 0.0162675849
v -0.0167600000 -0.0057596773 0.0161119868
v -0.0167600000 -0.0058716039 0.0159756039
v -0.0167600000 -0.0060079868 0.0158636773
v -0.0167600000 -0.0061635849 0.0157805084
v -0.0167600000 -0.0063324187 0.0157292932
v -0.0167600000 -0.0271400000 0.0157120000
v -0.0167600000 -0.0273155813 0.0157292932
v -0.0167600000 -0.0274844151 0.0157805084
v -0.0167600000 -0.0276400132 0.0158636773
v -0.0167600000 -0.0277763961 0.0159756039
v -0.0167600000 -0.0278883227 0.0161119868
v -0.0167600000 -0.0279714916 0.0162675849
v -0.0167600000 -0.0280227068 0.0164364187
v -0.0167800000 -0.0280200000 0.0383800000
v -0.0167800000 -0.0280030910 0.0385516795
v -0.0167800000 -0.0279530140 0.0387167614
v -0.0167800000 -0.0278716933 0.0388689018
v -0.0167800000 -0.0277622540 0.0390022540
v -0.0167800000 -0.0276289018 0.0391116933
v -0.0167800000 -0.0274767614 0.0391930140
v -0.0167800000 -0.0273116795 0.0392430910
v -0.0167800000 -0.0065080000 0.0392600000
v -0.0167800000 -0.0063363205 0.0392430910
v -0.0167800000 -0.0061712386 0.0391930140
v -0.0167800000 -0.0060190982 0.0391116933
v -0.0167800000 -0.0058857460 0.0390022540
v -0.0167800000 -0.0057763067 0.0388689018
v -0.0167800000 -0.0056949860 0.0387167614
v -0.0167800000 -0.0056449090 0.0385516795
v -0.0167800000 -0.0056280000 0.0166120000
v -0.0167800000 -0.0056449090 0.0164403205
v -0.0167800000 -0.0056949860 0.0162752386
v -0.0167800000 -0.0057763067 0.0161230982
v -0.0167800000 -0.0058857460 0.0159897460
v -0.0167800000 -0.0060190982 0.0158803067
v -0.0167800000 -0.0061712386 0.0157989860
v -0.0167800000 -0.0063363205 0.0157489090
v -0.0167800000 -0.0271400000 0.0157320000
v -0.0167800000 -0.0273116795 0.0157489090
v -0.0167800000 -0.0274767614 0.0157989860
v -0.0167800000 -0.0276289018 0.0158803067
v -0.0167800000 -0.0277622540 0.0159897460
v -0.0167800000 -0.0278716933 0.0161230982
v -0.0167800000 -0.0279530140 0.0162752386
v -0.0167800000 -0.0280030910 0.0164403205
vn 0.91946646 -0.39268057 0.01958058
vn 0.91532176 -0.39498512 0.07856742
vn 0.91532176 -0.37206784 0.15411555
vn 0.91532176 -0.33485221 0.22374110
vn 0.91532176 -0.28476840 0.28476840
vn 0.91532176 -0.22374110 0.33485221
vn 0.91532176 -0.15411555 0.37206784
vn 0.91086608 -0.05927637 0.40842294
vn 0.91946473 0.01957252 0.39268502
vn 0.91532176 0.07856742 0.39498512
vn 0.91532176 0.15411555 0.37206784
vn 0.91532176 0.22374110 0.33485221
vn 0.91532176 0.28476840 0.28476840
vn 0.91532176 0.33485221 0.22374110
vn 0.91532176 0.37206784 0.15411555
vn 0.91086403 0.40842881 0.05926736
vn 0.91946646 0.39268057 -0.01958058
vn 0.91532176 0.39498512 -0.07856742
vn 0.91532176 0.37206784 -0.15411555
vn 0.91532176 0.33485221 -0.22374110
vn 0.91532176 0.28476840 -0.28476840
vn 0.91532176 0.22374110 -0.33485221
vn 0.91532176 0.15411555 -0.37206784
vn 0.91086608 0.05927637 -0.40842294
vn 0.91946473 -0.01957252 -0.39268502
vn 0.91532176 -0.07856742 -0.39498512
vn 0.91532176 -0.15411555 -0.37206784
vn 0.91532176 -0.22374110 -0.33485221
vn 0.91532176 -0.28476840 -0.28476840
vn 0.91532176 -0.33485221 -0.22374110
vn 0.91532176 -0.37206784 -0.15411555
vn 0.91086403 -0.40842881 -0.05926736
vn 0.37822863 -0.92463408 0.04466447
vn 0.37448906 -0.90941484 0.18089386
vn 0.37448906 -0.85665005 0.35483607
vn 0.37448906 -0.77096468 0.51514213
vn 0.37448906 -0.65565156 0.65565156
vn 0.37448906 -0.51514213 0.77096468
vn 0.37448906 -0.35483607 0.85665005
vn 0.37039656 -0.13774810 0.91860320
vn 0.37822697 0.04464480 0.92463571
vn 0.37448906 0.18089386 0.90941484
vn 0.37448906 0.35483607 0.85665005
vn 0.37448906 0.51514213 0.77096468
vn 0.37448906 0.65565156 0.65565156
vn 0.37448906 0.77096468 0.51514213
vn 0.37448906 0.85665005 0.35483607
vn 0.37039469 0.91860682 0.13772906
vn 0.37822863 0.92463408 -0.04466447
vn 0.37448906 0.90941484 -0.18089386
vn 0.37448906 0.85665005 -0.35483607
vn 0.37448906 0.77096468 -0.51514213
vn 0.37448906 0.65565156 -0.65565156
vn 0.37448906 0.51514213 -0.77096468
vn 0.37448906 0.35483607 -0.85665005
vn 0.37039656 0.13774810 -0.91860320
vn 0.37822697 -0.04464480 -0.92463571
vn 0.37448906 -0.18089386 -0.90941484
vn 0.37448906 -0.35483607 -0.85665005
vn 0.37448906 -0.51514213 -0.77096468
vn 0.37448906 -0.65565156 -0.65565156
vn 0.37448906 -0.77096468 -0.51514213
vn 0.37448906 -0.85665005 -0.35483607
vn 0.37039469 -0.91860682 -0.13772906
vn -0.37822863 -0.92463408 0.04466447
vn -0.37448906 -0.90941484 0.18089386
vn -0.37448906 -0.85665005 0.35483607
vn -0.37448906 -0.77096468 0.51514213
vn -0.37448906 -0.65565156 0.65565156
vn -0.37448906 -0.51514213 0.77096468
vn -0.37448906 -0.35483607 0.85665005
vn -0.37039656 -0.13774810 0.91860320
vn -0.37822697 0.04464480 0.92463571
vn -0.37448906 0.18089386 0.90941484
vn -0.37448906 0.35483607 0.85665005
vn -0.37448906 0.51514213 0.77096468
vn -0.37448906 0.65565156 0.65565156
vn -0.37448906 0.77096468 0.51514213
vn -0.37448906 0.85665005 0.35483607
vn -0.37039469 0.91860682 0.13772906
vn -0.37822863 0.92463408 -0.04466447
vn -0.37448906 0.90941484 -0.18089386
vn -0.37448906 0.85665005 -0.35483607
vn -0.37448906 0.77096468 -0.51514213
vn -0.37448906 0.65565156 -0.65565156
vn -0.37448906 0.51514213 -0.77096468
vn -0.37448906 0.35483607 -0.85665005
vn -0.37039656 0.13774810 -0.91860320
vn -0.37822697 -0.04464480 -0.92463571
vn -0.37448906 -0.18089386 -0.90941484
vn -0.37448906 -0.35483607 -0.85665005
vn -0.37448906 -0.51514213 -0.77096468
vn -0.37448906 -0.65565156 -0.65565156
vn -0.37448906 -0.77096468 -0.51514213
vn -0.37448906 -0.85665005 -0.35483607
vn -0.37039469 -0.91860682 -0.13772906
vn -0.91946646 -0.39268057 0.01958058
vn -0.91532176 -0.39498512 0.07856742
vn -0.91532176 -0.37206784 0.15411555
vn -0.91532176 -0.33485221 0.22374110
vn -0.91532176 -0.28476840 0.28476840
vn -0.91532176 -0.22374110 0.33485221
vn -0.91532176 -0.15411555 0.37206784
vn -0.91086608 -0.05927637 0.40842294
vn -0.91946473 0.01957252 0.39268502
vn -0.91532176 0.07856742 0.39498512
vn -0.91532176 0.15411555 0.37206784
vn -0.91532176 0.22374110 0.33485221
vn -0.91532176 0.28476840 0.28476840
vn -0.91532176 0.33485221 0.22374110
vn -0.91532176 0.37206784 0.15411555
vn -0.91086403 0.40842881 0.05926736
vn -0.91946646 0.39268057 -0.01958058
vn -0.91532176 0.39498512 -0.07856742
vn -0.91532176 0.37206784 -0.15411555
vn -0.91532176 0.33485221 -0.22374110
vn -0.91532176 0.28476840 -0.28476840
vn -0.91532176 0.22374110 -0.33485221
vn -0.91532176 0.15411555 -0.37206784
vn -0.91086608 0.05927637 -0.40842294
vn -0.91946473 -0.01957252 -0.39268502
vn -0.91532176 -0.07856742 -0.39498512
vn -0.91532176 -0.15411555 -0.37206784
vn -0.91532176 -0.22374110 -0.33485221
vn -0.91532176 -0.28476840 -0.28476840
vn -0.91532176 -0.33485221 -0.22374110
vn -0.91532176 -0.37206784 -0.15411555
vn -0.91086403 -0.40842881 -0.05926736
f 57//57 24//24 25//25
f 128//128 65//65 97//97
f 16//16 17//17 49//49
f 56//56 24//24 57//57
f 81//81 113//113 112//112
f 8//8 41//41 40//40
f 65//65 128//128 96//96
f 48//48 16//16 49//49
f 32//32 33//33 64//64
f 1//1 33//33 32//32
f 73//73 105//105 104//104
f 104//104 72//72 73//73
f 41//41 8//8 9//9
f 80//80 81//81 112//112
f 89//89 121//121 120//120
f 120//120 88//88 89//89
f 128//128 127//127 96//96
f 96//96 127//127 95//95
f 33//33 65//65 96//96
f 64//64 33//33 96//96
f 63//63 96//96 95//95
f 64//64 96//96 63//63
f 73//73 72//72 40//40
f 40//40 41//41 73//73
f 49//49 50//50 82//82
f 82//82 81//81 49//49
f 42//42 73//73 41//41
f 74//74 73//73 42//42
f 49//49 81//81 80//80
f 80//80 48//48 49//49
f 47//47 48//48 80//80
f 80//80 79//79 47//47
f 13//13 46//46 45//45
f 14//14 46//46 13//13
f 15//15 48//48 47//47
f 16//16 48//48 15//15
f 15//15 46//46 14//14
f 47//47 46//46 15//15
f 88//88 56//56 89//89
f 89//89 56//56 57//57
f 64//64 63//63 31//31
f 31//31 32//32 64//64
f 29//29 61//61 60//60
f 60//60 28//28 29//29
f 26//26 58//58 57//57
f 57//57 25//25 26//26
f 24//24 56//56 23//23
f 56//56 55//55 23//23
f 87//87 56//56 88//88
f 87//87 55//55 56//56
f 18//18 50//50 49//49
f 49//49 17//17 18//18
f 20//20 21//21 52//52
f 52//52 21//21 53//53
f 74//74 42//42 75//75
f 75//75 42//42 43//43
f 40//40 72//72 71//71
f 71//71 39//39 40//40
f 104//104 103//103 71//71
f 71//71 72//72 104//104
f 6//6 38//38 37//37
f 37//37 5//5 6//6
f 66//66 65//65 33//33
f 33//33 34//34 66//66
f 66//66 98//98 97//97
f 97//97 65//65 66//66
f 66//66 34//34 35//35
f 35//35 67//67 66//66
f 37//37 38//38 70//70
f 70//70 69//69 37//37
f 70//70 103//103 102//102
f 70//70 71//71 103//103
f 39//39 71//71 70//70
f 70//70 38//38 39//39
f 43//43 42//42 10//10
f 10//10 11//11 43//43
f 10//10 42//42 41//41
f 41//41 9//9 10//10
f 90//90 89//89 57//57
f 57//57 58//58 90//90
f 90//90 58//58 59//59
f 59//59 91//91 90//90
f 95//95 127//127 94//94
f 127//127 126//126 94//94
f 94//94 126//126 125//125
f 125//125 93//93 94//94
f 92//92 91//91 59//59
f 92//92 59//59 60//60
f 60//60 61//61 92//92
f 61//61 93//93 92//92
f 27//27 28//28 60//60
f 60//60 59//59 27//27
f 58//58 26//26 27//27
f 59//59 58//58 27//27
f 119//119 87//87 88//88
f 119//119 88//88 120//120
f 54//54 21//21 22//22
f 53//53 21//21 54//54
f 22//22 23//23 54//54
f 54//54 23//23 55//55
f 12//12 13//13 44//44
f 44//44 13//13 45//45
f 44//44 11//11 12//12
f 43//43 11//11 44//44
f 2//2 34//34 33//33
f 2//2 33//33 1//1
f 35//35 34//34 2//2
f 2//2 3//3 35//35
f 4//4 5//5 37//37
f 37//37 36//36 4//4
f 35//35 3//3 4//4
f 4//4 36//36 35//35
f 17//17 16//16 7//7
f 24//24 23//23 7//7
f 7//7 25//25 24//24
f 1//1 32//32 7//7
f 12//12 11//11 7//7
f 7//7 21//21 20//20
f 7//7 26//26 25//25
f 7//7 9//9 8//8
f 30//30 29//29 7//7
f 7//7 18//18 17//17
f 7//7 13//13 12//12
f 16//16 15//15 7//7
f 7//7 31//31 30//30
f 22//22 21//21 7//7
f 20//20 19//19 7//7
f 28//28 27//27 7//7
f 5//5 4//4 7//7
f 14//14 13//13 7//7
f 7//7 15//15 14//14
f 32//32 31//31 7//7
f 7//7 29//29 28//28
f 11//11 10//10 7//7
f 7//7 23//23 22//22
f 19//19 18//18 7//7
f 7//7 2//2 1//1
f 7//7 6//6 5//5
f 7//7 10//10 9//9
f 7//7 27//27 26//26
f 3//3 2//2 7//7
f 7//7 4//4 3//3
f 40//40 39//39 7//7
f 7//7 8//8 40//40
f 38//38 6//6 7//7
f 39//39 38//38 7//7
f 99//99 66//66 67//67
f 98//98 66//66 99//99
f 101//101 70//70 102//102
f 69//69 70//70 101//101
f 68//68 67//67 35//35
f 35//35 36//36 68//68
f 100//100 99//99 68//68
f 68//68 99//99 67//67
f 37//37 69//69 68//68
f 68//68 36//36 37//37
f 68//68 101//101 100//100
f 69//69 101//101 68//68
f 81//81 82//82 114//114
f 113//113 81//81 114//114
f 117//117 116//116 84//84
f 84//84 85//85 117//117
f 84//84 52//52 53//53
f 53//53 85//85 84//84
f 89//89 90//90 122//122
f 121//121 89//89 122//122
f 122//122 90//90 91//91
f 122//122 91//91 123//123
f 30//30 31//31 62//62
f 62//62 31//31 63//63
f 62//62 63//63 95//95
f 95//95 94//94 62//62
f 62//62 29//29 30//30
f 61//61 29//29 62//62
f 62//62 94//94 93//93
f 62//62 93//93 61//61
f 124//124 93//93 125//125
f 124//124 92//92 93//93
f 91//91 92//92 124//124
f 123//123 91//91 124//124
f 86//86 118//118 117//117
f 117//117 85//85 86//86
f 53//53 54//54 86//86
f 86//86 85//85 53//53
f 86//86 119//119 118//118
f 87//87 119//119 86//86
f 55//55 87//87 86//86
f 86//86 54//54 55//55
f 47//47 79//79 78//78
f 78//78 46//46 47//47
f 76//76 75//75 43//43
f 43//43 44//44 76//76
f 106//106 73//73 74//74
f 105//105 73//73 106//106
f 74//74 75//75 106//106
f 75//75 107//107 106//106
f 115//115 114//114 83//83
f 83//83 114//114 82//82
f 116//116 115//115 83//83
f 83//83 84//84 116//116
f 45//45 46//46 77//77
f 46//46 78//78 77//77
f 77//77 44//44 45//45
f 77//77 76//76 44//44
f 79//79 80//80 111//111
f 111//111 80//80 112//112
f 76//76 77//77 108//108
f 108//108 77//77 109//109
f 75//75 76//76 108//108
f 108//108 107//107 75//75
f 51//51 18//18 19//19
f 50//50 18//18 51//51
f 51//51 82//82 50//50
f 51//51 83//83 82//82
f 51//51 19//19 20//20
f 20//20 52//52 51//51
f 52//52 84//84 51//51
f 84//84 83//83 51//51
f 120//120 121//121 110//110
f 110//110 128//128 97//97
f 110//110 119//119 120//120
f 112//112 113//113 110//110
f 97//97 98//98 110//110
f 98//98 99//99 110//110
f 110//110 103//103 104//104
f 110//110 101//101 102//102
f 104//104 105//105 110//110
f 121//121 122//122 110//110
f 117//117 118//118 110//110
f 110//110 116//116 117//117
f 110//110 127//127 128//128
f 113//113 114//114 110//110
f 102//102 103//103 110//110
f 125//125 126//126 110//110
f 110//110 126//126 127//127
f 110//110 124//124 125//125
f 110//110 115//115 116//116
f 118//118 119//119 110//110
f 105//105 106//106 110//110
f 110//110 111//111 112//112
f 110//110 99//99 100//100
f 100//100 101//101 110//110
f 110//110 114//114 115//115
f 110//110 122//122 123//123
f 123//123 124//124 110//110
f 110//110 106//106 107//107
f 110//110 108//108 109//109
f 107//107 108//108 110//110
f 110//110 77//77 78//78
f 109//109 77//77 110//110
f 110//110 78//78 79//79
f 79//79 111//111 110//110
