# Independent procedural camera geometry; meters; Z up
o display_active_area
v 0.0128390000 0.0151600000 0.0566700000
v 0.0128390000 0.0151430910 0.0568416795
v 0.0128390000 0.0150930140 0.0570067614
v 0.0128390000 0.0150116933 0.0571589018
v 0.0128390000 0.0149022540 0.0572922540
v 0.0128390000 0.0147689018 0.0574016933
v 0.0128390000 0.0146167614 0.0574830140
v 0.0128390000 0.0144516795 0.0575330910
v 0.0128390000 -0.0142800000 0.0575500000
v 0.0128390000 -0.0144516795 0.0575330910
v 0.0128390000 -0.0146167614 0.0574830140
v 0.0128390000 -0.0147689018 0.0574016933
v 0.0128390000 -0.0149022540 0.0572922540
v 0.0128390000 -0.0150116933 0.0571589018
v 0.0128390000 -0.0150930140 0.0570067614
v 0.0128390000 -0.0151430910 0.0568416795
v 0.0128390000 -0.0151600000 0.0162900000
v 0.0128390000 -0.0151430910 0.0161183205
v 0.0128390000 -0.0150930140 0.0159532386
v 0.0128390000 -0.0150116933 0.0158010982
v 0.0128390000 -0.0149022540 0.0156677460
v 0.0128390000 -0.0147689018 0.0155583067
v 0.0128390000 -0.0146167614 0.0154769860
v 0.0128390000 -0.0144516795 0.0154269090
v 0.0128390000 0.0142800000 0.0154100000
v 0.0128390000 0.0144516795 0.0154269090
v 0.0128390000 0.0146167614 0.0154769860
v 0.0128390000 0.0147689018 0.0155583067
v 0.0128390000 0.0149022540 0.0156677460
v 0.0128390000 0.0150116933 0.0158010982
v 0.0128390000 0.0150930140 0.0159532386
v 0.0128390000 0.0151430910 0.0161183205
v 0.0128590000 0.0151800000 0.0566700000
v 0.0128590000 0.0151627068 0.0568455813
v 0.0128590000 0.0151114916 0.0570144151
v 0.0128590000 0.0150283227 0.0571700132
v 0.0128590000 0.0149163961 0.0573063961
v 0.0128590000 0.0147800132 0.0574183227
v 0.0128590000 0.0146244151 0.0575014916
v 0.0128590000 0.0144555813 0.0575527068
v 0.0128590000 -0.0142800000 0.0575700000
v 0.0128590000 -0.0144555813 0.0575527068
v 0.0128590000 -0.0146244151 0.0575014916
v 0.0128590000 -0.0147800132 0.0574183227
v 0.0128590000 -0.0149163961 0.0573063961
v 0.0128590000 -0.0150283227 0.0571700132
v 0.0128590000 -0.0151114916 0.0570144151
v 0.0128590000 -0.0151627068 0.0568455813
v 0.0128590000 -0.0151800000 0.0162900000
v 0.0128590000 -0.0151627068 0.0161144187
v 0.0128590000 -0.0151114916 0.0159455849
v 0.0128590000 -0.0150283227 0.0157899868
v 0.0128590000 -0.0149163961 0.0156536039
v 0.0128590000 -0.0147800132 0.0155416773
v 0.0128590000 -0.0146244151 0.0154585084
v 0.0128590000 -0.0144555813 0.0154072932
v 0.0128590000 0.0142800000 0.0153900000
v 0.0128590000 0.0144555813 0.0154072932
v 0.0128590000 0.0146244151 0.0154585084
v 0.0128590000 0.0147800132 0.0155416773
v 0.0128590000 0.0149163961 0.0156536039
v 0.0128590000 0.0150283227 0.0157899868
v 0.0128590000 0.0151114916 0.0159455849
v 0.0128590000 0.0151627068 0.0161144187
v 0.0128990000 0.0151800000 0.0566700000
v 0.0128990000 0.0151627068 0.0568455813
v 0.0128990000 0.0151114916 0.0570144151
v 0.0128990000 0.0150283227 0.0571700132
v 0.0128990000 0.0149163961 0.0573063961
v 0.0128990000 0.0147800132 0.0574183227
v 0.0128990000 0.0146244151 0.0575014916
v 0.0128990000 0.0144555813 0.0575527068
v 0.0128990000 -0.0142800000 0.0575700000
v 0.0128990000 -0.0144555813 0.0575527068
v 0.0128990000 -0.0146244151 0.0575014916
v 0.0128990000 -0.0147800132 0.0574183227
v 0.0128990000 -0.0149163961 0.0573063961
v 0.0128990000 -0.0150283227 0.0571700132
v 0.0128990000 -0.0151114916 0.0570144151
v 0.0128990000 -0.0151627068 0.0568455813
v 0.0128990000 -0.0151800000 0.0162900000
v 0.0128990000 -0.0151627068 0.0161144187
v 0.0128990000 -0.0151114916 0.0159455849
v 0.0128990000 -0.0150283227 0.0157899868
v 0.0128990000 -0.0149163961 0.0156536039
v 0.0128990000 -0.0147800132 0.0155416773
v 0.0128990000 -0.0146244151 0.0154585084
v 0.0128990000 -0.0144555813 0.0154072932
v 0.0128990000 0.0142800000 0.0153900000
v 0.0128990000 0.0144555813 0.0154072932
v 0.0128990000 0.0146244151 0.0154585084
v 0.0128990000 0.0147800132 0.0155416773
v 0.0128990000 0.0149163961 0.0156536039
v 0.0128990000 0.0150283227 0.0157899868
v 0.0128990000 0.0151114916 0.0159455849
v 0.0128990000 0.0151627068 0.0161144187
v 0.0129190000 0.0151600000 0.0566700000
v 0.0129190000 0.0151430910 0.0568416795
v 0.0129190000 0.0150930140 0.0570067614
v 0.0129190000 0.0150116933 0.0571589018
v 0.0129190000 0.0149022540 0.0572922540
v 0.0129190000 0.0147689018 0.0574016933
v 0.0129190000 0.0146167614 0.0574830140
v 0.0129190000 0.0144516795 0.0575330910
v 0.0129190000 -0.0142800000 0.0575500000
v 0.0129190000 -0.0144516795 0.0575330910
v 0.0129190000 -0.0146167614 0.0574830140
v 0.0129190000 -0.0147689018 0.0574016933
v 0.0129190000 -0.0149022540 0.0572922540
v 0.0129190000 -0.0150116933 0.0571589018
v 0.0129190000 -0.0150930140 0.0570067614
v 0.0129190000 -0.0151430910 0.0568416795
v 0.0129190000 -0.0151600000 0.0162900000
v 0.0129190000 -0.0151430910 0.0161183205
v 0.0129190000 -0.0150930140 0.0159532386
v 0.0129190000 -0.0150116933 0.0158010982
v 0.0129190000 -0.0149022540 0.0156677460
v 0.0129190000 -0.0147689018 0.0155583067
v 0.0129190000 -0.0146167614 0.0154769860
v 0.0129190000 -0.0144516795 0.0154269090
v 0.0129190000 0.0142800000 0.0154100000
v 0.0129190000 0.0144516795 0.0154269090
v 0.0129190000 0.0146167614 0.0154769860
v 0.0129190000 0.0147689018 0.0155583067
v 0.0129190000 0.0149022540 0.0156677460
v 0.0129190000 0.0150116933 0.0158010982
v 0.0129190000 0.0150930140 0.0159532386
v 0.0129190000 0.0151430910 0.0161183205
vn -0.91948102 0.39264310 0.01964830
vn -0.91532176 0.39498512 0.07856742
vn -0.91532176 0.37206784 0.15411555
vn -0.91532176 0.33485221 0.22374110
vn -0.91532176 0.28476840 0.28476840
vn -0.91532176 0.22374110 0.33485221
vn -0.91532176 0.15411555 0.37206784
vn -0.91085516 0.05922834 0.40845426
vn -0.91947396 -0.01961546 0.39266127
vn -0.91532176 -0.07856742 0.39498512
vn -0.91532176 -0.15411555 0.37206784
vn -0.91532176 -0.22374110 0.33485221
vn -0.91532176 -0.28476840 0.28476840
vn -0.91532176 -0.33485221 0.22374110
vn -0.91532176 -0.37206784 0.15411555
vn -0.91084680 -0.40847822 0.05919160
vn -0.91948102 -0.39264310 -0.01964830
vn -0.91532176 -0.39498512 -0.07856742
vn -0.91532176 -0.37206784 -0.15411555
vn -0.91532176 -0.33485221 -0.22374110
vn -0.91532176 -0.28476840 -0.28476840
vn -0.91532176 -0.22374110 -0.33485221
vn -0.91532176 -0.15411555 -0.37206784
vn -0.91085516 -0.05922834 -0.40845426
vn -0.91947396 0.01961546 -0.39266127
vn -0.91532176 0.07856742 -0.39498512
vn -0.91532176 0.15411555 -0.37206784
vn -0.91532176 0.22374110 -0.33485221
vn -0.91532176 0.28476840 -0.28476840
vn -0.91532176 0.33485221 -0.22374110
vn -0.91532176 0.37206784 -0.15411555
vn -0.91084680 0.40847822 -0.05919160
vn -0.37824261 0.92462036 0.04482982
vn -0.37448906 0.90941484 0.18089386
vn -0.37448906 0.85665005 0.35483607
vn -0.37448906 0.77096468 0.51514213
vn -0.37448906 0.65565156 0.65565156
vn -0.37448906 0.51514213 0.77096468
vn -0.37448906 0.35483607 0.85665005
vn -0.37038657 0.13764662 0.91862244
vn -0.37823583 -0.04474963 0.92462702
vn -0.37448906 -0.18089386 0.90941484
vn -0.37448906 -0.35483607 0.85665005
vn -0.37448906 -0.51514213 0.77096468
vn -0.37448906 -0.65565156 0.65565156
vn -0.37448906 -0.77096468 0.51514213
vn -0.37448906 -0.85665005 0.35483607
vn -0.37037893 -0.91863715 0.13756901
vn -0.37824261 -0.92462036 -0.04482982
vn -0.37448906 -0.90941484 -0.18089386
vn -0.37448906 -0.85665005 -0.35483607
vn -0.37448906 -0.77096468 -0.51514213
vn -0.37448906 -0.65565156 -0.65565156
vn -0.37448906 -0.51514213 -0.77096468
vn -0.37448906 -0.35483607 -0.85665005
vn -0.37038657 -0.13764662 -0.91862244
vn -0.37823583 0.04474963 -0.92462702
vn -0.37448906 0.18089386 -0.90941484
vn -0.37448906 0.35483607 -0.85665005
vn -0.37448906 0.51514213 -0.77096468
vn -0.37448906 0.65565156 -0.65565156
vn -0.37448906 0.77096468 -0.51514213
vn -0.37448906 0.85665005 -0.35483607
vn -0.37037893 0.91863715 -0.13756901
vn 0.37824261 0.92462036 0.04482982
vn 0.37448906 0.90941484 0.18089386
vn 0.37448906 0.85665005 0.35483607
vn 0.37448906 0.77096468 0.51514213
vn 0.37448906 0.65565156 0.65565156
vn 0.37448906 0.51514213 0.77096468
vn 0.37448906 0.35483607 0.85665005
vn 0.37038657 0.13764662 0.91862244
vn 0.37823583 -0.04474963 0.92462702
vn 0.37448906 -0.18089386 0.90941484
vn 0.37448906 -0.35483607 0.85665005
vn 0.37448906 -0.51514213 0.77096468
vn 0.37448906 -0.65565156 0.65565156
vn 0.37448906 -0.77096468 0.51514213
vn 0.37448906 -0.85665005 0.35483607
vn 0.37037893 -0.91863715 0.13756901
vn 0.37824261 -0.92462036 -0.04482982
vn 0.37448906 -0.90941484 -0.18089386
vn 0.37448906 -0.85665005 -0.35483607
vn 0.37448906 -0.77096468 -0.51514213
vn 0.37448906 -0.65565156 -0.65565156
vn 0.37448906 -0.51514213 -0.77096468
vn 0.37448906 -0.35483607 -0.85665005
vn 0.37038657 -0.13764662 -0.91862244
vn 0.37823583 0.04474963 -0.92462702
vn 0.37448906 0.18089386 -0.90941484
vn 0.37448906 0.35483607 -0.85665005
vn 0.37448906 0.51514213 -0.77096468
vn 0.37448906 0.65565156 -0.65565156
vn 0.37448906 0.77096468 -0.51514213
vn 0.37448906 0.85665005 -0.35483607
vn 0.37037893 0.91863715 -0.13756901
vn 0.91948102 0.39264310 0.01964830
vn 0.91532176 0.39498512 0.07856742
vn 0.91532176 0.37206784 0.15411555
vn 0.91532176 0.33485221 0.22374110
vn 0.91532176 0.28476840 0.28476840
vn 0.91532176 0.22374110 0.33485221
vn 0.91532176 0.15411555 0.37206784
vn 0.91085516 0.05922834 0.40845426
vn 0.91947396 -0.01961546 0.39266127
vn 0.91532176 -0.07856742 0.39498512
vn 0.91532176 -0.15411555 0.37206784
vn 0.91532176 -0.22374110 0.33485221
vn 0.91532176 -0.28476840 0.28476840
vn 0.91532176 -0.33485221 0.22374110
vn 0.91532176 -0.37206784 0.15411555
vn 0.91084680 -0.40847822 0.05919160
vn 0.91948102 -0.39264310 -0.01964830
vn 0.91532176 -0.39498512 -0.07856742
vn 0.91532176 -0.37206784 -0.15411555
vn 0.91532176 -0.33485221 -0.22374110
vn 0.91532176 -0.28476840 -0.28476840
vn 0.91532176 -0.22374110 -0.33485221
vn 0.91532176 -0.15411555 -0.37206784
vn 0.91085516 -0.05922834 -0.40845426
vn 0.91947396 0.01961546 -0.39266127
vn 0.91532176 0.07856742 -0.39498512
vn 0.91532176 0.15411555 -0.37206784
vn 0.91532176 0.22374110 -0.33485221
vn 0.91532176 0.28476840 -0.28476840
vn 0.91532176 0.33485221 -0.22374110
vn 0.91532176 0.37206784 -0.15411555
vn 0.91084680 0.40847822 -0.05919160
f 49//49 16//16 17//17
f 57//57 24//24 25//25
f 1//1 33//33 32//32
f 32//32 33//33 64//64
f 48//48 16//16 49//49
f 128//128 65//65 97//97
f 56//56 24//24 57//57
f 89//89 121//121 120//120
f 120//120 88//88 89//89
f 81//81 113//113 112//112
f 65//65 128//128 96//96
f 80//80 81//81 112//112
f 105//105 104//104 73//73
f 104//104 72//72 73//73
f 40//40 8//8 41//41
f 41//41 8//8 9//9
f 88//88 56//56 89//89
f 89//89 56//56 57//57
f 33//33 65//65 96//96
f 64//64 33//33 96//96
f 55//55 56//56 88//88
f 88//88 87//87 55//55
f 58//58 89//89 57//57
f 90//90 89//89 58//58
f 49//49 81//81 80//80
f 80//80 48//48 49//49
f 46//46 45//45 13//13
f 13//13 14//14 46//46
f 122//122 89//89 90//90
f 121//121 89//89 122//122
f 49//49 17//17 18//18
f 18//18 50//50 49//49
f 51//51 50//50 18//18
f 18//18 19//19 51//51
f 20//20 21//21 53//53
f 53//53 52//52 20//20
f 51//51 19//19 20//20
f 20//20 52//52 51//51
f 48//48 80//80 47//47
f 47//47 80//80 79//79
f 47//47 15//15 16//16
f 16//16 48//48 47//47
f 14//14 15//15 47//47
f 46//46 14//14 47//47
f 26//26 58//58 57//57
f 57//57 25//25 26//26
f 31//31 32//32 64//64
f 64//64 63//63 31//31
f 79//79 80//80 111//111
f 111//111 80//80 112//112
f 108//108 77//77 109//109
f 76//76 77//77 108//108
f 108//108 107//107 75//75
f 75//75 76//76 108//108
f 44//44 11//11 12//12
f 43//43 11//11 44//44
f 44//44 76//76 75//75
f 75//75 43//43 44//44
f 12//12 13//13 44//44
f 44//44 13//13 45//45
f 44//44 77//77 76//76
f 45//45 77//77 44//44
f 59//59 26//26 27//27
f 58//58 26//26 59//59
f 59//59 27//27 28//28
f 28//28 60//60 59//59
f 119//119 87//87 88//88
f 119//119 88//88 120//120
f 82//82 81//81 49//49
f 49//49 50//50 82//82
f 86//86 119//119 118//118
f 87//87 119//119 86//86
f 86//86 55//55 87//87
f 86//86 54//54 55//55
f 53//53 21//21 22//22
f 22//22 54//54 53//53
f 7//7 8//8 40//40
f 40//40 39//39 7//7
f 2//2 34//34 33//33
f 2//2 33//33 1//1
f 68//68 67//67 35//35
f 68//68 35//35 36//36
f 66//66 65//65 33//33
f 33//33 34//34 66//66
f 35//35 67//67 66//66
f 66//66 34//34 35//35
f 6//6 7//7 38//38
f 38//38 7//7 39//39
f 78//78 45//45 46//46
f 78//78 77//77 45//45
f 78//78 110//110 109//109
f 109//109 77//77 78//78
f 78//78 47//47 79//79
f 46//46 47//47 78//78
f 78//78 111//111 110//110
f 79//79 111//111 78//78
f 64//64 96//96 95//95
f 95//95 63//63 64//64
f 91//91 122//122 90//90
f 123//123 122//122 91//91
f 90//90 58//58 91//91
f 58//58 59//59 91//91
f 91//91 124//124 123//123
f 91//91 92//92 124//124
f 91//91 59//59 60//60
f 60//60 92//92 91//91
f 29//29 60//60 28//28
f 29//29 61//61 60//60
f 81//81 82//82 114//114
f 113//113 81//81 114//114
f 51//51 52//52 83//83
f 52//52 84//84 83//83
f 83//83 50//50 51//51
f 83//83 82//82 50//50
f 115//115 114//114 83//83
f 83//83 114//114 82//82
f 116//116 83//83 84//84
f 115//115 83//83 116//116
f 54//54 86//86 85//85
f 53//53 54//54 85//85
f 85//85 118//118 117//117
f 85//85 86//86 118//118
f 85//85 52//52 53//53
f 85//85 84//84 52//52
f 117//117 116//116 85//85
f 85//85 116//116 84//84
f 56//56 55//55 23//23
f 24//24 56//56 23//23
f 55//55 54//54 23//23
f 54//54 22//22 23//23
f 37//37 68//68 36//36
f 69//69 68//68 37//37
f 4//4 5//5 37//37
f 36//36 4//4 37//37
f 37//37 5//5 6//6
f 6//6 38//38 37//37
f 36//36 35//35 3//3
f 3//3 4//4 36//36
f 34//34 2//2 3//3
f 35//35 34//34 3//3
f 65//65 66//66 98//98
f 97//97 65//65 98//98
f 101//101 68//68 69//69
f 100//100 68//68 101//101
f 69//69 37//37 70//70
f 70//70 37//37 38//38
f 10//10 25//25 24//24
f 1//1 32//32 10//10
f 6//6 5//5 10//10
f 10//10 17//17 16//16
f 12//12 11//11 10//10
f 10//10 2//2 1//1
f 28//28 27//27 10//10
f 9//9 8//8 10//10
f 16//16 15//15 10//10
f 32//32 31//31 10//10
f 21//21 20//20 10//10
f 10//10 26//26 25//25
f 10//10 13//13 12//12
f 10//10 18//18 17//17
f 10//10 15//15 14//14
f 14//14 13//13 10//10
f 10//10 29//29 28//28
f 10//10 7//7 6//6
f 19//19 18//18 10//10
f 10//10 20//20 19//19
f 27//27 26//26 10//10
f 10//10 31//31 30//30
f 4//4 3//3 10//10
f 10//10 22//22 21//21
f 8//8 7//7 10//10
f 10//10 5//5 4//4
f 24//24 23//23 10//10
f 30//30 29//29 10//10
f 10//10 23//23 22//22
f 10//10 3//3 2//2
f 10//10 11//11 43//43
f 43//43 42//42 10//10
f 127//127 95//95 96//96
f 127//127 96//96 128//128
f 126//126 94//94 127//127
f 127//127 94//94 95//95
f 93//93 126//126 125//125
f 93//93 94//94 126//126
f 125//125 124//124 93//93
f 124//124 92//92 93//93
f 93//93 92//92 60//60
f 60//60 61//61 93//93
f 30//30 31//31 62//62
f 62//62 31//31 63//63
f 63//63 95//95 62//62
f 95//95 94//94 62//62
f 62//62 29//29 30//30
f 61//61 29//29 62//62
f 94//94 93//93 62//62
f 62//62 93//93 61//61
f 67//67 68//68 99//99
f 99//99 68//68 100//100
f 99//99 66//66 67//67
f 99//99 98//98 66//66
f 102//102 103//103 104//104
f 102//102 108//108 109//109
f 102//102 111//111 112//112
f 120//120 121//121 102//102
f 102//102 104//104 105//105
f 112//112 113//113 102//102
f 102//102 116//116 117//117
f 102//102 128//128 97//97
f 121//121 122//122 102//102
f 123//123 124//124 102//102
f 102//102 119//119 120//120
f 109//109 110//110 102//102
f 105//105 106//106 102//102
f 102//102 122//122 123//123
f 100//100 101//101 102//102
f 117//117 118//118 102//102
f 113//113 114//114 102//102
f 110//110 111//111 102//102
f 102//102 106//106 107//107
f 107//107 108//108 102//102
f 125//125 126//126 102//102
f 102//102 124//124 125//125
f 118//118 119//119 102//102
f 97//97 98//98 102//102
f 102//102 114//114 115//115
f 115//115 116//116 102//102
f 102//102 127//127 128//128
f 102//102 99//99 100//100
f 126//126 127//127 102//102
f 98//98 99//99 102//102
f 102//102 101//101 69//69
f 69//69 70//70 102//102
f 71//71 38//38 39//39
f 71//71 70//70 38//38
f 103//103 102//102 71//71
f 71//71 102//102 70//70
f 71//71 39//39 40//40
f 40//40 72//72 71//71
f 104//104 103//103 71//71
f 71//71 72//72 104//104
f 74//74 106//106 105//105
f 105//105 73//73 74//74
f 107//107 106//106 74//74
f 75//75 107//107 74//74
f 74//74 43//43 75//75
f 74//74 42//42 43//43
f 41//41 72//72 40//40
f 41//41 73//73 72//72
f 9//9 10//10 41//41
f 41//41 10//10 42//42
f 41//41 74//74 73//73
f 42//42 74//74 41//41
