# Independent procedural camera geometry; meters; Z up
o top_microphone
v -0.0010700000 0.0000000000 0.0528225000
v -0.0007200000 0.0000000000 0.0528225000
v -0.0007229943 0.0000456842 0.0528225000
v -0.0007319260 0.0000905867 0.0528225000
v -0.0007466422 0.0001339392 0.0528225000
v -0.0007668911 0.0001750000 0.0528225000
v -0.0007923263 0.0002130665 0.0528225000
v -0.0008225126 0.0002474874 0.0528225000
v -0.0008569335 0.0002776737 0.0528225000
v -0.0008950000 0.0003031089 0.0528225000
v -0.0009360608 0.0003233578 0.0528225000
v -0.0009794133 0.0003380740 0.0528225000
v -0.0010243158 0.0003470057 0.0528225000
v -0.0010700000 0.0003500000 0.0528225000
v -0.0011156842 0.0003470057 0.0528225000
v -0.0011605867 0.0003380740 0.0528225000
v -0.0012039392 0.0003233578 0.0528225000
v -0.0012450000 0.0003031089 0.0528225000
v -0.0012830665 0.0002776737 0.0528225000
v -0.0013174874 0.0002474874 0.0528225000
v -0.0013476737 0.0002130665 0.0528225000
v -0.0013731089 0.0001750000 0.0528225000
v -0.0013933578 0.0001339392 0.0528225000
v -0.0014080740 0.0000905867 0.0528225000
v -0.0014170057 0.0000456842 0.0528225000
v -0.0014200000 0.0000000000 0.0528225000
v -0.0014170057 -0.0000456842 0.0528225000
v -0.0014080740 -0.0000905867 0.0528225000
v -0.0013933578 -0.0001339392 0.0528225000
v -0.0013731089 -0.0001750000 0.0528225000
v -0.0013476737 -0.0002130665 0.0528225000
v -0.0013174874 -0.0002474874 0.0528225000
v -0.0012830665 -0.0002776737 0.0528225000
v -0.0012450000 -0.0003031089 0.0528225000
v -0.0012039392 -0.0003233578 0.0528225000
v -0.0011605867 -0.0003380740 0.0528225000
v -0.0011156842 -0.0003470057 0.0528225000
v -0.0010700000 -0.0003500000 0.0528225000
v -0.0010243158 -0.0003470057 0.0528225000
v -0.0009794133 -0.0003380740 0.0528225000
v -0.0009360608 -0.0003233578 0.0528225000
v -0.0008950000 -0.0003031089 0.0528225000
v -0.0008569335 -0.0002776737 0.0528225000
v -0.0008225126 -0.0002474874 0.0528225000
v -0.0007923263 -0.0002130665 0.0528225000
v -0.0007668911 -0.0001750000 0.0528225000
v -0.0007466422 -0.0001339392 0.0528225000
v -0.0007319260 -0.0000905867 0.0528225000
v -0.0007229943 -0.0000456842 0.0528225000
v -0.0007200000 0.0000000000 0.0528225000
v -0.0007229943 0.0000456842 0.0528225000
v -0.0007319260 0.0000905867 0.0528225000
v -0.0007466422 0.0001339392 0.0528225000
v -0.0007668911 0.0001750000 0.0528225000
v -0.0007923263 0.0002130665 0.0528225000
v -0.0008225126 0.0002474874 0.0528225000
v -0.0008569335 0.0002776737 0.0528225000
v -0.0008950000 0.0003031089 0.0528225000
v -0.0009360608 0.0003233578 0.0528225000
v -0.0009794133 0.0003380740 0.0528225000
v -0.0010243158 0.0003470057 0.0528225000
v -0.0010700000 0.0003500000 0.0528225000
v -0.0011156842 0.0003470057 0.0528225000
v -0.0011605867 0.0003380740 0.0528225000
v -0.0012039392 0.0003233578 0.0528225000
v -0.0012450000 0.0003031089 0.0528225000
v -0.0012830665 0.0002776737 0.0528225000
v -0.0013174874 0.0002474874 0.0528225000
v -0.0013476737 0.0002130665 0.0528225000
v -0.0013731089 0.0001750000 0.0528225000
v -0.0013933578 0.0001339392 0.0528225000
v -0.0014080740 0.0000905867 0.0528225000
v -0.0014170057 0.0000456842 0.0528225000
v -0.0014200000 0.0000000000 0.0528225000
v -0.0014170057 -0.0000456842 0.0528225000
v -0.0014080740 -0.0000905867 0.0528225000
v -0.0013933578 -0.0001339392 0.0528225000
v -0.0013731089 -0.0001750000 0.0528225000
v -0.0013476737 -0.0002130665 0.0528225000
v -0.0013174874 -0.0002474874 0.0528225000
v -0.0012830665 -0.0002776737 0.0528225000
v -0.0012450000 -0.0003031089 0.0528225000
v -0.0012039392 -0.0003233578 0.0528225000
v -0.0011605867 -0.0003380740 0.0528225000
v -0.0011156842 -0.0003470057 0.0528225000
v -0.0010700000 -0.0003500000 0.0528225000
v -0.0010243158 -0.0003470057 0.0528225000
v -0.0009794133 -0.0003380740 0.0528225000
v -0.0009360608 -0.0003233578 0.0528225000
v -0.0008950000 -0.0003031089 0.0528225000
v -0.0008569335 -0.0002776737 0.0528225000
v -0.0008225126 -0.0002474874 0.0528225000
v -0.0007923263 -0.0002130665 0.0528225000
v -0.0007668911 -0.0001750000 0.0528225000
v -0.0007466422 -0.0001339392 0.0528225000
v -0.0007319260 -0.0000905867 0.0528225000
v -0.0007229943 -0.0000456842 0.0528225000
v -0.0007200000 0.0000000000 0.0528975000
v -0.0007229943 0.0000456842 0.0528975000
v -0.0007319260 0.0000905867 0.0528975000
v -0.0007466422 0.0001339392 0.0528975000
v -0.0007668911 0.0001750000 0.0528975000
v -0.0007923263 0.0002130665 0.0528975000
v -0.0008225126 0.0002474874 0.0528975000
v -0.0008569335 0.0002776737 0.0528975000
v -0.0008950000 0.0003031089 0.0528975000
v -0.0009360608 0.0003233578 0.0528975000
v -0.0009794133 0.0003380740 0.0528975000
v -0.0010243158 0.0003470057 0.0528975000
v -0.0010700000 0.0003500000 0.0528975000
v -0.0011156842 0.0003470057 0.0528975000
v -0.0011605867 0.0003380740 0.0528975000
v -0.0012039392 0.0003233578 0.0528975000
v -0.0012450000 0.0003031089 0.0528975000
v -0.0012830665 0.0002776737 0.0528975000
v -0.0013174874 0.0002474874 0.0528975000
v -0.0013476737 0.0002130665 0.0528975000
v -0.0013731089 0.0001750000 0.0528975000
v -0.0013933578 0.0001339392 0.0528975000
v -0.0014080740 0.0000905867 0.0528975000
v -0.0014170057 0.0000456842 0.0528975000
v -0.0014200000 0.0000000000 0.0528975000
v -0.0014170057 -0.0000456842 0.0528975000
v -0.0014080740 -0.0000905867 0.0528975000
v -0.0013933578 -0.0001339392 0.0528975000
v -0.0013731089 -0.0001750000 0.0528975000
v -0.0013476737 -0.0002130665 0.0528975000
v -0.0013174874 -0.0002474874 0.0528975000
v -0.0012830665 -0.0002776737 0.0528975000
v -0.0012450000 -0.0003031089 0.0528975000
v -0.0012039392 -0.0003233578 0.0528975000
v -0.0011605867 -0.0003380740 0.0528975000
v -0.0011156842 -0.0003470057 0.0528975000
v -0.0010700000 -0.0003500000 0.0528975000
v -0.0010243158 -0.0003470057 0.0528975000
v -0.0009794133 -0.0003380740 0.0528975000
v -0.0009360608 -0.0003233578 0.0528975000
v -0.0008950000 -0.0003031089 0.0528975000
v -0.0008569335 -0.0002776737 0.0528975000
v -0.0008225126 -0.0002474874 0.0528975000
v -0.0007923263 -0.0002130665 0.0528975000
v -0.0007668911 -0.0001750000 0.0528975000
v -0.0007466422 -0.0001339392 0.0528975000
v -0.0007319260 -0.0000905867 0.0528975000
v -0.0007229943 -0.0000456842 0.0528975000
v -0.0007200000 0.0000000000 0.0528975000
v -0.0007229943 0.0000456842 0.0528975000
v -0.0007319260 0.0000905867 0.0528975000
v -0.0007466422 0.0001339392 0.0528975000
v -0.0007668911 0.0001750000 0.0528975000
v -0.0007923263 0.0002130665 0.0528975000
v -0.0008225126 0.0002474874 0.0528975000
v -0.0008569335 0.0002776737 0.0528975000
v -0.0008950000 0.0003031089 0.0528975000
v -0.0009360608 0.0003233578 0.0528975000
v -0.0009794133 0.0003380740 0.0528975000
v -0.0010243158 0.0003470057 0.0528975000
v -0.0010700000 0.0003500000 0.0528975000
v -0.0011156842 0.0003470057 0.0528975000
v -0.0011605867 0.0003380740 0.0528975000
v -0.0012039392 0.0003233578 0.0528975000
v -0.0012450000 0.0003031089 0.0528975000
v -0.0012830665 0.0002776737 0.0528975000
v -0.0013174874 0.0002474874 0.0528975000
v -0.0013476737 0.0002130665 0.0528975000
v -0.0013731089 0.0001750000 0.0528975000
v -0.0013933578 0.0001339392 0.0528975000
v -0.0014080740 0.0000905867 0.0528975000
v -0.0014170057 0.0000456842 0.0528975000
v -0.0014200000 0.0000000000 0.0528975000
v -0.0014170057 -0.0000456842 0.0528975000
v -0.0014080740 -0.0000905867 0.0528975000
v -0.0013933578 -0.0001339392 0.0528975000
v -0.0013731089 -0.0001750000 0.0528975000
v -0.0013476737 -0.0002130665 0.0528975000
v -0.0013174874 -0.0002474874 0.0528975000
v -0.0012830665 -0.0002776737 0.0528975000
v -0.0012450000 -0.0003031089 0.0528975000
v -0.0012039392 -0.0003233578 0.0528975000
v -0.0011605867 -0.0003380740 0.0528975000
v -0.0011156842 -0.0003470057 0.0528975000
v -0.0010700000 -0.0003500000 0.0528975000
v -0.0010243158 -0.0003470057 0.0528975000
v -0.0009794133 -0.0003380740 0.0528975000
v -0.0009360608 -0.0003233578 0.0528975000
v -0.0008950000 -0.0003031089 0.0528975000
v -0.0008569335 -0.0002776737 0.0528975000
v -0.0008225126 -0.0002474874 0.0528975000
v -0.0007923263 -0.0002130665 0.0528975000
v -0.0007668911 -0.0001750000 0.0528975000
v -0.0007466422 -0.0001339392 0.0528975000
v -0.0007319260 -0.0000905867 0.0528975000
v -0.0007229943 -0.0000456842 0.0528975000
v -0.0010700000 0.0000000000 0.0528975000
vn 0.00000000 0.00000000 -1.00000000
vn 0.00000000 0.00000000 -1.00000000
vn 0.00000000 0.00000000 -1.00000000
vn 0.00000000 0.00000000 -1.00000000
vn 0.00000000 0.00000000 -1.00000000
vn 0.00000000 0.00000000 -1.00000000
vn 0.00000000 0.00000000 -1.00000000
vn 0.00000000 0.00000000 -1.00000000
vn 0.00000000 0.00000000 -1.00000000
vn 0.00000000 0.00000000 -1.00000000
vn 0.00000000 0.00000000 -1.00000000
vn 0.00000000 0.00000000 -1.00000000
vn 0.00000000 0.00000000 -1.00000000
vn 0.00000000 0.00000000 -1.00000000
vn 0.00000000 0.00000000 -1.00000000
vn 0.00000000 0.00000000 -1.00000000
vn 0.00000000 0.00000000 -1.00000000
vn 0.00000000 0.00000000 -1.00000000
vn 0.00000000 0.00000000 -1.00000000
vn 0.00000000 0.00000000 -1.00000000
vn 0.00000000 0.00000000 -1.00000000
vn 0.00000000 0.00000000 -1.00000000
vn 0.00000000 0.00000000 -1.00000000
vn 0.00000000 0.00000000 -1.00000000
vn 0.00000000 0.00000000 -1.00000000
vn 0.00000000 0.00000000 -1.00000000
vn 0.00000000 0.00000000 -1.00000000
vn 0.00000000 0.00000000 -1.00000000
vn 0.00000000 0.00000000 -1.00000000
vn 0.00000000 0.00000000 -1.00000000
vn 0.00000000 0.00000000 -1.00000000
vn 0.00000000 0.00000000 -1.00000000
vn 0.00000000 0.00000000 -1.00000000
vn 0.00000000 0.00000000 -1.00000000
vn 0.00000000 0.00000000 -1.00000000
vn 0.00000000 0.00000000 -1.00000000
vn 0.00000000 0.00000000 -1.00000000
vn 0.00000000 0.00000000 -1.00000000
vn 0.00000000 0.00000000 -1.00000000
vn 0.00000000 0.00000000 -1.00000000
vn 0.00000000 0.00000000 -1.00000000
vn 0.00000000 0.00000000 -1.00000000
vn 0.00000000 0.00000000 -1.00000000
vn 0.00000000 0.00000000 -1.00000000
vn 0.00000000 0.00000000 -1.00000000
vn 0.00000000 0.00000000 -1.00000000
vn 0.00000000 0.00000000 -1.00000000
vn 0.00000000 0.00000000 -1.00000000
vn 0.00000000 0.00000000 -1.00000000
vn 1.00000000 0.00000000 0.00000000
vn 0.99144486 0.13052619 0.00000000
vn 0.96592583 0.25881905 0.00000000
vn 0.92387953 0.38268343 0.00000000
vn 0.86602540 0.50000000 0.00000000
vn 0.79335334 0.60876143 0.00000000
vn 0.70710678 0.70710678 0.00000000
vn 0.60876143 0.79335334 0.00000000
vn 0.50000000 0.86602540 0.00000000
vn 0.38268343 0.92387953 0.00000000
vn 0.25881905 0.96592583 0.00000000
vn 0.13052619 0.99144486 0.00000000
vn 0.00000000 1.00000000 0.00000000
vn -0.13052619 0.99144486 0.00000000
vn -0.25881905 0.96592583 0.00000000
vn -0.38268343 0.92387953 0.00000000
vn -0.50000000 0.86602540 0.00000000
vn -0.60876143 0.79335334 0.00000000
vn -0.70710678 0.70710678 0.00000000
vn -0.79335334 0.60876143 0.00000000
vn -0.86602540 0.50000000 0.00000000
vn -0.92387953 0.38268343 0.00000000
vn -0.96592583 0.25881905 0.00000000
vn -0.99144486 0.13052619 0.00000000
vn -1.00000000 0.00000000 0.00000000
vn -0.99144486 -0.13052619 0.00000000
vn -0.96592583 -0.25881905 0.00000000
vn -0.92387953 -0.38268343 0.00000000
vn -0.86602540 -0.50000000 0.00000000
vn -0.79335334 -0.60876143 0.00000000
vn -0.70710678 -0.70710678 0.00000000
vn -0.60876143 -0.79335334 0.00000000
vn -0.50000000 -0.86602540 0.00000000
vn -0.38268343 -0.92387953 0.00000000
vn -0.25881905 -0.96592583 0.00000000
vn -0.13052619 -0.99144486 0.00000000
vn -0.00000000 -1.00000000 0.00000000
vn 0.13052619 -0.99144486 0.00000000
vn 0.25881905 -0.96592583 0.00000000
vn 0.38268343 -0.92387953 0.00000000
vn 0.50000000 -0.86602540 0.00000000
vn 0.60876143 -0.79335334 0.00000000
vn 0.70710678 -0.70710678 0.00000000
vn 0.79335334 -0.60876143 0.00000000
vn 0.86602540 -0.50000000 0.00000000
vn 0.92387953 -0.38268343 0.00000000
vn 0.96592583 -0.25881905 0.00000000
vn 0.99144486 -0.13052619 0.00000000
vn 1.00000000 0.00000000 0.00000000
vn 0.99144486 0.13052619 0.00000000
vn 0.96592583 0.25881905 0.00000000
vn 0.92387953 0.38268343 0.00000000
vn 0.86602540 0.50000000 0.00000000
vn 0.79335334 0.60876143 0.00000000
vn 0.70710678 0.70710678 0.00000000
vn 0.60876143 0.79335334 0.00000000
vn 0.50000000 0.86602540 0.00000000
vn 0.38268343 0.92387953 0.00000000
vn 0.25881905 0.96592583 0.00000000
vn 0.13052619 0.99144486 0.00000000
vn 0.00000000 1.00000000 0.00000000
vn -0.13052619 0.99144486 0.00000000
vn -0.25881905 0.96592583 0.00000000
vn -0.38268343 0.92387953 0.00000000
vn -0.50000000 0.86602540 0.00000000
vn -0.60876143 0.79335334 0.00000000
vn -0.70710678 0.70710678 0.00000000
vn -0.79335334 0.60876143 0.00000000
vn -0.86602540 0.50000000 0.00000000
vn -0.92387953 0.38268343 0.00000000
vn -0.96592583 0.25881905 0.00000000
vn -0.99144486 0.13052619 0.00000000
vn -1.00000000 0.00000000 0.00000000
vn -0.99144486 -0.13052619 0.00000000
vn -0.96592583 -0.25881905 0.00000000
vn -0.92387953 -0.38268343 0.00000000
vn -0.86602540 -0.50000000 0.00000000
vn -0.79335334 -0.60876143 0.00000000
vn -0.70710678 -0.70710678 0.00000000
vn -0.60876143 -0.79335334 0.00000000
vn -0.50000000 -0.86602540 0.00000000
vn -0.38268343 -0.92387953 0.00000000
vn -0.25881905 -0.96592583 0.00000000
vn -0.13052619 -0.99144486 0.00000000
vn -0.00000000 -1.00000000 0.00000000
vn 0.13052619 -0.99144486 0.00000000
vn 0.25881905 -0.96592583 0.00000000
vn 0.38268343 -0.92387953 0.00000000
vn 0.50000000 -0.86602540 0.00000000
vn 0.60876143 -0.79335334 0.00000000
vn 0.70710678 -0.70710678 0.00000000
vn 0.79335334 -0.60876143 0.00000000
vn 0.86602540 -0.50000000 0.00000000
vn 0.92387953 -0.38268343 0.00000000
vn 0.96592583 -0.25881905 0.00000000
vn 0.99144486 -0.13052619 0.00000000
vn 0.00000000 0.00000000 1.00000000
vn 0.00000000 0.00000000 1.00000000
vn 0.00000000 0.00000000 1.00000000
vn 0.00000000 0.00000000 1.00000000
vn 0.00000000 0.00000000 1.00000000
vn 0.00000000 0.00000000 1.00000000
vn 0.00000000 0.00000000 1.00000000
vn 0.00000000 0.00000000 1.00000000
vn 0.00000000 0.00000000 1.00000000
vn 0.00000000 0.00000000 1.00000000
vn 0.00000000 0.00000000 1.00000000
vn 0.00000000 0.00000000 1.00000000
vn 0.00000000 0.00000000 1.00000000
vn 0.00000000 0.00000000 1.00000000
vn 0.00000000 0.00000000 1.00000000
vn 0.00000000 0.00000000 1.00000000
vn 0.00000000 0.00000000 1.00000000
vn 0.00000000 0.00000000 1.00000000
vn 0.00000000 0.00000000 1.00000000
vn 0.00000000 0.00000000 1.00000000
vn 0.00000000 0.00000000 1.00000000
vn 0.00000000 0.00000000 1.00000000
vn 0.00000000 0.00000000 1.00000000
vn 0.00000000 0.00000000 1.00000000
vn 0.00000000 0.00000000 1.00000000
vn 0.00000000 0.00000000 1.00000000
vn 0.00000000 0.00000000 1.00000000
vn 0.00000000 0.00000000 1.00000000
vn 0.00000000 0.00000000 1.00000000
vn 0.00000000 0.00000000 1.00000000
vn 0.00000000 0.00000000 1.00000000
vn 0.00000000 0.00000000 1.00000000
vn 0.00000000 0.00000000 1.00000000
vn 0.00000000 0.00000000 1.00000000
vn 0.00000000 0.00000000 1.00000000
vn 0.00000000 0.00000000 1.00000000
vn 0.00000000 0.00000000 1.00000000
vn 0.00000000 0.00000000 1.00000000
vn 0.00000000 0.00000000 1.00000000
vn 0.00000000 0.00000000 1.00000000
vn 0.00000000 0.00000000 1.00000000
vn 0.00000000 0.00000000 1.00000000
vn 0.00000000 0.00000000 1.00000000
vn 0.00000000 0.00000000 1.00000000
vn 0.00000000 0.00000000 1.00000000
vn 0.00000000 0.00000000 1.00000000
vn 0.00000000 0.00000000 1.00000000
vn 0.00000000 0.00000000 1.00000000
vn 0.00000000 0.00000000 1.00000000
f 3//3 2//2 1//1
f 29//29 28//28 1//1
f 30//30 29//29 1//1
f 31//31 30//30 1//1
f 32//32 31//31 1//1
f 33//33 32//32 1//1
f 34//34 33//33 1//1
f 35//35 34//34 1//1
f 36//36 35//35 1//1
f 37//37 36//36 1//1
f 38//38 37//37 1//1
f 39//39 38//38 1//1
f 40//40 39//39 1//1
f 41//41 40//40 1//1
f 42//42 41//41 1//1
f 43//43 42//42 1//1
f 44//44 43//43 1//1
f 45//45 44//44 1//1
f 46//46 45//45 1//1
f 47//47 46//46 1//1
f 48//48 47//47 1//1
f 49//49 48//48 1//1
f 28//28 27//27 1//1
f 27//27 26//26 1//1
f 2//2 49//49 1//1
f 25//25 24//24 1//1
f 26//26 25//25 1//1
f 4//4 3//3 1//1
f 5//5 4//4 1//1
f 6//6 5//5 1//1
f 7//7 6//6 1//1
f 8//8 7//7 1//1
f 10//10 9//9 1//1
f 11//11 10//10 1//1
f 12//12 11//11 1//1
f 13//13 12//12 1//1
f 9//9 8//8 1//1
f 15//15 14//14 1//1
f 16//16 15//15 1//1
f 17//17 16//16 1//1
f 18//18 17//17 1//1
f 24//24 23//23 1//1
f 19//19 18//18 1//1
f 20//20 19//19 1//1
f 21//21 20//20 1//1
f 22//22 21//21 1//1
f 23//23 22//22 1//1
f 14//14 13//13 1//1
f 82//82 130//130 81//81
f 131//131 130//130 82//82
f 83//83 131//131 82//82
f 134//134 133//133 85//85
f 84//84 132//132 83//83
f 133//133 132//132 84//84
f 85//85 133//133 84//84
f 130//130 129//129 81//81
f 132//132 131//131 83//83
f 81//81 129//129 80//80
f 124//124 123//123 75//75
f 80//80 128//128 79//79
f 128//128 127//127 79//79
f 79//79 127//127 78//78
f 127//127 126//126 78//78
f 78//78 126//126 77//77
f 126//126 125//125 77//77
f 77//77 125//125 76//76
f 125//125 124//124 76//76
f 76//76 124//124 75//75
f 86//86 134//134 85//85
f 129//129 128//128 80//80
f 135//135 134//134 86//86
f 92//92 140//140 91//91
f 136//136 135//135 87//87
f 75//75 123//123 74//74
f 50//50 98//98 97//97
f 98//98 145//145 97//97
f 97//97 145//145 96//96
f 145//145 144//144 96//96
f 96//96 144//144 95//95
f 144//144 143//143 95//95
f 95//95 143//143 94//94
f 143//143 142//142 94//94
f 94//94 142//142 93//93
f 142//142 141//141 93//93
f 93//93 141//141 92//92
f 141//141 140//140 92//92
f 140//140 139//139 91//91
f 91//91 139//139 90//90
f 139//139 138//138 90//90
f 90//90 138//138 89//89
f 138//138 137//137 89//89
f 89//89 137//137 88//88
f 137//137 136//136 88//88
f 88//88 136//136 87//87
f 87//87 135//135 86//86
f 123//123 122//122 74//74
f 74//74 122//122 73//73
f 122//122 121//121 73//73
f 109//109 108//108 60//60
f 60//60 108//108 59//59
f 108//108 107//107 59//59
f 59//59 107//107 58//58
f 107//107 106//106 58//58
f 58//58 106//106 57//57
f 106//106 105//105 57//57
f 57//57 105//105 56//56
f 56//56 104//104 55//55
f 61//61 109//109 60//60
f 104//104 103//103 55//55
f 103//103 102//102 54//54
f 54//54 102//102 53//53
f 102//102 101//101 53//53
f 53//53 101//101 52//52
f 101//101 100//100 52//52
f 52//52 100//100 51//51
f 100//100 99//99 51//51
f 51//51 99//99 50//50
f 99//99 98//98 50//50
f 55//55 103//103 54//54
f 110//110 109//109 61//61
f 105//105 104//104 56//56
f 111//111 110//110 62//62
f 62//62 110//110 61//61
f 121//121 120//120 72//72
f 72//72 120//120 71//71
f 120//120 119//119 71//71
f 71//71 119//119 70//70
f 119//119 118//118 70//70
f 70//70 118//118 69//69
f 118//118 117//117 69//69
f 69//69 117//117 68//68
f 117//117 116//116 68//68
f 68//68 116//116 67//67
f 73//73 121//121 72//72
f 67//67 115//115 66//66
f 115//115 114//114 66//66
f 66//66 114//114 65//65
f 114//114 113//113 65//65
f 65//65 113//113 64//64
f 113//113 112//112 64//64
f 64//64 112//112 63//63
f 112//112 111//111 63//63
f 63//63 111//111 62//62
f 116//116 115//115 67//67
f 171//171 194//194 170//170
f 179//179 194//194 178//178
f 178//178 194//194 177//177
f 177//177 194//194 176//176
f 172//172 194//194 171//171
f 175//175 194//194 174//174
f 174//174 194//194 173//173
f 173//173 194//194 172//172
f 180//180 194//194 179//179
f 176//176 194//194 175//175
f 181//181 194//194 180//180
f 186//186 194//194 185//185
f 183//183 194//194 182//182
f 184//184 194//194 183//183
f 185//185 194//194 184//184
f 187//187 194//194 186//186
f 188//188 194//194 187//187
f 189//189 194//194 188//188
f 190//190 194//194 189//189
f 191//191 194//194 190//190
f 192//192 194//194 191//191
f 182//182 194//194 181//181
f 170//170 194//194 169//169
f 147//147 194//194 146//146
f 168//168 194//194 167//167
f 193//193 194//194 192//192
f 148//148 194//194 147//147
f 149//149 194//194 148//148
f 150//150 194//194 149//149
f 151//151 194//194 150//150
f 152//152 194//194 151//151
f 153//153 194//194 152//152
f 154//154 194//194 153//153
f 155//155 194//194 154//154
f 156//156 194//194 155//155
f 157//157 194//194 156//156
f 158//158 194//194 157//157
f 159//159 194//194 158//158
f 160//160 194//194 159//159
f 161//161 194//194 160//160
f 162//162 194//194 161//161
f 163//163 194//194 162//162
f 164//164 194//194 163//163
f 165//165 194//194 164//164
f 166//166 194//194 165//165
f 167//167 194//194 166//166
f 169//169 194//194 168//168
f 146//146 194//194 193//193
