# Independent procedural camera geometry; meters; Z up
o status_light
v 0.0061600000 0.0017600000 0.0054150000
v 0.0061600000 0.0017563492 0.0054520672
v 0.0061600000 0.0017455371 0.0054877099
v 0.0061600000 0.0017279792 0.0055205583
v 0.0061600000 0.0017043503 0.0055493503
v 0.0061600000 0.0016755583 0.0055729792
v 0.0061600000 0.0016427099 0.0055905371
v 0.0061600000 0.0016070672 0.0056013492
v 0.0061600000 -0.0015700000 0.0056050000
v 0.0061600000 -0.0016070672 0.0056013492
v 0.0061600000 -0.0016427099 0.0055905371
v 0.0061600000 -0.0016755583 0.0055729792
v 0.0061600000 -0.0017043503 0.0055493503
v 0.0061600000 -0.0017279792 0.0055205583
v 0.0061600000 -0.0017455371 0.0054877099
v 0.0061600000 -0.0017563492 0.0054520672
v 0.0061600000 -0.0017600000 0.0051650000
v 0.0061600000 -0.0017563492 0.0051279328
v 0.0061600000 -0.0017455371 0.0050922901
v 0.0061600000 -0.0017279792 0.0050594417
v 0.0061600000 -0.0017043503 0.0050306497
v 0.0061600000 -0.0016755583 0.0050070208
v 0.0061600000 -0.0016427099 0.0049894629
v 0.0061600000 -0.0016070672 0.0049786508
v 0.0061600000 0.0015700000 0.0049750000
v 0.0061600000 0.0016070672 0.0049786508
v 0.0061600000 0.0016427099 0.0049894629
v 0.0061600000 0.0016755583 0.0050070208
v 0.0061600000 0.0017043503 0.0050306497
v 0.0061600000 0.0017279792 0.0050594417
v 0.0061600000 0.0017455371 0.0050922901
v 0.0061600000 0.0017563492 0.0051279328
v 0.0061700000 0.0017700000 0.0054150000
v 0.0061700000 0.0017661571 0.0054540181
v 0.0061700000 0.0017547759 0.0054915367
v 0.0061700000 0.0017362939 0.0055261140
v 0.0061700000 0.0017114214 0.0055564214
v 0.0061700000 0.0016811140 0.0055812939
v 0.0061700000 0.0016465367 0.0055997759
v 0.0061700000 0.0016090181 0.0056111571
v 0.0061700000 -0.0015700000 0.0056150000
v 0.0061700000 -0.0016090181 0.0056111571
v 0.0061700000 -0.0016465367 0.0055997759
v 0.0061700000 -0.0016811140 0.0055812939
v 0.0061700000 -0.0017114214 0.0055564214
v 0.0061700000 -0.0017362939 0.0055261140
v 0.0061700000 -0.0017547759 0.0054915367
v 0.0061700000 -0.0017661571 0.0054540181
v 0.0061700000 -0.0017700000 0.0051650000
v 0.0061700000 -0.0017661571 0.0051259819
v 0.0061700000 -0.0017547759 0.0050884633
v 0.0061700000 -0.0017362939 0.0050538860
v 0.0061700000 -0.0017114214 0.0050235786
v 0.0061700000 -0.0016811140 0.0049987061
v 0.0061700000 -0.0016465367 0.0049802241
v 0.0061700000 -0.0016090181 0.0049688429
v 0.0061700000 0.0015700000 0.0049650000
v 0.0061700000 0.0016090181 0.0049688429
v 0.0061700000 0.0016465367 0.0049802241
v 0.0061700000 0.0016811140 0.0049987061
v 0.0061700000 0.0017114214 0.0050235786
v 0.0061700000 0.0017362939 0.0050538860
v 0.0061700000 0.0017547759 0.0050884633
v 0.0061700000 0.0017661571 0.0051259819
v 0.0061900000 0.0017700000 0.0054150000
v 0.0061900000 0.0017661571 0.0054540181
v 0.0061900000 0.0017547759 0.0054915367
v 0.0061900000 0.0017362939 0.0055261140
v 0.0061900000 0.0017114214 0.0055564214
v 0.0061900000 0.0016811140 0.0055812939
v 0.0061900000 0.0016465367 0.0055997759
v 0.0061900000 0.0016090181 0.0056111571
v 0.0061900000 -0.0015700000 0.0056150000
v 0.0061900000 -0.0016090181 0.0056111571
v 0.0061900000 -0.0016465367 0.0055997759
v 0.0061900000 -0.0016811140 0.0055812939
v 0.0061900000 -0.0017114214 0.0055564214
v 0.0061900000 -0.0017362939 0.0055261140
v 0.0061900000 -0.0017547759 0.0054915367
v 0.0061900000 -0.0017661571 0.0054540181
v 0.0061900000 -0.0017700000 0.0051650000
v 0.0061900000 -0.0017661571 0.0051259819
v 0.0061900000 -0.0017547759 0.0050884633
v 0.0061900000 -0.0017362939 0.0050538860
v 0.0061900000 -0.0017114214 0.0050235786
v 0.0061900000 -0.0016811140 0.0049987061
v 0.0061900000 -0.0016465367 0.0049802241
v 0.0061900000 -0.0016090181 0.0049688429
v 0.0061900000 0.0015700000 0.0049650000
v 0.0061900000 0.0016090181 0.0049688429
v 0.0061900000 0.0016465367 0.0049802241
v 0.0061900000 0.0016811140 0.0049987061
v 0.0061900000 0.0017114214 0.0050235786
v 0.0061900000 0.0017362939 0.0050538860
v 0.0061900000 0.0017547759 0.0050884633
v 0.0061900000 0.0017661571 0.0051259819
v 0.0062000000 0.0017600000 0.0054150000
v 0.0062000000 0.0017563492 0.0054520672
v 0.0062000000 0.0017455371 0.0054877099
v 0.0062000000 0.0017279792 0.0055205583
v 0.0062000000 0.0017043503 0.0055493503
v 0.0062000000 0.0016755583 0.0055729792
v 0.0062000000 0.0016427099 0.0055905371
v 0.0062000000 0.0016070672 0.0056013492
v 0.0062000000 -0.0015700000 0.0056050000
v 0.0062000000 -0.0016070672 0.0056013492
v 0.0062000000 -0.0016427099 0.0055905371
v 0.0062000000 -0.0016755583 0.0055729792
v 0.0062000000 -0.0017043503 0.0055493503
v 0.0062000000 -0.0017279792 0.0055205583
v 0.0062000000 -0.0017455371 0.0054877099
v 0.0062000000 -0.0017563492 0.0054520672
v 0.0062000000 -0.0017600000 0.0051650000
v 0.0062000000 -0.0017563492 0.0051279328
v 0.0062000000 -0.0017455371 0.0050922901
v 0.0062000000 -0.0017279792 0.0050594417
v 0.0062000000 -0.0017043503 0.0050306497
v 0.0062000000 -0.0016755583 0.0050070208
v 0.0062000000 -0.0016427099 0.0049894629
v 0.0062000000 -0.0016070672 0.0049786508
v 0.0062000000 0.0015700000 0.0049750000
v 0.0062000000 0.0016070672 0.0049786508
v 0.0062000000 0.0016427099 0.0049894629
v 0.0062000000 0.0016755583 0.0050070208
v 0.0062000000 0.0017043503 0.0050306497
v 0.0062000000 0.0017279792 0.0050594417
v 0.0062000000 0.0017455371 0.0050922901
v 0.0062000000 0.0017563492 0.0051279328
vn -0.91897287 0.39394197 0.01727962
vn -0.91532176 0.39498512 0.07856742
vn -0.91532176 0.37206784 0.15411555
vn -0.91532176 0.33485221 0.22374110
vn -0.91532176 0.28476840 0.28476840
vn -0.91532176 0.22374110 0.33485221
vn -0.91532176 0.15411555 0.37206784
vn -0.91088407 0.05935543 0.40837133
vn -0.91945089 -0.01950811 0.39272064
vn -0.91532176 -0.07856742 0.39498512
vn -0.91532176 -0.15411555 0.37206784
vn -0.91532176 -0.22374110 0.33485221
vn -0.91532176 -0.28476840 0.28476840
vn -0.91532176 -0.33485221 0.22374110
vn -0.91532176 -0.37206784 0.15411555
vn -0.91145673 -0.40671780 0.06186481
vn -0.91897287 -0.39394197 -0.01727962
vn -0.91532176 -0.39498512 -0.07856742
vn -0.91532176 -0.37206784 -0.15411555
vn -0.91532176 -0.33485221 -0.22374110
vn -0.91532176 -0.28476840 -0.28476840
vn -0.91532176 -0.22374110 -0.33485221
vn -0.91532176 -0.15411555 -0.37206784
vn -0.91088407 -0.05935543 -0.40837133
vn -0.91945089 0.01950811 -0.39272064
vn -0.91532176 0.07856742 -0.39498512
vn -0.91532176 0.15411555 -0.37206784
vn -0.91532176 0.22374110 -0.33485221
vn -0.91532176 0.28476840 -0.28476840
vn -0.91532176 0.33485221 -0.22374110
vn -0.91532176 0.37206784 -0.15411555
vn -0.91145673 0.40671780 -0.06186481
vn -0.37771086 0.92510183 0.03900132
vn -0.37448906 0.90941484 0.18089386
vn -0.37448906 0.85665005 0.35483607
vn -0.37448906 0.77096468 0.51514213
vn -0.37448906 0.65565156 0.65565156
vn -0.37448906 0.51514213 0.77096468
vn -0.37448906 0.35483607 0.85665005
vn -0.37041302 0.13791526 0.91857149
vn -0.37820877 -0.04447841 0.92465118
vn -0.37448906 -0.18089386 0.90941484
vn -0.37448906 -0.35483607 0.85665005
vn -0.37448906 -0.51514213 0.77096468
vn -0.37448906 -0.65565156 0.65565156
vn -0.37448906 -0.77096468 0.51514213
vn -0.37448906 -0.85665005 0.35483607
vn -0.37093731 -0.91754051 0.14326525
vn -0.37771086 -0.92510183 -0.03900132
vn -0.37448906 -0.90941484 -0.18089386
vn -0.37448906 -0.85665005 -0.35483607
vn -0.37448906 -0.77096468 -0.51514213
vn -0.37448906 -0.65565156 -0.65565156
vn -0.37448906 -0.51514213 -0.77096468
vn -0.37448906 -0.35483607 -0.85665005
vn -0.37041302 -0.13791526 -0.91857149
vn -0.37820877 0.04447841 -0.92465118
vn -0.37448906 0.18089386 -0.90941484
vn -0.37448906 0.35483607 -0.85665005
vn -0.37448906 0.51514213 -0.77096468
vn -0.37448906 0.65565156 -0.65565156
vn -0.37448906 0.77096468 -0.51514213
vn -0.37448906 0.85665005 -0.35483607
vn -0.37093731 0.91754051 -0.14326525
vn 0.37771086 0.92510183 0.03900132
vn 0.37448906 0.90941484 0.18089386
vn 0.37448906 0.85665005 0.35483607
vn 0.37448906 0.77096468 0.51514213
vn 0.37448906 0.65565156 0.65565156
vn 0.37448906 0.51514213 0.77096468
vn 0.37448906 0.35483607 0.85665005
vn 0.37041302 0.13791526 0.91857149
vn 0.37820877 -0.04447841 0.92465118
vn 0.37448906 -0.18089386 0.90941484
vn 0.37448906 -0.35483607 0.85665005
vn 0.37448906 -0.51514213 0.77096468
vn 0.37448906 -0.65565156 0.65565156
vn 0.37448906 -0.77096468 0.51514213
vn 0.37448906 -0.85665005 0.35483607
vn 0.37093731 -0.91754051 0.14326525
vn 0.37771086 -0.92510183 -0.03900132
vn 0.37448906 -0.90941484 -0.18089386
vn 0.37448906 -0.85665005 -0.35483607
vn 0.37448906 -0.77096468 -0.51514213
vn 0.37448906 -0.65565156 -0.65565156
vn 0.37448906 -0.51514213 -0.77096468
vn 0.37448906 -0.35483607 -0.85665005
vn 0.37041302 -0.13791526 -0.91857149
vn 0.37820877 0.04447841 -0.92465118
vn 0.37448906 0.18089386 -0.90941484
vn 0.37448906 0.35483607 -0.85665005
vn 0.37448906 0.51514213 -0.77096468
vn 0.37448906 0.65565156 -0.65565156
vn 0.37448906 0.77096468 -0.51514213
vn 0.37448906 0.85665005 -0.35483607
vn 0.37093731 0.91754051 -0.14326525
vn 0.91897287 0.39394197 0.01727962
vn 0.91532176 0.39498512 0.07856742
vn 0.91532176 0.37206784 0.15411555
vn 0.91532176 0.33485221 0.22374110
vn 0.91532176 0.28476840 0.28476840
vn 0.91532176 0.22374110 0.33485221
vn 0.91532176 0.15411555 0.37206784
vn 0.91088407 0.05935543 0.40837133
vn 0.91945089 -0.01950811 0.39272064
vn 0.91532176 -0.07856742 0.39498512
vn 0.91532176 -0.15411555 0.37206784
vn 0.91532176 -0.22374110 0.33485221
vn 0.91532176 -0.28476840 0.28476840
vn 0.91532176 -0.33485221 0.22374110
vn 0.91532176 -0.37206784 0.15411555
vn 0.91145673 -0.40671780 0.06186481
vn 0.91897287 -0.39394197 -0.01727962
vn 0.91532176 -0.39498512 -0.07856742
vn 0.91532176 -0.37206784 -0.15411555
vn 0.91532176 -0.33485221 -0.22374110
vn 0.91532176 -0.28476840 -0.28476840
vn 0.91532176 -0.22374110 -0.33485221
vn 0.91532176 -0.15411555 -0.37206784
vn 0.91088407 -0.05935543 -0.40837133
vn 0.91945089 0.01950811 -0.39272064
vn 0.91532176 0.07856742 -0.39498512
vn 0.91532176 0.15411555 -0.37206784
vn 0.91532176 0.22374110 -0.33485221
vn 0.91532176 0.28476840 -0.28476840
vn 0.91532176 0.33485221 -0.22374110
vn 0.91532176 0.37206784 -0.15411555
vn 0.91145673 0.40671780 -0.06186481
f 56//56 24//24 57//57
f 89//89 121//121 120//120
f 57//57 24//24 25//25
f 41//41 40//40 8//8
f 88//88 89//89 120//120
f 1//1 33//33 32//32
f 32//32 33//33 64//64
f 16//16 17//17 49//49
f 97//97 128//128 65//65
f 65//65 128//128 96//96
f 73//73 105//105 104//104
f 104//104 72//72 73//73
f 48//48 16//16 49//49
f 41//41 8//8 9//9
f 113//113 112//112 81//81
f 81//81 112//112 80//80
f 57//57 89//89 88//88
f 88//88 56//56 57//57
f 105//105 74//74 106//106
f 73//73 74//74 105//105
f 41//41 73//73 72//72
f 72//72 40//40 41//41
f 32//32 64//64 63//63
f 63//63 31//31 32//32
f 65//65 96//96 64//64
f 64//64 33//33 65//65
f 63//63 64//64 95//95
f 64//64 96//96 95//95
f 95//95 128//128 127//127
f 96//96 128//128 95//95
f 103//103 71//71 104//104
f 104//104 71//71 72//72
f 53//53 21//21 22//22
f 22//22 54//54 53//53
f 57//57 25//25 26//26
f 26//26 58//58 57//57
f 26//26 59//59 58//58
f 27//27 59//59 26//26
f 90//90 89//89 57//57
f 57//57 58//58 90//90
f 40//40 72//72 39//39
f 72//72 71//71 39//39
f 53//53 54//54 85//85
f 85//85 54//54 86//86
f 60//60 27//27 28//28
f 60//60 59//59 27//27
f 28//28 29//29 60//60
f 60//60 29//29 61//61
f 5//5 37//37 36//36
f 36//36 4//4 5//5
f 38//38 37//37 5//5
f 5//5 6//6 38//38
f 56//56 88//88 55//55
f 88//88 87//87 55//55
f 86//86 54//54 55//55
f 55//55 87//87 86//86
f 55//55 23//23 24//24
f 24//24 56//56 55//55
f 54//54 22//22 55//55
f 22//22 23//23 55//55
f 53//53 85//85 52//52
f 52//52 85//85 84//84
f 52//52 21//21 53//53
f 52//52 20//20 21//21
f 49//49 17//17 18//18
f 18//18 50//50 49//49
f 99//99 68//68 100//100
f 67//67 68//68 99//99
f 63//63 95//95 62//62
f 95//95 94//94 62//62
f 62//62 94//94 93//93
f 93//93 61//61 62//62
f 62//62 31//31 63//63
f 62//62 30//30 31//31
f 62//62 29//29 30//30
f 61//61 29//29 62//62
f 126//126 95//95 127//127
f 126//126 94//94 95//95
f 40//40 39//39 7//7
f 7//7 8//8 40//40
f 38//38 6//6 7//7
f 7//7 39//39 38//38
f 115//115 114//114 82//82
f 115//115 82//82 83//83
f 92//92 60//60 61//61
f 92//92 61//61 93//93
f 36//36 37//37 69//69
f 69//69 68//68 36//36
f 69//69 101//101 100//100
f 100//100 68//68 69//69
f 35//35 68//68 67//67
f 36//36 68//68 35//35
f 35//35 4//4 36//36
f 35//35 3//3 4//4
f 81//81 114//114 113//113
f 82//82 114//114 81//81
f 49//49 50//50 81//81
f 81//81 50//50 82//82
f 81//81 48//48 49//49
f 81//81 80//80 48//48
f 15//15 48//48 47//47
f 16//16 48//48 15//15
f 44//44 75//75 43//43
f 76//76 75//75 44//44
f 42//42 74//74 73//73
f 42//42 73//73 41//41
f 43//43 75//75 42//42
f 42//42 75//75 74//74
f 106//106 74//74 107//107
f 74//74 75//75 107//107
f 107//107 75//75 76//76
f 76//76 108//108 107//107
f 48//48 80//80 79//79
f 47//47 48//48 79//79
f 79//79 112//112 111//111
f 80//80 112//112 79//79
f 110//110 79//79 111//111
f 78//78 79//79 110//110
f 83//83 82//82 51//51
f 82//82 50//50 51//51
f 51//51 52//52 84//84
f 51//51 84//84 83//83
f 51//51 18//18 19//19
f 50//50 18//18 51//51
f 19//19 20//20 51//51
f 20//20 52//52 51//51
f 97//97 65//65 98//98
f 65//65 66//66 98//98
f 67//67 99//99 98//98
f 98//98 66//66 67//67
f 125//125 92//92 93//93
f 124//124 92//92 125//125
f 93//93 94//94 125//125
f 94//94 126//126 125//125
f 89//89 90//90 122//122
f 121//121 89//89 122//122
f 58//58 59//59 91//91
f 91//91 90//90 58//58
f 59//59 60//60 91//91
f 60//60 92//92 91//91
f 123//123 122//122 91//91
f 91//91 122//122 90//90
f 124//124 123//123 91//91
f 91//91 92//92 124//124
f 70//70 39//39 71//71
f 38//38 39//39 70//70
f 70//70 37//37 38//38
f 70//70 69//69 37//37
f 103//103 102//102 70//70
f 70//70 71//71 103//103
f 102//102 101//101 70//70
f 101//101 69//69 70//70
f 1//1 2//2 34//34
f 34//34 33//33 1//1
f 2//2 3//3 34//34
f 3//3 35//35 34//34
f 34//34 65//65 33//33
f 34//34 66//66 65//65
f 34//34 35//35 67//67
f 67//67 66//66 34//34
f 12//12 13//13 45//45
f 45//45 44//44 12//12
f 10//10 42//42 41//41
f 41//41 9//9 10//10
f 76//76 44//44 77//77
f 44//44 45//45 77//77
f 116//116 115//115 83//83
f 83//83 84//84 116//116
f 84//84 85//85 116//116
f 85//85 117//117 116//116
f 118//118 85//85 86//86
f 118//118 117//117 85//85
f 14//14 15//15 46//46
f 46//46 15//15 47//47
f 46//46 13//13 14//14
f 46//46 45//45 13//13
f 47//47 79//79 46//46
f 46//46 79//79 78//78
f 46//46 77//77 45//45
f 78//78 77//77 46//46
f 8//8 7//7 11//11
f 11//11 25//25 24//24
f 11//11 26//26 25//25
f 24//24 23//23 11//11
f 1//1 32//32 11//11
f 11//11 18//18 17//17
f 17//17 16//16 11//11
f 11//11 32//32 31//31
f 31//31 30//30 11//11
f 28//28 27//27 11//11
f 11//11 2//2 1//1
f 11//11 9//9 8//8
f 21//21 20//20 11//11
f 11//11 29//29 28//28
f 11//11 5//5 4//4
f 4//4 3//3 11//11
f 11//11 22//22 21//21
f 11//11 20//20 19//19
f 27//27 26//26 11//11
f 30//30 29//29 11//11
f 6//6 5//5 11//11
f 11//11 3//3 2//2
f 16//16 15//15 11//11
f 11//11 13//13 12//12
f 11//11 23//23 22//22
f 19//19 18//18 11//11
f 11//11 7//7 6//6
f 11//11 15//15 14//14
f 14//14 13//13 11//11
f 11//11 10//10 9//9
f 11//11 44//44 43//43
f 12//12 44//44 11//11
f 43//43 42//42 11//11
f 42//42 10//10 11//11
f 109//109 108//108 76//76
f 76//76 77//77 109//109
f 78//78 110//110 109//109
f 109//109 77//77 78//78
f 120//120 121//121 119//119
f 100//100 101//101 119//119
f 103//103 104//104 119//119
f 119//119 128//128 97//97
f 119//119 112//112 113//113
f 119//119 105//105 106//106
f 119//119 126//126 127//127
f 119//119 102//102 103//103
f 114//114 115//115 119//119
f 127//127 128//128 119//119
f 119//119 110//110 111//111
f 124//124 125//125 119//119
f 119//119 104//104 105//105
f 113//113 114//114 119//119
f 119//119 101//101 102//102
f 106//106 107//107 119//119
f 119//119 99//99 100//100
f 97//97 98//98 119//119
f 119//119 123//123 124//124
f 121//121 122//122 119//119
f 111//111 112//112 119//119
f 119//119 107//107 108//108
f 108//108 109//109 119//119
f 119//119 98//98 99//99
f 119//119 125//125 126//126
f 119//119 122//122 123//123
f 115//115 116//116 119//119
f 119//119 116//116 117//117
f 117//117 118//118 119//119
f 119//119 109//109 110//110
f 119//119 87//87 88//88
f 119//119 88//88 120//120
f 86//86 87//87 119//119
f 119//119 118//118 86//86
